%TF.GenerationSoftware,KiCad,Pcbnew,8.0.6*%
%TF.CreationDate,2024-12-05T20:34:38+01:00*%
%TF.ProjectId,RP_MPQ5850_Test,52505f4d-5051-4353-9835-305f54657374,rev?*%
%TF.SameCoordinates,Original*%
%TF.FileFunction,Drillmap*%
%TF.FilePolarity,Positive*%
%FSLAX45Y45*%
G04 Gerber Fmt 4.5, Leading zero omitted, Abs format (unit mm)*
G04 Created by KiCad (PCBNEW 8.0.6) date 2024-12-05 20:34:38*
%MOMM*%
%LPD*%
G01*
G04 APERTURE LIST*
%ADD10C,0.100000*%
%ADD11C,0.200000*%
%ADD12C,0.120000*%
%ADD13C,0.600000*%
G04 APERTURE END LIST*
D10*
X2650000Y-1200000D02*
X9215000Y-1200000D01*
X9215000Y-7350000D01*
X2650000Y-7350000D01*
X2650000Y-1200000D01*
D11*
D10*
X2825000Y-1375000D02*
X2865000Y-1415000D01*
X2865000Y-1375000D02*
X2825000Y-1415000D01*
X2825000Y-1575000D02*
X2865000Y-1615000D01*
X2865000Y-1575000D02*
X2825000Y-1615000D01*
X2825000Y-1775000D02*
X2865000Y-1815000D01*
X2865000Y-1775000D02*
X2825000Y-1815000D01*
X2825000Y-1975000D02*
X2865000Y-2015000D01*
X2865000Y-1975000D02*
X2825000Y-2015000D01*
X2825000Y-2175000D02*
X2865000Y-2215000D01*
X2865000Y-2175000D02*
X2825000Y-2215000D01*
X2825000Y-2375000D02*
X2865000Y-2415000D01*
X2865000Y-2375000D02*
X2825000Y-2415000D01*
X2825000Y-2575000D02*
X2865000Y-2615000D01*
X2865000Y-2575000D02*
X2825000Y-2615000D01*
X2825000Y-2775000D02*
X2865000Y-2815000D01*
X2865000Y-2775000D02*
X2825000Y-2815000D01*
X2825000Y-2975000D02*
X2865000Y-3015000D01*
X2865000Y-2975000D02*
X2825000Y-3015000D01*
X2825000Y-3175000D02*
X2865000Y-3215000D01*
X2865000Y-3175000D02*
X2825000Y-3215000D01*
X2825000Y-3375000D02*
X2865000Y-3415000D01*
X2865000Y-3375000D02*
X2825000Y-3415000D01*
X2825000Y-3575000D02*
X2865000Y-3615000D01*
X2865000Y-3575000D02*
X2825000Y-3615000D01*
X2825000Y-3775000D02*
X2865000Y-3815000D01*
X2865000Y-3775000D02*
X2825000Y-3815000D01*
X2825000Y-3975000D02*
X2865000Y-4015000D01*
X2865000Y-3975000D02*
X2825000Y-4015000D01*
X2825000Y-4175000D02*
X2865000Y-4215000D01*
X2865000Y-4175000D02*
X2825000Y-4215000D01*
X2825000Y-4375000D02*
X2865000Y-4415000D01*
X2865000Y-4375000D02*
X2825000Y-4415000D01*
X2825000Y-4575000D02*
X2865000Y-4615000D01*
X2865000Y-4575000D02*
X2825000Y-4615000D01*
X2825000Y-4775000D02*
X2865000Y-4815000D01*
X2865000Y-4775000D02*
X2825000Y-4815000D01*
X2825000Y-4975000D02*
X2865000Y-5015000D01*
X2865000Y-4975000D02*
X2825000Y-5015000D01*
X2825000Y-5175000D02*
X2865000Y-5215000D01*
X2865000Y-5175000D02*
X2825000Y-5215000D01*
X2825000Y-5375000D02*
X2865000Y-5415000D01*
X2865000Y-5375000D02*
X2825000Y-5415000D01*
X2825000Y-5575000D02*
X2865000Y-5615000D01*
X2865000Y-5575000D02*
X2825000Y-5615000D01*
X2825000Y-5775000D02*
X2865000Y-5815000D01*
X2865000Y-5775000D02*
X2825000Y-5815000D01*
X2825000Y-5975000D02*
X2865000Y-6015000D01*
X2865000Y-5975000D02*
X2825000Y-6015000D01*
X2825000Y-6175000D02*
X2865000Y-6215000D01*
X2865000Y-6175000D02*
X2825000Y-6215000D01*
X2825000Y-6375000D02*
X2865000Y-6415000D01*
X2865000Y-6375000D02*
X2825000Y-6415000D01*
X2825000Y-6575000D02*
X2865000Y-6615000D01*
X2865000Y-6575000D02*
X2825000Y-6615000D01*
X2879000Y-6763000D02*
X2919000Y-6803000D01*
X2919000Y-6763000D02*
X2879000Y-6803000D01*
X2879000Y-7017000D02*
X2919000Y-7057000D01*
X2919000Y-7017000D02*
X2879000Y-7057000D01*
X3025000Y-1375000D02*
X3065000Y-1415000D01*
X3065000Y-1375000D02*
X3025000Y-1415000D01*
X3025000Y-1575000D02*
X3065000Y-1615000D01*
X3065000Y-1575000D02*
X3025000Y-1615000D01*
X3025000Y-2575000D02*
X3065000Y-2615000D01*
X3065000Y-2575000D02*
X3025000Y-2615000D01*
X3025000Y-2775000D02*
X3065000Y-2815000D01*
X3065000Y-2775000D02*
X3025000Y-2815000D01*
X3025000Y-2975000D02*
X3065000Y-3015000D01*
X3065000Y-2975000D02*
X3025000Y-3015000D01*
X3025000Y-3175000D02*
X3065000Y-3215000D01*
X3065000Y-3175000D02*
X3025000Y-3215000D01*
X3025000Y-3375000D02*
X3065000Y-3415000D01*
X3065000Y-3375000D02*
X3025000Y-3415000D01*
X3025000Y-4575000D02*
X3065000Y-4615000D01*
X3065000Y-4575000D02*
X3025000Y-4615000D01*
X3025000Y-4775000D02*
X3065000Y-4815000D01*
X3065000Y-4775000D02*
X3025000Y-4815000D01*
X3025000Y-4975000D02*
X3065000Y-5015000D01*
X3065000Y-4975000D02*
X3025000Y-5015000D01*
X3025000Y-5175000D02*
X3065000Y-5215000D01*
X3065000Y-5175000D02*
X3025000Y-5215000D01*
X3025000Y-5375000D02*
X3065000Y-5415000D01*
X3065000Y-5375000D02*
X3025000Y-5415000D01*
X3025000Y-6375000D02*
X3065000Y-6415000D01*
X3065000Y-6375000D02*
X3025000Y-6415000D01*
X3025000Y-6575000D02*
X3065000Y-6615000D01*
X3065000Y-6575000D02*
X3025000Y-6615000D01*
X3133000Y-6763000D02*
X3173000Y-6803000D01*
X3173000Y-6763000D02*
X3133000Y-6803000D01*
X3133000Y-7017000D02*
X3173000Y-7057000D01*
X3173000Y-7017000D02*
X3133000Y-7057000D01*
X3225000Y-1375000D02*
X3265000Y-1415000D01*
X3265000Y-1375000D02*
X3225000Y-1415000D01*
X3225000Y-2775000D02*
X3265000Y-2815000D01*
X3265000Y-2775000D02*
X3225000Y-2815000D01*
X3225000Y-2975000D02*
X3265000Y-3015000D01*
X3265000Y-2975000D02*
X3225000Y-3015000D01*
X3225000Y-3175000D02*
X3265000Y-3215000D01*
X3265000Y-3175000D02*
X3225000Y-3215000D01*
X3225000Y-3375000D02*
X3265000Y-3415000D01*
X3265000Y-3375000D02*
X3225000Y-3415000D01*
X3225000Y-4775000D02*
X3265000Y-4815000D01*
X3265000Y-4775000D02*
X3225000Y-4815000D01*
X3225000Y-4975000D02*
X3265000Y-5015000D01*
X3265000Y-4975000D02*
X3225000Y-5015000D01*
X3225000Y-5175000D02*
X3265000Y-5215000D01*
X3265000Y-5175000D02*
X3225000Y-5215000D01*
X3225000Y-6575000D02*
X3265000Y-6615000D01*
X3265000Y-6575000D02*
X3225000Y-6615000D01*
X3387000Y-6763000D02*
X3427000Y-6803000D01*
X3427000Y-6763000D02*
X3387000Y-6803000D01*
X3387000Y-7017000D02*
X3427000Y-7057000D01*
X3427000Y-7017000D02*
X3387000Y-7057000D01*
X3425000Y-2775000D02*
X3465000Y-2815000D01*
X3465000Y-2775000D02*
X3425000Y-2815000D01*
X3425000Y-2975000D02*
X3465000Y-3015000D01*
X3465000Y-2975000D02*
X3425000Y-3015000D01*
X3425000Y-3175000D02*
X3465000Y-3215000D01*
X3465000Y-3175000D02*
X3425000Y-3215000D01*
X3425000Y-4775000D02*
X3465000Y-4815000D01*
X3465000Y-4775000D02*
X3425000Y-4815000D01*
X3425000Y-4975000D02*
X3465000Y-5015000D01*
X3465000Y-4975000D02*
X3425000Y-5015000D01*
X3425000Y-5175000D02*
X3465000Y-5215000D01*
X3465000Y-5175000D02*
X3425000Y-5215000D01*
X3625000Y-2775000D02*
X3665000Y-2815000D01*
X3665000Y-2775000D02*
X3625000Y-2815000D01*
X3625000Y-2975000D02*
X3665000Y-3015000D01*
X3665000Y-2975000D02*
X3625000Y-3015000D01*
X3625000Y-3175000D02*
X3665000Y-3215000D01*
X3665000Y-3175000D02*
X3625000Y-3215000D01*
X3625000Y-4775000D02*
X3665000Y-4815000D01*
X3665000Y-4775000D02*
X3625000Y-4815000D01*
X3625000Y-4975000D02*
X3665000Y-5015000D01*
X3665000Y-4975000D02*
X3625000Y-5015000D01*
X3625000Y-5175000D02*
X3665000Y-5215000D01*
X3665000Y-5175000D02*
X3625000Y-5215000D01*
X3641000Y-6763000D02*
X3681000Y-6803000D01*
X3681000Y-6763000D02*
X3641000Y-6803000D01*
X3641000Y-7017000D02*
X3681000Y-7057000D01*
X3681000Y-7017000D02*
X3641000Y-7057000D01*
X3825000Y-1375000D02*
X3865000Y-1415000D01*
X3865000Y-1375000D02*
X3825000Y-1415000D01*
X3825000Y-2775000D02*
X3865000Y-2815000D01*
X3865000Y-2775000D02*
X3825000Y-2815000D01*
X3825000Y-2975000D02*
X3865000Y-3015000D01*
X3865000Y-2975000D02*
X3825000Y-3015000D01*
X3825000Y-3175000D02*
X3865000Y-3215000D01*
X3865000Y-3175000D02*
X3825000Y-3215000D01*
X3825000Y-4775000D02*
X3865000Y-4815000D01*
X3865000Y-4775000D02*
X3825000Y-4815000D01*
X3825000Y-4975000D02*
X3865000Y-5015000D01*
X3865000Y-4975000D02*
X3825000Y-5015000D01*
X3825000Y-5175000D02*
X3865000Y-5215000D01*
X3865000Y-5175000D02*
X3825000Y-5215000D01*
X3825000Y-6575000D02*
X3865000Y-6615000D01*
X3865000Y-6575000D02*
X3825000Y-6615000D01*
X3895000Y-6763000D02*
X3935000Y-6803000D01*
X3935000Y-6763000D02*
X3895000Y-6803000D01*
X3895000Y-7017000D02*
X3935000Y-7057000D01*
X3935000Y-7017000D02*
X3895000Y-7057000D01*
X4025000Y-1375000D02*
X4065000Y-1415000D01*
X4065000Y-1375000D02*
X4025000Y-1415000D01*
X4025000Y-2575000D02*
X4065000Y-2615000D01*
X4065000Y-2575000D02*
X4025000Y-2615000D01*
X4025000Y-2775000D02*
X4065000Y-2815000D01*
X4065000Y-2775000D02*
X4025000Y-2815000D01*
X4025000Y-2975000D02*
X4065000Y-3015000D01*
X4065000Y-2975000D02*
X4025000Y-3015000D01*
X4025000Y-3175000D02*
X4065000Y-3215000D01*
X4065000Y-3175000D02*
X4025000Y-3215000D01*
X4025000Y-3375000D02*
X4065000Y-3415000D01*
X4065000Y-3375000D02*
X4025000Y-3415000D01*
X4025000Y-4575000D02*
X4065000Y-4615000D01*
X4065000Y-4575000D02*
X4025000Y-4615000D01*
X4025000Y-4775000D02*
X4065000Y-4815000D01*
X4065000Y-4775000D02*
X4025000Y-4815000D01*
X4025000Y-4975000D02*
X4065000Y-5015000D01*
X4065000Y-4975000D02*
X4025000Y-5015000D01*
X4025000Y-5175000D02*
X4065000Y-5215000D01*
X4065000Y-5175000D02*
X4025000Y-5215000D01*
X4025000Y-5375000D02*
X4065000Y-5415000D01*
X4065000Y-5375000D02*
X4025000Y-5415000D01*
X4025000Y-6575000D02*
X4065000Y-6615000D01*
X4065000Y-6575000D02*
X4025000Y-6615000D01*
X4149000Y-6763000D02*
X4189000Y-6803000D01*
X4189000Y-6763000D02*
X4149000Y-6803000D01*
X4225000Y-1375000D02*
X4265000Y-1415000D01*
X4265000Y-1375000D02*
X4225000Y-1415000D01*
X4225000Y-1575000D02*
X4265000Y-1615000D01*
X4265000Y-1575000D02*
X4225000Y-1615000D01*
X4225000Y-1775000D02*
X4265000Y-1815000D01*
X4265000Y-1775000D02*
X4225000Y-1815000D01*
X4225000Y-1975000D02*
X4265000Y-2015000D01*
X4265000Y-1975000D02*
X4225000Y-2015000D01*
X4225000Y-2175000D02*
X4265000Y-2215000D01*
X4265000Y-2175000D02*
X4225000Y-2215000D01*
X4225000Y-2375000D02*
X4265000Y-2415000D01*
X4265000Y-2375000D02*
X4225000Y-2415000D01*
X4225000Y-2575000D02*
X4265000Y-2615000D01*
X4265000Y-2575000D02*
X4225000Y-2615000D01*
X4225000Y-2775000D02*
X4265000Y-2815000D01*
X4265000Y-2775000D02*
X4225000Y-2815000D01*
X4225000Y-2975000D02*
X4265000Y-3015000D01*
X4265000Y-2975000D02*
X4225000Y-3015000D01*
X4225000Y-3175000D02*
X4265000Y-3215000D01*
X4265000Y-3175000D02*
X4225000Y-3215000D01*
X4225000Y-3375000D02*
X4265000Y-3415000D01*
X4265000Y-3375000D02*
X4225000Y-3415000D01*
X4225000Y-3575000D02*
X4265000Y-3615000D01*
X4265000Y-3575000D02*
X4225000Y-3615000D01*
X4225000Y-3775000D02*
X4265000Y-3815000D01*
X4265000Y-3775000D02*
X4225000Y-3815000D01*
X4225000Y-3975000D02*
X4265000Y-4015000D01*
X4265000Y-3975000D02*
X4225000Y-4015000D01*
X4225000Y-4175000D02*
X4265000Y-4215000D01*
X4265000Y-4175000D02*
X4225000Y-4215000D01*
X4225000Y-4375000D02*
X4265000Y-4415000D01*
X4265000Y-4375000D02*
X4225000Y-4415000D01*
X4225000Y-4575000D02*
X4265000Y-4615000D01*
X4265000Y-4575000D02*
X4225000Y-4615000D01*
X4225000Y-4775000D02*
X4265000Y-4815000D01*
X4265000Y-4775000D02*
X4225000Y-4815000D01*
X4225000Y-4975000D02*
X4265000Y-5015000D01*
X4265000Y-4975000D02*
X4225000Y-5015000D01*
X4225000Y-5175000D02*
X4265000Y-5215000D01*
X4265000Y-5175000D02*
X4225000Y-5215000D01*
X4225000Y-5375000D02*
X4265000Y-5415000D01*
X4265000Y-5375000D02*
X4225000Y-5415000D01*
X4225000Y-5575000D02*
X4265000Y-5615000D01*
X4265000Y-5575000D02*
X4225000Y-5615000D01*
X4225000Y-5775000D02*
X4265000Y-5815000D01*
X4265000Y-5775000D02*
X4225000Y-5815000D01*
X4225000Y-5975000D02*
X4265000Y-6015000D01*
X4265000Y-5975000D02*
X4225000Y-6015000D01*
X4225000Y-6175000D02*
X4265000Y-6215000D01*
X4265000Y-6175000D02*
X4225000Y-6215000D01*
X4225000Y-6375000D02*
X4265000Y-6415000D01*
X4265000Y-6375000D02*
X4225000Y-6415000D01*
X4225000Y-6575000D02*
X4265000Y-6615000D01*
X4265000Y-6575000D02*
X4225000Y-6615000D01*
X4425000Y-1375000D02*
X4465000Y-1415000D01*
X4465000Y-1375000D02*
X4425000Y-1415000D01*
X4425000Y-1575000D02*
X4465000Y-1615000D01*
X4465000Y-1575000D02*
X4425000Y-1615000D01*
X4425000Y-1775000D02*
X4465000Y-1815000D01*
X4465000Y-1775000D02*
X4425000Y-1815000D01*
X4425000Y-1975000D02*
X4465000Y-2015000D01*
X4465000Y-1975000D02*
X4425000Y-2015000D01*
X4425000Y-2175000D02*
X4465000Y-2215000D01*
X4465000Y-2175000D02*
X4425000Y-2215000D01*
X4425000Y-2375000D02*
X4465000Y-2415000D01*
X4465000Y-2375000D02*
X4425000Y-2415000D01*
X4425000Y-2575000D02*
X4465000Y-2615000D01*
X4465000Y-2575000D02*
X4425000Y-2615000D01*
X4425000Y-2775000D02*
X4465000Y-2815000D01*
X4465000Y-2775000D02*
X4425000Y-2815000D01*
X4425000Y-2975000D02*
X4465000Y-3015000D01*
X4465000Y-2975000D02*
X4425000Y-3015000D01*
X4425000Y-3175000D02*
X4465000Y-3215000D01*
X4465000Y-3175000D02*
X4425000Y-3215000D01*
X4425000Y-3375000D02*
X4465000Y-3415000D01*
X4465000Y-3375000D02*
X4425000Y-3415000D01*
X4425000Y-3575000D02*
X4465000Y-3615000D01*
X4465000Y-3575000D02*
X4425000Y-3615000D01*
X4425000Y-3775000D02*
X4465000Y-3815000D01*
X4465000Y-3775000D02*
X4425000Y-3815000D01*
X4425000Y-3975000D02*
X4465000Y-4015000D01*
X4465000Y-3975000D02*
X4425000Y-4015000D01*
X4425000Y-4175000D02*
X4465000Y-4215000D01*
X4465000Y-4175000D02*
X4425000Y-4215000D01*
X4425000Y-4375000D02*
X4465000Y-4415000D01*
X4465000Y-4375000D02*
X4425000Y-4415000D01*
X4425000Y-4575000D02*
X4465000Y-4615000D01*
X4465000Y-4575000D02*
X4425000Y-4615000D01*
X4425000Y-4775000D02*
X4465000Y-4815000D01*
X4465000Y-4775000D02*
X4425000Y-4815000D01*
X4425000Y-4975000D02*
X4465000Y-5015000D01*
X4465000Y-4975000D02*
X4425000Y-5015000D01*
X4425000Y-5175000D02*
X4465000Y-5215000D01*
X4465000Y-5175000D02*
X4425000Y-5215000D01*
X4425000Y-5375000D02*
X4465000Y-5415000D01*
X4465000Y-5375000D02*
X4425000Y-5415000D01*
X4425000Y-5575000D02*
X4465000Y-5615000D01*
X4465000Y-5575000D02*
X4425000Y-5615000D01*
X4425000Y-5775000D02*
X4465000Y-5815000D01*
X4465000Y-5775000D02*
X4425000Y-5815000D01*
X4425000Y-5975000D02*
X4465000Y-6015000D01*
X4465000Y-5975000D02*
X4425000Y-6015000D01*
X4625000Y-1375000D02*
X4665000Y-1415000D01*
X4665000Y-1375000D02*
X4625000Y-1415000D01*
X4625000Y-1575000D02*
X4665000Y-1615000D01*
X4665000Y-1575000D02*
X4625000Y-1615000D01*
X4625000Y-1775000D02*
X4665000Y-1815000D01*
X4665000Y-1775000D02*
X4625000Y-1815000D01*
X4625000Y-1975000D02*
X4665000Y-2015000D01*
X4665000Y-1975000D02*
X4625000Y-2015000D01*
X4625000Y-2175000D02*
X4665000Y-2215000D01*
X4665000Y-2175000D02*
X4625000Y-2215000D01*
X4625000Y-2375000D02*
X4665000Y-2415000D01*
X4665000Y-2375000D02*
X4625000Y-2415000D01*
X4625000Y-2575000D02*
X4665000Y-2615000D01*
X4665000Y-2575000D02*
X4625000Y-2615000D01*
X4625000Y-2775000D02*
X4665000Y-2815000D01*
X4665000Y-2775000D02*
X4625000Y-2815000D01*
X4625000Y-2975000D02*
X4665000Y-3015000D01*
X4665000Y-2975000D02*
X4625000Y-3015000D01*
X4625000Y-3175000D02*
X4665000Y-3215000D01*
X4665000Y-3175000D02*
X4625000Y-3215000D01*
X4625000Y-3375000D02*
X4665000Y-3415000D01*
X4665000Y-3375000D02*
X4625000Y-3415000D01*
X4625000Y-3575000D02*
X4665000Y-3615000D01*
X4665000Y-3575000D02*
X4625000Y-3615000D01*
X4625000Y-3775000D02*
X4665000Y-3815000D01*
X4665000Y-3775000D02*
X4625000Y-3815000D01*
X4625000Y-3975000D02*
X4665000Y-4015000D01*
X4665000Y-3975000D02*
X4625000Y-4015000D01*
X4625000Y-4175000D02*
X4665000Y-4215000D01*
X4665000Y-4175000D02*
X4625000Y-4215000D01*
X4625000Y-4375000D02*
X4665000Y-4415000D01*
X4665000Y-4375000D02*
X4625000Y-4415000D01*
X4625000Y-4575000D02*
X4665000Y-4615000D01*
X4665000Y-4575000D02*
X4625000Y-4615000D01*
X4625000Y-4775000D02*
X4665000Y-4815000D01*
X4665000Y-4775000D02*
X4625000Y-4815000D01*
X4625000Y-4975000D02*
X4665000Y-5015000D01*
X4665000Y-4975000D02*
X4625000Y-5015000D01*
X4625000Y-5175000D02*
X4665000Y-5215000D01*
X4665000Y-5175000D02*
X4625000Y-5215000D01*
X4625000Y-5375000D02*
X4665000Y-5415000D01*
X4665000Y-5375000D02*
X4625000Y-5415000D01*
X4625000Y-5575000D02*
X4665000Y-5615000D01*
X4665000Y-5575000D02*
X4625000Y-5615000D01*
X4625000Y-5775000D02*
X4665000Y-5815000D01*
X4665000Y-5775000D02*
X4625000Y-5815000D01*
X4625000Y-5975000D02*
X4665000Y-6015000D01*
X4665000Y-5975000D02*
X4625000Y-6015000D01*
X4805000Y-6830000D02*
X4845000Y-6870000D01*
X4845000Y-6830000D02*
X4805000Y-6870000D01*
X4825000Y-1375000D02*
X4865000Y-1415000D01*
X4865000Y-1375000D02*
X4825000Y-1415000D01*
X4825000Y-1575000D02*
X4865000Y-1615000D01*
X4865000Y-1575000D02*
X4825000Y-1615000D01*
X4825000Y-1775000D02*
X4865000Y-1815000D01*
X4865000Y-1775000D02*
X4825000Y-1815000D01*
X4825000Y-1975000D02*
X4865000Y-2015000D01*
X4865000Y-1975000D02*
X4825000Y-2015000D01*
X4825000Y-2175000D02*
X4865000Y-2215000D01*
X4865000Y-2175000D02*
X4825000Y-2215000D01*
X4825000Y-2375000D02*
X4865000Y-2415000D01*
X4865000Y-2375000D02*
X4825000Y-2415000D01*
X4825000Y-2575000D02*
X4865000Y-2615000D01*
X4865000Y-2575000D02*
X4825000Y-2615000D01*
X4825000Y-2775000D02*
X4865000Y-2815000D01*
X4865000Y-2775000D02*
X4825000Y-2815000D01*
X4825000Y-2975000D02*
X4865000Y-3015000D01*
X4865000Y-2975000D02*
X4825000Y-3015000D01*
X4825000Y-3175000D02*
X4865000Y-3215000D01*
X4865000Y-3175000D02*
X4825000Y-3215000D01*
X4825000Y-3375000D02*
X4865000Y-3415000D01*
X4865000Y-3375000D02*
X4825000Y-3415000D01*
X4825000Y-3575000D02*
X4865000Y-3615000D01*
X4865000Y-3575000D02*
X4825000Y-3615000D01*
X4825000Y-3775000D02*
X4865000Y-3815000D01*
X4865000Y-3775000D02*
X4825000Y-3815000D01*
X4825000Y-3975000D02*
X4865000Y-4015000D01*
X4865000Y-3975000D02*
X4825000Y-4015000D01*
X4825000Y-4175000D02*
X4865000Y-4215000D01*
X4865000Y-4175000D02*
X4825000Y-4215000D01*
X4825000Y-4375000D02*
X4865000Y-4415000D01*
X4865000Y-4375000D02*
X4825000Y-4415000D01*
X4825000Y-4575000D02*
X4865000Y-4615000D01*
X4865000Y-4575000D02*
X4825000Y-4615000D01*
X4825000Y-4775000D02*
X4865000Y-4815000D01*
X4865000Y-4775000D02*
X4825000Y-4815000D01*
X4825000Y-4975000D02*
X4865000Y-5015000D01*
X4865000Y-4975000D02*
X4825000Y-5015000D01*
X4825000Y-5175000D02*
X4865000Y-5215000D01*
X4865000Y-5175000D02*
X4825000Y-5215000D01*
X4825000Y-5375000D02*
X4865000Y-5415000D01*
X4865000Y-5375000D02*
X4825000Y-5415000D01*
X4825000Y-5575000D02*
X4865000Y-5615000D01*
X4865000Y-5575000D02*
X4825000Y-5615000D01*
X4825000Y-5775000D02*
X4865000Y-5815000D01*
X4865000Y-5775000D02*
X4825000Y-5815000D01*
X4825000Y-5975000D02*
X4865000Y-6015000D01*
X4865000Y-5975000D02*
X4825000Y-6015000D01*
X4825000Y-6175000D02*
X4865000Y-6215000D01*
X4865000Y-6175000D02*
X4825000Y-6215000D01*
X4825000Y-6375000D02*
X4865000Y-6415000D01*
X4865000Y-6375000D02*
X4825000Y-6415000D01*
X4905000Y-7220000D02*
X4945000Y-7260000D01*
X4945000Y-7220000D02*
X4905000Y-7260000D01*
X4922500Y-6930000D02*
X4962500Y-6970000D01*
X4962500Y-6930000D02*
X4922500Y-6970000D01*
X5025000Y-1975000D02*
X5065000Y-2015000D01*
X5065000Y-1975000D02*
X5025000Y-2015000D01*
X5025000Y-2175000D02*
X5065000Y-2215000D01*
X5065000Y-2175000D02*
X5025000Y-2215000D01*
X5025000Y-2775000D02*
X5065000Y-2815000D01*
X5065000Y-2775000D02*
X5025000Y-2815000D01*
X5025000Y-2975000D02*
X5065000Y-3015000D01*
X5065000Y-2975000D02*
X5025000Y-3015000D01*
X5025000Y-3775000D02*
X5065000Y-3815000D01*
X5065000Y-3775000D02*
X5025000Y-3815000D01*
X5025000Y-4575000D02*
X5065000Y-4615000D01*
X5065000Y-4575000D02*
X5025000Y-4615000D01*
X5025000Y-4775000D02*
X5065000Y-4815000D01*
X5065000Y-4775000D02*
X5025000Y-4815000D01*
X5025000Y-5375000D02*
X5065000Y-5415000D01*
X5065000Y-5375000D02*
X5025000Y-5415000D01*
X5025000Y-5575000D02*
X5065000Y-5615000D01*
X5065000Y-5575000D02*
X5025000Y-5615000D01*
X5180000Y-1955000D02*
X5220000Y-1995000D01*
X5220000Y-1955000D02*
X5180000Y-1995000D01*
X5180000Y-2830000D02*
X5220000Y-2870000D01*
X5220000Y-2830000D02*
X5180000Y-2870000D01*
X5180000Y-3705000D02*
X5220000Y-3745000D01*
X5220000Y-3705000D02*
X5180000Y-3745000D01*
X5180000Y-4580000D02*
X5220000Y-4620000D01*
X5220000Y-4580000D02*
X5180000Y-4620000D01*
X5180000Y-5455000D02*
X5220000Y-5495000D01*
X5220000Y-5455000D02*
X5180000Y-5495000D01*
X5180000Y-6305000D02*
X5220000Y-6345000D01*
X5220000Y-6305000D02*
X5180000Y-6345000D01*
X5425000Y-1975000D02*
X5465000Y-2015000D01*
X5465000Y-1975000D02*
X5425000Y-2015000D01*
X5425000Y-2175000D02*
X5465000Y-2215000D01*
X5465000Y-2175000D02*
X5425000Y-2215000D01*
X5425000Y-2775000D02*
X5465000Y-2815000D01*
X5465000Y-2775000D02*
X5425000Y-2815000D01*
X5425000Y-2975000D02*
X5465000Y-3015000D01*
X5465000Y-2975000D02*
X5425000Y-3015000D01*
X5425000Y-3775000D02*
X5465000Y-3815000D01*
X5465000Y-3775000D02*
X5425000Y-3815000D01*
X5425000Y-4575000D02*
X5465000Y-4615000D01*
X5465000Y-4575000D02*
X5425000Y-4615000D01*
X5425000Y-4775000D02*
X5465000Y-4815000D01*
X5465000Y-4775000D02*
X5425000Y-4815000D01*
X5425000Y-5375000D02*
X5465000Y-5415000D01*
X5465000Y-5375000D02*
X5425000Y-5415000D01*
X5425000Y-5575000D02*
X5465000Y-5615000D01*
X5465000Y-5575000D02*
X5425000Y-5615000D01*
X5625000Y-1975000D02*
X5665000Y-2015000D01*
X5665000Y-1975000D02*
X5625000Y-2015000D01*
X5625000Y-2175000D02*
X5665000Y-2215000D01*
X5665000Y-2175000D02*
X5625000Y-2215000D01*
X5625000Y-2775000D02*
X5665000Y-2815000D01*
X5665000Y-2775000D02*
X5625000Y-2815000D01*
X5625000Y-2975000D02*
X5665000Y-3015000D01*
X5665000Y-2975000D02*
X5625000Y-3015000D01*
X5625000Y-3775000D02*
X5665000Y-3815000D01*
X5665000Y-3775000D02*
X5625000Y-3815000D01*
X5625000Y-4575000D02*
X5665000Y-4615000D01*
X5665000Y-4575000D02*
X5625000Y-4615000D01*
X5625000Y-4775000D02*
X5665000Y-4815000D01*
X5665000Y-4775000D02*
X5625000Y-4815000D01*
X5625000Y-5375000D02*
X5665000Y-5415000D01*
X5665000Y-5375000D02*
X5625000Y-5415000D01*
X5625000Y-5575000D02*
X5665000Y-5615000D01*
X5665000Y-5575000D02*
X5625000Y-5615000D01*
X5825000Y-1375000D02*
X5865000Y-1415000D01*
X5865000Y-1375000D02*
X5825000Y-1415000D01*
X5825000Y-1575000D02*
X5865000Y-1615000D01*
X5865000Y-1575000D02*
X5825000Y-1615000D01*
X5825000Y-1775000D02*
X5865000Y-1815000D01*
X5865000Y-1775000D02*
X5825000Y-1815000D01*
X5825000Y-1975000D02*
X5865000Y-2015000D01*
X5865000Y-1975000D02*
X5825000Y-2015000D01*
X5825000Y-2175000D02*
X5865000Y-2215000D01*
X5865000Y-2175000D02*
X5825000Y-2215000D01*
X5825000Y-2375000D02*
X5865000Y-2415000D01*
X5865000Y-2375000D02*
X5825000Y-2415000D01*
X5825000Y-2575000D02*
X5865000Y-2615000D01*
X5865000Y-2575000D02*
X5825000Y-2615000D01*
X5825000Y-2775000D02*
X5865000Y-2815000D01*
X5865000Y-2775000D02*
X5825000Y-2815000D01*
X5825000Y-2975000D02*
X5865000Y-3015000D01*
X5865000Y-2975000D02*
X5825000Y-3015000D01*
X5825000Y-3175000D02*
X5865000Y-3215000D01*
X5865000Y-3175000D02*
X5825000Y-3215000D01*
X5825000Y-3375000D02*
X5865000Y-3415000D01*
X5865000Y-3375000D02*
X5825000Y-3415000D01*
X5825000Y-3575000D02*
X5865000Y-3615000D01*
X5865000Y-3575000D02*
X5825000Y-3615000D01*
X5825000Y-3775000D02*
X5865000Y-3815000D01*
X5865000Y-3775000D02*
X5825000Y-3815000D01*
X5825000Y-3975000D02*
X5865000Y-4015000D01*
X5865000Y-3975000D02*
X5825000Y-4015000D01*
X5825000Y-4175000D02*
X5865000Y-4215000D01*
X5865000Y-4175000D02*
X5825000Y-4215000D01*
X5825000Y-4375000D02*
X5865000Y-4415000D01*
X5865000Y-4375000D02*
X5825000Y-4415000D01*
X5825000Y-4575000D02*
X5865000Y-4615000D01*
X5865000Y-4575000D02*
X5825000Y-4615000D01*
X5825000Y-4775000D02*
X5865000Y-4815000D01*
X5865000Y-4775000D02*
X5825000Y-4815000D01*
X5825000Y-4975000D02*
X5865000Y-5015000D01*
X5865000Y-4975000D02*
X5825000Y-5015000D01*
X5825000Y-5175000D02*
X5865000Y-5215000D01*
X5865000Y-5175000D02*
X5825000Y-5215000D01*
X5825000Y-5375000D02*
X5865000Y-5415000D01*
X5865000Y-5375000D02*
X5825000Y-5415000D01*
X5825000Y-5575000D02*
X5865000Y-5615000D01*
X5865000Y-5575000D02*
X5825000Y-5615000D01*
X5825000Y-5775000D02*
X5865000Y-5815000D01*
X5865000Y-5775000D02*
X5825000Y-5815000D01*
X5825000Y-5975000D02*
X5865000Y-6015000D01*
X5865000Y-5975000D02*
X5825000Y-6015000D01*
X5830000Y-6480000D02*
X5870000Y-6520000D01*
X5870000Y-6480000D02*
X5830000Y-6520000D01*
X5927000Y-6763000D02*
X5967000Y-6803000D01*
X5967000Y-6763000D02*
X5927000Y-6803000D01*
X5927000Y-7017000D02*
X5967000Y-7057000D01*
X5967000Y-7017000D02*
X5927000Y-7057000D01*
X5980000Y-6580000D02*
X6020000Y-6620000D01*
X6020000Y-6580000D02*
X5980000Y-6620000D01*
X6025000Y-1375000D02*
X6065000Y-1415000D01*
X6065000Y-1375000D02*
X6025000Y-1415000D01*
X6025000Y-1575000D02*
X6065000Y-1615000D01*
X6065000Y-1575000D02*
X6025000Y-1615000D01*
X6025000Y-1775000D02*
X6065000Y-1815000D01*
X6065000Y-1775000D02*
X6025000Y-1815000D01*
X6025000Y-1975000D02*
X6065000Y-2015000D01*
X6065000Y-1975000D02*
X6025000Y-2015000D01*
X6025000Y-2175000D02*
X6065000Y-2215000D01*
X6065000Y-2175000D02*
X6025000Y-2215000D01*
X6025000Y-2375000D02*
X6065000Y-2415000D01*
X6065000Y-2375000D02*
X6025000Y-2415000D01*
X6025000Y-2575000D02*
X6065000Y-2615000D01*
X6065000Y-2575000D02*
X6025000Y-2615000D01*
X6025000Y-2775000D02*
X6065000Y-2815000D01*
X6065000Y-2775000D02*
X6025000Y-2815000D01*
X6025000Y-2975000D02*
X6065000Y-3015000D01*
X6065000Y-2975000D02*
X6025000Y-3015000D01*
X6025000Y-3175000D02*
X6065000Y-3215000D01*
X6065000Y-3175000D02*
X6025000Y-3215000D01*
X6025000Y-3375000D02*
X6065000Y-3415000D01*
X6065000Y-3375000D02*
X6025000Y-3415000D01*
X6025000Y-3575000D02*
X6065000Y-3615000D01*
X6065000Y-3575000D02*
X6025000Y-3615000D01*
X6025000Y-3775000D02*
X6065000Y-3815000D01*
X6065000Y-3775000D02*
X6025000Y-3815000D01*
X6025000Y-3975000D02*
X6065000Y-4015000D01*
X6065000Y-3975000D02*
X6025000Y-4015000D01*
X6025000Y-4175000D02*
X6065000Y-4215000D01*
X6065000Y-4175000D02*
X6025000Y-4215000D01*
X6025000Y-4375000D02*
X6065000Y-4415000D01*
X6065000Y-4375000D02*
X6025000Y-4415000D01*
X6025000Y-4575000D02*
X6065000Y-4615000D01*
X6065000Y-4575000D02*
X6025000Y-4615000D01*
X6025000Y-4775000D02*
X6065000Y-4815000D01*
X6065000Y-4775000D02*
X6025000Y-4815000D01*
X6025000Y-4975000D02*
X6065000Y-5015000D01*
X6065000Y-4975000D02*
X6025000Y-5015000D01*
X6025000Y-5175000D02*
X6065000Y-5215000D01*
X6065000Y-5175000D02*
X6025000Y-5215000D01*
X6025000Y-5375000D02*
X6065000Y-5415000D01*
X6065000Y-5375000D02*
X6025000Y-5415000D01*
X6025000Y-5575000D02*
X6065000Y-5615000D01*
X6065000Y-5575000D02*
X6025000Y-5615000D01*
X6025000Y-5775000D02*
X6065000Y-5815000D01*
X6065000Y-5775000D02*
X6025000Y-5815000D01*
X6025000Y-5975000D02*
X6065000Y-6015000D01*
X6065000Y-5975000D02*
X6025000Y-6015000D01*
X6130000Y-6480000D02*
X6170000Y-6520000D01*
X6170000Y-6480000D02*
X6130000Y-6520000D01*
X6181000Y-6763000D02*
X6221000Y-6803000D01*
X6221000Y-6763000D02*
X6181000Y-6803000D01*
X6181000Y-7017000D02*
X6221000Y-7057000D01*
X6221000Y-7017000D02*
X6181000Y-7057000D01*
X6225000Y-1375000D02*
X6265000Y-1415000D01*
X6265000Y-1375000D02*
X6225000Y-1415000D01*
X6225000Y-1575000D02*
X6265000Y-1615000D01*
X6265000Y-1575000D02*
X6225000Y-1615000D01*
X6225000Y-1775000D02*
X6265000Y-1815000D01*
X6265000Y-1775000D02*
X6225000Y-1815000D01*
X6225000Y-1975000D02*
X6265000Y-2015000D01*
X6265000Y-1975000D02*
X6225000Y-2015000D01*
X6225000Y-2175000D02*
X6265000Y-2215000D01*
X6265000Y-2175000D02*
X6225000Y-2215000D01*
X6225000Y-2375000D02*
X6265000Y-2415000D01*
X6265000Y-2375000D02*
X6225000Y-2415000D01*
X6225000Y-2575000D02*
X6265000Y-2615000D01*
X6265000Y-2575000D02*
X6225000Y-2615000D01*
X6225000Y-2775000D02*
X6265000Y-2815000D01*
X6265000Y-2775000D02*
X6225000Y-2815000D01*
X6225000Y-2975000D02*
X6265000Y-3015000D01*
X6265000Y-2975000D02*
X6225000Y-3015000D01*
X6225000Y-3175000D02*
X6265000Y-3215000D01*
X6265000Y-3175000D02*
X6225000Y-3215000D01*
X6225000Y-3375000D02*
X6265000Y-3415000D01*
X6265000Y-3375000D02*
X6225000Y-3415000D01*
X6225000Y-3575000D02*
X6265000Y-3615000D01*
X6265000Y-3575000D02*
X6225000Y-3615000D01*
X6225000Y-3775000D02*
X6265000Y-3815000D01*
X6265000Y-3775000D02*
X6225000Y-3815000D01*
X6225000Y-3975000D02*
X6265000Y-4015000D01*
X6265000Y-3975000D02*
X6225000Y-4015000D01*
X6225000Y-4175000D02*
X6265000Y-4215000D01*
X6265000Y-4175000D02*
X6225000Y-4215000D01*
X6225000Y-4375000D02*
X6265000Y-4415000D01*
X6265000Y-4375000D02*
X6225000Y-4415000D01*
X6225000Y-4575000D02*
X6265000Y-4615000D01*
X6265000Y-4575000D02*
X6225000Y-4615000D01*
X6225000Y-4775000D02*
X6265000Y-4815000D01*
X6265000Y-4775000D02*
X6225000Y-4815000D01*
X6225000Y-4975000D02*
X6265000Y-5015000D01*
X6265000Y-4975000D02*
X6225000Y-5015000D01*
X6225000Y-5175000D02*
X6265000Y-5215000D01*
X6265000Y-5175000D02*
X6225000Y-5215000D01*
X6225000Y-5375000D02*
X6265000Y-5415000D01*
X6265000Y-5375000D02*
X6225000Y-5415000D01*
X6225000Y-5575000D02*
X6265000Y-5615000D01*
X6265000Y-5575000D02*
X6225000Y-5615000D01*
X6225000Y-5775000D02*
X6265000Y-5815000D01*
X6265000Y-5775000D02*
X6225000Y-5815000D01*
X6225000Y-5975000D02*
X6265000Y-6015000D01*
X6265000Y-5975000D02*
X6225000Y-6015000D01*
X6225000Y-6175000D02*
X6265000Y-6215000D01*
X6265000Y-6175000D02*
X6225000Y-6215000D01*
X6425000Y-1375000D02*
X6465000Y-1415000D01*
X6465000Y-1375000D02*
X6425000Y-1415000D01*
X6425000Y-1575000D02*
X6465000Y-1615000D01*
X6465000Y-1575000D02*
X6425000Y-1615000D01*
X6425000Y-1775000D02*
X6465000Y-1815000D01*
X6465000Y-1775000D02*
X6425000Y-1815000D01*
X6425000Y-1975000D02*
X6465000Y-2015000D01*
X6465000Y-1975000D02*
X6425000Y-2015000D01*
X6425000Y-2175000D02*
X6465000Y-2215000D01*
X6465000Y-2175000D02*
X6425000Y-2215000D01*
X6425000Y-2375000D02*
X6465000Y-2415000D01*
X6465000Y-2375000D02*
X6425000Y-2415000D01*
X6425000Y-2575000D02*
X6465000Y-2615000D01*
X6465000Y-2575000D02*
X6425000Y-2615000D01*
X6425000Y-2775000D02*
X6465000Y-2815000D01*
X6465000Y-2775000D02*
X6425000Y-2815000D01*
X6425000Y-2975000D02*
X6465000Y-3015000D01*
X6465000Y-2975000D02*
X6425000Y-3015000D01*
X6425000Y-3175000D02*
X6465000Y-3215000D01*
X6465000Y-3175000D02*
X6425000Y-3215000D01*
X6425000Y-3375000D02*
X6465000Y-3415000D01*
X6465000Y-3375000D02*
X6425000Y-3415000D01*
X6425000Y-3575000D02*
X6465000Y-3615000D01*
X6465000Y-3575000D02*
X6425000Y-3615000D01*
X6425000Y-3775000D02*
X6465000Y-3815000D01*
X6465000Y-3775000D02*
X6425000Y-3815000D01*
X6425000Y-3975000D02*
X6465000Y-4015000D01*
X6465000Y-3975000D02*
X6425000Y-4015000D01*
X6425000Y-4175000D02*
X6465000Y-4215000D01*
X6465000Y-4175000D02*
X6425000Y-4215000D01*
X6425000Y-4375000D02*
X6465000Y-4415000D01*
X6465000Y-4375000D02*
X6425000Y-4415000D01*
X6425000Y-4575000D02*
X6465000Y-4615000D01*
X6465000Y-4575000D02*
X6425000Y-4615000D01*
X6425000Y-4775000D02*
X6465000Y-4815000D01*
X6465000Y-4775000D02*
X6425000Y-4815000D01*
X6425000Y-4975000D02*
X6465000Y-5015000D01*
X6465000Y-4975000D02*
X6425000Y-5015000D01*
X6425000Y-5175000D02*
X6465000Y-5215000D01*
X6465000Y-5175000D02*
X6425000Y-5215000D01*
X6425000Y-5375000D02*
X6465000Y-5415000D01*
X6465000Y-5375000D02*
X6425000Y-5415000D01*
X6425000Y-5575000D02*
X6465000Y-5615000D01*
X6465000Y-5575000D02*
X6425000Y-5615000D01*
X6425000Y-5775000D02*
X6465000Y-5815000D01*
X6465000Y-5775000D02*
X6425000Y-5815000D01*
X6425000Y-5975000D02*
X6465000Y-6015000D01*
X6465000Y-5975000D02*
X6425000Y-6015000D01*
X6425000Y-6175000D02*
X6465000Y-6215000D01*
X6465000Y-6175000D02*
X6425000Y-6215000D01*
X6425000Y-6375000D02*
X6465000Y-6415000D01*
X6465000Y-6375000D02*
X6425000Y-6415000D01*
X6425000Y-6575000D02*
X6465000Y-6615000D01*
X6465000Y-6575000D02*
X6425000Y-6615000D01*
X6435000Y-6763000D02*
X6475000Y-6803000D01*
X6475000Y-6763000D02*
X6435000Y-6803000D01*
X6435000Y-7017000D02*
X6475000Y-7057000D01*
X6475000Y-7017000D02*
X6435000Y-7057000D01*
X6625000Y-1375000D02*
X6665000Y-1415000D01*
X6665000Y-1375000D02*
X6625000Y-1415000D01*
X6625000Y-1975000D02*
X6665000Y-2015000D01*
X6665000Y-1975000D02*
X6625000Y-2015000D01*
X6625000Y-2375000D02*
X6665000Y-2415000D01*
X6665000Y-2375000D02*
X6625000Y-2415000D01*
X6625000Y-2575000D02*
X6665000Y-2615000D01*
X6665000Y-2575000D02*
X6625000Y-2615000D01*
X6625000Y-2775000D02*
X6665000Y-2815000D01*
X6665000Y-2775000D02*
X6625000Y-2815000D01*
X6625000Y-2975000D02*
X6665000Y-3015000D01*
X6665000Y-2975000D02*
X6625000Y-3015000D01*
X6625000Y-3575000D02*
X6665000Y-3615000D01*
X6665000Y-3575000D02*
X6625000Y-3615000D01*
X6625000Y-3975000D02*
X6665000Y-4015000D01*
X6665000Y-3975000D02*
X6625000Y-4015000D01*
X6625000Y-4175000D02*
X6665000Y-4215000D01*
X6665000Y-4175000D02*
X6625000Y-4215000D01*
X6625000Y-4375000D02*
X6665000Y-4415000D01*
X6665000Y-4375000D02*
X6625000Y-4415000D01*
X6625000Y-4575000D02*
X6665000Y-4615000D01*
X6665000Y-4575000D02*
X6625000Y-4615000D01*
X6625000Y-4775000D02*
X6665000Y-4815000D01*
X6665000Y-4775000D02*
X6625000Y-4815000D01*
X6625000Y-4975000D02*
X6665000Y-5015000D01*
X6665000Y-4975000D02*
X6625000Y-5015000D01*
X6625000Y-5175000D02*
X6665000Y-5215000D01*
X6665000Y-5175000D02*
X6625000Y-5215000D01*
X6625000Y-5375000D02*
X6665000Y-5415000D01*
X6665000Y-5375000D02*
X6625000Y-5415000D01*
X6625000Y-5575000D02*
X6665000Y-5615000D01*
X6665000Y-5575000D02*
X6625000Y-5615000D01*
X6625000Y-5775000D02*
X6665000Y-5815000D01*
X6665000Y-5775000D02*
X6625000Y-5815000D01*
X6625000Y-5975000D02*
X6665000Y-6015000D01*
X6665000Y-5975000D02*
X6625000Y-6015000D01*
X6625000Y-6175000D02*
X6665000Y-6215000D01*
X6665000Y-6175000D02*
X6625000Y-6215000D01*
X6625000Y-6375000D02*
X6665000Y-6415000D01*
X6665000Y-6375000D02*
X6625000Y-6415000D01*
X6625000Y-6575000D02*
X6665000Y-6615000D01*
X6665000Y-6575000D02*
X6625000Y-6615000D01*
X6689000Y-7017000D02*
X6729000Y-7057000D01*
X6729000Y-7017000D02*
X6689000Y-7057000D01*
X6825000Y-1375000D02*
X6865000Y-1415000D01*
X6865000Y-1375000D02*
X6825000Y-1415000D01*
X6825000Y-1975000D02*
X6865000Y-2015000D01*
X6865000Y-1975000D02*
X6825000Y-2015000D01*
X6825000Y-2575000D02*
X6865000Y-2615000D01*
X6865000Y-2575000D02*
X6825000Y-2615000D01*
X6825000Y-2775000D02*
X6865000Y-2815000D01*
X6865000Y-2775000D02*
X6825000Y-2815000D01*
X6825000Y-2975000D02*
X6865000Y-3015000D01*
X6865000Y-2975000D02*
X6825000Y-3015000D01*
X6825000Y-3975000D02*
X6865000Y-4015000D01*
X6865000Y-3975000D02*
X6825000Y-4015000D01*
X6825000Y-4175000D02*
X6865000Y-4215000D01*
X6865000Y-4175000D02*
X6825000Y-4215000D01*
X6825000Y-4375000D02*
X6865000Y-4415000D01*
X6865000Y-4375000D02*
X6825000Y-4415000D01*
X6825000Y-4975000D02*
X6865000Y-5015000D01*
X6865000Y-4975000D02*
X6825000Y-5015000D01*
X6825000Y-5575000D02*
X6865000Y-5615000D01*
X6865000Y-5575000D02*
X6825000Y-5615000D01*
X6825000Y-5775000D02*
X6865000Y-5815000D01*
X6865000Y-5775000D02*
X6825000Y-5815000D01*
X6825000Y-5975000D02*
X6865000Y-6015000D01*
X6865000Y-5975000D02*
X6825000Y-6015000D01*
X6943000Y-7017000D02*
X6983000Y-7057000D01*
X6983000Y-7017000D02*
X6943000Y-7057000D01*
X7025000Y-1375000D02*
X7065000Y-1415000D01*
X7065000Y-1375000D02*
X7025000Y-1415000D01*
X7025000Y-1575000D02*
X7065000Y-1615000D01*
X7065000Y-1575000D02*
X7025000Y-1615000D01*
X7025000Y-1775000D02*
X7065000Y-1815000D01*
X7065000Y-1775000D02*
X7025000Y-1815000D01*
X7025000Y-1975000D02*
X7065000Y-2015000D01*
X7065000Y-1975000D02*
X7025000Y-2015000D01*
X7025000Y-2175000D02*
X7065000Y-2215000D01*
X7065000Y-2175000D02*
X7025000Y-2215000D01*
X7025000Y-2375000D02*
X7065000Y-2415000D01*
X7065000Y-2375000D02*
X7025000Y-2415000D01*
X7025000Y-2575000D02*
X7065000Y-2615000D01*
X7065000Y-2575000D02*
X7025000Y-2615000D01*
X7025000Y-2775000D02*
X7065000Y-2815000D01*
X7065000Y-2775000D02*
X7025000Y-2815000D01*
X7025000Y-2975000D02*
X7065000Y-3015000D01*
X7065000Y-2975000D02*
X7025000Y-3015000D01*
X7025000Y-3175000D02*
X7065000Y-3215000D01*
X7065000Y-3175000D02*
X7025000Y-3215000D01*
X7025000Y-3375000D02*
X7065000Y-3415000D01*
X7065000Y-3375000D02*
X7025000Y-3415000D01*
X7025000Y-3575000D02*
X7065000Y-3615000D01*
X7065000Y-3575000D02*
X7025000Y-3615000D01*
X7025000Y-3775000D02*
X7065000Y-3815000D01*
X7065000Y-3775000D02*
X7025000Y-3815000D01*
X7025000Y-3975000D02*
X7065000Y-4015000D01*
X7065000Y-3975000D02*
X7025000Y-4015000D01*
X7025000Y-4175000D02*
X7065000Y-4215000D01*
X7065000Y-4175000D02*
X7025000Y-4215000D01*
X7025000Y-4375000D02*
X7065000Y-4415000D01*
X7065000Y-4375000D02*
X7025000Y-4415000D01*
X7025000Y-4575000D02*
X7065000Y-4615000D01*
X7065000Y-4575000D02*
X7025000Y-4615000D01*
X7025000Y-4775000D02*
X7065000Y-4815000D01*
X7065000Y-4775000D02*
X7025000Y-4815000D01*
X7025000Y-4975000D02*
X7065000Y-5015000D01*
X7065000Y-4975000D02*
X7025000Y-5015000D01*
X7025000Y-5175000D02*
X7065000Y-5215000D01*
X7065000Y-5175000D02*
X7025000Y-5215000D01*
X7025000Y-5375000D02*
X7065000Y-5415000D01*
X7065000Y-5375000D02*
X7025000Y-5415000D01*
X7025000Y-5575000D02*
X7065000Y-5615000D01*
X7065000Y-5575000D02*
X7025000Y-5615000D01*
X7025000Y-5775000D02*
X7065000Y-5815000D01*
X7065000Y-5775000D02*
X7025000Y-5815000D01*
X7025000Y-5975000D02*
X7065000Y-6015000D01*
X7065000Y-5975000D02*
X7025000Y-6015000D01*
X7025000Y-6175000D02*
X7065000Y-6215000D01*
X7065000Y-6175000D02*
X7025000Y-6215000D01*
X7025000Y-6375000D02*
X7065000Y-6415000D01*
X7065000Y-6375000D02*
X7025000Y-6415000D01*
X7025000Y-6575000D02*
X7065000Y-6615000D01*
X7065000Y-6575000D02*
X7025000Y-6615000D01*
X7197000Y-6763000D02*
X7237000Y-6803000D01*
X7237000Y-6763000D02*
X7197000Y-6803000D01*
X7197000Y-7017000D02*
X7237000Y-7057000D01*
X7237000Y-7017000D02*
X7197000Y-7057000D01*
X7225000Y-1375000D02*
X7265000Y-1415000D01*
X7265000Y-1375000D02*
X7225000Y-1415000D01*
X7225000Y-1575000D02*
X7265000Y-1615000D01*
X7265000Y-1575000D02*
X7225000Y-1615000D01*
X7225000Y-1775000D02*
X7265000Y-1815000D01*
X7265000Y-1775000D02*
X7225000Y-1815000D01*
X7225000Y-1975000D02*
X7265000Y-2015000D01*
X7265000Y-1975000D02*
X7225000Y-2015000D01*
X7225000Y-2175000D02*
X7265000Y-2215000D01*
X7265000Y-2175000D02*
X7225000Y-2215000D01*
X7225000Y-2375000D02*
X7265000Y-2415000D01*
X7265000Y-2375000D02*
X7225000Y-2415000D01*
X7225000Y-2575000D02*
X7265000Y-2615000D01*
X7265000Y-2575000D02*
X7225000Y-2615000D01*
X7225000Y-2775000D02*
X7265000Y-2815000D01*
X7265000Y-2775000D02*
X7225000Y-2815000D01*
X7225000Y-2975000D02*
X7265000Y-3015000D01*
X7265000Y-2975000D02*
X7225000Y-3015000D01*
X7225000Y-3175000D02*
X7265000Y-3215000D01*
X7265000Y-3175000D02*
X7225000Y-3215000D01*
X7225000Y-3375000D02*
X7265000Y-3415000D01*
X7265000Y-3375000D02*
X7225000Y-3415000D01*
X7225000Y-3575000D02*
X7265000Y-3615000D01*
X7265000Y-3575000D02*
X7225000Y-3615000D01*
X7225000Y-3775000D02*
X7265000Y-3815000D01*
X7265000Y-3775000D02*
X7225000Y-3815000D01*
X7225000Y-3975000D02*
X7265000Y-4015000D01*
X7265000Y-3975000D02*
X7225000Y-4015000D01*
X7225000Y-4175000D02*
X7265000Y-4215000D01*
X7265000Y-4175000D02*
X7225000Y-4215000D01*
X7225000Y-4375000D02*
X7265000Y-4415000D01*
X7265000Y-4375000D02*
X7225000Y-4415000D01*
X7225000Y-4575000D02*
X7265000Y-4615000D01*
X7265000Y-4575000D02*
X7225000Y-4615000D01*
X7225000Y-4775000D02*
X7265000Y-4815000D01*
X7265000Y-4775000D02*
X7225000Y-4815000D01*
X7225000Y-4975000D02*
X7265000Y-5015000D01*
X7265000Y-4975000D02*
X7225000Y-5015000D01*
X7225000Y-5175000D02*
X7265000Y-5215000D01*
X7265000Y-5175000D02*
X7225000Y-5215000D01*
X7225000Y-5375000D02*
X7265000Y-5415000D01*
X7265000Y-5375000D02*
X7225000Y-5415000D01*
X7225000Y-5575000D02*
X7265000Y-5615000D01*
X7265000Y-5575000D02*
X7225000Y-5615000D01*
X7225000Y-5775000D02*
X7265000Y-5815000D01*
X7265000Y-5775000D02*
X7225000Y-5815000D01*
X7225000Y-5975000D02*
X7265000Y-6015000D01*
X7265000Y-5975000D02*
X7225000Y-6015000D01*
X7225000Y-6175000D02*
X7265000Y-6215000D01*
X7265000Y-6175000D02*
X7225000Y-6215000D01*
X7225000Y-6375000D02*
X7265000Y-6415000D01*
X7265000Y-6375000D02*
X7225000Y-6415000D01*
X7225000Y-6575000D02*
X7265000Y-6615000D01*
X7265000Y-6575000D02*
X7225000Y-6615000D01*
X7425000Y-1375000D02*
X7465000Y-1415000D01*
X7465000Y-1375000D02*
X7425000Y-1415000D01*
X7425000Y-1575000D02*
X7465000Y-1615000D01*
X7465000Y-1575000D02*
X7425000Y-1615000D01*
X7425000Y-1775000D02*
X7465000Y-1815000D01*
X7465000Y-1775000D02*
X7425000Y-1815000D01*
X7425000Y-1975000D02*
X7465000Y-2015000D01*
X7465000Y-1975000D02*
X7425000Y-2015000D01*
X7425000Y-2175000D02*
X7465000Y-2215000D01*
X7465000Y-2175000D02*
X7425000Y-2215000D01*
X7425000Y-2375000D02*
X7465000Y-2415000D01*
X7465000Y-2375000D02*
X7425000Y-2415000D01*
X7425000Y-2575000D02*
X7465000Y-2615000D01*
X7465000Y-2575000D02*
X7425000Y-2615000D01*
X7425000Y-2775000D02*
X7465000Y-2815000D01*
X7465000Y-2775000D02*
X7425000Y-2815000D01*
X7425000Y-2975000D02*
X7465000Y-3015000D01*
X7465000Y-2975000D02*
X7425000Y-3015000D01*
X7425000Y-3175000D02*
X7465000Y-3215000D01*
X7465000Y-3175000D02*
X7425000Y-3215000D01*
X7425000Y-3375000D02*
X7465000Y-3415000D01*
X7465000Y-3375000D02*
X7425000Y-3415000D01*
X7425000Y-3575000D02*
X7465000Y-3615000D01*
X7465000Y-3575000D02*
X7425000Y-3615000D01*
X7425000Y-3775000D02*
X7465000Y-3815000D01*
X7465000Y-3775000D02*
X7425000Y-3815000D01*
X7425000Y-3975000D02*
X7465000Y-4015000D01*
X7465000Y-3975000D02*
X7425000Y-4015000D01*
X7425000Y-4175000D02*
X7465000Y-4215000D01*
X7465000Y-4175000D02*
X7425000Y-4215000D01*
X7425000Y-4375000D02*
X7465000Y-4415000D01*
X7465000Y-4375000D02*
X7425000Y-4415000D01*
X7425000Y-4575000D02*
X7465000Y-4615000D01*
X7465000Y-4575000D02*
X7425000Y-4615000D01*
X7425000Y-4775000D02*
X7465000Y-4815000D01*
X7465000Y-4775000D02*
X7425000Y-4815000D01*
X7425000Y-4975000D02*
X7465000Y-5015000D01*
X7465000Y-4975000D02*
X7425000Y-5015000D01*
X7425000Y-5175000D02*
X7465000Y-5215000D01*
X7465000Y-5175000D02*
X7425000Y-5215000D01*
X7425000Y-5375000D02*
X7465000Y-5415000D01*
X7465000Y-5375000D02*
X7425000Y-5415000D01*
X7425000Y-5575000D02*
X7465000Y-5615000D01*
X7465000Y-5575000D02*
X7425000Y-5615000D01*
X7425000Y-5775000D02*
X7465000Y-5815000D01*
X7465000Y-5775000D02*
X7425000Y-5815000D01*
X7425000Y-5975000D02*
X7465000Y-6015000D01*
X7465000Y-5975000D02*
X7425000Y-6015000D01*
X7425000Y-6175000D02*
X7465000Y-6215000D01*
X7465000Y-6175000D02*
X7425000Y-6215000D01*
X7425000Y-6375000D02*
X7465000Y-6415000D01*
X7465000Y-6375000D02*
X7425000Y-6415000D01*
X7425000Y-6575000D02*
X7465000Y-6615000D01*
X7465000Y-6575000D02*
X7425000Y-6615000D01*
X7451000Y-6763000D02*
X7491000Y-6803000D01*
X7491000Y-6763000D02*
X7451000Y-6803000D01*
X7451000Y-7017000D02*
X7491000Y-7057000D01*
X7491000Y-7017000D02*
X7451000Y-7057000D01*
X7625000Y-1375000D02*
X7665000Y-1415000D01*
X7665000Y-1375000D02*
X7625000Y-1415000D01*
X7625000Y-1575000D02*
X7665000Y-1615000D01*
X7665000Y-1575000D02*
X7625000Y-1615000D01*
X7625000Y-1775000D02*
X7665000Y-1815000D01*
X7665000Y-1775000D02*
X7625000Y-1815000D01*
X7625000Y-1975000D02*
X7665000Y-2015000D01*
X7665000Y-1975000D02*
X7625000Y-2015000D01*
X7625000Y-2175000D02*
X7665000Y-2215000D01*
X7665000Y-2175000D02*
X7625000Y-2215000D01*
X7625000Y-2375000D02*
X7665000Y-2415000D01*
X7665000Y-2375000D02*
X7625000Y-2415000D01*
X7625000Y-2575000D02*
X7665000Y-2615000D01*
X7665000Y-2575000D02*
X7625000Y-2615000D01*
X7625000Y-2775000D02*
X7665000Y-2815000D01*
X7665000Y-2775000D02*
X7625000Y-2815000D01*
X7625000Y-2975000D02*
X7665000Y-3015000D01*
X7665000Y-2975000D02*
X7625000Y-3015000D01*
X7625000Y-3175000D02*
X7665000Y-3215000D01*
X7665000Y-3175000D02*
X7625000Y-3215000D01*
X7625000Y-3375000D02*
X7665000Y-3415000D01*
X7665000Y-3375000D02*
X7625000Y-3415000D01*
X7625000Y-3575000D02*
X7665000Y-3615000D01*
X7665000Y-3575000D02*
X7625000Y-3615000D01*
X7625000Y-3775000D02*
X7665000Y-3815000D01*
X7665000Y-3775000D02*
X7625000Y-3815000D01*
X7625000Y-3975000D02*
X7665000Y-4015000D01*
X7665000Y-3975000D02*
X7625000Y-4015000D01*
X7625000Y-4175000D02*
X7665000Y-4215000D01*
X7665000Y-4175000D02*
X7625000Y-4215000D01*
X7625000Y-4375000D02*
X7665000Y-4415000D01*
X7665000Y-4375000D02*
X7625000Y-4415000D01*
X7625000Y-4575000D02*
X7665000Y-4615000D01*
X7665000Y-4575000D02*
X7625000Y-4615000D01*
X7625000Y-4775000D02*
X7665000Y-4815000D01*
X7665000Y-4775000D02*
X7625000Y-4815000D01*
X7625000Y-4975000D02*
X7665000Y-5015000D01*
X7665000Y-4975000D02*
X7625000Y-5015000D01*
X7625000Y-5175000D02*
X7665000Y-5215000D01*
X7665000Y-5175000D02*
X7625000Y-5215000D01*
X7625000Y-5375000D02*
X7665000Y-5415000D01*
X7665000Y-5375000D02*
X7625000Y-5415000D01*
X7625000Y-5575000D02*
X7665000Y-5615000D01*
X7665000Y-5575000D02*
X7625000Y-5615000D01*
X7625000Y-5775000D02*
X7665000Y-5815000D01*
X7665000Y-5775000D02*
X7625000Y-5815000D01*
X7625000Y-5975000D02*
X7665000Y-6015000D01*
X7665000Y-5975000D02*
X7625000Y-6015000D01*
X7625000Y-6175000D02*
X7665000Y-6215000D01*
X7665000Y-6175000D02*
X7625000Y-6215000D01*
X7625000Y-6375000D02*
X7665000Y-6415000D01*
X7665000Y-6375000D02*
X7625000Y-6415000D01*
X7625000Y-6575000D02*
X7665000Y-6615000D01*
X7665000Y-6575000D02*
X7625000Y-6615000D01*
X7705000Y-6763000D02*
X7745000Y-6803000D01*
X7745000Y-6763000D02*
X7705000Y-6803000D01*
X7705000Y-7017000D02*
X7745000Y-7057000D01*
X7745000Y-7017000D02*
X7705000Y-7057000D01*
X7825000Y-1375000D02*
X7865000Y-1415000D01*
X7865000Y-1375000D02*
X7825000Y-1415000D01*
X7825000Y-2575000D02*
X7865000Y-2615000D01*
X7865000Y-2575000D02*
X7825000Y-2615000D01*
X7825000Y-2775000D02*
X7865000Y-2815000D01*
X7865000Y-2775000D02*
X7825000Y-2815000D01*
X7825000Y-2975000D02*
X7865000Y-3015000D01*
X7865000Y-2975000D02*
X7825000Y-3015000D01*
X7825000Y-3175000D02*
X7865000Y-3215000D01*
X7865000Y-3175000D02*
X7825000Y-3215000D01*
X7825000Y-3375000D02*
X7865000Y-3415000D01*
X7865000Y-3375000D02*
X7825000Y-3415000D01*
X7825000Y-4575000D02*
X7865000Y-4615000D01*
X7865000Y-4575000D02*
X7825000Y-4615000D01*
X7825000Y-4775000D02*
X7865000Y-4815000D01*
X7865000Y-4775000D02*
X7825000Y-4815000D01*
X7825000Y-4975000D02*
X7865000Y-5015000D01*
X7865000Y-4975000D02*
X7825000Y-5015000D01*
X7825000Y-5175000D02*
X7865000Y-5215000D01*
X7865000Y-5175000D02*
X7825000Y-5215000D01*
X7825000Y-5375000D02*
X7865000Y-5415000D01*
X7865000Y-5375000D02*
X7825000Y-5415000D01*
X7825000Y-6575000D02*
X7865000Y-6615000D01*
X7865000Y-6575000D02*
X7825000Y-6615000D01*
X7959000Y-6763000D02*
X7999000Y-6803000D01*
X7999000Y-6763000D02*
X7959000Y-6803000D01*
X7959000Y-7017000D02*
X7999000Y-7057000D01*
X7999000Y-7017000D02*
X7959000Y-7057000D01*
X8025000Y-1375000D02*
X8065000Y-1415000D01*
X8065000Y-1375000D02*
X8025000Y-1415000D01*
X8025000Y-2775000D02*
X8065000Y-2815000D01*
X8065000Y-2775000D02*
X8025000Y-2815000D01*
X8025000Y-2975000D02*
X8065000Y-3015000D01*
X8065000Y-2975000D02*
X8025000Y-3015000D01*
X8025000Y-3175000D02*
X8065000Y-3215000D01*
X8065000Y-3175000D02*
X8025000Y-3215000D01*
X8025000Y-3355000D02*
X8065000Y-3395000D01*
X8065000Y-3355000D02*
X8025000Y-3395000D01*
X8025000Y-4775000D02*
X8065000Y-4815000D01*
X8065000Y-4775000D02*
X8025000Y-4815000D01*
X8025000Y-4975000D02*
X8065000Y-5015000D01*
X8065000Y-4975000D02*
X8025000Y-5015000D01*
X8025000Y-5175000D02*
X8065000Y-5215000D01*
X8065000Y-5175000D02*
X8025000Y-5215000D01*
X8025000Y-5355000D02*
X8065000Y-5395000D01*
X8065000Y-5355000D02*
X8025000Y-5395000D01*
X8213000Y-6763000D02*
X8253000Y-6803000D01*
X8253000Y-6763000D02*
X8213000Y-6803000D01*
X8213000Y-7017000D02*
X8253000Y-7057000D01*
X8253000Y-7017000D02*
X8213000Y-7057000D01*
X8225000Y-2775000D02*
X8265000Y-2815000D01*
X8265000Y-2775000D02*
X8225000Y-2815000D01*
X8225000Y-2975000D02*
X8265000Y-3015000D01*
X8265000Y-2975000D02*
X8225000Y-3015000D01*
X8225000Y-3175000D02*
X8265000Y-3215000D01*
X8265000Y-3175000D02*
X8225000Y-3215000D01*
X8225000Y-4775000D02*
X8265000Y-4815000D01*
X8265000Y-4775000D02*
X8225000Y-4815000D01*
X8225000Y-4975000D02*
X8265000Y-5015000D01*
X8265000Y-4975000D02*
X8225000Y-5015000D01*
X8225000Y-5175000D02*
X8265000Y-5215000D01*
X8265000Y-5175000D02*
X8225000Y-5215000D01*
X8425000Y-2775000D02*
X8465000Y-2815000D01*
X8465000Y-2775000D02*
X8425000Y-2815000D01*
X8425000Y-2975000D02*
X8465000Y-3015000D01*
X8465000Y-2975000D02*
X8425000Y-3015000D01*
X8425000Y-3175000D02*
X8465000Y-3215000D01*
X8465000Y-3175000D02*
X8425000Y-3215000D01*
X8425000Y-4775000D02*
X8465000Y-4815000D01*
X8465000Y-4775000D02*
X8425000Y-4815000D01*
X8425000Y-4975000D02*
X8465000Y-5015000D01*
X8465000Y-4975000D02*
X8425000Y-5015000D01*
X8425000Y-5175000D02*
X8465000Y-5215000D01*
X8465000Y-5175000D02*
X8425000Y-5215000D01*
X8467000Y-6763000D02*
X8507000Y-6803000D01*
X8507000Y-6763000D02*
X8467000Y-6803000D01*
X8467000Y-7017000D02*
X8507000Y-7057000D01*
X8507000Y-7017000D02*
X8467000Y-7057000D01*
X8625000Y-1355000D02*
X8665000Y-1395000D01*
X8665000Y-1355000D02*
X8625000Y-1395000D01*
X8625000Y-2775000D02*
X8665000Y-2815000D01*
X8665000Y-2775000D02*
X8625000Y-2815000D01*
X8625000Y-2975000D02*
X8665000Y-3015000D01*
X8665000Y-2975000D02*
X8625000Y-3015000D01*
X8625000Y-3175000D02*
X8665000Y-3215000D01*
X8665000Y-3175000D02*
X8625000Y-3215000D01*
X8625000Y-3355000D02*
X8665000Y-3395000D01*
X8665000Y-3355000D02*
X8625000Y-3395000D01*
X8625000Y-4775000D02*
X8665000Y-4815000D01*
X8665000Y-4775000D02*
X8625000Y-4815000D01*
X8625000Y-4975000D02*
X8665000Y-5015000D01*
X8665000Y-4975000D02*
X8625000Y-5015000D01*
X8625000Y-5175000D02*
X8665000Y-5215000D01*
X8665000Y-5175000D02*
X8625000Y-5215000D01*
X8625000Y-5355000D02*
X8665000Y-5395000D01*
X8665000Y-5355000D02*
X8625000Y-5395000D01*
X8721000Y-6763000D02*
X8761000Y-6803000D01*
X8761000Y-6763000D02*
X8721000Y-6803000D01*
X8721000Y-7017000D02*
X8761000Y-7057000D01*
X8761000Y-7017000D02*
X8721000Y-7057000D01*
X8825000Y-1375000D02*
X8865000Y-1415000D01*
X8865000Y-1375000D02*
X8825000Y-1415000D01*
X8825000Y-2575000D02*
X8865000Y-2615000D01*
X8865000Y-2575000D02*
X8825000Y-2615000D01*
X8825000Y-2775000D02*
X8865000Y-2815000D01*
X8865000Y-2775000D02*
X8825000Y-2815000D01*
X8825000Y-2975000D02*
X8865000Y-3015000D01*
X8865000Y-2975000D02*
X8825000Y-3015000D01*
X8825000Y-3175000D02*
X8865000Y-3215000D01*
X8865000Y-3175000D02*
X8825000Y-3215000D01*
X8825000Y-3375000D02*
X8865000Y-3415000D01*
X8865000Y-3375000D02*
X8825000Y-3415000D01*
X8825000Y-4575000D02*
X8865000Y-4615000D01*
X8865000Y-4575000D02*
X8825000Y-4615000D01*
X8825000Y-4775000D02*
X8865000Y-4815000D01*
X8865000Y-4775000D02*
X8825000Y-4815000D01*
X8825000Y-4975000D02*
X8865000Y-5015000D01*
X8865000Y-4975000D02*
X8825000Y-5015000D01*
X8825000Y-5175000D02*
X8865000Y-5215000D01*
X8865000Y-5175000D02*
X8825000Y-5215000D01*
X8825000Y-5375000D02*
X8865000Y-5415000D01*
X8865000Y-5375000D02*
X8825000Y-5415000D01*
X8825000Y-6575000D02*
X8865000Y-6615000D01*
X8865000Y-6575000D02*
X8825000Y-6615000D01*
X9025000Y-1355000D02*
X9065000Y-1395000D01*
X9065000Y-1355000D02*
X9025000Y-1395000D01*
X9025000Y-1555000D02*
X9065000Y-1595000D01*
X9065000Y-1555000D02*
X9025000Y-1595000D01*
X9025000Y-1755000D02*
X9065000Y-1795000D01*
X9065000Y-1755000D02*
X9025000Y-1795000D01*
X9025000Y-1955000D02*
X9065000Y-1995000D01*
X9065000Y-1955000D02*
X9025000Y-1995000D01*
X9025000Y-2155000D02*
X9065000Y-2195000D01*
X9065000Y-2155000D02*
X9025000Y-2195000D01*
X9025000Y-2355000D02*
X9065000Y-2395000D01*
X9065000Y-2355000D02*
X9025000Y-2395000D01*
X9025000Y-2555000D02*
X9065000Y-2595000D01*
X9065000Y-2555000D02*
X9025000Y-2595000D01*
X9025000Y-2755000D02*
X9065000Y-2795000D01*
X9065000Y-2755000D02*
X9025000Y-2795000D01*
X9025000Y-2955000D02*
X9065000Y-2995000D01*
X9065000Y-2955000D02*
X9025000Y-2995000D01*
X9025000Y-3155000D02*
X9065000Y-3195000D01*
X9065000Y-3155000D02*
X9025000Y-3195000D01*
X9025000Y-3355000D02*
X9065000Y-3395000D01*
X9065000Y-3355000D02*
X9025000Y-3395000D01*
X9025000Y-3555000D02*
X9065000Y-3595000D01*
X9065000Y-3555000D02*
X9025000Y-3595000D01*
X9025000Y-3755000D02*
X9065000Y-3795000D01*
X9065000Y-3755000D02*
X9025000Y-3795000D01*
X9025000Y-3955000D02*
X9065000Y-3995000D01*
X9065000Y-3955000D02*
X9025000Y-3995000D01*
X9025000Y-4155000D02*
X9065000Y-4195000D01*
X9065000Y-4155000D02*
X9025000Y-4195000D01*
X9025000Y-4355000D02*
X9065000Y-4395000D01*
X9065000Y-4355000D02*
X9025000Y-4395000D01*
X9025000Y-4555000D02*
X9065000Y-4595000D01*
X9065000Y-4555000D02*
X9025000Y-4595000D01*
X9025000Y-4755000D02*
X9065000Y-4795000D01*
X9065000Y-4755000D02*
X9025000Y-4795000D01*
X9025000Y-4955000D02*
X9065000Y-4995000D01*
X9065000Y-4955000D02*
X9025000Y-4995000D01*
X9025000Y-5155000D02*
X9065000Y-5195000D01*
X9065000Y-5155000D02*
X9025000Y-5195000D01*
X9025000Y-5355000D02*
X9065000Y-5395000D01*
X9065000Y-5355000D02*
X9025000Y-5395000D01*
X9025000Y-5555000D02*
X9065000Y-5595000D01*
X9065000Y-5555000D02*
X9025000Y-5595000D01*
X9025000Y-5755000D02*
X9065000Y-5795000D01*
X9065000Y-5755000D02*
X9025000Y-5795000D01*
X9025000Y-5955000D02*
X9065000Y-5995000D01*
X9065000Y-5955000D02*
X9025000Y-5995000D01*
X9025000Y-6155000D02*
X9065000Y-6195000D01*
X9065000Y-6155000D02*
X9025000Y-6195000D01*
X9025000Y-6355000D02*
X9065000Y-6395000D01*
X9065000Y-6355000D02*
X9025000Y-6395000D01*
X9025000Y-6555000D02*
X9065000Y-6595000D01*
X9065000Y-6555000D02*
X9025000Y-6595000D01*
X4141000Y-7155000D02*
G75*
G02*
X4041000Y-7155000I-50000J0D01*
G01*
X4041000Y-7155000D02*
G75*
G02*
X4141000Y-7155000I50000J0D01*
G01*
X4395000Y-7155000D02*
G75*
G02*
X4295000Y-7155000I-50000J0D01*
G01*
X4295000Y-7155000D02*
G75*
G02*
X4395000Y-7155000I50000J0D01*
G01*
X4649000Y-7155000D02*
G75*
G02*
X4549000Y-7155000I-50000J0D01*
G01*
X4549000Y-7155000D02*
G75*
G02*
X4649000Y-7155000I50000J0D01*
G01*
D12*
X6800000Y-1657604D02*
X6800000Y-1777604D01*
X6740000Y-1717604D02*
X6860000Y-1717604D01*
X6800000Y-2157604D02*
X6800000Y-2277604D01*
X6740000Y-2217604D02*
X6860000Y-2217604D01*
X6816667Y-3157604D02*
X6816667Y-3277604D01*
X6756667Y-3217604D02*
X6876667Y-3217604D01*
X6816667Y-3657604D02*
X6816667Y-3777604D01*
X6756667Y-3717604D02*
X6876667Y-3717604D01*
X6833333Y-6157604D02*
X6833333Y-6277604D01*
X6773333Y-6217604D02*
X6893333Y-6217604D01*
X6833333Y-6657604D02*
X6833333Y-6777604D01*
X6773333Y-6717604D02*
X6893333Y-6717604D01*
X6850000Y-4657604D02*
X6850000Y-4777604D01*
X6790000Y-4717604D02*
X6910000Y-4717604D01*
X6850000Y-5157604D02*
X6850000Y-5277604D01*
X6790000Y-5217604D02*
X6910000Y-5217604D01*
D13*
X3792134Y-2262134D02*
X3792134Y-1837866D01*
X3367866Y-1837866D01*
X3367866Y-2262134D01*
X3792134Y-2262134D01*
X3792134Y-4222134D02*
X3792134Y-3797866D01*
X3367866Y-3797866D01*
X3367866Y-4222134D01*
X3792134Y-4222134D01*
X3792134Y-6172134D02*
X3792134Y-5747866D01*
X3367866Y-5747866D01*
X3367866Y-6172134D01*
X3792134Y-6172134D01*
X8562134Y-2222134D02*
X8562134Y-1797866D01*
X8137866Y-1797866D01*
X8137866Y-2222134D01*
X8562134Y-2222134D01*
X8562134Y-4217134D02*
X8562134Y-3792866D01*
X8137866Y-3792866D01*
X8137866Y-4217134D01*
X8562134Y-4217134D01*
X8562134Y-6212134D02*
X8562134Y-5787866D01*
X8137866Y-5787866D01*
X8137866Y-6212134D01*
X8562134Y-6212134D01*
D11*
X2905777Y-7666484D02*
X2905777Y-7466484D01*
X2905777Y-7466484D02*
X2953396Y-7466484D01*
X2953396Y-7466484D02*
X2981967Y-7476008D01*
X2981967Y-7476008D02*
X3001015Y-7495055D01*
X3001015Y-7495055D02*
X3010539Y-7514103D01*
X3010539Y-7514103D02*
X3020062Y-7552198D01*
X3020062Y-7552198D02*
X3020062Y-7580769D01*
X3020062Y-7580769D02*
X3010539Y-7618865D01*
X3010539Y-7618865D02*
X3001015Y-7637912D01*
X3001015Y-7637912D02*
X2981967Y-7656960D01*
X2981967Y-7656960D02*
X2953396Y-7666484D01*
X2953396Y-7666484D02*
X2905777Y-7666484D01*
X3105777Y-7666484D02*
X3105777Y-7533150D01*
X3105777Y-7571246D02*
X3115301Y-7552198D01*
X3115301Y-7552198D02*
X3124824Y-7542674D01*
X3124824Y-7542674D02*
X3143872Y-7533150D01*
X3143872Y-7533150D02*
X3162920Y-7533150D01*
X3229586Y-7666484D02*
X3229586Y-7533150D01*
X3229586Y-7466484D02*
X3220062Y-7476008D01*
X3220062Y-7476008D02*
X3229586Y-7485531D01*
X3229586Y-7485531D02*
X3239110Y-7476008D01*
X3239110Y-7476008D02*
X3229586Y-7466484D01*
X3229586Y-7466484D02*
X3229586Y-7485531D01*
X3353396Y-7666484D02*
X3334348Y-7656960D01*
X3334348Y-7656960D02*
X3324824Y-7637912D01*
X3324824Y-7637912D02*
X3324824Y-7466484D01*
X3458158Y-7666484D02*
X3439110Y-7656960D01*
X3439110Y-7656960D02*
X3429586Y-7637912D01*
X3429586Y-7637912D02*
X3429586Y-7466484D01*
X3686729Y-7666484D02*
X3686729Y-7466484D01*
X3686729Y-7466484D02*
X3753396Y-7609341D01*
X3753396Y-7609341D02*
X3820062Y-7466484D01*
X3820062Y-7466484D02*
X3820062Y-7666484D01*
X4001015Y-7666484D02*
X4001015Y-7561722D01*
X4001015Y-7561722D02*
X3991491Y-7542674D01*
X3991491Y-7542674D02*
X3972443Y-7533150D01*
X3972443Y-7533150D02*
X3934348Y-7533150D01*
X3934348Y-7533150D02*
X3915301Y-7542674D01*
X4001015Y-7656960D02*
X3981967Y-7666484D01*
X3981967Y-7666484D02*
X3934348Y-7666484D01*
X3934348Y-7666484D02*
X3915301Y-7656960D01*
X3915301Y-7656960D02*
X3905777Y-7637912D01*
X3905777Y-7637912D02*
X3905777Y-7618865D01*
X3905777Y-7618865D02*
X3915301Y-7599817D01*
X3915301Y-7599817D02*
X3934348Y-7590293D01*
X3934348Y-7590293D02*
X3981967Y-7590293D01*
X3981967Y-7590293D02*
X4001015Y-7580769D01*
X4096253Y-7533150D02*
X4096253Y-7733150D01*
X4096253Y-7542674D02*
X4115301Y-7533150D01*
X4115301Y-7533150D02*
X4153396Y-7533150D01*
X4153396Y-7533150D02*
X4172443Y-7542674D01*
X4172443Y-7542674D02*
X4181967Y-7552198D01*
X4181967Y-7552198D02*
X4191491Y-7571246D01*
X4191491Y-7571246D02*
X4191491Y-7628388D01*
X4191491Y-7628388D02*
X4181967Y-7647436D01*
X4181967Y-7647436D02*
X4172443Y-7656960D01*
X4172443Y-7656960D02*
X4153396Y-7666484D01*
X4153396Y-7666484D02*
X4115301Y-7666484D01*
X4115301Y-7666484D02*
X4096253Y-7656960D01*
X4277205Y-7647436D02*
X4286729Y-7656960D01*
X4286729Y-7656960D02*
X4277205Y-7666484D01*
X4277205Y-7666484D02*
X4267682Y-7656960D01*
X4267682Y-7656960D02*
X4277205Y-7647436D01*
X4277205Y-7647436D02*
X4277205Y-7666484D01*
X4277205Y-7542674D02*
X4286729Y-7552198D01*
X4286729Y-7552198D02*
X4277205Y-7561722D01*
X4277205Y-7561722D02*
X4267682Y-7552198D01*
X4267682Y-7552198D02*
X4277205Y-7542674D01*
X4277205Y-7542674D02*
X4277205Y-7561722D01*
D10*
X2605000Y-7975000D02*
X2645000Y-8015000D01*
X2645000Y-7975000D02*
X2605000Y-8015000D01*
D11*
X2943872Y-7886484D02*
X2962920Y-7886484D01*
X2962920Y-7886484D02*
X2981967Y-7896008D01*
X2981967Y-7896008D02*
X2991491Y-7905531D01*
X2991491Y-7905531D02*
X3001015Y-7924579D01*
X3001015Y-7924579D02*
X3010539Y-7962674D01*
X3010539Y-7962674D02*
X3010539Y-8010293D01*
X3010539Y-8010293D02*
X3001015Y-8048388D01*
X3001015Y-8048388D02*
X2991491Y-8067436D01*
X2991491Y-8067436D02*
X2981967Y-8076960D01*
X2981967Y-8076960D02*
X2962920Y-8086484D01*
X2962920Y-8086484D02*
X2943872Y-8086484D01*
X2943872Y-8086484D02*
X2924824Y-8076960D01*
X2924824Y-8076960D02*
X2915301Y-8067436D01*
X2915301Y-8067436D02*
X2905777Y-8048388D01*
X2905777Y-8048388D02*
X2896253Y-8010293D01*
X2896253Y-8010293D02*
X2896253Y-7962674D01*
X2896253Y-7962674D02*
X2905777Y-7924579D01*
X2905777Y-7924579D02*
X2915301Y-7905531D01*
X2915301Y-7905531D02*
X2924824Y-7896008D01*
X2924824Y-7896008D02*
X2943872Y-7886484D01*
X3096253Y-8067436D02*
X3105777Y-8076960D01*
X3105777Y-8076960D02*
X3096253Y-8086484D01*
X3096253Y-8086484D02*
X3086729Y-8076960D01*
X3086729Y-8076960D02*
X3096253Y-8067436D01*
X3096253Y-8067436D02*
X3096253Y-8086484D01*
X3277205Y-7953150D02*
X3277205Y-8086484D01*
X3229586Y-7876960D02*
X3181967Y-8019817D01*
X3181967Y-8019817D02*
X3305777Y-8019817D01*
X3420062Y-7886484D02*
X3439110Y-7886484D01*
X3439110Y-7886484D02*
X3458158Y-7896008D01*
X3458158Y-7896008D02*
X3467682Y-7905531D01*
X3467682Y-7905531D02*
X3477205Y-7924579D01*
X3477205Y-7924579D02*
X3486729Y-7962674D01*
X3486729Y-7962674D02*
X3486729Y-8010293D01*
X3486729Y-8010293D02*
X3477205Y-8048388D01*
X3477205Y-8048388D02*
X3467682Y-8067436D01*
X3467682Y-8067436D02*
X3458158Y-8076960D01*
X3458158Y-8076960D02*
X3439110Y-8086484D01*
X3439110Y-8086484D02*
X3420062Y-8086484D01*
X3420062Y-8086484D02*
X3401015Y-8076960D01*
X3401015Y-8076960D02*
X3391491Y-8067436D01*
X3391491Y-8067436D02*
X3381967Y-8048388D01*
X3381967Y-8048388D02*
X3372443Y-8010293D01*
X3372443Y-8010293D02*
X3372443Y-7962674D01*
X3372443Y-7962674D02*
X3381967Y-7924579D01*
X3381967Y-7924579D02*
X3391491Y-7905531D01*
X3391491Y-7905531D02*
X3401015Y-7896008D01*
X3401015Y-7896008D02*
X3420062Y-7886484D01*
X3610539Y-7886484D02*
X3629586Y-7886484D01*
X3629586Y-7886484D02*
X3648634Y-7896008D01*
X3648634Y-7896008D02*
X3658158Y-7905531D01*
X3658158Y-7905531D02*
X3667682Y-7924579D01*
X3667682Y-7924579D02*
X3677205Y-7962674D01*
X3677205Y-7962674D02*
X3677205Y-8010293D01*
X3677205Y-8010293D02*
X3667682Y-8048388D01*
X3667682Y-8048388D02*
X3658158Y-8067436D01*
X3658158Y-8067436D02*
X3648634Y-8076960D01*
X3648634Y-8076960D02*
X3629586Y-8086484D01*
X3629586Y-8086484D02*
X3610539Y-8086484D01*
X3610539Y-8086484D02*
X3591491Y-8076960D01*
X3591491Y-8076960D02*
X3581967Y-8067436D01*
X3581967Y-8067436D02*
X3572443Y-8048388D01*
X3572443Y-8048388D02*
X3562920Y-8010293D01*
X3562920Y-8010293D02*
X3562920Y-7962674D01*
X3562920Y-7962674D02*
X3572443Y-7924579D01*
X3572443Y-7924579D02*
X3581967Y-7905531D01*
X3581967Y-7905531D02*
X3591491Y-7896008D01*
X3591491Y-7896008D02*
X3610539Y-7886484D01*
X3762920Y-8086484D02*
X3762920Y-7953150D01*
X3762920Y-7972198D02*
X3772443Y-7962674D01*
X3772443Y-7962674D02*
X3791491Y-7953150D01*
X3791491Y-7953150D02*
X3820063Y-7953150D01*
X3820063Y-7953150D02*
X3839110Y-7962674D01*
X3839110Y-7962674D02*
X3848634Y-7981722D01*
X3848634Y-7981722D02*
X3848634Y-8086484D01*
X3848634Y-7981722D02*
X3858158Y-7962674D01*
X3858158Y-7962674D02*
X3877205Y-7953150D01*
X3877205Y-7953150D02*
X3905777Y-7953150D01*
X3905777Y-7953150D02*
X3924824Y-7962674D01*
X3924824Y-7962674D02*
X3934348Y-7981722D01*
X3934348Y-7981722D02*
X3934348Y-8086484D01*
X4029586Y-8086484D02*
X4029586Y-7953150D01*
X4029586Y-7972198D02*
X4039110Y-7962674D01*
X4039110Y-7962674D02*
X4058158Y-7953150D01*
X4058158Y-7953150D02*
X4086729Y-7953150D01*
X4086729Y-7953150D02*
X4105777Y-7962674D01*
X4105777Y-7962674D02*
X4115301Y-7981722D01*
X4115301Y-7981722D02*
X4115301Y-8086484D01*
X4115301Y-7981722D02*
X4124824Y-7962674D01*
X4124824Y-7962674D02*
X4143872Y-7953150D01*
X4143872Y-7953150D02*
X4172443Y-7953150D01*
X4172443Y-7953150D02*
X4191491Y-7962674D01*
X4191491Y-7962674D02*
X4201015Y-7981722D01*
X4201015Y-7981722D02*
X4201015Y-8086484D01*
X4591491Y-7876960D02*
X4420063Y-8134103D01*
X4848634Y-7886484D02*
X4867682Y-7886484D01*
X4867682Y-7886484D02*
X4886729Y-7896008D01*
X4886729Y-7896008D02*
X4896253Y-7905531D01*
X4896253Y-7905531D02*
X4905777Y-7924579D01*
X4905777Y-7924579D02*
X4915301Y-7962674D01*
X4915301Y-7962674D02*
X4915301Y-8010293D01*
X4915301Y-8010293D02*
X4905777Y-8048388D01*
X4905777Y-8048388D02*
X4896253Y-8067436D01*
X4896253Y-8067436D02*
X4886729Y-8076960D01*
X4886729Y-8076960D02*
X4867682Y-8086484D01*
X4867682Y-8086484D02*
X4848634Y-8086484D01*
X4848634Y-8086484D02*
X4829587Y-8076960D01*
X4829587Y-8076960D02*
X4820063Y-8067436D01*
X4820063Y-8067436D02*
X4810539Y-8048388D01*
X4810539Y-8048388D02*
X4801015Y-8010293D01*
X4801015Y-8010293D02*
X4801015Y-7962674D01*
X4801015Y-7962674D02*
X4810539Y-7924579D01*
X4810539Y-7924579D02*
X4820063Y-7905531D01*
X4820063Y-7905531D02*
X4829587Y-7896008D01*
X4829587Y-7896008D02*
X4848634Y-7886484D01*
X5001015Y-8067436D02*
X5010539Y-8076960D01*
X5010539Y-8076960D02*
X5001015Y-8086484D01*
X5001015Y-8086484D02*
X4991491Y-8076960D01*
X4991491Y-8076960D02*
X5001015Y-8067436D01*
X5001015Y-8067436D02*
X5001015Y-8086484D01*
X5134348Y-7886484D02*
X5153396Y-7886484D01*
X5153396Y-7886484D02*
X5172444Y-7896008D01*
X5172444Y-7896008D02*
X5181968Y-7905531D01*
X5181968Y-7905531D02*
X5191491Y-7924579D01*
X5191491Y-7924579D02*
X5201015Y-7962674D01*
X5201015Y-7962674D02*
X5201015Y-8010293D01*
X5201015Y-8010293D02*
X5191491Y-8048388D01*
X5191491Y-8048388D02*
X5181968Y-8067436D01*
X5181968Y-8067436D02*
X5172444Y-8076960D01*
X5172444Y-8076960D02*
X5153396Y-8086484D01*
X5153396Y-8086484D02*
X5134348Y-8086484D01*
X5134348Y-8086484D02*
X5115301Y-8076960D01*
X5115301Y-8076960D02*
X5105777Y-8067436D01*
X5105777Y-8067436D02*
X5096253Y-8048388D01*
X5096253Y-8048388D02*
X5086729Y-8010293D01*
X5086729Y-8010293D02*
X5086729Y-7962674D01*
X5086729Y-7962674D02*
X5096253Y-7924579D01*
X5096253Y-7924579D02*
X5105777Y-7905531D01*
X5105777Y-7905531D02*
X5115301Y-7896008D01*
X5115301Y-7896008D02*
X5134348Y-7886484D01*
X5391491Y-8086484D02*
X5277206Y-8086484D01*
X5334348Y-8086484D02*
X5334348Y-7886484D01*
X5334348Y-7886484D02*
X5315301Y-7915055D01*
X5315301Y-7915055D02*
X5296253Y-7934103D01*
X5296253Y-7934103D02*
X5277206Y-7943627D01*
X5572444Y-7886484D02*
X5477206Y-7886484D01*
X5477206Y-7886484D02*
X5467682Y-7981722D01*
X5467682Y-7981722D02*
X5477206Y-7972198D01*
X5477206Y-7972198D02*
X5496253Y-7962674D01*
X5496253Y-7962674D02*
X5543872Y-7962674D01*
X5543872Y-7962674D02*
X5562920Y-7972198D01*
X5562920Y-7972198D02*
X5572444Y-7981722D01*
X5572444Y-7981722D02*
X5581968Y-8000769D01*
X5581968Y-8000769D02*
X5581968Y-8048388D01*
X5581968Y-8048388D02*
X5572444Y-8067436D01*
X5572444Y-8067436D02*
X5562920Y-8076960D01*
X5562920Y-8076960D02*
X5543872Y-8086484D01*
X5543872Y-8086484D02*
X5496253Y-8086484D01*
X5496253Y-8086484D02*
X5477206Y-8076960D01*
X5477206Y-8076960D02*
X5467682Y-8067436D01*
X5648634Y-7886484D02*
X5781967Y-7886484D01*
X5781967Y-7886484D02*
X5696253Y-8086484D01*
X5848634Y-7886484D02*
X5848634Y-7924579D01*
X5924825Y-7886484D02*
X5924825Y-7924579D01*
X6220063Y-8162674D02*
X6210539Y-8153150D01*
X6210539Y-8153150D02*
X6191491Y-8124579D01*
X6191491Y-8124579D02*
X6181968Y-8105531D01*
X6181968Y-8105531D02*
X6172444Y-8076960D01*
X6172444Y-8076960D02*
X6162920Y-8029341D01*
X6162920Y-8029341D02*
X6162920Y-7991246D01*
X6162920Y-7991246D02*
X6172444Y-7943627D01*
X6172444Y-7943627D02*
X6181968Y-7915055D01*
X6181968Y-7915055D02*
X6191491Y-7896008D01*
X6191491Y-7896008D02*
X6210539Y-7867436D01*
X6210539Y-7867436D02*
X6220063Y-7857912D01*
X6391491Y-7886484D02*
X6296253Y-7886484D01*
X6296253Y-7886484D02*
X6286729Y-7981722D01*
X6286729Y-7981722D02*
X6296253Y-7972198D01*
X6296253Y-7972198D02*
X6315301Y-7962674D01*
X6315301Y-7962674D02*
X6362920Y-7962674D01*
X6362920Y-7962674D02*
X6381968Y-7972198D01*
X6381968Y-7972198D02*
X6391491Y-7981722D01*
X6391491Y-7981722D02*
X6401015Y-8000769D01*
X6401015Y-8000769D02*
X6401015Y-8048388D01*
X6401015Y-8048388D02*
X6391491Y-8067436D01*
X6391491Y-8067436D02*
X6381968Y-8076960D01*
X6381968Y-8076960D02*
X6362920Y-8086484D01*
X6362920Y-8086484D02*
X6315301Y-8086484D01*
X6315301Y-8086484D02*
X6296253Y-8076960D01*
X6296253Y-8076960D02*
X6286729Y-8067436D01*
X6467682Y-7886484D02*
X6601015Y-7886484D01*
X6601015Y-7886484D02*
X6515301Y-8086484D01*
X6658158Y-7886484D02*
X6791491Y-7886484D01*
X6791491Y-7886484D02*
X6705777Y-8086484D01*
X7020063Y-8086484D02*
X7020063Y-7886484D01*
X7105777Y-8086484D02*
X7105777Y-7981722D01*
X7105777Y-7981722D02*
X7096253Y-7962674D01*
X7096253Y-7962674D02*
X7077206Y-7953150D01*
X7077206Y-7953150D02*
X7048634Y-7953150D01*
X7048634Y-7953150D02*
X7029587Y-7962674D01*
X7029587Y-7962674D02*
X7020063Y-7972198D01*
X7229587Y-8086484D02*
X7210539Y-8076960D01*
X7210539Y-8076960D02*
X7201015Y-8067436D01*
X7201015Y-8067436D02*
X7191491Y-8048388D01*
X7191491Y-8048388D02*
X7191491Y-7991246D01*
X7191491Y-7991246D02*
X7201015Y-7972198D01*
X7201015Y-7972198D02*
X7210539Y-7962674D01*
X7210539Y-7962674D02*
X7229587Y-7953150D01*
X7229587Y-7953150D02*
X7258158Y-7953150D01*
X7258158Y-7953150D02*
X7277206Y-7962674D01*
X7277206Y-7962674D02*
X7286730Y-7972198D01*
X7286730Y-7972198D02*
X7296253Y-7991246D01*
X7296253Y-7991246D02*
X7296253Y-8048388D01*
X7296253Y-8048388D02*
X7286730Y-8067436D01*
X7286730Y-8067436D02*
X7277206Y-8076960D01*
X7277206Y-8076960D02*
X7258158Y-8086484D01*
X7258158Y-8086484D02*
X7229587Y-8086484D01*
X7410539Y-8086484D02*
X7391491Y-8076960D01*
X7391491Y-8076960D02*
X7381968Y-8057912D01*
X7381968Y-8057912D02*
X7381968Y-7886484D01*
X7562920Y-8076960D02*
X7543872Y-8086484D01*
X7543872Y-8086484D02*
X7505777Y-8086484D01*
X7505777Y-8086484D02*
X7486730Y-8076960D01*
X7486730Y-8076960D02*
X7477206Y-8057912D01*
X7477206Y-8057912D02*
X7477206Y-7981722D01*
X7477206Y-7981722D02*
X7486730Y-7962674D01*
X7486730Y-7962674D02*
X7505777Y-7953150D01*
X7505777Y-7953150D02*
X7543872Y-7953150D01*
X7543872Y-7953150D02*
X7562920Y-7962674D01*
X7562920Y-7962674D02*
X7572444Y-7981722D01*
X7572444Y-7981722D02*
X7572444Y-8000769D01*
X7572444Y-8000769D02*
X7477206Y-8019817D01*
X7648634Y-8076960D02*
X7667682Y-8086484D01*
X7667682Y-8086484D02*
X7705777Y-8086484D01*
X7705777Y-8086484D02*
X7724825Y-8076960D01*
X7724825Y-8076960D02*
X7734349Y-8057912D01*
X7734349Y-8057912D02*
X7734349Y-8048388D01*
X7734349Y-8048388D02*
X7724825Y-8029341D01*
X7724825Y-8029341D02*
X7705777Y-8019817D01*
X7705777Y-8019817D02*
X7677206Y-8019817D01*
X7677206Y-8019817D02*
X7658158Y-8010293D01*
X7658158Y-8010293D02*
X7648634Y-7991246D01*
X7648634Y-7991246D02*
X7648634Y-7981722D01*
X7648634Y-7981722D02*
X7658158Y-7962674D01*
X7658158Y-7962674D02*
X7677206Y-7953150D01*
X7677206Y-7953150D02*
X7705777Y-7953150D01*
X7705777Y-7953150D02*
X7724825Y-7962674D01*
X7801015Y-8162674D02*
X7810539Y-8153150D01*
X7810539Y-8153150D02*
X7829587Y-8124579D01*
X7829587Y-8124579D02*
X7839111Y-8105531D01*
X7839111Y-8105531D02*
X7848634Y-8076960D01*
X7848634Y-8076960D02*
X7858158Y-8029341D01*
X7858158Y-8029341D02*
X7858158Y-7991246D01*
X7858158Y-7991246D02*
X7848634Y-7943627D01*
X7848634Y-7943627D02*
X7839111Y-7915055D01*
X7839111Y-7915055D02*
X7829587Y-7896008D01*
X7829587Y-7896008D02*
X7810539Y-7867436D01*
X7810539Y-7867436D02*
X7801015Y-7857912D01*
D10*
X2645000Y-8259000D02*
G75*
G02*
X2545000Y-8259000I-50000J0D01*
G01*
X2545000Y-8259000D02*
G75*
G02*
X2645000Y-8259000I50000J0D01*
G01*
D11*
X3010539Y-8350484D02*
X2896253Y-8350484D01*
X2953396Y-8350484D02*
X2953396Y-8150484D01*
X2953396Y-8150484D02*
X2934348Y-8179055D01*
X2934348Y-8179055D02*
X2915301Y-8198103D01*
X2915301Y-8198103D02*
X2896253Y-8207627D01*
X3096253Y-8331436D02*
X3105777Y-8340960D01*
X3105777Y-8340960D02*
X3096253Y-8350484D01*
X3096253Y-8350484D02*
X3086729Y-8340960D01*
X3086729Y-8340960D02*
X3096253Y-8331436D01*
X3096253Y-8331436D02*
X3096253Y-8350484D01*
X3229586Y-8150484D02*
X3248634Y-8150484D01*
X3248634Y-8150484D02*
X3267682Y-8160008D01*
X3267682Y-8160008D02*
X3277205Y-8169531D01*
X3277205Y-8169531D02*
X3286729Y-8188579D01*
X3286729Y-8188579D02*
X3296253Y-8226674D01*
X3296253Y-8226674D02*
X3296253Y-8274293D01*
X3296253Y-8274293D02*
X3286729Y-8312388D01*
X3286729Y-8312388D02*
X3277205Y-8331436D01*
X3277205Y-8331436D02*
X3267682Y-8340960D01*
X3267682Y-8340960D02*
X3248634Y-8350484D01*
X3248634Y-8350484D02*
X3229586Y-8350484D01*
X3229586Y-8350484D02*
X3210539Y-8340960D01*
X3210539Y-8340960D02*
X3201015Y-8331436D01*
X3201015Y-8331436D02*
X3191491Y-8312388D01*
X3191491Y-8312388D02*
X3181967Y-8274293D01*
X3181967Y-8274293D02*
X3181967Y-8226674D01*
X3181967Y-8226674D02*
X3191491Y-8188579D01*
X3191491Y-8188579D02*
X3201015Y-8169531D01*
X3201015Y-8169531D02*
X3210539Y-8160008D01*
X3210539Y-8160008D02*
X3229586Y-8150484D01*
X3420062Y-8150484D02*
X3439110Y-8150484D01*
X3439110Y-8150484D02*
X3458158Y-8160008D01*
X3458158Y-8160008D02*
X3467682Y-8169531D01*
X3467682Y-8169531D02*
X3477205Y-8188579D01*
X3477205Y-8188579D02*
X3486729Y-8226674D01*
X3486729Y-8226674D02*
X3486729Y-8274293D01*
X3486729Y-8274293D02*
X3477205Y-8312388D01*
X3477205Y-8312388D02*
X3467682Y-8331436D01*
X3467682Y-8331436D02*
X3458158Y-8340960D01*
X3458158Y-8340960D02*
X3439110Y-8350484D01*
X3439110Y-8350484D02*
X3420062Y-8350484D01*
X3420062Y-8350484D02*
X3401015Y-8340960D01*
X3401015Y-8340960D02*
X3391491Y-8331436D01*
X3391491Y-8331436D02*
X3381967Y-8312388D01*
X3381967Y-8312388D02*
X3372443Y-8274293D01*
X3372443Y-8274293D02*
X3372443Y-8226674D01*
X3372443Y-8226674D02*
X3381967Y-8188579D01*
X3381967Y-8188579D02*
X3391491Y-8169531D01*
X3391491Y-8169531D02*
X3401015Y-8160008D01*
X3401015Y-8160008D02*
X3420062Y-8150484D01*
X3610539Y-8150484D02*
X3629586Y-8150484D01*
X3629586Y-8150484D02*
X3648634Y-8160008D01*
X3648634Y-8160008D02*
X3658158Y-8169531D01*
X3658158Y-8169531D02*
X3667682Y-8188579D01*
X3667682Y-8188579D02*
X3677205Y-8226674D01*
X3677205Y-8226674D02*
X3677205Y-8274293D01*
X3677205Y-8274293D02*
X3667682Y-8312388D01*
X3667682Y-8312388D02*
X3658158Y-8331436D01*
X3658158Y-8331436D02*
X3648634Y-8340960D01*
X3648634Y-8340960D02*
X3629586Y-8350484D01*
X3629586Y-8350484D02*
X3610539Y-8350484D01*
X3610539Y-8350484D02*
X3591491Y-8340960D01*
X3591491Y-8340960D02*
X3581967Y-8331436D01*
X3581967Y-8331436D02*
X3572443Y-8312388D01*
X3572443Y-8312388D02*
X3562920Y-8274293D01*
X3562920Y-8274293D02*
X3562920Y-8226674D01*
X3562920Y-8226674D02*
X3572443Y-8188579D01*
X3572443Y-8188579D02*
X3581967Y-8169531D01*
X3581967Y-8169531D02*
X3591491Y-8160008D01*
X3591491Y-8160008D02*
X3610539Y-8150484D01*
X3762920Y-8350484D02*
X3762920Y-8217150D01*
X3762920Y-8236198D02*
X3772443Y-8226674D01*
X3772443Y-8226674D02*
X3791491Y-8217150D01*
X3791491Y-8217150D02*
X3820063Y-8217150D01*
X3820063Y-8217150D02*
X3839110Y-8226674D01*
X3839110Y-8226674D02*
X3848634Y-8245722D01*
X3848634Y-8245722D02*
X3848634Y-8350484D01*
X3848634Y-8245722D02*
X3858158Y-8226674D01*
X3858158Y-8226674D02*
X3877205Y-8217150D01*
X3877205Y-8217150D02*
X3905777Y-8217150D01*
X3905777Y-8217150D02*
X3924824Y-8226674D01*
X3924824Y-8226674D02*
X3934348Y-8245722D01*
X3934348Y-8245722D02*
X3934348Y-8350484D01*
X4029586Y-8350484D02*
X4029586Y-8217150D01*
X4029586Y-8236198D02*
X4039110Y-8226674D01*
X4039110Y-8226674D02*
X4058158Y-8217150D01*
X4058158Y-8217150D02*
X4086729Y-8217150D01*
X4086729Y-8217150D02*
X4105777Y-8226674D01*
X4105777Y-8226674D02*
X4115301Y-8245722D01*
X4115301Y-8245722D02*
X4115301Y-8350484D01*
X4115301Y-8245722D02*
X4124824Y-8226674D01*
X4124824Y-8226674D02*
X4143872Y-8217150D01*
X4143872Y-8217150D02*
X4172443Y-8217150D01*
X4172443Y-8217150D02*
X4191491Y-8226674D01*
X4191491Y-8226674D02*
X4201015Y-8245722D01*
X4201015Y-8245722D02*
X4201015Y-8350484D01*
X4591491Y-8140960D02*
X4420063Y-8398103D01*
X4848634Y-8150484D02*
X4867682Y-8150484D01*
X4867682Y-8150484D02*
X4886729Y-8160008D01*
X4886729Y-8160008D02*
X4896253Y-8169531D01*
X4896253Y-8169531D02*
X4905777Y-8188579D01*
X4905777Y-8188579D02*
X4915301Y-8226674D01*
X4915301Y-8226674D02*
X4915301Y-8274293D01*
X4915301Y-8274293D02*
X4905777Y-8312388D01*
X4905777Y-8312388D02*
X4896253Y-8331436D01*
X4896253Y-8331436D02*
X4886729Y-8340960D01*
X4886729Y-8340960D02*
X4867682Y-8350484D01*
X4867682Y-8350484D02*
X4848634Y-8350484D01*
X4848634Y-8350484D02*
X4829587Y-8340960D01*
X4829587Y-8340960D02*
X4820063Y-8331436D01*
X4820063Y-8331436D02*
X4810539Y-8312388D01*
X4810539Y-8312388D02*
X4801015Y-8274293D01*
X4801015Y-8274293D02*
X4801015Y-8226674D01*
X4801015Y-8226674D02*
X4810539Y-8188579D01*
X4810539Y-8188579D02*
X4820063Y-8169531D01*
X4820063Y-8169531D02*
X4829587Y-8160008D01*
X4829587Y-8160008D02*
X4848634Y-8150484D01*
X5001015Y-8331436D02*
X5010539Y-8340960D01*
X5010539Y-8340960D02*
X5001015Y-8350484D01*
X5001015Y-8350484D02*
X4991491Y-8340960D01*
X4991491Y-8340960D02*
X5001015Y-8331436D01*
X5001015Y-8331436D02*
X5001015Y-8350484D01*
X5134348Y-8150484D02*
X5153396Y-8150484D01*
X5153396Y-8150484D02*
X5172444Y-8160008D01*
X5172444Y-8160008D02*
X5181968Y-8169531D01*
X5181968Y-8169531D02*
X5191491Y-8188579D01*
X5191491Y-8188579D02*
X5201015Y-8226674D01*
X5201015Y-8226674D02*
X5201015Y-8274293D01*
X5201015Y-8274293D02*
X5191491Y-8312388D01*
X5191491Y-8312388D02*
X5181968Y-8331436D01*
X5181968Y-8331436D02*
X5172444Y-8340960D01*
X5172444Y-8340960D02*
X5153396Y-8350484D01*
X5153396Y-8350484D02*
X5134348Y-8350484D01*
X5134348Y-8350484D02*
X5115301Y-8340960D01*
X5115301Y-8340960D02*
X5105777Y-8331436D01*
X5105777Y-8331436D02*
X5096253Y-8312388D01*
X5096253Y-8312388D02*
X5086729Y-8274293D01*
X5086729Y-8274293D02*
X5086729Y-8226674D01*
X5086729Y-8226674D02*
X5096253Y-8188579D01*
X5096253Y-8188579D02*
X5105777Y-8169531D01*
X5105777Y-8169531D02*
X5115301Y-8160008D01*
X5115301Y-8160008D02*
X5134348Y-8150484D01*
X5267682Y-8150484D02*
X5391491Y-8150484D01*
X5391491Y-8150484D02*
X5324825Y-8226674D01*
X5324825Y-8226674D02*
X5353396Y-8226674D01*
X5353396Y-8226674D02*
X5372444Y-8236198D01*
X5372444Y-8236198D02*
X5381968Y-8245722D01*
X5381968Y-8245722D02*
X5391491Y-8264769D01*
X5391491Y-8264769D02*
X5391491Y-8312388D01*
X5391491Y-8312388D02*
X5381968Y-8331436D01*
X5381968Y-8331436D02*
X5372444Y-8340960D01*
X5372444Y-8340960D02*
X5353396Y-8350484D01*
X5353396Y-8350484D02*
X5296253Y-8350484D01*
X5296253Y-8350484D02*
X5277206Y-8340960D01*
X5277206Y-8340960D02*
X5267682Y-8331436D01*
X5486729Y-8350484D02*
X5524825Y-8350484D01*
X5524825Y-8350484D02*
X5543872Y-8340960D01*
X5543872Y-8340960D02*
X5553396Y-8331436D01*
X5553396Y-8331436D02*
X5572444Y-8302865D01*
X5572444Y-8302865D02*
X5581968Y-8264769D01*
X5581968Y-8264769D02*
X5581968Y-8188579D01*
X5581968Y-8188579D02*
X5572444Y-8169531D01*
X5572444Y-8169531D02*
X5562920Y-8160008D01*
X5562920Y-8160008D02*
X5543872Y-8150484D01*
X5543872Y-8150484D02*
X5505777Y-8150484D01*
X5505777Y-8150484D02*
X5486729Y-8160008D01*
X5486729Y-8160008D02*
X5477206Y-8169531D01*
X5477206Y-8169531D02*
X5467682Y-8188579D01*
X5467682Y-8188579D02*
X5467682Y-8236198D01*
X5467682Y-8236198D02*
X5477206Y-8255246D01*
X5477206Y-8255246D02*
X5486729Y-8264769D01*
X5486729Y-8264769D02*
X5505777Y-8274293D01*
X5505777Y-8274293D02*
X5543872Y-8274293D01*
X5543872Y-8274293D02*
X5562920Y-8264769D01*
X5562920Y-8264769D02*
X5572444Y-8255246D01*
X5572444Y-8255246D02*
X5581968Y-8236198D01*
X5753396Y-8217150D02*
X5753396Y-8350484D01*
X5705777Y-8140960D02*
X5658158Y-8283817D01*
X5658158Y-8283817D02*
X5781967Y-8283817D01*
X5848634Y-8150484D02*
X5848634Y-8188579D01*
X5924825Y-8150484D02*
X5924825Y-8188579D01*
X6220063Y-8426674D02*
X6210539Y-8417150D01*
X6210539Y-8417150D02*
X6191491Y-8388579D01*
X6191491Y-8388579D02*
X6181968Y-8369531D01*
X6181968Y-8369531D02*
X6172444Y-8340960D01*
X6172444Y-8340960D02*
X6162920Y-8293341D01*
X6162920Y-8293341D02*
X6162920Y-8255246D01*
X6162920Y-8255246D02*
X6172444Y-8207627D01*
X6172444Y-8207627D02*
X6181968Y-8179055D01*
X6181968Y-8179055D02*
X6191491Y-8160008D01*
X6191491Y-8160008D02*
X6210539Y-8131436D01*
X6210539Y-8131436D02*
X6220063Y-8121912D01*
X6277206Y-8150484D02*
X6401015Y-8150484D01*
X6401015Y-8150484D02*
X6334348Y-8226674D01*
X6334348Y-8226674D02*
X6362920Y-8226674D01*
X6362920Y-8226674D02*
X6381968Y-8236198D01*
X6381968Y-8236198D02*
X6391491Y-8245722D01*
X6391491Y-8245722D02*
X6401015Y-8264769D01*
X6401015Y-8264769D02*
X6401015Y-8312388D01*
X6401015Y-8312388D02*
X6391491Y-8331436D01*
X6391491Y-8331436D02*
X6381968Y-8340960D01*
X6381968Y-8340960D02*
X6362920Y-8350484D01*
X6362920Y-8350484D02*
X6305777Y-8350484D01*
X6305777Y-8350484D02*
X6286729Y-8340960D01*
X6286729Y-8340960D02*
X6277206Y-8331436D01*
X6639110Y-8350484D02*
X6639110Y-8150484D01*
X6724825Y-8350484D02*
X6724825Y-8245722D01*
X6724825Y-8245722D02*
X6715301Y-8226674D01*
X6715301Y-8226674D02*
X6696253Y-8217150D01*
X6696253Y-8217150D02*
X6667682Y-8217150D01*
X6667682Y-8217150D02*
X6648634Y-8226674D01*
X6648634Y-8226674D02*
X6639110Y-8236198D01*
X6848634Y-8350484D02*
X6829587Y-8340960D01*
X6829587Y-8340960D02*
X6820063Y-8331436D01*
X6820063Y-8331436D02*
X6810539Y-8312388D01*
X6810539Y-8312388D02*
X6810539Y-8255246D01*
X6810539Y-8255246D02*
X6820063Y-8236198D01*
X6820063Y-8236198D02*
X6829587Y-8226674D01*
X6829587Y-8226674D02*
X6848634Y-8217150D01*
X6848634Y-8217150D02*
X6877206Y-8217150D01*
X6877206Y-8217150D02*
X6896253Y-8226674D01*
X6896253Y-8226674D02*
X6905777Y-8236198D01*
X6905777Y-8236198D02*
X6915301Y-8255246D01*
X6915301Y-8255246D02*
X6915301Y-8312388D01*
X6915301Y-8312388D02*
X6905777Y-8331436D01*
X6905777Y-8331436D02*
X6896253Y-8340960D01*
X6896253Y-8340960D02*
X6877206Y-8350484D01*
X6877206Y-8350484D02*
X6848634Y-8350484D01*
X7029587Y-8350484D02*
X7010539Y-8340960D01*
X7010539Y-8340960D02*
X7001015Y-8321912D01*
X7001015Y-8321912D02*
X7001015Y-8150484D01*
X7181968Y-8340960D02*
X7162920Y-8350484D01*
X7162920Y-8350484D02*
X7124825Y-8350484D01*
X7124825Y-8350484D02*
X7105777Y-8340960D01*
X7105777Y-8340960D02*
X7096253Y-8321912D01*
X7096253Y-8321912D02*
X7096253Y-8245722D01*
X7096253Y-8245722D02*
X7105777Y-8226674D01*
X7105777Y-8226674D02*
X7124825Y-8217150D01*
X7124825Y-8217150D02*
X7162920Y-8217150D01*
X7162920Y-8217150D02*
X7181968Y-8226674D01*
X7181968Y-8226674D02*
X7191491Y-8245722D01*
X7191491Y-8245722D02*
X7191491Y-8264769D01*
X7191491Y-8264769D02*
X7096253Y-8283817D01*
X7267682Y-8340960D02*
X7286730Y-8350484D01*
X7286730Y-8350484D02*
X7324825Y-8350484D01*
X7324825Y-8350484D02*
X7343872Y-8340960D01*
X7343872Y-8340960D02*
X7353396Y-8321912D01*
X7353396Y-8321912D02*
X7353396Y-8312388D01*
X7353396Y-8312388D02*
X7343872Y-8293341D01*
X7343872Y-8293341D02*
X7324825Y-8283817D01*
X7324825Y-8283817D02*
X7296253Y-8283817D01*
X7296253Y-8283817D02*
X7277206Y-8274293D01*
X7277206Y-8274293D02*
X7267682Y-8255246D01*
X7267682Y-8255246D02*
X7267682Y-8245722D01*
X7267682Y-8245722D02*
X7277206Y-8226674D01*
X7277206Y-8226674D02*
X7296253Y-8217150D01*
X7296253Y-8217150D02*
X7324825Y-8217150D01*
X7324825Y-8217150D02*
X7343872Y-8226674D01*
X7420063Y-8426674D02*
X7429587Y-8417150D01*
X7429587Y-8417150D02*
X7448634Y-8388579D01*
X7448634Y-8388579D02*
X7458158Y-8369531D01*
X7458158Y-8369531D02*
X7467682Y-8340960D01*
X7467682Y-8340960D02*
X7477206Y-8293341D01*
X7477206Y-8293341D02*
X7477206Y-8255246D01*
X7477206Y-8255246D02*
X7467682Y-8207627D01*
X7467682Y-8207627D02*
X7458158Y-8179055D01*
X7458158Y-8179055D02*
X7448634Y-8160008D01*
X7448634Y-8160008D02*
X7429587Y-8131436D01*
X7429587Y-8131436D02*
X7420063Y-8121912D01*
D12*
X2585000Y-8463000D02*
X2585000Y-8583000D01*
X2525000Y-8523000D02*
X2645000Y-8523000D01*
D11*
X3010539Y-8614484D02*
X2896253Y-8614484D01*
X2953396Y-8614484D02*
X2953396Y-8414484D01*
X2953396Y-8414484D02*
X2934348Y-8443055D01*
X2934348Y-8443055D02*
X2915301Y-8462103D01*
X2915301Y-8462103D02*
X2896253Y-8471627D01*
X3096253Y-8595436D02*
X3105777Y-8604960D01*
X3105777Y-8604960D02*
X3096253Y-8614484D01*
X3096253Y-8614484D02*
X3086729Y-8604960D01*
X3086729Y-8604960D02*
X3096253Y-8595436D01*
X3096253Y-8595436D02*
X3096253Y-8614484D01*
X3181967Y-8433531D02*
X3191491Y-8424008D01*
X3191491Y-8424008D02*
X3210539Y-8414484D01*
X3210539Y-8414484D02*
X3258158Y-8414484D01*
X3258158Y-8414484D02*
X3277205Y-8424008D01*
X3277205Y-8424008D02*
X3286729Y-8433531D01*
X3286729Y-8433531D02*
X3296253Y-8452579D01*
X3296253Y-8452579D02*
X3296253Y-8471627D01*
X3296253Y-8471627D02*
X3286729Y-8500198D01*
X3286729Y-8500198D02*
X3172443Y-8614484D01*
X3172443Y-8614484D02*
X3296253Y-8614484D01*
X3420062Y-8414484D02*
X3439110Y-8414484D01*
X3439110Y-8414484D02*
X3458158Y-8424008D01*
X3458158Y-8424008D02*
X3467682Y-8433531D01*
X3467682Y-8433531D02*
X3477205Y-8452579D01*
X3477205Y-8452579D02*
X3486729Y-8490674D01*
X3486729Y-8490674D02*
X3486729Y-8538293D01*
X3486729Y-8538293D02*
X3477205Y-8576389D01*
X3477205Y-8576389D02*
X3467682Y-8595436D01*
X3467682Y-8595436D02*
X3458158Y-8604960D01*
X3458158Y-8604960D02*
X3439110Y-8614484D01*
X3439110Y-8614484D02*
X3420062Y-8614484D01*
X3420062Y-8614484D02*
X3401015Y-8604960D01*
X3401015Y-8604960D02*
X3391491Y-8595436D01*
X3391491Y-8595436D02*
X3381967Y-8576389D01*
X3381967Y-8576389D02*
X3372443Y-8538293D01*
X3372443Y-8538293D02*
X3372443Y-8490674D01*
X3372443Y-8490674D02*
X3381967Y-8452579D01*
X3381967Y-8452579D02*
X3391491Y-8433531D01*
X3391491Y-8433531D02*
X3401015Y-8424008D01*
X3401015Y-8424008D02*
X3420062Y-8414484D01*
X3610539Y-8414484D02*
X3629586Y-8414484D01*
X3629586Y-8414484D02*
X3648634Y-8424008D01*
X3648634Y-8424008D02*
X3658158Y-8433531D01*
X3658158Y-8433531D02*
X3667682Y-8452579D01*
X3667682Y-8452579D02*
X3677205Y-8490674D01*
X3677205Y-8490674D02*
X3677205Y-8538293D01*
X3677205Y-8538293D02*
X3667682Y-8576389D01*
X3667682Y-8576389D02*
X3658158Y-8595436D01*
X3658158Y-8595436D02*
X3648634Y-8604960D01*
X3648634Y-8604960D02*
X3629586Y-8614484D01*
X3629586Y-8614484D02*
X3610539Y-8614484D01*
X3610539Y-8614484D02*
X3591491Y-8604960D01*
X3591491Y-8604960D02*
X3581967Y-8595436D01*
X3581967Y-8595436D02*
X3572443Y-8576389D01*
X3572443Y-8576389D02*
X3562920Y-8538293D01*
X3562920Y-8538293D02*
X3562920Y-8490674D01*
X3562920Y-8490674D02*
X3572443Y-8452579D01*
X3572443Y-8452579D02*
X3581967Y-8433531D01*
X3581967Y-8433531D02*
X3591491Y-8424008D01*
X3591491Y-8424008D02*
X3610539Y-8414484D01*
X3762920Y-8614484D02*
X3762920Y-8481150D01*
X3762920Y-8500198D02*
X3772443Y-8490674D01*
X3772443Y-8490674D02*
X3791491Y-8481150D01*
X3791491Y-8481150D02*
X3820063Y-8481150D01*
X3820063Y-8481150D02*
X3839110Y-8490674D01*
X3839110Y-8490674D02*
X3848634Y-8509722D01*
X3848634Y-8509722D02*
X3848634Y-8614484D01*
X3848634Y-8509722D02*
X3858158Y-8490674D01*
X3858158Y-8490674D02*
X3877205Y-8481150D01*
X3877205Y-8481150D02*
X3905777Y-8481150D01*
X3905777Y-8481150D02*
X3924824Y-8490674D01*
X3924824Y-8490674D02*
X3934348Y-8509722D01*
X3934348Y-8509722D02*
X3934348Y-8614484D01*
X4029586Y-8614484D02*
X4029586Y-8481150D01*
X4029586Y-8500198D02*
X4039110Y-8490674D01*
X4039110Y-8490674D02*
X4058158Y-8481150D01*
X4058158Y-8481150D02*
X4086729Y-8481150D01*
X4086729Y-8481150D02*
X4105777Y-8490674D01*
X4105777Y-8490674D02*
X4115301Y-8509722D01*
X4115301Y-8509722D02*
X4115301Y-8614484D01*
X4115301Y-8509722D02*
X4124824Y-8490674D01*
X4124824Y-8490674D02*
X4143872Y-8481150D01*
X4143872Y-8481150D02*
X4172443Y-8481150D01*
X4172443Y-8481150D02*
X4191491Y-8490674D01*
X4191491Y-8490674D02*
X4201015Y-8509722D01*
X4201015Y-8509722D02*
X4201015Y-8614484D01*
X4591491Y-8404960D02*
X4420063Y-8662103D01*
X4848634Y-8414484D02*
X4867682Y-8414484D01*
X4867682Y-8414484D02*
X4886729Y-8424008D01*
X4886729Y-8424008D02*
X4896253Y-8433531D01*
X4896253Y-8433531D02*
X4905777Y-8452579D01*
X4905777Y-8452579D02*
X4915301Y-8490674D01*
X4915301Y-8490674D02*
X4915301Y-8538293D01*
X4915301Y-8538293D02*
X4905777Y-8576389D01*
X4905777Y-8576389D02*
X4896253Y-8595436D01*
X4896253Y-8595436D02*
X4886729Y-8604960D01*
X4886729Y-8604960D02*
X4867682Y-8614484D01*
X4867682Y-8614484D02*
X4848634Y-8614484D01*
X4848634Y-8614484D02*
X4829587Y-8604960D01*
X4829587Y-8604960D02*
X4820063Y-8595436D01*
X4820063Y-8595436D02*
X4810539Y-8576389D01*
X4810539Y-8576389D02*
X4801015Y-8538293D01*
X4801015Y-8538293D02*
X4801015Y-8490674D01*
X4801015Y-8490674D02*
X4810539Y-8452579D01*
X4810539Y-8452579D02*
X4820063Y-8433531D01*
X4820063Y-8433531D02*
X4829587Y-8424008D01*
X4829587Y-8424008D02*
X4848634Y-8414484D01*
X5001015Y-8595436D02*
X5010539Y-8604960D01*
X5010539Y-8604960D02*
X5001015Y-8614484D01*
X5001015Y-8614484D02*
X4991491Y-8604960D01*
X4991491Y-8604960D02*
X5001015Y-8595436D01*
X5001015Y-8595436D02*
X5001015Y-8614484D01*
X5134348Y-8414484D02*
X5153396Y-8414484D01*
X5153396Y-8414484D02*
X5172444Y-8424008D01*
X5172444Y-8424008D02*
X5181968Y-8433531D01*
X5181968Y-8433531D02*
X5191491Y-8452579D01*
X5191491Y-8452579D02*
X5201015Y-8490674D01*
X5201015Y-8490674D02*
X5201015Y-8538293D01*
X5201015Y-8538293D02*
X5191491Y-8576389D01*
X5191491Y-8576389D02*
X5181968Y-8595436D01*
X5181968Y-8595436D02*
X5172444Y-8604960D01*
X5172444Y-8604960D02*
X5153396Y-8614484D01*
X5153396Y-8614484D02*
X5134348Y-8614484D01*
X5134348Y-8614484D02*
X5115301Y-8604960D01*
X5115301Y-8604960D02*
X5105777Y-8595436D01*
X5105777Y-8595436D02*
X5096253Y-8576389D01*
X5096253Y-8576389D02*
X5086729Y-8538293D01*
X5086729Y-8538293D02*
X5086729Y-8490674D01*
X5086729Y-8490674D02*
X5096253Y-8452579D01*
X5096253Y-8452579D02*
X5105777Y-8433531D01*
X5105777Y-8433531D02*
X5115301Y-8424008D01*
X5115301Y-8424008D02*
X5134348Y-8414484D01*
X5372444Y-8481150D02*
X5372444Y-8614484D01*
X5324825Y-8404960D02*
X5277206Y-8547817D01*
X5277206Y-8547817D02*
X5401015Y-8547817D01*
X5458158Y-8414484D02*
X5591491Y-8414484D01*
X5591491Y-8414484D02*
X5505777Y-8614484D01*
X5658158Y-8433531D02*
X5667682Y-8424008D01*
X5667682Y-8424008D02*
X5686729Y-8414484D01*
X5686729Y-8414484D02*
X5734348Y-8414484D01*
X5734348Y-8414484D02*
X5753396Y-8424008D01*
X5753396Y-8424008D02*
X5762920Y-8433531D01*
X5762920Y-8433531D02*
X5772444Y-8452579D01*
X5772444Y-8452579D02*
X5772444Y-8471627D01*
X5772444Y-8471627D02*
X5762920Y-8500198D01*
X5762920Y-8500198D02*
X5648634Y-8614484D01*
X5648634Y-8614484D02*
X5772444Y-8614484D01*
X5848634Y-8414484D02*
X5848634Y-8452579D01*
X5924825Y-8414484D02*
X5924825Y-8452579D01*
X6220063Y-8690674D02*
X6210539Y-8681150D01*
X6210539Y-8681150D02*
X6191491Y-8652579D01*
X6191491Y-8652579D02*
X6181968Y-8633531D01*
X6181968Y-8633531D02*
X6172444Y-8604960D01*
X6172444Y-8604960D02*
X6162920Y-8557341D01*
X6162920Y-8557341D02*
X6162920Y-8519246D01*
X6162920Y-8519246D02*
X6172444Y-8471627D01*
X6172444Y-8471627D02*
X6181968Y-8443055D01*
X6181968Y-8443055D02*
X6191491Y-8424008D01*
X6191491Y-8424008D02*
X6210539Y-8395436D01*
X6210539Y-8395436D02*
X6220063Y-8385912D01*
X6324825Y-8500198D02*
X6305777Y-8490674D01*
X6305777Y-8490674D02*
X6296253Y-8481150D01*
X6296253Y-8481150D02*
X6286729Y-8462103D01*
X6286729Y-8462103D02*
X6286729Y-8452579D01*
X6286729Y-8452579D02*
X6296253Y-8433531D01*
X6296253Y-8433531D02*
X6305777Y-8424008D01*
X6305777Y-8424008D02*
X6324825Y-8414484D01*
X6324825Y-8414484D02*
X6362920Y-8414484D01*
X6362920Y-8414484D02*
X6381968Y-8424008D01*
X6381968Y-8424008D02*
X6391491Y-8433531D01*
X6391491Y-8433531D02*
X6401015Y-8452579D01*
X6401015Y-8452579D02*
X6401015Y-8462103D01*
X6401015Y-8462103D02*
X6391491Y-8481150D01*
X6391491Y-8481150D02*
X6381968Y-8490674D01*
X6381968Y-8490674D02*
X6362920Y-8500198D01*
X6362920Y-8500198D02*
X6324825Y-8500198D01*
X6324825Y-8500198D02*
X6305777Y-8509722D01*
X6305777Y-8509722D02*
X6296253Y-8519246D01*
X6296253Y-8519246D02*
X6286729Y-8538293D01*
X6286729Y-8538293D02*
X6286729Y-8576389D01*
X6286729Y-8576389D02*
X6296253Y-8595436D01*
X6296253Y-8595436D02*
X6305777Y-8604960D01*
X6305777Y-8604960D02*
X6324825Y-8614484D01*
X6324825Y-8614484D02*
X6362920Y-8614484D01*
X6362920Y-8614484D02*
X6381968Y-8604960D01*
X6381968Y-8604960D02*
X6391491Y-8595436D01*
X6391491Y-8595436D02*
X6401015Y-8576389D01*
X6401015Y-8576389D02*
X6401015Y-8538293D01*
X6401015Y-8538293D02*
X6391491Y-8519246D01*
X6391491Y-8519246D02*
X6381968Y-8509722D01*
X6381968Y-8509722D02*
X6362920Y-8500198D01*
X6639110Y-8614484D02*
X6639110Y-8414484D01*
X6724825Y-8614484D02*
X6724825Y-8509722D01*
X6724825Y-8509722D02*
X6715301Y-8490674D01*
X6715301Y-8490674D02*
X6696253Y-8481150D01*
X6696253Y-8481150D02*
X6667682Y-8481150D01*
X6667682Y-8481150D02*
X6648634Y-8490674D01*
X6648634Y-8490674D02*
X6639110Y-8500198D01*
X6848634Y-8614484D02*
X6829587Y-8604960D01*
X6829587Y-8604960D02*
X6820063Y-8595436D01*
X6820063Y-8595436D02*
X6810539Y-8576389D01*
X6810539Y-8576389D02*
X6810539Y-8519246D01*
X6810539Y-8519246D02*
X6820063Y-8500198D01*
X6820063Y-8500198D02*
X6829587Y-8490674D01*
X6829587Y-8490674D02*
X6848634Y-8481150D01*
X6848634Y-8481150D02*
X6877206Y-8481150D01*
X6877206Y-8481150D02*
X6896253Y-8490674D01*
X6896253Y-8490674D02*
X6905777Y-8500198D01*
X6905777Y-8500198D02*
X6915301Y-8519246D01*
X6915301Y-8519246D02*
X6915301Y-8576389D01*
X6915301Y-8576389D02*
X6905777Y-8595436D01*
X6905777Y-8595436D02*
X6896253Y-8604960D01*
X6896253Y-8604960D02*
X6877206Y-8614484D01*
X6877206Y-8614484D02*
X6848634Y-8614484D01*
X7029587Y-8614484D02*
X7010539Y-8604960D01*
X7010539Y-8604960D02*
X7001015Y-8585912D01*
X7001015Y-8585912D02*
X7001015Y-8414484D01*
X7181968Y-8604960D02*
X7162920Y-8614484D01*
X7162920Y-8614484D02*
X7124825Y-8614484D01*
X7124825Y-8614484D02*
X7105777Y-8604960D01*
X7105777Y-8604960D02*
X7096253Y-8585912D01*
X7096253Y-8585912D02*
X7096253Y-8509722D01*
X7096253Y-8509722D02*
X7105777Y-8490674D01*
X7105777Y-8490674D02*
X7124825Y-8481150D01*
X7124825Y-8481150D02*
X7162920Y-8481150D01*
X7162920Y-8481150D02*
X7181968Y-8490674D01*
X7181968Y-8490674D02*
X7191491Y-8509722D01*
X7191491Y-8509722D02*
X7191491Y-8528770D01*
X7191491Y-8528770D02*
X7096253Y-8547817D01*
X7267682Y-8604960D02*
X7286730Y-8614484D01*
X7286730Y-8614484D02*
X7324825Y-8614484D01*
X7324825Y-8614484D02*
X7343872Y-8604960D01*
X7343872Y-8604960D02*
X7353396Y-8585912D01*
X7353396Y-8585912D02*
X7353396Y-8576389D01*
X7353396Y-8576389D02*
X7343872Y-8557341D01*
X7343872Y-8557341D02*
X7324825Y-8547817D01*
X7324825Y-8547817D02*
X7296253Y-8547817D01*
X7296253Y-8547817D02*
X7277206Y-8538293D01*
X7277206Y-8538293D02*
X7267682Y-8519246D01*
X7267682Y-8519246D02*
X7267682Y-8509722D01*
X7267682Y-8509722D02*
X7277206Y-8490674D01*
X7277206Y-8490674D02*
X7296253Y-8481150D01*
X7296253Y-8481150D02*
X7324825Y-8481150D01*
X7324825Y-8481150D02*
X7343872Y-8490674D01*
X7420063Y-8690674D02*
X7429587Y-8681150D01*
X7429587Y-8681150D02*
X7448634Y-8652579D01*
X7448634Y-8652579D02*
X7458158Y-8633531D01*
X7458158Y-8633531D02*
X7467682Y-8604960D01*
X7467682Y-8604960D02*
X7477206Y-8557341D01*
X7477206Y-8557341D02*
X7477206Y-8519246D01*
X7477206Y-8519246D02*
X7467682Y-8471627D01*
X7467682Y-8471627D02*
X7458158Y-8443055D01*
X7458158Y-8443055D02*
X7448634Y-8424008D01*
X7448634Y-8424008D02*
X7429587Y-8395436D01*
X7429587Y-8395436D02*
X7420063Y-8385912D01*
X2615711Y-8857711D02*
X2615711Y-8716289D01*
X2474289Y-8716289D01*
X2474289Y-8857711D01*
X2615711Y-8857711D01*
X2991491Y-8678484D02*
X2953396Y-8678484D01*
X2953396Y-8678484D02*
X2934348Y-8688008D01*
X2934348Y-8688008D02*
X2924824Y-8697531D01*
X2924824Y-8697531D02*
X2905777Y-8726103D01*
X2905777Y-8726103D02*
X2896253Y-8764198D01*
X2896253Y-8764198D02*
X2896253Y-8840389D01*
X2896253Y-8840389D02*
X2905777Y-8859436D01*
X2905777Y-8859436D02*
X2915301Y-8868960D01*
X2915301Y-8868960D02*
X2934348Y-8878484D01*
X2934348Y-8878484D02*
X2972443Y-8878484D01*
X2972443Y-8878484D02*
X2991491Y-8868960D01*
X2991491Y-8868960D02*
X3001015Y-8859436D01*
X3001015Y-8859436D02*
X3010539Y-8840389D01*
X3010539Y-8840389D02*
X3010539Y-8792770D01*
X3010539Y-8792770D02*
X3001015Y-8773722D01*
X3001015Y-8773722D02*
X2991491Y-8764198D01*
X2991491Y-8764198D02*
X2972443Y-8754674D01*
X2972443Y-8754674D02*
X2934348Y-8754674D01*
X2934348Y-8754674D02*
X2915301Y-8764198D01*
X2915301Y-8764198D02*
X2905777Y-8773722D01*
X2905777Y-8773722D02*
X2896253Y-8792770D01*
X3096253Y-8859436D02*
X3105777Y-8868960D01*
X3105777Y-8868960D02*
X3096253Y-8878484D01*
X3096253Y-8878484D02*
X3086729Y-8868960D01*
X3086729Y-8868960D02*
X3096253Y-8859436D01*
X3096253Y-8859436D02*
X3096253Y-8878484D01*
X3229586Y-8678484D02*
X3248634Y-8678484D01*
X3248634Y-8678484D02*
X3267682Y-8688008D01*
X3267682Y-8688008D02*
X3277205Y-8697531D01*
X3277205Y-8697531D02*
X3286729Y-8716579D01*
X3286729Y-8716579D02*
X3296253Y-8754674D01*
X3296253Y-8754674D02*
X3296253Y-8802293D01*
X3296253Y-8802293D02*
X3286729Y-8840389D01*
X3286729Y-8840389D02*
X3277205Y-8859436D01*
X3277205Y-8859436D02*
X3267682Y-8868960D01*
X3267682Y-8868960D02*
X3248634Y-8878484D01*
X3248634Y-8878484D02*
X3229586Y-8878484D01*
X3229586Y-8878484D02*
X3210539Y-8868960D01*
X3210539Y-8868960D02*
X3201015Y-8859436D01*
X3201015Y-8859436D02*
X3191491Y-8840389D01*
X3191491Y-8840389D02*
X3181967Y-8802293D01*
X3181967Y-8802293D02*
X3181967Y-8754674D01*
X3181967Y-8754674D02*
X3191491Y-8716579D01*
X3191491Y-8716579D02*
X3201015Y-8697531D01*
X3201015Y-8697531D02*
X3210539Y-8688008D01*
X3210539Y-8688008D02*
X3229586Y-8678484D01*
X3420062Y-8678484D02*
X3439110Y-8678484D01*
X3439110Y-8678484D02*
X3458158Y-8688008D01*
X3458158Y-8688008D02*
X3467682Y-8697531D01*
X3467682Y-8697531D02*
X3477205Y-8716579D01*
X3477205Y-8716579D02*
X3486729Y-8754674D01*
X3486729Y-8754674D02*
X3486729Y-8802293D01*
X3486729Y-8802293D02*
X3477205Y-8840389D01*
X3477205Y-8840389D02*
X3467682Y-8859436D01*
X3467682Y-8859436D02*
X3458158Y-8868960D01*
X3458158Y-8868960D02*
X3439110Y-8878484D01*
X3439110Y-8878484D02*
X3420062Y-8878484D01*
X3420062Y-8878484D02*
X3401015Y-8868960D01*
X3401015Y-8868960D02*
X3391491Y-8859436D01*
X3391491Y-8859436D02*
X3381967Y-8840389D01*
X3381967Y-8840389D02*
X3372443Y-8802293D01*
X3372443Y-8802293D02*
X3372443Y-8754674D01*
X3372443Y-8754674D02*
X3381967Y-8716579D01*
X3381967Y-8716579D02*
X3391491Y-8697531D01*
X3391491Y-8697531D02*
X3401015Y-8688008D01*
X3401015Y-8688008D02*
X3420062Y-8678484D01*
X3610539Y-8678484D02*
X3629586Y-8678484D01*
X3629586Y-8678484D02*
X3648634Y-8688008D01*
X3648634Y-8688008D02*
X3658158Y-8697531D01*
X3658158Y-8697531D02*
X3667682Y-8716579D01*
X3667682Y-8716579D02*
X3677205Y-8754674D01*
X3677205Y-8754674D02*
X3677205Y-8802293D01*
X3677205Y-8802293D02*
X3667682Y-8840389D01*
X3667682Y-8840389D02*
X3658158Y-8859436D01*
X3658158Y-8859436D02*
X3648634Y-8868960D01*
X3648634Y-8868960D02*
X3629586Y-8878484D01*
X3629586Y-8878484D02*
X3610539Y-8878484D01*
X3610539Y-8878484D02*
X3591491Y-8868960D01*
X3591491Y-8868960D02*
X3581967Y-8859436D01*
X3581967Y-8859436D02*
X3572443Y-8840389D01*
X3572443Y-8840389D02*
X3562920Y-8802293D01*
X3562920Y-8802293D02*
X3562920Y-8754674D01*
X3562920Y-8754674D02*
X3572443Y-8716579D01*
X3572443Y-8716579D02*
X3581967Y-8697531D01*
X3581967Y-8697531D02*
X3591491Y-8688008D01*
X3591491Y-8688008D02*
X3610539Y-8678484D01*
X3762920Y-8878484D02*
X3762920Y-8745150D01*
X3762920Y-8764198D02*
X3772443Y-8754674D01*
X3772443Y-8754674D02*
X3791491Y-8745150D01*
X3791491Y-8745150D02*
X3820063Y-8745150D01*
X3820063Y-8745150D02*
X3839110Y-8754674D01*
X3839110Y-8754674D02*
X3848634Y-8773722D01*
X3848634Y-8773722D02*
X3848634Y-8878484D01*
X3848634Y-8773722D02*
X3858158Y-8754674D01*
X3858158Y-8754674D02*
X3877205Y-8745150D01*
X3877205Y-8745150D02*
X3905777Y-8745150D01*
X3905777Y-8745150D02*
X3924824Y-8754674D01*
X3924824Y-8754674D02*
X3934348Y-8773722D01*
X3934348Y-8773722D02*
X3934348Y-8878484D01*
X4029586Y-8878484D02*
X4029586Y-8745150D01*
X4029586Y-8764198D02*
X4039110Y-8754674D01*
X4039110Y-8754674D02*
X4058158Y-8745150D01*
X4058158Y-8745150D02*
X4086729Y-8745150D01*
X4086729Y-8745150D02*
X4105777Y-8754674D01*
X4105777Y-8754674D02*
X4115301Y-8773722D01*
X4115301Y-8773722D02*
X4115301Y-8878484D01*
X4115301Y-8773722D02*
X4124824Y-8754674D01*
X4124824Y-8754674D02*
X4143872Y-8745150D01*
X4143872Y-8745150D02*
X4172443Y-8745150D01*
X4172443Y-8745150D02*
X4191491Y-8754674D01*
X4191491Y-8754674D02*
X4201015Y-8773722D01*
X4201015Y-8773722D02*
X4201015Y-8878484D01*
X4591491Y-8668960D02*
X4420063Y-8926103D01*
X4848634Y-8678484D02*
X4867682Y-8678484D01*
X4867682Y-8678484D02*
X4886729Y-8688008D01*
X4886729Y-8688008D02*
X4896253Y-8697531D01*
X4896253Y-8697531D02*
X4905777Y-8716579D01*
X4905777Y-8716579D02*
X4915301Y-8754674D01*
X4915301Y-8754674D02*
X4915301Y-8802293D01*
X4915301Y-8802293D02*
X4905777Y-8840389D01*
X4905777Y-8840389D02*
X4896253Y-8859436D01*
X4896253Y-8859436D02*
X4886729Y-8868960D01*
X4886729Y-8868960D02*
X4867682Y-8878484D01*
X4867682Y-8878484D02*
X4848634Y-8878484D01*
X4848634Y-8878484D02*
X4829587Y-8868960D01*
X4829587Y-8868960D02*
X4820063Y-8859436D01*
X4820063Y-8859436D02*
X4810539Y-8840389D01*
X4810539Y-8840389D02*
X4801015Y-8802293D01*
X4801015Y-8802293D02*
X4801015Y-8754674D01*
X4801015Y-8754674D02*
X4810539Y-8716579D01*
X4810539Y-8716579D02*
X4820063Y-8697531D01*
X4820063Y-8697531D02*
X4829587Y-8688008D01*
X4829587Y-8688008D02*
X4848634Y-8678484D01*
X5001015Y-8859436D02*
X5010539Y-8868960D01*
X5010539Y-8868960D02*
X5001015Y-8878484D01*
X5001015Y-8878484D02*
X4991491Y-8868960D01*
X4991491Y-8868960D02*
X5001015Y-8859436D01*
X5001015Y-8859436D02*
X5001015Y-8878484D01*
X5086729Y-8697531D02*
X5096253Y-8688008D01*
X5096253Y-8688008D02*
X5115301Y-8678484D01*
X5115301Y-8678484D02*
X5162920Y-8678484D01*
X5162920Y-8678484D02*
X5181968Y-8688008D01*
X5181968Y-8688008D02*
X5191491Y-8697531D01*
X5191491Y-8697531D02*
X5201015Y-8716579D01*
X5201015Y-8716579D02*
X5201015Y-8735627D01*
X5201015Y-8735627D02*
X5191491Y-8764198D01*
X5191491Y-8764198D02*
X5077206Y-8878484D01*
X5077206Y-8878484D02*
X5201015Y-8878484D01*
X5267682Y-8678484D02*
X5391491Y-8678484D01*
X5391491Y-8678484D02*
X5324825Y-8754674D01*
X5324825Y-8754674D02*
X5353396Y-8754674D01*
X5353396Y-8754674D02*
X5372444Y-8764198D01*
X5372444Y-8764198D02*
X5381968Y-8773722D01*
X5381968Y-8773722D02*
X5391491Y-8792770D01*
X5391491Y-8792770D02*
X5391491Y-8840389D01*
X5391491Y-8840389D02*
X5381968Y-8859436D01*
X5381968Y-8859436D02*
X5372444Y-8868960D01*
X5372444Y-8868960D02*
X5353396Y-8878484D01*
X5353396Y-8878484D02*
X5296253Y-8878484D01*
X5296253Y-8878484D02*
X5277206Y-8868960D01*
X5277206Y-8868960D02*
X5267682Y-8859436D01*
X5562920Y-8678484D02*
X5524825Y-8678484D01*
X5524825Y-8678484D02*
X5505777Y-8688008D01*
X5505777Y-8688008D02*
X5496253Y-8697531D01*
X5496253Y-8697531D02*
X5477206Y-8726103D01*
X5477206Y-8726103D02*
X5467682Y-8764198D01*
X5467682Y-8764198D02*
X5467682Y-8840389D01*
X5467682Y-8840389D02*
X5477206Y-8859436D01*
X5477206Y-8859436D02*
X5486729Y-8868960D01*
X5486729Y-8868960D02*
X5505777Y-8878484D01*
X5505777Y-8878484D02*
X5543872Y-8878484D01*
X5543872Y-8878484D02*
X5562920Y-8868960D01*
X5562920Y-8868960D02*
X5572444Y-8859436D01*
X5572444Y-8859436D02*
X5581968Y-8840389D01*
X5581968Y-8840389D02*
X5581968Y-8792770D01*
X5581968Y-8792770D02*
X5572444Y-8773722D01*
X5572444Y-8773722D02*
X5562920Y-8764198D01*
X5562920Y-8764198D02*
X5543872Y-8754674D01*
X5543872Y-8754674D02*
X5505777Y-8754674D01*
X5505777Y-8754674D02*
X5486729Y-8764198D01*
X5486729Y-8764198D02*
X5477206Y-8773722D01*
X5477206Y-8773722D02*
X5467682Y-8792770D01*
X5658158Y-8697531D02*
X5667682Y-8688008D01*
X5667682Y-8688008D02*
X5686729Y-8678484D01*
X5686729Y-8678484D02*
X5734348Y-8678484D01*
X5734348Y-8678484D02*
X5753396Y-8688008D01*
X5753396Y-8688008D02*
X5762920Y-8697531D01*
X5762920Y-8697531D02*
X5772444Y-8716579D01*
X5772444Y-8716579D02*
X5772444Y-8735627D01*
X5772444Y-8735627D02*
X5762920Y-8764198D01*
X5762920Y-8764198D02*
X5648634Y-8878484D01*
X5648634Y-8878484D02*
X5772444Y-8878484D01*
X5848634Y-8678484D02*
X5848634Y-8716579D01*
X5924825Y-8678484D02*
X5924825Y-8716579D01*
X6220063Y-8954674D02*
X6210539Y-8945150D01*
X6210539Y-8945150D02*
X6191491Y-8916579D01*
X6191491Y-8916579D02*
X6181968Y-8897531D01*
X6181968Y-8897531D02*
X6172444Y-8868960D01*
X6172444Y-8868960D02*
X6162920Y-8821341D01*
X6162920Y-8821341D02*
X6162920Y-8783246D01*
X6162920Y-8783246D02*
X6172444Y-8735627D01*
X6172444Y-8735627D02*
X6181968Y-8707055D01*
X6181968Y-8707055D02*
X6191491Y-8688008D01*
X6191491Y-8688008D02*
X6210539Y-8659436D01*
X6210539Y-8659436D02*
X6220063Y-8649912D01*
X6381968Y-8678484D02*
X6343872Y-8678484D01*
X6343872Y-8678484D02*
X6324825Y-8688008D01*
X6324825Y-8688008D02*
X6315301Y-8697531D01*
X6315301Y-8697531D02*
X6296253Y-8726103D01*
X6296253Y-8726103D02*
X6286729Y-8764198D01*
X6286729Y-8764198D02*
X6286729Y-8840389D01*
X6286729Y-8840389D02*
X6296253Y-8859436D01*
X6296253Y-8859436D02*
X6305777Y-8868960D01*
X6305777Y-8868960D02*
X6324825Y-8878484D01*
X6324825Y-8878484D02*
X6362920Y-8878484D01*
X6362920Y-8878484D02*
X6381968Y-8868960D01*
X6381968Y-8868960D02*
X6391491Y-8859436D01*
X6391491Y-8859436D02*
X6401015Y-8840389D01*
X6401015Y-8840389D02*
X6401015Y-8792770D01*
X6401015Y-8792770D02*
X6391491Y-8773722D01*
X6391491Y-8773722D02*
X6381968Y-8764198D01*
X6381968Y-8764198D02*
X6362920Y-8754674D01*
X6362920Y-8754674D02*
X6324825Y-8754674D01*
X6324825Y-8754674D02*
X6305777Y-8764198D01*
X6305777Y-8764198D02*
X6296253Y-8773722D01*
X6296253Y-8773722D02*
X6286729Y-8792770D01*
X6639110Y-8878484D02*
X6639110Y-8678484D01*
X6724825Y-8878484D02*
X6724825Y-8773722D01*
X6724825Y-8773722D02*
X6715301Y-8754674D01*
X6715301Y-8754674D02*
X6696253Y-8745150D01*
X6696253Y-8745150D02*
X6667682Y-8745150D01*
X6667682Y-8745150D02*
X6648634Y-8754674D01*
X6648634Y-8754674D02*
X6639110Y-8764198D01*
X6848634Y-8878484D02*
X6829587Y-8868960D01*
X6829587Y-8868960D02*
X6820063Y-8859436D01*
X6820063Y-8859436D02*
X6810539Y-8840389D01*
X6810539Y-8840389D02*
X6810539Y-8783246D01*
X6810539Y-8783246D02*
X6820063Y-8764198D01*
X6820063Y-8764198D02*
X6829587Y-8754674D01*
X6829587Y-8754674D02*
X6848634Y-8745150D01*
X6848634Y-8745150D02*
X6877206Y-8745150D01*
X6877206Y-8745150D02*
X6896253Y-8754674D01*
X6896253Y-8754674D02*
X6905777Y-8764198D01*
X6905777Y-8764198D02*
X6915301Y-8783246D01*
X6915301Y-8783246D02*
X6915301Y-8840389D01*
X6915301Y-8840389D02*
X6905777Y-8859436D01*
X6905777Y-8859436D02*
X6896253Y-8868960D01*
X6896253Y-8868960D02*
X6877206Y-8878484D01*
X6877206Y-8878484D02*
X6848634Y-8878484D01*
X7029587Y-8878484D02*
X7010539Y-8868960D01*
X7010539Y-8868960D02*
X7001015Y-8849912D01*
X7001015Y-8849912D02*
X7001015Y-8678484D01*
X7181968Y-8868960D02*
X7162920Y-8878484D01*
X7162920Y-8878484D02*
X7124825Y-8878484D01*
X7124825Y-8878484D02*
X7105777Y-8868960D01*
X7105777Y-8868960D02*
X7096253Y-8849912D01*
X7096253Y-8849912D02*
X7096253Y-8773722D01*
X7096253Y-8773722D02*
X7105777Y-8754674D01*
X7105777Y-8754674D02*
X7124825Y-8745150D01*
X7124825Y-8745150D02*
X7162920Y-8745150D01*
X7162920Y-8745150D02*
X7181968Y-8754674D01*
X7181968Y-8754674D02*
X7191491Y-8773722D01*
X7191491Y-8773722D02*
X7191491Y-8792770D01*
X7191491Y-8792770D02*
X7096253Y-8811817D01*
X7267682Y-8868960D02*
X7286730Y-8878484D01*
X7286730Y-8878484D02*
X7324825Y-8878484D01*
X7324825Y-8878484D02*
X7343872Y-8868960D01*
X7343872Y-8868960D02*
X7353396Y-8849912D01*
X7353396Y-8849912D02*
X7353396Y-8840389D01*
X7353396Y-8840389D02*
X7343872Y-8821341D01*
X7343872Y-8821341D02*
X7324825Y-8811817D01*
X7324825Y-8811817D02*
X7296253Y-8811817D01*
X7296253Y-8811817D02*
X7277206Y-8802293D01*
X7277206Y-8802293D02*
X7267682Y-8783246D01*
X7267682Y-8783246D02*
X7267682Y-8773722D01*
X7267682Y-8773722D02*
X7277206Y-8754674D01*
X7277206Y-8754674D02*
X7296253Y-8745150D01*
X7296253Y-8745150D02*
X7324825Y-8745150D01*
X7324825Y-8745150D02*
X7343872Y-8754674D01*
X7420063Y-8954674D02*
X7429587Y-8945150D01*
X7429587Y-8945150D02*
X7448634Y-8916579D01*
X7448634Y-8916579D02*
X7458158Y-8897531D01*
X7458158Y-8897531D02*
X7467682Y-8868960D01*
X7467682Y-8868960D02*
X7477206Y-8821341D01*
X7477206Y-8821341D02*
X7477206Y-8783246D01*
X7477206Y-8783246D02*
X7467682Y-8735627D01*
X7467682Y-8735627D02*
X7458158Y-8707055D01*
X7458158Y-8707055D02*
X7448634Y-8688008D01*
X7448634Y-8688008D02*
X7429587Y-8659436D01*
X7429587Y-8659436D02*
X7420063Y-8649912D01*
M02*
