M48
; DRILL file {KiCad 8.0.6} date 2024-11-03T21:02:26+0100
; FORMAT={-:-/ absolute / inch / decimal}
; #@! TF.CreationDate,2024-11-03T21:02:26+01:00
; #@! TF.GenerationSoftware,Kicad,Pcbnew,8.0.6
; #@! TF.FileFunction,Plated,1,4,PTH
FMAT,2
INCH
; #@! TA.AperFunction,Plated,PTH,ViaDrill
T1C0.0157
; #@! TA.AperFunction,Plated,PTH,ComponentDrill
T2C0.0394
; #@! TA.AperFunction,Plated,PTH,ComponentDrill
T3C0.0472
; #@! TA.AperFunction,Plated,PTH,ComponentDrill
T4C0.2362
%
G90
G05
T1
X1.1201Y-0.5492
X1.1201Y-0.628
X1.1201Y-0.7067
X1.1201Y-0.7854
X1.1201Y-0.8642
X1.1201Y-0.9429
X1.1201Y-1.0217
X1.1201Y-1.1004
X1.1201Y-1.1791
X1.1201Y-1.2579
X1.1201Y-1.3366
X1.1201Y-1.4154
X1.1201Y-1.4941
X1.1201Y-1.5728
X1.1201Y-1.6516
X1.1201Y-1.7303
X1.1201Y-1.8091
X1.1201Y-1.8878
X1.1201Y-1.9665
X1.1201Y-2.0453
X1.1201Y-2.124
X1.1201Y-2.2028
X1.1201Y-2.2815
X1.1201Y-2.3602
X1.1201Y-2.439
X1.1201Y-2.5177
X1.1201Y-2.5965
X1.1413Y-2.6705
X1.1413Y-2.7705
X1.1988Y-0.5492
X1.1988Y-0.628
X1.1988Y-1.0217
X1.1988Y-1.1004
X1.1988Y-1.1791
X1.1988Y-1.2579
X1.1988Y-1.3366
X1.1988Y-1.8091
X1.1988Y-1.8878
X1.1988Y-1.9665
X1.1988Y-2.0453
X1.1988Y-2.124
X1.1988Y-2.5177
X1.1988Y-2.5965
X1.2413Y-2.6705
X1.2413Y-2.7705
X1.2776Y-0.5492
X1.2776Y-1.1004
X1.2776Y-1.1791
X1.2776Y-1.2579
X1.2776Y-1.3366
X1.2776Y-1.8878
X1.2776Y-1.9665
X1.2776Y-2.0453
X1.2776Y-2.5965
X1.3413Y-2.6705
X1.3413Y-2.7705
X1.3563Y-1.1004
X1.3563Y-1.1791
X1.3563Y-1.2579
X1.3563Y-1.8878
X1.3563Y-1.9665
X1.3563Y-2.0453
X1.435Y-1.1004
X1.435Y-1.1791
X1.435Y-1.2579
X1.435Y-1.8878
X1.435Y-1.9665
X1.435Y-2.0453
X1.4413Y-2.6705
X1.4413Y-2.7705
X1.5138Y-0.5492
X1.5138Y-1.1004
X1.5138Y-1.1791
X1.5138Y-1.2579
X1.5138Y-1.8878
X1.5138Y-1.9665
X1.5138Y-2.0453
X1.5138Y-2.5965
X1.5413Y-2.6705
X1.5413Y-2.7705
X1.5925Y-0.5492
X1.5925Y-1.0217
X1.5925Y-1.1004
X1.5925Y-1.1791
X1.5925Y-1.2579
X1.5925Y-1.3366
X1.5925Y-1.8091
X1.5925Y-1.8878
X1.5925Y-1.9665
X1.5925Y-2.0453
X1.5925Y-2.124
X1.5925Y-2.5965
X1.6413Y-2.6705
X1.6713Y-0.5492
X1.6713Y-0.628
X1.6713Y-0.7067
X1.6713Y-0.7854
X1.6713Y-0.8642
X1.6713Y-0.9429
X1.6713Y-1.0217
X1.6713Y-1.1004
X1.6713Y-1.1791
X1.6713Y-1.2579
X1.6713Y-1.3366
X1.6713Y-1.4154
X1.6713Y-1.4941
X1.6713Y-1.5728
X1.6713Y-1.6516
X1.6713Y-1.7303
X1.6713Y-1.8091
X1.6713Y-1.8878
X1.6713Y-1.9665
X1.6713Y-2.0453
X1.6713Y-2.124
X1.6713Y-2.2028
X1.6713Y-2.2815
X1.6713Y-2.3602
X1.6713Y-2.439
X1.6713Y-2.5177
X1.6713Y-2.5965
X1.75Y-0.5492
X1.75Y-0.628
X1.75Y-0.7067
X1.75Y-0.7854
X1.75Y-0.8642
X1.75Y-0.9429
X1.75Y-1.0217
X1.75Y-1.1004
X1.75Y-1.1791
X1.75Y-1.2579
X1.75Y-1.3366
X1.75Y-1.4154
X1.75Y-1.4941
X1.75Y-1.5728
X1.75Y-1.6516
X1.75Y-1.7303
X1.75Y-1.8091
X1.75Y-1.8878
X1.75Y-1.9665
X1.75Y-2.0453
X1.75Y-2.124
X1.75Y-2.2028
X1.75Y-2.2815
X1.75Y-2.3602
X1.8287Y-0.5492
X1.8287Y-0.628
X1.8287Y-0.7067
X1.8287Y-0.7854
X1.8287Y-0.8642
X1.8287Y-0.9429
X1.8287Y-1.0217
X1.8287Y-1.1004
X1.8287Y-1.1791
X1.8287Y-1.2579
X1.8287Y-1.3366
X1.8287Y-1.4154
X1.8287Y-1.4941
X1.8287Y-1.5728
X1.8287Y-1.6516
X1.8287Y-1.7303
X1.8287Y-1.8091
X1.8287Y-1.8878
X1.8287Y-1.9665
X1.8287Y-2.0453
X1.8287Y-2.124
X1.8287Y-2.2028
X1.8287Y-2.2815
X1.8287Y-2.3602
X1.8996Y-2.6969
X1.9075Y-0.5492
X1.9075Y-0.628
X1.9075Y-0.7067
X1.9075Y-0.7854
X1.9075Y-0.8642
X1.9075Y-0.9429
X1.9075Y-1.0217
X1.9075Y-1.1004
X1.9075Y-1.1791
X1.9075Y-1.2579
X1.9075Y-1.3366
X1.9075Y-1.4154
X1.9075Y-1.4941
X1.9075Y-1.5728
X1.9075Y-1.6516
X1.9075Y-1.7303
X1.9075Y-1.8091
X1.9075Y-1.8878
X1.9075Y-1.9665
X1.9075Y-2.0453
X1.9075Y-2.124
X1.9075Y-2.2028
X1.9075Y-2.2815
X1.9075Y-2.3602
X1.9075Y-2.439
X1.9075Y-2.5177
X1.939Y-2.8504
X1.9459Y-2.7362
X1.9862Y-0.7854
X1.9862Y-0.8642
X1.9862Y-1.1004
X1.9862Y-1.1791
X1.9862Y-1.4941
X1.9862Y-1.8091
X1.9862Y-1.8878
X1.9862Y-2.124
X1.9862Y-2.2028
X2.0472Y-0.7776
X2.0472Y-1.122
X2.0472Y-1.4665
X2.0472Y-1.811
X2.0472Y-2.1555
X2.0472Y-2.4902
X2.1437Y-0.7854
X2.1437Y-0.8642
X2.1437Y-1.1004
X2.1437Y-1.1791
X2.1437Y-1.4941
X2.1437Y-1.8091
X2.1437Y-1.8878
X2.1437Y-2.124
X2.1437Y-2.2028
X2.2224Y-0.7854
X2.2224Y-0.8642
X2.2224Y-1.1004
X2.2224Y-1.1791
X2.2224Y-1.4941
X2.2224Y-1.8091
X2.2224Y-1.8878
X2.2224Y-2.124
X2.2224Y-2.2028
X2.3012Y-0.5492
X2.3012Y-0.628
X2.3012Y-0.7067
X2.3012Y-0.7854
X2.3012Y-0.8642
X2.3012Y-0.9429
X2.3012Y-1.0217
X2.3012Y-1.1004
X2.3012Y-1.1791
X2.3012Y-1.2579
X2.3012Y-1.3366
X2.3012Y-1.4154
X2.3012Y-1.4941
X2.3012Y-1.5728
X2.3012Y-1.6516
X2.3012Y-1.7303
X2.3012Y-1.8091
X2.3012Y-1.8878
X2.3012Y-1.9665
X2.3012Y-2.0453
X2.3012Y-2.124
X2.3012Y-2.2028
X2.3012Y-2.2815
X2.3012Y-2.3602
X2.3031Y-2.5591
X2.3413Y-2.6705
X2.3413Y-2.7705
X2.3622Y-2.5984
X2.3799Y-0.5492
X2.3799Y-0.628
X2.3799Y-0.7067
X2.3799Y-0.7854
X2.3799Y-0.8642
X2.3799Y-0.9429
X2.3799Y-1.0217
X2.3799Y-1.1004
X2.3799Y-1.1791
X2.3799Y-1.2579
X2.3799Y-1.3366
X2.3799Y-1.4154
X2.3799Y-1.4941
X2.3799Y-1.5728
X2.3799Y-1.6516
X2.3799Y-1.7303
X2.3799Y-1.8091
X2.3799Y-1.8878
X2.3799Y-1.9665
X2.3799Y-2.0453
X2.3799Y-2.124
X2.3799Y-2.2028
X2.3799Y-2.2815
X2.3799Y-2.3602
X2.4213Y-2.5591
X2.4413Y-2.6705
X2.4413Y-2.7705
X2.4587Y-0.5492
X2.4587Y-0.628
X2.4587Y-0.7067
X2.4587Y-0.7854
X2.4587Y-0.8642
X2.4587Y-0.9429
X2.4587Y-1.0217
X2.4587Y-1.1004
X2.4587Y-1.1791
X2.4587Y-1.2579
X2.4587Y-1.3366
X2.4587Y-1.4154
X2.4587Y-1.4941
X2.4587Y-1.5728
X2.4587Y-1.6516
X2.4587Y-1.7303
X2.4587Y-1.8091
X2.4587Y-1.8878
X2.4587Y-1.9665
X2.4587Y-2.0453
X2.4587Y-2.124
X2.4587Y-2.2028
X2.4587Y-2.2815
X2.4587Y-2.3602
X2.4587Y-2.439
X2.5374Y-0.5492
X2.5374Y-0.628
X2.5374Y-0.7067
X2.5374Y-0.7854
X2.5374Y-0.8642
X2.5374Y-0.9429
X2.5374Y-1.0217
X2.5374Y-1.1004
X2.5374Y-1.1791
X2.5374Y-1.2579
X2.5374Y-1.3366
X2.5374Y-1.4154
X2.5374Y-1.4941
X2.5374Y-1.5728
X2.5374Y-1.6516
X2.5374Y-1.7303
X2.5374Y-1.8091
X2.5374Y-1.8878
X2.5374Y-1.9665
X2.5374Y-2.0453
X2.5374Y-2.124
X2.5374Y-2.2028
X2.5374Y-2.2815
X2.5374Y-2.3602
X2.5374Y-2.439
X2.5374Y-2.5177
X2.5374Y-2.5965
X2.5413Y-2.6705
X2.5413Y-2.7705
X2.6161Y-0.5492
X2.6161Y-0.7854
X2.6161Y-0.9429
X2.6161Y-1.0217
X2.6161Y-1.1004
X2.6161Y-1.1791
X2.6161Y-1.4154
X2.6161Y-1.5728
X2.6161Y-1.6516
X2.6161Y-1.7303
X2.6161Y-1.8091
X2.6161Y-1.8878
X2.6161Y-1.9665
X2.6161Y-2.0453
X2.6161Y-2.124
X2.6161Y-2.2028
X2.6161Y-2.2815
X2.6161Y-2.3602
X2.6161Y-2.439
X2.6161Y-2.5177
X2.6161Y-2.5965
X2.6413Y-2.7705
X2.6949Y-0.5492
X2.6949Y-0.7854
X2.6949Y-1.0217
X2.6949Y-1.1004
X2.6949Y-1.1791
X2.6949Y-1.5728
X2.6949Y-1.6516
X2.6949Y-1.7303
X2.6949Y-1.9665
X2.6949Y-2.2028
X2.6949Y-2.2815
X2.6949Y-2.3602
X2.7413Y-2.7705
X2.7736Y-0.5492
X2.7736Y-0.628
X2.7736Y-0.7067
X2.7736Y-0.7854
X2.7736Y-0.8642
X2.7736Y-0.9429
X2.7736Y-1.0217
X2.7736Y-1.1004
X2.7736Y-1.1791
X2.7736Y-1.2579
X2.7736Y-1.3366
X2.7736Y-1.4154
X2.7736Y-1.4941
X2.7736Y-1.5728
X2.7736Y-1.6516
X2.7736Y-1.7303
X2.7736Y-1.8091
X2.7736Y-1.8878
X2.7736Y-1.9665
X2.7736Y-2.0453
X2.7736Y-2.124
X2.7736Y-2.2028
X2.7736Y-2.2815
X2.7736Y-2.3602
X2.7736Y-2.439
X2.7736Y-2.5177
X2.7736Y-2.5965
X2.8413Y-2.6705
X2.8413Y-2.7705
X2.8524Y-0.5492
X2.8524Y-0.628
X2.8524Y-0.7067
X2.8524Y-0.7854
X2.8524Y-0.8642
X2.8524Y-0.9429
X2.8524Y-1.0217
X2.8524Y-1.1004
X2.8524Y-1.1791
X2.8524Y-1.2579
X2.8524Y-1.3366
X2.8524Y-1.4154
X2.8524Y-1.4941
X2.8524Y-1.5728
X2.8524Y-1.6516
X2.8524Y-1.7303
X2.8524Y-1.8091
X2.8524Y-1.8878
X2.8524Y-1.9665
X2.8524Y-2.0453
X2.8524Y-2.124
X2.8524Y-2.2028
X2.8524Y-2.2815
X2.8524Y-2.3602
X2.8524Y-2.439
X2.8524Y-2.5177
X2.8524Y-2.5965
X2.9311Y-0.5492
X2.9311Y-0.628
X2.9311Y-0.7067
X2.9311Y-0.7854
X2.9311Y-0.8642
X2.9311Y-0.9429
X2.9311Y-1.0217
X2.9311Y-1.1004
X2.9311Y-1.1791
X2.9311Y-1.2579
X2.9311Y-1.3366
X2.9311Y-1.4154
X2.9311Y-1.4941
X2.9311Y-1.5728
X2.9311Y-1.6516
X2.9311Y-1.7303
X2.9311Y-1.8091
X2.9311Y-1.8878
X2.9311Y-1.9665
X2.9311Y-2.0453
X2.9311Y-2.124
X2.9311Y-2.2028
X2.9311Y-2.2815
X2.9311Y-2.3602
X2.9311Y-2.439
X2.9311Y-2.5177
X2.9311Y-2.5965
X2.9413Y-2.6705
X2.9413Y-2.7705
X3.0098Y-0.5492
X3.0098Y-0.628
X3.0098Y-0.7067
X3.0098Y-0.7854
X3.0098Y-0.8642
X3.0098Y-0.9429
X3.0098Y-1.0217
X3.0098Y-1.1004
X3.0098Y-1.1791
X3.0098Y-1.2579
X3.0098Y-1.3366
X3.0098Y-1.4154
X3.0098Y-1.4941
X3.0098Y-1.5728
X3.0098Y-1.6516
X3.0098Y-1.7303
X3.0098Y-1.8091
X3.0098Y-1.8878
X3.0098Y-1.9665
X3.0098Y-2.0453
X3.0098Y-2.124
X3.0098Y-2.2028
X3.0098Y-2.2815
X3.0098Y-2.3602
X3.0098Y-2.439
X3.0098Y-2.5177
X3.0098Y-2.5965
X3.0413Y-2.6705
X3.0413Y-2.7705
X3.0886Y-0.5492
X3.0886Y-1.0217
X3.0886Y-1.1004
X3.0886Y-1.1791
X3.0886Y-1.2579
X3.0886Y-1.3366
X3.0886Y-1.8091
X3.0886Y-1.8878
X3.0886Y-1.9665
X3.0886Y-2.0453
X3.0886Y-2.124
X3.0886Y-2.5965
X3.1413Y-2.6705
X3.1413Y-2.7705
X3.1673Y-0.5492
X3.1673Y-1.1004
X3.1673Y-1.1791
X3.1673Y-1.2579
X3.1673Y-1.3287
X3.1673Y-1.8878
X3.1673Y-1.9665
X3.1673Y-2.0453
X3.1673Y-2.1161
X3.2413Y-2.6705
X3.2413Y-2.7705
X3.2461Y-1.1004
X3.2461Y-1.1791
X3.2461Y-1.2579
X3.2461Y-1.8878
X3.2461Y-1.9665
X3.2461Y-2.0453
X3.3248Y-1.1004
X3.3248Y-1.1791
X3.3248Y-1.2579
X3.3248Y-1.8878
X3.3248Y-1.9665
X3.3248Y-2.0453
X3.3413Y-2.6705
X3.3413Y-2.7705
X3.4035Y-0.5413
X3.4035Y-1.1004
X3.4035Y-1.1791
X3.4035Y-1.2579
X3.4035Y-1.3287
X3.4035Y-1.8878
X3.4035Y-1.9665
X3.4035Y-2.0453
X3.4035Y-2.1161
X3.4413Y-2.6705
X3.4413Y-2.7705
X3.4823Y-0.5492
X3.4823Y-1.0217
X3.4823Y-1.1004
X3.4823Y-1.1791
X3.4823Y-1.2579
X3.4823Y-1.3366
X3.4823Y-1.8091
X3.4823Y-1.8878
X3.4823Y-1.9665
X3.4823Y-2.0453
X3.4823Y-2.124
X3.4823Y-2.5965
X3.561Y-0.5413
X3.561Y-0.6201
X3.561Y-0.6988
X3.561Y-0.7776
X3.561Y-0.8563
X3.561Y-0.935
X3.561Y-1.0138
X3.561Y-1.0925
X3.561Y-1.1713
X3.561Y-1.25
X3.561Y-1.3287
X3.561Y-1.4075
X3.561Y-1.4862
X3.561Y-1.565
X3.561Y-1.6437
X3.561Y-1.7224
X3.561Y-1.8012
X3.561Y-1.8799
X3.561Y-1.9587
X3.561Y-2.0374
X3.561Y-2.1161
X3.561Y-2.1949
X3.561Y-2.2736
X3.561Y-2.3524
X3.561Y-2.4311
X3.561Y-2.5098
X3.561Y-2.5886
T2
X1.6106Y-2.8169
X1.7106Y-2.8169
X1.8106Y-2.8169
T3
X2.6772Y-0.6762
X2.6772Y-0.8731
X2.6837Y-1.2668
X2.6837Y-1.4636
X2.6903Y-2.4479
X2.6903Y-2.6447
X2.6969Y-1.8573
X2.6969Y-2.0542
T4
X1.4094Y-0.8071
X1.4094Y-1.5787
X1.4094Y-2.3465
X3.2874Y-0.7913
X3.2874Y-1.5768
X3.2874Y-2.3622
M30
