%TF.GenerationSoftware,KiCad,Pcbnew,8.0.6*%
%TF.CreationDate,2024-11-03T21:02:27+01:00*%
%TF.ProjectId,RP_MPQ5850_Test,52505f4d-5051-4353-9835-305f54657374,rev?*%
%TF.SameCoordinates,Original*%
%TF.FileFunction,Drillmap*%
%TF.FilePolarity,Positive*%
%FSLAX45Y45*%
G04 Gerber Fmt 4.5, Leading zero omitted, Abs format (unit mm)*
G04 Created by KiCad (PCBNEW 8.0.6) date 2024-11-03 21:02:27*
%MOMM*%
%LPD*%
G01*
G04 APERTURE LIST*
%ADD10C,0.100000*%
%ADD11C,0.200000*%
G04 APERTURE END LIST*
D10*
X2650000Y-1200000D02*
X9215000Y-1200000D01*
X9215000Y-7350000D01*
X2650000Y-7350000D01*
X2650000Y-1200000D01*
D11*
X2905777Y-7666484D02*
X2905777Y-7466484D01*
X2905777Y-7466484D02*
X2953396Y-7466484D01*
X2953396Y-7466484D02*
X2981967Y-7476008D01*
X2981967Y-7476008D02*
X3001015Y-7495055D01*
X3001015Y-7495055D02*
X3010539Y-7514103D01*
X3010539Y-7514103D02*
X3020062Y-7552198D01*
X3020062Y-7552198D02*
X3020062Y-7580769D01*
X3020062Y-7580769D02*
X3010539Y-7618865D01*
X3010539Y-7618865D02*
X3001015Y-7637912D01*
X3001015Y-7637912D02*
X2981967Y-7656960D01*
X2981967Y-7656960D02*
X2953396Y-7666484D01*
X2953396Y-7666484D02*
X2905777Y-7666484D01*
X3105777Y-7666484D02*
X3105777Y-7533150D01*
X3105777Y-7571246D02*
X3115301Y-7552198D01*
X3115301Y-7552198D02*
X3124824Y-7542674D01*
X3124824Y-7542674D02*
X3143872Y-7533150D01*
X3143872Y-7533150D02*
X3162920Y-7533150D01*
X3229586Y-7666484D02*
X3229586Y-7533150D01*
X3229586Y-7466484D02*
X3220062Y-7476008D01*
X3220062Y-7476008D02*
X3229586Y-7485531D01*
X3229586Y-7485531D02*
X3239110Y-7476008D01*
X3239110Y-7476008D02*
X3229586Y-7466484D01*
X3229586Y-7466484D02*
X3229586Y-7485531D01*
X3353396Y-7666484D02*
X3334348Y-7656960D01*
X3334348Y-7656960D02*
X3324824Y-7637912D01*
X3324824Y-7637912D02*
X3324824Y-7466484D01*
X3458158Y-7666484D02*
X3439110Y-7656960D01*
X3439110Y-7656960D02*
X3429586Y-7637912D01*
X3429586Y-7637912D02*
X3429586Y-7466484D01*
X3686729Y-7666484D02*
X3686729Y-7466484D01*
X3686729Y-7466484D02*
X3753396Y-7609341D01*
X3753396Y-7609341D02*
X3820062Y-7466484D01*
X3820062Y-7466484D02*
X3820062Y-7666484D01*
X4001015Y-7666484D02*
X4001015Y-7561722D01*
X4001015Y-7561722D02*
X3991491Y-7542674D01*
X3991491Y-7542674D02*
X3972443Y-7533150D01*
X3972443Y-7533150D02*
X3934348Y-7533150D01*
X3934348Y-7533150D02*
X3915301Y-7542674D01*
X4001015Y-7656960D02*
X3981967Y-7666484D01*
X3981967Y-7666484D02*
X3934348Y-7666484D01*
X3934348Y-7666484D02*
X3915301Y-7656960D01*
X3915301Y-7656960D02*
X3905777Y-7637912D01*
X3905777Y-7637912D02*
X3905777Y-7618865D01*
X3905777Y-7618865D02*
X3915301Y-7599817D01*
X3915301Y-7599817D02*
X3934348Y-7590293D01*
X3934348Y-7590293D02*
X3981967Y-7590293D01*
X3981967Y-7590293D02*
X4001015Y-7580769D01*
X4096253Y-7533150D02*
X4096253Y-7733150D01*
X4096253Y-7542674D02*
X4115301Y-7533150D01*
X4115301Y-7533150D02*
X4153396Y-7533150D01*
X4153396Y-7533150D02*
X4172443Y-7542674D01*
X4172443Y-7542674D02*
X4181967Y-7552198D01*
X4181967Y-7552198D02*
X4191491Y-7571246D01*
X4191491Y-7571246D02*
X4191491Y-7628388D01*
X4191491Y-7628388D02*
X4181967Y-7647436D01*
X4181967Y-7647436D02*
X4172443Y-7656960D01*
X4172443Y-7656960D02*
X4153396Y-7666484D01*
X4153396Y-7666484D02*
X4115301Y-7666484D01*
X4115301Y-7666484D02*
X4096253Y-7656960D01*
X4277205Y-7647436D02*
X4286729Y-7656960D01*
X4286729Y-7656960D02*
X4277205Y-7666484D01*
X4277205Y-7666484D02*
X4267682Y-7656960D01*
X4267682Y-7656960D02*
X4277205Y-7647436D01*
X4277205Y-7647436D02*
X4277205Y-7666484D01*
X4277205Y-7542674D02*
X4286729Y-7552198D01*
X4286729Y-7552198D02*
X4277205Y-7561722D01*
X4277205Y-7561722D02*
X4267682Y-7552198D01*
X4267682Y-7552198D02*
X4277205Y-7542674D01*
X4277205Y-7542674D02*
X4277205Y-7561722D01*
M02*
