%TF.GenerationSoftware,KiCad,Pcbnew,8.0.6*%
%TF.CreationDate,2024-11-03T21:02:29+01:00*%
%TF.ProjectId,RP_MPQ5850_Test,52505f4d-5051-4353-9835-305f54657374,rev?*%
%TF.SameCoordinates,Original*%
%TF.FileFunction,Soldermask,Top*%
%TF.FilePolarity,Negative*%
%FSLAX46Y46*%
G04 Gerber Fmt 4.6, Leading zero omitted, Abs format (unit mm)*
G04 Created by KiCad (PCBNEW 8.0.6) date 2024-11-03 21:02:29*
%MOMM*%
%LPD*%
G01*
G04 APERTURE LIST*
G04 Aperture macros list*
%AMRoundRect*
0 Rectangle with rounded corners*
0 $1 Rounding radius*
0 $2 $3 $4 $5 $6 $7 $8 $9 X,Y pos of 4 corners*
0 Add a 4 corners polygon primitive as box body*
4,1,4,$2,$3,$4,$5,$6,$7,$8,$9,$2,$3,0*
0 Add four circle primitives for the rounded corners*
1,1,$1+$1,$2,$3*
1,1,$1+$1,$4,$5*
1,1,$1+$1,$6,$7*
1,1,$1+$1,$8,$9*
0 Add four rect primitives between the rounded corners*
20,1,$1+$1,$2,$3,$4,$5,0*
20,1,$1+$1,$4,$5,$6,$7,0*
20,1,$1+$1,$6,$7,$8,$9,0*
20,1,$1+$1,$8,$9,$2,$3,0*%
G04 Aperture macros list end*
%ADD10C,0.000000*%
%ADD11R,2.850000X0.549000*%
%ADD12R,3.800180X0.712130*%
%ADD13R,3.800180X0.516000*%
%ADD14R,3.800180X0.531870*%
%ADD15R,0.400000X0.532870*%
%ADD16R,0.399550X0.516000*%
%ADD17R,0.410000X0.770000*%
%ADD18R,0.410000X0.491130*%
%ADD19R,0.500000X1.200000*%
%ADD20RoundRect,0.135000X-0.185000X0.135000X-0.185000X-0.135000X0.185000X-0.135000X0.185000X0.135000X0*%
%ADD21RoundRect,0.250000X-0.625000X0.375000X-0.625000X-0.375000X0.625000X-0.375000X0.625000X0.375000X0*%
%ADD22R,0.450000X1.150000*%
%ADD23R,1.700000X1.700000*%
%ADD24O,1.700000X1.700000*%
%ADD25C,6.400000*%
%ADD26C,12.000000*%
%ADD27R,2.400000X2.400000*%
%ADD28C,2.400000*%
%ADD29RoundRect,0.250000X0.900000X-1.000000X0.900000X1.000000X-0.900000X1.000000X-0.900000X-1.000000X0*%
%ADD30RoundRect,0.218750X-0.256250X0.218750X-0.256250X-0.218750X0.256250X-0.218750X0.256250X0.218750X0*%
%ADD31RoundRect,0.243750X0.243750X0.456250X-0.243750X0.456250X-0.243750X-0.456250X0.243750X-0.456250X0*%
%ADD32R,0.900000X1.000000*%
%ADD33RoundRect,0.135000X0.185000X-0.135000X0.185000X0.135000X-0.185000X0.135000X-0.185000X-0.135000X0*%
G04 APERTURE END LIST*
D10*
%TO.C,Q3*%
G36*
X50504800Y-44503560D02*
G01*
X49604800Y-44503560D01*
X49604800Y-44003550D01*
X50084800Y-44003550D01*
X50084800Y-43233560D01*
X49604800Y-43233560D01*
X49604800Y-42733550D01*
X50084800Y-42733550D01*
X50084800Y-41963560D01*
X49604800Y-41963560D01*
X49604800Y-41463550D01*
X50084800Y-41463550D01*
X50084800Y-40693560D01*
X49604800Y-40693560D01*
X49604800Y-40193550D01*
X50504800Y-40193550D01*
X50504800Y-44503560D01*
G37*
G36*
X56104800Y-40694130D02*
G01*
X55372760Y-40694130D01*
X55372760Y-41464130D01*
X56104800Y-41464130D01*
X56104800Y-41964130D01*
X55372760Y-41964130D01*
X55372760Y-42734130D01*
X56104800Y-42734130D01*
X56104800Y-43234130D01*
X55372980Y-43234130D01*
X55372980Y-44004130D01*
X56104750Y-44004130D01*
X56104800Y-44004130D01*
X56104800Y-44504130D01*
X52754800Y-44504130D01*
X52754800Y-43454130D01*
X51804800Y-43454130D01*
X51804800Y-40194130D01*
X56104800Y-40194130D01*
X56104800Y-40694130D01*
G37*
%TO.C,Q1*%
G36*
X50504800Y-62007560D02*
G01*
X49604800Y-62007560D01*
X49604800Y-61507550D01*
X50084800Y-61507550D01*
X50084800Y-60737560D01*
X49604800Y-60737560D01*
X49604800Y-60237550D01*
X50084800Y-60237550D01*
X50084800Y-59467560D01*
X49604800Y-59467560D01*
X49604800Y-58967550D01*
X50084800Y-58967550D01*
X50084800Y-58197560D01*
X49604800Y-58197560D01*
X49604800Y-57697550D01*
X50504800Y-57697550D01*
X50504800Y-62007560D01*
G37*
G36*
X56104800Y-58198130D02*
G01*
X55372760Y-58198130D01*
X55372760Y-58968130D01*
X56104800Y-58968130D01*
X56104800Y-59468130D01*
X55372760Y-59468130D01*
X55372760Y-60238130D01*
X56104800Y-60238130D01*
X56104800Y-60738130D01*
X55372980Y-60738130D01*
X55372980Y-61508130D01*
X56104750Y-61508130D01*
X56104800Y-61508130D01*
X56104800Y-62008130D01*
X52754800Y-62008130D01*
X52754800Y-60958130D01*
X51804800Y-60958130D01*
X51804800Y-57698130D01*
X56104800Y-57698130D01*
X56104800Y-58198130D01*
G37*
%TO.C,Q5*%
G36*
X50504800Y-26999560D02*
G01*
X49604800Y-26999560D01*
X49604800Y-26499550D01*
X50084800Y-26499550D01*
X50084800Y-25729560D01*
X49604800Y-25729560D01*
X49604800Y-25229550D01*
X50084800Y-25229550D01*
X50084800Y-24459560D01*
X49604800Y-24459560D01*
X49604800Y-23959550D01*
X50084800Y-23959550D01*
X50084800Y-23189560D01*
X49604800Y-23189560D01*
X49604800Y-22689550D01*
X50504800Y-22689550D01*
X50504800Y-26999560D01*
G37*
G36*
X56104800Y-23190130D02*
G01*
X55372760Y-23190130D01*
X55372760Y-23960130D01*
X56104800Y-23960130D01*
X56104800Y-24460130D01*
X55372760Y-24460130D01*
X55372760Y-25230130D01*
X56104800Y-25230130D01*
X56104800Y-25730130D01*
X55372980Y-25730130D01*
X55372980Y-26500130D01*
X56104750Y-26500130D01*
X56104800Y-26500130D01*
X56104800Y-27000130D01*
X52754800Y-27000130D01*
X52754800Y-25950130D01*
X51804800Y-25950130D01*
X51804800Y-22690130D01*
X56104800Y-22690130D01*
X56104800Y-23190130D01*
G37*
%TO.C,Q4*%
G36*
X50504800Y-35751560D02*
G01*
X49604800Y-35751560D01*
X49604800Y-35251550D01*
X50084800Y-35251550D01*
X50084800Y-34481560D01*
X49604800Y-34481560D01*
X49604800Y-33981550D01*
X50084800Y-33981550D01*
X50084800Y-33211560D01*
X49604800Y-33211560D01*
X49604800Y-32711550D01*
X50084800Y-32711550D01*
X50084800Y-31941560D01*
X49604800Y-31941560D01*
X49604800Y-31441550D01*
X50504800Y-31441550D01*
X50504800Y-35751560D01*
G37*
G36*
X56104800Y-31942130D02*
G01*
X55372760Y-31942130D01*
X55372760Y-32712130D01*
X56104800Y-32712130D01*
X56104800Y-33212130D01*
X55372760Y-33212130D01*
X55372760Y-33982130D01*
X56104800Y-33982130D01*
X56104800Y-34482130D01*
X55372980Y-34482130D01*
X55372980Y-35252130D01*
X56104750Y-35252130D01*
X56104800Y-35252130D01*
X56104800Y-35752130D01*
X52754800Y-35752130D01*
X52754800Y-34702130D01*
X51804800Y-34702130D01*
X51804800Y-31442130D01*
X56104800Y-31442130D01*
X56104800Y-31942130D01*
G37*
%TO.C,Q2*%
G36*
X50504800Y-53255560D02*
G01*
X49604800Y-53255560D01*
X49604800Y-52755550D01*
X50084800Y-52755550D01*
X50084800Y-51985560D01*
X49604800Y-51985560D01*
X49604800Y-51485550D01*
X50084800Y-51485550D01*
X50084800Y-50715560D01*
X49604800Y-50715560D01*
X49604800Y-50215550D01*
X50084800Y-50215550D01*
X50084800Y-49445560D01*
X49604800Y-49445560D01*
X49604800Y-48945550D01*
X50504800Y-48945550D01*
X50504800Y-53255560D01*
G37*
G36*
X56104800Y-49446130D02*
G01*
X55372760Y-49446130D01*
X55372760Y-50216130D01*
X56104800Y-50216130D01*
X56104800Y-50716130D01*
X55372760Y-50716130D01*
X55372760Y-51486130D01*
X56104800Y-51486130D01*
X56104800Y-51986130D01*
X55372980Y-51986130D01*
X55372980Y-52756130D01*
X56104750Y-52756130D01*
X56104800Y-52756130D01*
X56104800Y-53256130D01*
X52754800Y-53256130D01*
X52754800Y-52206130D01*
X51804800Y-52206130D01*
X51804800Y-48946130D01*
X56104800Y-48946130D01*
X56104800Y-49446130D01*
G37*
%TO.C,Q6*%
G36*
X50504800Y-18247560D02*
G01*
X49604800Y-18247560D01*
X49604800Y-17747550D01*
X50084800Y-17747550D01*
X50084800Y-16977560D01*
X49604800Y-16977560D01*
X49604800Y-16477550D01*
X50084800Y-16477550D01*
X50084800Y-15707560D01*
X49604800Y-15707560D01*
X49604800Y-15207550D01*
X50084800Y-15207550D01*
X50084800Y-14437560D01*
X49604800Y-14437560D01*
X49604800Y-13937550D01*
X50504800Y-13937550D01*
X50504800Y-18247560D01*
G37*
G36*
X56104800Y-14438130D02*
G01*
X55372760Y-14438130D01*
X55372760Y-15208130D01*
X56104800Y-15208130D01*
X56104800Y-15708130D01*
X55372760Y-15708130D01*
X55372760Y-16478130D01*
X56104800Y-16478130D01*
X56104800Y-16978130D01*
X55372980Y-16978130D01*
X55372980Y-17748130D01*
X56104750Y-17748130D01*
X56104800Y-17748130D01*
X56104800Y-18248130D01*
X52754800Y-18248130D01*
X52754800Y-17198130D01*
X51804800Y-17198130D01*
X51804800Y-13938130D01*
X56104800Y-13938130D01*
X56104800Y-14438130D01*
G37*
%TD*%
D11*
%TO.C,Q3*%
X54429980Y-43978630D03*
D12*
X53954890Y-42848065D03*
D13*
X53954890Y-41734000D03*
D14*
X53954890Y-40710065D03*
D15*
X50055430Y-40709565D03*
D16*
X50055205Y-41734000D03*
D17*
X50049980Y-42877000D03*
D18*
X50049980Y-44007565D03*
D19*
X52104530Y-44548880D03*
%TD*%
D20*
%TO.C,R2*%
X52025000Y-64390000D03*
X52025000Y-65410000D03*
%TD*%
D21*
%TO.C,C3*%
X60000000Y-62100000D03*
X60000000Y-64900000D03*
%TD*%
D22*
%TO.C,IC1*%
X51350000Y-69700000D03*
X52000000Y-69700000D03*
X52650000Y-69700000D03*
X53300000Y-69700000D03*
X53300000Y-67100000D03*
X52650000Y-67100000D03*
X52000000Y-67100000D03*
X51350000Y-67100000D03*
%TD*%
D23*
%TO.C,J1*%
X40910000Y-71550000D03*
D24*
X43450000Y-71550000D03*
X45990000Y-71550000D03*
%TD*%
D11*
%TO.C,Q1*%
X54429980Y-61482630D03*
D12*
X53954890Y-60352065D03*
D13*
X53954890Y-59238000D03*
D14*
X53954890Y-58214065D03*
D15*
X50055430Y-58213565D03*
D16*
X50055205Y-59238000D03*
D17*
X50049980Y-60381000D03*
D18*
X50049980Y-61511565D03*
D19*
X52104530Y-62052880D03*
%TD*%
D25*
%TO.C,H1*%
X35800000Y-59600000D03*
D26*
X35800000Y-59600000D03*
%TD*%
D11*
%TO.C,Q5*%
X54429980Y-26474630D03*
D12*
X53954890Y-25344065D03*
D13*
X53954890Y-24230000D03*
D14*
X53954890Y-23206065D03*
D15*
X50055430Y-23205565D03*
D16*
X50055205Y-24230000D03*
D17*
X50049980Y-25373000D03*
D18*
X50049980Y-26503565D03*
D19*
X52104530Y-27044880D03*
%TD*%
D27*
%TO.C,C7*%
X68499998Y-47176041D03*
D28*
X68499998Y-52176041D03*
%TD*%
D29*
%TO.C,D1*%
X45000000Y-67950000D03*
X45000000Y-63650000D03*
%TD*%
D30*
%TO.C,C1*%
X49425000Y-67012500D03*
X49425000Y-68587500D03*
%TD*%
D31*
%TO.C,C2*%
X57162500Y-67200000D03*
X55287500Y-67200000D03*
%TD*%
D11*
%TO.C,Q4*%
X54429980Y-35226630D03*
D12*
X53954890Y-34096065D03*
D13*
X53954890Y-32982000D03*
D14*
X53954890Y-31958065D03*
D15*
X50055430Y-31957565D03*
D16*
X50055205Y-32982000D03*
D17*
X50049980Y-34125000D03*
D18*
X50049980Y-35255565D03*
D19*
X52104530Y-35796880D03*
%TD*%
D32*
%TO.C,L1*%
X57300000Y-70100000D03*
X55600000Y-70100000D03*
%TD*%
D25*
%TO.C,H5*%
X35800000Y-40100000D03*
D26*
X35800000Y-40100000D03*
%TD*%
D33*
%TO.C,R1*%
X50825000Y-72410000D03*
X50825000Y-71390000D03*
%TD*%
D27*
%TO.C,C5*%
X68000000Y-17176041D03*
D28*
X68000000Y-22176041D03*
%TD*%
D11*
%TO.C,Q2*%
X54429980Y-52730630D03*
D12*
X53954890Y-51600065D03*
D13*
X53954890Y-50486000D03*
D14*
X53954890Y-49462065D03*
D15*
X50055430Y-49461565D03*
D16*
X50055205Y-50486000D03*
D17*
X50049980Y-51629000D03*
D18*
X50049980Y-52759565D03*
D19*
X52104530Y-53300880D03*
%TD*%
D11*
%TO.C,Q6*%
X54429980Y-17722630D03*
D12*
X53954890Y-16592065D03*
D13*
X53954890Y-15478000D03*
D14*
X53954890Y-14454065D03*
D15*
X50055430Y-14453565D03*
D16*
X50055205Y-15478000D03*
D17*
X50049980Y-16621000D03*
D18*
X50049980Y-17751565D03*
D19*
X52104530Y-18292880D03*
%TD*%
D27*
%TO.C,C6*%
X68166666Y-32176041D03*
D28*
X68166666Y-37176041D03*
%TD*%
D20*
%TO.C,R3*%
X52025000Y-71390000D03*
X52025000Y-72410000D03*
%TD*%
D27*
%TO.C,C4*%
X68333332Y-62176041D03*
D28*
X68333332Y-67176041D03*
%TD*%
D25*
%TO.C,H6*%
X83500000Y-40050000D03*
D26*
X83500000Y-40050000D03*
%TD*%
D25*
%TO.C,H3*%
X35800000Y-20500000D03*
D26*
X35800000Y-20500000D03*
%TD*%
D25*
%TO.C,H4*%
X83500000Y-20100000D03*
D26*
X83500000Y-20100000D03*
%TD*%
D25*
%TO.C,H2*%
X83500000Y-60000000D03*
D26*
X83500000Y-60000000D03*
%TD*%
M02*
