%TF.GenerationSoftware,KiCad,Pcbnew,8.0.6*%
%TF.CreationDate,2024-12-05T20:34:34+01:00*%
%TF.ProjectId,RP_MPQ5850_Test,52505f4d-5051-4353-9835-305f54657374,rev?*%
%TF.SameCoordinates,Original*%
%TF.FileFunction,Copper,L1,Top*%
%TF.FilePolarity,Positive*%
%FSLAX46Y46*%
G04 Gerber Fmt 4.6, Leading zero omitted, Abs format (unit mm)*
G04 Created by KiCad (PCBNEW 8.0.6) date 2024-12-05 20:34:34*
%MOMM*%
%LPD*%
G01*
G04 APERTURE LIST*
G04 Aperture macros list*
%AMRoundRect*
0 Rectangle with rounded corners*
0 $1 Rounding radius*
0 $2 $3 $4 $5 $6 $7 $8 $9 X,Y pos of 4 corners*
0 Add a 4 corners polygon primitive as box body*
4,1,4,$2,$3,$4,$5,$6,$7,$8,$9,$2,$3,0*
0 Add four circle primitives for the rounded corners*
1,1,$1+$1,$2,$3*
1,1,$1+$1,$4,$5*
1,1,$1+$1,$6,$7*
1,1,$1+$1,$8,$9*
0 Add four rect primitives between the rounded corners*
20,1,$1+$1,$2,$3,$4,$5,0*
20,1,$1+$1,$4,$5,$6,$7,0*
20,1,$1+$1,$6,$7,$8,$9,0*
20,1,$1+$1,$8,$9,$2,$3,0*%
G04 Aperture macros list end*
%TA.AperFunction,SMDPad,CuDef*%
%ADD10R,3.350000X1.049000*%
%TD*%
%TA.AperFunction,SMDPad,CuDef*%
%ADD11R,4.300180X1.212130*%
%TD*%
%TA.AperFunction,SMDPad,CuDef*%
%ADD12R,4.300180X1.016000*%
%TD*%
%TA.AperFunction,SMDPad,CuDef*%
%ADD13R,4.300180X1.031870*%
%TD*%
%TA.AperFunction,SMDPad,CuDef*%
%ADD14R,0.900000X1.032870*%
%TD*%
%TA.AperFunction,SMDPad,CuDef*%
%ADD15R,0.899550X1.016000*%
%TD*%
%TA.AperFunction,SMDPad,CuDef*%
%ADD16R,0.910000X1.270000*%
%TD*%
%TA.AperFunction,SMDPad,CuDef*%
%ADD17R,0.910000X0.991130*%
%TD*%
%TA.AperFunction,SMDPad,CuDef*%
%ADD18R,0.500000X1.200000*%
%TD*%
%TA.AperFunction,SMDPad,CuDef*%
%ADD19RoundRect,0.135000X-0.185000X0.135000X-0.185000X-0.135000X0.185000X-0.135000X0.185000X0.135000X0*%
%TD*%
%TA.AperFunction,SMDPad,CuDef*%
%ADD20RoundRect,0.250000X-0.625000X0.375000X-0.625000X-0.375000X0.625000X-0.375000X0.625000X0.375000X0*%
%TD*%
%TA.AperFunction,SMDPad,CuDef*%
%ADD21R,0.450000X1.150000*%
%TD*%
%TA.AperFunction,ComponentPad*%
%ADD22R,1.700000X1.700000*%
%TD*%
%TA.AperFunction,ComponentPad*%
%ADD23O,1.700000X1.700000*%
%TD*%
%TA.AperFunction,ComponentPad*%
%ADD24C,6.400000*%
%TD*%
%TA.AperFunction,ConnectorPad*%
%ADD25C,12.000000*%
%TD*%
%TA.AperFunction,ComponentPad*%
%ADD26R,2.400000X2.400000*%
%TD*%
%TA.AperFunction,ComponentPad*%
%ADD27C,2.400000*%
%TD*%
%TA.AperFunction,SMDPad,CuDef*%
%ADD28RoundRect,0.250000X0.900000X-1.000000X0.900000X1.000000X-0.900000X1.000000X-0.900000X-1.000000X0*%
%TD*%
%TA.AperFunction,SMDPad,CuDef*%
%ADD29RoundRect,0.218750X-0.256250X0.218750X-0.256250X-0.218750X0.256250X-0.218750X0.256250X0.218750X0*%
%TD*%
%TA.AperFunction,SMDPad,CuDef*%
%ADD30RoundRect,0.243750X0.243750X0.456250X-0.243750X0.456250X-0.243750X-0.456250X0.243750X-0.456250X0*%
%TD*%
%TA.AperFunction,SMDPad,CuDef*%
%ADD31R,0.900000X1.000000*%
%TD*%
%TA.AperFunction,SMDPad,CuDef*%
%ADD32RoundRect,0.135000X0.185000X-0.135000X0.185000X0.135000X-0.185000X0.135000X-0.185000X-0.135000X0*%
%TD*%
%TA.AperFunction,ViaPad*%
%ADD33C,0.800000*%
%TD*%
%TA.AperFunction,Conductor*%
%ADD34C,1.000000*%
%TD*%
%TA.AperFunction,Conductor*%
%ADD35C,0.254000*%
%TD*%
%TA.AperFunction,Conductor*%
%ADD36C,0.250000*%
%TD*%
G04 APERTURE END LIST*
D10*
%TO.P,Q3,1,SOURCE1*%
%TO.N,VOUT*%
X54429980Y-43978630D03*
D11*
%TO.P,Q3,2,SOURCE2*%
X53954890Y-42848065D03*
D12*
%TO.P,Q3,3,SOURCE3*%
X53954890Y-41734000D03*
D13*
%TO.P,Q3,4,SOURCE4*%
X53954890Y-40710065D03*
D14*
%TO.P,Q3,5,DRAIN1*%
%TO.N,VIN*%
X50055430Y-40709565D03*
D15*
%TO.P,Q3,6,DRAIN2*%
X50055205Y-41734000D03*
D16*
%TO.P,Q3,7,DRAIN3*%
X50049980Y-42877000D03*
D17*
%TO.P,Q3,8,DRAIN4*%
X50049980Y-44007565D03*
D18*
%TO.P,Q3,9,GATE*%
%TO.N,Net-(Q1-GATE)*%
X52104530Y-44548880D03*
%TD*%
D19*
%TO.P,R2,1*%
%TO.N,Net-(Q1-GATE)*%
X52025000Y-64390000D03*
%TO.P,R2,2*%
%TO.N,Net-(IC1-GATE)*%
X52025000Y-65410000D03*
%TD*%
D20*
%TO.P,C3,1*%
%TO.N,VOUT*%
X60000000Y-62100000D03*
%TO.P,C3,2*%
%TO.N,GND*%
X60000000Y-64900000D03*
%TD*%
D21*
%TO.P,IC1,1,EN/UVLO*%
%TO.N,EN*%
X51350000Y-69700000D03*
%TO.P,IC1,2,PG*%
%TO.N,PG*%
X52000000Y-69700000D03*
%TO.P,IC1,3,GND*%
%TO.N,GND*%
X52650000Y-69700000D03*
%TO.P,IC1,4,SW*%
%TO.N,Net-(IC1-SW)*%
X53300000Y-69700000D03*
%TO.P,IC1,5,RES*%
%TO.N,Net-(IC1-RES)*%
X53300000Y-67100000D03*
%TO.P,IC1,6,DRAIN*%
%TO.N,VOUT*%
X52650000Y-67100000D03*
%TO.P,IC1,7,GATE*%
%TO.N,Net-(IC1-GATE)*%
X52000000Y-67100000D03*
%TO.P,IC1,8,SOURCE*%
%TO.N,VIN*%
X51350000Y-67100000D03*
%TD*%
D22*
%TO.P,J1,1,Pin_1*%
%TO.N,PG_PULLUP*%
X40910000Y-71550000D03*
D23*
%TO.P,J1,2,Pin_2*%
%TO.N,PG*%
X43450000Y-71550000D03*
%TO.P,J1,3,Pin_3*%
%TO.N,EN*%
X45990000Y-71550000D03*
%TD*%
D10*
%TO.P,Q1,1,SOURCE1*%
%TO.N,VOUT*%
X54429980Y-61482630D03*
D11*
%TO.P,Q1,2,SOURCE2*%
X53954890Y-60352065D03*
D12*
%TO.P,Q1,3,SOURCE3*%
X53954890Y-59238000D03*
D13*
%TO.P,Q1,4,SOURCE4*%
X53954890Y-58214065D03*
D14*
%TO.P,Q1,5,DRAIN1*%
%TO.N,VIN*%
X50055430Y-58213565D03*
D15*
%TO.P,Q1,6,DRAIN2*%
X50055205Y-59238000D03*
D16*
%TO.P,Q1,7,DRAIN3*%
X50049980Y-60381000D03*
D17*
%TO.P,Q1,8,DRAIN4*%
X50049980Y-61511565D03*
D18*
%TO.P,Q1,9,GATE*%
%TO.N,Net-(Q1-GATE)*%
X52104530Y-62052880D03*
%TD*%
D24*
%TO.P,H1,1,1*%
%TO.N,VIN*%
X35800000Y-59600000D03*
D25*
X35800000Y-59600000D03*
%TD*%
D10*
%TO.P,Q5,1,SOURCE1*%
%TO.N,VOUT*%
X54429980Y-26474630D03*
D11*
%TO.P,Q5,2,SOURCE2*%
X53954890Y-25344065D03*
D12*
%TO.P,Q5,3,SOURCE3*%
X53954890Y-24230000D03*
D13*
%TO.P,Q5,4,SOURCE4*%
X53954890Y-23206065D03*
D14*
%TO.P,Q5,5,DRAIN1*%
%TO.N,VIN*%
X50055430Y-23205565D03*
D15*
%TO.P,Q5,6,DRAIN2*%
X50055205Y-24230000D03*
D16*
%TO.P,Q5,7,DRAIN3*%
X50049980Y-25373000D03*
D17*
%TO.P,Q5,8,DRAIN4*%
X50049980Y-26503565D03*
D18*
%TO.P,Q5,9,GATE*%
%TO.N,Net-(Q1-GATE)*%
X52104530Y-27044880D03*
%TD*%
D26*
%TO.P,C7,1*%
%TO.N,VOUT*%
X68499998Y-47176041D03*
D27*
%TO.P,C7,2*%
%TO.N,GND*%
X68499998Y-52176041D03*
%TD*%
D28*
%TO.P,D1,1,A1*%
%TO.N,GND*%
X45000000Y-67950000D03*
%TO.P,D1,2,A2*%
%TO.N,VIN*%
X45000000Y-63650000D03*
%TD*%
D29*
%TO.P,C1,1*%
%TO.N,VIN*%
X49425000Y-67012500D03*
%TO.P,C1,2*%
%TO.N,GND*%
X49425000Y-68587500D03*
%TD*%
D30*
%TO.P,C2,1*%
%TO.N,VOUT*%
X57162500Y-67200000D03*
%TO.P,C2,2*%
%TO.N,Net-(IC1-RES)*%
X55287500Y-67200000D03*
%TD*%
D10*
%TO.P,Q4,1,SOURCE1*%
%TO.N,VOUT*%
X54429980Y-35226630D03*
D11*
%TO.P,Q4,2,SOURCE2*%
X53954890Y-34096065D03*
D12*
%TO.P,Q4,3,SOURCE3*%
X53954890Y-32982000D03*
D13*
%TO.P,Q4,4,SOURCE4*%
X53954890Y-31958065D03*
D14*
%TO.P,Q4,5,DRAIN1*%
%TO.N,VIN*%
X50055430Y-31957565D03*
D15*
%TO.P,Q4,6,DRAIN2*%
X50055205Y-32982000D03*
D16*
%TO.P,Q4,7,DRAIN3*%
X50049980Y-34125000D03*
D17*
%TO.P,Q4,8,DRAIN4*%
X50049980Y-35255565D03*
D18*
%TO.P,Q4,9,GATE*%
%TO.N,Net-(Q1-GATE)*%
X52104530Y-35796880D03*
%TD*%
D31*
%TO.P,L1,1*%
%TO.N,VOUT*%
X57300000Y-70100000D03*
%TO.P,L1,2*%
%TO.N,Net-(IC1-SW)*%
X55600000Y-70100000D03*
%TD*%
D24*
%TO.P,H5,1,1*%
%TO.N,VIN*%
X35800000Y-40100000D03*
D25*
X35800000Y-40100000D03*
%TD*%
D32*
%TO.P,R1,1*%
%TO.N,VIN*%
X50825000Y-72410000D03*
%TO.P,R1,2*%
%TO.N,EN*%
X50825000Y-71390000D03*
%TD*%
D26*
%TO.P,C5,1*%
%TO.N,VOUT*%
X68000000Y-17176041D03*
D27*
%TO.P,C5,2*%
%TO.N,GND*%
X68000000Y-22176041D03*
%TD*%
D10*
%TO.P,Q2,1,SOURCE1*%
%TO.N,VOUT*%
X54429980Y-52730630D03*
D11*
%TO.P,Q2,2,SOURCE2*%
X53954890Y-51600065D03*
D12*
%TO.P,Q2,3,SOURCE3*%
X53954890Y-50486000D03*
D13*
%TO.P,Q2,4,SOURCE4*%
X53954890Y-49462065D03*
D14*
%TO.P,Q2,5,DRAIN1*%
%TO.N,VIN*%
X50055430Y-49461565D03*
D15*
%TO.P,Q2,6,DRAIN2*%
X50055205Y-50486000D03*
D16*
%TO.P,Q2,7,DRAIN3*%
X50049980Y-51629000D03*
D17*
%TO.P,Q2,8,DRAIN4*%
X50049980Y-52759565D03*
D18*
%TO.P,Q2,9,GATE*%
%TO.N,Net-(Q1-GATE)*%
X52104530Y-53300880D03*
%TD*%
D10*
%TO.P,Q6,1,SOURCE1*%
%TO.N,VOUT*%
X54429980Y-17722630D03*
D11*
%TO.P,Q6,2,SOURCE2*%
X53954890Y-16592065D03*
D12*
%TO.P,Q6,3,SOURCE3*%
X53954890Y-15478000D03*
D13*
%TO.P,Q6,4,SOURCE4*%
X53954890Y-14454065D03*
D14*
%TO.P,Q6,5,DRAIN1*%
%TO.N,VIN*%
X50055430Y-14453565D03*
D15*
%TO.P,Q6,6,DRAIN2*%
X50055205Y-15478000D03*
D16*
%TO.P,Q6,7,DRAIN3*%
X50049980Y-16621000D03*
D17*
%TO.P,Q6,8,DRAIN4*%
X50049980Y-17751565D03*
D18*
%TO.P,Q6,9,GATE*%
%TO.N,Net-(Q1-GATE)*%
X52104530Y-18292880D03*
%TD*%
D26*
%TO.P,C6,1*%
%TO.N,VOUT*%
X68166666Y-32176041D03*
D27*
%TO.P,C6,2*%
%TO.N,GND*%
X68166666Y-37176041D03*
%TD*%
D19*
%TO.P,R3,1*%
%TO.N,PG*%
X52025000Y-71390000D03*
%TO.P,R3,2*%
%TO.N,PG_PULLUP*%
X52025000Y-72410000D03*
%TD*%
D26*
%TO.P,C4,1*%
%TO.N,VOUT*%
X68333332Y-62176041D03*
D27*
%TO.P,C4,2*%
%TO.N,GND*%
X68333332Y-67176041D03*
%TD*%
D24*
%TO.P,H6,1,1*%
%TO.N,VOUT*%
X83500000Y-40050000D03*
D25*
X83500000Y-40050000D03*
%TD*%
D24*
%TO.P,H3,1,1*%
%TO.N,VIN*%
X35800000Y-20500000D03*
D25*
X35800000Y-20500000D03*
%TD*%
D24*
%TO.P,H4,1,1*%
%TO.N,VOUT*%
X83500000Y-20100000D03*
D25*
X83500000Y-20100000D03*
%TD*%
D24*
%TO.P,H2,1,1*%
%TO.N,VOUT*%
X83500000Y-60000000D03*
D25*
X83500000Y-60000000D03*
%TD*%
D33*
%TO.N,VIN*%
X46450000Y-49950000D03*
X38450000Y-27950000D03*
X32450000Y-47950000D03*
X42450000Y-25950000D03*
X36450000Y-49950000D03*
X48450000Y-45950000D03*
X28450000Y-57950000D03*
X42450000Y-43950000D03*
X50450000Y-21950000D03*
X42450000Y-55950000D03*
X42450000Y-45950000D03*
X40450000Y-65950000D03*
X42450000Y-59950000D03*
X30450000Y-53950000D03*
X32450000Y-13950000D03*
X28450000Y-41950000D03*
X46450000Y-19950000D03*
X44450000Y-47950000D03*
X44450000Y-25950000D03*
X48450000Y-37950000D03*
X34450000Y-27950000D03*
X44450000Y-21950000D03*
X44450000Y-51950000D03*
X46450000Y-55950000D03*
X50450000Y-47950000D03*
X40450000Y-49950000D03*
X48450000Y-41950000D03*
X44450000Y-57950000D03*
X38450000Y-13950000D03*
X48450000Y-57950000D03*
X42450000Y-23950000D03*
X28450000Y-15950000D03*
X28450000Y-45950000D03*
X38450000Y-31950000D03*
X40450000Y-27950000D03*
X48450000Y-31950000D03*
X42450000Y-61950000D03*
X42450000Y-41950000D03*
X28450000Y-35950000D03*
X48450000Y-35950000D03*
X44450000Y-27950000D03*
X48450000Y-59950000D03*
X42450000Y-21950000D03*
X42450000Y-47950000D03*
X30450000Y-15950000D03*
X30450000Y-27950000D03*
X40450000Y-51950000D03*
X40450000Y-47950000D03*
X32450000Y-27950000D03*
X28450000Y-43950000D03*
X32450000Y-31950000D03*
X30450000Y-45950000D03*
X46450000Y-29950000D03*
X30450000Y-13950000D03*
X44450000Y-13950000D03*
X48450000Y-55950000D03*
X44450000Y-39950000D03*
X46450000Y-15950000D03*
X30450000Y-25950000D03*
X48450000Y-39950000D03*
X34450000Y-47950000D03*
X46450000Y-17950000D03*
X28450000Y-19950000D03*
X48450000Y-43950000D03*
X44450000Y-33950000D03*
X46450000Y-13950000D03*
X46450000Y-21950000D03*
X28450000Y-17950000D03*
X44450000Y-23950000D03*
X42450000Y-33950000D03*
X44450000Y-35950000D03*
X38450000Y-47950000D03*
X44450000Y-55950000D03*
X28450000Y-65950000D03*
X46450000Y-47950000D03*
X28450000Y-47950000D03*
X44450000Y-29950000D03*
X28450000Y-49950000D03*
X50450000Y-53950000D03*
X46450000Y-51950000D03*
X40450000Y-53950000D03*
X38450000Y-49950000D03*
X48450000Y-23950000D03*
X30450000Y-29950000D03*
X48450000Y-21950000D03*
X28450000Y-37950000D03*
X42450000Y-39950000D03*
X28450000Y-23950000D03*
X44450000Y-41950000D03*
X48450000Y-49950000D03*
X46450000Y-25950000D03*
X48450000Y-19950000D03*
X48450000Y-29950000D03*
X44450000Y-43950000D03*
X30450000Y-31950000D03*
X32450000Y-29950000D03*
X32450000Y-33950000D03*
X38450000Y-65950000D03*
X42450000Y-37950000D03*
X36450000Y-31950000D03*
X40450000Y-25950000D03*
X46450000Y-31950000D03*
X36450000Y-29950000D03*
X40450000Y-13950000D03*
X34450000Y-31950000D03*
X48450000Y-33950000D03*
X28450000Y-27950000D03*
X28450000Y-29950000D03*
X42450000Y-15950000D03*
X44450000Y-31950000D03*
X44450000Y-37950000D03*
X42450000Y-19950000D03*
X42450000Y-63950000D03*
X28450000Y-61950000D03*
X28450000Y-25950000D03*
X46450000Y-39950000D03*
X28450000Y-33950000D03*
X36450000Y-27950000D03*
X46450000Y-41950000D03*
X40450000Y-33950000D03*
X32450000Y-51950000D03*
X28450000Y-55950000D03*
X42450000Y-49950000D03*
X44450000Y-15950000D03*
X44450000Y-49950000D03*
X46450000Y-45950000D03*
X40450000Y-45950000D03*
X34450000Y-29950000D03*
X50450000Y-45950000D03*
X46450000Y-37950000D03*
X36450000Y-47950000D03*
X28450000Y-31950000D03*
X34450000Y-51950000D03*
X49250000Y-72400000D03*
X42450000Y-17950000D03*
X44450000Y-17950000D03*
X28450000Y-13950000D03*
X46450000Y-59950000D03*
X28450000Y-51950000D03*
X50450000Y-37950000D03*
X46450000Y-43950000D03*
X30450000Y-51950000D03*
X28450000Y-39950000D03*
X48450000Y-61950000D03*
X28450000Y-21950000D03*
X40450000Y-31950000D03*
X50450000Y-19950000D03*
X42450000Y-31950000D03*
X46450000Y-53950000D03*
X48450000Y-15950000D03*
X46450000Y-33950000D03*
X48450000Y-13950000D03*
X32450000Y-49950000D03*
X50450000Y-27950000D03*
X44450000Y-53950000D03*
X30450000Y-49950000D03*
X42450000Y-65950000D03*
X48450000Y-47950000D03*
X48450000Y-17950000D03*
X48450000Y-53950000D03*
X46450000Y-35950000D03*
X42450000Y-57950000D03*
X34450000Y-49950000D03*
X44450000Y-19950000D03*
X32450000Y-65950000D03*
X30450000Y-47950000D03*
X46450000Y-23950000D03*
X28450000Y-59950000D03*
X44450000Y-45950000D03*
X44450000Y-59950000D03*
X48250000Y-68500000D03*
X28450000Y-53950000D03*
X30450000Y-33950000D03*
X28450000Y-63950000D03*
X30450000Y-63950000D03*
X46450000Y-57950000D03*
X42450000Y-51950000D03*
X42450000Y-29950000D03*
X36450000Y-51950000D03*
X38450000Y-51950000D03*
X48450000Y-25950000D03*
X38450000Y-29950000D03*
X40450000Y-29950000D03*
X42450000Y-53950000D03*
X42450000Y-27950000D03*
X50450000Y-29950000D03*
X48450000Y-63950000D03*
X48450000Y-27950000D03*
X50450000Y-55950000D03*
X48450000Y-51950000D03*
X30450000Y-65950000D03*
X42450000Y-35950000D03*
X42450000Y-13950000D03*
X46450000Y-27950000D03*
%TO.N,VOUT*%
X86450000Y-51950000D03*
X54450000Y-29950000D03*
X74450000Y-13950000D03*
X66450000Y-45950000D03*
X66450000Y-27950000D03*
X70450000Y-55950000D03*
X60450000Y-43950000D03*
X64450000Y-19950000D03*
X84450000Y-51950000D03*
X60450000Y-27950000D03*
X56450000Y-47950000D03*
X56450000Y-27950000D03*
X78450000Y-47950000D03*
X74450000Y-45950000D03*
X74450000Y-25950000D03*
X58450000Y-21950000D03*
X78450000Y-49950000D03*
X76450000Y-31950000D03*
X58450000Y-53950000D03*
X76450000Y-33950000D03*
X72450000Y-45950000D03*
X70450000Y-19950000D03*
X64450000Y-51950000D03*
X90450000Y-63750000D03*
X72450000Y-27950000D03*
X58450000Y-59950000D03*
X70450000Y-53950000D03*
X62450000Y-35950000D03*
X58450000Y-27950000D03*
X68450000Y-41950000D03*
X88450000Y-53950000D03*
X60450000Y-15950000D03*
X62450000Y-43950000D03*
X68450000Y-27950000D03*
X72450000Y-63950000D03*
X76450000Y-37950000D03*
X64450000Y-23950000D03*
X70450000Y-61950000D03*
X60450000Y-39950000D03*
X72450000Y-21950000D03*
X64450000Y-43950000D03*
X90450000Y-59750000D03*
X78450000Y-31950000D03*
X72450000Y-19950000D03*
X64450000Y-29950000D03*
X72450000Y-17950000D03*
X64450000Y-17950000D03*
X82450000Y-51950000D03*
X76450000Y-47950000D03*
X78450000Y-45950000D03*
X76450000Y-23950000D03*
X58450000Y-39950000D03*
X60450000Y-41950000D03*
X70450000Y-49950000D03*
X66450000Y-47950000D03*
X86450000Y-33750000D03*
X72450000Y-23950000D03*
X62450000Y-57950000D03*
X70450000Y-17950000D03*
X60450000Y-25950000D03*
X74450000Y-37950000D03*
X76450000Y-15950000D03*
X64450000Y-59950000D03*
X64450000Y-55950000D03*
X80450000Y-27950000D03*
X58450000Y-37950000D03*
X64450000Y-61950000D03*
X54450000Y-53950000D03*
X60450000Y-53950000D03*
X78450000Y-33950000D03*
X76450000Y-53950000D03*
X66450000Y-43950000D03*
X62450000Y-53950000D03*
X88450000Y-27950000D03*
X90450000Y-65750000D03*
X70450000Y-15950000D03*
X72450000Y-59950000D03*
X64450000Y-39950000D03*
X70450000Y-21950000D03*
X90450000Y-41750000D03*
X74450000Y-61950000D03*
X62450000Y-23950000D03*
X64450000Y-13950000D03*
X74450000Y-19950000D03*
X90450000Y-55750000D03*
X62450000Y-41950000D03*
X68450000Y-43950000D03*
X90450000Y-21750000D03*
X78450000Y-25950000D03*
X62450000Y-19950000D03*
X56450000Y-53950000D03*
X68450000Y-25950000D03*
X60450000Y-13950000D03*
X74450000Y-35950000D03*
X62450000Y-13950000D03*
X78450000Y-51950000D03*
X60450000Y-21950000D03*
X76450000Y-57950000D03*
X64450000Y-47950000D03*
X60450000Y-55950000D03*
X72450000Y-49950000D03*
X58450000Y-51950000D03*
X76450000Y-19950000D03*
X86450000Y-53750000D03*
X76450000Y-13950000D03*
X72450000Y-39950000D03*
X76450000Y-51950000D03*
X64450000Y-45950000D03*
X76450000Y-61950000D03*
X82450000Y-29950000D03*
X76450000Y-21950000D03*
X60450000Y-57950000D03*
X60450000Y-49950000D03*
X88450000Y-13950000D03*
X70450000Y-37950000D03*
X90450000Y-19750000D03*
X62450000Y-55950000D03*
X68450000Y-13950000D03*
X74450000Y-59950000D03*
X64450000Y-27950000D03*
X66450000Y-29950000D03*
X80450000Y-31950000D03*
X74450000Y-55950000D03*
X78450000Y-13950000D03*
X90450000Y-25750000D03*
X64450000Y-63950000D03*
X78450000Y-65950000D03*
X64450000Y-57950000D03*
X86450000Y-31950000D03*
X62450000Y-17950000D03*
X58450000Y-31950000D03*
X80450000Y-47950000D03*
X74450000Y-49950000D03*
X80450000Y-53750000D03*
X62450000Y-27950000D03*
X90450000Y-61750000D03*
X54450000Y-55950000D03*
X76450000Y-55950000D03*
X70450000Y-27950000D03*
X64450000Y-21950000D03*
X70450000Y-65950000D03*
X76450000Y-17950000D03*
X64450000Y-25950000D03*
X76450000Y-45950000D03*
X72450000Y-29950000D03*
X58450000Y-29950000D03*
X62450000Y-39950000D03*
X72450000Y-53950000D03*
X66450000Y-57950000D03*
X86450000Y-27950000D03*
X60450000Y-31950000D03*
X74450000Y-17950000D03*
X66450000Y-55950000D03*
X62450000Y-51950000D03*
X64450000Y-49950000D03*
X60450000Y-47950000D03*
X76450000Y-39950000D03*
X76450000Y-35950000D03*
X54450000Y-19950000D03*
X62450000Y-49950000D03*
X62450000Y-25950000D03*
X60450000Y-29950000D03*
X56450000Y-19950000D03*
X90450000Y-37750000D03*
X66450000Y-25950000D03*
X90450000Y-45750000D03*
X66450000Y-53950000D03*
X56450000Y-29950000D03*
X84450000Y-49950000D03*
X70450000Y-59950000D03*
X88450000Y-65950000D03*
X54450000Y-27950000D03*
X82450000Y-47950000D03*
X56450000Y-37950000D03*
X86450000Y-47950000D03*
X54450000Y-21950000D03*
X72450000Y-55950000D03*
X60450000Y-45950000D03*
X66450000Y-35950000D03*
X90450000Y-53750000D03*
X68450000Y-19950000D03*
X78450000Y-29950000D03*
X58450000Y-57950000D03*
X74450000Y-51950000D03*
X66450000Y-19950000D03*
X54450000Y-37950000D03*
X60450000Y-17950000D03*
X72450000Y-33950000D03*
X70450000Y-33950000D03*
X60450000Y-19950000D03*
X64450000Y-37950000D03*
X70450000Y-39950000D03*
X64450000Y-35950000D03*
X82450000Y-31950000D03*
X64450000Y-15950000D03*
X72450000Y-57950000D03*
X74450000Y-31950000D03*
X88450000Y-29950000D03*
X88450000Y-49950000D03*
X58450000Y-35950000D03*
X72450000Y-25950000D03*
X90450000Y-43750000D03*
X76450000Y-29950000D03*
X86450000Y-13750000D03*
X72450000Y-13950000D03*
X66450000Y-23950000D03*
X62450000Y-61950000D03*
X58450000Y-49950000D03*
X84450000Y-47950000D03*
X90450000Y-23750000D03*
X86450000Y-49950000D03*
X70450000Y-51950000D03*
X72450000Y-37950000D03*
X66450000Y-65950000D03*
X62450000Y-21950000D03*
X74450000Y-57950000D03*
X90450000Y-31750000D03*
X80450000Y-51950000D03*
X88450000Y-25950000D03*
X62450000Y-47950000D03*
X88450000Y-33950000D03*
X66450000Y-63950000D03*
X90450000Y-27750000D03*
X74450000Y-29950000D03*
X68450000Y-57950000D03*
X90450000Y-15750000D03*
X60450000Y-37950000D03*
X60450000Y-33950000D03*
X74450000Y-21950000D03*
X72450000Y-65950000D03*
X74450000Y-23950000D03*
X74450000Y-47950000D03*
X84450000Y-27950000D03*
X76450000Y-27950000D03*
X56450000Y-45950000D03*
X68450000Y-55950000D03*
X88450000Y-47950000D03*
X58450000Y-55950000D03*
X90450000Y-35750000D03*
X70450000Y-23950000D03*
X66450000Y-41950000D03*
X86450000Y-29950000D03*
X62450000Y-29950000D03*
X76450000Y-65950000D03*
X70450000Y-35950000D03*
X64450000Y-41950000D03*
X90450000Y-57750000D03*
X78450000Y-53950000D03*
X84450000Y-31950000D03*
X80450000Y-49950000D03*
X90450000Y-49750000D03*
X58450000Y-47950000D03*
X76450000Y-41950000D03*
X80450000Y-33750000D03*
X66450000Y-13950000D03*
X76450000Y-49950000D03*
X88450000Y-31950000D03*
X54450000Y-45950000D03*
X58450000Y-13950000D03*
X66450000Y-51950000D03*
X60450000Y-23950000D03*
X80450000Y-29950000D03*
X68450000Y-29950000D03*
X72450000Y-35950000D03*
X70450000Y-13950000D03*
X62450000Y-33950000D03*
X82450000Y-49950000D03*
X70450000Y-57950000D03*
X90450000Y-39750000D03*
X64450000Y-33950000D03*
X74450000Y-65950000D03*
X78450000Y-27950000D03*
X76450000Y-63950000D03*
X62450000Y-15950000D03*
X68450000Y-39950000D03*
X74450000Y-41950000D03*
X58450000Y-41950000D03*
X74450000Y-33950000D03*
X74450000Y-43950000D03*
X84450000Y-29950000D03*
X82450000Y-27950000D03*
X74450000Y-27950000D03*
X54450000Y-47950000D03*
X74450000Y-53950000D03*
X72450000Y-51950000D03*
X72450000Y-15950000D03*
X72450000Y-41950000D03*
X58450000Y-45950000D03*
X58450000Y-43950000D03*
X72450000Y-31950000D03*
X70450000Y-47950000D03*
X76450000Y-43950000D03*
X72450000Y-61950000D03*
X62450000Y-59950000D03*
X70450000Y-29950000D03*
X70450000Y-25950000D03*
X62450000Y-31950000D03*
X76450000Y-59950000D03*
X90450000Y-47750000D03*
X80450000Y-13950000D03*
X58450000Y-17950000D03*
X68450000Y-59950000D03*
X60450000Y-35950000D03*
X58450000Y-33950000D03*
X90450000Y-13750000D03*
X66450000Y-61950000D03*
X62450000Y-45950000D03*
X90450000Y-29750000D03*
X64450000Y-53950000D03*
X70450000Y-31950000D03*
X72450000Y-47950000D03*
X90450000Y-17750000D03*
X56450000Y-55950000D03*
X74450000Y-63950000D03*
X58450000Y-15950000D03*
X66450000Y-59950000D03*
X90450000Y-51750000D03*
X74450000Y-15950000D03*
X56450000Y-21950000D03*
X70450000Y-41950000D03*
X60450000Y-51950000D03*
X58450000Y-25950000D03*
X70450000Y-43950000D03*
X66450000Y-39950000D03*
X58450000Y-19950000D03*
X58450000Y-23950000D03*
X76450000Y-25950000D03*
X68450000Y-49950000D03*
X88450000Y-51950000D03*
X62450000Y-37950000D03*
X88450000Y-45950000D03*
X64450000Y-31950000D03*
X90450000Y-33750000D03*
X74450000Y-39950000D03*
X72450000Y-43950000D03*
X60450000Y-59950000D03*
X64450000Y-65950000D03*
X66450000Y-49950000D03*
X70450000Y-63950000D03*
X70450000Y-45950000D03*
%TO.N,GND*%
X62010000Y-67830000D03*
X72170000Y-67830000D03*
X39150000Y-70370000D03*
X59470000Y-67830000D03*
X77250000Y-70370000D03*
X87410000Y-67830000D03*
X62010000Y-70370000D03*
X36610000Y-70370000D03*
X34070000Y-70370000D03*
X64550000Y-67830000D03*
X28990000Y-70370000D03*
X82330000Y-67830000D03*
X72170000Y-70370000D03*
X87410000Y-70370000D03*
X82330000Y-70370000D03*
X34070000Y-67830000D03*
X28990000Y-67830000D03*
X39150000Y-67830000D03*
X74710000Y-70370000D03*
X84870000Y-67830000D03*
X36610000Y-67830000D03*
X58500000Y-65000000D03*
X31530000Y-67830000D03*
X69630000Y-70370000D03*
X77250000Y-67830000D03*
X31530000Y-70370000D03*
X67090000Y-70370000D03*
X79790000Y-67830000D03*
X41690000Y-67830000D03*
X84870000Y-70370000D03*
X60000000Y-66000000D03*
X64550000Y-70370000D03*
X59470000Y-70370000D03*
X49425000Y-69500000D03*
X79790000Y-70370000D03*
X61500000Y-65000000D03*
X74710000Y-67830000D03*
%TO.N,Net-(Q1-GATE)*%
X52000000Y-63250000D03*
X52000000Y-46000000D03*
X52000000Y-54750000D03*
X52000000Y-28500000D03*
X52000000Y-19750000D03*
X52000000Y-37250000D03*
%TD*%
D34*
%TO.N,VIN*%
X48750000Y-67012500D02*
X49425000Y-67012500D01*
X50987500Y-67012500D02*
X51075000Y-67100000D01*
X45000000Y-63650000D02*
X45000000Y-64000000D01*
D35*
X48250000Y-67012500D02*
X49425000Y-67012500D01*
D36*
X51262500Y-67012500D02*
X51350000Y-67100000D01*
D35*
X48250000Y-68500000D02*
X48250000Y-67012500D01*
D34*
X48750000Y-67012500D02*
X50987500Y-67012500D01*
X45000000Y-64000000D02*
X48012500Y-67012500D01*
D35*
X49250000Y-72400000D02*
X49260000Y-72410000D01*
D34*
X48012500Y-67012500D02*
X48750000Y-67012500D01*
D35*
X49260000Y-72410000D02*
X50825000Y-72410000D01*
D34*
%TO.N,VOUT*%
X57162500Y-64062500D02*
X59125000Y-62100000D01*
X57300000Y-67337500D02*
X57162500Y-67200000D01*
X57162500Y-67200000D02*
X57162500Y-64062500D01*
D35*
X52650000Y-67100000D02*
X52650000Y-66100000D01*
X53750000Y-65000000D02*
X53750000Y-62750000D01*
D34*
X57300000Y-70100000D02*
X57300000Y-67337500D01*
D35*
X52650000Y-66100000D02*
X53750000Y-65000000D01*
D34*
X59125000Y-62100000D02*
X60000000Y-62100000D01*
D36*
%TO.N,GND*%
X61400000Y-64900000D02*
X61500000Y-65000000D01*
X58600000Y-64900000D02*
X58500000Y-65000000D01*
X60000000Y-64900000D02*
X60000000Y-66000000D01*
X60000000Y-64900000D02*
X61400000Y-64900000D01*
X60000000Y-64900000D02*
X58600000Y-64900000D01*
X49425000Y-69500000D02*
X49425000Y-68587500D01*
D34*
%TO.N,Net-(IC1-RES)*%
X55287500Y-67200000D02*
X53675000Y-67200000D01*
X53675000Y-67200000D02*
X53575000Y-67100000D01*
D36*
%TO.N,PG*%
X50850000Y-68800000D02*
X50150000Y-69500000D01*
X52000000Y-69700000D02*
X52000000Y-69000000D01*
X50150000Y-69800305D02*
X49575305Y-70375000D01*
X49575305Y-70375000D02*
X44625000Y-70375000D01*
X52000000Y-71365000D02*
X52025000Y-71390000D01*
X50150000Y-69500000D02*
X50150000Y-69800305D01*
X52000000Y-69700000D02*
X52000000Y-71365000D01*
X44625000Y-70375000D02*
X43450000Y-71550000D01*
X52000000Y-69000000D02*
X51800000Y-68800000D01*
X51800000Y-68800000D02*
X50850000Y-68800000D01*
D35*
%TO.N,EN*%
X50665000Y-71550000D02*
X50825000Y-71390000D01*
D36*
X51350000Y-70865000D02*
X50825000Y-71390000D01*
D35*
X45990000Y-71550000D02*
X50665000Y-71550000D01*
D36*
X51350000Y-69700000D02*
X51350000Y-70865000D01*
D34*
%TO.N,Net-(IC1-SW)*%
X53975000Y-70100000D02*
X53575000Y-69700000D01*
X55600000Y-70100000D02*
X53975000Y-70100000D01*
D36*
%TO.N,Net-(IC1-GATE)*%
X52000000Y-65435000D02*
X52025000Y-65410000D01*
X52000000Y-67100000D02*
X52000000Y-65435000D01*
D35*
%TO.N,Net-(Q1-GATE)*%
X52104530Y-53300880D02*
X52104530Y-54645470D01*
X52104530Y-63145470D02*
X52000000Y-63250000D01*
X52104530Y-62052880D02*
X52104530Y-63145470D01*
X52104530Y-37145470D02*
X52000000Y-37250000D01*
X52104530Y-54645470D02*
X52000000Y-54750000D01*
D36*
X52025000Y-62070330D02*
X52007550Y-62052880D01*
D35*
X52000000Y-63250000D02*
X52000000Y-64365000D01*
X52104530Y-19645470D02*
X52000000Y-19750000D01*
X52104530Y-35796880D02*
X52104530Y-37145470D01*
X52104530Y-28395470D02*
X52000000Y-28500000D01*
X52104530Y-18292880D02*
X52104530Y-19645470D01*
X52104530Y-45895470D02*
X52000000Y-46000000D01*
X52000000Y-64365000D02*
X52025000Y-64390000D01*
X52104530Y-27044880D02*
X52104530Y-28395470D01*
X52104530Y-44548880D02*
X52104530Y-45895470D01*
%TO.N,PG_PULLUP*%
X51308000Y-73127000D02*
X42487000Y-73127000D01*
X52025000Y-72410000D02*
X51308000Y-73127000D01*
X42487000Y-73127000D02*
X40910000Y-71550000D01*
%TD*%
%TA.AperFunction,Conductor*%
%TO.N,VOUT*%
G36*
X92096632Y-12053368D02*
G01*
X92100000Y-12061500D01*
X92100000Y-66488500D01*
X92096632Y-66496632D01*
X92088500Y-66500000D01*
X69628214Y-66500000D01*
X69620082Y-66496632D01*
X69617683Y-66493120D01*
X69615656Y-66488500D01*
X69613381Y-66483313D01*
X69613378Y-66483309D01*
X69613377Y-66483305D01*
X69481903Y-66282072D01*
X69319096Y-66105216D01*
X69319095Y-66105215D01*
X69319094Y-66105214D01*
X69183914Y-66000000D01*
X69129399Y-65957569D01*
X69129396Y-65957567D01*
X69129394Y-65957565D01*
X68954791Y-65863076D01*
X68917988Y-65843159D01*
X68690629Y-65765107D01*
X68690619Y-65765105D01*
X68572508Y-65745396D01*
X68453524Y-65725541D01*
X68213140Y-65725541D01*
X68118022Y-65741413D01*
X67976044Y-65765105D01*
X67976034Y-65765107D01*
X67748678Y-65843158D01*
X67748670Y-65843162D01*
X67537269Y-65957565D01*
X67537266Y-65957568D01*
X67347569Y-66105214D01*
X67184760Y-66282072D01*
X67053286Y-66483305D01*
X67053284Y-66483310D01*
X67048981Y-66493120D01*
X67042630Y-66499213D01*
X67038450Y-66500000D01*
X63007108Y-66500000D01*
X62998976Y-66496632D01*
X62996822Y-66493643D01*
X61500000Y-63500000D01*
X54501707Y-63500000D01*
X54498364Y-63499503D01*
X52558993Y-62910326D01*
X52552872Y-62905856D01*
X52527221Y-62868695D01*
X52525186Y-62862110D01*
X52525264Y-62846158D01*
X52528671Y-62838048D01*
X52530361Y-62836667D01*
X52535131Y-62833481D01*
X52590496Y-62750620D01*
X52605030Y-62677554D01*
X52605030Y-61428206D01*
X52590496Y-61355140D01*
X52535131Y-61272279D01*
X52534972Y-61272041D01*
X52533035Y-61265599D01*
X52563434Y-55082363D01*
X52565468Y-55075893D01*
X52580220Y-55054523D01*
X52636237Y-54906818D01*
X52655278Y-54750000D01*
X52636237Y-54593182D01*
X52580220Y-54445477D01*
X52568714Y-54428808D01*
X52566680Y-54422224D01*
X52568584Y-54034841D01*
X52570521Y-54028515D01*
X52590496Y-53998620D01*
X52605030Y-53925554D01*
X52605030Y-52676206D01*
X52590496Y-52603140D01*
X52577686Y-52583969D01*
X52575749Y-52577526D01*
X52577723Y-52176041D01*
X67044527Y-52176041D01*
X67064378Y-52415604D01*
X67064378Y-52415607D01*
X67064379Y-52415609D01*
X67123387Y-52648629D01*
X67123390Y-52648639D01*
X67219948Y-52868767D01*
X67219952Y-52868776D01*
X67351426Y-53070009D01*
X67351427Y-53070010D01*
X67514234Y-53246866D01*
X67703931Y-53394513D01*
X67703933Y-53394514D01*
X67703935Y-53394516D01*
X67815115Y-53454683D01*
X67915342Y-53508923D01*
X68142701Y-53586975D01*
X68379806Y-53626541D01*
X68379808Y-53626541D01*
X68620188Y-53626541D01*
X68620190Y-53626541D01*
X68857295Y-53586975D01*
X69084654Y-53508923D01*
X69256910Y-53415702D01*
X69296060Y-53394516D01*
X69296060Y-53394515D01*
X69296065Y-53394513D01*
X69485762Y-53246866D01*
X69648569Y-53070010D01*
X69718592Y-52962832D01*
X69780043Y-52868776D01*
X69780044Y-52868773D01*
X69780047Y-52868769D01*
X69876608Y-52648632D01*
X69935618Y-52415604D01*
X69955469Y-52176041D01*
X69935618Y-51936478D01*
X69876608Y-51703450D01*
X69876606Y-51703445D01*
X69876605Y-51703442D01*
X69780047Y-51483314D01*
X69780043Y-51483305D01*
X69648569Y-51282072D01*
X69485760Y-51105214D01*
X69401660Y-51039756D01*
X69296065Y-50957569D01*
X69296062Y-50957567D01*
X69296060Y-50957565D01*
X69123808Y-50864348D01*
X69084654Y-50843159D01*
X68857295Y-50765107D01*
X68857285Y-50765105D01*
X68739174Y-50745396D01*
X68620190Y-50725541D01*
X68379806Y-50725541D01*
X68284688Y-50741413D01*
X68142710Y-50765105D01*
X68142700Y-50765107D01*
X67915344Y-50843158D01*
X67915336Y-50843162D01*
X67703935Y-50957565D01*
X67703932Y-50957568D01*
X67514235Y-51105214D01*
X67351426Y-51282072D01*
X67219952Y-51483305D01*
X67219948Y-51483314D01*
X67123390Y-51703442D01*
X67123387Y-51703452D01*
X67064379Y-51936472D01*
X67064378Y-51936475D01*
X67064378Y-51936478D01*
X67044527Y-52176041D01*
X52577723Y-52176041D01*
X52606926Y-46236145D01*
X52607670Y-46232142D01*
X52636237Y-46156818D01*
X52655278Y-46000000D01*
X52636237Y-45843182D01*
X52609964Y-45773905D01*
X52609219Y-45769783D01*
X52650926Y-37286456D01*
X52651008Y-37285159D01*
X52655278Y-37250000D01*
X52651354Y-37217683D01*
X52651272Y-37216272D01*
X52651470Y-37176041D01*
X66711195Y-37176041D01*
X66731046Y-37415604D01*
X66731046Y-37415607D01*
X66731047Y-37415609D01*
X66790055Y-37648629D01*
X66790058Y-37648639D01*
X66886616Y-37868767D01*
X66886620Y-37868776D01*
X67018094Y-38070009D01*
X67018095Y-38070010D01*
X67180902Y-38246866D01*
X67370599Y-38394513D01*
X67370601Y-38394514D01*
X67370603Y-38394516D01*
X67481783Y-38454683D01*
X67582010Y-38508923D01*
X67809369Y-38586975D01*
X68046474Y-38626541D01*
X68046476Y-38626541D01*
X68286856Y-38626541D01*
X68286858Y-38626541D01*
X68523963Y-38586975D01*
X68751322Y-38508923D01*
X68923578Y-38415702D01*
X68962728Y-38394516D01*
X68962728Y-38394515D01*
X68962733Y-38394513D01*
X69152430Y-38246866D01*
X69315237Y-38070010D01*
X69425984Y-37900500D01*
X69446711Y-37868776D01*
X69446712Y-37868773D01*
X69446715Y-37868769D01*
X69543276Y-37648632D01*
X69602286Y-37415604D01*
X69622137Y-37176041D01*
X69602286Y-36936478D01*
X69543276Y-36703450D01*
X69543274Y-36703445D01*
X69543273Y-36703442D01*
X69488021Y-36577481D01*
X69446715Y-36483313D01*
X69446713Y-36483310D01*
X69446711Y-36483305D01*
X69315237Y-36282072D01*
X69152428Y-36105214D01*
X69068328Y-36039756D01*
X68962733Y-35957569D01*
X68962730Y-35957567D01*
X68962728Y-35957565D01*
X68790476Y-35864348D01*
X68751322Y-35843159D01*
X68523963Y-35765107D01*
X68523953Y-35765105D01*
X68405842Y-35745396D01*
X68286858Y-35725541D01*
X68046474Y-35725541D01*
X67951356Y-35741413D01*
X67809378Y-35765105D01*
X67809368Y-35765107D01*
X67582012Y-35843158D01*
X67582004Y-35843162D01*
X67370603Y-35957565D01*
X67370600Y-35957568D01*
X67180903Y-36105214D01*
X67018094Y-36282072D01*
X66886620Y-36483305D01*
X66886616Y-36483314D01*
X66790058Y-36703442D01*
X66790055Y-36703452D01*
X66731047Y-36936472D01*
X66731046Y-36936475D01*
X66731046Y-36936478D01*
X66711195Y-37176041D01*
X52651470Y-37176041D01*
X52725216Y-22176041D01*
X66544529Y-22176041D01*
X66564380Y-22415604D01*
X66564380Y-22415607D01*
X66564381Y-22415609D01*
X66623389Y-22648629D01*
X66623392Y-22648639D01*
X66719950Y-22868767D01*
X66719954Y-22868776D01*
X66851428Y-23070009D01*
X66851429Y-23070010D01*
X67014236Y-23246866D01*
X67203933Y-23394513D01*
X67203935Y-23394514D01*
X67203937Y-23394516D01*
X67315117Y-23454683D01*
X67415344Y-23508923D01*
X67642703Y-23586975D01*
X67879808Y-23626541D01*
X67879810Y-23626541D01*
X68120190Y-23626541D01*
X68120192Y-23626541D01*
X68357297Y-23586975D01*
X68584656Y-23508923D01*
X68756912Y-23415702D01*
X68796062Y-23394516D01*
X68796062Y-23394515D01*
X68796067Y-23394513D01*
X68985764Y-23246866D01*
X69148571Y-23070010D01*
X69218594Y-22962832D01*
X69280045Y-22868776D01*
X69280046Y-22868773D01*
X69280049Y-22868769D01*
X69376610Y-22648632D01*
X69435620Y-22415604D01*
X69455471Y-22176041D01*
X69435620Y-21936478D01*
X69376610Y-21703450D01*
X69376608Y-21703445D01*
X69376607Y-21703442D01*
X69280049Y-21483314D01*
X69280045Y-21483305D01*
X69148571Y-21282072D01*
X68985762Y-21105214D01*
X68901662Y-21039756D01*
X68796067Y-20957569D01*
X68796064Y-20957567D01*
X68796062Y-20957565D01*
X68623810Y-20864348D01*
X68584656Y-20843159D01*
X68357297Y-20765107D01*
X68357287Y-20765105D01*
X68239176Y-20745396D01*
X68120192Y-20725541D01*
X67879808Y-20725541D01*
X67784690Y-20741413D01*
X67642712Y-20765105D01*
X67642702Y-20765107D01*
X67415346Y-20843158D01*
X67415338Y-20843162D01*
X67203937Y-20957565D01*
X67203934Y-20957568D01*
X67014237Y-21105214D01*
X66851428Y-21282072D01*
X66719954Y-21483305D01*
X66719950Y-21483314D01*
X66623392Y-21703442D01*
X66623389Y-21703452D01*
X66564381Y-21936472D01*
X66564380Y-21936475D01*
X66564380Y-21936478D01*
X66544529Y-22176041D01*
X52725216Y-22176041D01*
X52751391Y-16851968D01*
X52774944Y-12061443D01*
X52778352Y-12053328D01*
X52786444Y-12050000D01*
X92088500Y-12050000D01*
X92096632Y-12053368D01*
G37*
%TD.AperFunction*%
%TD*%
%TA.AperFunction,Conductor*%
%TO.N,VIN*%
G36*
X51326192Y-12099751D02*
G01*
X51393191Y-12119570D01*
X51438840Y-12172466D01*
X51449942Y-12223808D01*
X51446591Y-19492254D01*
X51437152Y-19539649D01*
X51414956Y-19593234D01*
X51394318Y-19749998D01*
X51394318Y-19750001D01*
X51414955Y-19906760D01*
X51414957Y-19906765D01*
X51436914Y-19959775D01*
X51446353Y-20007284D01*
X51442552Y-28252003D01*
X51433114Y-28299396D01*
X51414956Y-28343235D01*
X51394318Y-28499998D01*
X51394318Y-28500001D01*
X51414955Y-28656759D01*
X51432886Y-28700048D01*
X51442324Y-28747557D01*
X51438514Y-37011752D01*
X51429076Y-37059145D01*
X51414956Y-37093234D01*
X51394318Y-37249998D01*
X51394318Y-37250001D01*
X51414956Y-37406761D01*
X51428856Y-37440321D01*
X51438294Y-37487828D01*
X51434475Y-45771504D01*
X51425038Y-45818896D01*
X51414956Y-45843237D01*
X51394318Y-45999999D01*
X51394318Y-46000001D01*
X51414956Y-46156765D01*
X51424826Y-46180594D01*
X51434264Y-46228101D01*
X51430437Y-54531254D01*
X51421000Y-54578646D01*
X51414956Y-54593238D01*
X51414955Y-54593239D01*
X51394318Y-54749998D01*
X51394318Y-54750001D01*
X51414955Y-54906760D01*
X51414956Y-54906761D01*
X51420797Y-54920863D01*
X51430235Y-54968371D01*
X51426513Y-63040727D01*
X51417078Y-63088113D01*
X51414958Y-63093231D01*
X51414955Y-63093240D01*
X51394318Y-63249999D01*
X51394318Y-63250001D01*
X51414956Y-63406765D01*
X51414957Y-63406767D01*
X51416882Y-63411415D01*
X51426320Y-63458921D01*
X51425057Y-66201057D01*
X51405342Y-66268088D01*
X51352517Y-66313818D01*
X51301057Y-66325000D01*
X43549998Y-66325000D01*
X42006935Y-66499217D01*
X41993023Y-66500000D01*
X26674000Y-66500000D01*
X26606961Y-66480315D01*
X26561206Y-66427511D01*
X26550000Y-66376000D01*
X26550000Y-12174249D01*
X26569685Y-12107210D01*
X26622489Y-12061455D01*
X26674246Y-12050249D01*
X51326192Y-12099751D01*
G37*
%TD.AperFunction*%
%TD*%
%TA.AperFunction,Conductor*%
%TO.N,GND*%
G36*
X54142341Y-63658374D02*
G01*
X54424095Y-63743971D01*
X54460792Y-63752225D01*
X54460798Y-63752225D01*
X54460803Y-63752227D01*
X54461940Y-63752395D01*
X54464135Y-63752722D01*
X54501707Y-63755500D01*
X56460118Y-63755500D01*
X56468250Y-63758868D01*
X56471618Y-63767000D01*
X56470743Y-63771401D01*
X56440841Y-63843587D01*
X56440841Y-63843590D01*
X56412000Y-63988583D01*
X56412000Y-67273917D01*
X56424279Y-67335649D01*
X56424500Y-67337892D01*
X56424500Y-67703520D01*
X56430828Y-67762389D01*
X56430829Y-67762391D01*
X56480497Y-67895554D01*
X56535334Y-67968808D01*
X56547206Y-67984666D01*
X56549500Y-67991558D01*
X56549500Y-70173916D01*
X56578341Y-70318909D01*
X56578341Y-70318912D01*
X56598625Y-70367880D01*
X56599500Y-70372281D01*
X56599500Y-70624672D01*
X56611092Y-70682953D01*
X56614034Y-70697740D01*
X56614035Y-70697741D01*
X56669397Y-70780599D01*
X56669399Y-70780601D01*
X56752260Y-70835966D01*
X56825326Y-70850500D01*
X56825328Y-70850500D01*
X57774672Y-70850500D01*
X57774674Y-70850500D01*
X57847740Y-70835966D01*
X57930601Y-70780601D01*
X57985966Y-70697740D01*
X58000500Y-70624674D01*
X58000500Y-70372281D01*
X58001375Y-70367880D01*
X58021658Y-70318912D01*
X58050500Y-70173918D01*
X58050500Y-67263582D01*
X58021658Y-67118587D01*
X57965084Y-66982005D01*
X57914938Y-66906955D01*
X57913000Y-66900566D01*
X57913000Y-64378131D01*
X57916368Y-64369999D01*
X58527500Y-63758868D01*
X58535632Y-63755500D01*
X61334985Y-63755500D01*
X61343117Y-63758868D01*
X61345271Y-63761857D01*
X62761757Y-66594828D01*
X62768296Y-66607906D01*
X62789538Y-66643021D01*
X62791692Y-66646010D01*
X62791695Y-66646013D01*
X62791699Y-66646019D01*
X62802256Y-66658426D01*
X62818318Y-66677305D01*
X62901210Y-66732687D01*
X62906197Y-66734752D01*
X62909341Y-66736055D01*
X62955060Y-66745148D01*
X63007108Y-66755500D01*
X63007109Y-66755500D01*
X67038451Y-66755500D01*
X67043411Y-66755037D01*
X67085724Y-66751088D01*
X67085743Y-66751084D01*
X67085746Y-66751084D01*
X67086581Y-66750926D01*
X67089904Y-66750301D01*
X67135492Y-66737240D01*
X67142635Y-66732679D01*
X67219510Y-66683586D01*
X67219509Y-66683586D01*
X67219512Y-66683585D01*
X67225863Y-66677492D01*
X67225875Y-66677480D01*
X67260719Y-66627593D01*
X67266867Y-66623531D01*
X67267180Y-66623051D01*
X67267181Y-66623052D01*
X67386559Y-66440330D01*
X67387708Y-66438852D01*
X67520565Y-66294531D01*
X67521961Y-66293248D01*
X67527374Y-66289035D01*
X67676753Y-66172770D01*
X67678325Y-66171743D01*
X67850822Y-66078393D01*
X67852561Y-66077631D01*
X67852570Y-66077628D01*
X68038083Y-66013940D01*
X68039896Y-66013481D01*
X68160076Y-65993428D01*
X68160075Y-65993427D01*
X68166989Y-65992274D01*
X68166992Y-65992272D01*
X68233367Y-65981197D01*
X68235260Y-65981041D01*
X68431402Y-65981041D01*
X68433294Y-65981197D01*
X68530454Y-65997411D01*
X68530455Y-65997411D01*
X68626761Y-66013480D01*
X68628580Y-66013941D01*
X68814095Y-66077628D01*
X68815834Y-66078391D01*
X68825832Y-66083801D01*
X68833185Y-66087781D01*
X68833186Y-66087781D01*
X68833620Y-66088016D01*
X68833629Y-66088021D01*
X68988326Y-66171737D01*
X68989916Y-66172776D01*
X69026981Y-66201625D01*
X69144700Y-66293249D01*
X69146098Y-66294535D01*
X69192000Y-66344397D01*
X69275331Y-66434918D01*
X69278944Y-66438842D01*
X69280107Y-66440338D01*
X69286017Y-66449383D01*
X69395006Y-66616201D01*
X69395436Y-66616913D01*
X69398841Y-66623052D01*
X69406707Y-66637235D01*
X69406710Y-66637240D01*
X69406711Y-66637241D01*
X69409106Y-66640748D01*
X69439422Y-66677303D01*
X69439424Y-66677305D01*
X69522316Y-66732687D01*
X69527303Y-66734752D01*
X69530447Y-66736055D01*
X69576166Y-66745148D01*
X69628214Y-66755500D01*
X69628215Y-66755500D01*
X92088499Y-66755500D01*
X92088500Y-66755500D01*
X92136258Y-66746001D01*
X92144889Y-66747718D01*
X92149779Y-66755037D01*
X92150000Y-66757280D01*
X92150000Y-73488500D01*
X92146632Y-73496632D01*
X92138500Y-73500000D01*
X51459864Y-73500000D01*
X51451732Y-73496632D01*
X51448364Y-73488500D01*
X51451732Y-73480368D01*
X51454114Y-73478541D01*
X51480199Y-73463480D01*
X51539790Y-73429075D01*
X52034997Y-72933868D01*
X52043129Y-72930500D01*
X52246582Y-72930500D01*
X52321518Y-72919582D01*
X52437102Y-72863076D01*
X52528076Y-72772102D01*
X52584582Y-72656518D01*
X52595500Y-72581582D01*
X52595500Y-72238418D01*
X52584582Y-72163482D01*
X52528076Y-72047898D01*
X52437102Y-71956924D01*
X52437101Y-71956923D01*
X52341796Y-71910331D01*
X52335970Y-71903734D01*
X52336516Y-71894949D01*
X52341796Y-71889669D01*
X52383771Y-71869147D01*
X52437102Y-71843076D01*
X52528076Y-71752102D01*
X52584582Y-71636518D01*
X52595500Y-71561582D01*
X52595500Y-71218418D01*
X52584582Y-71143482D01*
X52528076Y-71027898D01*
X52437102Y-70936924D01*
X52437101Y-70936923D01*
X52381949Y-70909960D01*
X52376123Y-70903363D01*
X52375500Y-70899629D01*
X52375500Y-70481860D01*
X52378868Y-70473728D01*
X52380611Y-70472298D01*
X52392978Y-70464035D01*
X52405601Y-70455601D01*
X52460966Y-70372740D01*
X52475500Y-70299674D01*
X52475500Y-69100327D01*
X52824500Y-69100327D01*
X52824500Y-70299672D01*
X52838942Y-70372281D01*
X52839034Y-70372740D01*
X52839035Y-70372741D01*
X52894397Y-70455599D01*
X52894400Y-70455602D01*
X52919388Y-70472298D01*
X52977260Y-70510966D01*
X53050326Y-70525500D01*
X53334369Y-70525500D01*
X53342501Y-70528868D01*
X53392048Y-70578415D01*
X53392049Y-70578416D01*
X53496584Y-70682951D01*
X53619505Y-70765084D01*
X53756087Y-70821658D01*
X53901082Y-70850500D01*
X53901084Y-70850500D01*
X56074672Y-70850500D01*
X56074674Y-70850500D01*
X56147740Y-70835966D01*
X56230601Y-70780601D01*
X56285966Y-70697740D01*
X56300500Y-70624674D01*
X56300500Y-70372281D01*
X56301375Y-70367880D01*
X56321658Y-70318912D01*
X56350500Y-70173918D01*
X56350500Y-70026082D01*
X56321658Y-69881087D01*
X56301375Y-69832118D01*
X56300500Y-69827717D01*
X56300500Y-69575327D01*
X56285966Y-69502262D01*
X56285966Y-69502260D01*
X56230601Y-69419399D01*
X56230599Y-69419397D01*
X56147741Y-69364035D01*
X56147742Y-69364035D01*
X56147740Y-69364034D01*
X56147738Y-69364033D01*
X56147737Y-69364033D01*
X56109990Y-69356525D01*
X56074674Y-69349500D01*
X56074672Y-69349500D01*
X54290632Y-69349500D01*
X54282500Y-69346132D01*
X54205806Y-69269438D01*
X54053416Y-69117048D01*
X54046903Y-69112696D01*
X53930496Y-69034917D01*
X53912015Y-69027262D01*
X53793912Y-68978342D01*
X53793910Y-68978341D01*
X53722891Y-68964214D01*
X53715573Y-68959324D01*
X53705602Y-68944400D01*
X53705599Y-68944397D01*
X53622741Y-68889035D01*
X53622742Y-68889035D01*
X53622740Y-68889034D01*
X53622738Y-68889033D01*
X53622737Y-68889033D01*
X53585957Y-68881717D01*
X53549674Y-68874500D01*
X53050326Y-68874500D01*
X53021260Y-68880281D01*
X52977262Y-68889033D01*
X52977258Y-68889035D01*
X52894400Y-68944397D01*
X52894397Y-68944400D01*
X52839035Y-69027258D01*
X52839033Y-69027262D01*
X52824500Y-69100327D01*
X52475500Y-69100327D01*
X52475500Y-69100326D01*
X52460966Y-69027260D01*
X52418220Y-68963285D01*
X52405602Y-68944400D01*
X52405599Y-68944397D01*
X52370521Y-68920960D01*
X52365802Y-68914374D01*
X52359012Y-68889033D01*
X52349911Y-68855063D01*
X52300475Y-68769437D01*
X52030563Y-68499526D01*
X52030562Y-68499525D01*
X52030561Y-68499524D01*
X51944942Y-68450092D01*
X51944940Y-68450091D01*
X51944938Y-68450090D01*
X51944934Y-68450089D01*
X51944932Y-68450088D01*
X51897186Y-68437295D01*
X51897185Y-68437294D01*
X51849436Y-68424500D01*
X51849435Y-68424500D01*
X50899436Y-68424500D01*
X50800564Y-68424500D01*
X50752813Y-68437295D01*
X50705063Y-68450089D01*
X50619438Y-68499524D01*
X49849524Y-69269438D01*
X49800090Y-69355061D01*
X49799698Y-69356525D01*
X49774553Y-69450367D01*
X49774545Y-69450396D01*
X49774500Y-69450562D01*
X49774500Y-69640004D01*
X49771132Y-69648136D01*
X49423136Y-69996132D01*
X49415004Y-69999500D01*
X44575564Y-69999500D01*
X44527813Y-70012295D01*
X44480063Y-70025089D01*
X44394438Y-70074524D01*
X44394437Y-70074526D01*
X43923193Y-70545768D01*
X43915061Y-70549136D01*
X43910907Y-70548359D01*
X43752461Y-70486977D01*
X43551978Y-70449500D01*
X43551976Y-70449500D01*
X43348024Y-70449500D01*
X43348021Y-70449500D01*
X43147538Y-70486977D01*
X42957373Y-70560647D01*
X42957361Y-70560653D01*
X42783959Y-70668018D01*
X42721552Y-70724910D01*
X42633236Y-70805421D01*
X42633234Y-70805423D01*
X42633228Y-70805429D01*
X42510329Y-70968174D01*
X42510327Y-70968177D01*
X42419418Y-71150748D01*
X42363602Y-71346919D01*
X42344785Y-71550000D01*
X42363602Y-71753080D01*
X42419418Y-71949251D01*
X42510327Y-72131822D01*
X42510329Y-72131825D01*
X42633228Y-72294570D01*
X42633231Y-72294573D01*
X42633236Y-72294579D01*
X42783959Y-72431981D01*
X42957363Y-72539348D01*
X42957371Y-72539351D01*
X42957373Y-72539352D01*
X43147538Y-72613022D01*
X43147539Y-72613022D01*
X43147544Y-72613024D01*
X43348024Y-72650500D01*
X43551976Y-72650500D01*
X43752456Y-72613024D01*
X43942637Y-72539348D01*
X44116041Y-72431981D01*
X44266764Y-72294579D01*
X44305577Y-72243183D01*
X44389670Y-72131825D01*
X44389672Y-72131822D01*
X44389671Y-72131822D01*
X44389673Y-72131821D01*
X44480582Y-71949250D01*
X44536397Y-71753083D01*
X44555215Y-71550000D01*
X44536397Y-71346917D01*
X44480582Y-71150750D01*
X44450929Y-71091200D01*
X44450320Y-71082420D01*
X44453090Y-71077945D01*
X44777169Y-70753868D01*
X44785301Y-70750500D01*
X45203797Y-70750500D01*
X45211929Y-70753868D01*
X45215297Y-70762000D01*
X45211929Y-70770132D01*
X45211566Y-70770478D01*
X45173236Y-70805421D01*
X45173234Y-70805423D01*
X45173228Y-70805429D01*
X45050329Y-70968174D01*
X45050327Y-70968177D01*
X44959418Y-71150748D01*
X44903602Y-71346919D01*
X44884785Y-71550000D01*
X44903602Y-71753080D01*
X44959418Y-71949251D01*
X45050327Y-72131822D01*
X45050329Y-72131825D01*
X45173228Y-72294570D01*
X45173231Y-72294573D01*
X45173236Y-72294579D01*
X45323959Y-72431981D01*
X45497363Y-72539348D01*
X45497371Y-72539351D01*
X45497373Y-72539352D01*
X45687538Y-72613022D01*
X45687539Y-72613022D01*
X45687544Y-72613024D01*
X45888024Y-72650500D01*
X46091976Y-72650500D01*
X46292456Y-72613024D01*
X46482637Y-72539348D01*
X46656041Y-72431981D01*
X46806764Y-72294579D01*
X46845577Y-72243183D01*
X46929670Y-72131825D01*
X46929672Y-72131822D01*
X46929671Y-72131822D01*
X46929673Y-72131821D01*
X47020582Y-71949250D01*
X47021185Y-71947132D01*
X47024394Y-71935853D01*
X47029859Y-71928953D01*
X47035455Y-71927500D01*
X48772053Y-71927500D01*
X48780185Y-71930868D01*
X48783553Y-71939000D01*
X48780185Y-71947132D01*
X48779679Y-71947608D01*
X48759521Y-71965465D01*
X48759515Y-71965472D01*
X48669780Y-72095477D01*
X48613763Y-72243183D01*
X48613762Y-72243184D01*
X48594722Y-72399998D01*
X48594722Y-72400001D01*
X48613762Y-72556815D01*
X48613763Y-72556818D01*
X48669780Y-72704523D01*
X48688378Y-72731467D01*
X48690226Y-72740073D01*
X48685447Y-72747464D01*
X48678914Y-72749500D01*
X42648129Y-72749500D01*
X42639997Y-72746132D01*
X42013868Y-72120003D01*
X42010500Y-72111871D01*
X42010500Y-70675327D01*
X42010500Y-70675326D01*
X41995966Y-70602260D01*
X41946928Y-70528868D01*
X41940602Y-70519400D01*
X41940599Y-70519397D01*
X41884419Y-70481860D01*
X41857740Y-70464034D01*
X41857738Y-70464033D01*
X41857737Y-70464033D01*
X41815335Y-70455599D01*
X41784674Y-70449500D01*
X40035326Y-70449500D01*
X40006260Y-70455281D01*
X39962262Y-70464033D01*
X39962258Y-70464035D01*
X39879400Y-70519397D01*
X39879397Y-70519400D01*
X39824035Y-70602258D01*
X39824033Y-70602262D01*
X39823377Y-70605562D01*
X39809500Y-70675326D01*
X39809500Y-72424674D01*
X39824034Y-72497740D01*
X39824035Y-72497741D01*
X39879397Y-72580599D01*
X39879400Y-72580602D01*
X39880867Y-72581582D01*
X39962260Y-72635966D01*
X40035326Y-72650500D01*
X41471871Y-72650500D01*
X41480003Y-72653868D01*
X42255210Y-73429075D01*
X42340886Y-73478541D01*
X42346244Y-73485524D01*
X42345095Y-73494250D01*
X42338112Y-73499608D01*
X42335136Y-73500000D01*
X26511500Y-73500000D01*
X26503368Y-73496632D01*
X26500000Y-73488500D01*
X26500000Y-66726163D01*
X26503368Y-66718031D01*
X26511500Y-66714663D01*
X26516829Y-66715972D01*
X26534976Y-66725465D01*
X26602015Y-66745150D01*
X26674000Y-66755500D01*
X26674004Y-66755500D01*
X41993040Y-66755500D01*
X42007358Y-66755097D01*
X42007371Y-66755096D01*
X42007380Y-66755096D01*
X42021292Y-66754313D01*
X42035600Y-66753104D01*
X43563729Y-66580572D01*
X43565019Y-66580500D01*
X46514369Y-66580500D01*
X46522501Y-66583868D01*
X47429548Y-67490915D01*
X47429549Y-67490916D01*
X47534084Y-67595451D01*
X47657005Y-67677584D01*
X47793587Y-67734158D01*
X47863244Y-67748013D01*
X47870562Y-67752903D01*
X47872500Y-67759292D01*
X47872500Y-67960200D01*
X47869132Y-67968332D01*
X47868626Y-67968808D01*
X47759521Y-68065465D01*
X47759515Y-68065472D01*
X47669780Y-68195477D01*
X47613763Y-68343183D01*
X47613762Y-68343184D01*
X47594722Y-68499998D01*
X47594722Y-68500001D01*
X47613762Y-68656815D01*
X47613763Y-68656818D01*
X47669780Y-68804523D01*
X47759517Y-68934530D01*
X47759519Y-68934532D01*
X47759521Y-68934534D01*
X47808970Y-68978341D01*
X47877760Y-69039283D01*
X48017635Y-69112696D01*
X48171015Y-69150500D01*
X48171018Y-69150500D01*
X48328982Y-69150500D01*
X48328985Y-69150500D01*
X48482365Y-69112696D01*
X48622240Y-69039283D01*
X48740483Y-68934530D01*
X48830220Y-68804523D01*
X48886237Y-68656818D01*
X48905278Y-68500000D01*
X48905220Y-68499526D01*
X48886237Y-68343184D01*
X48886237Y-68343182D01*
X48830220Y-68195477D01*
X48740483Y-68065470D01*
X48740480Y-68065467D01*
X48740478Y-68065465D01*
X48631374Y-67968808D01*
X48627521Y-67960894D01*
X48627500Y-67960200D01*
X48627500Y-67774500D01*
X48630868Y-67766368D01*
X48639000Y-67763000D01*
X48676082Y-67763000D01*
X50712899Y-67763000D01*
X50718987Y-67764848D01*
X50719005Y-67764816D01*
X50719166Y-67764902D01*
X50719290Y-67764939D01*
X50719506Y-67765084D01*
X50856088Y-67821659D01*
X50927107Y-67835784D01*
X50934425Y-67840674D01*
X50944397Y-67855599D01*
X50944399Y-67855601D01*
X51027260Y-67910966D01*
X51100326Y-67925500D01*
X51100328Y-67925500D01*
X51599672Y-67925500D01*
X51599674Y-67925500D01*
X51672740Y-67910966D01*
X51672741Y-67910964D01*
X51672756Y-67910962D01*
X51677244Y-67910962D01*
X51677258Y-67910964D01*
X51677260Y-67910966D01*
X51750326Y-67925500D01*
X51750328Y-67925500D01*
X52249672Y-67925500D01*
X52249674Y-67925500D01*
X52322740Y-67910966D01*
X52322741Y-67910964D01*
X52322756Y-67910962D01*
X52327244Y-67910962D01*
X52327258Y-67910964D01*
X52327260Y-67910966D01*
X52400326Y-67925500D01*
X52400328Y-67925500D01*
X52899672Y-67925500D01*
X52899674Y-67925500D01*
X52972740Y-67910966D01*
X52972741Y-67910964D01*
X52972756Y-67910962D01*
X52977244Y-67910962D01*
X52977258Y-67910964D01*
X52977260Y-67910966D01*
X53050326Y-67925500D01*
X53474269Y-67925500D01*
X53476513Y-67925721D01*
X53601082Y-67950500D01*
X53748917Y-67950500D01*
X54640873Y-67950500D01*
X54649005Y-67953868D01*
X54650075Y-67955103D01*
X54690669Y-68009331D01*
X54804446Y-68094503D01*
X54937609Y-68144171D01*
X54996479Y-68150500D01*
X55578520Y-68150499D01*
X55637391Y-68144171D01*
X55770554Y-68094503D01*
X55884331Y-68009331D01*
X55969503Y-67895554D01*
X56019171Y-67762391D01*
X56025500Y-67703521D01*
X56025499Y-67337892D01*
X56025720Y-67335649D01*
X56038000Y-67273916D01*
X56038000Y-67126083D01*
X56025720Y-67064349D01*
X56025499Y-67062105D01*
X56025499Y-66696479D01*
X56019171Y-66637610D01*
X56019171Y-66637609D01*
X55969503Y-66504446D01*
X55884331Y-66390669D01*
X55770554Y-66305497D01*
X55637389Y-66255828D01*
X55578521Y-66249500D01*
X54996479Y-66249500D01*
X54937610Y-66255828D01*
X54937609Y-66255829D01*
X54804445Y-66305497D01*
X54690671Y-66390667D01*
X54690667Y-66390671D01*
X54670726Y-66417309D01*
X54650078Y-66444892D01*
X54642510Y-66449383D01*
X54640873Y-66449500D01*
X53955810Y-66449500D01*
X53949421Y-66447562D01*
X53937416Y-66439541D01*
X53930494Y-66434916D01*
X53793912Y-66378342D01*
X53793910Y-66378341D01*
X53722891Y-66364214D01*
X53715573Y-66359324D01*
X53705602Y-66344400D01*
X53705599Y-66344397D01*
X53629928Y-66293837D01*
X53622740Y-66289034D01*
X53622738Y-66289033D01*
X53622737Y-66289033D01*
X53585957Y-66281717D01*
X53549674Y-66274500D01*
X53050326Y-66274500D01*
X53049884Y-66274588D01*
X53041243Y-66276306D01*
X53032610Y-66274588D01*
X53027721Y-66267270D01*
X53027500Y-66265027D01*
X53027500Y-66261129D01*
X53030868Y-66252997D01*
X53302824Y-65981041D01*
X54052075Y-65231790D01*
X54101774Y-65145710D01*
X54127500Y-65049699D01*
X54127500Y-64950301D01*
X54127500Y-63669378D01*
X54130868Y-63661246D01*
X54139000Y-63657878D01*
X54142341Y-63658374D01*
G37*
%TD.AperFunction*%
%TA.AperFunction,Conductor*%
G36*
X68599960Y-50981197D02*
G01*
X68697120Y-50997411D01*
X68697121Y-50997411D01*
X68793427Y-51013480D01*
X68795246Y-51013941D01*
X68935416Y-51062061D01*
X68980764Y-51077630D01*
X68982503Y-51078393D01*
X69003462Y-51089735D01*
X69003464Y-51089735D01*
X69155002Y-51171742D01*
X69156588Y-51172779D01*
X69242626Y-51239744D01*
X69242630Y-51239749D01*
X69311365Y-51293247D01*
X69312763Y-51294533D01*
X69445610Y-51438842D01*
X69446776Y-51440341D01*
X69554045Y-51604527D01*
X69554949Y-51606198D01*
X69633738Y-51785820D01*
X69634355Y-51787616D01*
X69682504Y-51977751D01*
X69682817Y-51979624D01*
X69699014Y-52175090D01*
X69699014Y-52176990D01*
X69682817Y-52372456D01*
X69682504Y-52374329D01*
X69634355Y-52564466D01*
X69633738Y-52566262D01*
X69554954Y-52745873D01*
X69554050Y-52747544D01*
X69504696Y-52823087D01*
X69446776Y-52911738D01*
X69445610Y-52913237D01*
X69312762Y-53057548D01*
X69311364Y-53058834D01*
X69156598Y-53179293D01*
X69155009Y-53180331D01*
X69135306Y-53190996D01*
X69135305Y-53190997D01*
X68982505Y-53273687D01*
X68980766Y-53274450D01*
X68795260Y-53338135D01*
X68793419Y-53338601D01*
X68599961Y-53370884D01*
X68598068Y-53371041D01*
X68401928Y-53371041D01*
X68400035Y-53370884D01*
X68206573Y-53338600D01*
X68204737Y-53338135D01*
X68159376Y-53322563D01*
X68019230Y-53274450D01*
X68017491Y-53273687D01*
X67936719Y-53229977D01*
X67844991Y-53180337D01*
X67843401Y-53179298D01*
X67688630Y-53058834D01*
X67687232Y-53057548D01*
X67554384Y-52913237D01*
X67554379Y-52913232D01*
X67553218Y-52911738D01*
X67445946Y-52747548D01*
X67445044Y-52745881D01*
X67445040Y-52745873D01*
X67436048Y-52725374D01*
X67366256Y-52566262D01*
X67365639Y-52564466D01*
X67348428Y-52496500D01*
X67317489Y-52374325D01*
X67317178Y-52372464D01*
X67300980Y-52176982D01*
X67300980Y-52175099D01*
X67317178Y-51979613D01*
X67317488Y-51977756D01*
X67365640Y-51787610D01*
X67366256Y-51785817D01*
X67375251Y-51765310D01*
X67445046Y-51606193D01*
X67445943Y-51604536D01*
X67553225Y-51440330D01*
X67554374Y-51438852D01*
X67687231Y-51294531D01*
X67688627Y-51293248D01*
X67843419Y-51172770D01*
X67844991Y-51171743D01*
X68017488Y-51078393D01*
X68019227Y-51077631D01*
X68019230Y-51077630D01*
X68204749Y-51013940D01*
X68206562Y-51013481D01*
X68326742Y-50993428D01*
X68326741Y-50993427D01*
X68333655Y-50992274D01*
X68333658Y-50992272D01*
X68400033Y-50981197D01*
X68401926Y-50981041D01*
X68598068Y-50981041D01*
X68599960Y-50981197D01*
G37*
%TD.AperFunction*%
%TA.AperFunction,Conductor*%
G36*
X68266628Y-35981197D02*
G01*
X68363788Y-35997411D01*
X68363789Y-35997411D01*
X68460095Y-36013480D01*
X68461914Y-36013941D01*
X68602084Y-36062061D01*
X68647432Y-36077630D01*
X68649171Y-36078393D01*
X68670130Y-36089735D01*
X68670132Y-36089735D01*
X68821670Y-36171742D01*
X68823256Y-36172779D01*
X68909294Y-36239744D01*
X68909298Y-36239749D01*
X68978033Y-36293247D01*
X68979431Y-36294533D01*
X69112278Y-36438842D01*
X69113444Y-36440341D01*
X69220715Y-36604531D01*
X69221619Y-36606201D01*
X69254041Y-36680114D01*
X69254041Y-36680115D01*
X69300406Y-36785818D01*
X69301023Y-36787614D01*
X69349172Y-36977751D01*
X69349485Y-36979624D01*
X69365682Y-37175090D01*
X69365682Y-37176990D01*
X69349485Y-37372456D01*
X69349172Y-37374329D01*
X69301023Y-37564464D01*
X69300406Y-37566260D01*
X69221620Y-37745874D01*
X69220717Y-37747544D01*
X69212417Y-37760250D01*
X69212413Y-37760256D01*
X69113442Y-37911740D01*
X69112276Y-37913239D01*
X68979430Y-38057548D01*
X68978032Y-38058834D01*
X68823266Y-38179293D01*
X68821677Y-38180331D01*
X68801974Y-38190996D01*
X68801973Y-38190997D01*
X68649173Y-38273687D01*
X68647434Y-38274450D01*
X68461928Y-38338135D01*
X68460087Y-38338601D01*
X68266629Y-38370884D01*
X68264736Y-38371041D01*
X68068596Y-38371041D01*
X68066703Y-38370884D01*
X67873241Y-38338600D01*
X67871405Y-38338135D01*
X67826044Y-38322563D01*
X67685898Y-38274450D01*
X67684159Y-38273687D01*
X67603387Y-38229977D01*
X67511659Y-38180337D01*
X67510069Y-38179298D01*
X67355298Y-38058834D01*
X67353900Y-38057548D01*
X67221054Y-37913239D01*
X67221047Y-37913232D01*
X67219889Y-37911742D01*
X67112614Y-37747548D01*
X67111712Y-37745881D01*
X67032924Y-37566262D01*
X67032307Y-37564466D01*
X66984157Y-37374325D01*
X66983846Y-37372464D01*
X66967648Y-37176982D01*
X66967648Y-37175099D01*
X66983846Y-36979613D01*
X66984156Y-36977756D01*
X67032308Y-36787610D01*
X67032924Y-36785817D01*
X67081155Y-36675862D01*
X67111714Y-36606193D01*
X67112614Y-36604531D01*
X67219893Y-36440330D01*
X67221042Y-36438852D01*
X67353899Y-36294531D01*
X67355295Y-36293248D01*
X67510087Y-36172770D01*
X67511659Y-36171743D01*
X67684156Y-36078393D01*
X67685895Y-36077631D01*
X67685898Y-36077630D01*
X67871417Y-36013940D01*
X67873230Y-36013481D01*
X67993410Y-35993428D01*
X67993409Y-35993427D01*
X68000323Y-35992274D01*
X68000326Y-35992272D01*
X68066701Y-35981197D01*
X68068594Y-35981041D01*
X68264736Y-35981041D01*
X68266628Y-35981197D01*
G37*
%TD.AperFunction*%
%TA.AperFunction,Conductor*%
G36*
X68099962Y-20981197D02*
G01*
X68197122Y-20997411D01*
X68197123Y-20997411D01*
X68293429Y-21013480D01*
X68295248Y-21013941D01*
X68435418Y-21062061D01*
X68480766Y-21077630D01*
X68482505Y-21078393D01*
X68503464Y-21089735D01*
X68503466Y-21089735D01*
X68655004Y-21171742D01*
X68656590Y-21172779D01*
X68742628Y-21239744D01*
X68742632Y-21239749D01*
X68811367Y-21293247D01*
X68812765Y-21294533D01*
X68945612Y-21438842D01*
X68946778Y-21440341D01*
X69054047Y-21604527D01*
X69054951Y-21606198D01*
X69133740Y-21785820D01*
X69134357Y-21787616D01*
X69182506Y-21977751D01*
X69182819Y-21979624D01*
X69199016Y-22175090D01*
X69199016Y-22176990D01*
X69182819Y-22372456D01*
X69182506Y-22374329D01*
X69134357Y-22564466D01*
X69133740Y-22566262D01*
X69054956Y-22745873D01*
X69054052Y-22747544D01*
X69004698Y-22823087D01*
X68946778Y-22911738D01*
X68945612Y-22913237D01*
X68812764Y-23057548D01*
X68811366Y-23058834D01*
X68656600Y-23179293D01*
X68655011Y-23180331D01*
X68635308Y-23190996D01*
X68635307Y-23190997D01*
X68482507Y-23273687D01*
X68480768Y-23274450D01*
X68295262Y-23338135D01*
X68293421Y-23338601D01*
X68099963Y-23370884D01*
X68098070Y-23371041D01*
X67901930Y-23371041D01*
X67900037Y-23370884D01*
X67706575Y-23338600D01*
X67704739Y-23338135D01*
X67659378Y-23322563D01*
X67519232Y-23274450D01*
X67517493Y-23273687D01*
X67436721Y-23229977D01*
X67344993Y-23180337D01*
X67343403Y-23179298D01*
X67188632Y-23058834D01*
X67187234Y-23057548D01*
X67054386Y-22913237D01*
X67054381Y-22913232D01*
X67053220Y-22911738D01*
X66945948Y-22747548D01*
X66945046Y-22745881D01*
X66945042Y-22745873D01*
X66936050Y-22725374D01*
X66866258Y-22566262D01*
X66865641Y-22564466D01*
X66837335Y-22452689D01*
X66817491Y-22374325D01*
X66817180Y-22372464D01*
X66800982Y-22176982D01*
X66800982Y-22175099D01*
X66817180Y-21979613D01*
X66817490Y-21977756D01*
X66865642Y-21787610D01*
X66866258Y-21785817D01*
X66875253Y-21765310D01*
X66945048Y-21606193D01*
X66945945Y-21604536D01*
X67053227Y-21440330D01*
X67054376Y-21438852D01*
X67187233Y-21294531D01*
X67188629Y-21293248D01*
X67343421Y-21172770D01*
X67344993Y-21171743D01*
X67517490Y-21078393D01*
X67519229Y-21077631D01*
X67519232Y-21077630D01*
X67704751Y-21013940D01*
X67706564Y-21013481D01*
X67826744Y-20993428D01*
X67826743Y-20993427D01*
X67833657Y-20992274D01*
X67833660Y-20992272D01*
X67900035Y-20981197D01*
X67901928Y-20981041D01*
X68098070Y-20981041D01*
X68099962Y-20981197D01*
G37*
%TD.AperFunction*%
%TD*%
M02*
