%TF.GenerationSoftware,KiCad,Pcbnew,8.0.7*%
%TF.CreationDate,2025-01-17T01:55:08+01:00*%
%TF.ProjectId,RP_MPQ5850_Test,52505f4d-5051-4353-9835-305f54657374,rev?*%
%TF.SameCoordinates,Original*%
%TF.FileFunction,Legend,Top*%
%TF.FilePolarity,Positive*%
%FSLAX46Y46*%
G04 Gerber Fmt 4.6, Leading zero omitted, Abs format (unit mm)*
G04 Created by KiCad (PCBNEW 8.0.7) date 2025-01-17 01:55:08*
%MOMM*%
%LPD*%
G01*
G04 APERTURE LIST*
G04 Aperture macros list*
%AMRoundRect*
0 Rectangle with rounded corners*
0 $1 Rounding radius*
0 $2 $3 $4 $5 $6 $7 $8 $9 X,Y pos of 4 corners*
0 Add a 4 corners polygon primitive as box body*
4,1,4,$2,$3,$4,$5,$6,$7,$8,$9,$2,$3,0*
0 Add four circle primitives for the rounded corners*
1,1,$1+$1,$2,$3*
1,1,$1+$1,$4,$5*
1,1,$1+$1,$6,$7*
1,1,$1+$1,$8,$9*
0 Add four rect primitives between the rounded corners*
20,1,$1+$1,$2,$3,$4,$5,0*
20,1,$1+$1,$4,$5,$6,$7,0*
20,1,$1+$1,$6,$7,$8,$9,0*
20,1,$1+$1,$8,$9,$2,$3,0*%
G04 Aperture macros list end*
%ADD10C,0.300000*%
%ADD11C,0.150000*%
%ADD12C,0.100000*%
%ADD13C,0.200000*%
%ADD14C,0.250000*%
%ADD15C,0.120000*%
%ADD16C,0.000000*%
%ADD17R,2.850000X0.549000*%
%ADD18R,3.800180X0.712130*%
%ADD19R,3.800180X0.516000*%
%ADD20R,3.800180X0.531870*%
%ADD21R,0.400000X0.532870*%
%ADD22R,0.399550X0.516000*%
%ADD23R,0.410000X0.770000*%
%ADD24R,0.410000X0.491130*%
%ADD25R,0.500000X1.200000*%
%ADD26RoundRect,0.135000X-0.185000X0.135000X-0.185000X-0.135000X0.185000X-0.135000X0.185000X0.135000X0*%
%ADD27RoundRect,0.250000X-0.625000X0.375000X-0.625000X-0.375000X0.625000X-0.375000X0.625000X0.375000X0*%
%ADD28R,0.450000X1.150000*%
%ADD29R,1.700000X1.700000*%
%ADD30O,1.700000X1.700000*%
%ADD31C,6.400000*%
%ADD32C,12.000000*%
%ADD33R,2.400000X2.400000*%
%ADD34C,2.400000*%
%ADD35RoundRect,0.250000X0.900000X-1.000000X0.900000X1.000000X-0.900000X1.000000X-0.900000X-1.000000X0*%
%ADD36RoundRect,0.218750X-0.256250X0.218750X-0.256250X-0.218750X0.256250X-0.218750X0.256250X0.218750X0*%
%ADD37RoundRect,0.243750X0.243750X0.456250X-0.243750X0.456250X-0.243750X-0.456250X0.243750X-0.456250X0*%
%ADD38R,0.900000X1.000000*%
%ADD39RoundRect,0.135000X0.185000X-0.135000X0.185000X0.135000X-0.185000X0.135000X-0.185000X-0.135000X0*%
G04 APERTURE END LIST*
D10*
X32340225Y-67300828D02*
X32840225Y-68800828D01*
X32840225Y-68800828D02*
X33340225Y-67300828D01*
X33840224Y-68800828D02*
X33840224Y-67300828D01*
X34554510Y-68800828D02*
X34554510Y-67300828D01*
X34554510Y-67300828D02*
X35411653Y-68800828D01*
X35411653Y-68800828D02*
X35411653Y-67300828D01*
D11*
X73536779Y-72619819D02*
X73536779Y-71619819D01*
X73536779Y-71619819D02*
X73870112Y-72334104D01*
X73870112Y-72334104D02*
X74203445Y-71619819D01*
X74203445Y-71619819D02*
X74203445Y-72619819D01*
X74679636Y-72619819D02*
X74679636Y-71619819D01*
X74679636Y-71619819D02*
X75060588Y-71619819D01*
X75060588Y-71619819D02*
X75155826Y-71667438D01*
X75155826Y-71667438D02*
X75203445Y-71715057D01*
X75203445Y-71715057D02*
X75251064Y-71810295D01*
X75251064Y-71810295D02*
X75251064Y-71953152D01*
X75251064Y-71953152D02*
X75203445Y-72048390D01*
X75203445Y-72048390D02*
X75155826Y-72096009D01*
X75155826Y-72096009D02*
X75060588Y-72143628D01*
X75060588Y-72143628D02*
X74679636Y-72143628D01*
X76346302Y-72715057D02*
X76251064Y-72667438D01*
X76251064Y-72667438D02*
X76155826Y-72572200D01*
X76155826Y-72572200D02*
X76012969Y-72429342D01*
X76012969Y-72429342D02*
X75917731Y-72381723D01*
X75917731Y-72381723D02*
X75822493Y-72381723D01*
X75870112Y-72619819D02*
X75774874Y-72572200D01*
X75774874Y-72572200D02*
X75679636Y-72476961D01*
X75679636Y-72476961D02*
X75632017Y-72286485D01*
X75632017Y-72286485D02*
X75632017Y-71953152D01*
X75632017Y-71953152D02*
X75679636Y-71762676D01*
X75679636Y-71762676D02*
X75774874Y-71667438D01*
X75774874Y-71667438D02*
X75870112Y-71619819D01*
X75870112Y-71619819D02*
X76060588Y-71619819D01*
X76060588Y-71619819D02*
X76155826Y-71667438D01*
X76155826Y-71667438D02*
X76251064Y-71762676D01*
X76251064Y-71762676D02*
X76298683Y-71953152D01*
X76298683Y-71953152D02*
X76298683Y-72286485D01*
X76298683Y-72286485D02*
X76251064Y-72476961D01*
X76251064Y-72476961D02*
X76155826Y-72572200D01*
X76155826Y-72572200D02*
X76060588Y-72619819D01*
X76060588Y-72619819D02*
X75870112Y-72619819D01*
X77203445Y-71619819D02*
X76727255Y-71619819D01*
X76727255Y-71619819D02*
X76679636Y-72096009D01*
X76679636Y-72096009D02*
X76727255Y-72048390D01*
X76727255Y-72048390D02*
X76822493Y-72000771D01*
X76822493Y-72000771D02*
X77060588Y-72000771D01*
X77060588Y-72000771D02*
X77155826Y-72048390D01*
X77155826Y-72048390D02*
X77203445Y-72096009D01*
X77203445Y-72096009D02*
X77251064Y-72191247D01*
X77251064Y-72191247D02*
X77251064Y-72429342D01*
X77251064Y-72429342D02*
X77203445Y-72524580D01*
X77203445Y-72524580D02*
X77155826Y-72572200D01*
X77155826Y-72572200D02*
X77060588Y-72619819D01*
X77060588Y-72619819D02*
X76822493Y-72619819D01*
X76822493Y-72619819D02*
X76727255Y-72572200D01*
X76727255Y-72572200D02*
X76679636Y-72524580D01*
X77822493Y-72048390D02*
X77727255Y-72000771D01*
X77727255Y-72000771D02*
X77679636Y-71953152D01*
X77679636Y-71953152D02*
X77632017Y-71857914D01*
X77632017Y-71857914D02*
X77632017Y-71810295D01*
X77632017Y-71810295D02*
X77679636Y-71715057D01*
X77679636Y-71715057D02*
X77727255Y-71667438D01*
X77727255Y-71667438D02*
X77822493Y-71619819D01*
X77822493Y-71619819D02*
X78012969Y-71619819D01*
X78012969Y-71619819D02*
X78108207Y-71667438D01*
X78108207Y-71667438D02*
X78155826Y-71715057D01*
X78155826Y-71715057D02*
X78203445Y-71810295D01*
X78203445Y-71810295D02*
X78203445Y-71857914D01*
X78203445Y-71857914D02*
X78155826Y-71953152D01*
X78155826Y-71953152D02*
X78108207Y-72000771D01*
X78108207Y-72000771D02*
X78012969Y-72048390D01*
X78012969Y-72048390D02*
X77822493Y-72048390D01*
X77822493Y-72048390D02*
X77727255Y-72096009D01*
X77727255Y-72096009D02*
X77679636Y-72143628D01*
X77679636Y-72143628D02*
X77632017Y-72238866D01*
X77632017Y-72238866D02*
X77632017Y-72429342D01*
X77632017Y-72429342D02*
X77679636Y-72524580D01*
X77679636Y-72524580D02*
X77727255Y-72572200D01*
X77727255Y-72572200D02*
X77822493Y-72619819D01*
X77822493Y-72619819D02*
X78012969Y-72619819D01*
X78012969Y-72619819D02*
X78108207Y-72572200D01*
X78108207Y-72572200D02*
X78155826Y-72524580D01*
X78155826Y-72524580D02*
X78203445Y-72429342D01*
X78203445Y-72429342D02*
X78203445Y-72238866D01*
X78203445Y-72238866D02*
X78155826Y-72143628D01*
X78155826Y-72143628D02*
X78108207Y-72096009D01*
X78108207Y-72096009D02*
X78012969Y-72048390D01*
X79108207Y-71619819D02*
X78632017Y-71619819D01*
X78632017Y-71619819D02*
X78584398Y-72096009D01*
X78584398Y-72096009D02*
X78632017Y-72048390D01*
X78632017Y-72048390D02*
X78727255Y-72000771D01*
X78727255Y-72000771D02*
X78965350Y-72000771D01*
X78965350Y-72000771D02*
X79060588Y-72048390D01*
X79060588Y-72048390D02*
X79108207Y-72096009D01*
X79108207Y-72096009D02*
X79155826Y-72191247D01*
X79155826Y-72191247D02*
X79155826Y-72429342D01*
X79155826Y-72429342D02*
X79108207Y-72524580D01*
X79108207Y-72524580D02*
X79060588Y-72572200D01*
X79060588Y-72572200D02*
X78965350Y-72619819D01*
X78965350Y-72619819D02*
X78727255Y-72619819D01*
X78727255Y-72619819D02*
X78632017Y-72572200D01*
X78632017Y-72572200D02*
X78584398Y-72524580D01*
X79774874Y-71619819D02*
X79870112Y-71619819D01*
X79870112Y-71619819D02*
X79965350Y-71667438D01*
X79965350Y-71667438D02*
X80012969Y-71715057D01*
X80012969Y-71715057D02*
X80060588Y-71810295D01*
X80060588Y-71810295D02*
X80108207Y-72000771D01*
X80108207Y-72000771D02*
X80108207Y-72238866D01*
X80108207Y-72238866D02*
X80060588Y-72429342D01*
X80060588Y-72429342D02*
X80012969Y-72524580D01*
X80012969Y-72524580D02*
X79965350Y-72572200D01*
X79965350Y-72572200D02*
X79870112Y-72619819D01*
X79870112Y-72619819D02*
X79774874Y-72619819D01*
X79774874Y-72619819D02*
X79679636Y-72572200D01*
X79679636Y-72572200D02*
X79632017Y-72524580D01*
X79632017Y-72524580D02*
X79584398Y-72429342D01*
X79584398Y-72429342D02*
X79536779Y-72238866D01*
X79536779Y-72238866D02*
X79536779Y-72000771D01*
X79536779Y-72000771D02*
X79584398Y-71810295D01*
X79584398Y-71810295D02*
X79632017Y-71715057D01*
X79632017Y-71715057D02*
X79679636Y-71667438D01*
X79679636Y-71667438D02*
X79774874Y-71619819D01*
X81155827Y-71619819D02*
X81727255Y-71619819D01*
X81441541Y-72619819D02*
X81441541Y-71619819D01*
X82060589Y-72096009D02*
X82393922Y-72096009D01*
X82536779Y-72619819D02*
X82060589Y-72619819D01*
X82060589Y-72619819D02*
X82060589Y-71619819D01*
X82060589Y-71619819D02*
X82536779Y-71619819D01*
X82917732Y-72572200D02*
X83060589Y-72619819D01*
X83060589Y-72619819D02*
X83298684Y-72619819D01*
X83298684Y-72619819D02*
X83393922Y-72572200D01*
X83393922Y-72572200D02*
X83441541Y-72524580D01*
X83441541Y-72524580D02*
X83489160Y-72429342D01*
X83489160Y-72429342D02*
X83489160Y-72334104D01*
X83489160Y-72334104D02*
X83441541Y-72238866D01*
X83441541Y-72238866D02*
X83393922Y-72191247D01*
X83393922Y-72191247D02*
X83298684Y-72143628D01*
X83298684Y-72143628D02*
X83108208Y-72096009D01*
X83108208Y-72096009D02*
X83012970Y-72048390D01*
X83012970Y-72048390D02*
X82965351Y-72000771D01*
X82965351Y-72000771D02*
X82917732Y-71905533D01*
X82917732Y-71905533D02*
X82917732Y-71810295D01*
X82917732Y-71810295D02*
X82965351Y-71715057D01*
X82965351Y-71715057D02*
X83012970Y-71667438D01*
X83012970Y-71667438D02*
X83108208Y-71619819D01*
X83108208Y-71619819D02*
X83346303Y-71619819D01*
X83346303Y-71619819D02*
X83489160Y-71667438D01*
X83774875Y-71619819D02*
X84346303Y-71619819D01*
X84060589Y-72619819D02*
X84060589Y-71619819D01*
X85774875Y-72096009D02*
X85917732Y-72143628D01*
X85917732Y-72143628D02*
X85965351Y-72191247D01*
X85965351Y-72191247D02*
X86012970Y-72286485D01*
X86012970Y-72286485D02*
X86012970Y-72429342D01*
X86012970Y-72429342D02*
X85965351Y-72524580D01*
X85965351Y-72524580D02*
X85917732Y-72572200D01*
X85917732Y-72572200D02*
X85822494Y-72619819D01*
X85822494Y-72619819D02*
X85441542Y-72619819D01*
X85441542Y-72619819D02*
X85441542Y-71619819D01*
X85441542Y-71619819D02*
X85774875Y-71619819D01*
X85774875Y-71619819D02*
X85870113Y-71667438D01*
X85870113Y-71667438D02*
X85917732Y-71715057D01*
X85917732Y-71715057D02*
X85965351Y-71810295D01*
X85965351Y-71810295D02*
X85965351Y-71905533D01*
X85965351Y-71905533D02*
X85917732Y-72000771D01*
X85917732Y-72000771D02*
X85870113Y-72048390D01*
X85870113Y-72048390D02*
X85774875Y-72096009D01*
X85774875Y-72096009D02*
X85441542Y-72096009D01*
X86632018Y-71619819D02*
X86822494Y-71619819D01*
X86822494Y-71619819D02*
X86917732Y-71667438D01*
X86917732Y-71667438D02*
X87012970Y-71762676D01*
X87012970Y-71762676D02*
X87060589Y-71953152D01*
X87060589Y-71953152D02*
X87060589Y-72286485D01*
X87060589Y-72286485D02*
X87012970Y-72476961D01*
X87012970Y-72476961D02*
X86917732Y-72572200D01*
X86917732Y-72572200D02*
X86822494Y-72619819D01*
X86822494Y-72619819D02*
X86632018Y-72619819D01*
X86632018Y-72619819D02*
X86536780Y-72572200D01*
X86536780Y-72572200D02*
X86441542Y-72476961D01*
X86441542Y-72476961D02*
X86393923Y-72286485D01*
X86393923Y-72286485D02*
X86393923Y-71953152D01*
X86393923Y-71953152D02*
X86441542Y-71762676D01*
X86441542Y-71762676D02*
X86536780Y-71667438D01*
X86536780Y-71667438D02*
X86632018Y-71619819D01*
X87441542Y-72334104D02*
X87917732Y-72334104D01*
X87346304Y-72619819D02*
X87679637Y-71619819D01*
X87679637Y-71619819D02*
X88012970Y-72619819D01*
X88917732Y-72619819D02*
X88584399Y-72143628D01*
X88346304Y-72619819D02*
X88346304Y-71619819D01*
X88346304Y-71619819D02*
X88727256Y-71619819D01*
X88727256Y-71619819D02*
X88822494Y-71667438D01*
X88822494Y-71667438D02*
X88870113Y-71715057D01*
X88870113Y-71715057D02*
X88917732Y-71810295D01*
X88917732Y-71810295D02*
X88917732Y-71953152D01*
X88917732Y-71953152D02*
X88870113Y-72048390D01*
X88870113Y-72048390D02*
X88822494Y-72096009D01*
X88822494Y-72096009D02*
X88727256Y-72143628D01*
X88727256Y-72143628D02*
X88346304Y-72143628D01*
X89346304Y-72619819D02*
X89346304Y-71619819D01*
X89346304Y-71619819D02*
X89584399Y-71619819D01*
X89584399Y-71619819D02*
X89727256Y-71667438D01*
X89727256Y-71667438D02*
X89822494Y-71762676D01*
X89822494Y-71762676D02*
X89870113Y-71857914D01*
X89870113Y-71857914D02*
X89917732Y-72048390D01*
X89917732Y-72048390D02*
X89917732Y-72191247D01*
X89917732Y-72191247D02*
X89870113Y-72381723D01*
X89870113Y-72381723D02*
X89822494Y-72476961D01*
X89822494Y-72476961D02*
X89727256Y-72572200D01*
X89727256Y-72572200D02*
X89584399Y-72619819D01*
X89584399Y-72619819D02*
X89346304Y-72619819D01*
D10*
X79340225Y-67300828D02*
X79840225Y-68800828D01*
X79840225Y-68800828D02*
X80340225Y-67300828D01*
X81125939Y-67300828D02*
X81411653Y-67300828D01*
X81411653Y-67300828D02*
X81554510Y-67372257D01*
X81554510Y-67372257D02*
X81697367Y-67515114D01*
X81697367Y-67515114D02*
X81768796Y-67800828D01*
X81768796Y-67800828D02*
X81768796Y-68300828D01*
X81768796Y-68300828D02*
X81697367Y-68586542D01*
X81697367Y-68586542D02*
X81554510Y-68729400D01*
X81554510Y-68729400D02*
X81411653Y-68800828D01*
X81411653Y-68800828D02*
X81125939Y-68800828D01*
X81125939Y-68800828D02*
X80983082Y-68729400D01*
X80983082Y-68729400D02*
X80840224Y-68586542D01*
X80840224Y-68586542D02*
X80768796Y-68300828D01*
X80768796Y-68300828D02*
X80768796Y-67800828D01*
X80768796Y-67800828D02*
X80840224Y-67515114D01*
X80840224Y-67515114D02*
X80983082Y-67372257D01*
X80983082Y-67372257D02*
X81125939Y-67300828D01*
X82411653Y-67300828D02*
X82411653Y-68515114D01*
X82411653Y-68515114D02*
X82483082Y-68657971D01*
X82483082Y-68657971D02*
X82554511Y-68729400D01*
X82554511Y-68729400D02*
X82697368Y-68800828D01*
X82697368Y-68800828D02*
X82983082Y-68800828D01*
X82983082Y-68800828D02*
X83125939Y-68729400D01*
X83125939Y-68729400D02*
X83197368Y-68657971D01*
X83197368Y-68657971D02*
X83268796Y-68515114D01*
X83268796Y-68515114D02*
X83268796Y-67300828D01*
X83768797Y-67300828D02*
X84625940Y-67300828D01*
X84197368Y-68800828D02*
X84197368Y-67300828D01*
D12*
X56608646Y-46978514D02*
X56551503Y-46949942D01*
X56551503Y-46949942D02*
X56494360Y-46892800D01*
X56494360Y-46892800D02*
X56408646Y-46807085D01*
X56408646Y-46807085D02*
X56351503Y-46778514D01*
X56351503Y-46778514D02*
X56294360Y-46778514D01*
X56322931Y-46921371D02*
X56265789Y-46892800D01*
X56265789Y-46892800D02*
X56208646Y-46835657D01*
X56208646Y-46835657D02*
X56180074Y-46721371D01*
X56180074Y-46721371D02*
X56180074Y-46521371D01*
X56180074Y-46521371D02*
X56208646Y-46407085D01*
X56208646Y-46407085D02*
X56265789Y-46349942D01*
X56265789Y-46349942D02*
X56322931Y-46321371D01*
X56322931Y-46321371D02*
X56437217Y-46321371D01*
X56437217Y-46321371D02*
X56494360Y-46349942D01*
X56494360Y-46349942D02*
X56551503Y-46407085D01*
X56551503Y-46407085D02*
X56580074Y-46521371D01*
X56580074Y-46521371D02*
X56580074Y-46721371D01*
X56580074Y-46721371D02*
X56551503Y-46835657D01*
X56551503Y-46835657D02*
X56494360Y-46892800D01*
X56494360Y-46892800D02*
X56437217Y-46921371D01*
X56437217Y-46921371D02*
X56322931Y-46921371D01*
X56780074Y-46321371D02*
X57151502Y-46321371D01*
X57151502Y-46321371D02*
X56951502Y-46549942D01*
X56951502Y-46549942D02*
X57037217Y-46549942D01*
X57037217Y-46549942D02*
X57094360Y-46578514D01*
X57094360Y-46578514D02*
X57122931Y-46607085D01*
X57122931Y-46607085D02*
X57151502Y-46664228D01*
X57151502Y-46664228D02*
X57151502Y-46807085D01*
X57151502Y-46807085D02*
X57122931Y-46864228D01*
X57122931Y-46864228D02*
X57094360Y-46892800D01*
X57094360Y-46892800D02*
X57037217Y-46921371D01*
X57037217Y-46921371D02*
X56865788Y-46921371D01*
X56865788Y-46921371D02*
X56808645Y-46892800D01*
X56808645Y-46892800D02*
X56780074Y-46864228D01*
X53467371Y-64999999D02*
X53181657Y-65199999D01*
X53467371Y-65342856D02*
X52867371Y-65342856D01*
X52867371Y-65342856D02*
X52867371Y-65114285D01*
X52867371Y-65114285D02*
X52895942Y-65057142D01*
X52895942Y-65057142D02*
X52924514Y-65028571D01*
X52924514Y-65028571D02*
X52981657Y-64999999D01*
X52981657Y-64999999D02*
X53067371Y-64999999D01*
X53067371Y-64999999D02*
X53124514Y-65028571D01*
X53124514Y-65028571D02*
X53153085Y-65057142D01*
X53153085Y-65057142D02*
X53181657Y-65114285D01*
X53181657Y-65114285D02*
X53181657Y-65342856D01*
X52924514Y-64771428D02*
X52895942Y-64742856D01*
X52895942Y-64742856D02*
X52867371Y-64685714D01*
X52867371Y-64685714D02*
X52867371Y-64542856D01*
X52867371Y-64542856D02*
X52895942Y-64485714D01*
X52895942Y-64485714D02*
X52924514Y-64457142D01*
X52924514Y-64457142D02*
X52981657Y-64428571D01*
X52981657Y-64428571D02*
X53038800Y-64428571D01*
X53038800Y-64428571D02*
X53124514Y-64457142D01*
X53124514Y-64457142D02*
X53467371Y-64799999D01*
X53467371Y-64799999D02*
X53467371Y-64428571D01*
X57900000Y-64215228D02*
X57871428Y-64243800D01*
X57871428Y-64243800D02*
X57785714Y-64272371D01*
X57785714Y-64272371D02*
X57728571Y-64272371D01*
X57728571Y-64272371D02*
X57642857Y-64243800D01*
X57642857Y-64243800D02*
X57585714Y-64186657D01*
X57585714Y-64186657D02*
X57557143Y-64129514D01*
X57557143Y-64129514D02*
X57528571Y-64015228D01*
X57528571Y-64015228D02*
X57528571Y-63929514D01*
X57528571Y-63929514D02*
X57557143Y-63815228D01*
X57557143Y-63815228D02*
X57585714Y-63758085D01*
X57585714Y-63758085D02*
X57642857Y-63700942D01*
X57642857Y-63700942D02*
X57728571Y-63672371D01*
X57728571Y-63672371D02*
X57785714Y-63672371D01*
X57785714Y-63672371D02*
X57871428Y-63700942D01*
X57871428Y-63700942D02*
X57900000Y-63729514D01*
X58100000Y-63672371D02*
X58471428Y-63672371D01*
X58471428Y-63672371D02*
X58271428Y-63900942D01*
X58271428Y-63900942D02*
X58357143Y-63900942D01*
X58357143Y-63900942D02*
X58414286Y-63929514D01*
X58414286Y-63929514D02*
X58442857Y-63958085D01*
X58442857Y-63958085D02*
X58471428Y-64015228D01*
X58471428Y-64015228D02*
X58471428Y-64158085D01*
X58471428Y-64158085D02*
X58442857Y-64215228D01*
X58442857Y-64215228D02*
X58414286Y-64243800D01*
X58414286Y-64243800D02*
X58357143Y-64272371D01*
X58357143Y-64272371D02*
X58185714Y-64272371D01*
X58185714Y-64272371D02*
X58128571Y-64243800D01*
X58128571Y-64243800D02*
X58100000Y-64215228D01*
X53039286Y-71572371D02*
X53039286Y-70972371D01*
X53667857Y-71515228D02*
X53639285Y-71543800D01*
X53639285Y-71543800D02*
X53553571Y-71572371D01*
X53553571Y-71572371D02*
X53496428Y-71572371D01*
X53496428Y-71572371D02*
X53410714Y-71543800D01*
X53410714Y-71543800D02*
X53353571Y-71486657D01*
X53353571Y-71486657D02*
X53325000Y-71429514D01*
X53325000Y-71429514D02*
X53296428Y-71315228D01*
X53296428Y-71315228D02*
X53296428Y-71229514D01*
X53296428Y-71229514D02*
X53325000Y-71115228D01*
X53325000Y-71115228D02*
X53353571Y-71058085D01*
X53353571Y-71058085D02*
X53410714Y-71000942D01*
X53410714Y-71000942D02*
X53496428Y-70972371D01*
X53496428Y-70972371D02*
X53553571Y-70972371D01*
X53553571Y-70972371D02*
X53639285Y-71000942D01*
X53639285Y-71000942D02*
X53667857Y-71029514D01*
X54239285Y-71572371D02*
X53896428Y-71572371D01*
X54067857Y-71572371D02*
X54067857Y-70972371D01*
X54067857Y-70972371D02*
X54010714Y-71058085D01*
X54010714Y-71058085D02*
X53953571Y-71115228D01*
X53953571Y-71115228D02*
X53896428Y-71143800D01*
D11*
X37966666Y-71204819D02*
X37966666Y-71919104D01*
X37966666Y-71919104D02*
X37919047Y-72061961D01*
X37919047Y-72061961D02*
X37823809Y-72157200D01*
X37823809Y-72157200D02*
X37680952Y-72204819D01*
X37680952Y-72204819D02*
X37585714Y-72204819D01*
X38966666Y-72204819D02*
X38395238Y-72204819D01*
X38680952Y-72204819D02*
X38680952Y-71204819D01*
X38680952Y-71204819D02*
X38585714Y-71347676D01*
X38585714Y-71347676D02*
X38490476Y-71442914D01*
X38490476Y-71442914D02*
X38395238Y-71490533D01*
D12*
X56352333Y-63831485D02*
X56409476Y-63860057D01*
X56409476Y-63860057D02*
X56466619Y-63917200D01*
X56466619Y-63917200D02*
X56552333Y-64002914D01*
X56552333Y-64002914D02*
X56609476Y-64031485D01*
X56609476Y-64031485D02*
X56666619Y-64031485D01*
X56638048Y-63888628D02*
X56695191Y-63917200D01*
X56695191Y-63917200D02*
X56752333Y-63974342D01*
X56752333Y-63974342D02*
X56780905Y-64088628D01*
X56780905Y-64088628D02*
X56780905Y-64288628D01*
X56780905Y-64288628D02*
X56752333Y-64402914D01*
X56752333Y-64402914D02*
X56695191Y-64460057D01*
X56695191Y-64460057D02*
X56638048Y-64488628D01*
X56638048Y-64488628D02*
X56523762Y-64488628D01*
X56523762Y-64488628D02*
X56466619Y-64460057D01*
X56466619Y-64460057D02*
X56409476Y-64402914D01*
X56409476Y-64402914D02*
X56380905Y-64288628D01*
X56380905Y-64288628D02*
X56380905Y-64088628D01*
X56380905Y-64088628D02*
X56409476Y-63974342D01*
X56409476Y-63974342D02*
X56466619Y-63917200D01*
X56466619Y-63917200D02*
X56523762Y-63888628D01*
X56523762Y-63888628D02*
X56638048Y-63888628D01*
X55809477Y-63888628D02*
X56152334Y-63888628D01*
X55980905Y-63888628D02*
X55980905Y-64488628D01*
X55980905Y-64488628D02*
X56038048Y-64402914D01*
X56038048Y-64402914D02*
X56095191Y-64345771D01*
X56095191Y-64345771D02*
X56152334Y-64317200D01*
X56608646Y-29478514D02*
X56551503Y-29449942D01*
X56551503Y-29449942D02*
X56494360Y-29392800D01*
X56494360Y-29392800D02*
X56408646Y-29307085D01*
X56408646Y-29307085D02*
X56351503Y-29278514D01*
X56351503Y-29278514D02*
X56294360Y-29278514D01*
X56322931Y-29421371D02*
X56265789Y-29392800D01*
X56265789Y-29392800D02*
X56208646Y-29335657D01*
X56208646Y-29335657D02*
X56180074Y-29221371D01*
X56180074Y-29221371D02*
X56180074Y-29021371D01*
X56180074Y-29021371D02*
X56208646Y-28907085D01*
X56208646Y-28907085D02*
X56265789Y-28849942D01*
X56265789Y-28849942D02*
X56322931Y-28821371D01*
X56322931Y-28821371D02*
X56437217Y-28821371D01*
X56437217Y-28821371D02*
X56494360Y-28849942D01*
X56494360Y-28849942D02*
X56551503Y-28907085D01*
X56551503Y-28907085D02*
X56580074Y-29021371D01*
X56580074Y-29021371D02*
X56580074Y-29221371D01*
X56580074Y-29221371D02*
X56551503Y-29335657D01*
X56551503Y-29335657D02*
X56494360Y-29392800D01*
X56494360Y-29392800D02*
X56437217Y-29421371D01*
X56437217Y-29421371D02*
X56322931Y-29421371D01*
X57122931Y-28821371D02*
X56837217Y-28821371D01*
X56837217Y-28821371D02*
X56808645Y-29107085D01*
X56808645Y-29107085D02*
X56837217Y-29078514D01*
X56837217Y-29078514D02*
X56894360Y-29049942D01*
X56894360Y-29049942D02*
X57037217Y-29049942D01*
X57037217Y-29049942D02*
X57094360Y-29078514D01*
X57094360Y-29078514D02*
X57122931Y-29107085D01*
X57122931Y-29107085D02*
X57151502Y-29164228D01*
X57151502Y-29164228D02*
X57151502Y-29307085D01*
X57151502Y-29307085D02*
X57122931Y-29364228D01*
X57122931Y-29364228D02*
X57094360Y-29392800D01*
X57094360Y-29392800D02*
X57037217Y-29421371D01*
X57037217Y-29421371D02*
X56894360Y-29421371D01*
X56894360Y-29421371D02*
X56837217Y-29392800D01*
X56837217Y-29392800D02*
X56808645Y-29364228D01*
X73800000Y-55365228D02*
X73771428Y-55393800D01*
X73771428Y-55393800D02*
X73685714Y-55422371D01*
X73685714Y-55422371D02*
X73628571Y-55422371D01*
X73628571Y-55422371D02*
X73542857Y-55393800D01*
X73542857Y-55393800D02*
X73485714Y-55336657D01*
X73485714Y-55336657D02*
X73457143Y-55279514D01*
X73457143Y-55279514D02*
X73428571Y-55165228D01*
X73428571Y-55165228D02*
X73428571Y-55079514D01*
X73428571Y-55079514D02*
X73457143Y-54965228D01*
X73457143Y-54965228D02*
X73485714Y-54908085D01*
X73485714Y-54908085D02*
X73542857Y-54850942D01*
X73542857Y-54850942D02*
X73628571Y-54822371D01*
X73628571Y-54822371D02*
X73685714Y-54822371D01*
X73685714Y-54822371D02*
X73771428Y-54850942D01*
X73771428Y-54850942D02*
X73800000Y-54879514D01*
X74000000Y-54822371D02*
X74400000Y-54822371D01*
X74400000Y-54822371D02*
X74142857Y-55422371D01*
X42272371Y-66242856D02*
X41672371Y-66242856D01*
X41672371Y-66242856D02*
X41672371Y-66099999D01*
X41672371Y-66099999D02*
X41700942Y-66014285D01*
X41700942Y-66014285D02*
X41758085Y-65957142D01*
X41758085Y-65957142D02*
X41815228Y-65928571D01*
X41815228Y-65928571D02*
X41929514Y-65899999D01*
X41929514Y-65899999D02*
X42015228Y-65899999D01*
X42015228Y-65899999D02*
X42129514Y-65928571D01*
X42129514Y-65928571D02*
X42186657Y-65957142D01*
X42186657Y-65957142D02*
X42243800Y-66014285D01*
X42243800Y-66014285D02*
X42272371Y-66099999D01*
X42272371Y-66099999D02*
X42272371Y-66242856D01*
X42272371Y-65328571D02*
X42272371Y-65671428D01*
X42272371Y-65499999D02*
X41672371Y-65499999D01*
X41672371Y-65499999D02*
X41758085Y-65557142D01*
X41758085Y-65557142D02*
X41815228Y-65614285D01*
X41815228Y-65614285D02*
X41843800Y-65671428D01*
X49325000Y-65915228D02*
X49296428Y-65943800D01*
X49296428Y-65943800D02*
X49210714Y-65972371D01*
X49210714Y-65972371D02*
X49153571Y-65972371D01*
X49153571Y-65972371D02*
X49067857Y-65943800D01*
X49067857Y-65943800D02*
X49010714Y-65886657D01*
X49010714Y-65886657D02*
X48982143Y-65829514D01*
X48982143Y-65829514D02*
X48953571Y-65715228D01*
X48953571Y-65715228D02*
X48953571Y-65629514D01*
X48953571Y-65629514D02*
X48982143Y-65515228D01*
X48982143Y-65515228D02*
X49010714Y-65458085D01*
X49010714Y-65458085D02*
X49067857Y-65400942D01*
X49067857Y-65400942D02*
X49153571Y-65372371D01*
X49153571Y-65372371D02*
X49210714Y-65372371D01*
X49210714Y-65372371D02*
X49296428Y-65400942D01*
X49296428Y-65400942D02*
X49325000Y-65429514D01*
X49896428Y-65972371D02*
X49553571Y-65972371D01*
X49725000Y-65972371D02*
X49725000Y-65372371D01*
X49725000Y-65372371D02*
X49667857Y-65458085D01*
X49667857Y-65458085D02*
X49610714Y-65515228D01*
X49610714Y-65515228D02*
X49553571Y-65543800D01*
X56100000Y-65815228D02*
X56071428Y-65843800D01*
X56071428Y-65843800D02*
X55985714Y-65872371D01*
X55985714Y-65872371D02*
X55928571Y-65872371D01*
X55928571Y-65872371D02*
X55842857Y-65843800D01*
X55842857Y-65843800D02*
X55785714Y-65786657D01*
X55785714Y-65786657D02*
X55757143Y-65729514D01*
X55757143Y-65729514D02*
X55728571Y-65615228D01*
X55728571Y-65615228D02*
X55728571Y-65529514D01*
X55728571Y-65529514D02*
X55757143Y-65415228D01*
X55757143Y-65415228D02*
X55785714Y-65358085D01*
X55785714Y-65358085D02*
X55842857Y-65300942D01*
X55842857Y-65300942D02*
X55928571Y-65272371D01*
X55928571Y-65272371D02*
X55985714Y-65272371D01*
X55985714Y-65272371D02*
X56071428Y-65300942D01*
X56071428Y-65300942D02*
X56100000Y-65329514D01*
X56328571Y-65329514D02*
X56357143Y-65300942D01*
X56357143Y-65300942D02*
X56414286Y-65272371D01*
X56414286Y-65272371D02*
X56557143Y-65272371D01*
X56557143Y-65272371D02*
X56614286Y-65300942D01*
X56614286Y-65300942D02*
X56642857Y-65329514D01*
X56642857Y-65329514D02*
X56671428Y-65386657D01*
X56671428Y-65386657D02*
X56671428Y-65443800D01*
X56671428Y-65443800D02*
X56642857Y-65529514D01*
X56642857Y-65529514D02*
X56300000Y-65872371D01*
X56300000Y-65872371D02*
X56671428Y-65872371D01*
X56608646Y-38228514D02*
X56551503Y-38199942D01*
X56551503Y-38199942D02*
X56494360Y-38142800D01*
X56494360Y-38142800D02*
X56408646Y-38057085D01*
X56408646Y-38057085D02*
X56351503Y-38028514D01*
X56351503Y-38028514D02*
X56294360Y-38028514D01*
X56322931Y-38171371D02*
X56265789Y-38142800D01*
X56265789Y-38142800D02*
X56208646Y-38085657D01*
X56208646Y-38085657D02*
X56180074Y-37971371D01*
X56180074Y-37971371D02*
X56180074Y-37771371D01*
X56180074Y-37771371D02*
X56208646Y-37657085D01*
X56208646Y-37657085D02*
X56265789Y-37599942D01*
X56265789Y-37599942D02*
X56322931Y-37571371D01*
X56322931Y-37571371D02*
X56437217Y-37571371D01*
X56437217Y-37571371D02*
X56494360Y-37599942D01*
X56494360Y-37599942D02*
X56551503Y-37657085D01*
X56551503Y-37657085D02*
X56580074Y-37771371D01*
X56580074Y-37771371D02*
X56580074Y-37971371D01*
X56580074Y-37971371D02*
X56551503Y-38085657D01*
X56551503Y-38085657D02*
X56494360Y-38142800D01*
X56494360Y-38142800D02*
X56437217Y-38171371D01*
X56437217Y-38171371D02*
X56322931Y-38171371D01*
X57094360Y-37771371D02*
X57094360Y-38171371D01*
X56951502Y-37542800D02*
X56808645Y-37971371D01*
X56808645Y-37971371D02*
X57180074Y-37971371D01*
X58050000Y-72722371D02*
X57764286Y-72722371D01*
X57764286Y-72722371D02*
X57764286Y-72122371D01*
X58564285Y-72722371D02*
X58221428Y-72722371D01*
X58392857Y-72722371D02*
X58392857Y-72122371D01*
X58392857Y-72122371D02*
X58335714Y-72208085D01*
X58335714Y-72208085D02*
X58278571Y-72265228D01*
X58278571Y-72265228D02*
X58221428Y-72293800D01*
X49650000Y-71772371D02*
X49450000Y-71486657D01*
X49307143Y-71772371D02*
X49307143Y-71172371D01*
X49307143Y-71172371D02*
X49535714Y-71172371D01*
X49535714Y-71172371D02*
X49592857Y-71200942D01*
X49592857Y-71200942D02*
X49621428Y-71229514D01*
X49621428Y-71229514D02*
X49650000Y-71286657D01*
X49650000Y-71286657D02*
X49650000Y-71372371D01*
X49650000Y-71372371D02*
X49621428Y-71429514D01*
X49621428Y-71429514D02*
X49592857Y-71458085D01*
X49592857Y-71458085D02*
X49535714Y-71486657D01*
X49535714Y-71486657D02*
X49307143Y-71486657D01*
X50221428Y-71772371D02*
X49878571Y-71772371D01*
X50050000Y-71772371D02*
X50050000Y-71172371D01*
X50050000Y-71172371D02*
X49992857Y-71258085D01*
X49992857Y-71258085D02*
X49935714Y-71315228D01*
X49935714Y-71315228D02*
X49878571Y-71343800D01*
X73800000Y-25715228D02*
X73771428Y-25743800D01*
X73771428Y-25743800D02*
X73685714Y-25772371D01*
X73685714Y-25772371D02*
X73628571Y-25772371D01*
X73628571Y-25772371D02*
X73542857Y-25743800D01*
X73542857Y-25743800D02*
X73485714Y-25686657D01*
X73485714Y-25686657D02*
X73457143Y-25629514D01*
X73457143Y-25629514D02*
X73428571Y-25515228D01*
X73428571Y-25515228D02*
X73428571Y-25429514D01*
X73428571Y-25429514D02*
X73457143Y-25315228D01*
X73457143Y-25315228D02*
X73485714Y-25258085D01*
X73485714Y-25258085D02*
X73542857Y-25200942D01*
X73542857Y-25200942D02*
X73628571Y-25172371D01*
X73628571Y-25172371D02*
X73685714Y-25172371D01*
X73685714Y-25172371D02*
X73771428Y-25200942D01*
X73771428Y-25200942D02*
X73800000Y-25229514D01*
X74342857Y-25172371D02*
X74057143Y-25172371D01*
X74057143Y-25172371D02*
X74028571Y-25458085D01*
X74028571Y-25458085D02*
X74057143Y-25429514D01*
X74057143Y-25429514D02*
X74114286Y-25400942D01*
X74114286Y-25400942D02*
X74257143Y-25400942D01*
X74257143Y-25400942D02*
X74314286Y-25429514D01*
X74314286Y-25429514D02*
X74342857Y-25458085D01*
X74342857Y-25458085D02*
X74371428Y-25515228D01*
X74371428Y-25515228D02*
X74371428Y-25658085D01*
X74371428Y-25658085D02*
X74342857Y-25715228D01*
X74342857Y-25715228D02*
X74314286Y-25743800D01*
X74314286Y-25743800D02*
X74257143Y-25772371D01*
X74257143Y-25772371D02*
X74114286Y-25772371D01*
X74114286Y-25772371D02*
X74057143Y-25743800D01*
X74057143Y-25743800D02*
X74028571Y-25715228D01*
X56608646Y-55728514D02*
X56551503Y-55699942D01*
X56551503Y-55699942D02*
X56494360Y-55642800D01*
X56494360Y-55642800D02*
X56408646Y-55557085D01*
X56408646Y-55557085D02*
X56351503Y-55528514D01*
X56351503Y-55528514D02*
X56294360Y-55528514D01*
X56322931Y-55671371D02*
X56265789Y-55642800D01*
X56265789Y-55642800D02*
X56208646Y-55585657D01*
X56208646Y-55585657D02*
X56180074Y-55471371D01*
X56180074Y-55471371D02*
X56180074Y-55271371D01*
X56180074Y-55271371D02*
X56208646Y-55157085D01*
X56208646Y-55157085D02*
X56265789Y-55099942D01*
X56265789Y-55099942D02*
X56322931Y-55071371D01*
X56322931Y-55071371D02*
X56437217Y-55071371D01*
X56437217Y-55071371D02*
X56494360Y-55099942D01*
X56494360Y-55099942D02*
X56551503Y-55157085D01*
X56551503Y-55157085D02*
X56580074Y-55271371D01*
X56580074Y-55271371D02*
X56580074Y-55471371D01*
X56580074Y-55471371D02*
X56551503Y-55585657D01*
X56551503Y-55585657D02*
X56494360Y-55642800D01*
X56494360Y-55642800D02*
X56437217Y-55671371D01*
X56437217Y-55671371D02*
X56322931Y-55671371D01*
X56808645Y-55128514D02*
X56837217Y-55099942D01*
X56837217Y-55099942D02*
X56894360Y-55071371D01*
X56894360Y-55071371D02*
X57037217Y-55071371D01*
X57037217Y-55071371D02*
X57094360Y-55099942D01*
X57094360Y-55099942D02*
X57122931Y-55128514D01*
X57122931Y-55128514D02*
X57151502Y-55185657D01*
X57151502Y-55185657D02*
X57151502Y-55242800D01*
X57151502Y-55242800D02*
X57122931Y-55328514D01*
X57122931Y-55328514D02*
X56780074Y-55671371D01*
X56780074Y-55671371D02*
X57151502Y-55671371D01*
X56608646Y-20728514D02*
X56551503Y-20699942D01*
X56551503Y-20699942D02*
X56494360Y-20642800D01*
X56494360Y-20642800D02*
X56408646Y-20557085D01*
X56408646Y-20557085D02*
X56351503Y-20528514D01*
X56351503Y-20528514D02*
X56294360Y-20528514D01*
X56322931Y-20671371D02*
X56265789Y-20642800D01*
X56265789Y-20642800D02*
X56208646Y-20585657D01*
X56208646Y-20585657D02*
X56180074Y-20471371D01*
X56180074Y-20471371D02*
X56180074Y-20271371D01*
X56180074Y-20271371D02*
X56208646Y-20157085D01*
X56208646Y-20157085D02*
X56265789Y-20099942D01*
X56265789Y-20099942D02*
X56322931Y-20071371D01*
X56322931Y-20071371D02*
X56437217Y-20071371D01*
X56437217Y-20071371D02*
X56494360Y-20099942D01*
X56494360Y-20099942D02*
X56551503Y-20157085D01*
X56551503Y-20157085D02*
X56580074Y-20271371D01*
X56580074Y-20271371D02*
X56580074Y-20471371D01*
X56580074Y-20471371D02*
X56551503Y-20585657D01*
X56551503Y-20585657D02*
X56494360Y-20642800D01*
X56494360Y-20642800D02*
X56437217Y-20671371D01*
X56437217Y-20671371D02*
X56322931Y-20671371D01*
X57094360Y-20071371D02*
X56980074Y-20071371D01*
X56980074Y-20071371D02*
X56922931Y-20099942D01*
X56922931Y-20099942D02*
X56894360Y-20128514D01*
X56894360Y-20128514D02*
X56837217Y-20214228D01*
X56837217Y-20214228D02*
X56808645Y-20328514D01*
X56808645Y-20328514D02*
X56808645Y-20557085D01*
X56808645Y-20557085D02*
X56837217Y-20614228D01*
X56837217Y-20614228D02*
X56865788Y-20642800D01*
X56865788Y-20642800D02*
X56922931Y-20671371D01*
X56922931Y-20671371D02*
X57037217Y-20671371D01*
X57037217Y-20671371D02*
X57094360Y-20642800D01*
X57094360Y-20642800D02*
X57122931Y-20614228D01*
X57122931Y-20614228D02*
X57151502Y-20557085D01*
X57151502Y-20557085D02*
X57151502Y-20414228D01*
X57151502Y-20414228D02*
X57122931Y-20357085D01*
X57122931Y-20357085D02*
X57094360Y-20328514D01*
X57094360Y-20328514D02*
X57037217Y-20299942D01*
X57037217Y-20299942D02*
X56922931Y-20299942D01*
X56922931Y-20299942D02*
X56865788Y-20328514D01*
X56865788Y-20328514D02*
X56837217Y-20357085D01*
X56837217Y-20357085D02*
X56808645Y-20414228D01*
X73750000Y-40165228D02*
X73721428Y-40193800D01*
X73721428Y-40193800D02*
X73635714Y-40222371D01*
X73635714Y-40222371D02*
X73578571Y-40222371D01*
X73578571Y-40222371D02*
X73492857Y-40193800D01*
X73492857Y-40193800D02*
X73435714Y-40136657D01*
X73435714Y-40136657D02*
X73407143Y-40079514D01*
X73407143Y-40079514D02*
X73378571Y-39965228D01*
X73378571Y-39965228D02*
X73378571Y-39879514D01*
X73378571Y-39879514D02*
X73407143Y-39765228D01*
X73407143Y-39765228D02*
X73435714Y-39708085D01*
X73435714Y-39708085D02*
X73492857Y-39650942D01*
X73492857Y-39650942D02*
X73578571Y-39622371D01*
X73578571Y-39622371D02*
X73635714Y-39622371D01*
X73635714Y-39622371D02*
X73721428Y-39650942D01*
X73721428Y-39650942D02*
X73750000Y-39679514D01*
X74264286Y-39622371D02*
X74150000Y-39622371D01*
X74150000Y-39622371D02*
X74092857Y-39650942D01*
X74092857Y-39650942D02*
X74064286Y-39679514D01*
X74064286Y-39679514D02*
X74007143Y-39765228D01*
X74007143Y-39765228D02*
X73978571Y-39879514D01*
X73978571Y-39879514D02*
X73978571Y-40108085D01*
X73978571Y-40108085D02*
X74007143Y-40165228D01*
X74007143Y-40165228D02*
X74035714Y-40193800D01*
X74035714Y-40193800D02*
X74092857Y-40222371D01*
X74092857Y-40222371D02*
X74207143Y-40222371D01*
X74207143Y-40222371D02*
X74264286Y-40193800D01*
X74264286Y-40193800D02*
X74292857Y-40165228D01*
X74292857Y-40165228D02*
X74321428Y-40108085D01*
X74321428Y-40108085D02*
X74321428Y-39965228D01*
X74321428Y-39965228D02*
X74292857Y-39908085D01*
X74292857Y-39908085D02*
X74264286Y-39879514D01*
X74264286Y-39879514D02*
X74207143Y-39850942D01*
X74207143Y-39850942D02*
X74092857Y-39850942D01*
X74092857Y-39850942D02*
X74035714Y-39879514D01*
X74035714Y-39879514D02*
X74007143Y-39908085D01*
X74007143Y-39908085D02*
X73978571Y-39965228D01*
X53400000Y-72772371D02*
X53200000Y-72486657D01*
X53057143Y-72772371D02*
X53057143Y-72172371D01*
X53057143Y-72172371D02*
X53285714Y-72172371D01*
X53285714Y-72172371D02*
X53342857Y-72200942D01*
X53342857Y-72200942D02*
X53371428Y-72229514D01*
X53371428Y-72229514D02*
X53400000Y-72286657D01*
X53400000Y-72286657D02*
X53400000Y-72372371D01*
X53400000Y-72372371D02*
X53371428Y-72429514D01*
X53371428Y-72429514D02*
X53342857Y-72458085D01*
X53342857Y-72458085D02*
X53285714Y-72486657D01*
X53285714Y-72486657D02*
X53057143Y-72486657D01*
X53600000Y-72172371D02*
X53971428Y-72172371D01*
X53971428Y-72172371D02*
X53771428Y-72400942D01*
X53771428Y-72400942D02*
X53857143Y-72400942D01*
X53857143Y-72400942D02*
X53914286Y-72429514D01*
X53914286Y-72429514D02*
X53942857Y-72458085D01*
X53942857Y-72458085D02*
X53971428Y-72515228D01*
X53971428Y-72515228D02*
X53971428Y-72658085D01*
X53971428Y-72658085D02*
X53942857Y-72715228D01*
X53942857Y-72715228D02*
X53914286Y-72743800D01*
X53914286Y-72743800D02*
X53857143Y-72772371D01*
X53857143Y-72772371D02*
X53685714Y-72772371D01*
X53685714Y-72772371D02*
X53628571Y-72743800D01*
X53628571Y-72743800D02*
X53600000Y-72715228D01*
X73800000Y-70165228D02*
X73771428Y-70193800D01*
X73771428Y-70193800D02*
X73685714Y-70222371D01*
X73685714Y-70222371D02*
X73628571Y-70222371D01*
X73628571Y-70222371D02*
X73542857Y-70193800D01*
X73542857Y-70193800D02*
X73485714Y-70136657D01*
X73485714Y-70136657D02*
X73457143Y-70079514D01*
X73457143Y-70079514D02*
X73428571Y-69965228D01*
X73428571Y-69965228D02*
X73428571Y-69879514D01*
X73428571Y-69879514D02*
X73457143Y-69765228D01*
X73457143Y-69765228D02*
X73485714Y-69708085D01*
X73485714Y-69708085D02*
X73542857Y-69650942D01*
X73542857Y-69650942D02*
X73628571Y-69622371D01*
X73628571Y-69622371D02*
X73685714Y-69622371D01*
X73685714Y-69622371D02*
X73771428Y-69650942D01*
X73771428Y-69650942D02*
X73800000Y-69679514D01*
X74314286Y-69822371D02*
X74314286Y-70222371D01*
X74171428Y-69593800D02*
X74028571Y-70022371D01*
X74028571Y-70022371D02*
X74400000Y-70022371D01*
D13*
%TO.C,Q3*%
X49296980Y-39796000D02*
X49296980Y-45496500D01*
X56496980Y-39796000D02*
X49296980Y-39796000D01*
X56496980Y-39796000D02*
X56496980Y-45496500D01*
X56496980Y-45496500D02*
X49296980Y-45496500D01*
D14*
X57271530Y-44253000D02*
G75*
G02*
X57021530Y-44253000I-125000J0D01*
G01*
X57021530Y-44253000D02*
G75*
G02*
X57271530Y-44253000I125000J0D01*
G01*
D15*
%TO.C,R2*%
X51645000Y-64746359D02*
X51645000Y-65053641D01*
X52405000Y-64746359D02*
X52405000Y-65053641D01*
%TO.C,C3*%
X58865000Y-61215000D02*
X58865000Y-65100000D01*
X61135000Y-61215000D02*
X58865000Y-61215000D01*
X61135000Y-65100000D02*
X61135000Y-61215000D01*
D13*
%TO.C,IC1*%
X50775000Y-70275000D02*
X50775000Y-69125000D01*
X50875000Y-68025000D02*
X53775000Y-68025000D01*
X50875000Y-68775000D02*
X50875000Y-68025000D01*
X53775000Y-68025000D02*
X53775000Y-68775000D01*
X53775000Y-68775000D02*
X50875000Y-68775000D01*
D15*
%TO.C,J1*%
X39580000Y-72880000D02*
X39580000Y-71550000D01*
X40910000Y-72880000D02*
X39580000Y-72880000D01*
X42180000Y-70220000D02*
X47320000Y-70220000D01*
X42180000Y-72880000D02*
X42180000Y-70220000D01*
X42180000Y-72880000D02*
X47320000Y-72880000D01*
X47320000Y-72880000D02*
X47320000Y-70220000D01*
D13*
%TO.C,Q1*%
X49296980Y-57300000D02*
X49296980Y-63000500D01*
X56496980Y-57300000D02*
X49296980Y-57300000D01*
X56496980Y-57300000D02*
X56496980Y-63000500D01*
X56496980Y-63000500D02*
X49296980Y-63000500D01*
D14*
X57271530Y-61757000D02*
G75*
G02*
X57021530Y-61757000I-125000J0D01*
G01*
X57021530Y-61757000D02*
G75*
G02*
X57271530Y-61757000I125000J0D01*
G01*
D13*
%TO.C,Q5*%
X49296980Y-22292000D02*
X49296980Y-27992500D01*
X56496980Y-22292000D02*
X49296980Y-22292000D01*
X56496980Y-22292000D02*
X56496980Y-27992500D01*
X56496980Y-27992500D02*
X49296980Y-27992500D01*
D14*
X57271530Y-26749000D02*
G75*
G02*
X57021530Y-26749000I-125000J0D01*
G01*
X57021530Y-26749000D02*
G75*
G02*
X57271530Y-26749000I125000J0D01*
G01*
D15*
%TO.C,C7*%
X67059998Y-50757041D02*
X62261998Y-50757041D01*
X67059998Y-50797041D02*
X62268998Y-50797041D01*
X67059998Y-50837041D02*
X62275998Y-50837041D01*
X67059998Y-50877041D02*
X62283998Y-50877041D01*
X67059998Y-50917041D02*
X62290998Y-50917041D01*
X67059998Y-50957041D02*
X62298998Y-50957041D01*
X67059998Y-50997041D02*
X62307998Y-50997041D01*
X67059998Y-51037041D02*
X62315998Y-51037041D01*
X67059998Y-51077041D02*
X62324998Y-51077041D01*
X67059998Y-51117041D02*
X62333998Y-51117041D01*
X67059998Y-51157041D02*
X62343998Y-51157041D01*
X67059998Y-51197041D02*
X62353998Y-51197041D01*
X67059998Y-51237041D02*
X62362998Y-51237041D01*
X67059998Y-51277041D02*
X62373998Y-51277041D01*
X67059998Y-51317041D02*
X62383998Y-51317041D01*
X67059998Y-51357041D02*
X62394998Y-51357041D01*
X67059998Y-51397041D02*
X62405998Y-51397041D01*
X67059998Y-51437041D02*
X62416998Y-51437041D01*
X67059998Y-51477041D02*
X62428998Y-51477041D01*
X67059998Y-51517041D02*
X62440998Y-51517041D01*
X67059998Y-51557041D02*
X62452998Y-51557041D01*
X67059998Y-51597041D02*
X62465998Y-51597041D01*
X67059998Y-51637041D02*
X62478998Y-51637041D01*
X67059998Y-51677041D02*
X62491998Y-51677041D01*
X67059998Y-51717041D02*
X62504998Y-51717041D01*
X67059998Y-51757041D02*
X62518998Y-51757041D01*
X67059998Y-51797041D02*
X62532998Y-51797041D01*
X67059998Y-51837041D02*
X62546998Y-51837041D01*
X67059998Y-51877041D02*
X62560998Y-51877041D01*
X67059998Y-51917041D02*
X62575998Y-51917041D01*
X67059998Y-51957041D02*
X62591998Y-51957041D01*
X67059998Y-51997041D02*
X62606998Y-51997041D01*
X67059998Y-52037041D02*
X62622998Y-52037041D01*
X67059998Y-52077041D02*
X62638998Y-52077041D01*
X67059998Y-52117041D02*
X62654998Y-52117041D01*
X67059998Y-52157041D02*
X62671998Y-52157041D01*
X67059998Y-52197041D02*
X62688998Y-52197041D01*
X67059998Y-52237041D02*
X62706998Y-52237041D01*
X67059998Y-52277041D02*
X62723998Y-52277041D01*
X67059998Y-52317041D02*
X62741998Y-52317041D01*
X67059998Y-52357041D02*
X62760998Y-52357041D01*
X67059998Y-52397041D02*
X62778998Y-52397041D01*
X67059998Y-52437041D02*
X62797998Y-52437041D01*
X67059998Y-52477041D02*
X62817998Y-52477041D01*
X67059998Y-52517041D02*
X62837998Y-52517041D01*
X67059998Y-52557041D02*
X62857998Y-52557041D01*
X67059998Y-52597041D02*
X62877998Y-52597041D01*
X67059998Y-52637041D02*
X62898998Y-52637041D01*
X67059998Y-52677041D02*
X62919998Y-52677041D01*
X67059998Y-52717041D02*
X62941998Y-52717041D01*
X67059998Y-52757041D02*
X62963998Y-52757041D01*
X67059998Y-52797041D02*
X62985998Y-52797041D01*
X67059998Y-52837041D02*
X63008998Y-52837041D01*
X67059998Y-52877041D02*
X63031998Y-52877041D01*
X67059998Y-52917041D02*
X63054998Y-52917041D01*
X67059998Y-52957041D02*
X63078998Y-52957041D01*
X67059998Y-52997041D02*
X63102998Y-52997041D01*
X67059998Y-53037041D02*
X63127998Y-53037041D01*
X67059998Y-53077041D02*
X63152998Y-53077041D01*
X67059998Y-53117041D02*
X63177998Y-53117041D01*
X67059998Y-53157041D02*
X63203998Y-53157041D01*
X67059998Y-53197041D02*
X63229998Y-53197041D01*
X67059998Y-53237041D02*
X63256998Y-53237041D01*
X67059998Y-53277041D02*
X63283998Y-53277041D01*
X67059998Y-53317041D02*
X63311998Y-53317041D01*
X67059998Y-53357041D02*
X63339998Y-53357041D01*
X67059998Y-53397041D02*
X63368998Y-53397041D01*
X67059998Y-53437041D02*
X63397998Y-53437041D01*
X67059998Y-53477041D02*
X63426998Y-53477041D01*
X67059998Y-53517041D02*
X63456998Y-53517041D01*
X67059998Y-53557041D02*
X63487998Y-53557041D01*
X67059998Y-53597041D02*
X63517998Y-53597041D01*
X68816998Y-56037041D02*
X68182998Y-56037041D01*
X69256998Y-55997041D02*
X67742998Y-55997041D01*
X69527998Y-55957041D02*
X67471998Y-55957041D01*
X69740998Y-55917041D02*
X67258998Y-55917041D01*
X69921998Y-55877041D02*
X67077998Y-55877041D01*
X70082998Y-55837041D02*
X66916998Y-55837041D01*
X70227998Y-55797041D02*
X66771998Y-55797041D01*
X70360998Y-55757041D02*
X66638998Y-55757041D01*
X70483998Y-55717041D02*
X66515998Y-55717041D01*
X70599998Y-55677041D02*
X66399998Y-55677041D01*
X70708998Y-55637041D02*
X66290998Y-55637041D01*
X70811998Y-55597041D02*
X66187998Y-55597041D01*
X70909998Y-55557041D02*
X66089998Y-55557041D01*
X71003998Y-55517041D02*
X65995998Y-55517041D01*
X71093998Y-55477041D02*
X65905998Y-55477041D01*
X71180998Y-55437041D02*
X65818998Y-55437041D01*
X71263998Y-55397041D02*
X65735998Y-55397041D01*
X71343998Y-55357041D02*
X65655998Y-55357041D01*
X71420998Y-55317041D02*
X65578998Y-55317041D01*
X71495998Y-55277041D02*
X65503998Y-55277041D01*
X71568998Y-55237041D02*
X65430998Y-55237041D01*
X71639998Y-55197041D02*
X65359998Y-55197041D01*
X71707998Y-55157041D02*
X65291998Y-55157041D01*
X71774998Y-55117041D02*
X65224998Y-55117041D01*
X71838998Y-55077041D02*
X65160998Y-55077041D01*
X71901998Y-55037041D02*
X65097998Y-55037041D01*
X71963998Y-54997041D02*
X65035998Y-54997041D01*
X72023998Y-54957041D02*
X64975998Y-54957041D01*
X72074998Y-42858959D02*
X72074998Y-44108959D01*
X72082998Y-54917041D02*
X64916998Y-54917041D01*
X72139998Y-54877041D02*
X64859998Y-54877041D01*
X72195998Y-54837041D02*
X64803998Y-54837041D01*
X72249998Y-54797041D02*
X64749998Y-54797041D01*
X72303998Y-54757041D02*
X64695998Y-54757041D01*
X72355998Y-54717041D02*
X64643998Y-54717041D01*
X72406998Y-54677041D02*
X64592998Y-54677041D01*
X72456998Y-54637041D02*
X64542998Y-54637041D01*
X72506998Y-54597041D02*
X64492998Y-54597041D01*
X72554998Y-54557041D02*
X64444998Y-54557041D01*
X72601998Y-54517041D02*
X64397998Y-54517041D01*
X72647998Y-54477041D02*
X64351998Y-54477041D01*
X72693998Y-54437041D02*
X64305998Y-54437041D01*
X72699998Y-43483959D02*
X71449998Y-43483959D01*
X72737998Y-54397041D02*
X64261998Y-54397041D01*
X72781998Y-54357041D02*
X64217998Y-54357041D01*
X72824998Y-54317041D02*
X64174998Y-54317041D01*
X72866998Y-54277041D02*
X64132998Y-54277041D01*
X72907998Y-54237041D02*
X64091998Y-54237041D01*
X72948998Y-54197041D02*
X64050998Y-54197041D01*
X72988998Y-54157041D02*
X64010998Y-54157041D01*
X73027998Y-54117041D02*
X63971998Y-54117041D01*
X73066998Y-54077041D02*
X63932998Y-54077041D01*
X73104998Y-54037041D02*
X63894998Y-54037041D01*
X73141998Y-53997041D02*
X63857998Y-53997041D01*
X73177998Y-53957041D02*
X63821998Y-53957041D01*
X73213998Y-53917041D02*
X63785998Y-53917041D01*
X73249998Y-53877041D02*
X63749998Y-53877041D01*
X73284998Y-53837041D02*
X63714998Y-53837041D01*
X73318998Y-53797041D02*
X63680998Y-53797041D01*
X73351998Y-53757041D02*
X63647998Y-53757041D01*
X73384998Y-53717041D02*
X63614998Y-53717041D01*
X73417998Y-53677041D02*
X63581998Y-53677041D01*
X73449998Y-53637041D02*
X63549998Y-53637041D01*
X73481998Y-53597041D02*
X69939998Y-53597041D01*
X73511998Y-53557041D02*
X69939998Y-53557041D01*
X73542998Y-53517041D02*
X69939998Y-53517041D01*
X73572998Y-53477041D02*
X69939998Y-53477041D01*
X73601998Y-53437041D02*
X69939998Y-53437041D01*
X73630998Y-53397041D02*
X69939998Y-53397041D01*
X73659998Y-53357041D02*
X69939998Y-53357041D01*
X73687998Y-53317041D02*
X69939998Y-53317041D01*
X73715998Y-53277041D02*
X69939998Y-53277041D01*
X73742998Y-53237041D02*
X69939998Y-53237041D01*
X73769998Y-53197041D02*
X69939998Y-53197041D01*
X73795998Y-53157041D02*
X69939998Y-53157041D01*
X73821998Y-53117041D02*
X69939998Y-53117041D01*
X73846998Y-53077041D02*
X69939998Y-53077041D01*
X73871998Y-53037041D02*
X69939998Y-53037041D01*
X73896998Y-52997041D02*
X69939998Y-52997041D01*
X73920998Y-52957041D02*
X69939998Y-52957041D01*
X73944998Y-52917041D02*
X69939998Y-52917041D01*
X73967998Y-52877041D02*
X69939998Y-52877041D01*
X73990998Y-52837041D02*
X69939998Y-52837041D01*
X74013998Y-52797041D02*
X69939998Y-52797041D01*
X74035998Y-52757041D02*
X69939998Y-52757041D01*
X74057998Y-52717041D02*
X69939998Y-52717041D01*
X74079998Y-52677041D02*
X69939998Y-52677041D01*
X74100998Y-52637041D02*
X69939998Y-52637041D01*
X74121998Y-52597041D02*
X69939998Y-52597041D01*
X74141998Y-52557041D02*
X69939998Y-52557041D01*
X74161998Y-52517041D02*
X69939998Y-52517041D01*
X74181998Y-52477041D02*
X69939998Y-52477041D01*
X74201998Y-52437041D02*
X69939998Y-52437041D01*
X74220998Y-52397041D02*
X69939998Y-52397041D01*
X74238998Y-52357041D02*
X69939998Y-52357041D01*
X74257998Y-52317041D02*
X69939998Y-52317041D01*
X74275998Y-52277041D02*
X69939998Y-52277041D01*
X74292998Y-52237041D02*
X69939998Y-52237041D01*
X74310998Y-52197041D02*
X69939998Y-52197041D01*
X74327998Y-52157041D02*
X69939998Y-52157041D01*
X74344998Y-52117041D02*
X69939998Y-52117041D01*
X74360998Y-52077041D02*
X69939998Y-52077041D01*
X74376998Y-52037041D02*
X69939998Y-52037041D01*
X74392998Y-51997041D02*
X69939998Y-51997041D01*
X74407998Y-51957041D02*
X69939998Y-51957041D01*
X74423998Y-51917041D02*
X69939998Y-51917041D01*
X74438998Y-51877041D02*
X69939998Y-51877041D01*
X74452998Y-51837041D02*
X69939998Y-51837041D01*
X74466998Y-51797041D02*
X69939998Y-51797041D01*
X74480998Y-51757041D02*
X69939998Y-51757041D01*
X74494998Y-51717041D02*
X69939998Y-51717041D01*
X74507998Y-51677041D02*
X69939998Y-51677041D01*
X74520998Y-51637041D02*
X69939998Y-51637041D01*
X74533998Y-51597041D02*
X69939998Y-51597041D01*
X74546998Y-51557041D02*
X69939998Y-51557041D01*
X74558998Y-51517041D02*
X69939998Y-51517041D01*
X74570998Y-51477041D02*
X69939998Y-51477041D01*
X74582998Y-51437041D02*
X69939998Y-51437041D01*
X74593998Y-51397041D02*
X69939998Y-51397041D01*
X74604998Y-51357041D02*
X69939998Y-51357041D01*
X74615998Y-51317041D02*
X69939998Y-51317041D01*
X74625998Y-51277041D02*
X69939998Y-51277041D01*
X74636998Y-51237041D02*
X69939998Y-51237041D01*
X74645998Y-51197041D02*
X69939998Y-51197041D01*
X74655998Y-51157041D02*
X69939998Y-51157041D01*
X74665998Y-51117041D02*
X69939998Y-51117041D01*
X74674998Y-51077041D02*
X69939998Y-51077041D01*
X74683998Y-51037041D02*
X69939998Y-51037041D01*
X74691998Y-50997041D02*
X69939998Y-50997041D01*
X74700998Y-50957041D02*
X69939998Y-50957041D01*
X74708998Y-50917041D02*
X69939998Y-50917041D01*
X74715998Y-50877041D02*
X69939998Y-50877041D01*
X74723998Y-50837041D02*
X69939998Y-50837041D01*
X74730998Y-50797041D02*
X69939998Y-50797041D01*
X74737998Y-50757041D02*
X69939998Y-50757041D01*
X74744998Y-50717041D02*
X62254998Y-50717041D01*
X74751998Y-50677041D02*
X62247998Y-50677041D01*
X74757998Y-50637041D02*
X62241998Y-50637041D01*
X74763998Y-50597041D02*
X62235998Y-50597041D01*
X74768998Y-50557041D02*
X62230998Y-50557041D01*
X74774998Y-50517041D02*
X62224998Y-50517041D01*
X74779998Y-50477041D02*
X62219998Y-50477041D01*
X74784998Y-50437041D02*
X62214998Y-50437041D01*
X74789998Y-50397041D02*
X62209998Y-50397041D01*
X74793998Y-50356041D02*
X62205998Y-50356041D01*
X74797998Y-50316041D02*
X62201998Y-50316041D01*
X74801998Y-50276041D02*
X62197998Y-50276041D01*
X74805998Y-50236041D02*
X62193998Y-50236041D01*
X74808998Y-50196041D02*
X62190998Y-50196041D01*
X74811998Y-50156041D02*
X62187998Y-50156041D01*
X74814998Y-50116041D02*
X62184998Y-50116041D01*
X74817998Y-50076041D02*
X62181998Y-50076041D01*
X74819998Y-50036041D02*
X62179998Y-50036041D01*
X74821998Y-49996041D02*
X62177998Y-49996041D01*
X74823998Y-49956041D02*
X62175998Y-49956041D01*
X74825998Y-49916041D02*
X62173998Y-49916041D01*
X74826998Y-49876041D02*
X62172998Y-49876041D01*
X74827998Y-49836041D02*
X62171998Y-49836041D01*
X74828998Y-49796041D02*
X62170998Y-49796041D01*
X74829998Y-49676041D02*
X62169998Y-49676041D01*
X74829998Y-49716041D02*
X62169998Y-49716041D01*
X74829998Y-49756041D02*
X62169998Y-49756041D01*
X74869998Y-49676041D02*
G75*
G02*
X62129998Y-49676041I-6370000J0D01*
G01*
X62129998Y-49676041D02*
G75*
G02*
X74869998Y-49676041I6370000J0D01*
G01*
%TO.C,D1*%
X42850000Y-69460000D02*
X42850000Y-63650000D01*
X42850000Y-69460000D02*
X47150000Y-69460000D01*
X47150000Y-69460000D02*
X47150000Y-63650000D01*
%TO.C,C1*%
X48690000Y-66315000D02*
X48690000Y-68600000D01*
X50160000Y-66315000D02*
X48690000Y-66315000D01*
X50160000Y-68600000D02*
X50160000Y-66315000D01*
%TO.C,C2*%
X55225000Y-68160000D02*
X57910000Y-68160000D01*
X57910000Y-66240000D02*
X55225000Y-66240000D01*
X57910000Y-68160000D02*
X57910000Y-66240000D01*
D13*
%TO.C,Q4*%
X49296980Y-31044000D02*
X49296980Y-36744500D01*
X56496980Y-31044000D02*
X49296980Y-31044000D01*
X56496980Y-31044000D02*
X56496980Y-36744500D01*
X56496980Y-36744500D02*
X49296980Y-36744500D01*
D14*
X57271530Y-35501000D02*
G75*
G02*
X57021530Y-35501000I-125000J0D01*
G01*
X57021530Y-35501000D02*
G75*
G02*
X57271530Y-35501000I125000J0D01*
G01*
D12*
%TO.C,L1*%
X57450000Y-69300000D02*
X55450000Y-69300000D01*
X57450000Y-70900000D02*
X55450000Y-70900000D01*
D15*
%TO.C,R1*%
X50445000Y-72053641D02*
X50445000Y-71746359D01*
X51205000Y-72053641D02*
X51205000Y-71746359D01*
%TO.C,C5*%
X66560000Y-20757041D02*
X61762000Y-20757041D01*
X66560000Y-20797041D02*
X61769000Y-20797041D01*
X66560000Y-20837041D02*
X61776000Y-20837041D01*
X66560000Y-20877041D02*
X61784000Y-20877041D01*
X66560000Y-20917041D02*
X61791000Y-20917041D01*
X66560000Y-20957041D02*
X61799000Y-20957041D01*
X66560000Y-20997041D02*
X61808000Y-20997041D01*
X66560000Y-21037041D02*
X61816000Y-21037041D01*
X66560000Y-21077041D02*
X61825000Y-21077041D01*
X66560000Y-21117041D02*
X61834000Y-21117041D01*
X66560000Y-21157041D02*
X61844000Y-21157041D01*
X66560000Y-21197041D02*
X61854000Y-21197041D01*
X66560000Y-21237041D02*
X61863000Y-21237041D01*
X66560000Y-21277041D02*
X61874000Y-21277041D01*
X66560000Y-21317041D02*
X61884000Y-21317041D01*
X66560000Y-21357041D02*
X61895000Y-21357041D01*
X66560000Y-21397041D02*
X61906000Y-21397041D01*
X66560000Y-21437041D02*
X61917000Y-21437041D01*
X66560000Y-21477041D02*
X61929000Y-21477041D01*
X66560000Y-21517041D02*
X61941000Y-21517041D01*
X66560000Y-21557041D02*
X61953000Y-21557041D01*
X66560000Y-21597041D02*
X61966000Y-21597041D01*
X66560000Y-21637041D02*
X61979000Y-21637041D01*
X66560000Y-21677041D02*
X61992000Y-21677041D01*
X66560000Y-21717041D02*
X62005000Y-21717041D01*
X66560000Y-21757041D02*
X62019000Y-21757041D01*
X66560000Y-21797041D02*
X62033000Y-21797041D01*
X66560000Y-21837041D02*
X62047000Y-21837041D01*
X66560000Y-21877041D02*
X62061000Y-21877041D01*
X66560000Y-21917041D02*
X62076000Y-21917041D01*
X66560000Y-21957041D02*
X62092000Y-21957041D01*
X66560000Y-21997041D02*
X62107000Y-21997041D01*
X66560000Y-22037041D02*
X62123000Y-22037041D01*
X66560000Y-22077041D02*
X62139000Y-22077041D01*
X66560000Y-22117041D02*
X62155000Y-22117041D01*
X66560000Y-22157041D02*
X62172000Y-22157041D01*
X66560000Y-22197041D02*
X62189000Y-22197041D01*
X66560000Y-22237041D02*
X62207000Y-22237041D01*
X66560000Y-22277041D02*
X62224000Y-22277041D01*
X66560000Y-22317041D02*
X62242000Y-22317041D01*
X66560000Y-22357041D02*
X62261000Y-22357041D01*
X66560000Y-22397041D02*
X62279000Y-22397041D01*
X66560000Y-22437041D02*
X62298000Y-22437041D01*
X66560000Y-22477041D02*
X62318000Y-22477041D01*
X66560000Y-22517041D02*
X62338000Y-22517041D01*
X66560000Y-22557041D02*
X62358000Y-22557041D01*
X66560000Y-22597041D02*
X62378000Y-22597041D01*
X66560000Y-22637041D02*
X62399000Y-22637041D01*
X66560000Y-22677041D02*
X62420000Y-22677041D01*
X66560000Y-22717041D02*
X62442000Y-22717041D01*
X66560000Y-22757041D02*
X62464000Y-22757041D01*
X66560000Y-22797041D02*
X62486000Y-22797041D01*
X66560000Y-22837041D02*
X62509000Y-22837041D01*
X66560000Y-22877041D02*
X62532000Y-22877041D01*
X66560000Y-22917041D02*
X62555000Y-22917041D01*
X66560000Y-22957041D02*
X62579000Y-22957041D01*
X66560000Y-22997041D02*
X62603000Y-22997041D01*
X66560000Y-23037041D02*
X62628000Y-23037041D01*
X66560000Y-23077041D02*
X62653000Y-23077041D01*
X66560000Y-23117041D02*
X62678000Y-23117041D01*
X66560000Y-23157041D02*
X62704000Y-23157041D01*
X66560000Y-23197041D02*
X62730000Y-23197041D01*
X66560000Y-23237041D02*
X62757000Y-23237041D01*
X66560000Y-23277041D02*
X62784000Y-23277041D01*
X66560000Y-23317041D02*
X62812000Y-23317041D01*
X66560000Y-23357041D02*
X62840000Y-23357041D01*
X66560000Y-23397041D02*
X62869000Y-23397041D01*
X66560000Y-23437041D02*
X62898000Y-23437041D01*
X66560000Y-23477041D02*
X62927000Y-23477041D01*
X66560000Y-23517041D02*
X62957000Y-23517041D01*
X66560000Y-23557041D02*
X62988000Y-23557041D01*
X66560000Y-23597041D02*
X63018000Y-23597041D01*
X68317000Y-26037041D02*
X67683000Y-26037041D01*
X68757000Y-25997041D02*
X67243000Y-25997041D01*
X69028000Y-25957041D02*
X66972000Y-25957041D01*
X69241000Y-25917041D02*
X66759000Y-25917041D01*
X69422000Y-25877041D02*
X66578000Y-25877041D01*
X69583000Y-25837041D02*
X66417000Y-25837041D01*
X69728000Y-25797041D02*
X66272000Y-25797041D01*
X69861000Y-25757041D02*
X66139000Y-25757041D01*
X69984000Y-25717041D02*
X66016000Y-25717041D01*
X70100000Y-25677041D02*
X65900000Y-25677041D01*
X70209000Y-25637041D02*
X65791000Y-25637041D01*
X70312000Y-25597041D02*
X65688000Y-25597041D01*
X70410000Y-25557041D02*
X65590000Y-25557041D01*
X70504000Y-25517041D02*
X65496000Y-25517041D01*
X70594000Y-25477041D02*
X65406000Y-25477041D01*
X70681000Y-25437041D02*
X65319000Y-25437041D01*
X70764000Y-25397041D02*
X65236000Y-25397041D01*
X70844000Y-25357041D02*
X65156000Y-25357041D01*
X70921000Y-25317041D02*
X65079000Y-25317041D01*
X70996000Y-25277041D02*
X65004000Y-25277041D01*
X71069000Y-25237041D02*
X64931000Y-25237041D01*
X71140000Y-25197041D02*
X64860000Y-25197041D01*
X71208000Y-25157041D02*
X64792000Y-25157041D01*
X71275000Y-25117041D02*
X64725000Y-25117041D01*
X71339000Y-25077041D02*
X64661000Y-25077041D01*
X71402000Y-25037041D02*
X64598000Y-25037041D01*
X71464000Y-24997041D02*
X64536000Y-24997041D01*
X71524000Y-24957041D02*
X64476000Y-24957041D01*
X71575000Y-12858959D02*
X71575000Y-14108959D01*
X71583000Y-24917041D02*
X64417000Y-24917041D01*
X71640000Y-24877041D02*
X64360000Y-24877041D01*
X71696000Y-24837041D02*
X64304000Y-24837041D01*
X71750000Y-24797041D02*
X64250000Y-24797041D01*
X71804000Y-24757041D02*
X64196000Y-24757041D01*
X71856000Y-24717041D02*
X64144000Y-24717041D01*
X71907000Y-24677041D02*
X64093000Y-24677041D01*
X71957000Y-24637041D02*
X64043000Y-24637041D01*
X72007000Y-24597041D02*
X63993000Y-24597041D01*
X72055000Y-24557041D02*
X63945000Y-24557041D01*
X72102000Y-24517041D02*
X63898000Y-24517041D01*
X72148000Y-24477041D02*
X63852000Y-24477041D01*
X72194000Y-24437041D02*
X63806000Y-24437041D01*
X72200000Y-13483959D02*
X70950000Y-13483959D01*
X72238000Y-24397041D02*
X63762000Y-24397041D01*
X72282000Y-24357041D02*
X63718000Y-24357041D01*
X72325000Y-24317041D02*
X63675000Y-24317041D01*
X72367000Y-24277041D02*
X63633000Y-24277041D01*
X72408000Y-24237041D02*
X63592000Y-24237041D01*
X72449000Y-24197041D02*
X63551000Y-24197041D01*
X72489000Y-24157041D02*
X63511000Y-24157041D01*
X72528000Y-24117041D02*
X63472000Y-24117041D01*
X72567000Y-24077041D02*
X63433000Y-24077041D01*
X72605000Y-24037041D02*
X63395000Y-24037041D01*
X72642000Y-23997041D02*
X63358000Y-23997041D01*
X72678000Y-23957041D02*
X63322000Y-23957041D01*
X72714000Y-23917041D02*
X63286000Y-23917041D01*
X72750000Y-23877041D02*
X63250000Y-23877041D01*
X72785000Y-23837041D02*
X63215000Y-23837041D01*
X72819000Y-23797041D02*
X63181000Y-23797041D01*
X72852000Y-23757041D02*
X63148000Y-23757041D01*
X72885000Y-23717041D02*
X63115000Y-23717041D01*
X72918000Y-23677041D02*
X63082000Y-23677041D01*
X72950000Y-23637041D02*
X63050000Y-23637041D01*
X72982000Y-23597041D02*
X69440000Y-23597041D01*
X73012000Y-23557041D02*
X69440000Y-23557041D01*
X73043000Y-23517041D02*
X69440000Y-23517041D01*
X73073000Y-23477041D02*
X69440000Y-23477041D01*
X73102000Y-23437041D02*
X69440000Y-23437041D01*
X73131000Y-23397041D02*
X69440000Y-23397041D01*
X73160000Y-23357041D02*
X69440000Y-23357041D01*
X73188000Y-23317041D02*
X69440000Y-23317041D01*
X73216000Y-23277041D02*
X69440000Y-23277041D01*
X73243000Y-23237041D02*
X69440000Y-23237041D01*
X73270000Y-23197041D02*
X69440000Y-23197041D01*
X73296000Y-23157041D02*
X69440000Y-23157041D01*
X73322000Y-23117041D02*
X69440000Y-23117041D01*
X73347000Y-23077041D02*
X69440000Y-23077041D01*
X73372000Y-23037041D02*
X69440000Y-23037041D01*
X73397000Y-22997041D02*
X69440000Y-22997041D01*
X73421000Y-22957041D02*
X69440000Y-22957041D01*
X73445000Y-22917041D02*
X69440000Y-22917041D01*
X73468000Y-22877041D02*
X69440000Y-22877041D01*
X73491000Y-22837041D02*
X69440000Y-22837041D01*
X73514000Y-22797041D02*
X69440000Y-22797041D01*
X73536000Y-22757041D02*
X69440000Y-22757041D01*
X73558000Y-22717041D02*
X69440000Y-22717041D01*
X73580000Y-22677041D02*
X69440000Y-22677041D01*
X73601000Y-22637041D02*
X69440000Y-22637041D01*
X73622000Y-22597041D02*
X69440000Y-22597041D01*
X73642000Y-22557041D02*
X69440000Y-22557041D01*
X73662000Y-22517041D02*
X69440000Y-22517041D01*
X73682000Y-22477041D02*
X69440000Y-22477041D01*
X73702000Y-22437041D02*
X69440000Y-22437041D01*
X73721000Y-22397041D02*
X69440000Y-22397041D01*
X73739000Y-22357041D02*
X69440000Y-22357041D01*
X73758000Y-22317041D02*
X69440000Y-22317041D01*
X73776000Y-22277041D02*
X69440000Y-22277041D01*
X73793000Y-22237041D02*
X69440000Y-22237041D01*
X73811000Y-22197041D02*
X69440000Y-22197041D01*
X73828000Y-22157041D02*
X69440000Y-22157041D01*
X73845000Y-22117041D02*
X69440000Y-22117041D01*
X73861000Y-22077041D02*
X69440000Y-22077041D01*
X73877000Y-22037041D02*
X69440000Y-22037041D01*
X73893000Y-21997041D02*
X69440000Y-21997041D01*
X73908000Y-21957041D02*
X69440000Y-21957041D01*
X73924000Y-21917041D02*
X69440000Y-21917041D01*
X73939000Y-21877041D02*
X69440000Y-21877041D01*
X73953000Y-21837041D02*
X69440000Y-21837041D01*
X73967000Y-21797041D02*
X69440000Y-21797041D01*
X73981000Y-21757041D02*
X69440000Y-21757041D01*
X73995000Y-21717041D02*
X69440000Y-21717041D01*
X74008000Y-21677041D02*
X69440000Y-21677041D01*
X74021000Y-21637041D02*
X69440000Y-21637041D01*
X74034000Y-21597041D02*
X69440000Y-21597041D01*
X74047000Y-21557041D02*
X69440000Y-21557041D01*
X74059000Y-21517041D02*
X69440000Y-21517041D01*
X74071000Y-21477041D02*
X69440000Y-21477041D01*
X74083000Y-21437041D02*
X69440000Y-21437041D01*
X74094000Y-21397041D02*
X69440000Y-21397041D01*
X74105000Y-21357041D02*
X69440000Y-21357041D01*
X74116000Y-21317041D02*
X69440000Y-21317041D01*
X74126000Y-21277041D02*
X69440000Y-21277041D01*
X74137000Y-21237041D02*
X69440000Y-21237041D01*
X74146000Y-21197041D02*
X69440000Y-21197041D01*
X74156000Y-21157041D02*
X69440000Y-21157041D01*
X74166000Y-21117041D02*
X69440000Y-21117041D01*
X74175000Y-21077041D02*
X69440000Y-21077041D01*
X74184000Y-21037041D02*
X69440000Y-21037041D01*
X74192000Y-20997041D02*
X69440000Y-20997041D01*
X74201000Y-20957041D02*
X69440000Y-20957041D01*
X74209000Y-20917041D02*
X69440000Y-20917041D01*
X74216000Y-20877041D02*
X69440000Y-20877041D01*
X74224000Y-20837041D02*
X69440000Y-20837041D01*
X74231000Y-20797041D02*
X69440000Y-20797041D01*
X74238000Y-20757041D02*
X69440000Y-20757041D01*
X74245000Y-20717041D02*
X61755000Y-20717041D01*
X74252000Y-20677041D02*
X61748000Y-20677041D01*
X74258000Y-20637041D02*
X61742000Y-20637041D01*
X74264000Y-20597041D02*
X61736000Y-20597041D01*
X74269000Y-20557041D02*
X61731000Y-20557041D01*
X74275000Y-20517041D02*
X61725000Y-20517041D01*
X74280000Y-20477041D02*
X61720000Y-20477041D01*
X74285000Y-20437041D02*
X61715000Y-20437041D01*
X74290000Y-20397041D02*
X61710000Y-20397041D01*
X74294000Y-20356041D02*
X61706000Y-20356041D01*
X74298000Y-20316041D02*
X61702000Y-20316041D01*
X74302000Y-20276041D02*
X61698000Y-20276041D01*
X74306000Y-20236041D02*
X61694000Y-20236041D01*
X74309000Y-20196041D02*
X61691000Y-20196041D01*
X74312000Y-20156041D02*
X61688000Y-20156041D01*
X74315000Y-20116041D02*
X61685000Y-20116041D01*
X74318000Y-20076041D02*
X61682000Y-20076041D01*
X74320000Y-20036041D02*
X61680000Y-20036041D01*
X74322000Y-19996041D02*
X61678000Y-19996041D01*
X74324000Y-19956041D02*
X61676000Y-19956041D01*
X74326000Y-19916041D02*
X61674000Y-19916041D01*
X74327000Y-19876041D02*
X61673000Y-19876041D01*
X74328000Y-19836041D02*
X61672000Y-19836041D01*
X74329000Y-19796041D02*
X61671000Y-19796041D01*
X74330000Y-19676041D02*
X61670000Y-19676041D01*
X74330000Y-19716041D02*
X61670000Y-19716041D01*
X74330000Y-19756041D02*
X61670000Y-19756041D01*
X74370000Y-19676041D02*
G75*
G02*
X61630000Y-19676041I-6370000J0D01*
G01*
X61630000Y-19676041D02*
G75*
G02*
X74370000Y-19676041I6370000J0D01*
G01*
D13*
%TO.C,Q2*%
X49296980Y-48548000D02*
X49296980Y-54248500D01*
X56496980Y-48548000D02*
X49296980Y-48548000D01*
X56496980Y-48548000D02*
X56496980Y-54248500D01*
X56496980Y-54248500D02*
X49296980Y-54248500D01*
D14*
X57271530Y-53005000D02*
G75*
G02*
X57021530Y-53005000I-125000J0D01*
G01*
X57021530Y-53005000D02*
G75*
G02*
X57271530Y-53005000I125000J0D01*
G01*
D13*
%TO.C,Q6*%
X49296980Y-13540000D02*
X49296980Y-19240500D01*
X56496980Y-13540000D02*
X49296980Y-13540000D01*
X56496980Y-13540000D02*
X56496980Y-19240500D01*
X56496980Y-19240500D02*
X49296980Y-19240500D01*
D14*
X57271530Y-17997000D02*
G75*
G02*
X57021530Y-17997000I-125000J0D01*
G01*
X57021530Y-17997000D02*
G75*
G02*
X57271530Y-17997000I125000J0D01*
G01*
D15*
%TO.C,C6*%
X66726666Y-35757041D02*
X61928666Y-35757041D01*
X66726666Y-35797041D02*
X61935666Y-35797041D01*
X66726666Y-35837041D02*
X61942666Y-35837041D01*
X66726666Y-35877041D02*
X61950666Y-35877041D01*
X66726666Y-35917041D02*
X61957666Y-35917041D01*
X66726666Y-35957041D02*
X61965666Y-35957041D01*
X66726666Y-35997041D02*
X61974666Y-35997041D01*
X66726666Y-36037041D02*
X61982666Y-36037041D01*
X66726666Y-36077041D02*
X61991666Y-36077041D01*
X66726666Y-36117041D02*
X62000666Y-36117041D01*
X66726666Y-36157041D02*
X62010666Y-36157041D01*
X66726666Y-36197041D02*
X62020666Y-36197041D01*
X66726666Y-36237041D02*
X62029666Y-36237041D01*
X66726666Y-36277041D02*
X62040666Y-36277041D01*
X66726666Y-36317041D02*
X62050666Y-36317041D01*
X66726666Y-36357041D02*
X62061666Y-36357041D01*
X66726666Y-36397041D02*
X62072666Y-36397041D01*
X66726666Y-36437041D02*
X62083666Y-36437041D01*
X66726666Y-36477041D02*
X62095666Y-36477041D01*
X66726666Y-36517041D02*
X62107666Y-36517041D01*
X66726666Y-36557041D02*
X62119666Y-36557041D01*
X66726666Y-36597041D02*
X62132666Y-36597041D01*
X66726666Y-36637041D02*
X62145666Y-36637041D01*
X66726666Y-36677041D02*
X62158666Y-36677041D01*
X66726666Y-36717041D02*
X62171666Y-36717041D01*
X66726666Y-36757041D02*
X62185666Y-36757041D01*
X66726666Y-36797041D02*
X62199666Y-36797041D01*
X66726666Y-36837041D02*
X62213666Y-36837041D01*
X66726666Y-36877041D02*
X62227666Y-36877041D01*
X66726666Y-36917041D02*
X62242666Y-36917041D01*
X66726666Y-36957041D02*
X62258666Y-36957041D01*
X66726666Y-36997041D02*
X62273666Y-36997041D01*
X66726666Y-37037041D02*
X62289666Y-37037041D01*
X66726666Y-37077041D02*
X62305666Y-37077041D01*
X66726666Y-37117041D02*
X62321666Y-37117041D01*
X66726666Y-37157041D02*
X62338666Y-37157041D01*
X66726666Y-37197041D02*
X62355666Y-37197041D01*
X66726666Y-37237041D02*
X62373666Y-37237041D01*
X66726666Y-37277041D02*
X62390666Y-37277041D01*
X66726666Y-37317041D02*
X62408666Y-37317041D01*
X66726666Y-37357041D02*
X62427666Y-37357041D01*
X66726666Y-37397041D02*
X62445666Y-37397041D01*
X66726666Y-37437041D02*
X62464666Y-37437041D01*
X66726666Y-37477041D02*
X62484666Y-37477041D01*
X66726666Y-37517041D02*
X62504666Y-37517041D01*
X66726666Y-37557041D02*
X62524666Y-37557041D01*
X66726666Y-37597041D02*
X62544666Y-37597041D01*
X66726666Y-37637041D02*
X62565666Y-37637041D01*
X66726666Y-37677041D02*
X62586666Y-37677041D01*
X66726666Y-37717041D02*
X62608666Y-37717041D01*
X66726666Y-37757041D02*
X62630666Y-37757041D01*
X66726666Y-37797041D02*
X62652666Y-37797041D01*
X66726666Y-37837041D02*
X62675666Y-37837041D01*
X66726666Y-37877041D02*
X62698666Y-37877041D01*
X66726666Y-37917041D02*
X62721666Y-37917041D01*
X66726666Y-37957041D02*
X62745666Y-37957041D01*
X66726666Y-37997041D02*
X62769666Y-37997041D01*
X66726666Y-38037041D02*
X62794666Y-38037041D01*
X66726666Y-38077041D02*
X62819666Y-38077041D01*
X66726666Y-38117041D02*
X62844666Y-38117041D01*
X66726666Y-38157041D02*
X62870666Y-38157041D01*
X66726666Y-38197041D02*
X62896666Y-38197041D01*
X66726666Y-38237041D02*
X62923666Y-38237041D01*
X66726666Y-38277041D02*
X62950666Y-38277041D01*
X66726666Y-38317041D02*
X62978666Y-38317041D01*
X66726666Y-38357041D02*
X63006666Y-38357041D01*
X66726666Y-38397041D02*
X63035666Y-38397041D01*
X66726666Y-38437041D02*
X63064666Y-38437041D01*
X66726666Y-38477041D02*
X63093666Y-38477041D01*
X66726666Y-38517041D02*
X63123666Y-38517041D01*
X66726666Y-38557041D02*
X63154666Y-38557041D01*
X66726666Y-38597041D02*
X63184666Y-38597041D01*
X68483666Y-41037041D02*
X67849666Y-41037041D01*
X68923666Y-40997041D02*
X67409666Y-40997041D01*
X69194666Y-40957041D02*
X67138666Y-40957041D01*
X69407666Y-40917041D02*
X66925666Y-40917041D01*
X69588666Y-40877041D02*
X66744666Y-40877041D01*
X69749666Y-40837041D02*
X66583666Y-40837041D01*
X69894666Y-40797041D02*
X66438666Y-40797041D01*
X70027666Y-40757041D02*
X66305666Y-40757041D01*
X70150666Y-40717041D02*
X66182666Y-40717041D01*
X70266666Y-40677041D02*
X66066666Y-40677041D01*
X70375666Y-40637041D02*
X65957666Y-40637041D01*
X70478666Y-40597041D02*
X65854666Y-40597041D01*
X70576666Y-40557041D02*
X65756666Y-40557041D01*
X70670666Y-40517041D02*
X65662666Y-40517041D01*
X70760666Y-40477041D02*
X65572666Y-40477041D01*
X70847666Y-40437041D02*
X65485666Y-40437041D01*
X70930666Y-40397041D02*
X65402666Y-40397041D01*
X71010666Y-40357041D02*
X65322666Y-40357041D01*
X71087666Y-40317041D02*
X65245666Y-40317041D01*
X71162666Y-40277041D02*
X65170666Y-40277041D01*
X71235666Y-40237041D02*
X65097666Y-40237041D01*
X71306666Y-40197041D02*
X65026666Y-40197041D01*
X71374666Y-40157041D02*
X64958666Y-40157041D01*
X71441666Y-40117041D02*
X64891666Y-40117041D01*
X71505666Y-40077041D02*
X64827666Y-40077041D01*
X71568666Y-40037041D02*
X64764666Y-40037041D01*
X71630666Y-39997041D02*
X64702666Y-39997041D01*
X71690666Y-39957041D02*
X64642666Y-39957041D01*
X71741666Y-27858959D02*
X71741666Y-29108959D01*
X71749666Y-39917041D02*
X64583666Y-39917041D01*
X71806666Y-39877041D02*
X64526666Y-39877041D01*
X71862666Y-39837041D02*
X64470666Y-39837041D01*
X71916666Y-39797041D02*
X64416666Y-39797041D01*
X71970666Y-39757041D02*
X64362666Y-39757041D01*
X72022666Y-39717041D02*
X64310666Y-39717041D01*
X72073666Y-39677041D02*
X64259666Y-39677041D01*
X72123666Y-39637041D02*
X64209666Y-39637041D01*
X72173666Y-39597041D02*
X64159666Y-39597041D01*
X72221666Y-39557041D02*
X64111666Y-39557041D01*
X72268666Y-39517041D02*
X64064666Y-39517041D01*
X72314666Y-39477041D02*
X64018666Y-39477041D01*
X72360666Y-39437041D02*
X63972666Y-39437041D01*
X72366666Y-28483959D02*
X71116666Y-28483959D01*
X72404666Y-39397041D02*
X63928666Y-39397041D01*
X72448666Y-39357041D02*
X63884666Y-39357041D01*
X72491666Y-39317041D02*
X63841666Y-39317041D01*
X72533666Y-39277041D02*
X63799666Y-39277041D01*
X72574666Y-39237041D02*
X63758666Y-39237041D01*
X72615666Y-39197041D02*
X63717666Y-39197041D01*
X72655666Y-39157041D02*
X63677666Y-39157041D01*
X72694666Y-39117041D02*
X63638666Y-39117041D01*
X72733666Y-39077041D02*
X63599666Y-39077041D01*
X72771666Y-39037041D02*
X63561666Y-39037041D01*
X72808666Y-38997041D02*
X63524666Y-38997041D01*
X72844666Y-38957041D02*
X63488666Y-38957041D01*
X72880666Y-38917041D02*
X63452666Y-38917041D01*
X72916666Y-38877041D02*
X63416666Y-38877041D01*
X72951666Y-38837041D02*
X63381666Y-38837041D01*
X72985666Y-38797041D02*
X63347666Y-38797041D01*
X73018666Y-38757041D02*
X63314666Y-38757041D01*
X73051666Y-38717041D02*
X63281666Y-38717041D01*
X73084666Y-38677041D02*
X63248666Y-38677041D01*
X73116666Y-38637041D02*
X63216666Y-38637041D01*
X73148666Y-38597041D02*
X69606666Y-38597041D01*
X73178666Y-38557041D02*
X69606666Y-38557041D01*
X73209666Y-38517041D02*
X69606666Y-38517041D01*
X73239666Y-38477041D02*
X69606666Y-38477041D01*
X73268666Y-38437041D02*
X69606666Y-38437041D01*
X73297666Y-38397041D02*
X69606666Y-38397041D01*
X73326666Y-38357041D02*
X69606666Y-38357041D01*
X73354666Y-38317041D02*
X69606666Y-38317041D01*
X73382666Y-38277041D02*
X69606666Y-38277041D01*
X73409666Y-38237041D02*
X69606666Y-38237041D01*
X73436666Y-38197041D02*
X69606666Y-38197041D01*
X73462666Y-38157041D02*
X69606666Y-38157041D01*
X73488666Y-38117041D02*
X69606666Y-38117041D01*
X73513666Y-38077041D02*
X69606666Y-38077041D01*
X73538666Y-38037041D02*
X69606666Y-38037041D01*
X73563666Y-37997041D02*
X69606666Y-37997041D01*
X73587666Y-37957041D02*
X69606666Y-37957041D01*
X73611666Y-37917041D02*
X69606666Y-37917041D01*
X73634666Y-37877041D02*
X69606666Y-37877041D01*
X73657666Y-37837041D02*
X69606666Y-37837041D01*
X73680666Y-37797041D02*
X69606666Y-37797041D01*
X73702666Y-37757041D02*
X69606666Y-37757041D01*
X73724666Y-37717041D02*
X69606666Y-37717041D01*
X73746666Y-37677041D02*
X69606666Y-37677041D01*
X73767666Y-37637041D02*
X69606666Y-37637041D01*
X73788666Y-37597041D02*
X69606666Y-37597041D01*
X73808666Y-37557041D02*
X69606666Y-37557041D01*
X73828666Y-37517041D02*
X69606666Y-37517041D01*
X73848666Y-37477041D02*
X69606666Y-37477041D01*
X73868666Y-37437041D02*
X69606666Y-37437041D01*
X73887666Y-37397041D02*
X69606666Y-37397041D01*
X73905666Y-37357041D02*
X69606666Y-37357041D01*
X73924666Y-37317041D02*
X69606666Y-37317041D01*
X73942666Y-37277041D02*
X69606666Y-37277041D01*
X73959666Y-37237041D02*
X69606666Y-37237041D01*
X73977666Y-37197041D02*
X69606666Y-37197041D01*
X73994666Y-37157041D02*
X69606666Y-37157041D01*
X74011666Y-37117041D02*
X69606666Y-37117041D01*
X74027666Y-37077041D02*
X69606666Y-37077041D01*
X74043666Y-37037041D02*
X69606666Y-37037041D01*
X74059666Y-36997041D02*
X69606666Y-36997041D01*
X74074666Y-36957041D02*
X69606666Y-36957041D01*
X74090666Y-36917041D02*
X69606666Y-36917041D01*
X74105666Y-36877041D02*
X69606666Y-36877041D01*
X74119666Y-36837041D02*
X69606666Y-36837041D01*
X74133666Y-36797041D02*
X69606666Y-36797041D01*
X74147666Y-36757041D02*
X69606666Y-36757041D01*
X74161666Y-36717041D02*
X69606666Y-36717041D01*
X74174666Y-36677041D02*
X69606666Y-36677041D01*
X74187666Y-36637041D02*
X69606666Y-36637041D01*
X74200666Y-36597041D02*
X69606666Y-36597041D01*
X74213666Y-36557041D02*
X69606666Y-36557041D01*
X74225666Y-36517041D02*
X69606666Y-36517041D01*
X74237666Y-36477041D02*
X69606666Y-36477041D01*
X74249666Y-36437041D02*
X69606666Y-36437041D01*
X74260666Y-36397041D02*
X69606666Y-36397041D01*
X74271666Y-36357041D02*
X69606666Y-36357041D01*
X74282666Y-36317041D02*
X69606666Y-36317041D01*
X74292666Y-36277041D02*
X69606666Y-36277041D01*
X74303666Y-36237041D02*
X69606666Y-36237041D01*
X74312666Y-36197041D02*
X69606666Y-36197041D01*
X74322666Y-36157041D02*
X69606666Y-36157041D01*
X74332666Y-36117041D02*
X69606666Y-36117041D01*
X74341666Y-36077041D02*
X69606666Y-36077041D01*
X74350666Y-36037041D02*
X69606666Y-36037041D01*
X74358666Y-35997041D02*
X69606666Y-35997041D01*
X74367666Y-35957041D02*
X69606666Y-35957041D01*
X74375666Y-35917041D02*
X69606666Y-35917041D01*
X74382666Y-35877041D02*
X69606666Y-35877041D01*
X74390666Y-35837041D02*
X69606666Y-35837041D01*
X74397666Y-35797041D02*
X69606666Y-35797041D01*
X74404666Y-35757041D02*
X69606666Y-35757041D01*
X74411666Y-35717041D02*
X61921666Y-35717041D01*
X74418666Y-35677041D02*
X61914666Y-35677041D01*
X74424666Y-35637041D02*
X61908666Y-35637041D01*
X74430666Y-35597041D02*
X61902666Y-35597041D01*
X74435666Y-35557041D02*
X61897666Y-35557041D01*
X74441666Y-35517041D02*
X61891666Y-35517041D01*
X74446666Y-35477041D02*
X61886666Y-35477041D01*
X74451666Y-35437041D02*
X61881666Y-35437041D01*
X74456666Y-35397041D02*
X61876666Y-35397041D01*
X74460666Y-35356041D02*
X61872666Y-35356041D01*
X74464666Y-35316041D02*
X61868666Y-35316041D01*
X74468666Y-35276041D02*
X61864666Y-35276041D01*
X74472666Y-35236041D02*
X61860666Y-35236041D01*
X74475666Y-35196041D02*
X61857666Y-35196041D01*
X74478666Y-35156041D02*
X61854666Y-35156041D01*
X74481666Y-35116041D02*
X61851666Y-35116041D01*
X74484666Y-35076041D02*
X61848666Y-35076041D01*
X74486666Y-35036041D02*
X61846666Y-35036041D01*
X74488666Y-34996041D02*
X61844666Y-34996041D01*
X74490666Y-34956041D02*
X61842666Y-34956041D01*
X74492666Y-34916041D02*
X61840666Y-34916041D01*
X74493666Y-34876041D02*
X61839666Y-34876041D01*
X74494666Y-34836041D02*
X61838666Y-34836041D01*
X74495666Y-34796041D02*
X61837666Y-34796041D01*
X74496666Y-34676041D02*
X61836666Y-34676041D01*
X74496666Y-34716041D02*
X61836666Y-34716041D01*
X74496666Y-34756041D02*
X61836666Y-34756041D01*
X74536666Y-34676041D02*
G75*
G02*
X61796666Y-34676041I-6370000J0D01*
G01*
X61796666Y-34676041D02*
G75*
G02*
X74536666Y-34676041I6370000J0D01*
G01*
%TO.C,R3*%
X51645000Y-71746359D02*
X51645000Y-72053641D01*
X52405000Y-71746359D02*
X52405000Y-72053641D01*
%TO.C,C4*%
X66893332Y-65757041D02*
X62095332Y-65757041D01*
X66893332Y-65797041D02*
X62102332Y-65797041D01*
X66893332Y-65837041D02*
X62109332Y-65837041D01*
X66893332Y-65877041D02*
X62117332Y-65877041D01*
X66893332Y-65917041D02*
X62124332Y-65917041D01*
X66893332Y-65957041D02*
X62132332Y-65957041D01*
X66893332Y-65997041D02*
X62141332Y-65997041D01*
X66893332Y-66037041D02*
X62149332Y-66037041D01*
X66893332Y-66077041D02*
X62158332Y-66077041D01*
X66893332Y-66117041D02*
X62167332Y-66117041D01*
X66893332Y-66157041D02*
X62177332Y-66157041D01*
X66893332Y-66197041D02*
X62187332Y-66197041D01*
X66893332Y-66237041D02*
X62196332Y-66237041D01*
X66893332Y-66277041D02*
X62207332Y-66277041D01*
X66893332Y-66317041D02*
X62217332Y-66317041D01*
X66893332Y-66357041D02*
X62228332Y-66357041D01*
X66893332Y-66397041D02*
X62239332Y-66397041D01*
X66893332Y-66437041D02*
X62250332Y-66437041D01*
X66893332Y-66477041D02*
X62262332Y-66477041D01*
X66893332Y-66517041D02*
X62274332Y-66517041D01*
X66893332Y-66557041D02*
X62286332Y-66557041D01*
X66893332Y-66597041D02*
X62299332Y-66597041D01*
X66893332Y-66637041D02*
X62312332Y-66637041D01*
X66893332Y-66677041D02*
X62325332Y-66677041D01*
X66893332Y-66717041D02*
X62338332Y-66717041D01*
X66893332Y-66757041D02*
X62352332Y-66757041D01*
X66893332Y-66797041D02*
X62366332Y-66797041D01*
X66893332Y-66837041D02*
X62380332Y-66837041D01*
X66893332Y-66877041D02*
X62394332Y-66877041D01*
X66893332Y-66917041D02*
X62409332Y-66917041D01*
X66893332Y-66957041D02*
X62425332Y-66957041D01*
X66893332Y-66997041D02*
X62440332Y-66997041D01*
X66893332Y-67037041D02*
X62456332Y-67037041D01*
X66893332Y-67077041D02*
X62472332Y-67077041D01*
X66893332Y-67117041D02*
X62488332Y-67117041D01*
X66893332Y-67157041D02*
X62505332Y-67157041D01*
X66893332Y-67197041D02*
X62522332Y-67197041D01*
X66893332Y-67237041D02*
X62540332Y-67237041D01*
X66893332Y-67277041D02*
X62557332Y-67277041D01*
X66893332Y-67317041D02*
X62575332Y-67317041D01*
X66893332Y-67357041D02*
X62594332Y-67357041D01*
X66893332Y-67397041D02*
X62612332Y-67397041D01*
X66893332Y-67437041D02*
X62631332Y-67437041D01*
X66893332Y-67477041D02*
X62651332Y-67477041D01*
X66893332Y-67517041D02*
X62671332Y-67517041D01*
X66893332Y-67557041D02*
X62691332Y-67557041D01*
X66893332Y-67597041D02*
X62711332Y-67597041D01*
X66893332Y-67637041D02*
X62732332Y-67637041D01*
X66893332Y-67677041D02*
X62753332Y-67677041D01*
X66893332Y-67717041D02*
X62775332Y-67717041D01*
X66893332Y-67757041D02*
X62797332Y-67757041D01*
X66893332Y-67797041D02*
X62819332Y-67797041D01*
X66893332Y-67837041D02*
X62842332Y-67837041D01*
X66893332Y-67877041D02*
X62865332Y-67877041D01*
X66893332Y-67917041D02*
X62888332Y-67917041D01*
X66893332Y-67957041D02*
X62912332Y-67957041D01*
X66893332Y-67997041D02*
X62936332Y-67997041D01*
X66893332Y-68037041D02*
X62961332Y-68037041D01*
X66893332Y-68077041D02*
X62986332Y-68077041D01*
X66893332Y-68117041D02*
X63011332Y-68117041D01*
X66893332Y-68157041D02*
X63037332Y-68157041D01*
X66893332Y-68197041D02*
X63063332Y-68197041D01*
X66893332Y-68237041D02*
X63090332Y-68237041D01*
X66893332Y-68277041D02*
X63117332Y-68277041D01*
X66893332Y-68317041D02*
X63145332Y-68317041D01*
X66893332Y-68357041D02*
X63173332Y-68357041D01*
X66893332Y-68397041D02*
X63202332Y-68397041D01*
X66893332Y-68437041D02*
X63231332Y-68437041D01*
X66893332Y-68477041D02*
X63260332Y-68477041D01*
X66893332Y-68517041D02*
X63290332Y-68517041D01*
X66893332Y-68557041D02*
X63321332Y-68557041D01*
X66893332Y-68597041D02*
X63351332Y-68597041D01*
X68650332Y-71037041D02*
X68016332Y-71037041D01*
X69090332Y-70997041D02*
X67576332Y-70997041D01*
X69361332Y-70957041D02*
X67305332Y-70957041D01*
X69574332Y-70917041D02*
X67092332Y-70917041D01*
X69755332Y-70877041D02*
X66911332Y-70877041D01*
X69916332Y-70837041D02*
X66750332Y-70837041D01*
X70061332Y-70797041D02*
X66605332Y-70797041D01*
X70194332Y-70757041D02*
X66472332Y-70757041D01*
X70317332Y-70717041D02*
X66349332Y-70717041D01*
X70433332Y-70677041D02*
X66233332Y-70677041D01*
X70542332Y-70637041D02*
X66124332Y-70637041D01*
X70645332Y-70597041D02*
X66021332Y-70597041D01*
X70743332Y-70557041D02*
X65923332Y-70557041D01*
X70837332Y-70517041D02*
X65829332Y-70517041D01*
X70927332Y-70477041D02*
X65739332Y-70477041D01*
X71014332Y-70437041D02*
X65652332Y-70437041D01*
X71097332Y-70397041D02*
X65569332Y-70397041D01*
X71177332Y-70357041D02*
X65489332Y-70357041D01*
X71254332Y-70317041D02*
X65412332Y-70317041D01*
X71329332Y-70277041D02*
X65337332Y-70277041D01*
X71402332Y-70237041D02*
X65264332Y-70237041D01*
X71473332Y-70197041D02*
X65193332Y-70197041D01*
X71541332Y-70157041D02*
X65125332Y-70157041D01*
X71608332Y-70117041D02*
X65058332Y-70117041D01*
X71672332Y-70077041D02*
X64994332Y-70077041D01*
X71735332Y-70037041D02*
X64931332Y-70037041D01*
X71797332Y-69997041D02*
X64869332Y-69997041D01*
X71857332Y-69957041D02*
X64809332Y-69957041D01*
X71908332Y-57858959D02*
X71908332Y-59108959D01*
X71916332Y-69917041D02*
X64750332Y-69917041D01*
X71973332Y-69877041D02*
X64693332Y-69877041D01*
X72029332Y-69837041D02*
X64637332Y-69837041D01*
X72083332Y-69797041D02*
X64583332Y-69797041D01*
X72137332Y-69757041D02*
X64529332Y-69757041D01*
X72189332Y-69717041D02*
X64477332Y-69717041D01*
X72240332Y-69677041D02*
X64426332Y-69677041D01*
X72290332Y-69637041D02*
X64376332Y-69637041D01*
X72340332Y-69597041D02*
X64326332Y-69597041D01*
X72388332Y-69557041D02*
X64278332Y-69557041D01*
X72435332Y-69517041D02*
X64231332Y-69517041D01*
X72481332Y-69477041D02*
X64185332Y-69477041D01*
X72527332Y-69437041D02*
X64139332Y-69437041D01*
X72533332Y-58483959D02*
X71283332Y-58483959D01*
X72571332Y-69397041D02*
X64095332Y-69397041D01*
X72615332Y-69357041D02*
X64051332Y-69357041D01*
X72658332Y-69317041D02*
X64008332Y-69317041D01*
X72700332Y-69277041D02*
X63966332Y-69277041D01*
X72741332Y-69237041D02*
X63925332Y-69237041D01*
X72782332Y-69197041D02*
X63884332Y-69197041D01*
X72822332Y-69157041D02*
X63844332Y-69157041D01*
X72861332Y-69117041D02*
X63805332Y-69117041D01*
X72900332Y-69077041D02*
X63766332Y-69077041D01*
X72938332Y-69037041D02*
X63728332Y-69037041D01*
X72975332Y-68997041D02*
X63691332Y-68997041D01*
X73011332Y-68957041D02*
X63655332Y-68957041D01*
X73047332Y-68917041D02*
X63619332Y-68917041D01*
X73083332Y-68877041D02*
X63583332Y-68877041D01*
X73118332Y-68837041D02*
X63548332Y-68837041D01*
X73152332Y-68797041D02*
X63514332Y-68797041D01*
X73185332Y-68757041D02*
X63481332Y-68757041D01*
X73218332Y-68717041D02*
X63448332Y-68717041D01*
X73251332Y-68677041D02*
X63415332Y-68677041D01*
X73283332Y-68637041D02*
X63383332Y-68637041D01*
X73315332Y-68597041D02*
X69773332Y-68597041D01*
X73345332Y-68557041D02*
X69773332Y-68557041D01*
X73376332Y-68517041D02*
X69773332Y-68517041D01*
X73406332Y-68477041D02*
X69773332Y-68477041D01*
X73435332Y-68437041D02*
X69773332Y-68437041D01*
X73464332Y-68397041D02*
X69773332Y-68397041D01*
X73493332Y-68357041D02*
X69773332Y-68357041D01*
X73521332Y-68317041D02*
X69773332Y-68317041D01*
X73549332Y-68277041D02*
X69773332Y-68277041D01*
X73576332Y-68237041D02*
X69773332Y-68237041D01*
X73603332Y-68197041D02*
X69773332Y-68197041D01*
X73629332Y-68157041D02*
X69773332Y-68157041D01*
X73655332Y-68117041D02*
X69773332Y-68117041D01*
X73680332Y-68077041D02*
X69773332Y-68077041D01*
X73705332Y-68037041D02*
X69773332Y-68037041D01*
X73730332Y-67997041D02*
X69773332Y-67997041D01*
X73754332Y-67957041D02*
X69773332Y-67957041D01*
X73778332Y-67917041D02*
X69773332Y-67917041D01*
X73801332Y-67877041D02*
X69773332Y-67877041D01*
X73824332Y-67837041D02*
X69773332Y-67837041D01*
X73847332Y-67797041D02*
X69773332Y-67797041D01*
X73869332Y-67757041D02*
X69773332Y-67757041D01*
X73891332Y-67717041D02*
X69773332Y-67717041D01*
X73913332Y-67677041D02*
X69773332Y-67677041D01*
X73934332Y-67637041D02*
X69773332Y-67637041D01*
X73955332Y-67597041D02*
X69773332Y-67597041D01*
X73975332Y-67557041D02*
X69773332Y-67557041D01*
X73995332Y-67517041D02*
X69773332Y-67517041D01*
X74015332Y-67477041D02*
X69773332Y-67477041D01*
X74035332Y-67437041D02*
X69773332Y-67437041D01*
X74054332Y-67397041D02*
X69773332Y-67397041D01*
X74072332Y-67357041D02*
X69773332Y-67357041D01*
X74091332Y-67317041D02*
X69773332Y-67317041D01*
X74109332Y-67277041D02*
X69773332Y-67277041D01*
X74126332Y-67237041D02*
X69773332Y-67237041D01*
X74144332Y-67197041D02*
X69773332Y-67197041D01*
X74161332Y-67157041D02*
X69773332Y-67157041D01*
X74178332Y-67117041D02*
X69773332Y-67117041D01*
X74194332Y-67077041D02*
X69773332Y-67077041D01*
X74210332Y-67037041D02*
X69773332Y-67037041D01*
X74226332Y-66997041D02*
X69773332Y-66997041D01*
X74241332Y-66957041D02*
X69773332Y-66957041D01*
X74257332Y-66917041D02*
X69773332Y-66917041D01*
X74272332Y-66877041D02*
X69773332Y-66877041D01*
X74286332Y-66837041D02*
X69773332Y-66837041D01*
X74300332Y-66797041D02*
X69773332Y-66797041D01*
X74314332Y-66757041D02*
X69773332Y-66757041D01*
X74328332Y-66717041D02*
X69773332Y-66717041D01*
X74341332Y-66677041D02*
X69773332Y-66677041D01*
X74354332Y-66637041D02*
X69773332Y-66637041D01*
X74367332Y-66597041D02*
X69773332Y-66597041D01*
X74380332Y-66557041D02*
X69773332Y-66557041D01*
X74392332Y-66517041D02*
X69773332Y-66517041D01*
X74404332Y-66477041D02*
X69773332Y-66477041D01*
X74416332Y-66437041D02*
X69773332Y-66437041D01*
X74427332Y-66397041D02*
X69773332Y-66397041D01*
X74438332Y-66357041D02*
X69773332Y-66357041D01*
X74449332Y-66317041D02*
X69773332Y-66317041D01*
X74459332Y-66277041D02*
X69773332Y-66277041D01*
X74470332Y-66237041D02*
X69773332Y-66237041D01*
X74479332Y-66197041D02*
X69773332Y-66197041D01*
X74489332Y-66157041D02*
X69773332Y-66157041D01*
X74499332Y-66117041D02*
X69773332Y-66117041D01*
X74508332Y-66077041D02*
X69773332Y-66077041D01*
X74517332Y-66037041D02*
X69773332Y-66037041D01*
X74525332Y-65997041D02*
X69773332Y-65997041D01*
X74534332Y-65957041D02*
X69773332Y-65957041D01*
X74542332Y-65917041D02*
X69773332Y-65917041D01*
X74549332Y-65877041D02*
X69773332Y-65877041D01*
X74557332Y-65837041D02*
X69773332Y-65837041D01*
X74564332Y-65797041D02*
X69773332Y-65797041D01*
X74571332Y-65757041D02*
X69773332Y-65757041D01*
X74578332Y-65717041D02*
X62088332Y-65717041D01*
X74585332Y-65677041D02*
X62081332Y-65677041D01*
X74591332Y-65637041D02*
X62075332Y-65637041D01*
X74597332Y-65597041D02*
X62069332Y-65597041D01*
X74602332Y-65557041D02*
X62064332Y-65557041D01*
X74608332Y-65517041D02*
X62058332Y-65517041D01*
X74613332Y-65477041D02*
X62053332Y-65477041D01*
X74618332Y-65437041D02*
X62048332Y-65437041D01*
X74623332Y-65397041D02*
X62043332Y-65397041D01*
X74627332Y-65356041D02*
X62039332Y-65356041D01*
X74631332Y-65316041D02*
X62035332Y-65316041D01*
X74635332Y-65276041D02*
X62031332Y-65276041D01*
X74639332Y-65236041D02*
X62027332Y-65236041D01*
X74642332Y-65196041D02*
X62024332Y-65196041D01*
X74645332Y-65156041D02*
X62021332Y-65156041D01*
X74648332Y-65116041D02*
X62018332Y-65116041D01*
X74651332Y-65076041D02*
X62015332Y-65076041D01*
X74653332Y-65036041D02*
X62013332Y-65036041D01*
X74655332Y-64996041D02*
X62011332Y-64996041D01*
X74657332Y-64956041D02*
X62009332Y-64956041D01*
X74659332Y-64916041D02*
X62007332Y-64916041D01*
X74660332Y-64876041D02*
X62006332Y-64876041D01*
X74661332Y-64836041D02*
X62005332Y-64836041D01*
X74662332Y-64796041D02*
X62004332Y-64796041D01*
X74663332Y-64676041D02*
X62003332Y-64676041D01*
X74663332Y-64716041D02*
X62003332Y-64716041D01*
X74663332Y-64756041D02*
X62003332Y-64756041D01*
X74703332Y-64676041D02*
G75*
G02*
X61963332Y-64676041I-6370000J0D01*
G01*
X61963332Y-64676041D02*
G75*
G02*
X74703332Y-64676041I6370000J0D01*
G01*
%TD*%
%LPC*%
D16*
%TO.C,Q3*%
G36*
X50504800Y-44503560D02*
G01*
X49604800Y-44503560D01*
X49604800Y-44003550D01*
X50084800Y-44003550D01*
X50084800Y-43233560D01*
X49604800Y-43233560D01*
X49604800Y-42733550D01*
X50084800Y-42733550D01*
X50084800Y-41963560D01*
X49604800Y-41963560D01*
X49604800Y-41463550D01*
X50084800Y-41463550D01*
X50084800Y-40693560D01*
X49604800Y-40693560D01*
X49604800Y-40193550D01*
X50504800Y-40193550D01*
X50504800Y-44503560D01*
G37*
G36*
X56104800Y-40694130D02*
G01*
X55372760Y-40694130D01*
X55372760Y-41464130D01*
X56104800Y-41464130D01*
X56104800Y-41964130D01*
X55372760Y-41964130D01*
X55372760Y-42734130D01*
X56104800Y-42734130D01*
X56104800Y-43234130D01*
X55372980Y-43234130D01*
X55372980Y-44004130D01*
X56104750Y-44004130D01*
X56104800Y-44004130D01*
X56104800Y-44504130D01*
X52754800Y-44504130D01*
X52754800Y-43454130D01*
X51804800Y-43454130D01*
X51804800Y-40194130D01*
X56104800Y-40194130D01*
X56104800Y-40694130D01*
G37*
%TO.C,Q1*%
G36*
X50504800Y-62007560D02*
G01*
X49604800Y-62007560D01*
X49604800Y-61507550D01*
X50084800Y-61507550D01*
X50084800Y-60737560D01*
X49604800Y-60737560D01*
X49604800Y-60237550D01*
X50084800Y-60237550D01*
X50084800Y-59467560D01*
X49604800Y-59467560D01*
X49604800Y-58967550D01*
X50084800Y-58967550D01*
X50084800Y-58197560D01*
X49604800Y-58197560D01*
X49604800Y-57697550D01*
X50504800Y-57697550D01*
X50504800Y-62007560D01*
G37*
G36*
X56104800Y-58198130D02*
G01*
X55372760Y-58198130D01*
X55372760Y-58968130D01*
X56104800Y-58968130D01*
X56104800Y-59468130D01*
X55372760Y-59468130D01*
X55372760Y-60238130D01*
X56104800Y-60238130D01*
X56104800Y-60738130D01*
X55372980Y-60738130D01*
X55372980Y-61508130D01*
X56104750Y-61508130D01*
X56104800Y-61508130D01*
X56104800Y-62008130D01*
X52754800Y-62008130D01*
X52754800Y-60958130D01*
X51804800Y-60958130D01*
X51804800Y-57698130D01*
X56104800Y-57698130D01*
X56104800Y-58198130D01*
G37*
%TO.C,Q5*%
G36*
X50504800Y-26999560D02*
G01*
X49604800Y-26999560D01*
X49604800Y-26499550D01*
X50084800Y-26499550D01*
X50084800Y-25729560D01*
X49604800Y-25729560D01*
X49604800Y-25229550D01*
X50084800Y-25229550D01*
X50084800Y-24459560D01*
X49604800Y-24459560D01*
X49604800Y-23959550D01*
X50084800Y-23959550D01*
X50084800Y-23189560D01*
X49604800Y-23189560D01*
X49604800Y-22689550D01*
X50504800Y-22689550D01*
X50504800Y-26999560D01*
G37*
G36*
X56104800Y-23190130D02*
G01*
X55372760Y-23190130D01*
X55372760Y-23960130D01*
X56104800Y-23960130D01*
X56104800Y-24460130D01*
X55372760Y-24460130D01*
X55372760Y-25230130D01*
X56104800Y-25230130D01*
X56104800Y-25730130D01*
X55372980Y-25730130D01*
X55372980Y-26500130D01*
X56104750Y-26500130D01*
X56104800Y-26500130D01*
X56104800Y-27000130D01*
X52754800Y-27000130D01*
X52754800Y-25950130D01*
X51804800Y-25950130D01*
X51804800Y-22690130D01*
X56104800Y-22690130D01*
X56104800Y-23190130D01*
G37*
%TO.C,Q4*%
G36*
X50504800Y-35751560D02*
G01*
X49604800Y-35751560D01*
X49604800Y-35251550D01*
X50084800Y-35251550D01*
X50084800Y-34481560D01*
X49604800Y-34481560D01*
X49604800Y-33981550D01*
X50084800Y-33981550D01*
X50084800Y-33211560D01*
X49604800Y-33211560D01*
X49604800Y-32711550D01*
X50084800Y-32711550D01*
X50084800Y-31941560D01*
X49604800Y-31941560D01*
X49604800Y-31441550D01*
X50504800Y-31441550D01*
X50504800Y-35751560D01*
G37*
G36*
X56104800Y-31942130D02*
G01*
X55372760Y-31942130D01*
X55372760Y-32712130D01*
X56104800Y-32712130D01*
X56104800Y-33212130D01*
X55372760Y-33212130D01*
X55372760Y-33982130D01*
X56104800Y-33982130D01*
X56104800Y-34482130D01*
X55372980Y-34482130D01*
X55372980Y-35252130D01*
X56104750Y-35252130D01*
X56104800Y-35252130D01*
X56104800Y-35752130D01*
X52754800Y-35752130D01*
X52754800Y-34702130D01*
X51804800Y-34702130D01*
X51804800Y-31442130D01*
X56104800Y-31442130D01*
X56104800Y-31942130D01*
G37*
%TO.C,Q2*%
G36*
X50504800Y-53255560D02*
G01*
X49604800Y-53255560D01*
X49604800Y-52755550D01*
X50084800Y-52755550D01*
X50084800Y-51985560D01*
X49604800Y-51985560D01*
X49604800Y-51485550D01*
X50084800Y-51485550D01*
X50084800Y-50715560D01*
X49604800Y-50715560D01*
X49604800Y-50215550D01*
X50084800Y-50215550D01*
X50084800Y-49445560D01*
X49604800Y-49445560D01*
X49604800Y-48945550D01*
X50504800Y-48945550D01*
X50504800Y-53255560D01*
G37*
G36*
X56104800Y-49446130D02*
G01*
X55372760Y-49446130D01*
X55372760Y-50216130D01*
X56104800Y-50216130D01*
X56104800Y-50716130D01*
X55372760Y-50716130D01*
X55372760Y-51486130D01*
X56104800Y-51486130D01*
X56104800Y-51986130D01*
X55372980Y-51986130D01*
X55372980Y-52756130D01*
X56104750Y-52756130D01*
X56104800Y-52756130D01*
X56104800Y-53256130D01*
X52754800Y-53256130D01*
X52754800Y-52206130D01*
X51804800Y-52206130D01*
X51804800Y-48946130D01*
X56104800Y-48946130D01*
X56104800Y-49446130D01*
G37*
%TO.C,Q6*%
G36*
X50504800Y-18247560D02*
G01*
X49604800Y-18247560D01*
X49604800Y-17747550D01*
X50084800Y-17747550D01*
X50084800Y-16977560D01*
X49604800Y-16977560D01*
X49604800Y-16477550D01*
X50084800Y-16477550D01*
X50084800Y-15707560D01*
X49604800Y-15707560D01*
X49604800Y-15207550D01*
X50084800Y-15207550D01*
X50084800Y-14437560D01*
X49604800Y-14437560D01*
X49604800Y-13937550D01*
X50504800Y-13937550D01*
X50504800Y-18247560D01*
G37*
G36*
X56104800Y-14438130D02*
G01*
X55372760Y-14438130D01*
X55372760Y-15208130D01*
X56104800Y-15208130D01*
X56104800Y-15708130D01*
X55372760Y-15708130D01*
X55372760Y-16478130D01*
X56104800Y-16478130D01*
X56104800Y-16978130D01*
X55372980Y-16978130D01*
X55372980Y-17748130D01*
X56104750Y-17748130D01*
X56104800Y-17748130D01*
X56104800Y-18248130D01*
X52754800Y-18248130D01*
X52754800Y-17198130D01*
X51804800Y-17198130D01*
X51804800Y-13938130D01*
X56104800Y-13938130D01*
X56104800Y-14438130D01*
G37*
%TD*%
D17*
%TO.C,Q3*%
X54429980Y-43978630D03*
D18*
X53954890Y-42848065D03*
D19*
X53954890Y-41734000D03*
D20*
X53954890Y-40710065D03*
D21*
X50055430Y-40709565D03*
D22*
X50055205Y-41734000D03*
D23*
X50049980Y-42877000D03*
D24*
X50049980Y-44007565D03*
D25*
X52104530Y-44548880D03*
%TD*%
D26*
%TO.C,R2*%
X52025000Y-64390000D03*
X52025000Y-65410000D03*
%TD*%
D27*
%TO.C,C3*%
X60000000Y-62100000D03*
X60000000Y-64900000D03*
%TD*%
D28*
%TO.C,IC1*%
X51350000Y-69700000D03*
X52000000Y-69700000D03*
X52650000Y-69700000D03*
X53300000Y-69700000D03*
X53300000Y-67100000D03*
X52650000Y-67100000D03*
X52000000Y-67100000D03*
X51350000Y-67100000D03*
%TD*%
D29*
%TO.C,J1*%
X40910000Y-71550000D03*
D30*
X43450000Y-71550000D03*
X45990000Y-71550000D03*
%TD*%
D17*
%TO.C,Q1*%
X54429980Y-61482630D03*
D18*
X53954890Y-60352065D03*
D19*
X53954890Y-59238000D03*
D20*
X53954890Y-58214065D03*
D21*
X50055430Y-58213565D03*
D22*
X50055205Y-59238000D03*
D23*
X50049980Y-60381000D03*
D24*
X50049980Y-61511565D03*
D25*
X52104530Y-62052880D03*
%TD*%
D31*
%TO.C,H1*%
X35800000Y-59600000D03*
D32*
X35800000Y-59600000D03*
%TD*%
D17*
%TO.C,Q5*%
X54429980Y-26474630D03*
D18*
X53954890Y-25344065D03*
D19*
X53954890Y-24230000D03*
D20*
X53954890Y-23206065D03*
D21*
X50055430Y-23205565D03*
D22*
X50055205Y-24230000D03*
D23*
X50049980Y-25373000D03*
D24*
X50049980Y-26503565D03*
D25*
X52104530Y-27044880D03*
%TD*%
D33*
%TO.C,C7*%
X68499998Y-47176041D03*
D34*
X68499998Y-52176041D03*
%TD*%
D35*
%TO.C,D1*%
X45000000Y-67950000D03*
X45000000Y-63650000D03*
%TD*%
D36*
%TO.C,C1*%
X49425000Y-67012500D03*
X49425000Y-68587500D03*
%TD*%
D37*
%TO.C,C2*%
X57162500Y-67200000D03*
X55287500Y-67200000D03*
%TD*%
D17*
%TO.C,Q4*%
X54429980Y-35226630D03*
D18*
X53954890Y-34096065D03*
D19*
X53954890Y-32982000D03*
D20*
X53954890Y-31958065D03*
D21*
X50055430Y-31957565D03*
D22*
X50055205Y-32982000D03*
D23*
X50049980Y-34125000D03*
D24*
X50049980Y-35255565D03*
D25*
X52104530Y-35796880D03*
%TD*%
D38*
%TO.C,L1*%
X57300000Y-70100000D03*
X55600000Y-70100000D03*
%TD*%
D31*
%TO.C,H5*%
X35800000Y-40100000D03*
D32*
X35800000Y-40100000D03*
%TD*%
D39*
%TO.C,R1*%
X50825000Y-72410000D03*
X50825000Y-71390000D03*
%TD*%
D33*
%TO.C,C5*%
X68000000Y-17176041D03*
D34*
X68000000Y-22176041D03*
%TD*%
D17*
%TO.C,Q2*%
X54429980Y-52730630D03*
D18*
X53954890Y-51600065D03*
D19*
X53954890Y-50486000D03*
D20*
X53954890Y-49462065D03*
D21*
X50055430Y-49461565D03*
D22*
X50055205Y-50486000D03*
D23*
X50049980Y-51629000D03*
D24*
X50049980Y-52759565D03*
D25*
X52104530Y-53300880D03*
%TD*%
D17*
%TO.C,Q6*%
X54429980Y-17722630D03*
D18*
X53954890Y-16592065D03*
D19*
X53954890Y-15478000D03*
D20*
X53954890Y-14454065D03*
D21*
X50055430Y-14453565D03*
D22*
X50055205Y-15478000D03*
D23*
X50049980Y-16621000D03*
D24*
X50049980Y-17751565D03*
D25*
X52104530Y-18292880D03*
%TD*%
D33*
%TO.C,C6*%
X68166666Y-32176041D03*
D34*
X68166666Y-37176041D03*
%TD*%
D26*
%TO.C,R3*%
X52025000Y-71390000D03*
X52025000Y-72410000D03*
%TD*%
D33*
%TO.C,C4*%
X68333332Y-62176041D03*
D34*
X68333332Y-67176041D03*
%TD*%
D31*
%TO.C,H6*%
X83500000Y-40050000D03*
D32*
X83500000Y-40050000D03*
%TD*%
D31*
%TO.C,H3*%
X35800000Y-20500000D03*
D32*
X35800000Y-20500000D03*
%TD*%
D31*
%TO.C,H4*%
X83500000Y-20100000D03*
D32*
X83500000Y-20100000D03*
%TD*%
D31*
%TO.C,H2*%
X83500000Y-60000000D03*
D32*
X83500000Y-60000000D03*
%TD*%
%LPD*%
M02*
