%TF.GenerationSoftware,KiCad,Pcbnew,8.0.7*%
%TF.CreationDate,2025-01-17T01:55:08+01:00*%
%TF.ProjectId,RP_MPQ5850_Test,52505f4d-5051-4353-9835-305f54657374,rev?*%
%TF.SameCoordinates,Original*%
%TF.FileFunction,Paste,Top*%
%TF.FilePolarity,Positive*%
%FSLAX46Y46*%
G04 Gerber Fmt 4.6, Leading zero omitted, Abs format (unit mm)*
G04 Created by KiCad (PCBNEW 8.0.7) date 2025-01-17 01:55:08*
%MOMM*%
%LPD*%
G01*
G04 APERTURE LIST*
G04 Aperture macros list*
%AMRoundRect*
0 Rectangle with rounded corners*
0 $1 Rounding radius*
0 $2 $3 $4 $5 $6 $7 $8 $9 X,Y pos of 4 corners*
0 Add a 4 corners polygon primitive as box body*
4,1,4,$2,$3,$4,$5,$6,$7,$8,$9,$2,$3,0*
0 Add four circle primitives for the rounded corners*
1,1,$1+$1,$2,$3*
1,1,$1+$1,$4,$5*
1,1,$1+$1,$6,$7*
1,1,$1+$1,$8,$9*
0 Add four rect primitives between the rounded corners*
20,1,$1+$1,$2,$3,$4,$5,0*
20,1,$1+$1,$4,$5,$6,$7,0*
20,1,$1+$1,$6,$7,$8,$9,0*
20,1,$1+$1,$8,$9,$2,$3,0*%
G04 Aperture macros list end*
%ADD10C,0.000000*%
%ADD11R,2.850000X0.549000*%
%ADD12R,3.800180X0.712130*%
%ADD13R,3.800180X0.516000*%
%ADD14R,3.800180X0.531870*%
%ADD15R,0.400000X0.532870*%
%ADD16R,0.399550X0.516000*%
%ADD17R,0.410000X0.770000*%
%ADD18R,0.410000X0.491130*%
%ADD19R,0.400000X1.100000*%
%ADD20RoundRect,0.135000X-0.185000X0.135000X-0.185000X-0.135000X0.185000X-0.135000X0.185000X0.135000X0*%
%ADD21RoundRect,0.250000X-0.625000X0.375000X-0.625000X-0.375000X0.625000X-0.375000X0.625000X0.375000X0*%
%ADD22R,0.450000X1.150000*%
%ADD23RoundRect,0.250000X0.900000X-1.000000X0.900000X1.000000X-0.900000X1.000000X-0.900000X-1.000000X0*%
%ADD24RoundRect,0.218750X-0.256250X0.218750X-0.256250X-0.218750X0.256250X-0.218750X0.256250X0.218750X0*%
%ADD25RoundRect,0.243750X0.243750X0.456250X-0.243750X0.456250X-0.243750X-0.456250X0.243750X-0.456250X0*%
%ADD26R,0.900000X1.000000*%
%ADD27RoundRect,0.135000X0.185000X-0.135000X0.185000X0.135000X-0.185000X0.135000X-0.185000X-0.135000X0*%
G04 APERTURE END LIST*
D10*
%TO.C,Q3*%
G36*
X50454800Y-40644130D02*
G01*
X49654800Y-40644130D01*
X49654800Y-40244130D01*
X50454800Y-40244130D01*
X50454800Y-40644130D01*
G37*
G36*
X50454800Y-41914130D02*
G01*
X49654800Y-41914130D01*
X49654800Y-41514130D01*
X50454800Y-41514130D01*
X50454800Y-41914130D01*
G37*
G36*
X50454800Y-43184130D02*
G01*
X49654800Y-43184130D01*
X49654800Y-42784130D01*
X50454800Y-42784130D01*
X50454800Y-43184130D01*
G37*
G36*
X50454800Y-44454130D02*
G01*
X49654800Y-44454130D01*
X49654800Y-44054130D01*
X50454800Y-44054130D01*
X50454800Y-44454130D01*
G37*
G36*
X50454980Y-41314130D02*
G01*
X50134980Y-41314130D01*
X50134980Y-40844130D01*
X50454980Y-40844130D01*
X50454980Y-41314130D01*
G37*
G36*
X50454980Y-42584130D02*
G01*
X50134980Y-42584130D01*
X50134980Y-42114130D01*
X50454980Y-42114130D01*
X50454980Y-42584130D01*
G37*
G36*
X50454980Y-43854130D02*
G01*
X50134980Y-43854130D01*
X50134980Y-43384130D01*
X50454980Y-43384130D01*
X50454980Y-43854130D01*
G37*
G36*
X52844800Y-42239130D02*
G01*
X51944800Y-42239130D01*
X51944800Y-40439130D01*
X52844800Y-40439130D01*
X52844800Y-42239130D01*
G37*
G36*
X52844980Y-43259130D02*
G01*
X51944980Y-43259130D01*
X51944980Y-42459130D01*
X52844980Y-42459130D01*
X52844980Y-43259130D01*
G37*
G36*
X53964800Y-42239130D02*
G01*
X53064800Y-42239130D01*
X53064800Y-40439130D01*
X53964800Y-40439130D01*
X53964800Y-42239130D01*
G37*
G36*
X53964800Y-44259130D02*
G01*
X53064800Y-44259130D01*
X53064800Y-42459130D01*
X53964800Y-42459130D01*
X53964800Y-44259130D01*
G37*
G36*
X55084800Y-42239130D02*
G01*
X54184800Y-42239130D01*
X54184800Y-40439130D01*
X55084800Y-40439130D01*
X55084800Y-42239130D01*
G37*
G36*
X55084800Y-44259130D02*
G01*
X54184800Y-44259130D01*
X54184800Y-42459130D01*
X55084800Y-42459130D01*
X55084800Y-44259130D01*
G37*
G36*
X56054980Y-40644130D02*
G01*
X55304980Y-40644130D01*
X55304980Y-40244130D01*
X56054980Y-40244130D01*
X56054980Y-40644130D01*
G37*
G36*
X56054980Y-41914130D02*
G01*
X55304980Y-41914130D01*
X55304980Y-41514130D01*
X56054980Y-41514130D01*
X56054980Y-41914130D01*
G37*
G36*
X56054980Y-43184130D02*
G01*
X55304980Y-43184130D01*
X55304980Y-42784130D01*
X56054980Y-42784130D01*
X56054980Y-43184130D01*
G37*
G36*
X56054980Y-44454130D02*
G01*
X55304980Y-44454130D01*
X55304980Y-44054130D01*
X56054980Y-44054130D01*
X56054980Y-44454130D01*
G37*
%TO.C,Q1*%
G36*
X50454800Y-58148130D02*
G01*
X49654800Y-58148130D01*
X49654800Y-57748130D01*
X50454800Y-57748130D01*
X50454800Y-58148130D01*
G37*
G36*
X50454800Y-59418130D02*
G01*
X49654800Y-59418130D01*
X49654800Y-59018130D01*
X50454800Y-59018130D01*
X50454800Y-59418130D01*
G37*
G36*
X50454800Y-60688130D02*
G01*
X49654800Y-60688130D01*
X49654800Y-60288130D01*
X50454800Y-60288130D01*
X50454800Y-60688130D01*
G37*
G36*
X50454800Y-61958130D02*
G01*
X49654800Y-61958130D01*
X49654800Y-61558130D01*
X50454800Y-61558130D01*
X50454800Y-61958130D01*
G37*
G36*
X50454980Y-58818130D02*
G01*
X50134980Y-58818130D01*
X50134980Y-58348130D01*
X50454980Y-58348130D01*
X50454980Y-58818130D01*
G37*
G36*
X50454980Y-60088130D02*
G01*
X50134980Y-60088130D01*
X50134980Y-59618130D01*
X50454980Y-59618130D01*
X50454980Y-60088130D01*
G37*
G36*
X50454980Y-61358130D02*
G01*
X50134980Y-61358130D01*
X50134980Y-60888130D01*
X50454980Y-60888130D01*
X50454980Y-61358130D01*
G37*
G36*
X52844800Y-59743130D02*
G01*
X51944800Y-59743130D01*
X51944800Y-57943130D01*
X52844800Y-57943130D01*
X52844800Y-59743130D01*
G37*
G36*
X52844980Y-60763130D02*
G01*
X51944980Y-60763130D01*
X51944980Y-59963130D01*
X52844980Y-59963130D01*
X52844980Y-60763130D01*
G37*
G36*
X53964800Y-59743130D02*
G01*
X53064800Y-59743130D01*
X53064800Y-57943130D01*
X53964800Y-57943130D01*
X53964800Y-59743130D01*
G37*
G36*
X53964800Y-61763130D02*
G01*
X53064800Y-61763130D01*
X53064800Y-59963130D01*
X53964800Y-59963130D01*
X53964800Y-61763130D01*
G37*
G36*
X55084800Y-59743130D02*
G01*
X54184800Y-59743130D01*
X54184800Y-57943130D01*
X55084800Y-57943130D01*
X55084800Y-59743130D01*
G37*
G36*
X55084800Y-61763130D02*
G01*
X54184800Y-61763130D01*
X54184800Y-59963130D01*
X55084800Y-59963130D01*
X55084800Y-61763130D01*
G37*
G36*
X56054980Y-58148130D02*
G01*
X55304980Y-58148130D01*
X55304980Y-57748130D01*
X56054980Y-57748130D01*
X56054980Y-58148130D01*
G37*
G36*
X56054980Y-59418130D02*
G01*
X55304980Y-59418130D01*
X55304980Y-59018130D01*
X56054980Y-59018130D01*
X56054980Y-59418130D01*
G37*
G36*
X56054980Y-60688130D02*
G01*
X55304980Y-60688130D01*
X55304980Y-60288130D01*
X56054980Y-60288130D01*
X56054980Y-60688130D01*
G37*
G36*
X56054980Y-61958130D02*
G01*
X55304980Y-61958130D01*
X55304980Y-61558130D01*
X56054980Y-61558130D01*
X56054980Y-61958130D01*
G37*
%TO.C,Q5*%
G36*
X50454800Y-23140130D02*
G01*
X49654800Y-23140130D01*
X49654800Y-22740130D01*
X50454800Y-22740130D01*
X50454800Y-23140130D01*
G37*
G36*
X50454800Y-24410130D02*
G01*
X49654800Y-24410130D01*
X49654800Y-24010130D01*
X50454800Y-24010130D01*
X50454800Y-24410130D01*
G37*
G36*
X50454800Y-25680130D02*
G01*
X49654800Y-25680130D01*
X49654800Y-25280130D01*
X50454800Y-25280130D01*
X50454800Y-25680130D01*
G37*
G36*
X50454800Y-26950130D02*
G01*
X49654800Y-26950130D01*
X49654800Y-26550130D01*
X50454800Y-26550130D01*
X50454800Y-26950130D01*
G37*
G36*
X50454980Y-23810130D02*
G01*
X50134980Y-23810130D01*
X50134980Y-23340130D01*
X50454980Y-23340130D01*
X50454980Y-23810130D01*
G37*
G36*
X50454980Y-25080130D02*
G01*
X50134980Y-25080130D01*
X50134980Y-24610130D01*
X50454980Y-24610130D01*
X50454980Y-25080130D01*
G37*
G36*
X50454980Y-26350130D02*
G01*
X50134980Y-26350130D01*
X50134980Y-25880130D01*
X50454980Y-25880130D01*
X50454980Y-26350130D01*
G37*
G36*
X52844800Y-24735130D02*
G01*
X51944800Y-24735130D01*
X51944800Y-22935130D01*
X52844800Y-22935130D01*
X52844800Y-24735130D01*
G37*
G36*
X52844980Y-25755130D02*
G01*
X51944980Y-25755130D01*
X51944980Y-24955130D01*
X52844980Y-24955130D01*
X52844980Y-25755130D01*
G37*
G36*
X53964800Y-24735130D02*
G01*
X53064800Y-24735130D01*
X53064800Y-22935130D01*
X53964800Y-22935130D01*
X53964800Y-24735130D01*
G37*
G36*
X53964800Y-26755130D02*
G01*
X53064800Y-26755130D01*
X53064800Y-24955130D01*
X53964800Y-24955130D01*
X53964800Y-26755130D01*
G37*
G36*
X55084800Y-24735130D02*
G01*
X54184800Y-24735130D01*
X54184800Y-22935130D01*
X55084800Y-22935130D01*
X55084800Y-24735130D01*
G37*
G36*
X55084800Y-26755130D02*
G01*
X54184800Y-26755130D01*
X54184800Y-24955130D01*
X55084800Y-24955130D01*
X55084800Y-26755130D01*
G37*
G36*
X56054980Y-23140130D02*
G01*
X55304980Y-23140130D01*
X55304980Y-22740130D01*
X56054980Y-22740130D01*
X56054980Y-23140130D01*
G37*
G36*
X56054980Y-24410130D02*
G01*
X55304980Y-24410130D01*
X55304980Y-24010130D01*
X56054980Y-24010130D01*
X56054980Y-24410130D01*
G37*
G36*
X56054980Y-25680130D02*
G01*
X55304980Y-25680130D01*
X55304980Y-25280130D01*
X56054980Y-25280130D01*
X56054980Y-25680130D01*
G37*
G36*
X56054980Y-26950130D02*
G01*
X55304980Y-26950130D01*
X55304980Y-26550130D01*
X56054980Y-26550130D01*
X56054980Y-26950130D01*
G37*
%TO.C,Q4*%
G36*
X50454800Y-31892130D02*
G01*
X49654800Y-31892130D01*
X49654800Y-31492130D01*
X50454800Y-31492130D01*
X50454800Y-31892130D01*
G37*
G36*
X50454800Y-33162130D02*
G01*
X49654800Y-33162130D01*
X49654800Y-32762130D01*
X50454800Y-32762130D01*
X50454800Y-33162130D01*
G37*
G36*
X50454800Y-34432130D02*
G01*
X49654800Y-34432130D01*
X49654800Y-34032130D01*
X50454800Y-34032130D01*
X50454800Y-34432130D01*
G37*
G36*
X50454800Y-35702130D02*
G01*
X49654800Y-35702130D01*
X49654800Y-35302130D01*
X50454800Y-35302130D01*
X50454800Y-35702130D01*
G37*
G36*
X50454980Y-32562130D02*
G01*
X50134980Y-32562130D01*
X50134980Y-32092130D01*
X50454980Y-32092130D01*
X50454980Y-32562130D01*
G37*
G36*
X50454980Y-33832130D02*
G01*
X50134980Y-33832130D01*
X50134980Y-33362130D01*
X50454980Y-33362130D01*
X50454980Y-33832130D01*
G37*
G36*
X50454980Y-35102130D02*
G01*
X50134980Y-35102130D01*
X50134980Y-34632130D01*
X50454980Y-34632130D01*
X50454980Y-35102130D01*
G37*
G36*
X52844800Y-33487130D02*
G01*
X51944800Y-33487130D01*
X51944800Y-31687130D01*
X52844800Y-31687130D01*
X52844800Y-33487130D01*
G37*
G36*
X52844980Y-34507130D02*
G01*
X51944980Y-34507130D01*
X51944980Y-33707130D01*
X52844980Y-33707130D01*
X52844980Y-34507130D01*
G37*
G36*
X53964800Y-33487130D02*
G01*
X53064800Y-33487130D01*
X53064800Y-31687130D01*
X53964800Y-31687130D01*
X53964800Y-33487130D01*
G37*
G36*
X53964800Y-35507130D02*
G01*
X53064800Y-35507130D01*
X53064800Y-33707130D01*
X53964800Y-33707130D01*
X53964800Y-35507130D01*
G37*
G36*
X55084800Y-33487130D02*
G01*
X54184800Y-33487130D01*
X54184800Y-31687130D01*
X55084800Y-31687130D01*
X55084800Y-33487130D01*
G37*
G36*
X55084800Y-35507130D02*
G01*
X54184800Y-35507130D01*
X54184800Y-33707130D01*
X55084800Y-33707130D01*
X55084800Y-35507130D01*
G37*
G36*
X56054980Y-31892130D02*
G01*
X55304980Y-31892130D01*
X55304980Y-31492130D01*
X56054980Y-31492130D01*
X56054980Y-31892130D01*
G37*
G36*
X56054980Y-33162130D02*
G01*
X55304980Y-33162130D01*
X55304980Y-32762130D01*
X56054980Y-32762130D01*
X56054980Y-33162130D01*
G37*
G36*
X56054980Y-34432130D02*
G01*
X55304980Y-34432130D01*
X55304980Y-34032130D01*
X56054980Y-34032130D01*
X56054980Y-34432130D01*
G37*
G36*
X56054980Y-35702130D02*
G01*
X55304980Y-35702130D01*
X55304980Y-35302130D01*
X56054980Y-35302130D01*
X56054980Y-35702130D01*
G37*
%TO.C,Q2*%
G36*
X50454800Y-49396130D02*
G01*
X49654800Y-49396130D01*
X49654800Y-48996130D01*
X50454800Y-48996130D01*
X50454800Y-49396130D01*
G37*
G36*
X50454800Y-50666130D02*
G01*
X49654800Y-50666130D01*
X49654800Y-50266130D01*
X50454800Y-50266130D01*
X50454800Y-50666130D01*
G37*
G36*
X50454800Y-51936130D02*
G01*
X49654800Y-51936130D01*
X49654800Y-51536130D01*
X50454800Y-51536130D01*
X50454800Y-51936130D01*
G37*
G36*
X50454800Y-53206130D02*
G01*
X49654800Y-53206130D01*
X49654800Y-52806130D01*
X50454800Y-52806130D01*
X50454800Y-53206130D01*
G37*
G36*
X50454980Y-50066130D02*
G01*
X50134980Y-50066130D01*
X50134980Y-49596130D01*
X50454980Y-49596130D01*
X50454980Y-50066130D01*
G37*
G36*
X50454980Y-51336130D02*
G01*
X50134980Y-51336130D01*
X50134980Y-50866130D01*
X50454980Y-50866130D01*
X50454980Y-51336130D01*
G37*
G36*
X50454980Y-52606130D02*
G01*
X50134980Y-52606130D01*
X50134980Y-52136130D01*
X50454980Y-52136130D01*
X50454980Y-52606130D01*
G37*
G36*
X52844800Y-50991130D02*
G01*
X51944800Y-50991130D01*
X51944800Y-49191130D01*
X52844800Y-49191130D01*
X52844800Y-50991130D01*
G37*
G36*
X52844980Y-52011130D02*
G01*
X51944980Y-52011130D01*
X51944980Y-51211130D01*
X52844980Y-51211130D01*
X52844980Y-52011130D01*
G37*
G36*
X53964800Y-50991130D02*
G01*
X53064800Y-50991130D01*
X53064800Y-49191130D01*
X53964800Y-49191130D01*
X53964800Y-50991130D01*
G37*
G36*
X53964800Y-53011130D02*
G01*
X53064800Y-53011130D01*
X53064800Y-51211130D01*
X53964800Y-51211130D01*
X53964800Y-53011130D01*
G37*
G36*
X55084800Y-50991130D02*
G01*
X54184800Y-50991130D01*
X54184800Y-49191130D01*
X55084800Y-49191130D01*
X55084800Y-50991130D01*
G37*
G36*
X55084800Y-53011130D02*
G01*
X54184800Y-53011130D01*
X54184800Y-51211130D01*
X55084800Y-51211130D01*
X55084800Y-53011130D01*
G37*
G36*
X56054980Y-49396130D02*
G01*
X55304980Y-49396130D01*
X55304980Y-48996130D01*
X56054980Y-48996130D01*
X56054980Y-49396130D01*
G37*
G36*
X56054980Y-50666130D02*
G01*
X55304980Y-50666130D01*
X55304980Y-50266130D01*
X56054980Y-50266130D01*
X56054980Y-50666130D01*
G37*
G36*
X56054980Y-51936130D02*
G01*
X55304980Y-51936130D01*
X55304980Y-51536130D01*
X56054980Y-51536130D01*
X56054980Y-51936130D01*
G37*
G36*
X56054980Y-53206130D02*
G01*
X55304980Y-53206130D01*
X55304980Y-52806130D01*
X56054980Y-52806130D01*
X56054980Y-53206130D01*
G37*
%TO.C,Q6*%
G36*
X50454800Y-14388130D02*
G01*
X49654800Y-14388130D01*
X49654800Y-13988130D01*
X50454800Y-13988130D01*
X50454800Y-14388130D01*
G37*
G36*
X50454800Y-15658130D02*
G01*
X49654800Y-15658130D01*
X49654800Y-15258130D01*
X50454800Y-15258130D01*
X50454800Y-15658130D01*
G37*
G36*
X50454800Y-16928130D02*
G01*
X49654800Y-16928130D01*
X49654800Y-16528130D01*
X50454800Y-16528130D01*
X50454800Y-16928130D01*
G37*
G36*
X50454800Y-18198130D02*
G01*
X49654800Y-18198130D01*
X49654800Y-17798130D01*
X50454800Y-17798130D01*
X50454800Y-18198130D01*
G37*
G36*
X50454980Y-15058130D02*
G01*
X50134980Y-15058130D01*
X50134980Y-14588130D01*
X50454980Y-14588130D01*
X50454980Y-15058130D01*
G37*
G36*
X50454980Y-16328130D02*
G01*
X50134980Y-16328130D01*
X50134980Y-15858130D01*
X50454980Y-15858130D01*
X50454980Y-16328130D01*
G37*
G36*
X50454980Y-17598130D02*
G01*
X50134980Y-17598130D01*
X50134980Y-17128130D01*
X50454980Y-17128130D01*
X50454980Y-17598130D01*
G37*
G36*
X52844800Y-15983130D02*
G01*
X51944800Y-15983130D01*
X51944800Y-14183130D01*
X52844800Y-14183130D01*
X52844800Y-15983130D01*
G37*
G36*
X52844980Y-17003130D02*
G01*
X51944980Y-17003130D01*
X51944980Y-16203130D01*
X52844980Y-16203130D01*
X52844980Y-17003130D01*
G37*
G36*
X53964800Y-15983130D02*
G01*
X53064800Y-15983130D01*
X53064800Y-14183130D01*
X53964800Y-14183130D01*
X53964800Y-15983130D01*
G37*
G36*
X53964800Y-18003130D02*
G01*
X53064800Y-18003130D01*
X53064800Y-16203130D01*
X53964800Y-16203130D01*
X53964800Y-18003130D01*
G37*
G36*
X55084800Y-15983130D02*
G01*
X54184800Y-15983130D01*
X54184800Y-14183130D01*
X55084800Y-14183130D01*
X55084800Y-15983130D01*
G37*
G36*
X55084800Y-18003130D02*
G01*
X54184800Y-18003130D01*
X54184800Y-16203130D01*
X55084800Y-16203130D01*
X55084800Y-18003130D01*
G37*
G36*
X56054980Y-14388130D02*
G01*
X55304980Y-14388130D01*
X55304980Y-13988130D01*
X56054980Y-13988130D01*
X56054980Y-14388130D01*
G37*
G36*
X56054980Y-15658130D02*
G01*
X55304980Y-15658130D01*
X55304980Y-15258130D01*
X56054980Y-15258130D01*
X56054980Y-15658130D01*
G37*
G36*
X56054980Y-16928130D02*
G01*
X55304980Y-16928130D01*
X55304980Y-16528130D01*
X56054980Y-16528130D01*
X56054980Y-16928130D01*
G37*
G36*
X56054980Y-18198130D02*
G01*
X55304980Y-18198130D01*
X55304980Y-17798130D01*
X56054980Y-17798130D01*
X56054980Y-18198130D01*
G37*
%TD*%
D11*
%TO.C,Q3*%
X54429980Y-43978630D03*
D12*
X53954890Y-42848065D03*
D13*
X53954890Y-41734000D03*
D14*
X53954890Y-40710065D03*
D15*
X50055430Y-40709565D03*
D16*
X50055205Y-41734000D03*
D17*
X50049980Y-42877000D03*
D18*
X50049980Y-44007565D03*
D19*
X52104530Y-44548880D03*
%TD*%
D20*
%TO.C,R2*%
X52025000Y-64390000D03*
X52025000Y-65410000D03*
%TD*%
D21*
%TO.C,C3*%
X60000000Y-62100000D03*
X60000000Y-64900000D03*
%TD*%
D22*
%TO.C,IC1*%
X51350000Y-69700000D03*
X52000000Y-69700000D03*
X52650000Y-69700000D03*
X53300000Y-69700000D03*
X53300000Y-67100000D03*
X52650000Y-67100000D03*
X52000000Y-67100000D03*
X51350000Y-67100000D03*
%TD*%
D11*
%TO.C,Q1*%
X54429980Y-61482630D03*
D12*
X53954890Y-60352065D03*
D13*
X53954890Y-59238000D03*
D14*
X53954890Y-58214065D03*
D15*
X50055430Y-58213565D03*
D16*
X50055205Y-59238000D03*
D17*
X50049980Y-60381000D03*
D18*
X50049980Y-61511565D03*
D19*
X52104530Y-62052880D03*
%TD*%
D11*
%TO.C,Q5*%
X54429980Y-26474630D03*
D12*
X53954890Y-25344065D03*
D13*
X53954890Y-24230000D03*
D14*
X53954890Y-23206065D03*
D15*
X50055430Y-23205565D03*
D16*
X50055205Y-24230000D03*
D17*
X50049980Y-25373000D03*
D18*
X50049980Y-26503565D03*
D19*
X52104530Y-27044880D03*
%TD*%
D23*
%TO.C,D1*%
X45000000Y-67950000D03*
X45000000Y-63650000D03*
%TD*%
D24*
%TO.C,C1*%
X49425000Y-67012500D03*
X49425000Y-68587500D03*
%TD*%
D25*
%TO.C,C2*%
X57162500Y-67200000D03*
X55287500Y-67200000D03*
%TD*%
D11*
%TO.C,Q4*%
X54429980Y-35226630D03*
D12*
X53954890Y-34096065D03*
D13*
X53954890Y-32982000D03*
D14*
X53954890Y-31958065D03*
D15*
X50055430Y-31957565D03*
D16*
X50055205Y-32982000D03*
D17*
X50049980Y-34125000D03*
D18*
X50049980Y-35255565D03*
D19*
X52104530Y-35796880D03*
%TD*%
D26*
%TO.C,L1*%
X57300000Y-70100000D03*
X55600000Y-70100000D03*
%TD*%
D27*
%TO.C,R1*%
X50825000Y-72410000D03*
X50825000Y-71390000D03*
%TD*%
D11*
%TO.C,Q2*%
X54429980Y-52730630D03*
D12*
X53954890Y-51600065D03*
D13*
X53954890Y-50486000D03*
D14*
X53954890Y-49462065D03*
D15*
X50055430Y-49461565D03*
D16*
X50055205Y-50486000D03*
D17*
X50049980Y-51629000D03*
D18*
X50049980Y-52759565D03*
D19*
X52104530Y-53300880D03*
%TD*%
D11*
%TO.C,Q6*%
X54429980Y-17722630D03*
D12*
X53954890Y-16592065D03*
D13*
X53954890Y-15478000D03*
D14*
X53954890Y-14454065D03*
D15*
X50055430Y-14453565D03*
D16*
X50055205Y-15478000D03*
D17*
X50049980Y-16621000D03*
D18*
X50049980Y-17751565D03*
D19*
X52104530Y-18292880D03*
%TD*%
D20*
%TO.C,R3*%
X52025000Y-71390000D03*
X52025000Y-72410000D03*
%TD*%
M02*
