%TF.GenerationSoftware,KiCad,Pcbnew,(6.0.8)*%
%TF.CreationDate,2023-02-11T16:42:38+01:00*%
%TF.ProjectId,VNF1048FTR_TestBoard,564e4631-3034-4384-9654-525f54657374,rev?*%
%TF.SameCoordinates,Original*%
%TF.FileFunction,Copper,L2,Bot*%
%TF.FilePolarity,Positive*%
%FSLAX46Y46*%
G04 Gerber Fmt 4.6, Leading zero omitted, Abs format (unit mm)*
G04 Created by KiCad (PCBNEW (6.0.8)) date 2023-02-11 16:42:38*
%MOMM*%
%LPD*%
G01*
G04 APERTURE LIST*
G04 Aperture macros list*
%AMRoundRect*
0 Rectangle with rounded corners*
0 $1 Rounding radius*
0 $2 $3 $4 $5 $6 $7 $8 $9 X,Y pos of 4 corners*
0 Add a 4 corners polygon primitive as box body*
4,1,4,$2,$3,$4,$5,$6,$7,$8,$9,$2,$3,0*
0 Add four circle primitives for the rounded corners*
1,1,$1+$1,$2,$3*
1,1,$1+$1,$4,$5*
1,1,$1+$1,$6,$7*
1,1,$1+$1,$8,$9*
0 Add four rect primitives between the rounded corners*
20,1,$1+$1,$2,$3,$4,$5,0*
20,1,$1+$1,$4,$5,$6,$7,0*
20,1,$1+$1,$6,$7,$8,$9,0*
20,1,$1+$1,$8,$9,$2,$3,0*%
G04 Aperture macros list end*
%TA.AperFunction,ComponentPad*%
%ADD10R,1.700000X1.700000*%
%TD*%
%TA.AperFunction,ComponentPad*%
%ADD11O,1.700000X1.700000*%
%TD*%
%TA.AperFunction,ComponentPad*%
%ADD12C,1.400000*%
%TD*%
%TA.AperFunction,ComponentPad*%
%ADD13O,1.400000X1.400000*%
%TD*%
%TA.AperFunction,ComponentPad*%
%ADD14C,2.000000*%
%TD*%
%TA.AperFunction,SMDPad,CuDef*%
%ADD15RoundRect,0.135000X-0.135000X-0.185000X0.135000X-0.185000X0.135000X0.185000X-0.135000X0.185000X0*%
%TD*%
%TA.AperFunction,ComponentPad*%
%ADD16RoundRect,0.250002X-1.699998X-1.699998X1.699998X-1.699998X1.699998X1.699998X-1.699998X1.699998X0*%
%TD*%
%TA.AperFunction,ViaPad*%
%ADD17C,0.500000*%
%TD*%
%TA.AperFunction,ViaPad*%
%ADD18C,0.800000*%
%TD*%
%TA.AperFunction,Conductor*%
%ADD19C,0.200000*%
%TD*%
%TA.AperFunction,Conductor*%
%ADD20C,0.250000*%
%TD*%
G04 APERTURE END LIST*
D10*
%TO.P,J4,1,Pin_1*%
%TO.N,GND*%
X127483000Y-42652000D03*
D11*
%TO.P,J4,2,Pin_2*%
%TO.N,+3.3V*%
X127483000Y-40112000D03*
%TD*%
D10*
%TO.P,J1,1,Pin_1*%
%TO.N,/VNF1048FTR/DIAG*%
X108991000Y-30709000D03*
D11*
%TO.P,J1,2,Pin_2*%
%TO.N,/VNF1048FTR/HWLO*%
X111531000Y-30709000D03*
%TO.P,J1,3,Pin_3*%
%TO.N,/VNF1048FTR/SCK*%
X114071000Y-30709000D03*
%TO.P,J1,4,Pin_4*%
%TO.N,/VNF1048FTR/SDO*%
X116611000Y-30709000D03*
%TO.P,J1,5,Pin_5*%
%TO.N,/VNF1048FTR/SDI*%
X119151000Y-30709000D03*
%TO.P,J1,6,Pin_6*%
%TO.N,/VNF1048FTR/CSN*%
X121691000Y-30709000D03*
%TD*%
D12*
%TO.P,RH1,1*%
%TO.N,/VNF1048FTR/MOS_GATE*%
X126365000Y-52578000D03*
D13*
%TO.P,RH1,2*%
%TO.N,/VNF1048FTR/HS_GATE*%
X123825000Y-52578000D03*
%TD*%
D14*
%TO.P,TP7,1,1*%
%TO.N,/VNF1048FTR/HWLO*%
X111760000Y-34544000D03*
%TD*%
%TO.P,TP6,1,1*%
%TO.N,/VNF1048FTR/DIAG*%
X109474000Y-37338000D03*
%TD*%
%TO.P,TP5,1,1*%
%TO.N,/VNF1048FTR/SDI*%
X119126000Y-37338000D03*
%TD*%
%TO.P,TP4,1,1*%
%TO.N,/VNF1048FTR/CSN*%
X121539000Y-34544000D03*
%TD*%
%TO.P,TP3,1,1*%
%TO.N,/VNF1048FTR/SCK*%
X114300000Y-37338000D03*
%TD*%
%TO.P,TP2,1,1*%
%TO.N,/VNF1048FTR/SDO*%
X116586000Y-34544000D03*
%TD*%
D15*
%TO.P,R2,2*%
%TO.N,+3.3V*%
X118520400Y-42926000D03*
%TO.P,R2,1*%
%TO.N,/VNF1048FTR/DIAG*%
X117500400Y-42926000D03*
%TD*%
D16*
%TO.P,J3,1,Pin_1*%
%TO.N,+12V*%
X109093000Y-58420000D03*
%TD*%
%TO.P,J2,1,Pin_1*%
%TO.N,MOS_OUTPUT12V*%
X132715000Y-58420000D03*
%TD*%
D17*
%TO.N,GND*%
X114046000Y-47802800D03*
%TO.N,+3.3V*%
X121010650Y-42931050D03*
%TO.N,+12V*%
X120142000Y-50165000D03*
X113665000Y-55880000D03*
X117901500Y-51511200D03*
%TO.N,Net-(R8-Pad1)*%
X118394544Y-53842856D03*
X119984456Y-53878544D03*
D18*
%TO.N,GND*%
X114554000Y-44196000D03*
X126746000Y-47371000D03*
X129032000Y-47371000D03*
%TO.N,/VNF1048FTR/DIAG*%
X115329378Y-42912622D03*
X110998000Y-42418000D03*
%TD*%
D19*
%TO.N,/VNF1048FTR/DIAG*%
X111492622Y-42912622D02*
X115329378Y-42912622D01*
X110998000Y-42418000D02*
X111492622Y-42912622D01*
%TO.N,+3.3V*%
X121015700Y-42926000D02*
X121010650Y-42931050D01*
X118520400Y-42926000D02*
X121015700Y-42926000D01*
%TO.N,/VNF1048FTR/DIAG*%
X115329378Y-42912622D02*
X117487022Y-42912622D01*
X117487022Y-42912622D02*
X117500400Y-42926000D01*
D20*
%TO.N,+12V*%
X117901500Y-51643500D02*
X113665000Y-55880000D01*
X117901500Y-51511200D02*
X117901500Y-51643500D01*
X118795800Y-51511200D02*
X120142000Y-50165000D01*
X117901500Y-51511200D02*
X118795800Y-51511200D01*
D19*
%TO.N,Net-(R8-Pad1)*%
X118430232Y-53878544D02*
X118394544Y-53842856D01*
X119984456Y-53878544D02*
X118430232Y-53878544D01*
%TD*%
%TA.AperFunction,Conductor*%
%TO.N,MOS_OUTPUT12V*%
G36*
X136213121Y-55265002D02*
G01*
X136259614Y-55318658D01*
X136271000Y-55371000D01*
X136271000Y-61470601D01*
X136250998Y-61538722D01*
X136197342Y-61585215D01*
X136146613Y-61596591D01*
X129325894Y-61683812D01*
X126467211Y-61720368D01*
X126398840Y-61701238D01*
X126351665Y-61648182D01*
X126339600Y-61594378D01*
X126339600Y-57403000D01*
X126359602Y-57334879D01*
X126413258Y-57288386D01*
X126465600Y-57277000D01*
X128397000Y-57277000D01*
X128397000Y-55371000D01*
X128417002Y-55302879D01*
X128470658Y-55256386D01*
X128523000Y-55245000D01*
X136145000Y-55245000D01*
X136213121Y-55265002D01*
G37*
%TD.AperFunction*%
%TD*%
%TA.AperFunction,Conductor*%
%TO.N,+12V*%
G36*
X116274121Y-54884002D02*
G01*
X116320614Y-54937658D01*
X116332000Y-54990000D01*
X116332000Y-61596000D01*
X116311998Y-61664121D01*
X116258342Y-61710614D01*
X116206000Y-61722000D01*
X106044000Y-61722000D01*
X105975879Y-61701998D01*
X105929386Y-61648342D01*
X105918000Y-61596000D01*
X105918000Y-54990000D01*
X105938002Y-54921879D01*
X105991658Y-54875386D01*
X106044000Y-54864000D01*
X116206000Y-54864000D01*
X116274121Y-54884002D01*
G37*
%TD.AperFunction*%
%TD*%
%TA.AperFunction,Conductor*%
%TO.N,GND*%
G36*
X130142521Y-41523602D02*
G01*
X130189014Y-41577258D01*
X130200400Y-41629600D01*
X130200400Y-53620400D01*
X130180398Y-53688521D01*
X130126742Y-53735014D01*
X130074400Y-53746400D01*
X120500417Y-53746400D01*
X120432296Y-53726398D01*
X120385717Y-53672552D01*
X120371603Y-53641509D01*
X120371599Y-53641503D01*
X120367884Y-53633332D01*
X120316132Y-53573270D01*
X120289507Y-53542370D01*
X120289505Y-53542368D01*
X120283649Y-53535572D01*
X120175362Y-53465385D01*
X120166767Y-53462815D01*
X120166766Y-53462814D01*
X120060330Y-53430982D01*
X120060328Y-53430982D01*
X120051729Y-53428410D01*
X120042754Y-53428355D01*
X120042753Y-53428355D01*
X119988097Y-53428021D01*
X119922687Y-53427622D01*
X119877568Y-53440517D01*
X119807242Y-53460616D01*
X119807240Y-53460617D01*
X119798611Y-53463083D01*
X119791021Y-53467872D01*
X119748020Y-53495004D01*
X119689475Y-53531943D01*
X119683531Y-53538673D01*
X119676699Y-53544488D01*
X119675067Y-53542570D01*
X119626291Y-53573270D01*
X119591935Y-53578044D01*
X118818838Y-53578044D01*
X118750717Y-53558042D01*
X118723385Y-53534292D01*
X118699595Y-53506682D01*
X118699593Y-53506680D01*
X118693737Y-53499884D01*
X118585450Y-53429697D01*
X118576855Y-53427127D01*
X118576854Y-53427126D01*
X118470418Y-53395294D01*
X118470416Y-53395294D01*
X118461817Y-53392722D01*
X118452842Y-53392667D01*
X118452841Y-53392667D01*
X118398185Y-53392333D01*
X118332775Y-53391934D01*
X118321019Y-53395294D01*
X118217330Y-53424928D01*
X118217328Y-53424929D01*
X118208699Y-53427395D01*
X118201109Y-53432184D01*
X118152564Y-53462814D01*
X118099563Y-53496255D01*
X118093620Y-53502984D01*
X118093619Y-53502985D01*
X118058659Y-53542570D01*
X118014140Y-53592978D01*
X118010326Y-53601101D01*
X118010325Y-53601103D01*
X117976124Y-53673949D01*
X117929067Y-53727111D01*
X117862069Y-53746400D01*
X116563116Y-53746400D01*
X116494995Y-53726398D01*
X116448502Y-53672742D01*
X116438398Y-53602468D01*
X116467892Y-53537888D01*
X116474021Y-53531305D01*
X117427326Y-52578000D01*
X122919540Y-52578000D01*
X122939326Y-52766256D01*
X122997821Y-52946284D01*
X123092467Y-53110216D01*
X123219129Y-53250888D01*
X123372270Y-53362151D01*
X123545197Y-53439144D01*
X123643212Y-53459978D01*
X123723897Y-53477128D01*
X123723901Y-53477128D01*
X123730354Y-53478500D01*
X123919646Y-53478500D01*
X123926099Y-53477128D01*
X123926103Y-53477128D01*
X124006788Y-53459978D01*
X124104803Y-53439144D01*
X124277730Y-53362151D01*
X124430871Y-53250888D01*
X124557533Y-53110216D01*
X124652179Y-52946284D01*
X124710674Y-52766256D01*
X124730460Y-52578000D01*
X125459540Y-52578000D01*
X125479326Y-52766256D01*
X125537821Y-52946284D01*
X125632467Y-53110216D01*
X125759129Y-53250888D01*
X125912270Y-53362151D01*
X126085197Y-53439144D01*
X126183212Y-53459978D01*
X126263897Y-53477128D01*
X126263901Y-53477128D01*
X126270354Y-53478500D01*
X126459646Y-53478500D01*
X126466099Y-53477128D01*
X126466103Y-53477128D01*
X126546788Y-53459978D01*
X126644803Y-53439144D01*
X126817730Y-53362151D01*
X126970871Y-53250888D01*
X127097533Y-53110216D01*
X127192179Y-52946284D01*
X127250674Y-52766256D01*
X127270460Y-52578000D01*
X127261246Y-52490328D01*
X127251364Y-52396307D01*
X127251364Y-52396305D01*
X127250674Y-52389744D01*
X127192179Y-52209716D01*
X127097533Y-52045784D01*
X127009397Y-51947899D01*
X126975286Y-51910015D01*
X126975284Y-51910014D01*
X126970871Y-51905112D01*
X126912029Y-51862361D01*
X126823072Y-51797730D01*
X126823071Y-51797729D01*
X126817730Y-51793849D01*
X126644803Y-51716856D01*
X126546788Y-51696022D01*
X126466103Y-51678872D01*
X126466099Y-51678872D01*
X126459646Y-51677500D01*
X126270354Y-51677500D01*
X126263901Y-51678872D01*
X126263897Y-51678872D01*
X126183212Y-51696022D01*
X126085197Y-51716856D01*
X125912270Y-51793849D01*
X125906929Y-51797729D01*
X125906928Y-51797730D01*
X125817971Y-51862361D01*
X125759129Y-51905112D01*
X125754716Y-51910014D01*
X125754714Y-51910015D01*
X125720603Y-51947899D01*
X125632467Y-52045784D01*
X125537821Y-52209716D01*
X125479326Y-52389744D01*
X125478636Y-52396305D01*
X125478636Y-52396307D01*
X125468754Y-52490328D01*
X125459540Y-52578000D01*
X124730460Y-52578000D01*
X124721246Y-52490328D01*
X124711364Y-52396307D01*
X124711364Y-52396305D01*
X124710674Y-52389744D01*
X124652179Y-52209716D01*
X124557533Y-52045784D01*
X124469397Y-51947899D01*
X124435286Y-51910015D01*
X124435284Y-51910014D01*
X124430871Y-51905112D01*
X124372029Y-51862361D01*
X124283072Y-51797730D01*
X124283071Y-51797729D01*
X124277730Y-51793849D01*
X124104803Y-51716856D01*
X124006788Y-51696022D01*
X123926103Y-51678872D01*
X123926099Y-51678872D01*
X123919646Y-51677500D01*
X123730354Y-51677500D01*
X123723901Y-51678872D01*
X123723897Y-51678872D01*
X123643212Y-51696022D01*
X123545197Y-51716856D01*
X123372270Y-51793849D01*
X123366929Y-51797729D01*
X123366928Y-51797730D01*
X123277971Y-51862361D01*
X123219129Y-51905112D01*
X123214716Y-51910014D01*
X123214714Y-51910015D01*
X123180603Y-51947899D01*
X123092467Y-52045784D01*
X122997821Y-52209716D01*
X122939326Y-52389744D01*
X122938636Y-52396305D01*
X122938636Y-52396307D01*
X122928754Y-52490328D01*
X122919540Y-52578000D01*
X117427326Y-52578000D01*
X118057427Y-51947899D01*
X118083175Y-51930398D01*
X118082255Y-51928900D01*
X118113012Y-51910015D01*
X118192224Y-51861379D01*
X118192827Y-51862361D01*
X118250147Y-51837632D01*
X118265444Y-51836700D01*
X118776090Y-51836700D01*
X118787072Y-51837180D01*
X118813620Y-51839503D01*
X118813622Y-51839503D01*
X118824607Y-51840464D01*
X118861015Y-51830708D01*
X118871742Y-51828330D01*
X118875101Y-51827738D01*
X118908845Y-51821788D01*
X118918390Y-51816277D01*
X118921666Y-51815085D01*
X118924834Y-51813608D01*
X118935484Y-51810754D01*
X118966344Y-51789145D01*
X118975615Y-51783239D01*
X118998706Y-51769907D01*
X119008255Y-51764394D01*
X119032485Y-51735517D01*
X119039911Y-51727415D01*
X120114789Y-50652538D01*
X120177101Y-50618512D01*
X120188310Y-50616599D01*
X120189277Y-50616478D01*
X120198255Y-50616643D01*
X120260505Y-50599671D01*
X120314092Y-50585062D01*
X120314093Y-50585062D01*
X120322755Y-50582700D01*
X120330405Y-50578003D01*
X120330407Y-50578002D01*
X120425072Y-50519878D01*
X120425075Y-50519875D01*
X120432724Y-50515179D01*
X120438750Y-50508522D01*
X120513300Y-50426161D01*
X120513303Y-50426157D01*
X120519322Y-50419507D01*
X120575588Y-50303375D01*
X120596997Y-50176120D01*
X120597133Y-50165000D01*
X120578839Y-50037259D01*
X120525428Y-49919788D01*
X120441193Y-49822028D01*
X120332906Y-49751841D01*
X120324311Y-49749271D01*
X120324310Y-49749270D01*
X120217874Y-49717438D01*
X120217872Y-49717438D01*
X120209273Y-49714866D01*
X120200298Y-49714811D01*
X120200297Y-49714811D01*
X120145641Y-49714477D01*
X120080231Y-49714078D01*
X120068475Y-49717438D01*
X119964786Y-49747072D01*
X119964784Y-49747073D01*
X119956155Y-49749539D01*
X119847019Y-49818399D01*
X119761596Y-49915122D01*
X119757782Y-49923245D01*
X119757781Y-49923247D01*
X119731794Y-49978598D01*
X119706754Y-50031932D01*
X119705374Y-50040794D01*
X119705373Y-50040798D01*
X119693166Y-50119202D01*
X119662922Y-50183434D01*
X119657778Y-50188895D01*
X118697878Y-51148796D01*
X118635567Y-51182820D01*
X118608784Y-51185700D01*
X118264913Y-51185700D01*
X118196382Y-51165433D01*
X118099938Y-51102922D01*
X118099933Y-51102920D01*
X118092406Y-51098041D01*
X118083811Y-51095471D01*
X118083810Y-51095470D01*
X117977374Y-51063638D01*
X117977372Y-51063638D01*
X117968773Y-51061066D01*
X117959798Y-51061011D01*
X117959797Y-51061011D01*
X117905141Y-51060677D01*
X117839731Y-51060278D01*
X117827975Y-51063638D01*
X117724286Y-51093272D01*
X117724284Y-51093273D01*
X117715655Y-51095739D01*
X117606519Y-51164599D01*
X117521096Y-51261322D01*
X117466254Y-51378132D01*
X117464874Y-51386998D01*
X117447782Y-51496767D01*
X117447782Y-51496771D01*
X117446401Y-51505640D01*
X117447565Y-51514542D01*
X117447565Y-51514547D01*
X117453691Y-51561393D01*
X117442690Y-51631532D01*
X117417850Y-51666824D01*
X115375179Y-53709495D01*
X115312867Y-53743521D01*
X115286084Y-53746400D01*
X108888800Y-53746400D01*
X108820679Y-53726398D01*
X108774186Y-53672742D01*
X108762800Y-53620400D01*
X108762800Y-42418000D01*
X110392318Y-42418000D01*
X110412956Y-42574762D01*
X110473464Y-42720841D01*
X110569718Y-42846282D01*
X110695159Y-42942536D01*
X110841238Y-43003044D01*
X110849426Y-43004122D01*
X110919619Y-43013363D01*
X110998000Y-43023682D01*
X111096084Y-43010769D01*
X111166232Y-43021708D01*
X111201625Y-43046596D01*
X111243103Y-43088074D01*
X111244859Y-43090108D01*
X111247197Y-43094891D01*
X111255726Y-43102803D01*
X111255727Y-43102804D01*
X111283099Y-43128195D01*
X111286504Y-43131475D01*
X111299899Y-43144870D01*
X111303869Y-43147594D01*
X111306517Y-43149919D01*
X111320741Y-43163114D01*
X111320744Y-43163116D01*
X111329268Y-43171023D01*
X111340072Y-43175333D01*
X111344061Y-43177855D01*
X111354849Y-43183616D01*
X111359174Y-43185533D01*
X111368768Y-43192114D01*
X111380087Y-43194800D01*
X111380089Y-43194801D01*
X111392749Y-43197805D01*
X111410346Y-43203370D01*
X111424984Y-43209210D01*
X111424987Y-43209211D01*
X111433244Y-43212505D01*
X111439537Y-43213122D01*
X111442616Y-43213122D01*
X111445689Y-43213272D01*
X111445678Y-43213488D01*
X111457053Y-43214820D01*
X111466368Y-43215276D01*
X111477688Y-43217962D01*
X111489217Y-43216393D01*
X111489218Y-43216393D01*
X111504795Y-43214273D01*
X111521786Y-43213122D01*
X114740909Y-43213122D01*
X114809030Y-43233124D01*
X114840871Y-43262417D01*
X114901096Y-43340904D01*
X115026537Y-43437158D01*
X115172616Y-43497666D01*
X115329378Y-43518304D01*
X115337566Y-43517226D01*
X115477952Y-43498744D01*
X115486140Y-43497666D01*
X115632219Y-43437158D01*
X115757660Y-43340904D01*
X115817885Y-43262418D01*
X115875222Y-43220551D01*
X115917847Y-43213122D01*
X116962566Y-43213122D01*
X117030687Y-43233124D01*
X117076761Y-43285873D01*
X117081674Y-43296410D01*
X117081676Y-43296413D01*
X117086335Y-43306404D01*
X117169996Y-43390065D01*
X117277227Y-43440068D01*
X117326084Y-43446500D01*
X117674716Y-43446500D01*
X117723573Y-43440068D01*
X117830804Y-43390065D01*
X117914465Y-43306404D01*
X117915153Y-43307092D01*
X117962647Y-43269131D01*
X118033267Y-43261823D01*
X118096626Y-43293856D01*
X118104979Y-43303496D01*
X118106335Y-43306404D01*
X118189996Y-43390065D01*
X118297227Y-43440068D01*
X118346084Y-43446500D01*
X118694716Y-43446500D01*
X118743573Y-43440068D01*
X118850804Y-43390065D01*
X118934465Y-43306404D01*
X118939125Y-43296411D01*
X118945448Y-43287381D01*
X118947182Y-43288595D01*
X118984719Y-43245965D01*
X119051996Y-43226500D01*
X120612050Y-43226500D01*
X120680171Y-43246502D01*
X120696033Y-43258570D01*
X120701514Y-43263470D01*
X120707289Y-43270341D01*
X120714760Y-43275314D01*
X120714761Y-43275315D01*
X120770735Y-43312574D01*
X120814710Y-43341846D01*
X120937883Y-43380328D01*
X120946853Y-43380492D01*
X120946857Y-43380493D01*
X121005592Y-43381569D01*
X121066905Y-43382693D01*
X121129155Y-43365721D01*
X121182742Y-43351112D01*
X121182743Y-43351112D01*
X121191405Y-43348750D01*
X121199055Y-43344053D01*
X121199057Y-43344052D01*
X121293722Y-43285928D01*
X121293725Y-43285925D01*
X121301374Y-43281229D01*
X121307400Y-43274572D01*
X121381950Y-43192211D01*
X121381953Y-43192207D01*
X121387972Y-43185557D01*
X121444238Y-43069425D01*
X121455225Y-43004122D01*
X121464840Y-42946967D01*
X121465647Y-42942170D01*
X121465783Y-42931050D01*
X121447489Y-42803309D01*
X121394078Y-42685838D01*
X121330561Y-42612122D01*
X121315701Y-42594876D01*
X121315699Y-42594874D01*
X121309843Y-42588078D01*
X121201556Y-42517891D01*
X121192961Y-42515321D01*
X121192960Y-42515320D01*
X121086524Y-42483488D01*
X121086522Y-42483488D01*
X121077923Y-42480916D01*
X121068948Y-42480861D01*
X121068947Y-42480861D01*
X121014291Y-42480527D01*
X120948881Y-42480128D01*
X120886843Y-42497859D01*
X120833436Y-42513122D01*
X120833434Y-42513123D01*
X120824805Y-42515589D01*
X120715669Y-42584449D01*
X120709727Y-42591177D01*
X120704704Y-42595452D01*
X120639865Y-42624372D01*
X120623039Y-42625500D01*
X119051996Y-42625500D01*
X118983875Y-42605498D01*
X118947136Y-42563437D01*
X118945448Y-42564619D01*
X118939125Y-42555589D01*
X118934465Y-42545596D01*
X118850804Y-42461935D01*
X118743573Y-42411932D01*
X118694716Y-42405500D01*
X118346084Y-42405500D01*
X118297227Y-42411932D01*
X118189996Y-42461935D01*
X118106335Y-42545596D01*
X118105647Y-42544908D01*
X118058153Y-42582869D01*
X117987533Y-42590177D01*
X117924174Y-42558144D01*
X117915821Y-42548504D01*
X117914465Y-42545596D01*
X117830804Y-42461935D01*
X117723573Y-42411932D01*
X117674716Y-42405500D01*
X117326084Y-42405500D01*
X117277227Y-42411932D01*
X117169996Y-42461935D01*
X117086335Y-42545596D01*
X117081678Y-42555584D01*
X117079709Y-42558395D01*
X117024251Y-42602722D01*
X116976498Y-42612122D01*
X115917847Y-42612122D01*
X115849726Y-42592120D01*
X115817884Y-42562826D01*
X115814292Y-42558144D01*
X115757660Y-42484340D01*
X115738550Y-42469676D01*
X115681876Y-42426189D01*
X115632219Y-42388086D01*
X115486140Y-42327578D01*
X115329378Y-42306940D01*
X115172616Y-42327578D01*
X115026537Y-42388086D01*
X114976880Y-42426189D01*
X114920207Y-42469676D01*
X114901096Y-42484340D01*
X114844465Y-42558144D01*
X114840872Y-42562826D01*
X114783534Y-42604693D01*
X114740909Y-42612122D01*
X111721801Y-42612122D01*
X111653680Y-42592120D01*
X111607187Y-42538464D01*
X111596879Y-42469676D01*
X111602604Y-42426189D01*
X111602604Y-42426188D01*
X111603682Y-42418000D01*
X111583044Y-42261238D01*
X111522536Y-42115159D01*
X111426282Y-41989718D01*
X111300841Y-41893464D01*
X111154762Y-41832956D01*
X110998000Y-41812318D01*
X110841238Y-41832956D01*
X110695159Y-41893464D01*
X110569718Y-41989718D01*
X110473464Y-42115159D01*
X110412956Y-42261238D01*
X110392318Y-42418000D01*
X108762800Y-42418000D01*
X108762800Y-41629600D01*
X108782802Y-41561479D01*
X108836458Y-41514986D01*
X108888800Y-41503600D01*
X130074400Y-41503600D01*
X130142521Y-41523602D01*
G37*
%TD.AperFunction*%
%TD*%
M02*
