%TF.GenerationSoftware,KiCad,Pcbnew,(6.0.8)*%
%TF.CreationDate,2023-02-11T16:42:38+01:00*%
%TF.ProjectId,VNF1048FTR_TestBoard,564e4631-3034-4384-9654-525f54657374,rev?*%
%TF.SameCoordinates,Original*%
%TF.FileFunction,Copper,L1,Top*%
%TF.FilePolarity,Positive*%
%FSLAX46Y46*%
G04 Gerber Fmt 4.6, Leading zero omitted, Abs format (unit mm)*
G04 Created by KiCad (PCBNEW (6.0.8)) date 2023-02-11 16:42:38*
%MOMM*%
%LPD*%
G01*
G04 APERTURE LIST*
G04 Aperture macros list*
%AMRoundRect*
0 Rectangle with rounded corners*
0 $1 Rounding radius*
0 $2 $3 $4 $5 $6 $7 $8 $9 X,Y pos of 4 corners*
0 Add a 4 corners polygon primitive as box body*
4,1,4,$2,$3,$4,$5,$6,$7,$8,$9,$2,$3,0*
0 Add four circle primitives for the rounded corners*
1,1,$1+$1,$2,$3*
1,1,$1+$1,$4,$5*
1,1,$1+$1,$6,$7*
1,1,$1+$1,$8,$9*
0 Add four rect primitives between the rounded corners*
20,1,$1+$1,$2,$3,$4,$5,0*
20,1,$1+$1,$4,$5,$6,$7,0*
20,1,$1+$1,$6,$7,$8,$9,0*
20,1,$1+$1,$8,$9,$2,$3,0*%
G04 Aperture macros list end*
%TA.AperFunction,ComponentPad*%
%ADD10R,1.700000X1.700000*%
%TD*%
%TA.AperFunction,ComponentPad*%
%ADD11O,1.700000X1.700000*%
%TD*%
%TA.AperFunction,ComponentPad*%
%ADD12C,1.400000*%
%TD*%
%TA.AperFunction,ComponentPad*%
%ADD13O,1.400000X1.400000*%
%TD*%
%TA.AperFunction,SMDPad,CuDef*%
%ADD14R,0.254000X0.812800*%
%TD*%
%TA.AperFunction,SMDPad,CuDef*%
%ADD15R,0.254000X0.863600*%
%TD*%
%TA.AperFunction,SMDPad,CuDef*%
%ADD16R,0.812800X0.254000*%
%TD*%
%TA.AperFunction,SMDPad,CuDef*%
%ADD17R,0.863600X0.254000*%
%TD*%
%TA.AperFunction,SMDPad,CuDef*%
%ADD18R,3.606800X3.606800*%
%TD*%
%TA.AperFunction,ComponentPad*%
%ADD19C,2.000000*%
%TD*%
%TA.AperFunction,SMDPad,CuDef*%
%ADD20R,0.600000X0.800000*%
%TD*%
%TA.AperFunction,SMDPad,CuDef*%
%ADD21RoundRect,0.250000X-0.362500X-1.425000X0.362500X-1.425000X0.362500X1.425000X-0.362500X1.425000X0*%
%TD*%
%TA.AperFunction,SMDPad,CuDef*%
%ADD22RoundRect,0.135000X0.185000X-0.135000X0.185000X0.135000X-0.185000X0.135000X-0.185000X-0.135000X0*%
%TD*%
%TA.AperFunction,SMDPad,CuDef*%
%ADD23R,1.250000X0.650000*%
%TD*%
%TA.AperFunction,SMDPad,CuDef*%
%ADD24R,0.550000X0.725000*%
%TD*%
%TA.AperFunction,SMDPad,CuDef*%
%ADD25R,3.900000X4.600000*%
%TD*%
%TA.AperFunction,SMDPad,CuDef*%
%ADD26R,0.800000X0.400000*%
%TD*%
%TA.AperFunction,ComponentPad*%
%ADD27RoundRect,0.250002X-1.699998X-1.699998X1.699998X-1.699998X1.699998X1.699998X-1.699998X1.699998X0*%
%TD*%
%TA.AperFunction,SMDPad,CuDef*%
%ADD28RoundRect,0.250000X0.475000X-0.250000X0.475000X0.250000X-0.475000X0.250000X-0.475000X-0.250000X0*%
%TD*%
%TA.AperFunction,SMDPad,CuDef*%
%ADD29RoundRect,0.250000X0.250000X0.475000X-0.250000X0.475000X-0.250000X-0.475000X0.250000X-0.475000X0*%
%TD*%
%TA.AperFunction,SMDPad,CuDef*%
%ADD30RoundRect,0.250000X-0.250000X-0.475000X0.250000X-0.475000X0.250000X0.475000X-0.250000X0.475000X0*%
%TD*%
%TA.AperFunction,ViaPad*%
%ADD31C,0.500000*%
%TD*%
%TA.AperFunction,ViaPad*%
%ADD32C,0.800000*%
%TD*%
%TA.AperFunction,Conductor*%
%ADD33C,0.200000*%
%TD*%
%TA.AperFunction,Conductor*%
%ADD34C,0.250000*%
%TD*%
%TA.AperFunction,Conductor*%
%ADD35C,0.400000*%
%TD*%
G04 APERTURE END LIST*
D10*
%TO.P,J4,1,Pin_1*%
%TO.N,GND*%
X127483000Y-42652000D03*
D11*
%TO.P,J4,2,Pin_2*%
%TO.N,+3.3V*%
X127483000Y-40112000D03*
%TD*%
D10*
%TO.P,J1,1,Pin_1*%
%TO.N,/VNF1048FTR/DIAG*%
X108991000Y-30709000D03*
D11*
%TO.P,J1,2,Pin_2*%
%TO.N,/VNF1048FTR/HWLO*%
X111531000Y-30709000D03*
%TO.P,J1,3,Pin_3*%
%TO.N,/VNF1048FTR/SCK*%
X114071000Y-30709000D03*
%TO.P,J1,4,Pin_4*%
%TO.N,/VNF1048FTR/SDO*%
X116611000Y-30709000D03*
%TO.P,J1,5,Pin_5*%
%TO.N,/VNF1048FTR/SDI*%
X119151000Y-30709000D03*
%TO.P,J1,6,Pin_6*%
%TO.N,/VNF1048FTR/CSN*%
X121691000Y-30709000D03*
%TD*%
D12*
%TO.P,RH1,1*%
%TO.N,/VNF1048FTR/MOS_GATE*%
X126365000Y-52578000D03*
D13*
%TO.P,RH1,2*%
%TO.N,/VNF1048FTR/HS_GATE*%
X123825000Y-52578000D03*
%TD*%
D14*
%TO.P,U1,1,VSPI*%
%TO.N,+3.3V*%
X119351999Y-44589700D03*
D15*
%TO.P,U1,2,CSN*%
%TO.N,/VNF1048FTR/CSN*%
X118852000Y-44615100D03*
%TO.P,U1,3,SDI*%
%TO.N,/VNF1048FTR/SDI*%
X118352001Y-44615100D03*
%TO.P,U1,4,SDO*%
%TO.N,/VNF1048FTR/SDO*%
X117852000Y-44615100D03*
%TO.P,U1,5,SCK*%
%TO.N,/VNF1048FTR/SCK*%
X117352000Y-44615100D03*
%TO.P,U1,6,DIAG*%
%TO.N,/VNF1048FTR/DIAG*%
X116851999Y-44615100D03*
%TO.P,U1,7,TEST1*%
%TO.N,GND*%
X116352000Y-44615100D03*
D14*
%TO.P,U1,8,TEST2*%
X115852001Y-44589700D03*
D16*
%TO.P,U1,9,NC*%
%TO.N,unconnected-(U1-Pad9)*%
X115201700Y-45240001D03*
D17*
%TO.P,U1,10,HWLO*%
%TO.N,/VNF1048FTR/HWLO*%
X115227100Y-45740000D03*
%TO.P,U1,11,NC*%
%TO.N,unconnected-(U1-Pad11)*%
X115227100Y-46239999D03*
%TO.P,U1,12,V3V3*%
%TO.N,Net-(C1-Pad2)*%
X115227100Y-46740000D03*
%TO.P,U1,13,GND*%
%TO.N,GND*%
X115227100Y-47240000D03*
%TO.P,U1,14,NC*%
%TO.N,unconnected-(U1-Pad14)*%
X115227100Y-47740001D03*
%TO.P,U1,15,NC*%
%TO.N,unconnected-(U1-Pad15)*%
X115227100Y-48240000D03*
D16*
%TO.P,U1,16,NC*%
%TO.N,unconnected-(U1-Pad16)*%
X115201700Y-48739999D03*
D14*
%TO.P,U1,17,NC*%
%TO.N,unconnected-(U1-Pad17)*%
X115852001Y-49390300D03*
D15*
%TO.P,U1,18,NTC_M*%
%TO.N,Net-(R8-Pad2)*%
X116352000Y-49364900D03*
%TO.P,U1,19,NTC*%
%TO.N,Net-(R8-Pad1)*%
X116851999Y-49364900D03*
%TO.P,U1,20,ISNS_N*%
%TO.N,/VNF1048FTR/MOS_IN*%
X117352000Y-49364900D03*
%TO.P,U1,21,ISNS_P*%
%TO.N,+12V*%
X117852000Y-49364900D03*
%TO.P,U1,22,NC*%
%TO.N,unconnected-(U1-Pad22)*%
X118352001Y-49364900D03*
%TO.P,U1,23,OUT*%
%TO.N,MOS_OUTPUT12V*%
X118852000Y-49364900D03*
D14*
%TO.P,U1,24,HS_GATE*%
%TO.N,/VNF1048FTR/HS_GATE*%
X119351999Y-49390300D03*
D16*
%TO.P,U1,25,VS*%
%TO.N,+12V*%
X120002300Y-48739999D03*
D17*
%TO.P,U1,26,NC*%
%TO.N,unconnected-(U1-Pad26)*%
X119976900Y-48240000D03*
%TO.P,U1,27,CP*%
%TO.N,Net-(C2-Pad2)*%
X119976900Y-47740001D03*
%TO.P,U1,28,CP2P*%
%TO.N,Net-(C4-Pad2)*%
X119976900Y-47240000D03*
%TO.P,U1,29,CP2M*%
%TO.N,Net-(C4-Pad1)*%
X119976900Y-46740000D03*
%TO.P,U1,30,CP1P*%
%TO.N,Net-(C3-Pad2)*%
X119976900Y-46239999D03*
%TO.P,U1,31,CP1M*%
%TO.N,Net-(C3-Pad1)*%
X119976900Y-45740000D03*
D16*
%TO.P,U1,32,NC*%
%TO.N,unconnected-(U1-Pad32)*%
X120002300Y-45240001D03*
D18*
%TO.P,U1,33,EPAD*%
%TO.N,unconnected-(U1-Pad33)*%
X117602000Y-46990000D03*
%TD*%
D19*
%TO.P,TP7,1,1*%
%TO.N,/VNF1048FTR/HWLO*%
X111760000Y-34544000D03*
%TD*%
%TO.P,TP6,1,1*%
%TO.N,/VNF1048FTR/DIAG*%
X109474000Y-37338000D03*
%TD*%
%TO.P,TP5,1,1*%
%TO.N,/VNF1048FTR/SDI*%
X119126000Y-37338000D03*
%TD*%
%TO.P,TP4,1,1*%
%TO.N,/VNF1048FTR/CSN*%
X121539000Y-34544000D03*
%TD*%
%TO.P,TP3,1,1*%
%TO.N,/VNF1048FTR/SCK*%
X114300000Y-37338000D03*
%TD*%
%TO.P,TP2,1,1*%
%TO.N,/VNF1048FTR/SDO*%
X116586000Y-34544000D03*
%TD*%
D20*
%TO.P,RT1,1*%
%TO.N,Net-(R8-Pad1)*%
X122301000Y-54356000D03*
%TO.P,RT1,2*%
%TO.N,/VNF1048FTR/MOS_IN*%
X122301000Y-55356000D03*
%TD*%
D21*
%TO.P,RS1,1*%
%TO.N,+12V*%
X112988500Y-58420000D03*
%TO.P,RS1,2*%
%TO.N,/VNF1048FTR/MOS_IN*%
X118913500Y-58420000D03*
%TD*%
D22*
%TO.P,R9,1*%
%TO.N,MOS_OUTPUT12V*%
X119380000Y-51818000D03*
%TO.P,R9,2*%
%TO.N,/VNF1048FTR/HS_GATE*%
X119380000Y-50798000D03*
%TD*%
%TO.P,R8,1*%
%TO.N,Net-(R8-Pad1)*%
X116078000Y-51818000D03*
%TO.P,R8,2*%
%TO.N,Net-(R8-Pad2)*%
X116078000Y-50798000D03*
%TD*%
%TO.P,R7,1*%
%TO.N,/VNF1048FTR/HWLO*%
X111760000Y-40896000D03*
%TO.P,R7,2*%
X111760000Y-39876000D03*
%TD*%
%TO.P,R6,1*%
%TO.N,/VNF1048FTR/SCK*%
X114300000Y-40896000D03*
%TO.P,R6,2*%
X114300000Y-39876000D03*
%TD*%
%TO.P,R5,1*%
%TO.N,/VNF1048FTR/SDO*%
X116586000Y-40896000D03*
%TO.P,R5,2*%
X116586000Y-39876000D03*
%TD*%
%TO.P,R4,1*%
%TO.N,/VNF1048FTR/SDI*%
X119126000Y-40896000D03*
%TO.P,R4,2*%
X119126000Y-39876000D03*
%TD*%
%TO.P,R3,1*%
%TO.N,/VNF1048FTR/CSN*%
X121666000Y-40896000D03*
%TO.P,R3,2*%
X121666000Y-39876000D03*
%TD*%
%TO.P,R1,1*%
%TO.N,/VNF1048FTR/DIAG*%
X109474000Y-40896000D03*
%TO.P,R1,2*%
X109474000Y-39876000D03*
%TD*%
D23*
%TO.P,Q1,1,S_1*%
%TO.N,MOS_OUTPUT12V*%
X127203500Y-60452000D03*
%TO.P,Q1,2,S_2*%
X127203500Y-59182000D03*
%TO.P,Q1,3,S_3*%
X127203500Y-57912000D03*
%TO.P,Q1,4,G*%
%TO.N,/VNF1048FTR/MOS_GATE*%
X127203500Y-56642000D03*
D24*
%TO.P,Q1,5,D_1*%
%TO.N,/VNF1048FTR/MOS_IN*%
X121503500Y-56642000D03*
%TO.P,Q1,6,D_2*%
X121503500Y-57912000D03*
%TO.P,Q1,7,D_3*%
X121503500Y-59182000D03*
%TO.P,Q1,8,D_4*%
X121503500Y-60452000D03*
D25*
%TO.P,Q1,9,D_5*%
X123728500Y-58547000D03*
D26*
%TO.P,Q1,10,D_6*%
X122503500Y-56047000D03*
%TO.P,Q1,11,D_7*%
X124953500Y-56047000D03*
%TO.P,Q1,12,D_8*%
X122503500Y-61047000D03*
%TO.P,Q1,13,D_9*%
X124953500Y-61047000D03*
%TD*%
D27*
%TO.P,J3,1,Pin_1*%
%TO.N,+12V*%
X109093000Y-58420000D03*
%TD*%
%TO.P,J2,1,Pin_1*%
%TO.N,MOS_OUTPUT12V*%
X132715000Y-58420000D03*
%TD*%
D28*
%TO.P,C6,1*%
%TO.N,+12V*%
X126746000Y-50353000D03*
%TO.P,C6,2*%
%TO.N,GND*%
X126746000Y-48453000D03*
%TD*%
%TO.P,C5,2*%
%TO.N,GND*%
X129032000Y-48453000D03*
%TO.P,C5,1*%
%TO.N,+12V*%
X129032000Y-50353000D03*
%TD*%
D29*
%TO.P,C4,1*%
%TO.N,Net-(C4-Pad1)*%
X123987600Y-47142400D03*
%TO.P,C4,2*%
%TO.N,Net-(C4-Pad2)*%
X122087600Y-47142400D03*
%TD*%
%TO.P,C3,1*%
%TO.N,Net-(C3-Pad1)*%
X123987600Y-44958000D03*
%TO.P,C3,2*%
%TO.N,Net-(C3-Pad2)*%
X122087600Y-44958000D03*
%TD*%
D30*
%TO.P,C2,1*%
%TO.N,+12V*%
X122306000Y-49530000D03*
%TO.P,C2,2*%
%TO.N,Net-(C2-Pad2)*%
X124206000Y-49530000D03*
%TD*%
%TO.P,C1,1*%
%TO.N,GND*%
X111511000Y-46659800D03*
%TO.P,C1,2*%
%TO.N,Net-(C1-Pad2)*%
X113411000Y-46659800D03*
%TD*%
D31*
%TO.N,GND*%
X114046000Y-47802800D03*
%TO.N,+3.3V*%
X121010650Y-42931050D03*
%TO.N,+12V*%
X120142000Y-50165000D03*
X113665000Y-55880000D03*
X117901500Y-51511200D03*
%TO.N,Net-(R8-Pad1)*%
X118394544Y-53842856D03*
X119984456Y-53878544D03*
D32*
%TO.N,GND*%
X114554000Y-44196000D03*
X126746000Y-47371000D03*
X129032000Y-47371000D03*
%TO.N,/VNF1048FTR/DIAG*%
X115329378Y-42912622D03*
X110998000Y-42418000D03*
%TD*%
D33*
%TO.N,Net-(C3-Pad1)*%
X120468999Y-45740000D02*
X119976900Y-45740000D01*
X120708700Y-45500299D02*
X120468999Y-45740000D01*
X121753183Y-43789600D02*
X120708700Y-44834083D01*
X120708700Y-44834083D02*
X120708700Y-45500299D01*
X123240800Y-43789600D02*
X121753183Y-43789600D01*
X123987600Y-44536400D02*
X123240800Y-43789600D01*
X123987600Y-44958000D02*
X123987600Y-44536400D01*
%TO.N,Net-(C3-Pad2)*%
X122087600Y-45073897D02*
X122087600Y-44958000D01*
X120921498Y-46239999D02*
X122087600Y-45073897D01*
X119976900Y-46239999D02*
X120921498Y-46239999D01*
%TO.N,Net-(C4-Pad1)*%
X122962600Y-46117400D02*
X123987600Y-47142400D01*
X121609783Y-46117400D02*
X122962600Y-46117400D01*
X120987183Y-46740000D02*
X121609783Y-46117400D01*
X119976900Y-46740000D02*
X120987183Y-46740000D01*
%TO.N,Net-(C4-Pad2)*%
X119976900Y-47240000D02*
X121990000Y-47240000D01*
X121990000Y-47240000D02*
X122087600Y-47142400D01*
D34*
%TO.N,+3.3V*%
X121010650Y-42931050D02*
X121467850Y-42473850D01*
X120502650Y-43439050D02*
X121010650Y-42931050D01*
X121467850Y-42473850D02*
X123829699Y-40112000D01*
D33*
%TO.N,/VNF1048FTR/SCK*%
X114302000Y-40896000D02*
X117352000Y-43946000D01*
D34*
%TO.N,+3.3V*%
X119351999Y-44589700D02*
X120502650Y-43439050D01*
%TO.N,+12V*%
X120142000Y-50165000D02*
X120142000Y-48879699D01*
X120142000Y-48879699D02*
X120002300Y-48739999D01*
%TO.N,+3.3V*%
X123829699Y-40112000D02*
X127483000Y-40112000D01*
%TO.N,/VNF1048FTR/CSN*%
X121691000Y-34392000D02*
X121539000Y-34544000D01*
X121691000Y-30709000D02*
X121691000Y-34392000D01*
%TO.N,/VNF1048FTR/SDI*%
X119151000Y-37313000D02*
X119126000Y-37338000D01*
X119151000Y-30709000D02*
X119151000Y-37313000D01*
%TO.N,/VNF1048FTR/SDO*%
X116611000Y-34519000D02*
X116586000Y-34544000D01*
X116611000Y-30709000D02*
X116611000Y-34519000D01*
%TO.N,/VNF1048FTR/SCK*%
X114071000Y-37109000D02*
X114300000Y-37338000D01*
X114071000Y-30709000D02*
X114071000Y-37109000D01*
%TO.N,/VNF1048FTR/HWLO*%
X111531000Y-34315000D02*
X111760000Y-34544000D01*
X111531000Y-30709000D02*
X111531000Y-34315000D01*
%TO.N,/VNF1048FTR/DIAG*%
X109474000Y-31192000D02*
X109474000Y-37338000D01*
X108991000Y-30709000D02*
X109474000Y-31192000D01*
D33*
%TO.N,GND*%
X111511000Y-47071200D02*
X111511000Y-46659800D01*
X112217200Y-47777400D02*
X111511000Y-47071200D01*
X114030901Y-47777400D02*
X112217200Y-47777400D01*
X114568301Y-47240000D02*
X114030901Y-47777400D01*
X115227100Y-47240000D02*
X114568301Y-47240000D01*
%TO.N,Net-(C1-Pad2)*%
X115227100Y-46740000D02*
X113491200Y-46740000D01*
X113491200Y-46740000D02*
X113411000Y-46659800D01*
%TO.N,MOS_OUTPUT12V*%
X126278500Y-57698500D02*
X126492000Y-57912000D01*
X126278500Y-55651100D02*
X126278500Y-57698500D01*
X124205400Y-53578000D02*
X126278500Y-55651100D01*
X126492000Y-57912000D02*
X127203500Y-57912000D01*
X121140000Y-53578000D02*
X124205400Y-53578000D01*
X119380000Y-51818000D02*
X121140000Y-53578000D01*
%TO.N,+12V*%
X112988500Y-56556500D02*
X112988500Y-58420000D01*
X113665000Y-55880000D02*
X112988500Y-56556500D01*
X117852000Y-51461700D02*
X117901500Y-51511200D01*
X117852000Y-49364900D02*
X117852000Y-51461700D01*
%TO.N,Net-(R8-Pad1)*%
X116369688Y-51818000D02*
X116078000Y-51818000D01*
X118394544Y-53842856D02*
X116369688Y-51818000D01*
X122301000Y-54356000D02*
X120461912Y-54356000D01*
X120461912Y-54356000D02*
X119984456Y-53878544D01*
%TO.N,/VNF1048FTR/MOS_IN*%
X120684800Y-55356000D02*
X117352000Y-52023200D01*
X117352000Y-52023200D02*
X117352000Y-49364900D01*
X122301000Y-55356000D02*
X120684800Y-55356000D01*
%TO.N,Net-(R8-Pad1)*%
X116851999Y-51044001D02*
X116851999Y-49364900D01*
X116078000Y-51818000D02*
X116851999Y-51044001D01*
%TO.N,Net-(R8-Pad2)*%
X116352000Y-50524000D02*
X116078000Y-50798000D01*
X116352000Y-49364900D02*
X116352000Y-50524000D01*
D34*
%TO.N,/VNF1048FTR/MOS_GATE*%
X127203500Y-53416500D02*
X127203500Y-56642000D01*
X126365000Y-52578000D02*
X127203500Y-53416500D01*
%TO.N,/VNF1048FTR/HS_GATE*%
X121160000Y-52578000D02*
X119380000Y-50798000D01*
X123825000Y-52578000D02*
X121160000Y-52578000D01*
D35*
%TO.N,GND*%
X116324999Y-44589700D02*
X116324999Y-44615100D01*
X115852001Y-44589700D02*
X116324999Y-44589700D01*
X114947700Y-44589700D02*
X114554000Y-44196000D01*
X115852001Y-44589700D02*
X114947700Y-44589700D01*
X126746000Y-48453000D02*
X126746000Y-47371000D01*
X129032000Y-48453000D02*
X129032000Y-47371000D01*
D34*
%TO.N,+12V*%
X125918000Y-51181000D02*
X128204000Y-51181000D01*
X128204000Y-51181000D02*
X129032000Y-50353000D01*
X122443301Y-51181000D02*
X125918000Y-51181000D01*
X125918000Y-51181000D02*
X126746000Y-50353000D01*
X120792301Y-49530000D02*
X122443301Y-51181000D01*
X122306000Y-49530000D02*
X120792301Y-49530000D01*
X120792301Y-49530000D02*
X120002300Y-48739999D01*
%TO.N,Net-(C2-Pad2)*%
X123156000Y-48480000D02*
X124206000Y-49530000D01*
X121135432Y-47740001D02*
X121875431Y-48480000D01*
X121875431Y-48480000D02*
X123156000Y-48480000D01*
X119976900Y-47740001D02*
X121135432Y-47740001D01*
%TO.N,/VNF1048FTR/HS_GATE*%
X119380000Y-49418301D02*
X119351999Y-49390300D01*
X119380000Y-50798000D02*
X119380000Y-49418301D01*
%TO.N,MOS_OUTPUT12V*%
X118735000Y-51173000D02*
X119380000Y-51818000D01*
X118735000Y-50472462D02*
X118735000Y-51173000D01*
X118852000Y-50355462D02*
X118735000Y-50472462D01*
X118852000Y-49364900D02*
X118852000Y-50355462D01*
D33*
%TO.N,/VNF1048FTR/DIAG*%
X116851999Y-44011685D02*
X116851999Y-44615100D01*
X115752936Y-42912622D02*
X116851999Y-44011685D01*
X115329378Y-42912622D02*
X115752936Y-42912622D01*
X109476000Y-40896000D02*
X110998000Y-42418000D01*
X109474000Y-40896000D02*
X109476000Y-40896000D01*
%TO.N,/VNF1048FTR/HWLO*%
X111760000Y-42926000D02*
X114574000Y-45740000D01*
X111760000Y-40896000D02*
X111760000Y-42926000D01*
X114574000Y-45740000D02*
X115227100Y-45740000D01*
D34*
%TO.N,/VNF1048FTR/DIAG*%
X109474000Y-37338000D02*
X109474000Y-39876000D01*
%TO.N,/VNF1048FTR/HWLO*%
X111760000Y-34544000D02*
X111760000Y-39876000D01*
D33*
%TO.N,/VNF1048FTR/SCK*%
X117352000Y-43946000D02*
X117352000Y-44615100D01*
X114300000Y-40896000D02*
X114302000Y-40896000D01*
%TO.N,/VNF1048FTR/SDO*%
X116586000Y-40896000D02*
X117852000Y-42162000D01*
X117852000Y-42162000D02*
X117852000Y-44615100D01*
%TO.N,/VNF1048FTR/SDI*%
X118352001Y-43699999D02*
X118352001Y-44615100D01*
X119126000Y-42926000D02*
X118352001Y-43699999D01*
X119126000Y-40896000D02*
X119126000Y-42926000D01*
%TO.N,/VNF1048FTR/CSN*%
X118852000Y-43962000D02*
X118852000Y-44615100D01*
X121666000Y-41148000D02*
X118852000Y-43962000D01*
X121666000Y-40896000D02*
X121666000Y-41148000D01*
D34*
X121539000Y-39749000D02*
X121666000Y-39876000D01*
X121539000Y-34544000D02*
X121539000Y-39749000D01*
%TO.N,/VNF1048FTR/SDI*%
X119126000Y-37338000D02*
X119126000Y-39876000D01*
%TO.N,/VNF1048FTR/SDO*%
X116586000Y-34544000D02*
X116586000Y-39876000D01*
%TO.N,/VNF1048FTR/SCK*%
X114300000Y-37338000D02*
X114300000Y-39876000D01*
%TD*%
%TA.AperFunction,Conductor*%
%TO.N,MOS_OUTPUT12V*%
G36*
X136213121Y-55265002D02*
G01*
X136259614Y-55318658D01*
X136271000Y-55371000D01*
X136271000Y-61470601D01*
X136250998Y-61538722D01*
X136197342Y-61585215D01*
X136146613Y-61596591D01*
X129325894Y-61683812D01*
X126467211Y-61720368D01*
X126398840Y-61701238D01*
X126351665Y-61648182D01*
X126339600Y-61594378D01*
X126339600Y-57403000D01*
X126359602Y-57334879D01*
X126413258Y-57288386D01*
X126465600Y-57277000D01*
X128397000Y-57277000D01*
X128397000Y-55371000D01*
X128417002Y-55302879D01*
X128470658Y-55256386D01*
X128523000Y-55245000D01*
X136145000Y-55245000D01*
X136213121Y-55265002D01*
G37*
%TD.AperFunction*%
%TD*%
%TA.AperFunction,Conductor*%
%TO.N,/VNF1048FTR/MOS_IN*%
G36*
X124984259Y-55036399D02*
G01*
X125003934Y-55052020D01*
X125844196Y-55868287D01*
X125879120Y-55930100D01*
X125882400Y-55958664D01*
X125882400Y-61596000D01*
X125862398Y-61664121D01*
X125808742Y-61710614D01*
X125756400Y-61722000D01*
X117321600Y-61722000D01*
X117253479Y-61701998D01*
X117206986Y-61648342D01*
X117195600Y-61596000D01*
X117195600Y-55142400D01*
X117215602Y-55074279D01*
X117269258Y-55027786D01*
X117321600Y-55016400D01*
X122724035Y-55016398D01*
X124916138Y-55016397D01*
X124984259Y-55036399D01*
G37*
%TD.AperFunction*%
%TD*%
%TA.AperFunction,Conductor*%
%TO.N,+12V*%
G36*
X116274121Y-54884002D02*
G01*
X116320614Y-54937658D01*
X116332000Y-54990000D01*
X116332000Y-61596000D01*
X116311998Y-61664121D01*
X116258342Y-61710614D01*
X116206000Y-61722000D01*
X106044000Y-61722000D01*
X105975879Y-61701998D01*
X105929386Y-61648342D01*
X105918000Y-61596000D01*
X105918000Y-54990000D01*
X105938002Y-54921879D01*
X105991658Y-54875386D01*
X106044000Y-54864000D01*
X116206000Y-54864000D01*
X116274121Y-54884002D01*
G37*
%TD.AperFunction*%
%TD*%
M02*
