%TF.GenerationSoftware,KiCad,Pcbnew,(6.0.8)*%
%TF.CreationDate,2023-02-11T16:42:38+01:00*%
%TF.ProjectId,VNF1048FTR_TestBoard,564e4631-3034-4384-9654-525f54657374,rev?*%
%TF.SameCoordinates,Original*%
%TF.FileFunction,Legend,Top*%
%TF.FilePolarity,Positive*%
%FSLAX46Y46*%
G04 Gerber Fmt 4.6, Leading zero omitted, Abs format (unit mm)*
G04 Created by KiCad (PCBNEW (6.0.8)) date 2023-02-11 16:42:38*
%MOMM*%
%LPD*%
G01*
G04 APERTURE LIST*
%ADD10C,0.150000*%
%ADD11C,0.225000*%
%ADD12C,0.120000*%
%ADD13C,0.100000*%
%ADD14C,0.200000*%
G04 APERTURE END LIST*
D10*
X113350771Y-28360657D02*
X113436485Y-28389228D01*
X113579342Y-28389228D01*
X113636485Y-28360657D01*
X113665057Y-28332085D01*
X113693628Y-28274942D01*
X113693628Y-28217800D01*
X113665057Y-28160657D01*
X113636485Y-28132085D01*
X113579342Y-28103514D01*
X113465057Y-28074942D01*
X113407914Y-28046371D01*
X113379342Y-28017800D01*
X113350771Y-27960657D01*
X113350771Y-27903514D01*
X113379342Y-27846371D01*
X113407914Y-27817800D01*
X113465057Y-27789228D01*
X113607914Y-27789228D01*
X113693628Y-27817800D01*
X114293628Y-28332085D02*
X114265057Y-28360657D01*
X114179342Y-28389228D01*
X114122200Y-28389228D01*
X114036485Y-28360657D01*
X113979342Y-28303514D01*
X113950771Y-28246371D01*
X113922200Y-28132085D01*
X113922200Y-28046371D01*
X113950771Y-27932085D01*
X113979342Y-27874942D01*
X114036485Y-27817800D01*
X114122200Y-27789228D01*
X114179342Y-27789228D01*
X114265057Y-27817800D01*
X114293628Y-27846371D01*
X114550771Y-28389228D02*
X114550771Y-27789228D01*
X114893628Y-28389228D02*
X114636485Y-28046371D01*
X114893628Y-27789228D02*
X114550771Y-28132085D01*
X121226314Y-28357485D02*
X121197742Y-28386057D01*
X121112028Y-28414628D01*
X121054885Y-28414628D01*
X120969171Y-28386057D01*
X120912028Y-28328914D01*
X120883457Y-28271771D01*
X120854885Y-28157485D01*
X120854885Y-28071771D01*
X120883457Y-27957485D01*
X120912028Y-27900342D01*
X120969171Y-27843200D01*
X121054885Y-27814628D01*
X121112028Y-27814628D01*
X121197742Y-27843200D01*
X121226314Y-27871771D01*
X121454885Y-28386057D02*
X121540600Y-28414628D01*
X121683457Y-28414628D01*
X121740600Y-28386057D01*
X121769171Y-28357485D01*
X121797742Y-28300342D01*
X121797742Y-28243200D01*
X121769171Y-28186057D01*
X121740600Y-28157485D01*
X121683457Y-28128914D01*
X121569171Y-28100342D01*
X121512028Y-28071771D01*
X121483457Y-28043200D01*
X121454885Y-27986057D01*
X121454885Y-27928914D01*
X121483457Y-27871771D01*
X121512028Y-27843200D01*
X121569171Y-27814628D01*
X121712028Y-27814628D01*
X121797742Y-27843200D01*
X122054885Y-28414628D02*
X122054885Y-27814628D01*
X122397742Y-28414628D01*
X122397742Y-27814628D01*
X118537114Y-28436857D02*
X118622828Y-28465428D01*
X118765685Y-28465428D01*
X118822828Y-28436857D01*
X118851400Y-28408285D01*
X118879971Y-28351142D01*
X118879971Y-28294000D01*
X118851400Y-28236857D01*
X118822828Y-28208285D01*
X118765685Y-28179714D01*
X118651400Y-28151142D01*
X118594257Y-28122571D01*
X118565685Y-28094000D01*
X118537114Y-28036857D01*
X118537114Y-27979714D01*
X118565685Y-27922571D01*
X118594257Y-27894000D01*
X118651400Y-27865428D01*
X118794257Y-27865428D01*
X118879971Y-27894000D01*
X119137114Y-28465428D02*
X119137114Y-27865428D01*
X119279971Y-27865428D01*
X119365685Y-27894000D01*
X119422828Y-27951142D01*
X119451400Y-28008285D01*
X119479971Y-28122571D01*
X119479971Y-28208285D01*
X119451400Y-28322571D01*
X119422828Y-28379714D01*
X119365685Y-28436857D01*
X119279971Y-28465428D01*
X119137114Y-28465428D01*
X119737114Y-28465428D02*
X119737114Y-27865428D01*
X115800285Y-28386057D02*
X115886000Y-28414628D01*
X116028857Y-28414628D01*
X116086000Y-28386057D01*
X116114571Y-28357485D01*
X116143142Y-28300342D01*
X116143142Y-28243200D01*
X116114571Y-28186057D01*
X116086000Y-28157485D01*
X116028857Y-28128914D01*
X115914571Y-28100342D01*
X115857428Y-28071771D01*
X115828857Y-28043200D01*
X115800285Y-27986057D01*
X115800285Y-27928914D01*
X115828857Y-27871771D01*
X115857428Y-27843200D01*
X115914571Y-27814628D01*
X116057428Y-27814628D01*
X116143142Y-27843200D01*
X116400285Y-28414628D02*
X116400285Y-27814628D01*
X116543142Y-27814628D01*
X116628857Y-27843200D01*
X116686000Y-27900342D01*
X116714571Y-27957485D01*
X116743142Y-28071771D01*
X116743142Y-28157485D01*
X116714571Y-28271771D01*
X116686000Y-28328914D01*
X116628857Y-28386057D01*
X116543142Y-28414628D01*
X116400285Y-28414628D01*
X117114571Y-27814628D02*
X117228857Y-27814628D01*
X117286000Y-27843200D01*
X117343142Y-27900342D01*
X117371714Y-28014628D01*
X117371714Y-28214628D01*
X117343142Y-28328914D01*
X117286000Y-28386057D01*
X117228857Y-28414628D01*
X117114571Y-28414628D01*
X117057428Y-28386057D01*
X117000285Y-28328914D01*
X116971714Y-28214628D01*
X116971714Y-28014628D01*
X117000285Y-27900342D01*
X117057428Y-27843200D01*
X117114571Y-27814628D01*
X126322142Y-36113571D02*
X126322142Y-35913571D01*
X126636428Y-35827857D02*
X126636428Y-36113571D01*
X126036428Y-36113571D01*
X126036428Y-35827857D01*
X126036428Y-35656428D02*
X126636428Y-35456428D01*
X126036428Y-35256428D01*
X126465000Y-35085000D02*
X126465000Y-34799285D01*
X126636428Y-35142142D02*
X126036428Y-34942142D01*
X126636428Y-34742142D01*
X126636428Y-34256428D02*
X126636428Y-34542142D01*
X126036428Y-34542142D01*
X126636428Y-33599285D02*
X126036428Y-33599285D01*
X126265000Y-33599285D02*
X126236428Y-33542142D01*
X126236428Y-33427857D01*
X126265000Y-33370714D01*
X126293571Y-33342142D01*
X126350714Y-33313571D01*
X126522142Y-33313571D01*
X126579285Y-33342142D01*
X126607857Y-33370714D01*
X126636428Y-33427857D01*
X126636428Y-33542142D01*
X126607857Y-33599285D01*
X126236428Y-33113571D02*
X126636428Y-32970714D01*
X126236428Y-32827857D02*
X126636428Y-32970714D01*
X126779285Y-33027857D01*
X126807857Y-33056428D01*
X126836428Y-33113571D01*
X126636428Y-32142142D02*
X126036428Y-32142142D01*
X126636428Y-31799285D02*
X126293571Y-32056428D01*
X126036428Y-31799285D02*
X126379285Y-32142142D01*
X126579285Y-31542142D02*
X126607857Y-31513571D01*
X126636428Y-31542142D01*
X126607857Y-31570714D01*
X126579285Y-31542142D01*
X126636428Y-31542142D01*
X126636428Y-31256428D02*
X126036428Y-31256428D01*
X126036428Y-31027857D01*
X126065000Y-30970714D01*
X126093571Y-30942142D01*
X126150714Y-30913571D01*
X126236428Y-30913571D01*
X126293571Y-30942142D01*
X126322142Y-30970714D01*
X126350714Y-31027857D01*
X126350714Y-31256428D01*
X126607857Y-30427857D02*
X126636428Y-30485000D01*
X126636428Y-30599285D01*
X126607857Y-30656428D01*
X126550714Y-30685000D01*
X126322142Y-30685000D01*
X126265000Y-30656428D01*
X126236428Y-30599285D01*
X126236428Y-30485000D01*
X126265000Y-30427857D01*
X126322142Y-30399285D01*
X126379285Y-30399285D01*
X126436428Y-30685000D01*
X126636428Y-30142142D02*
X126236428Y-30142142D01*
X126350714Y-30142142D02*
X126293571Y-30113571D01*
X126265000Y-30085000D01*
X126236428Y-30027857D01*
X126236428Y-29970714D01*
X126236428Y-29513571D02*
X126722142Y-29513571D01*
X126779285Y-29542142D01*
X126807857Y-29570714D01*
X126836428Y-29627857D01*
X126836428Y-29713571D01*
X126807857Y-29770714D01*
X126607857Y-29513571D02*
X126636428Y-29570714D01*
X126636428Y-29685000D01*
X126607857Y-29742142D01*
X126579285Y-29770714D01*
X126522142Y-29799285D01*
X126350714Y-29799285D01*
X126293571Y-29770714D01*
X126265000Y-29742142D01*
X126236428Y-29685000D01*
X126236428Y-29570714D01*
X126265000Y-29513571D01*
X126636428Y-29142142D02*
X126607857Y-29199285D01*
X126579285Y-29227857D01*
X126522142Y-29256428D01*
X126350714Y-29256428D01*
X126293571Y-29227857D01*
X126265000Y-29199285D01*
X126236428Y-29142142D01*
X126236428Y-29056428D01*
X126265000Y-28999285D01*
X126293571Y-28970714D01*
X126350714Y-28942142D01*
X126522142Y-28942142D01*
X126579285Y-28970714D01*
X126607857Y-28999285D01*
X126636428Y-29056428D01*
X126636428Y-29142142D01*
X126636428Y-28599285D02*
X126607857Y-28656428D01*
X126550714Y-28685000D01*
X126036428Y-28685000D01*
X129494000Y-43179942D02*
X129465428Y-43237085D01*
X129465428Y-43322800D01*
X129494000Y-43408514D01*
X129551142Y-43465657D01*
X129608285Y-43494228D01*
X129722571Y-43522800D01*
X129808285Y-43522800D01*
X129922571Y-43494228D01*
X129979714Y-43465657D01*
X130036857Y-43408514D01*
X130065428Y-43322800D01*
X130065428Y-43265657D01*
X130036857Y-43179942D01*
X130008285Y-43151371D01*
X129808285Y-43151371D01*
X129808285Y-43265657D01*
X130065428Y-42894228D02*
X129465428Y-42894228D01*
X130065428Y-42551371D01*
X129465428Y-42551371D01*
X130065428Y-42265657D02*
X129465428Y-42265657D01*
X129465428Y-42122800D01*
X129494000Y-42037085D01*
X129551142Y-41979942D01*
X129608285Y-41951371D01*
X129722571Y-41922800D01*
X129808285Y-41922800D01*
X129922571Y-41951371D01*
X129979714Y-41979942D01*
X130036857Y-42037085D01*
X130065428Y-42122800D01*
X130065428Y-42265657D01*
X129440028Y-40916114D02*
X129440028Y-40544685D01*
X129668600Y-40744685D01*
X129668600Y-40658971D01*
X129697171Y-40601828D01*
X129725742Y-40573257D01*
X129782885Y-40544685D01*
X129925742Y-40544685D01*
X129982885Y-40573257D01*
X130011457Y-40601828D01*
X130040028Y-40658971D01*
X130040028Y-40830400D01*
X130011457Y-40887542D01*
X129982885Y-40916114D01*
X129982885Y-40287542D02*
X130011457Y-40258971D01*
X130040028Y-40287542D01*
X130011457Y-40316114D01*
X129982885Y-40287542D01*
X130040028Y-40287542D01*
X129440028Y-40058971D02*
X129440028Y-39687542D01*
X129668600Y-39887542D01*
X129668600Y-39801828D01*
X129697171Y-39744685D01*
X129725742Y-39716114D01*
X129782885Y-39687542D01*
X129925742Y-39687542D01*
X129982885Y-39716114D01*
X130011457Y-39744685D01*
X130040028Y-39801828D01*
X130040028Y-39973257D01*
X130011457Y-40030400D01*
X129982885Y-40058971D01*
X129440028Y-39516114D02*
X130040028Y-39316114D01*
X129440028Y-39116114D01*
%TO.C,J4*%
X127149666Y-36790380D02*
X127149666Y-37504666D01*
X127102047Y-37647523D01*
X127006809Y-37742761D01*
X126863952Y-37790380D01*
X126768714Y-37790380D01*
X128054428Y-37123714D02*
X128054428Y-37790380D01*
X127816333Y-36742761D02*
X127578238Y-37457047D01*
X128197285Y-37457047D01*
%TO.C,J1*%
X105673380Y-31042333D02*
X106387666Y-31042333D01*
X106530523Y-31089952D01*
X106625761Y-31185190D01*
X106673380Y-31328047D01*
X106673380Y-31423285D01*
X106673380Y-30042333D02*
X106673380Y-30613761D01*
X106673380Y-30328047D02*
X105673380Y-30328047D01*
X105816238Y-30423285D01*
X105911476Y-30518523D01*
X105959095Y-30613761D01*
%TO.C,RH1*%
X124404523Y-54950380D02*
X124071190Y-54474190D01*
X123833095Y-54950380D02*
X123833095Y-53950380D01*
X124214047Y-53950380D01*
X124309285Y-53998000D01*
X124356904Y-54045619D01*
X124404523Y-54140857D01*
X124404523Y-54283714D01*
X124356904Y-54378952D01*
X124309285Y-54426571D01*
X124214047Y-54474190D01*
X123833095Y-54474190D01*
X124833095Y-54950380D02*
X124833095Y-53950380D01*
X124833095Y-54426571D02*
X125404523Y-54426571D01*
X125404523Y-54950380D02*
X125404523Y-53950380D01*
X126404523Y-54950380D02*
X125833095Y-54950380D01*
X126118809Y-54950380D02*
X126118809Y-53950380D01*
X126023571Y-54093238D01*
X125928333Y-54188476D01*
X125833095Y-54236095D01*
%TO.C,U1*%
X112826895Y-48880780D02*
X112826895Y-49690304D01*
X112874514Y-49785542D01*
X112922133Y-49833161D01*
X113017371Y-49880780D01*
X113207847Y-49880780D01*
X113303085Y-49833161D01*
X113350704Y-49785542D01*
X113398323Y-49690304D01*
X113398323Y-48880780D01*
X114398323Y-49880780D02*
X113826895Y-49880780D01*
X114112609Y-49880780D02*
X114112609Y-48880780D01*
X114017371Y-49023638D01*
X113922133Y-49118876D01*
X113826895Y-49166495D01*
X124766428Y-35085000D02*
X125366428Y-34885000D01*
X124766428Y-34685000D01*
X125366428Y-34485000D02*
X124766428Y-34485000D01*
X125366428Y-34142142D01*
X124766428Y-34142142D01*
X125052142Y-33656428D02*
X125052142Y-33856428D01*
X125366428Y-33856428D02*
X124766428Y-33856428D01*
X124766428Y-33570714D01*
X125366428Y-33027857D02*
X125366428Y-33370714D01*
X125366428Y-33199285D02*
X124766428Y-33199285D01*
X124852142Y-33256428D01*
X124909285Y-33313571D01*
X124937857Y-33370714D01*
X124766428Y-32656428D02*
X124766428Y-32599285D01*
X124795000Y-32542142D01*
X124823571Y-32513571D01*
X124880714Y-32485000D01*
X124995000Y-32456428D01*
X125137857Y-32456428D01*
X125252142Y-32485000D01*
X125309285Y-32513571D01*
X125337857Y-32542142D01*
X125366428Y-32599285D01*
X125366428Y-32656428D01*
X125337857Y-32713571D01*
X125309285Y-32742142D01*
X125252142Y-32770714D01*
X125137857Y-32799285D01*
X124995000Y-32799285D01*
X124880714Y-32770714D01*
X124823571Y-32742142D01*
X124795000Y-32713571D01*
X124766428Y-32656428D01*
X124966428Y-31942142D02*
X125366428Y-31942142D01*
X124737857Y-32085000D02*
X125166428Y-32227857D01*
X125166428Y-31856428D01*
X125023571Y-31542142D02*
X124995000Y-31599285D01*
X124966428Y-31627857D01*
X124909285Y-31656428D01*
X124880714Y-31656428D01*
X124823571Y-31627857D01*
X124795000Y-31599285D01*
X124766428Y-31542142D01*
X124766428Y-31427857D01*
X124795000Y-31370714D01*
X124823571Y-31342142D01*
X124880714Y-31313571D01*
X124909285Y-31313571D01*
X124966428Y-31342142D01*
X124995000Y-31370714D01*
X125023571Y-31427857D01*
X125023571Y-31542142D01*
X125052142Y-31599285D01*
X125080714Y-31627857D01*
X125137857Y-31656428D01*
X125252142Y-31656428D01*
X125309285Y-31627857D01*
X125337857Y-31599285D01*
X125366428Y-31542142D01*
X125366428Y-31427857D01*
X125337857Y-31370714D01*
X125309285Y-31342142D01*
X125252142Y-31313571D01*
X125137857Y-31313571D01*
X125080714Y-31342142D01*
X125052142Y-31370714D01*
X125023571Y-31427857D01*
X125052142Y-30856428D02*
X125052142Y-31056428D01*
X125366428Y-31056428D02*
X124766428Y-31056428D01*
X124766428Y-30770714D01*
X124766428Y-30627857D02*
X124766428Y-30285000D01*
X125366428Y-30456428D02*
X124766428Y-30456428D01*
X125366428Y-29742142D02*
X125080714Y-29942142D01*
X125366428Y-30085000D02*
X124766428Y-30085000D01*
X124766428Y-29856428D01*
X124795000Y-29799285D01*
X124823571Y-29770714D01*
X124880714Y-29742142D01*
X124966428Y-29742142D01*
X125023571Y-29770714D01*
X125052142Y-29799285D01*
X125080714Y-29856428D01*
X125080714Y-30085000D01*
%TO.C,TP7*%
X111466380Y-38853904D02*
X111466380Y-38282476D01*
X112466380Y-38568190D02*
X111466380Y-38568190D01*
X112466380Y-37949142D02*
X111466380Y-37949142D01*
X111466380Y-37568190D01*
X111514000Y-37472952D01*
X111561619Y-37425333D01*
X111656857Y-37377714D01*
X111799714Y-37377714D01*
X111894952Y-37425333D01*
X111942571Y-37472952D01*
X111990190Y-37568190D01*
X111990190Y-37949142D01*
X111466380Y-37044380D02*
X111466380Y-36377714D01*
X112466380Y-36806285D01*
%TO.C,TP6*%
X108926380Y-35551904D02*
X108926380Y-34980476D01*
X109926380Y-35266190D02*
X108926380Y-35266190D01*
X109926380Y-34647142D02*
X108926380Y-34647142D01*
X108926380Y-34266190D01*
X108974000Y-34170952D01*
X109021619Y-34123333D01*
X109116857Y-34075714D01*
X109259714Y-34075714D01*
X109354952Y-34123333D01*
X109402571Y-34170952D01*
X109450190Y-34266190D01*
X109450190Y-34647142D01*
X108926380Y-33218571D02*
X108926380Y-33409047D01*
X108974000Y-33504285D01*
X109021619Y-33551904D01*
X109164476Y-33647142D01*
X109354952Y-33694761D01*
X109735904Y-33694761D01*
X109831142Y-33647142D01*
X109878761Y-33599523D01*
X109926380Y-33504285D01*
X109926380Y-33313809D01*
X109878761Y-33218571D01*
X109831142Y-33170952D01*
X109735904Y-33123333D01*
X109497809Y-33123333D01*
X109402571Y-33170952D01*
X109354952Y-33218571D01*
X109307333Y-33313809D01*
X109307333Y-33504285D01*
X109354952Y-33599523D01*
X109402571Y-33647142D01*
X109497809Y-33694761D01*
%TO.C,TP5*%
X118578380Y-35551904D02*
X118578380Y-34980476D01*
X119578380Y-35266190D02*
X118578380Y-35266190D01*
X119578380Y-34647142D02*
X118578380Y-34647142D01*
X118578380Y-34266190D01*
X118626000Y-34170952D01*
X118673619Y-34123333D01*
X118768857Y-34075714D01*
X118911714Y-34075714D01*
X119006952Y-34123333D01*
X119054571Y-34170952D01*
X119102190Y-34266190D01*
X119102190Y-34647142D01*
X118578380Y-33170952D02*
X118578380Y-33647142D01*
X119054571Y-33694761D01*
X119006952Y-33647142D01*
X118959333Y-33551904D01*
X118959333Y-33313809D01*
X119006952Y-33218571D01*
X119054571Y-33170952D01*
X119149809Y-33123333D01*
X119387904Y-33123333D01*
X119483142Y-33170952D01*
X119530761Y-33218571D01*
X119578380Y-33313809D01*
X119578380Y-33551904D01*
X119530761Y-33647142D01*
X119483142Y-33694761D01*
%TO.C,TP4*%
X121118380Y-38853904D02*
X121118380Y-38282476D01*
X122118380Y-38568190D02*
X121118380Y-38568190D01*
X122118380Y-37949142D02*
X121118380Y-37949142D01*
X121118380Y-37568190D01*
X121166000Y-37472952D01*
X121213619Y-37425333D01*
X121308857Y-37377714D01*
X121451714Y-37377714D01*
X121546952Y-37425333D01*
X121594571Y-37472952D01*
X121642190Y-37568190D01*
X121642190Y-37949142D01*
X121451714Y-36520571D02*
X122118380Y-36520571D01*
X121070761Y-36758666D02*
X121785047Y-36996761D01*
X121785047Y-36377714D01*
%TO.C,TP3*%
X113752380Y-35551904D02*
X113752380Y-34980476D01*
X114752380Y-35266190D02*
X113752380Y-35266190D01*
X114752380Y-34647142D02*
X113752380Y-34647142D01*
X113752380Y-34266190D01*
X113800000Y-34170952D01*
X113847619Y-34123333D01*
X113942857Y-34075714D01*
X114085714Y-34075714D01*
X114180952Y-34123333D01*
X114228571Y-34170952D01*
X114276190Y-34266190D01*
X114276190Y-34647142D01*
X113752380Y-33742380D02*
X113752380Y-33123333D01*
X114133333Y-33456666D01*
X114133333Y-33313809D01*
X114180952Y-33218571D01*
X114228571Y-33170952D01*
X114323809Y-33123333D01*
X114561904Y-33123333D01*
X114657142Y-33170952D01*
X114704761Y-33218571D01*
X114752380Y-33313809D01*
X114752380Y-33599523D01*
X114704761Y-33694761D01*
X114657142Y-33742380D01*
%TO.C,TP2*%
X116292380Y-38853904D02*
X116292380Y-38282476D01*
X117292380Y-38568190D02*
X116292380Y-38568190D01*
X117292380Y-37949142D02*
X116292380Y-37949142D01*
X116292380Y-37568190D01*
X116340000Y-37472952D01*
X116387619Y-37425333D01*
X116482857Y-37377714D01*
X116625714Y-37377714D01*
X116720952Y-37425333D01*
X116768571Y-37472952D01*
X116816190Y-37568190D01*
X116816190Y-37949142D01*
X116387619Y-36996761D02*
X116340000Y-36949142D01*
X116292380Y-36853904D01*
X116292380Y-36615809D01*
X116340000Y-36520571D01*
X116387619Y-36472952D01*
X116482857Y-36425333D01*
X116578095Y-36425333D01*
X116720952Y-36472952D01*
X117292380Y-37044380D01*
X117292380Y-36425333D01*
%TO.C,RT1*%
X120540428Y-55065571D02*
X120254714Y-55265571D01*
X120540428Y-55408428D02*
X119940428Y-55408428D01*
X119940428Y-55179857D01*
X119969000Y-55122714D01*
X119997571Y-55094142D01*
X120054714Y-55065571D01*
X120140428Y-55065571D01*
X120197571Y-55094142D01*
X120226142Y-55122714D01*
X120254714Y-55179857D01*
X120254714Y-55408428D01*
X119940428Y-54894142D02*
X119940428Y-54551285D01*
X120540428Y-54722714D02*
X119940428Y-54722714D01*
X120540428Y-54037000D02*
X120540428Y-54379857D01*
X120540428Y-54208428D02*
X119940428Y-54208428D01*
X120026142Y-54265571D01*
X120083285Y-54322714D01*
X120111857Y-54379857D01*
%TO.C,RS1*%
X115565285Y-56071428D02*
X115365285Y-55785714D01*
X115222428Y-56071428D02*
X115222428Y-55471428D01*
X115451000Y-55471428D01*
X115508142Y-55500000D01*
X115536714Y-55528571D01*
X115565285Y-55585714D01*
X115565285Y-55671428D01*
X115536714Y-55728571D01*
X115508142Y-55757142D01*
X115451000Y-55785714D01*
X115222428Y-55785714D01*
X115793857Y-56042857D02*
X115879571Y-56071428D01*
X116022428Y-56071428D01*
X116079571Y-56042857D01*
X116108142Y-56014285D01*
X116136714Y-55957142D01*
X116136714Y-55900000D01*
X116108142Y-55842857D01*
X116079571Y-55814285D01*
X116022428Y-55785714D01*
X115908142Y-55757142D01*
X115851000Y-55728571D01*
X115822428Y-55700000D01*
X115793857Y-55642857D01*
X115793857Y-55585714D01*
X115822428Y-55528571D01*
X115851000Y-55500000D01*
X115908142Y-55471428D01*
X116051000Y-55471428D01*
X116136714Y-55500000D01*
X116708142Y-56071428D02*
X116365285Y-56071428D01*
X116536714Y-56071428D02*
X116536714Y-55471428D01*
X116479571Y-55557142D01*
X116422428Y-55614285D01*
X116365285Y-55642857D01*
%TO.C,R9*%
X120794428Y-51027000D02*
X120508714Y-51227000D01*
X120794428Y-51369857D02*
X120194428Y-51369857D01*
X120194428Y-51141285D01*
X120223000Y-51084142D01*
X120251571Y-51055571D01*
X120308714Y-51027000D01*
X120394428Y-51027000D01*
X120451571Y-51055571D01*
X120480142Y-51084142D01*
X120508714Y-51141285D01*
X120508714Y-51369857D01*
X120794428Y-50741285D02*
X120794428Y-50627000D01*
X120765857Y-50569857D01*
X120737285Y-50541285D01*
X120651571Y-50484142D01*
X120537285Y-50455571D01*
X120308714Y-50455571D01*
X120251571Y-50484142D01*
X120223000Y-50512714D01*
X120194428Y-50569857D01*
X120194428Y-50684142D01*
X120223000Y-50741285D01*
X120251571Y-50769857D01*
X120308714Y-50798428D01*
X120451571Y-50798428D01*
X120508714Y-50769857D01*
X120537285Y-50741285D01*
X120565857Y-50684142D01*
X120565857Y-50569857D01*
X120537285Y-50512714D01*
X120508714Y-50484142D01*
X120451571Y-50455571D01*
%TO.C,R8*%
X115179428Y-51408000D02*
X114893714Y-51608000D01*
X115179428Y-51750857D02*
X114579428Y-51750857D01*
X114579428Y-51522285D01*
X114608000Y-51465142D01*
X114636571Y-51436571D01*
X114693714Y-51408000D01*
X114779428Y-51408000D01*
X114836571Y-51436571D01*
X114865142Y-51465142D01*
X114893714Y-51522285D01*
X114893714Y-51750857D01*
X114836571Y-51065142D02*
X114808000Y-51122285D01*
X114779428Y-51150857D01*
X114722285Y-51179428D01*
X114693714Y-51179428D01*
X114636571Y-51150857D01*
X114608000Y-51122285D01*
X114579428Y-51065142D01*
X114579428Y-50950857D01*
X114608000Y-50893714D01*
X114636571Y-50865142D01*
X114693714Y-50836571D01*
X114722285Y-50836571D01*
X114779428Y-50865142D01*
X114808000Y-50893714D01*
X114836571Y-50950857D01*
X114836571Y-51065142D01*
X114865142Y-51122285D01*
X114893714Y-51150857D01*
X114950857Y-51179428D01*
X115065142Y-51179428D01*
X115122285Y-51150857D01*
X115150857Y-51122285D01*
X115179428Y-51065142D01*
X115179428Y-50950857D01*
X115150857Y-50893714D01*
X115122285Y-50865142D01*
X115065142Y-50836571D01*
X114950857Y-50836571D01*
X114893714Y-50865142D01*
X114865142Y-50893714D01*
X114836571Y-50950857D01*
%TO.C,R7*%
X110861428Y-40486000D02*
X110575714Y-40686000D01*
X110861428Y-40828857D02*
X110261428Y-40828857D01*
X110261428Y-40600285D01*
X110290000Y-40543142D01*
X110318571Y-40514571D01*
X110375714Y-40486000D01*
X110461428Y-40486000D01*
X110518571Y-40514571D01*
X110547142Y-40543142D01*
X110575714Y-40600285D01*
X110575714Y-40828857D01*
X110261428Y-40286000D02*
X110261428Y-39886000D01*
X110861428Y-40143142D01*
%TO.C,R6*%
X113401428Y-40486000D02*
X113115714Y-40686000D01*
X113401428Y-40828857D02*
X112801428Y-40828857D01*
X112801428Y-40600285D01*
X112830000Y-40543142D01*
X112858571Y-40514571D01*
X112915714Y-40486000D01*
X113001428Y-40486000D01*
X113058571Y-40514571D01*
X113087142Y-40543142D01*
X113115714Y-40600285D01*
X113115714Y-40828857D01*
X112801428Y-39971714D02*
X112801428Y-40086000D01*
X112830000Y-40143142D01*
X112858571Y-40171714D01*
X112944285Y-40228857D01*
X113058571Y-40257428D01*
X113287142Y-40257428D01*
X113344285Y-40228857D01*
X113372857Y-40200285D01*
X113401428Y-40143142D01*
X113401428Y-40028857D01*
X113372857Y-39971714D01*
X113344285Y-39943142D01*
X113287142Y-39914571D01*
X113144285Y-39914571D01*
X113087142Y-39943142D01*
X113058571Y-39971714D01*
X113030000Y-40028857D01*
X113030000Y-40143142D01*
X113058571Y-40200285D01*
X113087142Y-40228857D01*
X113144285Y-40257428D01*
%TO.C,R5*%
X115687428Y-40486000D02*
X115401714Y-40686000D01*
X115687428Y-40828857D02*
X115087428Y-40828857D01*
X115087428Y-40600285D01*
X115116000Y-40543142D01*
X115144571Y-40514571D01*
X115201714Y-40486000D01*
X115287428Y-40486000D01*
X115344571Y-40514571D01*
X115373142Y-40543142D01*
X115401714Y-40600285D01*
X115401714Y-40828857D01*
X115087428Y-39943142D02*
X115087428Y-40228857D01*
X115373142Y-40257428D01*
X115344571Y-40228857D01*
X115316000Y-40171714D01*
X115316000Y-40028857D01*
X115344571Y-39971714D01*
X115373142Y-39943142D01*
X115430285Y-39914571D01*
X115573142Y-39914571D01*
X115630285Y-39943142D01*
X115658857Y-39971714D01*
X115687428Y-40028857D01*
X115687428Y-40171714D01*
X115658857Y-40228857D01*
X115630285Y-40257428D01*
%TO.C,R4*%
X118227428Y-40486000D02*
X117941714Y-40686000D01*
X118227428Y-40828857D02*
X117627428Y-40828857D01*
X117627428Y-40600285D01*
X117656000Y-40543142D01*
X117684571Y-40514571D01*
X117741714Y-40486000D01*
X117827428Y-40486000D01*
X117884571Y-40514571D01*
X117913142Y-40543142D01*
X117941714Y-40600285D01*
X117941714Y-40828857D01*
X117827428Y-39971714D02*
X118227428Y-39971714D01*
X117598857Y-40114571D02*
X118027428Y-40257428D01*
X118027428Y-39886000D01*
%TO.C,R3*%
X120767428Y-40486000D02*
X120481714Y-40686000D01*
X120767428Y-40828857D02*
X120167428Y-40828857D01*
X120167428Y-40600285D01*
X120196000Y-40543142D01*
X120224571Y-40514571D01*
X120281714Y-40486000D01*
X120367428Y-40486000D01*
X120424571Y-40514571D01*
X120453142Y-40543142D01*
X120481714Y-40600285D01*
X120481714Y-40828857D01*
X120167428Y-40286000D02*
X120167428Y-39914571D01*
X120396000Y-40114571D01*
X120396000Y-40028857D01*
X120424571Y-39971714D01*
X120453142Y-39943142D01*
X120510285Y-39914571D01*
X120653142Y-39914571D01*
X120710285Y-39943142D01*
X120738857Y-39971714D01*
X120767428Y-40028857D01*
X120767428Y-40200285D01*
X120738857Y-40257428D01*
X120710285Y-40286000D01*
%TO.C,R1*%
X108575428Y-40486000D02*
X108289714Y-40686000D01*
X108575428Y-40828857D02*
X107975428Y-40828857D01*
X107975428Y-40600285D01*
X108004000Y-40543142D01*
X108032571Y-40514571D01*
X108089714Y-40486000D01*
X108175428Y-40486000D01*
X108232571Y-40514571D01*
X108261142Y-40543142D01*
X108289714Y-40600285D01*
X108289714Y-40828857D01*
X108575428Y-39914571D02*
X108575428Y-40257428D01*
X108575428Y-40086000D02*
X107975428Y-40086000D01*
X108061142Y-40143142D01*
X108118285Y-40200285D01*
X108146857Y-40257428D01*
D11*
%TO.C,Q1*%
X126914285Y-63357857D02*
X126828571Y-63315000D01*
X126742857Y-63229285D01*
X126614285Y-63100714D01*
X126528571Y-63057857D01*
X126442857Y-63057857D01*
X126485714Y-63272142D02*
X126400000Y-63229285D01*
X126314285Y-63143571D01*
X126271428Y-62972142D01*
X126271428Y-62672142D01*
X126314285Y-62500714D01*
X126400000Y-62415000D01*
X126485714Y-62372142D01*
X126657142Y-62372142D01*
X126742857Y-62415000D01*
X126828571Y-62500714D01*
X126871428Y-62672142D01*
X126871428Y-62972142D01*
X126828571Y-63143571D01*
X126742857Y-63229285D01*
X126657142Y-63272142D01*
X126485714Y-63272142D01*
X127728571Y-63272142D02*
X127214285Y-63272142D01*
X127471428Y-63272142D02*
X127471428Y-62372142D01*
X127385714Y-62500714D01*
X127300000Y-62586428D01*
X127214285Y-62629285D01*
D10*
%TO.C,J3*%
X108759666Y-54722380D02*
X108759666Y-55436666D01*
X108712047Y-55579523D01*
X108616809Y-55674761D01*
X108473952Y-55722380D01*
X108378714Y-55722380D01*
X109140619Y-54722380D02*
X109759666Y-54722380D01*
X109426333Y-55103333D01*
X109569190Y-55103333D01*
X109664428Y-55150952D01*
X109712047Y-55198571D01*
X109759666Y-55293809D01*
X109759666Y-55531904D01*
X109712047Y-55627142D01*
X109664428Y-55674761D01*
X109569190Y-55722380D01*
X109283476Y-55722380D01*
X109188238Y-55674761D01*
X109140619Y-55627142D01*
%TO.C,J2*%
X132381666Y-54722380D02*
X132381666Y-55436666D01*
X132334047Y-55579523D01*
X132238809Y-55674761D01*
X132095952Y-55722380D01*
X132000714Y-55722380D01*
X132810238Y-54817619D02*
X132857857Y-54770000D01*
X132953095Y-54722380D01*
X133191190Y-54722380D01*
X133286428Y-54770000D01*
X133334047Y-54817619D01*
X133381666Y-54912857D01*
X133381666Y-55008095D01*
X133334047Y-55150952D01*
X132762619Y-55722380D01*
X133381666Y-55722380D01*
%TO.C,C6*%
X126646000Y-46747085D02*
X126617428Y-46775657D01*
X126531714Y-46804228D01*
X126474571Y-46804228D01*
X126388857Y-46775657D01*
X126331714Y-46718514D01*
X126303142Y-46661371D01*
X126274571Y-46547085D01*
X126274571Y-46461371D01*
X126303142Y-46347085D01*
X126331714Y-46289942D01*
X126388857Y-46232800D01*
X126474571Y-46204228D01*
X126531714Y-46204228D01*
X126617428Y-46232800D01*
X126646000Y-46261371D01*
X127160285Y-46204228D02*
X127046000Y-46204228D01*
X126988857Y-46232800D01*
X126960285Y-46261371D01*
X126903142Y-46347085D01*
X126874571Y-46461371D01*
X126874571Y-46689942D01*
X126903142Y-46747085D01*
X126931714Y-46775657D01*
X126988857Y-46804228D01*
X127103142Y-46804228D01*
X127160285Y-46775657D01*
X127188857Y-46747085D01*
X127217428Y-46689942D01*
X127217428Y-46547085D01*
X127188857Y-46489942D01*
X127160285Y-46461371D01*
X127103142Y-46432800D01*
X126988857Y-46432800D01*
X126931714Y-46461371D01*
X126903142Y-46489942D01*
X126874571Y-46547085D01*
%TO.C,C5*%
X128906600Y-46721685D02*
X128878028Y-46750257D01*
X128792314Y-46778828D01*
X128735171Y-46778828D01*
X128649457Y-46750257D01*
X128592314Y-46693114D01*
X128563742Y-46635971D01*
X128535171Y-46521685D01*
X128535171Y-46435971D01*
X128563742Y-46321685D01*
X128592314Y-46264542D01*
X128649457Y-46207400D01*
X128735171Y-46178828D01*
X128792314Y-46178828D01*
X128878028Y-46207400D01*
X128906600Y-46235971D01*
X129449457Y-46178828D02*
X129163742Y-46178828D01*
X129135171Y-46464542D01*
X129163742Y-46435971D01*
X129220885Y-46407400D01*
X129363742Y-46407400D01*
X129420885Y-46435971D01*
X129449457Y-46464542D01*
X129478028Y-46521685D01*
X129478028Y-46664542D01*
X129449457Y-46721685D01*
X129420885Y-46750257D01*
X129363742Y-46778828D01*
X129220885Y-46778828D01*
X129163742Y-46750257D01*
X129135171Y-46721685D01*
%TO.C,C4*%
X125436285Y-47191600D02*
X125464857Y-47220171D01*
X125493428Y-47305885D01*
X125493428Y-47363028D01*
X125464857Y-47448742D01*
X125407714Y-47505885D01*
X125350571Y-47534457D01*
X125236285Y-47563028D01*
X125150571Y-47563028D01*
X125036285Y-47534457D01*
X124979142Y-47505885D01*
X124922000Y-47448742D01*
X124893428Y-47363028D01*
X124893428Y-47305885D01*
X124922000Y-47220171D01*
X124950571Y-47191600D01*
X125093428Y-46677314D02*
X125493428Y-46677314D01*
X124864857Y-46820171D02*
X125293428Y-46963028D01*
X125293428Y-46591600D01*
%TO.C,C3*%
X125487085Y-45058000D02*
X125515657Y-45086571D01*
X125544228Y-45172285D01*
X125544228Y-45229428D01*
X125515657Y-45315142D01*
X125458514Y-45372285D01*
X125401371Y-45400857D01*
X125287085Y-45429428D01*
X125201371Y-45429428D01*
X125087085Y-45400857D01*
X125029942Y-45372285D01*
X124972800Y-45315142D01*
X124944228Y-45229428D01*
X124944228Y-45172285D01*
X124972800Y-45086571D01*
X125001371Y-45058000D01*
X124944228Y-44858000D02*
X124944228Y-44486571D01*
X125172800Y-44686571D01*
X125172800Y-44600857D01*
X125201371Y-44543714D01*
X125229942Y-44515142D01*
X125287085Y-44486571D01*
X125429942Y-44486571D01*
X125487085Y-44515142D01*
X125515657Y-44543714D01*
X125544228Y-44600857D01*
X125544228Y-44772285D01*
X125515657Y-44829428D01*
X125487085Y-44858000D01*
%TO.C,C2*%
X125639485Y-49630000D02*
X125668057Y-49658571D01*
X125696628Y-49744285D01*
X125696628Y-49801428D01*
X125668057Y-49887142D01*
X125610914Y-49944285D01*
X125553771Y-49972857D01*
X125439485Y-50001428D01*
X125353771Y-50001428D01*
X125239485Y-49972857D01*
X125182342Y-49944285D01*
X125125200Y-49887142D01*
X125096628Y-49801428D01*
X125096628Y-49744285D01*
X125125200Y-49658571D01*
X125153771Y-49630000D01*
X125153771Y-49401428D02*
X125125200Y-49372857D01*
X125096628Y-49315714D01*
X125096628Y-49172857D01*
X125125200Y-49115714D01*
X125153771Y-49087142D01*
X125210914Y-49058571D01*
X125268057Y-49058571D01*
X125353771Y-49087142D01*
X125696628Y-49430000D01*
X125696628Y-49058571D01*
%TO.C,C1*%
X112361000Y-45194085D02*
X112332428Y-45222657D01*
X112246714Y-45251228D01*
X112189571Y-45251228D01*
X112103857Y-45222657D01*
X112046714Y-45165514D01*
X112018142Y-45108371D01*
X111989571Y-44994085D01*
X111989571Y-44908371D01*
X112018142Y-44794085D01*
X112046714Y-44736942D01*
X112103857Y-44679800D01*
X112189571Y-44651228D01*
X112246714Y-44651228D01*
X112332428Y-44679800D01*
X112361000Y-44708371D01*
X112932428Y-45251228D02*
X112589571Y-45251228D01*
X112761000Y-45251228D02*
X112761000Y-44651228D01*
X112703857Y-44736942D01*
X112646714Y-44794085D01*
X112589571Y-44822657D01*
D12*
%TO.C,J4*%
X128813000Y-41382000D02*
X128813000Y-38782000D01*
X126153000Y-41382000D02*
X126153000Y-38782000D01*
X128813000Y-41382000D02*
X126153000Y-41382000D01*
X127483000Y-43982000D02*
X126153000Y-43982000D01*
X126153000Y-43982000D02*
X126153000Y-42652000D01*
X128813000Y-38782000D02*
X126153000Y-38782000D01*
%TO.C,J1*%
X123021000Y-32039000D02*
X123021000Y-29379000D01*
X110261000Y-32039000D02*
X123021000Y-32039000D01*
X107661000Y-29379000D02*
X108991000Y-29379000D01*
X110261000Y-29379000D02*
X123021000Y-29379000D01*
X110261000Y-32039000D02*
X110261000Y-29379000D01*
X107661000Y-30709000D02*
X107661000Y-29379000D01*
%TO.C,RH1*%
X125445000Y-52578000D02*
X124825000Y-52578000D01*
X127285000Y-52578000D02*
G75*
G03*
X127285000Y-52578000I-920000J0D01*
G01*
%TO.C,U1*%
X120230900Y-49618900D02*
X120230900Y-49199739D01*
X114973100Y-49199739D02*
X114973100Y-49618900D01*
X114973100Y-44361100D02*
X114973100Y-44780261D01*
X120230900Y-44780261D02*
X120230900Y-44361100D01*
X120230900Y-44361100D02*
X119811739Y-44361100D01*
X114973100Y-49618900D02*
X115392261Y-49618900D01*
X119811739Y-49618900D02*
X120230900Y-49618900D01*
X115392261Y-44361100D02*
X114973100Y-44361100D01*
G36*
X114541300Y-45930500D02*
G01*
X114287300Y-45930500D01*
X114287300Y-45549500D01*
X114541300Y-45549500D01*
X114541300Y-45930500D01*
G37*
D13*
X114541300Y-45930500D02*
X114287300Y-45930500D01*
X114287300Y-45549500D01*
X114541300Y-45549500D01*
X114541300Y-45930500D01*
G36*
X120916700Y-46430499D02*
G01*
X120662700Y-46430499D01*
X120662700Y-46049499D01*
X120916700Y-46049499D01*
X120916700Y-46430499D01*
G37*
X120916700Y-46430499D02*
X120662700Y-46430499D01*
X120662700Y-46049499D01*
X120916700Y-46049499D01*
X120916700Y-46430499D01*
G36*
X117542501Y-50304700D02*
G01*
X117161500Y-50304700D01*
X117161500Y-50050700D01*
X117542501Y-50050700D01*
X117542501Y-50304700D01*
G37*
X117542501Y-50304700D02*
X117161500Y-50304700D01*
X117161500Y-50050700D01*
X117542501Y-50050700D01*
X117542501Y-50304700D01*
D10*
%TO.C,TP7*%
X113160000Y-34544000D02*
G75*
G03*
X113160000Y-34544000I-1400000J0D01*
G01*
%TO.C,TP6*%
X110874000Y-37338000D02*
G75*
G03*
X110874000Y-37338000I-1400000J0D01*
G01*
%TO.C,TP5*%
X120526000Y-37338000D02*
G75*
G03*
X120526000Y-37338000I-1400000J0D01*
G01*
%TO.C,TP4*%
X122939000Y-34544000D02*
G75*
G03*
X122939000Y-34544000I-1400000J0D01*
G01*
%TO.C,TP3*%
X115700000Y-37338000D02*
G75*
G03*
X115700000Y-37338000I-1400000J0D01*
G01*
%TO.C,TP2*%
X117986000Y-34544000D02*
G75*
G03*
X117986000Y-34544000I-1400000J0D01*
G01*
D14*
%TO.C,RT1*%
X122451000Y-54856000D02*
X122151000Y-54856000D01*
D12*
%TO.C,RS1*%
X113773936Y-56710000D02*
X118128064Y-56710000D01*
X113773936Y-60130000D02*
X118128064Y-60130000D01*
%TO.C,R9*%
X119000000Y-51461641D02*
X119000000Y-51154359D01*
X119760000Y-51461641D02*
X119760000Y-51154359D01*
%TO.C,R8*%
X115698000Y-51461641D02*
X115698000Y-51154359D01*
X116458000Y-51461641D02*
X116458000Y-51154359D01*
%TO.C,R7*%
X111380000Y-40539641D02*
X111380000Y-40232359D01*
X112140000Y-40539641D02*
X112140000Y-40232359D01*
%TO.C,R6*%
X113920000Y-40539641D02*
X113920000Y-40232359D01*
X114680000Y-40539641D02*
X114680000Y-40232359D01*
%TO.C,R5*%
X116206000Y-40539641D02*
X116206000Y-40232359D01*
X116966000Y-40539641D02*
X116966000Y-40232359D01*
%TO.C,R4*%
X118746000Y-40539641D02*
X118746000Y-40232359D01*
X119506000Y-40539641D02*
X119506000Y-40232359D01*
%TO.C,R3*%
X121286000Y-40539641D02*
X121286000Y-40232359D01*
X122046000Y-40539641D02*
X122046000Y-40232359D01*
%TO.C,R1*%
X109094000Y-40539641D02*
X109094000Y-40232359D01*
X109854000Y-40539641D02*
X109854000Y-40232359D01*
D13*
%TO.C,Q1*%
X125753500Y-55947000D02*
X127353500Y-55947000D01*
X127353500Y-55947000D02*
X127353500Y-56147000D01*
X125553500Y-61147000D02*
X127353500Y-61147000D01*
X128453500Y-60547000D02*
X128453500Y-60547000D01*
X128353500Y-60547000D02*
X128353500Y-60547000D01*
X127353500Y-61147000D02*
X127353500Y-60947000D01*
X128353500Y-60547000D02*
G75*
G03*
X128453500Y-60547000I50000J0D01*
G01*
X128453500Y-60547000D02*
G75*
G03*
X128353500Y-60547000I-50000J0D01*
G01*
D12*
%TO.C,C6*%
X127481000Y-49664252D02*
X127481000Y-49141748D01*
X126011000Y-49664252D02*
X126011000Y-49141748D01*
%TO.C,C5*%
X128297000Y-49664252D02*
X128297000Y-49141748D01*
X129767000Y-49664252D02*
X129767000Y-49141748D01*
%TO.C,C4*%
X123298852Y-46407400D02*
X122776348Y-46407400D01*
X123298852Y-47877400D02*
X122776348Y-47877400D01*
%TO.C,C3*%
X123298852Y-44223000D02*
X122776348Y-44223000D01*
X123298852Y-45693000D02*
X122776348Y-45693000D01*
%TO.C,C2*%
X122994748Y-50265000D02*
X123517252Y-50265000D01*
X122994748Y-48795000D02*
X123517252Y-48795000D01*
%TO.C,C1*%
X112199748Y-47394800D02*
X112722252Y-47394800D01*
X112199748Y-45924800D02*
X112722252Y-45924800D01*
%TD*%
M02*
