%TF.GenerationSoftware,KiCad,Pcbnew,(6.0.8)*%
%TF.CreationDate,2023-02-11T16:42:38+01:00*%
%TF.ProjectId,VNF1048FTR_TestBoard,564e4631-3034-4384-9654-525f54657374,rev?*%
%TF.SameCoordinates,Original*%
%TF.FileFunction,Soldermask,Top*%
%TF.FilePolarity,Negative*%
%FSLAX46Y46*%
G04 Gerber Fmt 4.6, Leading zero omitted, Abs format (unit mm)*
G04 Created by KiCad (PCBNEW (6.0.8)) date 2023-02-11 16:42:38*
%MOMM*%
%LPD*%
G01*
G04 APERTURE LIST*
G04 Aperture macros list*
%AMRoundRect*
0 Rectangle with rounded corners*
0 $1 Rounding radius*
0 $2 $3 $4 $5 $6 $7 $8 $9 X,Y pos of 4 corners*
0 Add a 4 corners polygon primitive as box body*
4,1,4,$2,$3,$4,$5,$6,$7,$8,$9,$2,$3,0*
0 Add four circle primitives for the rounded corners*
1,1,$1+$1,$2,$3*
1,1,$1+$1,$4,$5*
1,1,$1+$1,$6,$7*
1,1,$1+$1,$8,$9*
0 Add four rect primitives between the rounded corners*
20,1,$1+$1,$2,$3,$4,$5,0*
20,1,$1+$1,$4,$5,$6,$7,0*
20,1,$1+$1,$6,$7,$8,$9,0*
20,1,$1+$1,$8,$9,$2,$3,0*%
G04 Aperture macros list end*
%ADD10R,1.700000X1.700000*%
%ADD11O,1.700000X1.700000*%
%ADD12C,1.400000*%
%ADD13O,1.400000X1.400000*%
%ADD14R,0.254000X0.812800*%
%ADD15R,0.254000X0.863600*%
%ADD16R,0.812800X0.254000*%
%ADD17R,0.863600X0.254000*%
%ADD18R,3.606800X3.606800*%
%ADD19C,2.000000*%
%ADD20R,0.600000X0.800000*%
%ADD21RoundRect,0.250000X-0.362500X-1.425000X0.362500X-1.425000X0.362500X1.425000X-0.362500X1.425000X0*%
%ADD22RoundRect,0.135000X0.185000X-0.135000X0.185000X0.135000X-0.185000X0.135000X-0.185000X-0.135000X0*%
%ADD23R,1.250000X0.650000*%
%ADD24R,0.550000X0.725000*%
%ADD25R,3.900000X4.600000*%
%ADD26R,0.800000X0.400000*%
%ADD27RoundRect,0.250002X-1.699998X-1.699998X1.699998X-1.699998X1.699998X1.699998X-1.699998X1.699998X0*%
%ADD28RoundRect,0.250000X0.475000X-0.250000X0.475000X0.250000X-0.475000X0.250000X-0.475000X-0.250000X0*%
%ADD29RoundRect,0.250000X0.250000X0.475000X-0.250000X0.475000X-0.250000X-0.475000X0.250000X-0.475000X0*%
%ADD30RoundRect,0.250000X-0.250000X-0.475000X0.250000X-0.475000X0.250000X0.475000X-0.250000X0.475000X0*%
G04 APERTURE END LIST*
D10*
%TO.C,J4*%
X127483000Y-42652000D03*
D11*
X127483000Y-40112000D03*
%TD*%
D10*
%TO.C,J1*%
X108991000Y-30709000D03*
D11*
X111531000Y-30709000D03*
X114071000Y-30709000D03*
X116611000Y-30709000D03*
X119151000Y-30709000D03*
X121691000Y-30709000D03*
%TD*%
D12*
%TO.C,RH1*%
X126365000Y-52578000D03*
D13*
X123825000Y-52578000D03*
%TD*%
D14*
%TO.C,U1*%
X119351999Y-44589700D03*
D15*
X118852000Y-44615100D03*
X118352001Y-44615100D03*
X117852000Y-44615100D03*
X117352000Y-44615100D03*
X116851999Y-44615100D03*
X116352000Y-44615100D03*
D14*
X115852001Y-44589700D03*
D16*
X115201700Y-45240001D03*
D17*
X115227100Y-45740000D03*
X115227100Y-46239999D03*
X115227100Y-46740000D03*
X115227100Y-47240000D03*
X115227100Y-47740001D03*
X115227100Y-48240000D03*
D16*
X115201700Y-48739999D03*
D14*
X115852001Y-49390300D03*
D15*
X116352000Y-49364900D03*
X116851999Y-49364900D03*
X117352000Y-49364900D03*
X117852000Y-49364900D03*
X118352001Y-49364900D03*
X118852000Y-49364900D03*
D14*
X119351999Y-49390300D03*
D16*
X120002300Y-48739999D03*
D17*
X119976900Y-48240000D03*
X119976900Y-47740001D03*
X119976900Y-47240000D03*
X119976900Y-46740000D03*
X119976900Y-46239999D03*
X119976900Y-45740000D03*
D16*
X120002300Y-45240001D03*
D18*
X117602000Y-46990000D03*
%TD*%
D19*
%TO.C,TP7*%
X111760000Y-34544000D03*
%TD*%
%TO.C,TP6*%
X109474000Y-37338000D03*
%TD*%
%TO.C,TP5*%
X119126000Y-37338000D03*
%TD*%
%TO.C,TP4*%
X121539000Y-34544000D03*
%TD*%
%TO.C,TP3*%
X114300000Y-37338000D03*
%TD*%
%TO.C,TP2*%
X116586000Y-34544000D03*
%TD*%
D20*
%TO.C,RT1*%
X122301000Y-54356000D03*
X122301000Y-55356000D03*
%TD*%
D21*
%TO.C,RS1*%
X112988500Y-58420000D03*
X118913500Y-58420000D03*
%TD*%
D22*
%TO.C,R9*%
X119380000Y-51818000D03*
X119380000Y-50798000D03*
%TD*%
%TO.C,R8*%
X116078000Y-51818000D03*
X116078000Y-50798000D03*
%TD*%
%TO.C,R7*%
X111760000Y-40896000D03*
X111760000Y-39876000D03*
%TD*%
%TO.C,R6*%
X114300000Y-40896000D03*
X114300000Y-39876000D03*
%TD*%
%TO.C,R5*%
X116586000Y-40896000D03*
X116586000Y-39876000D03*
%TD*%
%TO.C,R4*%
X119126000Y-40896000D03*
X119126000Y-39876000D03*
%TD*%
%TO.C,R3*%
X121666000Y-40896000D03*
X121666000Y-39876000D03*
%TD*%
%TO.C,R1*%
X109474000Y-40896000D03*
X109474000Y-39876000D03*
%TD*%
D23*
%TO.C,Q1*%
X127203500Y-60452000D03*
X127203500Y-59182000D03*
X127203500Y-57912000D03*
X127203500Y-56642000D03*
D24*
X121503500Y-56642000D03*
X121503500Y-57912000D03*
X121503500Y-59182000D03*
X121503500Y-60452000D03*
D25*
X123728500Y-58547000D03*
D26*
X122503500Y-56047000D03*
X124953500Y-56047000D03*
X122503500Y-61047000D03*
X124953500Y-61047000D03*
%TD*%
D27*
%TO.C,J3*%
X109093000Y-58420000D03*
%TD*%
%TO.C,J2*%
X132715000Y-58420000D03*
%TD*%
D28*
%TO.C,C6*%
X126746000Y-50353000D03*
X126746000Y-48453000D03*
%TD*%
%TO.C,C5*%
X129032000Y-48453000D03*
X129032000Y-50353000D03*
%TD*%
D29*
%TO.C,C4*%
X123987600Y-47142400D03*
X122087600Y-47142400D03*
%TD*%
%TO.C,C3*%
X123987600Y-44958000D03*
X122087600Y-44958000D03*
%TD*%
D30*
%TO.C,C2*%
X122306000Y-49530000D03*
X124206000Y-49530000D03*
%TD*%
%TO.C,C1*%
X111511000Y-46659800D03*
X113411000Y-46659800D03*
%TD*%
M02*
