M48
; DRILL file {KiCad (6.0.8)} date Sat Feb 11 16:42:41 2023
; FORMAT={-:-/ absolute / inch / decimal}
; #@! TF.CreationDate,2023-02-11T16:42:41+01:00
; #@! TF.GenerationSoftware,Kicad,Pcbnew,(6.0.8)
; #@! TF.FileFunction,Plated,1,2,PTH
FMAT,2
INCH
; #@! TA.AperFunction,Plated,PTH,ViaDrill
T1C0.0118
; #@! TA.AperFunction,Plated,PTH,ViaDrill
T2C0.0157
; #@! TA.AperFunction,Plated,PTH,ComponentDrill
T3C0.0276
; #@! TA.AperFunction,Plated,PTH,ComponentDrill
T4C0.0394
; #@! TA.AperFunction,Plated,PTH,ComponentDrill
T5C0.0984
%
G90
G05
T1
X4.475Y-2.2
X4.49Y-1.882
X4.6418Y-2.028
X4.6612Y-2.1198
X4.7238Y-2.1212
X4.73Y-1.975
X4.7642Y-1.6902
T2
X4.37Y-1.67
X4.51Y-1.74
X4.5405Y-1.6895
X4.99Y-1.865
X5.08Y-1.865
T3
X4.875Y-2.07
X4.975Y-2.07
T4
X4.291Y-1.209
X4.31Y-1.47
X4.391Y-1.209
X4.4Y-1.36
X4.491Y-1.209
X4.5Y-1.47
X4.59Y-1.36
X4.591Y-1.209
X4.69Y-1.47
X4.691Y-1.209
X4.785Y-1.36
X4.791Y-1.209
X5.019Y-1.5792
X5.019Y-1.6792
T5
X4.295Y-2.3
X5.225Y-2.3
T0
M30
