%TF.GenerationSoftware,KiCad,Pcbnew,(6.0.8)*%
%TF.CreationDate,2023-11-01T20:00:16+01:00*%
%TF.ProjectId,BTS50005-1LUA_TestBoard,42545335-3030-4303-952d-314c55415f54,rev?*%
%TF.SameCoordinates,Original*%
%TF.FileFunction,Legend,Top*%
%TF.FilePolarity,Positive*%
%FSLAX46Y46*%
G04 Gerber Fmt 4.6, Leading zero omitted, Abs format (unit mm)*
G04 Created by KiCad (PCBNEW (6.0.8)) date 2023-11-01 20:00:16*
%MOMM*%
%LPD*%
G01*
G04 APERTURE LIST*
%ADD10C,0.100000*%
%ADD11C,0.120000*%
%ADD12C,0.150000*%
%ADD13C,0.200000*%
G04 APERTURE END LIST*
D10*
X121401666Y-36680666D02*
X121401666Y-36347333D01*
X121601666Y-36747333D02*
X120901666Y-36514000D01*
X121601666Y-36280666D01*
X121601666Y-36047333D02*
X120901666Y-36047333D01*
X120901666Y-35880666D01*
X120935000Y-35780666D01*
X121001666Y-35714000D01*
X121068333Y-35680666D01*
X121201666Y-35647333D01*
X121301666Y-35647333D01*
X121435000Y-35680666D01*
X121501666Y-35714000D01*
X121568333Y-35780666D01*
X121601666Y-35880666D01*
X121601666Y-36047333D01*
X121535000Y-34947333D02*
X121568333Y-34980666D01*
X121601666Y-35080666D01*
X121601666Y-35147333D01*
X121568333Y-35247333D01*
X121501666Y-35314000D01*
X121435000Y-35347333D01*
X121301666Y-35380666D01*
X121201666Y-35380666D01*
X121068333Y-35347333D01*
X121001666Y-35314000D01*
X120935000Y-35247333D01*
X120901666Y-35147333D01*
X120901666Y-35080666D01*
X120935000Y-34980666D01*
X120968333Y-34947333D01*
X125665666Y-36680666D02*
X124965666Y-36680666D01*
X124965666Y-36514000D01*
X124999000Y-36414000D01*
X125065666Y-36347333D01*
X125132333Y-36314000D01*
X125265666Y-36280666D01*
X125365666Y-36280666D01*
X125499000Y-36314000D01*
X125565666Y-36347333D01*
X125632333Y-36414000D01*
X125665666Y-36514000D01*
X125665666Y-36680666D01*
X125299000Y-35980666D02*
X125299000Y-35747333D01*
X125665666Y-35647333D02*
X125665666Y-35980666D01*
X124965666Y-35980666D01*
X124965666Y-35647333D01*
X125665666Y-35347333D02*
X124965666Y-35347333D01*
X125665666Y-34947333D01*
X124965666Y-34947333D01*
X129536000Y-36633866D02*
X129569333Y-36667200D01*
X129602666Y-36767200D01*
X129602666Y-36833866D01*
X129569333Y-36933866D01*
X129502666Y-37000533D01*
X129436000Y-37033866D01*
X129302666Y-37067200D01*
X129202666Y-37067200D01*
X129069333Y-37033866D01*
X129002666Y-37000533D01*
X128936000Y-36933866D01*
X128902666Y-36833866D01*
X128902666Y-36767200D01*
X128936000Y-36667200D01*
X128969333Y-36633866D01*
X128902666Y-36433866D02*
X129602666Y-36200533D01*
X128902666Y-35967200D01*
X129602666Y-35733866D02*
X128902666Y-35733866D01*
X128902666Y-35267200D02*
X128902666Y-35133866D01*
X128936000Y-35067200D01*
X129002666Y-35000533D01*
X129136000Y-34967200D01*
X129369333Y-34967200D01*
X129502666Y-35000533D01*
X129569333Y-35067200D01*
X129602666Y-35133866D01*
X129602666Y-35267200D01*
X129569333Y-35333866D01*
X129502666Y-35400533D01*
X129369333Y-35433866D01*
X129136000Y-35433866D01*
X129002666Y-35400533D01*
X128936000Y-35333866D01*
X128902666Y-35267200D01*
X119030000Y-36398133D02*
X118996666Y-36464800D01*
X118996666Y-36564800D01*
X119030000Y-36664800D01*
X119096666Y-36731466D01*
X119163333Y-36764800D01*
X119296666Y-36798133D01*
X119396666Y-36798133D01*
X119530000Y-36764800D01*
X119596666Y-36731466D01*
X119663333Y-36664800D01*
X119696666Y-36564800D01*
X119696666Y-36498133D01*
X119663333Y-36398133D01*
X119630000Y-36364800D01*
X119396666Y-36364800D01*
X119396666Y-36498133D01*
X119696666Y-36064800D02*
X118996666Y-36064800D01*
X119696666Y-35664800D01*
X118996666Y-35664800D01*
X119696666Y-35331466D02*
X118996666Y-35331466D01*
X118996666Y-35164800D01*
X119030000Y-35064800D01*
X119096666Y-34998133D01*
X119163333Y-34964800D01*
X119296666Y-34931466D01*
X119396666Y-34931466D01*
X119530000Y-34964800D01*
X119596666Y-34998133D01*
X119663333Y-35064800D01*
X119696666Y-35164800D01*
X119696666Y-35331466D01*
X127504000Y-36003666D02*
X127537333Y-36037000D01*
X127570666Y-36137000D01*
X127570666Y-36203666D01*
X127537333Y-36303666D01*
X127470666Y-36370333D01*
X127404000Y-36403666D01*
X127270666Y-36437000D01*
X127170666Y-36437000D01*
X127037333Y-36403666D01*
X126970666Y-36370333D01*
X126904000Y-36303666D01*
X126870666Y-36203666D01*
X126870666Y-36137000D01*
X126904000Y-36037000D01*
X126937333Y-36003666D01*
X127570666Y-35703666D02*
X126870666Y-35703666D01*
X127570666Y-35370333D02*
X126870666Y-35370333D01*
X127570666Y-34970333D01*
X126870666Y-34970333D01*
%TO.C,J1*%
X132200000Y-33571428D02*
X132200000Y-34000000D01*
X132171428Y-34085714D01*
X132114285Y-34142857D01*
X132028571Y-34171428D01*
X131971428Y-34171428D01*
X132800000Y-34171428D02*
X132457142Y-34171428D01*
X132628571Y-34171428D02*
X132628571Y-33571428D01*
X132571428Y-33657142D01*
X132514285Y-33714285D01*
X132457142Y-33742857D01*
%TO.C,TP2*%
X110992857Y-45471428D02*
X111335714Y-45471428D01*
X111164285Y-46071428D02*
X111164285Y-45471428D01*
X111535714Y-46071428D02*
X111535714Y-45471428D01*
X111764285Y-45471428D01*
X111821428Y-45500000D01*
X111850000Y-45528571D01*
X111878571Y-45585714D01*
X111878571Y-45671428D01*
X111850000Y-45728571D01*
X111821428Y-45757142D01*
X111764285Y-45785714D01*
X111535714Y-45785714D01*
X112107142Y-45528571D02*
X112135714Y-45500000D01*
X112192857Y-45471428D01*
X112335714Y-45471428D01*
X112392857Y-45500000D01*
X112421428Y-45528571D01*
X112450000Y-45585714D01*
X112450000Y-45642857D01*
X112421428Y-45728571D01*
X112078571Y-46071428D01*
X112450000Y-46071428D01*
%TO.C,R1*%
X113271428Y-32350000D02*
X112985714Y-32550000D01*
X113271428Y-32692857D02*
X112671428Y-32692857D01*
X112671428Y-32464285D01*
X112700000Y-32407142D01*
X112728571Y-32378571D01*
X112785714Y-32350000D01*
X112871428Y-32350000D01*
X112928571Y-32378571D01*
X112957142Y-32407142D01*
X112985714Y-32464285D01*
X112985714Y-32692857D01*
X113271428Y-31778571D02*
X113271428Y-32121428D01*
X113271428Y-31950000D02*
X112671428Y-31950000D01*
X112757142Y-32007142D01*
X112814285Y-32064285D01*
X112842857Y-32121428D01*
%TO.C,R2*%
X116271428Y-32350000D02*
X115985714Y-32550000D01*
X116271428Y-32692857D02*
X115671428Y-32692857D01*
X115671428Y-32464285D01*
X115700000Y-32407142D01*
X115728571Y-32378571D01*
X115785714Y-32350000D01*
X115871428Y-32350000D01*
X115928571Y-32378571D01*
X115957142Y-32407142D01*
X115985714Y-32464285D01*
X115985714Y-32692857D01*
X115728571Y-32121428D02*
X115700000Y-32092857D01*
X115671428Y-32035714D01*
X115671428Y-31892857D01*
X115700000Y-31835714D01*
X115728571Y-31807142D01*
X115785714Y-31778571D01*
X115842857Y-31778571D01*
X115928571Y-31807142D01*
X116271428Y-32150000D01*
X116271428Y-31778571D01*
%TO.C,C2*%
X110214285Y-32350000D02*
X110242857Y-32378571D01*
X110271428Y-32464285D01*
X110271428Y-32521428D01*
X110242857Y-32607142D01*
X110185714Y-32664285D01*
X110128571Y-32692857D01*
X110014285Y-32721428D01*
X109928571Y-32721428D01*
X109814285Y-32692857D01*
X109757142Y-32664285D01*
X109700000Y-32607142D01*
X109671428Y-32521428D01*
X109671428Y-32464285D01*
X109700000Y-32378571D01*
X109728571Y-32350000D01*
X109728571Y-32121428D02*
X109700000Y-32092857D01*
X109671428Y-32035714D01*
X109671428Y-31892857D01*
X109700000Y-31835714D01*
X109728571Y-31807142D01*
X109785714Y-31778571D01*
X109842857Y-31778571D01*
X109928571Y-31807142D01*
X110271428Y-32150000D01*
X110271428Y-31778571D01*
%TO.C,C3*%
X139734285Y-35400000D02*
X139762857Y-35428571D01*
X139791428Y-35514285D01*
X139791428Y-35571428D01*
X139762857Y-35657142D01*
X139705714Y-35714285D01*
X139648571Y-35742857D01*
X139534285Y-35771428D01*
X139448571Y-35771428D01*
X139334285Y-35742857D01*
X139277142Y-35714285D01*
X139220000Y-35657142D01*
X139191428Y-35571428D01*
X139191428Y-35514285D01*
X139220000Y-35428571D01*
X139248571Y-35400000D01*
X139191428Y-35200000D02*
X139191428Y-34828571D01*
X139420000Y-35028571D01*
X139420000Y-34942857D01*
X139448571Y-34885714D01*
X139477142Y-34857142D01*
X139534285Y-34828571D01*
X139677142Y-34828571D01*
X139734285Y-34857142D01*
X139762857Y-34885714D01*
X139791428Y-34942857D01*
X139791428Y-35114285D01*
X139762857Y-35171428D01*
X139734285Y-35200000D01*
%TO.C,TP1*%
X135042857Y-29971428D02*
X135385714Y-29971428D01*
X135214285Y-30571428D02*
X135214285Y-29971428D01*
X135585714Y-30571428D02*
X135585714Y-29971428D01*
X135814285Y-29971428D01*
X135871428Y-30000000D01*
X135900000Y-30028571D01*
X135928571Y-30085714D01*
X135928571Y-30171428D01*
X135900000Y-30228571D01*
X135871428Y-30257142D01*
X135814285Y-30285714D01*
X135585714Y-30285714D01*
X136500000Y-30571428D02*
X136157142Y-30571428D01*
X136328571Y-30571428D02*
X136328571Y-29971428D01*
X136271428Y-30057142D01*
X136214285Y-30114285D01*
X136157142Y-30142857D01*
%TO.C,C1*%
X114714285Y-32350000D02*
X114742857Y-32378571D01*
X114771428Y-32464285D01*
X114771428Y-32521428D01*
X114742857Y-32607142D01*
X114685714Y-32664285D01*
X114628571Y-32692857D01*
X114514285Y-32721428D01*
X114428571Y-32721428D01*
X114314285Y-32692857D01*
X114257142Y-32664285D01*
X114200000Y-32607142D01*
X114171428Y-32521428D01*
X114171428Y-32464285D01*
X114200000Y-32378571D01*
X114228571Y-32350000D01*
X114771428Y-31778571D02*
X114771428Y-32121428D01*
X114771428Y-31950000D02*
X114171428Y-31950000D01*
X114257142Y-32007142D01*
X114314285Y-32064285D01*
X114342857Y-32121428D01*
%TO.C,R3*%
X111771428Y-32350000D02*
X111485714Y-32550000D01*
X111771428Y-32692857D02*
X111171428Y-32692857D01*
X111171428Y-32464285D01*
X111200000Y-32407142D01*
X111228571Y-32378571D01*
X111285714Y-32350000D01*
X111371428Y-32350000D01*
X111428571Y-32378571D01*
X111457142Y-32407142D01*
X111485714Y-32464285D01*
X111485714Y-32692857D01*
X111171428Y-32150000D02*
X111171428Y-31778571D01*
X111400000Y-31978571D01*
X111400000Y-31892857D01*
X111428571Y-31835714D01*
X111457142Y-31807142D01*
X111514285Y-31778571D01*
X111657142Y-31778571D01*
X111714285Y-31807142D01*
X111742857Y-31835714D01*
X111771428Y-31892857D01*
X111771428Y-32064285D01*
X111742857Y-32121428D01*
X111714285Y-32150000D01*
%TO.C,Q1*%
X126933333Y-49583333D02*
X126866666Y-49550000D01*
X126800000Y-49483333D01*
X126700000Y-49383333D01*
X126633333Y-49350000D01*
X126566666Y-49350000D01*
X126600000Y-49516666D02*
X126533333Y-49483333D01*
X126466666Y-49416666D01*
X126433333Y-49283333D01*
X126433333Y-49050000D01*
X126466666Y-48916666D01*
X126533333Y-48850000D01*
X126600000Y-48816666D01*
X126733333Y-48816666D01*
X126800000Y-48850000D01*
X126866666Y-48916666D01*
X126900000Y-49050000D01*
X126900000Y-49283333D01*
X126866666Y-49416666D01*
X126800000Y-49483333D01*
X126733333Y-49516666D01*
X126600000Y-49516666D01*
X127566666Y-49516666D02*
X127166666Y-49516666D01*
X127366666Y-49516666D02*
X127366666Y-48816666D01*
X127300000Y-48916666D01*
X127233333Y-48983333D01*
X127166666Y-49016666D01*
D11*
%TO.C,J1*%
X130560000Y-32175000D02*
X130560000Y-32575000D01*
X117940000Y-32575000D02*
X117540000Y-32575000D01*
X117540000Y-32175000D02*
X117940000Y-32175000D01*
X130560000Y-32575000D02*
X130960000Y-32575000D01*
X117140000Y-30565000D02*
X117140000Y-34435000D01*
X131360000Y-30565000D02*
X117140000Y-30565000D01*
X117140000Y-34435000D02*
X131360000Y-34435000D01*
X119140000Y-30265000D02*
X116840000Y-30265000D01*
X117540000Y-32575000D02*
X117540000Y-34435000D01*
X130960000Y-32575000D02*
X130960000Y-34435000D01*
X131360000Y-32975000D02*
X130960000Y-32975000D01*
X117540000Y-30965000D02*
X117540000Y-32175000D01*
X117140000Y-32975000D02*
X117540000Y-32975000D01*
X130960000Y-30965000D02*
X130960000Y-32175000D01*
X124250000Y-30965000D02*
X117540000Y-30965000D01*
X117940000Y-32175000D02*
X117940000Y-32575000D01*
X124250000Y-30965000D02*
X130960000Y-30965000D01*
X116840000Y-30265000D02*
X116840000Y-32565000D01*
X131360000Y-34435000D02*
X131360000Y-30565000D01*
X130960000Y-32175000D02*
X130560000Y-32175000D01*
D12*
%TO.C,TP2*%
X113150000Y-48000000D02*
G75*
G03*
X113150000Y-48000000I-1400000J0D01*
G01*
D11*
%TO.C,R1*%
X113380000Y-35143641D02*
X113380000Y-34836359D01*
X112620000Y-35143641D02*
X112620000Y-34836359D01*
%TO.C,R2*%
X115620000Y-34836359D02*
X115620000Y-35143641D01*
X116380000Y-34836359D02*
X116380000Y-35143641D01*
%TO.C,C2*%
X109640000Y-34912164D02*
X109640000Y-35127836D01*
X110360000Y-34912164D02*
X110360000Y-35127836D01*
%TO.C,C3*%
X140465000Y-35561252D02*
X140465000Y-35038748D01*
X141935000Y-35561252D02*
X141935000Y-35038748D01*
D12*
%TO.C,TP1*%
X135200000Y-31700000D02*
G75*
G03*
X135200000Y-31700000I-1400000J0D01*
G01*
D11*
%TO.C,C1*%
X114860000Y-34882164D02*
X114860000Y-35097836D01*
X114140000Y-34882164D02*
X114140000Y-35097836D01*
%TO.C,kibuzzard-65429977*%
G36*
X102919921Y-33456508D02*
G01*
X106386174Y-33456508D01*
X105880079Y-35143492D01*
X102413826Y-35143492D01*
X102666874Y-34300000D01*
X103250650Y-34300000D01*
X103256355Y-34419211D01*
X103273470Y-34522845D01*
X103301996Y-34610902D01*
X103341931Y-34683381D01*
X103411869Y-34755260D01*
X103499976Y-34798387D01*
X103606250Y-34812762D01*
X103709967Y-34798387D01*
X103796750Y-34755260D01*
X103866600Y-34683381D01*
X103906883Y-34610902D01*
X103935656Y-34522845D01*
X103950036Y-34436525D01*
X104063450Y-34436525D01*
X104067419Y-34518281D01*
X104079325Y-34592100D01*
X104100756Y-34656791D01*
X104133300Y-34711162D01*
X104235694Y-34786569D01*
X104307727Y-34806214D01*
X104395237Y-34812762D01*
X104484137Y-34806214D01*
X104557162Y-34786569D01*
X104615900Y-34754620D01*
X104661938Y-34711162D01*
X104695672Y-34656791D01*
X104717500Y-34592100D01*
X104729406Y-34518281D01*
X104733375Y-34436525D01*
X104733375Y-33971387D01*
X104834975Y-33971387D01*
X105093738Y-33971387D01*
X105093738Y-34792125D01*
X105290588Y-34792125D01*
X105290588Y-33971387D01*
X105549350Y-33971387D01*
X105549350Y-33809462D01*
X104834975Y-33809462D01*
X104834975Y-33971387D01*
X104733375Y-33971387D01*
X104733375Y-33809462D01*
X104538113Y-33809462D01*
X104538113Y-34422237D01*
X104531762Y-34526219D01*
X104509537Y-34594481D01*
X104466675Y-34631787D01*
X104398412Y-34642900D01*
X104330150Y-34631787D01*
X104288081Y-34595275D01*
X104266650Y-34527806D01*
X104260300Y-34423825D01*
X104260300Y-33809462D01*
X104063450Y-33809462D01*
X104063450Y-34436525D01*
X103950036Y-34436525D01*
X103952920Y-34419211D01*
X103958675Y-34300000D01*
X103953020Y-34180789D01*
X103936053Y-34077155D01*
X103907776Y-33989098D01*
X103868187Y-33916619D01*
X103798690Y-33844740D01*
X103710849Y-33801613D01*
X103604662Y-33787237D01*
X103501651Y-33801613D01*
X103414868Y-33844740D01*
X103344312Y-33916619D01*
X103303335Y-33989098D01*
X103274066Y-34077155D01*
X103256504Y-34180789D01*
X103250650Y-34300000D01*
X102666874Y-34300000D01*
X102919921Y-33456508D01*
G37*
G36*
X103685625Y-33984087D02*
G01*
X103732456Y-34057112D01*
X103754681Y-34165856D01*
X103758848Y-34230745D01*
X103760237Y-34300000D01*
X103758848Y-34369056D01*
X103754681Y-34433350D01*
X103732456Y-34542094D01*
X103684831Y-34615912D01*
X103604662Y-34642900D01*
X103523700Y-34615912D01*
X103476869Y-34542887D01*
X103454644Y-34434144D01*
X103450477Y-34369255D01*
X103449087Y-34300000D01*
X103450477Y-34230944D01*
X103454644Y-34166650D01*
X103476869Y-34057906D01*
X103523700Y-33984087D01*
X103604662Y-33957100D01*
X103685625Y-33984087D01*
G37*
%TO.C,R3*%
X111120000Y-35193641D02*
X111120000Y-34886359D01*
X111880000Y-35193641D02*
X111880000Y-34886359D01*
%TO.C,kibuzzard-6542993B*%
G36*
X134526271Y-33566827D02*
G01*
X137973633Y-33566827D01*
X137473729Y-35233173D01*
X134026367Y-35233173D01*
X134358948Y-34124569D01*
X134857000Y-34124569D01*
X134920500Y-34286494D01*
X135017337Y-34247600D01*
X135118937Y-34191244D01*
X135118937Y-34740519D01*
X134912562Y-34740519D01*
X134912562Y-34902444D01*
X135509462Y-34902444D01*
X135509462Y-34740519D01*
X135314200Y-34740519D01*
X135314200Y-34027731D01*
X135642812Y-34027731D01*
X135739650Y-34164256D01*
X135839662Y-34089644D01*
X135936500Y-34067419D01*
X136028575Y-34099963D01*
X136065087Y-34192831D01*
X136035719Y-34276969D01*
X135961106Y-34362694D01*
X135914275Y-34408136D01*
X135864269Y-34455562D01*
X135814262Y-34505966D01*
X135767431Y-34560337D01*
X135726156Y-34619273D01*
X135692819Y-34683369D01*
X135670792Y-34753219D01*
X135663450Y-34829419D01*
X135662656Y-34862756D01*
X135666625Y-34902444D01*
X136307975Y-34902444D01*
X136307975Y-34740519D01*
X135885700Y-34740519D01*
X135902369Y-34688131D01*
X135942850Y-34631775D01*
X135993650Y-34577800D01*
X136041275Y-34532556D01*
X136122237Y-34453181D01*
X136193675Y-34367456D01*
X136244475Y-34276175D01*
X136263525Y-34178544D01*
X136238125Y-34055512D01*
X136169862Y-33967406D01*
X136080384Y-33919781D01*
X136388937Y-33919781D01*
X136407194Y-34008681D01*
X136433388Y-34119806D01*
X136454378Y-34202974D01*
X136477132Y-34289492D01*
X136501650Y-34379362D01*
X136527579Y-34470997D01*
X136554567Y-34562807D01*
X136582613Y-34654794D01*
X136624284Y-34785763D01*
X136663575Y-34902444D01*
X136865187Y-34902444D01*
X136895526Y-34817865D01*
X136925160Y-34731347D01*
X136954088Y-34642888D01*
X136981869Y-34553988D01*
X137008062Y-34466146D01*
X137032669Y-34379362D01*
X137066403Y-34252958D01*
X137096169Y-34132506D01*
X137121767Y-34020587D01*
X137143000Y-33919781D01*
X136938212Y-33919781D01*
X136923925Y-34002331D01*
X136906463Y-34097581D01*
X136886619Y-34200570D01*
X136865187Y-34306337D01*
X136842169Y-34412700D01*
X136817563Y-34517475D01*
X136792163Y-34615702D01*
X136766762Y-34702419D01*
X136741164Y-34614511D01*
X136715169Y-34515887D01*
X136689769Y-34411112D01*
X136665956Y-34304750D01*
X136643930Y-34199181D01*
X136623887Y-34096787D01*
X136607219Y-34002133D01*
X136595312Y-33919781D01*
X136388937Y-33919781D01*
X136080384Y-33919781D01*
X136071437Y-33915019D01*
X135955550Y-33897556D01*
X135872802Y-33905494D01*
X135789656Y-33929306D01*
X135711273Y-33969787D01*
X135642812Y-34027731D01*
X135314200Y-34027731D01*
X135314200Y-33919781D01*
X135180850Y-33919781D01*
X135112587Y-33981694D01*
X135028450Y-34038844D01*
X134939550Y-34088056D01*
X134857000Y-34124569D01*
X134358948Y-34124569D01*
X134526271Y-33566827D01*
G37*
D10*
%TO.C,Q1*%
X114535000Y-38300000D02*
X114535000Y-38300000D01*
X114635000Y-38300000D02*
X114635000Y-38300000D01*
D13*
X119935000Y-47450000D02*
X116247000Y-47450000D01*
X119935000Y-37550000D02*
X116247000Y-37550000D01*
D10*
X114535000Y-38300000D02*
G75*
G03*
X114635000Y-38300000I50000J0D01*
G01*
X114635000Y-38300000D02*
G75*
G03*
X114535000Y-38300000I-50000J0D01*
G01*
%TD*%
M02*
