%TF.GenerationSoftware,KiCad,Pcbnew,(6.0.8)*%
%TF.CreationDate,2023-11-01T20:00:20+01:00*%
%TF.ProjectId,BTS50005-1LUA_TestBoard,42545335-3030-4303-952d-314c55415f54,rev?*%
%TF.SameCoordinates,Original*%
%TF.FileFunction,Drillmap*%
%TF.FilePolarity,Positive*%
%FSLAX45Y45*%
G04 Gerber Fmt 4.5, Leading zero omitted, Abs format (unit mm)*
G04 Created by KiCad (PCBNEW (6.0.8)) date 2023-11-01 20:00:20*
%MOMM*%
%LPD*%
G01*
G04 APERTURE LIST*
%ADD10C,0.100000*%
%ADD11C,0.200000*%
%ADD12C,0.040000*%
%ADD13C,0.050000*%
%ADD14C,0.060000*%
%ADD15C,0.080000*%
%ADD16C,0.650000*%
G04 APERTURE END LIST*
D10*
X14478000Y-5080000D02*
X14478000Y-2921000D01*
X9652000Y-5080000D02*
X14478000Y-5080000D01*
X14478000Y-2921000D02*
X9652000Y-2921000D01*
X9652000Y-2921000D02*
X9652000Y-5080000D01*
D11*
D12*
X10980000Y-3330000D02*
X11020000Y-3370000D01*
X11020000Y-3330000D02*
X10980000Y-3370000D01*
X11320230Y-3345230D02*
X11360230Y-3385230D01*
X11360230Y-3345230D02*
X11320230Y-3385230D01*
X11430000Y-3330000D02*
X11470000Y-3370000D01*
X11470000Y-3330000D02*
X11430000Y-3370000D01*
X11530000Y-3705000D02*
X11570000Y-3745000D01*
X11570000Y-3705000D02*
X11530000Y-3745000D01*
X11540000Y-3120000D02*
X11580000Y-3160000D01*
X11580000Y-3120000D02*
X11540000Y-3160000D01*
X11580000Y-3330000D02*
X11620000Y-3370000D01*
X11620000Y-3330000D02*
X11580000Y-3370000D01*
X11630000Y-3705000D02*
X11670000Y-3745000D01*
X11670000Y-3705000D02*
X11630000Y-3745000D01*
X11680000Y-3530000D02*
X11720000Y-3570000D01*
X11720000Y-3530000D02*
X11680000Y-3570000D01*
X11730000Y-3705000D02*
X11770000Y-3745000D01*
X11770000Y-3705000D02*
X11730000Y-3745000D01*
X14020000Y-3300000D02*
X14060000Y-3340000D01*
X14060000Y-3300000D02*
X14020000Y-3340000D01*
X14110000Y-3300000D02*
X14150000Y-3340000D01*
X14150000Y-3300000D02*
X14110000Y-3340000D01*
X14200000Y-3300000D02*
X14240000Y-3340000D01*
X14240000Y-3300000D02*
X14200000Y-3340000D01*
D13*
X12153500Y-3873500D02*
G75*
G03*
X12153500Y-3873500I-25000J0D01*
G01*
X12153500Y-4127500D02*
G75*
G03*
X12153500Y-4127500I-25000J0D01*
G01*
X12153500Y-4381500D02*
G75*
G03*
X12153500Y-4381500I-25000J0D01*
G01*
X12153500Y-4635500D02*
G75*
G03*
X12153500Y-4635500I-25000J0D01*
G01*
X12407500Y-3873500D02*
G75*
G03*
X12407500Y-3873500I-25000J0D01*
G01*
X12407500Y-4127500D02*
G75*
G03*
X12407500Y-4127500I-25000J0D01*
G01*
X12407500Y-4381500D02*
G75*
G03*
X12407500Y-4381500I-25000J0D01*
G01*
X12407500Y-4635500D02*
G75*
G03*
X12407500Y-4635500I-25000J0D01*
G01*
X12661500Y-3873500D02*
G75*
G03*
X12661500Y-3873500I-25000J0D01*
G01*
X12661500Y-4127500D02*
G75*
G03*
X12661500Y-4127500I-25000J0D01*
G01*
X12661500Y-4381500D02*
G75*
G03*
X12661500Y-4381500I-25000J0D01*
G01*
X12661500Y-4635500D02*
G75*
G03*
X12661500Y-4635500I-25000J0D01*
G01*
D14*
X9962500Y-4237000D02*
X9962500Y-4297000D01*
X9932500Y-4267000D02*
X9992500Y-4267000D01*
X10105285Y-3892285D02*
X10105285Y-3952285D01*
X10075285Y-3922285D02*
X10135285Y-3922285D01*
X10105285Y-4581715D02*
X10105285Y-4641715D01*
X10075285Y-4611715D02*
X10135285Y-4611715D01*
X10450000Y-3749500D02*
X10450000Y-3809500D01*
X10420000Y-3779500D02*
X10480000Y-3779500D01*
X10450000Y-4724500D02*
X10450000Y-4784500D01*
X10420000Y-4754500D02*
X10480000Y-4754500D01*
X10794715Y-3892285D02*
X10794715Y-3952285D01*
X10764715Y-3922285D02*
X10824715Y-3922285D01*
X10794715Y-4581715D02*
X10794715Y-4641715D01*
X10764715Y-4611715D02*
X10824715Y-4611715D01*
X10937500Y-4237000D02*
X10937500Y-4297000D01*
X10907500Y-4267000D02*
X10967500Y-4267000D01*
X13101500Y-4240000D02*
X13101500Y-4300000D01*
X13071500Y-4270000D02*
X13131500Y-4270000D01*
X13244285Y-3895285D02*
X13244285Y-3955285D01*
X13214285Y-3925285D02*
X13274285Y-3925285D01*
X13244285Y-4584715D02*
X13244285Y-4644715D01*
X13214285Y-4614715D02*
X13274285Y-4614715D01*
X13589000Y-3752500D02*
X13589000Y-3812500D01*
X13559000Y-3782500D02*
X13619000Y-3782500D01*
X13589000Y-4727500D02*
X13589000Y-4787500D01*
X13559000Y-4757500D02*
X13619000Y-4757500D01*
X13933715Y-3895285D02*
X13933715Y-3955285D01*
X13903715Y-3925285D02*
X13963715Y-3925285D01*
X13933715Y-4584715D02*
X13933715Y-4644715D01*
X13903715Y-4614715D02*
X13963715Y-4614715D01*
X14076500Y-4240000D02*
X14076500Y-4300000D01*
X14046500Y-4270000D02*
X14106500Y-4270000D01*
D15*
X11953284Y-3245784D02*
X11953284Y-3189215D01*
X11896715Y-3189215D01*
X11896715Y-3245784D01*
X11953284Y-3245784D01*
X12153284Y-3245784D02*
X12153284Y-3189215D01*
X12096715Y-3189215D01*
X12096715Y-3245784D01*
X12153284Y-3245784D01*
X12353284Y-3245784D02*
X12353284Y-3189215D01*
X12296715Y-3189215D01*
X12296715Y-3245784D01*
X12353284Y-3245784D01*
X12553284Y-3245784D02*
X12553284Y-3189215D01*
X12496715Y-3189215D01*
X12496715Y-3245784D01*
X12553284Y-3245784D01*
X12753284Y-3245784D02*
X12753284Y-3189215D01*
X12696715Y-3189215D01*
X12696715Y-3245784D01*
X12753284Y-3245784D01*
X12953284Y-3245784D02*
X12953284Y-3189215D01*
X12896715Y-3189215D01*
X12896715Y-3245784D01*
X12953284Y-3245784D01*
D10*
X11175000Y-4850000D02*
X11225000Y-4800000D01*
X11175000Y-4750000D01*
X11125000Y-4800000D01*
X11175000Y-4850000D01*
X13380000Y-3220000D02*
X13430000Y-3170000D01*
X13380000Y-3120000D01*
X13330000Y-3170000D01*
X13380000Y-3220000D01*
D16*
X10125000Y-3942000D02*
X10775000Y-4592000D01*
X10775000Y-3942000D02*
X10125000Y-4592000D01*
X10775000Y-4267000D02*
G75*
G03*
X10775000Y-4267000I-325000J0D01*
G01*
X13264000Y-3945000D02*
X13914000Y-4595000D01*
X13914000Y-3945000D02*
X13264000Y-4595000D01*
X13914000Y-4270000D02*
G75*
G03*
X13914000Y-4270000I-325000J0D01*
G01*
D11*
X9904619Y-5395476D02*
X9904619Y-5195476D01*
X9952238Y-5195476D01*
X9980810Y-5205000D01*
X9999857Y-5224048D01*
X10009381Y-5243095D01*
X10018905Y-5281190D01*
X10018905Y-5309762D01*
X10009381Y-5347857D01*
X9999857Y-5366905D01*
X9980810Y-5385952D01*
X9952238Y-5395476D01*
X9904619Y-5395476D01*
X10104619Y-5395476D02*
X10104619Y-5262143D01*
X10104619Y-5300238D02*
X10114143Y-5281190D01*
X10123667Y-5271667D01*
X10142714Y-5262143D01*
X10161762Y-5262143D01*
X10228429Y-5395476D02*
X10228429Y-5262143D01*
X10228429Y-5195476D02*
X10218905Y-5205000D01*
X10228429Y-5214524D01*
X10237952Y-5205000D01*
X10228429Y-5195476D01*
X10228429Y-5214524D01*
X10352238Y-5395476D02*
X10333190Y-5385952D01*
X10323667Y-5366905D01*
X10323667Y-5195476D01*
X10457000Y-5395476D02*
X10437952Y-5385952D01*
X10428429Y-5366905D01*
X10428429Y-5195476D01*
X10685571Y-5395476D02*
X10685571Y-5195476D01*
X10752238Y-5338333D01*
X10818905Y-5195476D01*
X10818905Y-5395476D01*
X10999857Y-5395476D02*
X10999857Y-5290714D01*
X10990333Y-5271667D01*
X10971286Y-5262143D01*
X10933190Y-5262143D01*
X10914143Y-5271667D01*
X10999857Y-5385952D02*
X10980810Y-5395476D01*
X10933190Y-5395476D01*
X10914143Y-5385952D01*
X10904619Y-5366905D01*
X10904619Y-5347857D01*
X10914143Y-5328810D01*
X10933190Y-5319286D01*
X10980810Y-5319286D01*
X10999857Y-5309762D01*
X11095095Y-5262143D02*
X11095095Y-5462143D01*
X11095095Y-5271667D02*
X11114143Y-5262143D01*
X11152238Y-5262143D01*
X11171286Y-5271667D01*
X11180810Y-5281190D01*
X11190333Y-5300238D01*
X11190333Y-5357381D01*
X11180810Y-5376429D01*
X11171286Y-5385952D01*
X11152238Y-5395476D01*
X11114143Y-5395476D01*
X11095095Y-5385952D01*
X11276048Y-5376429D02*
X11285571Y-5385952D01*
X11276048Y-5395476D01*
X11266524Y-5385952D01*
X11276048Y-5376429D01*
X11276048Y-5395476D01*
X11276048Y-5271667D02*
X11285571Y-5281190D01*
X11276048Y-5290714D01*
X11266524Y-5281190D01*
X11276048Y-5271667D01*
X11276048Y-5290714D01*
D12*
X9607000Y-5705000D02*
X9647000Y-5745000D01*
X9647000Y-5705000D02*
X9607000Y-5745000D01*
D11*
X9942714Y-5615476D02*
X9961762Y-5615476D01*
X9980810Y-5625000D01*
X9990333Y-5634524D01*
X9999857Y-5653571D01*
X10009381Y-5691667D01*
X10009381Y-5739286D01*
X9999857Y-5777381D01*
X9990333Y-5796428D01*
X9980810Y-5805952D01*
X9961762Y-5815476D01*
X9942714Y-5815476D01*
X9923667Y-5805952D01*
X9914143Y-5796428D01*
X9904619Y-5777381D01*
X9895095Y-5739286D01*
X9895095Y-5691667D01*
X9904619Y-5653571D01*
X9914143Y-5634524D01*
X9923667Y-5625000D01*
X9942714Y-5615476D01*
X10095095Y-5796428D02*
X10104619Y-5805952D01*
X10095095Y-5815476D01*
X10085571Y-5805952D01*
X10095095Y-5796428D01*
X10095095Y-5815476D01*
X10276048Y-5682143D02*
X10276048Y-5815476D01*
X10228429Y-5605952D02*
X10180810Y-5748809D01*
X10304619Y-5748809D01*
X10418905Y-5615476D02*
X10437952Y-5615476D01*
X10457000Y-5625000D01*
X10466524Y-5634524D01*
X10476048Y-5653571D01*
X10485571Y-5691667D01*
X10485571Y-5739286D01*
X10476048Y-5777381D01*
X10466524Y-5796428D01*
X10457000Y-5805952D01*
X10437952Y-5815476D01*
X10418905Y-5815476D01*
X10399857Y-5805952D01*
X10390333Y-5796428D01*
X10380810Y-5777381D01*
X10371286Y-5739286D01*
X10371286Y-5691667D01*
X10380810Y-5653571D01*
X10390333Y-5634524D01*
X10399857Y-5625000D01*
X10418905Y-5615476D01*
X10609381Y-5615476D02*
X10628429Y-5615476D01*
X10647476Y-5625000D01*
X10657000Y-5634524D01*
X10666524Y-5653571D01*
X10676048Y-5691667D01*
X10676048Y-5739286D01*
X10666524Y-5777381D01*
X10657000Y-5796428D01*
X10647476Y-5805952D01*
X10628429Y-5815476D01*
X10609381Y-5815476D01*
X10590333Y-5805952D01*
X10580810Y-5796428D01*
X10571286Y-5777381D01*
X10561762Y-5739286D01*
X10561762Y-5691667D01*
X10571286Y-5653571D01*
X10580810Y-5634524D01*
X10590333Y-5625000D01*
X10609381Y-5615476D01*
X10761762Y-5815476D02*
X10761762Y-5682143D01*
X10761762Y-5701190D02*
X10771286Y-5691667D01*
X10790333Y-5682143D01*
X10818905Y-5682143D01*
X10837952Y-5691667D01*
X10847476Y-5710714D01*
X10847476Y-5815476D01*
X10847476Y-5710714D02*
X10857000Y-5691667D01*
X10876048Y-5682143D01*
X10904619Y-5682143D01*
X10923667Y-5691667D01*
X10933190Y-5710714D01*
X10933190Y-5815476D01*
X11028429Y-5815476D02*
X11028429Y-5682143D01*
X11028429Y-5701190D02*
X11037952Y-5691667D01*
X11057000Y-5682143D01*
X11085571Y-5682143D01*
X11104619Y-5691667D01*
X11114143Y-5710714D01*
X11114143Y-5815476D01*
X11114143Y-5710714D02*
X11123667Y-5691667D01*
X11142714Y-5682143D01*
X11171286Y-5682143D01*
X11190333Y-5691667D01*
X11199857Y-5710714D01*
X11199857Y-5815476D01*
X11590333Y-5605952D02*
X11418905Y-5863095D01*
X11847476Y-5615476D02*
X11866524Y-5615476D01*
X11885571Y-5625000D01*
X11895095Y-5634524D01*
X11904619Y-5653571D01*
X11914143Y-5691667D01*
X11914143Y-5739286D01*
X11904619Y-5777381D01*
X11895095Y-5796428D01*
X11885571Y-5805952D01*
X11866524Y-5815476D01*
X11847476Y-5815476D01*
X11828428Y-5805952D01*
X11818905Y-5796428D01*
X11809381Y-5777381D01*
X11799857Y-5739286D01*
X11799857Y-5691667D01*
X11809381Y-5653571D01*
X11818905Y-5634524D01*
X11828428Y-5625000D01*
X11847476Y-5615476D01*
X11999857Y-5796428D02*
X12009381Y-5805952D01*
X11999857Y-5815476D01*
X11990333Y-5805952D01*
X11999857Y-5796428D01*
X11999857Y-5815476D01*
X12133190Y-5615476D02*
X12152238Y-5615476D01*
X12171286Y-5625000D01*
X12180809Y-5634524D01*
X12190333Y-5653571D01*
X12199857Y-5691667D01*
X12199857Y-5739286D01*
X12190333Y-5777381D01*
X12180809Y-5796428D01*
X12171286Y-5805952D01*
X12152238Y-5815476D01*
X12133190Y-5815476D01*
X12114143Y-5805952D01*
X12104619Y-5796428D01*
X12095095Y-5777381D01*
X12085571Y-5739286D01*
X12085571Y-5691667D01*
X12095095Y-5653571D01*
X12104619Y-5634524D01*
X12114143Y-5625000D01*
X12133190Y-5615476D01*
X12390333Y-5815476D02*
X12276048Y-5815476D01*
X12333190Y-5815476D02*
X12333190Y-5615476D01*
X12314143Y-5644048D01*
X12295095Y-5663095D01*
X12276048Y-5672619D01*
X12571286Y-5615476D02*
X12476048Y-5615476D01*
X12466524Y-5710714D01*
X12476048Y-5701190D01*
X12495095Y-5691667D01*
X12542714Y-5691667D01*
X12561762Y-5701190D01*
X12571286Y-5710714D01*
X12580809Y-5729762D01*
X12580809Y-5777381D01*
X12571286Y-5796428D01*
X12561762Y-5805952D01*
X12542714Y-5815476D01*
X12495095Y-5815476D01*
X12476048Y-5805952D01*
X12466524Y-5796428D01*
X12647476Y-5615476D02*
X12780809Y-5615476D01*
X12695095Y-5815476D01*
X12847476Y-5615476D02*
X12847476Y-5653571D01*
X12923667Y-5615476D02*
X12923667Y-5653571D01*
X13218905Y-5891667D02*
X13209381Y-5882143D01*
X13190333Y-5853571D01*
X13180809Y-5834524D01*
X13171286Y-5805952D01*
X13161762Y-5758333D01*
X13161762Y-5720238D01*
X13171286Y-5672619D01*
X13180809Y-5644048D01*
X13190333Y-5625000D01*
X13209381Y-5596428D01*
X13218905Y-5586905D01*
X13399857Y-5815476D02*
X13285571Y-5815476D01*
X13342714Y-5815476D02*
X13342714Y-5615476D01*
X13323667Y-5644048D01*
X13304619Y-5663095D01*
X13285571Y-5672619D01*
X13476048Y-5634524D02*
X13485571Y-5625000D01*
X13504619Y-5615476D01*
X13552238Y-5615476D01*
X13571286Y-5625000D01*
X13580809Y-5634524D01*
X13590333Y-5653571D01*
X13590333Y-5672619D01*
X13580809Y-5701190D01*
X13466524Y-5815476D01*
X13590333Y-5815476D01*
X13828428Y-5815476D02*
X13828428Y-5615476D01*
X13914143Y-5815476D02*
X13914143Y-5710714D01*
X13904619Y-5691667D01*
X13885571Y-5682143D01*
X13857000Y-5682143D01*
X13837952Y-5691667D01*
X13828428Y-5701190D01*
X14037952Y-5815476D02*
X14018905Y-5805952D01*
X14009381Y-5796428D01*
X13999857Y-5777381D01*
X13999857Y-5720238D01*
X14009381Y-5701190D01*
X14018905Y-5691667D01*
X14037952Y-5682143D01*
X14066524Y-5682143D01*
X14085571Y-5691667D01*
X14095095Y-5701190D01*
X14104619Y-5720238D01*
X14104619Y-5777381D01*
X14095095Y-5796428D01*
X14085571Y-5805952D01*
X14066524Y-5815476D01*
X14037952Y-5815476D01*
X14218905Y-5815476D02*
X14199857Y-5805952D01*
X14190333Y-5786905D01*
X14190333Y-5615476D01*
X14371286Y-5805952D02*
X14352238Y-5815476D01*
X14314143Y-5815476D01*
X14295095Y-5805952D01*
X14285571Y-5786905D01*
X14285571Y-5710714D01*
X14295095Y-5691667D01*
X14314143Y-5682143D01*
X14352238Y-5682143D01*
X14371286Y-5691667D01*
X14380809Y-5710714D01*
X14380809Y-5729762D01*
X14285571Y-5748809D01*
X14457000Y-5805952D02*
X14476048Y-5815476D01*
X14514143Y-5815476D01*
X14533190Y-5805952D01*
X14542714Y-5786905D01*
X14542714Y-5777381D01*
X14533190Y-5758333D01*
X14514143Y-5748809D01*
X14485571Y-5748809D01*
X14466524Y-5739286D01*
X14457000Y-5720238D01*
X14457000Y-5710714D01*
X14466524Y-5691667D01*
X14485571Y-5682143D01*
X14514143Y-5682143D01*
X14533190Y-5691667D01*
X14609381Y-5891667D02*
X14618905Y-5882143D01*
X14637952Y-5853571D01*
X14647476Y-5834524D01*
X14657000Y-5805952D01*
X14666524Y-5758333D01*
X14666524Y-5720238D01*
X14657000Y-5672619D01*
X14647476Y-5644048D01*
X14637952Y-5625000D01*
X14618905Y-5596428D01*
X14609381Y-5586905D01*
D13*
X9647000Y-5989000D02*
G75*
G03*
X9647000Y-5989000I-25000J0D01*
G01*
D11*
X9942714Y-5879476D02*
X9961762Y-5879476D01*
X9980810Y-5889000D01*
X9990333Y-5898524D01*
X9999857Y-5917571D01*
X10009381Y-5955667D01*
X10009381Y-6003286D01*
X9999857Y-6041381D01*
X9990333Y-6060428D01*
X9980810Y-6069952D01*
X9961762Y-6079476D01*
X9942714Y-6079476D01*
X9923667Y-6069952D01*
X9914143Y-6060428D01*
X9904619Y-6041381D01*
X9895095Y-6003286D01*
X9895095Y-5955667D01*
X9904619Y-5917571D01*
X9914143Y-5898524D01*
X9923667Y-5889000D01*
X9942714Y-5879476D01*
X10095095Y-6060428D02*
X10104619Y-6069952D01*
X10095095Y-6079476D01*
X10085571Y-6069952D01*
X10095095Y-6060428D01*
X10095095Y-6079476D01*
X10285571Y-5879476D02*
X10190333Y-5879476D01*
X10180810Y-5974714D01*
X10190333Y-5965190D01*
X10209381Y-5955667D01*
X10257000Y-5955667D01*
X10276048Y-5965190D01*
X10285571Y-5974714D01*
X10295095Y-5993762D01*
X10295095Y-6041381D01*
X10285571Y-6060428D01*
X10276048Y-6069952D01*
X10257000Y-6079476D01*
X10209381Y-6079476D01*
X10190333Y-6069952D01*
X10180810Y-6060428D01*
X10418905Y-5879476D02*
X10437952Y-5879476D01*
X10457000Y-5889000D01*
X10466524Y-5898524D01*
X10476048Y-5917571D01*
X10485571Y-5955667D01*
X10485571Y-6003286D01*
X10476048Y-6041381D01*
X10466524Y-6060428D01*
X10457000Y-6069952D01*
X10437952Y-6079476D01*
X10418905Y-6079476D01*
X10399857Y-6069952D01*
X10390333Y-6060428D01*
X10380810Y-6041381D01*
X10371286Y-6003286D01*
X10371286Y-5955667D01*
X10380810Y-5917571D01*
X10390333Y-5898524D01*
X10399857Y-5889000D01*
X10418905Y-5879476D01*
X10609381Y-5879476D02*
X10628429Y-5879476D01*
X10647476Y-5889000D01*
X10657000Y-5898524D01*
X10666524Y-5917571D01*
X10676048Y-5955667D01*
X10676048Y-6003286D01*
X10666524Y-6041381D01*
X10657000Y-6060428D01*
X10647476Y-6069952D01*
X10628429Y-6079476D01*
X10609381Y-6079476D01*
X10590333Y-6069952D01*
X10580810Y-6060428D01*
X10571286Y-6041381D01*
X10561762Y-6003286D01*
X10561762Y-5955667D01*
X10571286Y-5917571D01*
X10580810Y-5898524D01*
X10590333Y-5889000D01*
X10609381Y-5879476D01*
X10761762Y-6079476D02*
X10761762Y-5946143D01*
X10761762Y-5965190D02*
X10771286Y-5955667D01*
X10790333Y-5946143D01*
X10818905Y-5946143D01*
X10837952Y-5955667D01*
X10847476Y-5974714D01*
X10847476Y-6079476D01*
X10847476Y-5974714D02*
X10857000Y-5955667D01*
X10876048Y-5946143D01*
X10904619Y-5946143D01*
X10923667Y-5955667D01*
X10933190Y-5974714D01*
X10933190Y-6079476D01*
X11028429Y-6079476D02*
X11028429Y-5946143D01*
X11028429Y-5965190D02*
X11037952Y-5955667D01*
X11057000Y-5946143D01*
X11085571Y-5946143D01*
X11104619Y-5955667D01*
X11114143Y-5974714D01*
X11114143Y-6079476D01*
X11114143Y-5974714D02*
X11123667Y-5955667D01*
X11142714Y-5946143D01*
X11171286Y-5946143D01*
X11190333Y-5955667D01*
X11199857Y-5974714D01*
X11199857Y-6079476D01*
X11590333Y-5869952D02*
X11418905Y-6127095D01*
X11847476Y-5879476D02*
X11866524Y-5879476D01*
X11885571Y-5889000D01*
X11895095Y-5898524D01*
X11904619Y-5917571D01*
X11914143Y-5955667D01*
X11914143Y-6003286D01*
X11904619Y-6041381D01*
X11895095Y-6060428D01*
X11885571Y-6069952D01*
X11866524Y-6079476D01*
X11847476Y-6079476D01*
X11828428Y-6069952D01*
X11818905Y-6060428D01*
X11809381Y-6041381D01*
X11799857Y-6003286D01*
X11799857Y-5955667D01*
X11809381Y-5917571D01*
X11818905Y-5898524D01*
X11828428Y-5889000D01*
X11847476Y-5879476D01*
X11999857Y-6060428D02*
X12009381Y-6069952D01*
X11999857Y-6079476D01*
X11990333Y-6069952D01*
X11999857Y-6060428D01*
X11999857Y-6079476D01*
X12133190Y-5879476D02*
X12152238Y-5879476D01*
X12171286Y-5889000D01*
X12180809Y-5898524D01*
X12190333Y-5917571D01*
X12199857Y-5955667D01*
X12199857Y-6003286D01*
X12190333Y-6041381D01*
X12180809Y-6060428D01*
X12171286Y-6069952D01*
X12152238Y-6079476D01*
X12133190Y-6079476D01*
X12114143Y-6069952D01*
X12104619Y-6060428D01*
X12095095Y-6041381D01*
X12085571Y-6003286D01*
X12085571Y-5955667D01*
X12095095Y-5917571D01*
X12104619Y-5898524D01*
X12114143Y-5889000D01*
X12133190Y-5879476D01*
X12390333Y-6079476D02*
X12276048Y-6079476D01*
X12333190Y-6079476D02*
X12333190Y-5879476D01*
X12314143Y-5908048D01*
X12295095Y-5927095D01*
X12276048Y-5936619D01*
X12485571Y-6079476D02*
X12523667Y-6079476D01*
X12542714Y-6069952D01*
X12552238Y-6060428D01*
X12571286Y-6031857D01*
X12580809Y-5993762D01*
X12580809Y-5917571D01*
X12571286Y-5898524D01*
X12561762Y-5889000D01*
X12542714Y-5879476D01*
X12504619Y-5879476D01*
X12485571Y-5889000D01*
X12476048Y-5898524D01*
X12466524Y-5917571D01*
X12466524Y-5965190D01*
X12476048Y-5984238D01*
X12485571Y-5993762D01*
X12504619Y-6003286D01*
X12542714Y-6003286D01*
X12561762Y-5993762D01*
X12571286Y-5984238D01*
X12580809Y-5965190D01*
X12647476Y-5879476D02*
X12780809Y-5879476D01*
X12695095Y-6079476D01*
X12847476Y-5879476D02*
X12847476Y-5917571D01*
X12923667Y-5879476D02*
X12923667Y-5917571D01*
X13218905Y-6155667D02*
X13209381Y-6146143D01*
X13190333Y-6117571D01*
X13180809Y-6098524D01*
X13171286Y-6069952D01*
X13161762Y-6022333D01*
X13161762Y-5984238D01*
X13171286Y-5936619D01*
X13180809Y-5908048D01*
X13190333Y-5889000D01*
X13209381Y-5860428D01*
X13218905Y-5850905D01*
X13399857Y-6079476D02*
X13285571Y-6079476D01*
X13342714Y-6079476D02*
X13342714Y-5879476D01*
X13323667Y-5908048D01*
X13304619Y-5927095D01*
X13285571Y-5936619D01*
X13476048Y-5898524D02*
X13485571Y-5889000D01*
X13504619Y-5879476D01*
X13552238Y-5879476D01*
X13571286Y-5889000D01*
X13580809Y-5898524D01*
X13590333Y-5917571D01*
X13590333Y-5936619D01*
X13580809Y-5965190D01*
X13466524Y-6079476D01*
X13590333Y-6079476D01*
X13828428Y-6079476D02*
X13828428Y-5879476D01*
X13914143Y-6079476D02*
X13914143Y-5974714D01*
X13904619Y-5955667D01*
X13885571Y-5946143D01*
X13857000Y-5946143D01*
X13837952Y-5955667D01*
X13828428Y-5965190D01*
X14037952Y-6079476D02*
X14018905Y-6069952D01*
X14009381Y-6060428D01*
X13999857Y-6041381D01*
X13999857Y-5984238D01*
X14009381Y-5965190D01*
X14018905Y-5955667D01*
X14037952Y-5946143D01*
X14066524Y-5946143D01*
X14085571Y-5955667D01*
X14095095Y-5965190D01*
X14104619Y-5984238D01*
X14104619Y-6041381D01*
X14095095Y-6060428D01*
X14085571Y-6069952D01*
X14066524Y-6079476D01*
X14037952Y-6079476D01*
X14218905Y-6079476D02*
X14199857Y-6069952D01*
X14190333Y-6050905D01*
X14190333Y-5879476D01*
X14371286Y-6069952D02*
X14352238Y-6079476D01*
X14314143Y-6079476D01*
X14295095Y-6069952D01*
X14285571Y-6050905D01*
X14285571Y-5974714D01*
X14295095Y-5955667D01*
X14314143Y-5946143D01*
X14352238Y-5946143D01*
X14371286Y-5955667D01*
X14380809Y-5974714D01*
X14380809Y-5993762D01*
X14285571Y-6012809D01*
X14457000Y-6069952D02*
X14476048Y-6079476D01*
X14514143Y-6079476D01*
X14533190Y-6069952D01*
X14542714Y-6050905D01*
X14542714Y-6041381D01*
X14533190Y-6022333D01*
X14514143Y-6012809D01*
X14485571Y-6012809D01*
X14466524Y-6003286D01*
X14457000Y-5984238D01*
X14457000Y-5974714D01*
X14466524Y-5955667D01*
X14485571Y-5946143D01*
X14514143Y-5946143D01*
X14533190Y-5955667D01*
X14609381Y-6155667D02*
X14618905Y-6146143D01*
X14637952Y-6117571D01*
X14647476Y-6098524D01*
X14657000Y-6069952D01*
X14666524Y-6022333D01*
X14666524Y-5984238D01*
X14657000Y-5936619D01*
X14647476Y-5908048D01*
X14637952Y-5889000D01*
X14618905Y-5860428D01*
X14609381Y-5850905D01*
D14*
X9617000Y-6223000D02*
X9617000Y-6283000D01*
X9587000Y-6253000D02*
X9647000Y-6253000D01*
D11*
X9942714Y-6143476D02*
X9961762Y-6143476D01*
X9980810Y-6153000D01*
X9990333Y-6162524D01*
X9999857Y-6181571D01*
X10009381Y-6219667D01*
X10009381Y-6267286D01*
X9999857Y-6305381D01*
X9990333Y-6324428D01*
X9980810Y-6333952D01*
X9961762Y-6343476D01*
X9942714Y-6343476D01*
X9923667Y-6333952D01*
X9914143Y-6324428D01*
X9904619Y-6305381D01*
X9895095Y-6267286D01*
X9895095Y-6219667D01*
X9904619Y-6181571D01*
X9914143Y-6162524D01*
X9923667Y-6153000D01*
X9942714Y-6143476D01*
X10095095Y-6324428D02*
X10104619Y-6333952D01*
X10095095Y-6343476D01*
X10085571Y-6333952D01*
X10095095Y-6324428D01*
X10095095Y-6343476D01*
X10276048Y-6143476D02*
X10237952Y-6143476D01*
X10218905Y-6153000D01*
X10209381Y-6162524D01*
X10190333Y-6191095D01*
X10180810Y-6229190D01*
X10180810Y-6305381D01*
X10190333Y-6324428D01*
X10199857Y-6333952D01*
X10218905Y-6343476D01*
X10257000Y-6343476D01*
X10276048Y-6333952D01*
X10285571Y-6324428D01*
X10295095Y-6305381D01*
X10295095Y-6257762D01*
X10285571Y-6238714D01*
X10276048Y-6229190D01*
X10257000Y-6219667D01*
X10218905Y-6219667D01*
X10199857Y-6229190D01*
X10190333Y-6238714D01*
X10180810Y-6257762D01*
X10418905Y-6143476D02*
X10437952Y-6143476D01*
X10457000Y-6153000D01*
X10466524Y-6162524D01*
X10476048Y-6181571D01*
X10485571Y-6219667D01*
X10485571Y-6267286D01*
X10476048Y-6305381D01*
X10466524Y-6324428D01*
X10457000Y-6333952D01*
X10437952Y-6343476D01*
X10418905Y-6343476D01*
X10399857Y-6333952D01*
X10390333Y-6324428D01*
X10380810Y-6305381D01*
X10371286Y-6267286D01*
X10371286Y-6219667D01*
X10380810Y-6181571D01*
X10390333Y-6162524D01*
X10399857Y-6153000D01*
X10418905Y-6143476D01*
X10609381Y-6143476D02*
X10628429Y-6143476D01*
X10647476Y-6153000D01*
X10657000Y-6162524D01*
X10666524Y-6181571D01*
X10676048Y-6219667D01*
X10676048Y-6267286D01*
X10666524Y-6305381D01*
X10657000Y-6324428D01*
X10647476Y-6333952D01*
X10628429Y-6343476D01*
X10609381Y-6343476D01*
X10590333Y-6333952D01*
X10580810Y-6324428D01*
X10571286Y-6305381D01*
X10561762Y-6267286D01*
X10561762Y-6219667D01*
X10571286Y-6181571D01*
X10580810Y-6162524D01*
X10590333Y-6153000D01*
X10609381Y-6143476D01*
X10761762Y-6343476D02*
X10761762Y-6210143D01*
X10761762Y-6229190D02*
X10771286Y-6219667D01*
X10790333Y-6210143D01*
X10818905Y-6210143D01*
X10837952Y-6219667D01*
X10847476Y-6238714D01*
X10847476Y-6343476D01*
X10847476Y-6238714D02*
X10857000Y-6219667D01*
X10876048Y-6210143D01*
X10904619Y-6210143D01*
X10923667Y-6219667D01*
X10933190Y-6238714D01*
X10933190Y-6343476D01*
X11028429Y-6343476D02*
X11028429Y-6210143D01*
X11028429Y-6229190D02*
X11037952Y-6219667D01*
X11057000Y-6210143D01*
X11085571Y-6210143D01*
X11104619Y-6219667D01*
X11114143Y-6238714D01*
X11114143Y-6343476D01*
X11114143Y-6238714D02*
X11123667Y-6219667D01*
X11142714Y-6210143D01*
X11171286Y-6210143D01*
X11190333Y-6219667D01*
X11199857Y-6238714D01*
X11199857Y-6343476D01*
X11590333Y-6133952D02*
X11418905Y-6391095D01*
X11847476Y-6143476D02*
X11866524Y-6143476D01*
X11885571Y-6153000D01*
X11895095Y-6162524D01*
X11904619Y-6181571D01*
X11914143Y-6219667D01*
X11914143Y-6267286D01*
X11904619Y-6305381D01*
X11895095Y-6324428D01*
X11885571Y-6333952D01*
X11866524Y-6343476D01*
X11847476Y-6343476D01*
X11828428Y-6333952D01*
X11818905Y-6324428D01*
X11809381Y-6305381D01*
X11799857Y-6267286D01*
X11799857Y-6219667D01*
X11809381Y-6181571D01*
X11818905Y-6162524D01*
X11828428Y-6153000D01*
X11847476Y-6143476D01*
X11999857Y-6324428D02*
X12009381Y-6333952D01*
X11999857Y-6343476D01*
X11990333Y-6333952D01*
X11999857Y-6324428D01*
X11999857Y-6343476D01*
X12133190Y-6143476D02*
X12152238Y-6143476D01*
X12171286Y-6153000D01*
X12180809Y-6162524D01*
X12190333Y-6181571D01*
X12199857Y-6219667D01*
X12199857Y-6267286D01*
X12190333Y-6305381D01*
X12180809Y-6324428D01*
X12171286Y-6333952D01*
X12152238Y-6343476D01*
X12133190Y-6343476D01*
X12114143Y-6333952D01*
X12104619Y-6324428D01*
X12095095Y-6305381D01*
X12085571Y-6267286D01*
X12085571Y-6219667D01*
X12095095Y-6181571D01*
X12104619Y-6162524D01*
X12114143Y-6153000D01*
X12133190Y-6143476D01*
X12276048Y-6162524D02*
X12285571Y-6153000D01*
X12304619Y-6143476D01*
X12352238Y-6143476D01*
X12371286Y-6153000D01*
X12380809Y-6162524D01*
X12390333Y-6181571D01*
X12390333Y-6200619D01*
X12380809Y-6229190D01*
X12266524Y-6343476D01*
X12390333Y-6343476D01*
X12457000Y-6143476D02*
X12580809Y-6143476D01*
X12514143Y-6219667D01*
X12542714Y-6219667D01*
X12561762Y-6229190D01*
X12571286Y-6238714D01*
X12580809Y-6257762D01*
X12580809Y-6305381D01*
X12571286Y-6324428D01*
X12561762Y-6333952D01*
X12542714Y-6343476D01*
X12485571Y-6343476D01*
X12466524Y-6333952D01*
X12457000Y-6324428D01*
X12752238Y-6143476D02*
X12714143Y-6143476D01*
X12695095Y-6153000D01*
X12685571Y-6162524D01*
X12666524Y-6191095D01*
X12657000Y-6229190D01*
X12657000Y-6305381D01*
X12666524Y-6324428D01*
X12676048Y-6333952D01*
X12695095Y-6343476D01*
X12733190Y-6343476D01*
X12752238Y-6333952D01*
X12761762Y-6324428D01*
X12771286Y-6305381D01*
X12771286Y-6257762D01*
X12761762Y-6238714D01*
X12752238Y-6229190D01*
X12733190Y-6219667D01*
X12695095Y-6219667D01*
X12676048Y-6229190D01*
X12666524Y-6238714D01*
X12657000Y-6257762D01*
X12847476Y-6143476D02*
X12847476Y-6181571D01*
X12923667Y-6143476D02*
X12923667Y-6181571D01*
X13218905Y-6419667D02*
X13209381Y-6410143D01*
X13190333Y-6381571D01*
X13180809Y-6362524D01*
X13171286Y-6333952D01*
X13161762Y-6286333D01*
X13161762Y-6248238D01*
X13171286Y-6200619D01*
X13180809Y-6172048D01*
X13190333Y-6153000D01*
X13209381Y-6124428D01*
X13218905Y-6114905D01*
X13399857Y-6343476D02*
X13285571Y-6343476D01*
X13342714Y-6343476D02*
X13342714Y-6143476D01*
X13323667Y-6172048D01*
X13304619Y-6191095D01*
X13285571Y-6200619D01*
X13571286Y-6143476D02*
X13533190Y-6143476D01*
X13514143Y-6153000D01*
X13504619Y-6162524D01*
X13485571Y-6191095D01*
X13476048Y-6229190D01*
X13476048Y-6305381D01*
X13485571Y-6324428D01*
X13495095Y-6333952D01*
X13514143Y-6343476D01*
X13552238Y-6343476D01*
X13571286Y-6333952D01*
X13580809Y-6324428D01*
X13590333Y-6305381D01*
X13590333Y-6257762D01*
X13580809Y-6238714D01*
X13571286Y-6229190D01*
X13552238Y-6219667D01*
X13514143Y-6219667D01*
X13495095Y-6229190D01*
X13485571Y-6238714D01*
X13476048Y-6257762D01*
X13828428Y-6343476D02*
X13828428Y-6143476D01*
X13914143Y-6343476D02*
X13914143Y-6238714D01*
X13904619Y-6219667D01*
X13885571Y-6210143D01*
X13857000Y-6210143D01*
X13837952Y-6219667D01*
X13828428Y-6229190D01*
X14037952Y-6343476D02*
X14018905Y-6333952D01*
X14009381Y-6324428D01*
X13999857Y-6305381D01*
X13999857Y-6248238D01*
X14009381Y-6229190D01*
X14018905Y-6219667D01*
X14037952Y-6210143D01*
X14066524Y-6210143D01*
X14085571Y-6219667D01*
X14095095Y-6229190D01*
X14104619Y-6248238D01*
X14104619Y-6305381D01*
X14095095Y-6324428D01*
X14085571Y-6333952D01*
X14066524Y-6343476D01*
X14037952Y-6343476D01*
X14218905Y-6343476D02*
X14199857Y-6333952D01*
X14190333Y-6314905D01*
X14190333Y-6143476D01*
X14371286Y-6333952D02*
X14352238Y-6343476D01*
X14314143Y-6343476D01*
X14295095Y-6333952D01*
X14285571Y-6314905D01*
X14285571Y-6238714D01*
X14295095Y-6219667D01*
X14314143Y-6210143D01*
X14352238Y-6210143D01*
X14371286Y-6219667D01*
X14380809Y-6238714D01*
X14380809Y-6257762D01*
X14285571Y-6276809D01*
X14457000Y-6333952D02*
X14476048Y-6343476D01*
X14514143Y-6343476D01*
X14533190Y-6333952D01*
X14542714Y-6314905D01*
X14542714Y-6305381D01*
X14533190Y-6286333D01*
X14514143Y-6276809D01*
X14485571Y-6276809D01*
X14466524Y-6267286D01*
X14457000Y-6248238D01*
X14457000Y-6238714D01*
X14466524Y-6219667D01*
X14485571Y-6210143D01*
X14514143Y-6210143D01*
X14533190Y-6219667D01*
X14609381Y-6419667D02*
X14618905Y-6410143D01*
X14637952Y-6381571D01*
X14647476Y-6362524D01*
X14657000Y-6333952D01*
X14666524Y-6286333D01*
X14666524Y-6248238D01*
X14657000Y-6200619D01*
X14647476Y-6172048D01*
X14637952Y-6153000D01*
X14618905Y-6124428D01*
X14609381Y-6114905D01*
D15*
X9635285Y-6545284D02*
X9635285Y-6488715D01*
X9578716Y-6488715D01*
X9578716Y-6545284D01*
X9635285Y-6545284D01*
D11*
X9942714Y-6407476D02*
X9961762Y-6407476D01*
X9980810Y-6417000D01*
X9990333Y-6426524D01*
X9999857Y-6445571D01*
X10009381Y-6483667D01*
X10009381Y-6531286D01*
X9999857Y-6569381D01*
X9990333Y-6588428D01*
X9980810Y-6597952D01*
X9961762Y-6607476D01*
X9942714Y-6607476D01*
X9923667Y-6597952D01*
X9914143Y-6588428D01*
X9904619Y-6569381D01*
X9895095Y-6531286D01*
X9895095Y-6483667D01*
X9904619Y-6445571D01*
X9914143Y-6426524D01*
X9923667Y-6417000D01*
X9942714Y-6407476D01*
X10095095Y-6588428D02*
X10104619Y-6597952D01*
X10095095Y-6607476D01*
X10085571Y-6597952D01*
X10095095Y-6588428D01*
X10095095Y-6607476D01*
X10218905Y-6493190D02*
X10199857Y-6483667D01*
X10190333Y-6474143D01*
X10180810Y-6455095D01*
X10180810Y-6445571D01*
X10190333Y-6426524D01*
X10199857Y-6417000D01*
X10218905Y-6407476D01*
X10257000Y-6407476D01*
X10276048Y-6417000D01*
X10285571Y-6426524D01*
X10295095Y-6445571D01*
X10295095Y-6455095D01*
X10285571Y-6474143D01*
X10276048Y-6483667D01*
X10257000Y-6493190D01*
X10218905Y-6493190D01*
X10199857Y-6502714D01*
X10190333Y-6512238D01*
X10180810Y-6531286D01*
X10180810Y-6569381D01*
X10190333Y-6588428D01*
X10199857Y-6597952D01*
X10218905Y-6607476D01*
X10257000Y-6607476D01*
X10276048Y-6597952D01*
X10285571Y-6588428D01*
X10295095Y-6569381D01*
X10295095Y-6531286D01*
X10285571Y-6512238D01*
X10276048Y-6502714D01*
X10257000Y-6493190D01*
X10418905Y-6407476D02*
X10437952Y-6407476D01*
X10457000Y-6417000D01*
X10466524Y-6426524D01*
X10476048Y-6445571D01*
X10485571Y-6483667D01*
X10485571Y-6531286D01*
X10476048Y-6569381D01*
X10466524Y-6588428D01*
X10457000Y-6597952D01*
X10437952Y-6607476D01*
X10418905Y-6607476D01*
X10399857Y-6597952D01*
X10390333Y-6588428D01*
X10380810Y-6569381D01*
X10371286Y-6531286D01*
X10371286Y-6483667D01*
X10380810Y-6445571D01*
X10390333Y-6426524D01*
X10399857Y-6417000D01*
X10418905Y-6407476D01*
X10609381Y-6407476D02*
X10628429Y-6407476D01*
X10647476Y-6417000D01*
X10657000Y-6426524D01*
X10666524Y-6445571D01*
X10676048Y-6483667D01*
X10676048Y-6531286D01*
X10666524Y-6569381D01*
X10657000Y-6588428D01*
X10647476Y-6597952D01*
X10628429Y-6607476D01*
X10609381Y-6607476D01*
X10590333Y-6597952D01*
X10580810Y-6588428D01*
X10571286Y-6569381D01*
X10561762Y-6531286D01*
X10561762Y-6483667D01*
X10571286Y-6445571D01*
X10580810Y-6426524D01*
X10590333Y-6417000D01*
X10609381Y-6407476D01*
X10761762Y-6607476D02*
X10761762Y-6474143D01*
X10761762Y-6493190D02*
X10771286Y-6483667D01*
X10790333Y-6474143D01*
X10818905Y-6474143D01*
X10837952Y-6483667D01*
X10847476Y-6502714D01*
X10847476Y-6607476D01*
X10847476Y-6502714D02*
X10857000Y-6483667D01*
X10876048Y-6474143D01*
X10904619Y-6474143D01*
X10923667Y-6483667D01*
X10933190Y-6502714D01*
X10933190Y-6607476D01*
X11028429Y-6607476D02*
X11028429Y-6474143D01*
X11028429Y-6493190D02*
X11037952Y-6483667D01*
X11057000Y-6474143D01*
X11085571Y-6474143D01*
X11104619Y-6483667D01*
X11114143Y-6502714D01*
X11114143Y-6607476D01*
X11114143Y-6502714D02*
X11123667Y-6483667D01*
X11142714Y-6474143D01*
X11171286Y-6474143D01*
X11190333Y-6483667D01*
X11199857Y-6502714D01*
X11199857Y-6607476D01*
X11590333Y-6397952D02*
X11418905Y-6655095D01*
X11847476Y-6407476D02*
X11866524Y-6407476D01*
X11885571Y-6417000D01*
X11895095Y-6426524D01*
X11904619Y-6445571D01*
X11914143Y-6483667D01*
X11914143Y-6531286D01*
X11904619Y-6569381D01*
X11895095Y-6588428D01*
X11885571Y-6597952D01*
X11866524Y-6607476D01*
X11847476Y-6607476D01*
X11828428Y-6597952D01*
X11818905Y-6588428D01*
X11809381Y-6569381D01*
X11799857Y-6531286D01*
X11799857Y-6483667D01*
X11809381Y-6445571D01*
X11818905Y-6426524D01*
X11828428Y-6417000D01*
X11847476Y-6407476D01*
X11999857Y-6588428D02*
X12009381Y-6597952D01*
X11999857Y-6607476D01*
X11990333Y-6597952D01*
X11999857Y-6588428D01*
X11999857Y-6607476D01*
X12133190Y-6407476D02*
X12152238Y-6407476D01*
X12171286Y-6417000D01*
X12180809Y-6426524D01*
X12190333Y-6445571D01*
X12199857Y-6483667D01*
X12199857Y-6531286D01*
X12190333Y-6569381D01*
X12180809Y-6588428D01*
X12171286Y-6597952D01*
X12152238Y-6607476D01*
X12133190Y-6607476D01*
X12114143Y-6597952D01*
X12104619Y-6588428D01*
X12095095Y-6569381D01*
X12085571Y-6531286D01*
X12085571Y-6483667D01*
X12095095Y-6445571D01*
X12104619Y-6426524D01*
X12114143Y-6417000D01*
X12133190Y-6407476D01*
X12266524Y-6407476D02*
X12390333Y-6407476D01*
X12323667Y-6483667D01*
X12352238Y-6483667D01*
X12371286Y-6493190D01*
X12380809Y-6502714D01*
X12390333Y-6521762D01*
X12390333Y-6569381D01*
X12380809Y-6588428D01*
X12371286Y-6597952D01*
X12352238Y-6607476D01*
X12295095Y-6607476D01*
X12276048Y-6597952D01*
X12266524Y-6588428D01*
X12580809Y-6607476D02*
X12466524Y-6607476D01*
X12523667Y-6607476D02*
X12523667Y-6407476D01*
X12504619Y-6436048D01*
X12485571Y-6455095D01*
X12466524Y-6464619D01*
X12761762Y-6407476D02*
X12666524Y-6407476D01*
X12657000Y-6502714D01*
X12666524Y-6493190D01*
X12685571Y-6483667D01*
X12733190Y-6483667D01*
X12752238Y-6493190D01*
X12761762Y-6502714D01*
X12771286Y-6521762D01*
X12771286Y-6569381D01*
X12761762Y-6588428D01*
X12752238Y-6597952D01*
X12733190Y-6607476D01*
X12685571Y-6607476D01*
X12666524Y-6597952D01*
X12657000Y-6588428D01*
X12847476Y-6407476D02*
X12847476Y-6445571D01*
X12923667Y-6407476D02*
X12923667Y-6445571D01*
X13218905Y-6683667D02*
X13209381Y-6674143D01*
X13190333Y-6645571D01*
X13180809Y-6626524D01*
X13171286Y-6597952D01*
X13161762Y-6550333D01*
X13161762Y-6512238D01*
X13171286Y-6464619D01*
X13180809Y-6436048D01*
X13190333Y-6417000D01*
X13209381Y-6388428D01*
X13218905Y-6378905D01*
X13380809Y-6407476D02*
X13342714Y-6407476D01*
X13323667Y-6417000D01*
X13314143Y-6426524D01*
X13295095Y-6455095D01*
X13285571Y-6493190D01*
X13285571Y-6569381D01*
X13295095Y-6588428D01*
X13304619Y-6597952D01*
X13323667Y-6607476D01*
X13361762Y-6607476D01*
X13380809Y-6597952D01*
X13390333Y-6588428D01*
X13399857Y-6569381D01*
X13399857Y-6521762D01*
X13390333Y-6502714D01*
X13380809Y-6493190D01*
X13361762Y-6483667D01*
X13323667Y-6483667D01*
X13304619Y-6493190D01*
X13295095Y-6502714D01*
X13285571Y-6521762D01*
X13637952Y-6607476D02*
X13637952Y-6407476D01*
X13723667Y-6607476D02*
X13723667Y-6502714D01*
X13714143Y-6483667D01*
X13695095Y-6474143D01*
X13666524Y-6474143D01*
X13647476Y-6483667D01*
X13637952Y-6493190D01*
X13847476Y-6607476D02*
X13828428Y-6597952D01*
X13818905Y-6588428D01*
X13809381Y-6569381D01*
X13809381Y-6512238D01*
X13818905Y-6493190D01*
X13828428Y-6483667D01*
X13847476Y-6474143D01*
X13876048Y-6474143D01*
X13895095Y-6483667D01*
X13904619Y-6493190D01*
X13914143Y-6512238D01*
X13914143Y-6569381D01*
X13904619Y-6588428D01*
X13895095Y-6597952D01*
X13876048Y-6607476D01*
X13847476Y-6607476D01*
X14028428Y-6607476D02*
X14009381Y-6597952D01*
X13999857Y-6578905D01*
X13999857Y-6407476D01*
X14180809Y-6597952D02*
X14161762Y-6607476D01*
X14123667Y-6607476D01*
X14104619Y-6597952D01*
X14095095Y-6578905D01*
X14095095Y-6502714D01*
X14104619Y-6483667D01*
X14123667Y-6474143D01*
X14161762Y-6474143D01*
X14180809Y-6483667D01*
X14190333Y-6502714D01*
X14190333Y-6521762D01*
X14095095Y-6540809D01*
X14266524Y-6597952D02*
X14285571Y-6607476D01*
X14323667Y-6607476D01*
X14342714Y-6597952D01*
X14352238Y-6578905D01*
X14352238Y-6569381D01*
X14342714Y-6550333D01*
X14323667Y-6540809D01*
X14295095Y-6540809D01*
X14276048Y-6531286D01*
X14266524Y-6512238D01*
X14266524Y-6502714D01*
X14276048Y-6483667D01*
X14295095Y-6474143D01*
X14323667Y-6474143D01*
X14342714Y-6483667D01*
X14418905Y-6683667D02*
X14428428Y-6674143D01*
X14447476Y-6645571D01*
X14457000Y-6626524D01*
X14466524Y-6597952D01*
X14476048Y-6550333D01*
X14476048Y-6512238D01*
X14466524Y-6464619D01*
X14457000Y-6436048D01*
X14447476Y-6417000D01*
X14428428Y-6388428D01*
X14418905Y-6378905D01*
D10*
X9597000Y-6831000D02*
X9647000Y-6781000D01*
X9597000Y-6731000D01*
X9547000Y-6781000D01*
X9597000Y-6831000D01*
D11*
X10009381Y-6871476D02*
X9895095Y-6871476D01*
X9952238Y-6871476D02*
X9952238Y-6671476D01*
X9933190Y-6700048D01*
X9914143Y-6719095D01*
X9895095Y-6728619D01*
X10095095Y-6852428D02*
X10104619Y-6861952D01*
X10095095Y-6871476D01*
X10085571Y-6861952D01*
X10095095Y-6852428D01*
X10095095Y-6871476D01*
X10228429Y-6671476D02*
X10247476Y-6671476D01*
X10266524Y-6681000D01*
X10276048Y-6690524D01*
X10285571Y-6709571D01*
X10295095Y-6747667D01*
X10295095Y-6795286D01*
X10285571Y-6833381D01*
X10276048Y-6852428D01*
X10266524Y-6861952D01*
X10247476Y-6871476D01*
X10228429Y-6871476D01*
X10209381Y-6861952D01*
X10199857Y-6852428D01*
X10190333Y-6833381D01*
X10180810Y-6795286D01*
X10180810Y-6747667D01*
X10190333Y-6709571D01*
X10199857Y-6690524D01*
X10209381Y-6681000D01*
X10228429Y-6671476D01*
X10418905Y-6671476D02*
X10437952Y-6671476D01*
X10457000Y-6681000D01*
X10466524Y-6690524D01*
X10476048Y-6709571D01*
X10485571Y-6747667D01*
X10485571Y-6795286D01*
X10476048Y-6833381D01*
X10466524Y-6852428D01*
X10457000Y-6861952D01*
X10437952Y-6871476D01*
X10418905Y-6871476D01*
X10399857Y-6861952D01*
X10390333Y-6852428D01*
X10380810Y-6833381D01*
X10371286Y-6795286D01*
X10371286Y-6747667D01*
X10380810Y-6709571D01*
X10390333Y-6690524D01*
X10399857Y-6681000D01*
X10418905Y-6671476D01*
X10609381Y-6671476D02*
X10628429Y-6671476D01*
X10647476Y-6681000D01*
X10657000Y-6690524D01*
X10666524Y-6709571D01*
X10676048Y-6747667D01*
X10676048Y-6795286D01*
X10666524Y-6833381D01*
X10657000Y-6852428D01*
X10647476Y-6861952D01*
X10628429Y-6871476D01*
X10609381Y-6871476D01*
X10590333Y-6861952D01*
X10580810Y-6852428D01*
X10571286Y-6833381D01*
X10561762Y-6795286D01*
X10561762Y-6747667D01*
X10571286Y-6709571D01*
X10580810Y-6690524D01*
X10590333Y-6681000D01*
X10609381Y-6671476D01*
X10761762Y-6871476D02*
X10761762Y-6738143D01*
X10761762Y-6757190D02*
X10771286Y-6747667D01*
X10790333Y-6738143D01*
X10818905Y-6738143D01*
X10837952Y-6747667D01*
X10847476Y-6766714D01*
X10847476Y-6871476D01*
X10847476Y-6766714D02*
X10857000Y-6747667D01*
X10876048Y-6738143D01*
X10904619Y-6738143D01*
X10923667Y-6747667D01*
X10933190Y-6766714D01*
X10933190Y-6871476D01*
X11028429Y-6871476D02*
X11028429Y-6738143D01*
X11028429Y-6757190D02*
X11037952Y-6747667D01*
X11057000Y-6738143D01*
X11085571Y-6738143D01*
X11104619Y-6747667D01*
X11114143Y-6766714D01*
X11114143Y-6871476D01*
X11114143Y-6766714D02*
X11123667Y-6747667D01*
X11142714Y-6738143D01*
X11171286Y-6738143D01*
X11190333Y-6747667D01*
X11199857Y-6766714D01*
X11199857Y-6871476D01*
X11590333Y-6661952D02*
X11418905Y-6919095D01*
X11847476Y-6671476D02*
X11866524Y-6671476D01*
X11885571Y-6681000D01*
X11895095Y-6690524D01*
X11904619Y-6709571D01*
X11914143Y-6747667D01*
X11914143Y-6795286D01*
X11904619Y-6833381D01*
X11895095Y-6852428D01*
X11885571Y-6861952D01*
X11866524Y-6871476D01*
X11847476Y-6871476D01*
X11828428Y-6861952D01*
X11818905Y-6852428D01*
X11809381Y-6833381D01*
X11799857Y-6795286D01*
X11799857Y-6747667D01*
X11809381Y-6709571D01*
X11818905Y-6690524D01*
X11828428Y-6681000D01*
X11847476Y-6671476D01*
X11999857Y-6852428D02*
X12009381Y-6861952D01*
X11999857Y-6871476D01*
X11990333Y-6861952D01*
X11999857Y-6852428D01*
X11999857Y-6871476D01*
X12133190Y-6671476D02*
X12152238Y-6671476D01*
X12171286Y-6681000D01*
X12180809Y-6690524D01*
X12190333Y-6709571D01*
X12199857Y-6747667D01*
X12199857Y-6795286D01*
X12190333Y-6833381D01*
X12180809Y-6852428D01*
X12171286Y-6861952D01*
X12152238Y-6871476D01*
X12133190Y-6871476D01*
X12114143Y-6861952D01*
X12104619Y-6852428D01*
X12095095Y-6833381D01*
X12085571Y-6795286D01*
X12085571Y-6747667D01*
X12095095Y-6709571D01*
X12104619Y-6690524D01*
X12114143Y-6681000D01*
X12133190Y-6671476D01*
X12266524Y-6671476D02*
X12390333Y-6671476D01*
X12323667Y-6747667D01*
X12352238Y-6747667D01*
X12371286Y-6757190D01*
X12380809Y-6766714D01*
X12390333Y-6785762D01*
X12390333Y-6833381D01*
X12380809Y-6852428D01*
X12371286Y-6861952D01*
X12352238Y-6871476D01*
X12295095Y-6871476D01*
X12276048Y-6861952D01*
X12266524Y-6852428D01*
X12485571Y-6871476D02*
X12523667Y-6871476D01*
X12542714Y-6861952D01*
X12552238Y-6852428D01*
X12571286Y-6823857D01*
X12580809Y-6785762D01*
X12580809Y-6709571D01*
X12571286Y-6690524D01*
X12561762Y-6681000D01*
X12542714Y-6671476D01*
X12504619Y-6671476D01*
X12485571Y-6681000D01*
X12476048Y-6690524D01*
X12466524Y-6709571D01*
X12466524Y-6757190D01*
X12476048Y-6776238D01*
X12485571Y-6785762D01*
X12504619Y-6795286D01*
X12542714Y-6795286D01*
X12561762Y-6785762D01*
X12571286Y-6776238D01*
X12580809Y-6757190D01*
X12752238Y-6738143D02*
X12752238Y-6871476D01*
X12704619Y-6661952D02*
X12657000Y-6804809D01*
X12780809Y-6804809D01*
X12847476Y-6671476D02*
X12847476Y-6709571D01*
X12923667Y-6671476D02*
X12923667Y-6709571D01*
X13218905Y-6947667D02*
X13209381Y-6938143D01*
X13190333Y-6909571D01*
X13180809Y-6890524D01*
X13171286Y-6861952D01*
X13161762Y-6814333D01*
X13161762Y-6776238D01*
X13171286Y-6728619D01*
X13180809Y-6700048D01*
X13190333Y-6681000D01*
X13209381Y-6652428D01*
X13218905Y-6642905D01*
X13285571Y-6690524D02*
X13295095Y-6681000D01*
X13314143Y-6671476D01*
X13361762Y-6671476D01*
X13380809Y-6681000D01*
X13390333Y-6690524D01*
X13399857Y-6709571D01*
X13399857Y-6728619D01*
X13390333Y-6757190D01*
X13276048Y-6871476D01*
X13399857Y-6871476D01*
X13637952Y-6871476D02*
X13637952Y-6671476D01*
X13723667Y-6871476D02*
X13723667Y-6766714D01*
X13714143Y-6747667D01*
X13695095Y-6738143D01*
X13666524Y-6738143D01*
X13647476Y-6747667D01*
X13637952Y-6757190D01*
X13847476Y-6871476D02*
X13828428Y-6861952D01*
X13818905Y-6852428D01*
X13809381Y-6833381D01*
X13809381Y-6776238D01*
X13818905Y-6757190D01*
X13828428Y-6747667D01*
X13847476Y-6738143D01*
X13876048Y-6738143D01*
X13895095Y-6747667D01*
X13904619Y-6757190D01*
X13914143Y-6776238D01*
X13914143Y-6833381D01*
X13904619Y-6852428D01*
X13895095Y-6861952D01*
X13876048Y-6871476D01*
X13847476Y-6871476D01*
X14028428Y-6871476D02*
X14009381Y-6861952D01*
X13999857Y-6842905D01*
X13999857Y-6671476D01*
X14180809Y-6861952D02*
X14161762Y-6871476D01*
X14123667Y-6871476D01*
X14104619Y-6861952D01*
X14095095Y-6842905D01*
X14095095Y-6766714D01*
X14104619Y-6747667D01*
X14123667Y-6738143D01*
X14161762Y-6738143D01*
X14180809Y-6747667D01*
X14190333Y-6766714D01*
X14190333Y-6785762D01*
X14095095Y-6804809D01*
X14266524Y-6861952D02*
X14285571Y-6871476D01*
X14323667Y-6871476D01*
X14342714Y-6861952D01*
X14352238Y-6842905D01*
X14352238Y-6833381D01*
X14342714Y-6814333D01*
X14323667Y-6804809D01*
X14295095Y-6804809D01*
X14276048Y-6795286D01*
X14266524Y-6776238D01*
X14266524Y-6766714D01*
X14276048Y-6747667D01*
X14295095Y-6738143D01*
X14323667Y-6738143D01*
X14342714Y-6747667D01*
X14418905Y-6947667D02*
X14428428Y-6938143D01*
X14447476Y-6909571D01*
X14457000Y-6890524D01*
X14466524Y-6861952D01*
X14476048Y-6814333D01*
X14476048Y-6776238D01*
X14466524Y-6728619D01*
X14457000Y-6700048D01*
X14447476Y-6681000D01*
X14428428Y-6652428D01*
X14418905Y-6642905D01*
X9447000Y-6945000D02*
X9647000Y-7145000D01*
X9647000Y-6945000D02*
X9447000Y-7145000D01*
X9647000Y-7045000D02*
G75*
G03*
X9647000Y-7045000I-100000J0D01*
G01*
X9990333Y-6935476D02*
X9952238Y-6935476D01*
X9933190Y-6945000D01*
X9923667Y-6954524D01*
X9904619Y-6983095D01*
X9895095Y-7021190D01*
X9895095Y-7097381D01*
X9904619Y-7116428D01*
X9914143Y-7125952D01*
X9933190Y-7135476D01*
X9971286Y-7135476D01*
X9990333Y-7125952D01*
X9999857Y-7116428D01*
X10009381Y-7097381D01*
X10009381Y-7049762D01*
X9999857Y-7030714D01*
X9990333Y-7021190D01*
X9971286Y-7011667D01*
X9933190Y-7011667D01*
X9914143Y-7021190D01*
X9904619Y-7030714D01*
X9895095Y-7049762D01*
X10095095Y-7116428D02*
X10104619Y-7125952D01*
X10095095Y-7135476D01*
X10085571Y-7125952D01*
X10095095Y-7116428D01*
X10095095Y-7135476D01*
X10285571Y-6935476D02*
X10190333Y-6935476D01*
X10180810Y-7030714D01*
X10190333Y-7021190D01*
X10209381Y-7011667D01*
X10257000Y-7011667D01*
X10276048Y-7021190D01*
X10285571Y-7030714D01*
X10295095Y-7049762D01*
X10295095Y-7097381D01*
X10285571Y-7116428D01*
X10276048Y-7125952D01*
X10257000Y-7135476D01*
X10209381Y-7135476D01*
X10190333Y-7125952D01*
X10180810Y-7116428D01*
X10418905Y-6935476D02*
X10437952Y-6935476D01*
X10457000Y-6945000D01*
X10466524Y-6954524D01*
X10476048Y-6973571D01*
X10485571Y-7011667D01*
X10485571Y-7059286D01*
X10476048Y-7097381D01*
X10466524Y-7116428D01*
X10457000Y-7125952D01*
X10437952Y-7135476D01*
X10418905Y-7135476D01*
X10399857Y-7125952D01*
X10390333Y-7116428D01*
X10380810Y-7097381D01*
X10371286Y-7059286D01*
X10371286Y-7011667D01*
X10380810Y-6973571D01*
X10390333Y-6954524D01*
X10399857Y-6945000D01*
X10418905Y-6935476D01*
X10609381Y-6935476D02*
X10628429Y-6935476D01*
X10647476Y-6945000D01*
X10657000Y-6954524D01*
X10666524Y-6973571D01*
X10676048Y-7011667D01*
X10676048Y-7059286D01*
X10666524Y-7097381D01*
X10657000Y-7116428D01*
X10647476Y-7125952D01*
X10628429Y-7135476D01*
X10609381Y-7135476D01*
X10590333Y-7125952D01*
X10580810Y-7116428D01*
X10571286Y-7097381D01*
X10561762Y-7059286D01*
X10561762Y-7011667D01*
X10571286Y-6973571D01*
X10580810Y-6954524D01*
X10590333Y-6945000D01*
X10609381Y-6935476D01*
X10761762Y-7135476D02*
X10761762Y-7002143D01*
X10761762Y-7021190D02*
X10771286Y-7011667D01*
X10790333Y-7002143D01*
X10818905Y-7002143D01*
X10837952Y-7011667D01*
X10847476Y-7030714D01*
X10847476Y-7135476D01*
X10847476Y-7030714D02*
X10857000Y-7011667D01*
X10876048Y-7002143D01*
X10904619Y-7002143D01*
X10923667Y-7011667D01*
X10933190Y-7030714D01*
X10933190Y-7135476D01*
X11028429Y-7135476D02*
X11028429Y-7002143D01*
X11028429Y-7021190D02*
X11037952Y-7011667D01*
X11057000Y-7002143D01*
X11085571Y-7002143D01*
X11104619Y-7011667D01*
X11114143Y-7030714D01*
X11114143Y-7135476D01*
X11114143Y-7030714D02*
X11123667Y-7011667D01*
X11142714Y-7002143D01*
X11171286Y-7002143D01*
X11190333Y-7011667D01*
X11199857Y-7030714D01*
X11199857Y-7135476D01*
X11590333Y-6925952D02*
X11418905Y-7183095D01*
X11847476Y-6935476D02*
X11866524Y-6935476D01*
X11885571Y-6945000D01*
X11895095Y-6954524D01*
X11904619Y-6973571D01*
X11914143Y-7011667D01*
X11914143Y-7059286D01*
X11904619Y-7097381D01*
X11895095Y-7116428D01*
X11885571Y-7125952D01*
X11866524Y-7135476D01*
X11847476Y-7135476D01*
X11828428Y-7125952D01*
X11818905Y-7116428D01*
X11809381Y-7097381D01*
X11799857Y-7059286D01*
X11799857Y-7011667D01*
X11809381Y-6973571D01*
X11818905Y-6954524D01*
X11828428Y-6945000D01*
X11847476Y-6935476D01*
X11999857Y-7116428D02*
X12009381Y-7125952D01*
X11999857Y-7135476D01*
X11990333Y-7125952D01*
X11999857Y-7116428D01*
X11999857Y-7135476D01*
X12085571Y-6954524D02*
X12095095Y-6945000D01*
X12114143Y-6935476D01*
X12161762Y-6935476D01*
X12180809Y-6945000D01*
X12190333Y-6954524D01*
X12199857Y-6973571D01*
X12199857Y-6992619D01*
X12190333Y-7021190D01*
X12076048Y-7135476D01*
X12199857Y-7135476D01*
X12380809Y-6935476D02*
X12285571Y-6935476D01*
X12276048Y-7030714D01*
X12285571Y-7021190D01*
X12304619Y-7011667D01*
X12352238Y-7011667D01*
X12371286Y-7021190D01*
X12380809Y-7030714D01*
X12390333Y-7049762D01*
X12390333Y-7097381D01*
X12380809Y-7116428D01*
X12371286Y-7125952D01*
X12352238Y-7135476D01*
X12304619Y-7135476D01*
X12285571Y-7125952D01*
X12276048Y-7116428D01*
X12571286Y-6935476D02*
X12476048Y-6935476D01*
X12466524Y-7030714D01*
X12476048Y-7021190D01*
X12495095Y-7011667D01*
X12542714Y-7011667D01*
X12561762Y-7021190D01*
X12571286Y-7030714D01*
X12580809Y-7049762D01*
X12580809Y-7097381D01*
X12571286Y-7116428D01*
X12561762Y-7125952D01*
X12542714Y-7135476D01*
X12495095Y-7135476D01*
X12476048Y-7125952D01*
X12466524Y-7116428D01*
X12676048Y-7135476D02*
X12714143Y-7135476D01*
X12733190Y-7125952D01*
X12742714Y-7116428D01*
X12761762Y-7087857D01*
X12771286Y-7049762D01*
X12771286Y-6973571D01*
X12761762Y-6954524D01*
X12752238Y-6945000D01*
X12733190Y-6935476D01*
X12695095Y-6935476D01*
X12676048Y-6945000D01*
X12666524Y-6954524D01*
X12657000Y-6973571D01*
X12657000Y-7021190D01*
X12666524Y-7040238D01*
X12676048Y-7049762D01*
X12695095Y-7059286D01*
X12733190Y-7059286D01*
X12752238Y-7049762D01*
X12761762Y-7040238D01*
X12771286Y-7021190D01*
X12847476Y-6935476D02*
X12847476Y-6973571D01*
X12923667Y-6935476D02*
X12923667Y-6973571D01*
X13218905Y-7211667D02*
X13209381Y-7202143D01*
X13190333Y-7173571D01*
X13180809Y-7154524D01*
X13171286Y-7125952D01*
X13161762Y-7078333D01*
X13161762Y-7040238D01*
X13171286Y-6992619D01*
X13180809Y-6964048D01*
X13190333Y-6945000D01*
X13209381Y-6916428D01*
X13218905Y-6906905D01*
X13285571Y-6954524D02*
X13295095Y-6945000D01*
X13314143Y-6935476D01*
X13361762Y-6935476D01*
X13380809Y-6945000D01*
X13390333Y-6954524D01*
X13399857Y-6973571D01*
X13399857Y-6992619D01*
X13390333Y-7021190D01*
X13276048Y-7135476D01*
X13399857Y-7135476D01*
X13637952Y-7135476D02*
X13637952Y-6935476D01*
X13723667Y-7135476D02*
X13723667Y-7030714D01*
X13714143Y-7011667D01*
X13695095Y-7002143D01*
X13666524Y-7002143D01*
X13647476Y-7011667D01*
X13637952Y-7021190D01*
X13847476Y-7135476D02*
X13828428Y-7125952D01*
X13818905Y-7116428D01*
X13809381Y-7097381D01*
X13809381Y-7040238D01*
X13818905Y-7021190D01*
X13828428Y-7011667D01*
X13847476Y-7002143D01*
X13876048Y-7002143D01*
X13895095Y-7011667D01*
X13904619Y-7021190D01*
X13914143Y-7040238D01*
X13914143Y-7097381D01*
X13904619Y-7116428D01*
X13895095Y-7125952D01*
X13876048Y-7135476D01*
X13847476Y-7135476D01*
X14028428Y-7135476D02*
X14009381Y-7125952D01*
X13999857Y-7106905D01*
X13999857Y-6935476D01*
X14180809Y-7125952D02*
X14161762Y-7135476D01*
X14123667Y-7135476D01*
X14104619Y-7125952D01*
X14095095Y-7106905D01*
X14095095Y-7030714D01*
X14104619Y-7011667D01*
X14123667Y-7002143D01*
X14161762Y-7002143D01*
X14180809Y-7011667D01*
X14190333Y-7030714D01*
X14190333Y-7049762D01*
X14095095Y-7068809D01*
X14266524Y-7125952D02*
X14285571Y-7135476D01*
X14323667Y-7135476D01*
X14342714Y-7125952D01*
X14352238Y-7106905D01*
X14352238Y-7097381D01*
X14342714Y-7078333D01*
X14323667Y-7068809D01*
X14295095Y-7068809D01*
X14276048Y-7059286D01*
X14266524Y-7040238D01*
X14266524Y-7030714D01*
X14276048Y-7011667D01*
X14295095Y-7002143D01*
X14323667Y-7002143D01*
X14342714Y-7011667D01*
X14418905Y-7211667D02*
X14428428Y-7202143D01*
X14447476Y-7173571D01*
X14457000Y-7154524D01*
X14466524Y-7125952D01*
X14476048Y-7078333D01*
X14476048Y-7040238D01*
X14466524Y-6992619D01*
X14457000Y-6964048D01*
X14447476Y-6945000D01*
X14428428Y-6916428D01*
X14418905Y-6906905D01*
M02*
