M48
; DRILL file {KiCad (6.0.8)} date Wed Nov  1 20:00:19 2023
; FORMAT={-:-/ absolute / inch / decimal}
; #@! TF.CreationDate,2023-11-01T20:00:19+01:00
; #@! TF.GenerationSoftware,Kicad,Pcbnew,(6.0.8)
; #@! TF.FileFunction,Plated,1,2,PTH
FMAT,2
INCH
; #@! TA.AperFunction,Plated,PTH,ViaDrill
T1C0.0157
; #@! TA.AperFunction,Plated,PTH,ViaDrill
T2C0.0197
; #@! TA.AperFunction,Plated,PTH,ComponentDrill
T3C0.0236
; #@! TA.AperFunction,Plated,PTH,ComponentDrill
T4C0.0315
; #@! TA.AperFunction,Plated,PTH,ComponentDrill
T5C0.0394
; #@! TA.AperFunction,Plated,PTH,ComponentDrill
T6C0.2559
%
G90
G05
T1
X4.3307Y-1.3189
X4.4647Y-1.3249
X4.5079Y-1.3189
X4.5472Y-1.4665
X4.5512Y-1.2362
X4.5669Y-1.3189
X4.5866Y-1.4665
X4.6063Y-1.3976
X4.626Y-1.4665
X5.5276Y-1.3071
X5.563Y-1.3071
X5.5984Y-1.3071
T2
X4.775Y-1.525
X4.775Y-1.625
X4.775Y-1.725
X4.775Y-1.825
X4.875Y-1.525
X4.875Y-1.625
X4.875Y-1.725
X4.875Y-1.825
X4.975Y-1.525
X4.975Y-1.625
X4.975Y-1.725
X4.975Y-1.825
T3
X3.9222Y-1.6799
X3.9785Y-1.5442
X3.9785Y-1.8156
X4.1142Y-1.488
X4.1142Y-1.8719
X4.2499Y-1.5442
X4.2499Y-1.8156
X4.3061Y-1.6799
X5.1581Y-1.6811
X5.2143Y-1.5454
X5.2143Y-1.8168
X5.35Y-1.4892
X5.35Y-1.873
X5.4857Y-1.5454
X5.4857Y-1.8168
X5.5419Y-1.6811
T4
X4.6949Y-1.2667
X4.7736Y-1.2667
X4.8524Y-1.2667
X4.9311Y-1.2667
X5.0098Y-1.2667
X5.0886Y-1.2667
T5
X4.3996Y-1.8898
X5.2677Y-1.248
T6
X4.1142Y-1.6799
X5.35Y-1.6811
T0
M30
