%TF.GenerationSoftware,KiCad,Pcbnew,(6.0.8)*%
%TF.CreationDate,2023-11-01T20:00:16+01:00*%
%TF.ProjectId,BTS50005-1LUA_TestBoard,42545335-3030-4303-952d-314c55415f54,rev?*%
%TF.SameCoordinates,Original*%
%TF.FileFunction,Copper,L2,Bot*%
%TF.FilePolarity,Positive*%
%FSLAX46Y46*%
G04 Gerber Fmt 4.6, Leading zero omitted, Abs format (unit mm)*
G04 Created by KiCad (PCBNEW (6.0.8)) date 2023-11-01 20:00:16*
%MOMM*%
%LPD*%
G01*
G04 APERTURE LIST*
G04 Aperture macros list*
%AMRoundRect*
0 Rectangle with rounded corners*
0 $1 Rounding radius*
0 $2 $3 $4 $5 $6 $7 $8 $9 X,Y pos of 4 corners*
0 Add a 4 corners polygon primitive as box body*
4,1,4,$2,$3,$4,$5,$6,$7,$8,$9,$2,$3,0*
0 Add four circle primitives for the rounded corners*
1,1,$1+$1,$2,$3*
1,1,$1+$1,$4,$5*
1,1,$1+$1,$6,$7*
1,1,$1+$1,$8,$9*
0 Add four rect primitives between the rounded corners*
20,1,$1+$1,$2,$3,$4,$5,0*
20,1,$1+$1,$4,$5,$6,$7,0*
20,1,$1+$1,$6,$7,$8,$9,0*
20,1,$1+$1,$8,$9,$2,$3,0*%
G04 Aperture macros list end*
%TA.AperFunction,ComponentPad*%
%ADD10RoundRect,0.250000X-0.350000X-0.650000X0.350000X-0.650000X0.350000X0.650000X-0.350000X0.650000X0*%
%TD*%
%TA.AperFunction,ComponentPad*%
%ADD11O,1.200000X1.800000*%
%TD*%
%TA.AperFunction,ComponentPad*%
%ADD12C,2.000000*%
%TD*%
%TA.AperFunction,ComponentPad*%
%ADD13C,0.900000*%
%TD*%
%TA.AperFunction,ComponentPad*%
%ADD14C,13.000000*%
%TD*%
%TA.AperFunction,SMDPad,CuDef*%
%ADD15R,0.700000X0.450000*%
%TD*%
%TA.AperFunction,ViaPad*%
%ADD16C,0.900000*%
%TD*%
%TA.AperFunction,ViaPad*%
%ADD17C,0.800000*%
%TD*%
%TA.AperFunction,Conductor*%
%ADD18C,0.250000*%
%TD*%
G04 APERTURE END LIST*
D10*
%TO.P,J1,1,Pin_1*%
%TO.N,GND*%
X119250000Y-32175000D03*
D11*
%TO.P,J1,2,Pin_2*%
%TO.N,CONTROLLER_ADC*%
X121250000Y-32175000D03*
%TO.P,J1,3,Pin_3*%
%TO.N,unconnected-(J1-Pad3)*%
X123250000Y-32175000D03*
%TO.P,J1,4,Pin_4*%
%TO.N,CONTROLER_DEN*%
X125250000Y-32175000D03*
%TO.P,J1,5,Pin_5*%
%TO.N,CONTROLER_IN*%
X127250000Y-32175000D03*
%TO.P,J1,6,Pin_6*%
%TO.N,CONTOLLER_VDD*%
X129250000Y-32175000D03*
%TD*%
D12*
%TO.P,TP2,1,1*%
%TO.N,OUT*%
X111750000Y-48000000D03*
%TD*%
D13*
%TO.P,H1,1,1*%
%TO.N,+12V*%
X135890000Y-37825000D03*
X131015000Y-42700000D03*
D14*
X135890000Y-42700000D03*
D13*
X139337146Y-46147146D03*
X139337146Y-39252854D03*
X135890000Y-47575000D03*
X132442854Y-46147146D03*
X132442854Y-39252854D03*
X140765000Y-42700000D03*
%TD*%
D12*
%TO.P,TP1,1,1*%
%TO.N,CONTROLER_IN*%
X133800000Y-31700000D03*
%TD*%
D13*
%TO.P,H2,1,1*%
%TO.N,OUT*%
X109375000Y-42670000D03*
D14*
X104500000Y-42670000D03*
D13*
X107947146Y-46117146D03*
X107947146Y-39222854D03*
X101052854Y-39222854D03*
X104500000Y-37795000D03*
X101052854Y-46117146D03*
X104500000Y-47545000D03*
X99625000Y-42670000D03*
%TD*%
D15*
%TO.P,D1,1*%
%TO.N,GND*%
X120500000Y-34600000D03*
%TO.P,D1,2*%
%TO.N,CONTOLLER_VDD*%
X120500000Y-35900000D03*
%TO.P,D1,3*%
%TO.N,CONTROLLER_ADC*%
X118500000Y-35250000D03*
%TD*%
D16*
%TO.N,+12V*%
X126365000Y-46355000D03*
X123825000Y-46355000D03*
X121285000Y-46355000D03*
X126365000Y-43815000D03*
X123825000Y-43815000D03*
X121285000Y-43815000D03*
X126365000Y-41275000D03*
X123825000Y-41275000D03*
X121285000Y-41275000D03*
X126365000Y-38735000D03*
X123825000Y-38735000D03*
X121285000Y-38735000D03*
D17*
%TO.N,GND*%
X142200000Y-33200000D03*
X141300000Y-33200000D03*
X114500000Y-33500000D03*
X140400000Y-33200000D03*
X110000000Y-33500000D03*
X115500000Y-37250000D03*
X116000000Y-33500000D03*
X116500000Y-37250000D03*
X117500000Y-37250000D03*
%TO.N,CONTROLLER_ADC*%
X117000000Y-35500000D03*
%TO.N,CONTROLER_IN*%
X115600000Y-31400000D03*
X113402299Y-33652299D03*
%TD*%
D18*
%TO.N,CONTROLLER_ADC*%
X121250000Y-32500000D02*
X121250000Y-32175000D01*
X117000000Y-35500000D02*
X118250000Y-35500000D01*
X118500000Y-35250000D02*
X121250000Y-32500000D01*
X118250000Y-35500000D02*
X118500000Y-35250000D01*
%TO.N,CONTOLLER_VDD*%
X121650000Y-34750000D02*
X126675000Y-34750000D01*
X121650000Y-34750000D02*
X120500000Y-35900000D01*
X126675000Y-34750000D02*
X129250000Y-32175000D01*
%TO.N,CONTROLER_IN*%
X115600000Y-31400000D02*
X115574695Y-31400000D01*
X115574695Y-31400000D02*
X113402299Y-33572396D01*
X113402299Y-33572396D02*
X113402299Y-33652299D01*
%TD*%
%TA.AperFunction,Conductor*%
%TO.N,GND*%
G36*
X144213621Y-29738502D02*
G01*
X144260114Y-29792158D01*
X144271500Y-29844500D01*
X144271500Y-50165500D01*
X144251498Y-50233621D01*
X144197842Y-50280114D01*
X144145500Y-50291500D01*
X97154500Y-50291500D01*
X97086379Y-50271498D01*
X97039886Y-50217842D01*
X97028500Y-50165500D01*
X97028500Y-42743443D01*
X97486981Y-42743443D01*
X97511193Y-43256867D01*
X97511471Y-43259167D01*
X97511472Y-43259175D01*
X97550177Y-43579013D01*
X97572943Y-43767138D01*
X97671898Y-44271517D01*
X97672509Y-44273750D01*
X97672511Y-44273759D01*
X97806620Y-44763979D01*
X97807527Y-44767294D01*
X97979102Y-45251806D01*
X98185701Y-45722452D01*
X98186789Y-45724508D01*
X98186792Y-45724513D01*
X98201585Y-45752452D01*
X98426214Y-46176702D01*
X98427445Y-46178665D01*
X98427450Y-46178673D01*
X98445033Y-46206702D01*
X98699350Y-46612118D01*
X99003641Y-47026360D01*
X99337454Y-47417205D01*
X99698995Y-47782551D01*
X99700726Y-47784061D01*
X99700727Y-47784062D01*
X100084589Y-48118928D01*
X100084602Y-48118938D01*
X100086322Y-48120439D01*
X100088157Y-48121817D01*
X100088161Y-48121820D01*
X100495499Y-48427658D01*
X100495508Y-48427664D01*
X100497355Y-48429051D01*
X100748534Y-48590305D01*
X100899094Y-48686963D01*
X100929887Y-48706732D01*
X100987170Y-48737834D01*
X101379571Y-48950890D01*
X101379579Y-48950894D01*
X101381594Y-48951988D01*
X101383687Y-48952933D01*
X101383689Y-48952934D01*
X101847938Y-49162551D01*
X101847952Y-49162557D01*
X101850050Y-49163504D01*
X102332739Y-49340144D01*
X102334966Y-49340778D01*
X102334971Y-49340780D01*
X102824845Y-49480324D01*
X102824851Y-49480325D01*
X102827068Y-49480957D01*
X102829329Y-49481425D01*
X102829328Y-49481425D01*
X103328131Y-49584723D01*
X103328141Y-49584725D01*
X103330383Y-49585189D01*
X103839980Y-49652278D01*
X104090796Y-49666740D01*
X104350825Y-49681734D01*
X104350837Y-49681734D01*
X104353122Y-49681866D01*
X104355422Y-49681830D01*
X104355428Y-49681830D01*
X104864721Y-49673829D01*
X104864731Y-49673828D01*
X104867053Y-49673792D01*
X104905667Y-49670346D01*
X105376710Y-49628307D01*
X105376722Y-49628305D01*
X105379013Y-49628101D01*
X105886251Y-49545038D01*
X106386043Y-49425048D01*
X106388241Y-49424346D01*
X106388250Y-49424344D01*
X106784407Y-49297914D01*
X106875706Y-49268777D01*
X106994642Y-49220965D01*
X107350469Y-49077923D01*
X107350472Y-49077922D01*
X107352608Y-49077063D01*
X107814189Y-48850937D01*
X108206631Y-48621613D01*
X108255975Y-48592779D01*
X108255979Y-48592776D01*
X108257970Y-48591613D01*
X108637916Y-48330483D01*
X108679663Y-48301791D01*
X108679665Y-48301790D01*
X108681566Y-48300483D01*
X109056630Y-48000000D01*
X110236835Y-48000000D01*
X110255465Y-48236711D01*
X110256619Y-48241518D01*
X110256620Y-48241524D01*
X110291640Y-48387391D01*
X110310895Y-48467594D01*
X110312788Y-48472165D01*
X110312789Y-48472167D01*
X110374150Y-48620305D01*
X110401760Y-48686963D01*
X110404346Y-48691183D01*
X110523241Y-48885202D01*
X110523245Y-48885208D01*
X110525824Y-48889416D01*
X110680031Y-49069969D01*
X110860584Y-49224176D01*
X110864792Y-49226755D01*
X110864798Y-49226759D01*
X111050863Y-49340780D01*
X111063037Y-49348240D01*
X111067607Y-49350133D01*
X111067611Y-49350135D01*
X111248469Y-49425048D01*
X111282406Y-49439105D01*
X111362609Y-49458360D01*
X111508476Y-49493380D01*
X111508482Y-49493381D01*
X111513289Y-49494535D01*
X111750000Y-49513165D01*
X111986711Y-49494535D01*
X111991518Y-49493381D01*
X111991524Y-49493380D01*
X112137391Y-49458360D01*
X112217594Y-49439105D01*
X112251531Y-49425048D01*
X112432389Y-49350135D01*
X112432393Y-49350133D01*
X112436963Y-49348240D01*
X112449137Y-49340780D01*
X112635202Y-49226759D01*
X112635208Y-49226755D01*
X112639416Y-49224176D01*
X112819969Y-49069969D01*
X112974176Y-48889416D01*
X112976755Y-48885208D01*
X112976759Y-48885202D01*
X113095654Y-48691183D01*
X113098240Y-48686963D01*
X113125851Y-48620305D01*
X113187211Y-48472167D01*
X113187212Y-48472165D01*
X113189105Y-48467594D01*
X113208360Y-48387391D01*
X113243380Y-48241524D01*
X113243381Y-48241518D01*
X113244535Y-48236711D01*
X113263165Y-48000000D01*
X113244535Y-47763289D01*
X113189105Y-47532406D01*
X113153084Y-47445443D01*
X113100135Y-47317611D01*
X113100133Y-47317607D01*
X113098240Y-47313037D01*
X113088044Y-47296399D01*
X112976759Y-47114798D01*
X112976755Y-47114792D01*
X112974176Y-47110584D01*
X112819969Y-46930031D01*
X112639416Y-46775824D01*
X112635208Y-46773245D01*
X112635202Y-46773241D01*
X112441183Y-46654346D01*
X112436963Y-46651760D01*
X112432393Y-46649867D01*
X112432389Y-46649865D01*
X112222167Y-46562789D01*
X112222165Y-46562788D01*
X112217594Y-46560895D01*
X112137391Y-46541640D01*
X111991524Y-46506620D01*
X111991518Y-46506619D01*
X111986711Y-46505465D01*
X111750000Y-46486835D01*
X111513289Y-46505465D01*
X111508482Y-46506619D01*
X111508476Y-46506620D01*
X111362609Y-46541640D01*
X111282406Y-46560895D01*
X111277835Y-46562788D01*
X111277833Y-46562789D01*
X111067611Y-46649865D01*
X111067607Y-46649867D01*
X111063037Y-46651760D01*
X111058817Y-46654346D01*
X110864798Y-46773241D01*
X110864792Y-46773245D01*
X110860584Y-46775824D01*
X110680031Y-46930031D01*
X110525824Y-47110584D01*
X110523245Y-47114792D01*
X110523241Y-47114798D01*
X110411956Y-47296399D01*
X110401760Y-47313037D01*
X110399867Y-47317607D01*
X110399865Y-47317611D01*
X110346916Y-47445443D01*
X110310895Y-47532406D01*
X110255465Y-47763289D01*
X110236835Y-48000000D01*
X109056630Y-48000000D01*
X109082703Y-47979112D01*
X109459226Y-47629226D01*
X109809112Y-47252703D01*
X110130483Y-46851566D01*
X110421613Y-46427970D01*
X110472112Y-46341552D01*
X120321956Y-46341552D01*
X120322472Y-46347696D01*
X120334156Y-46486835D01*
X120337685Y-46528865D01*
X120360996Y-46610160D01*
X120372925Y-46651760D01*
X120389497Y-46709555D01*
X120392312Y-46715032D01*
X120392313Y-46715035D01*
X120461502Y-46849663D01*
X120475418Y-46876740D01*
X120479243Y-46881566D01*
X120497677Y-46904824D01*
X120592177Y-47024052D01*
X120596871Y-47028047D01*
X120689435Y-47106825D01*
X120735324Y-47145880D01*
X120740702Y-47148886D01*
X120740704Y-47148887D01*
X120817367Y-47191732D01*
X120899409Y-47237584D01*
X121078180Y-47295670D01*
X121264830Y-47317927D01*
X121270965Y-47317455D01*
X121270967Y-47317455D01*
X121446105Y-47303979D01*
X121446109Y-47303978D01*
X121452247Y-47303506D01*
X121537378Y-47279737D01*
X121627350Y-47254616D01*
X121627353Y-47254615D01*
X121633294Y-47252956D01*
X121638798Y-47250176D01*
X121638800Y-47250175D01*
X121795574Y-47170983D01*
X121795576Y-47170982D01*
X121801075Y-47168204D01*
X121949199Y-47052477D01*
X121970227Y-47028116D01*
X122067994Y-46914852D01*
X122067995Y-46914850D01*
X122072023Y-46910184D01*
X122164870Y-46746744D01*
X122224203Y-46568382D01*
X122247762Y-46381892D01*
X122248138Y-46355000D01*
X122246819Y-46341552D01*
X122861956Y-46341552D01*
X122862472Y-46347696D01*
X122874156Y-46486835D01*
X122877685Y-46528865D01*
X122900996Y-46610160D01*
X122912925Y-46651760D01*
X122929497Y-46709555D01*
X122932312Y-46715032D01*
X122932313Y-46715035D01*
X123001502Y-46849663D01*
X123015418Y-46876740D01*
X123019243Y-46881566D01*
X123037677Y-46904824D01*
X123132177Y-47024052D01*
X123136871Y-47028047D01*
X123229435Y-47106825D01*
X123275324Y-47145880D01*
X123280702Y-47148886D01*
X123280704Y-47148887D01*
X123357367Y-47191732D01*
X123439409Y-47237584D01*
X123618180Y-47295670D01*
X123804830Y-47317927D01*
X123810965Y-47317455D01*
X123810967Y-47317455D01*
X123986105Y-47303979D01*
X123986109Y-47303978D01*
X123992247Y-47303506D01*
X124077378Y-47279737D01*
X124167350Y-47254616D01*
X124167353Y-47254615D01*
X124173294Y-47252956D01*
X124178798Y-47250176D01*
X124178800Y-47250175D01*
X124335574Y-47170983D01*
X124335576Y-47170982D01*
X124341075Y-47168204D01*
X124489199Y-47052477D01*
X124510227Y-47028116D01*
X124607994Y-46914852D01*
X124607995Y-46914850D01*
X124612023Y-46910184D01*
X124704870Y-46746744D01*
X124764203Y-46568382D01*
X124787762Y-46381892D01*
X124788138Y-46355000D01*
X124786819Y-46341552D01*
X125401956Y-46341552D01*
X125402472Y-46347696D01*
X125414156Y-46486835D01*
X125417685Y-46528865D01*
X125440996Y-46610160D01*
X125452925Y-46651760D01*
X125469497Y-46709555D01*
X125472312Y-46715032D01*
X125472313Y-46715035D01*
X125541502Y-46849663D01*
X125555418Y-46876740D01*
X125559243Y-46881566D01*
X125577677Y-46904824D01*
X125672177Y-47024052D01*
X125676871Y-47028047D01*
X125769435Y-47106825D01*
X125815324Y-47145880D01*
X125820702Y-47148886D01*
X125820704Y-47148887D01*
X125897367Y-47191732D01*
X125979409Y-47237584D01*
X126158180Y-47295670D01*
X126344830Y-47317927D01*
X126350965Y-47317455D01*
X126350967Y-47317455D01*
X126526105Y-47303979D01*
X126526109Y-47303978D01*
X126532247Y-47303506D01*
X126617378Y-47279737D01*
X126707350Y-47254616D01*
X126707353Y-47254615D01*
X126713294Y-47252956D01*
X126718798Y-47250176D01*
X126718800Y-47250175D01*
X126875574Y-47170983D01*
X126875576Y-47170982D01*
X126881075Y-47168204D01*
X127029199Y-47052477D01*
X127050227Y-47028116D01*
X127147994Y-46914852D01*
X127147995Y-46914850D01*
X127152023Y-46910184D01*
X127244870Y-46746744D01*
X127304203Y-46568382D01*
X127327762Y-46381892D01*
X127328138Y-46355000D01*
X127309795Y-46167926D01*
X127255465Y-45987977D01*
X127167218Y-45822008D01*
X127048415Y-45676340D01*
X126994603Y-45631823D01*
X126908329Y-45560450D01*
X126908324Y-45560447D01*
X126903580Y-45556522D01*
X126898161Y-45553592D01*
X126898158Y-45553590D01*
X126828671Y-45516019D01*
X126738231Y-45467119D01*
X126558666Y-45411534D01*
X126552541Y-45410890D01*
X126552540Y-45410890D01*
X126377852Y-45392529D01*
X126377851Y-45392529D01*
X126371724Y-45391885D01*
X126294673Y-45398897D01*
X126190665Y-45408363D01*
X126190662Y-45408364D01*
X126184526Y-45408922D01*
X126178620Y-45410660D01*
X126178616Y-45410661D01*
X126045278Y-45449905D01*
X126004202Y-45461994D01*
X125998742Y-45464848D01*
X125998743Y-45464848D01*
X125888258Y-45522608D01*
X125837621Y-45549080D01*
X125691128Y-45666864D01*
X125687170Y-45671582D01*
X125687167Y-45671584D01*
X125646268Y-45720326D01*
X125570302Y-45810859D01*
X125567338Y-45816251D01*
X125567335Y-45816255D01*
X125561176Y-45827459D01*
X125479746Y-45975580D01*
X125422909Y-46154752D01*
X125401956Y-46341552D01*
X124786819Y-46341552D01*
X124769795Y-46167926D01*
X124715465Y-45987977D01*
X124627218Y-45822008D01*
X124508415Y-45676340D01*
X124454603Y-45631823D01*
X124368329Y-45560450D01*
X124368324Y-45560447D01*
X124363580Y-45556522D01*
X124358161Y-45553592D01*
X124358158Y-45553590D01*
X124288671Y-45516019D01*
X124198231Y-45467119D01*
X124018666Y-45411534D01*
X124012541Y-45410890D01*
X124012540Y-45410890D01*
X123837852Y-45392529D01*
X123837851Y-45392529D01*
X123831724Y-45391885D01*
X123754673Y-45398897D01*
X123650665Y-45408363D01*
X123650662Y-45408364D01*
X123644526Y-45408922D01*
X123638620Y-45410660D01*
X123638616Y-45410661D01*
X123505278Y-45449905D01*
X123464202Y-45461994D01*
X123458742Y-45464848D01*
X123458743Y-45464848D01*
X123348258Y-45522608D01*
X123297621Y-45549080D01*
X123151128Y-45666864D01*
X123147170Y-45671582D01*
X123147167Y-45671584D01*
X123106268Y-45720326D01*
X123030302Y-45810859D01*
X123027338Y-45816251D01*
X123027335Y-45816255D01*
X123021176Y-45827459D01*
X122939746Y-45975580D01*
X122882909Y-46154752D01*
X122861956Y-46341552D01*
X122246819Y-46341552D01*
X122229795Y-46167926D01*
X122175465Y-45987977D01*
X122087218Y-45822008D01*
X121968415Y-45676340D01*
X121914603Y-45631823D01*
X121828329Y-45560450D01*
X121828324Y-45560447D01*
X121823580Y-45556522D01*
X121818161Y-45553592D01*
X121818158Y-45553590D01*
X121748671Y-45516019D01*
X121658231Y-45467119D01*
X121478666Y-45411534D01*
X121472541Y-45410890D01*
X121472540Y-45410890D01*
X121297852Y-45392529D01*
X121297851Y-45392529D01*
X121291724Y-45391885D01*
X121214673Y-45398897D01*
X121110665Y-45408363D01*
X121110662Y-45408364D01*
X121104526Y-45408922D01*
X121098620Y-45410660D01*
X121098616Y-45410661D01*
X120965278Y-45449905D01*
X120924202Y-45461994D01*
X120918742Y-45464848D01*
X120918743Y-45464848D01*
X120808258Y-45522608D01*
X120757621Y-45549080D01*
X120611128Y-45666864D01*
X120607170Y-45671582D01*
X120607167Y-45671584D01*
X120566268Y-45720326D01*
X120490302Y-45810859D01*
X120487338Y-45816251D01*
X120487335Y-45816255D01*
X120481176Y-45827459D01*
X120399746Y-45975580D01*
X120342909Y-46154752D01*
X120321956Y-46341552D01*
X110472112Y-46341552D01*
X110622619Y-46083989D01*
X110680937Y-45984189D01*
X110907063Y-45522608D01*
X110930283Y-45464848D01*
X111097914Y-45047853D01*
X111097915Y-45047851D01*
X111098777Y-45045706D01*
X111184469Y-44777198D01*
X111254344Y-44558250D01*
X111254346Y-44558241D01*
X111255048Y-44556043D01*
X111375038Y-44056251D01*
X111416746Y-43801552D01*
X120321956Y-43801552D01*
X120337685Y-43988865D01*
X120389497Y-44169555D01*
X120392312Y-44175032D01*
X120392313Y-44175035D01*
X120457316Y-44301517D01*
X120475418Y-44336740D01*
X120479241Y-44341564D01*
X120479244Y-44341568D01*
X120505625Y-44374852D01*
X120592177Y-44484052D01*
X120596871Y-44488047D01*
X120712016Y-44586043D01*
X120735324Y-44605880D01*
X120740702Y-44608886D01*
X120740704Y-44608887D01*
X120817367Y-44651732D01*
X120899409Y-44697584D01*
X121078180Y-44755670D01*
X121264830Y-44777927D01*
X121270965Y-44777455D01*
X121270967Y-44777455D01*
X121446105Y-44763979D01*
X121446109Y-44763978D01*
X121452247Y-44763506D01*
X121537378Y-44739737D01*
X121627350Y-44714616D01*
X121627353Y-44714615D01*
X121633294Y-44712956D01*
X121638798Y-44710176D01*
X121638800Y-44710175D01*
X121795574Y-44630983D01*
X121795576Y-44630982D01*
X121801075Y-44628204D01*
X121949199Y-44512477D01*
X121953225Y-44507813D01*
X122067994Y-44374852D01*
X122067995Y-44374850D01*
X122072023Y-44370184D01*
X122164870Y-44206744D01*
X122224203Y-44028382D01*
X122247762Y-43841892D01*
X122248138Y-43815000D01*
X122246819Y-43801552D01*
X122861956Y-43801552D01*
X122877685Y-43988865D01*
X122929497Y-44169555D01*
X122932312Y-44175032D01*
X122932313Y-44175035D01*
X122997316Y-44301517D01*
X123015418Y-44336740D01*
X123019241Y-44341564D01*
X123019244Y-44341568D01*
X123045625Y-44374852D01*
X123132177Y-44484052D01*
X123136871Y-44488047D01*
X123252016Y-44586043D01*
X123275324Y-44605880D01*
X123280702Y-44608886D01*
X123280704Y-44608887D01*
X123357367Y-44651732D01*
X123439409Y-44697584D01*
X123618180Y-44755670D01*
X123804830Y-44777927D01*
X123810965Y-44777455D01*
X123810967Y-44777455D01*
X123986105Y-44763979D01*
X123986109Y-44763978D01*
X123992247Y-44763506D01*
X124077378Y-44739737D01*
X124167350Y-44714616D01*
X124167353Y-44714615D01*
X124173294Y-44712956D01*
X124178798Y-44710176D01*
X124178800Y-44710175D01*
X124335574Y-44630983D01*
X124335576Y-44630982D01*
X124341075Y-44628204D01*
X124489199Y-44512477D01*
X124493225Y-44507813D01*
X124607994Y-44374852D01*
X124607995Y-44374850D01*
X124612023Y-44370184D01*
X124704870Y-44206744D01*
X124764203Y-44028382D01*
X124787762Y-43841892D01*
X124788138Y-43815000D01*
X124786819Y-43801552D01*
X125401956Y-43801552D01*
X125417685Y-43988865D01*
X125469497Y-44169555D01*
X125472312Y-44175032D01*
X125472313Y-44175035D01*
X125537316Y-44301517D01*
X125555418Y-44336740D01*
X125559241Y-44341564D01*
X125559244Y-44341568D01*
X125585625Y-44374852D01*
X125672177Y-44484052D01*
X125676871Y-44488047D01*
X125792016Y-44586043D01*
X125815324Y-44605880D01*
X125820702Y-44608886D01*
X125820704Y-44608887D01*
X125897367Y-44651732D01*
X125979409Y-44697584D01*
X126158180Y-44755670D01*
X126344830Y-44777927D01*
X126350965Y-44777455D01*
X126350967Y-44777455D01*
X126526105Y-44763979D01*
X126526109Y-44763978D01*
X126532247Y-44763506D01*
X126617378Y-44739737D01*
X126707350Y-44714616D01*
X126707353Y-44714615D01*
X126713294Y-44712956D01*
X126718798Y-44710176D01*
X126718800Y-44710175D01*
X126875574Y-44630983D01*
X126875576Y-44630982D01*
X126881075Y-44628204D01*
X127029199Y-44512477D01*
X127033225Y-44507813D01*
X127147994Y-44374852D01*
X127147995Y-44374850D01*
X127152023Y-44370184D01*
X127244870Y-44206744D01*
X127304203Y-44028382D01*
X127327762Y-43841892D01*
X127328138Y-43815000D01*
X127309795Y-43627926D01*
X127255465Y-43447977D01*
X127167218Y-43282008D01*
X127048415Y-43136340D01*
X126967056Y-43069034D01*
X126908329Y-43020450D01*
X126908324Y-43020447D01*
X126903580Y-43016522D01*
X126898161Y-43013592D01*
X126898158Y-43013590D01*
X126828671Y-42976019D01*
X126738231Y-42927119D01*
X126558666Y-42871534D01*
X126552541Y-42870890D01*
X126552540Y-42870890D01*
X126377852Y-42852529D01*
X126377851Y-42852529D01*
X126371724Y-42851885D01*
X126294673Y-42858897D01*
X126190665Y-42868363D01*
X126190662Y-42868364D01*
X126184526Y-42868922D01*
X126178620Y-42870660D01*
X126178616Y-42870661D01*
X126045278Y-42909905D01*
X126004202Y-42921994D01*
X125837621Y-43009080D01*
X125691128Y-43126864D01*
X125687170Y-43131582D01*
X125687167Y-43131584D01*
X125599797Y-43235708D01*
X125570302Y-43270859D01*
X125567338Y-43276251D01*
X125567335Y-43276255D01*
X125493611Y-43410360D01*
X125479746Y-43435580D01*
X125422909Y-43614752D01*
X125401956Y-43801552D01*
X124786819Y-43801552D01*
X124769795Y-43627926D01*
X124715465Y-43447977D01*
X124627218Y-43282008D01*
X124508415Y-43136340D01*
X124427056Y-43069034D01*
X124368329Y-43020450D01*
X124368324Y-43020447D01*
X124363580Y-43016522D01*
X124358161Y-43013592D01*
X124358158Y-43013590D01*
X124288671Y-42976019D01*
X124198231Y-42927119D01*
X124018666Y-42871534D01*
X124012541Y-42870890D01*
X124012540Y-42870890D01*
X123837852Y-42852529D01*
X123837851Y-42852529D01*
X123831724Y-42851885D01*
X123754673Y-42858897D01*
X123650665Y-42868363D01*
X123650662Y-42868364D01*
X123644526Y-42868922D01*
X123638620Y-42870660D01*
X123638616Y-42870661D01*
X123505278Y-42909905D01*
X123464202Y-42921994D01*
X123297621Y-43009080D01*
X123151128Y-43126864D01*
X123147170Y-43131582D01*
X123147167Y-43131584D01*
X123059797Y-43235708D01*
X123030302Y-43270859D01*
X123027338Y-43276251D01*
X123027335Y-43276255D01*
X122953611Y-43410360D01*
X122939746Y-43435580D01*
X122882909Y-43614752D01*
X122861956Y-43801552D01*
X122246819Y-43801552D01*
X122229795Y-43627926D01*
X122175465Y-43447977D01*
X122087218Y-43282008D01*
X121968415Y-43136340D01*
X121887056Y-43069034D01*
X121828329Y-43020450D01*
X121828324Y-43020447D01*
X121823580Y-43016522D01*
X121818161Y-43013592D01*
X121818158Y-43013590D01*
X121748671Y-42976019D01*
X121658231Y-42927119D01*
X121478666Y-42871534D01*
X121472541Y-42870890D01*
X121472540Y-42870890D01*
X121297852Y-42852529D01*
X121297851Y-42852529D01*
X121291724Y-42851885D01*
X121214673Y-42858897D01*
X121110665Y-42868363D01*
X121110662Y-42868364D01*
X121104526Y-42868922D01*
X121098620Y-42870660D01*
X121098616Y-42870661D01*
X120965278Y-42909905D01*
X120924202Y-42921994D01*
X120757621Y-43009080D01*
X120611128Y-43126864D01*
X120607170Y-43131582D01*
X120607167Y-43131584D01*
X120519797Y-43235708D01*
X120490302Y-43270859D01*
X120487338Y-43276251D01*
X120487335Y-43276255D01*
X120413611Y-43410360D01*
X120399746Y-43435580D01*
X120342909Y-43614752D01*
X120321956Y-43801552D01*
X111416746Y-43801552D01*
X111458101Y-43549013D01*
X111467119Y-43447977D01*
X111500938Y-43069034D01*
X111503792Y-43037053D01*
X111510695Y-42773443D01*
X128876981Y-42773443D01*
X128901193Y-43286867D01*
X128901471Y-43289167D01*
X128901472Y-43289175D01*
X128932638Y-43546710D01*
X128962943Y-43797138D01*
X129061898Y-44301517D01*
X129062509Y-44303750D01*
X129062511Y-44303759D01*
X129196918Y-44795069D01*
X129197527Y-44797294D01*
X129369102Y-45281806D01*
X129575701Y-45752452D01*
X129816214Y-46206702D01*
X129817445Y-46208665D01*
X129817450Y-46208673D01*
X129928298Y-46385379D01*
X130089350Y-46642118D01*
X130393641Y-47056360D01*
X130727454Y-47447205D01*
X131088995Y-47812551D01*
X131090726Y-47814061D01*
X131090727Y-47814062D01*
X131474589Y-48148928D01*
X131474602Y-48148938D01*
X131476322Y-48150439D01*
X131478157Y-48151817D01*
X131478161Y-48151820D01*
X131885499Y-48457658D01*
X131885508Y-48457664D01*
X131887355Y-48459051D01*
X132138534Y-48620305D01*
X132271209Y-48705481D01*
X132319887Y-48736732D01*
X132321917Y-48737834D01*
X132769571Y-48980890D01*
X132769579Y-48980894D01*
X132771594Y-48981988D01*
X132773687Y-48982933D01*
X132773689Y-48982934D01*
X133237938Y-49192551D01*
X133237952Y-49192557D01*
X133240050Y-49193504D01*
X133722739Y-49370144D01*
X133724966Y-49370778D01*
X133724971Y-49370780D01*
X134214845Y-49510324D01*
X134214851Y-49510325D01*
X134217068Y-49510957D01*
X134227730Y-49513165D01*
X134718131Y-49614723D01*
X134718141Y-49614725D01*
X134720383Y-49615189D01*
X135229980Y-49682278D01*
X135480796Y-49696740D01*
X135740825Y-49711734D01*
X135740837Y-49711734D01*
X135743122Y-49711866D01*
X135745422Y-49711830D01*
X135745428Y-49711830D01*
X136254721Y-49703829D01*
X136254731Y-49703828D01*
X136257053Y-49703792D01*
X136295667Y-49700346D01*
X136766710Y-49658307D01*
X136766722Y-49658305D01*
X136769013Y-49658101D01*
X137276251Y-49575038D01*
X137776043Y-49455048D01*
X137778241Y-49454346D01*
X137778250Y-49454344D01*
X138044577Y-49369348D01*
X138265706Y-49298777D01*
X138459269Y-49220965D01*
X138740469Y-49107923D01*
X138740472Y-49107922D01*
X138742608Y-49107063D01*
X139204189Y-48880937D01*
X139647970Y-48621613D01*
X140071566Y-48330483D01*
X140472703Y-48009112D01*
X140849226Y-47659226D01*
X141199112Y-47282703D01*
X141520483Y-46881566D01*
X141541102Y-46851566D01*
X141705670Y-46612118D01*
X141811613Y-46457970D01*
X141830310Y-46425975D01*
X142069777Y-46016174D01*
X142070937Y-46014189D01*
X142297063Y-45552608D01*
X142308289Y-45524684D01*
X142487914Y-45077853D01*
X142487915Y-45077851D01*
X142488777Y-45075706D01*
X142566913Y-44830874D01*
X142644344Y-44588250D01*
X142644346Y-44588241D01*
X142645048Y-44586043D01*
X142765038Y-44086251D01*
X142848101Y-43579013D01*
X142850576Y-43551291D01*
X142893615Y-43069034D01*
X142893792Y-43067053D01*
X142903404Y-42700000D01*
X142884569Y-42186351D01*
X142883274Y-42174616D01*
X142845248Y-41830184D01*
X142828167Y-41675461D01*
X142734499Y-41170073D01*
X142623127Y-40745550D01*
X142604652Y-40675127D01*
X142604648Y-40675113D01*
X142604068Y-40672903D01*
X142594559Y-40645127D01*
X142438321Y-40188793D01*
X142438318Y-40188784D01*
X142437577Y-40186621D01*
X142436683Y-40184525D01*
X142436678Y-40184512D01*
X142321799Y-39915184D01*
X142235918Y-39713838D01*
X142227330Y-39697198D01*
X142001236Y-39259151D01*
X142001232Y-39259145D01*
X142000174Y-39257094D01*
X141786780Y-38908865D01*
X141732818Y-38820807D01*
X141732815Y-38820802D01*
X141731613Y-38818841D01*
X141431676Y-38401435D01*
X141101975Y-38007117D01*
X140744280Y-37638004D01*
X140708890Y-37606472D01*
X140362233Y-37297612D01*
X140362227Y-37297607D01*
X140360512Y-37296079D01*
X139952733Y-36983179D01*
X139950828Y-36981928D01*
X139950813Y-36981917D01*
X139525061Y-36702251D01*
X139525052Y-36702246D01*
X139523133Y-36700985D01*
X139074019Y-36451011D01*
X138721198Y-36287237D01*
X138609889Y-36235569D01*
X138609882Y-36235566D01*
X138607803Y-36234601D01*
X138126990Y-36052917D01*
X138124789Y-36052265D01*
X138124783Y-36052263D01*
X137636389Y-35907594D01*
X137636380Y-35907592D01*
X137634163Y-35906935D01*
X137131967Y-35797439D01*
X136623100Y-35725016D01*
X136110296Y-35690057D01*
X136107979Y-35690069D01*
X136107975Y-35690069D01*
X135823884Y-35691557D01*
X135596309Y-35692748D01*
X135477058Y-35702133D01*
X135086196Y-35732894D01*
X135086190Y-35732895D01*
X135083899Y-35733075D01*
X134861449Y-35767115D01*
X134578112Y-35810472D01*
X134578109Y-35810473D01*
X134575819Y-35810823D01*
X134573565Y-35811339D01*
X134573561Y-35811340D01*
X134077049Y-35925056D01*
X134077043Y-35925058D01*
X134074797Y-35925572D01*
X134012059Y-35944873D01*
X133585728Y-36076029D01*
X133585721Y-36076031D01*
X133583525Y-36076707D01*
X133581380Y-36077543D01*
X133581378Y-36077544D01*
X133528011Y-36098351D01*
X133104641Y-36263416D01*
X132862543Y-36378891D01*
X132705686Y-36453708D01*
X132640718Y-36484696D01*
X132638730Y-36485830D01*
X132196247Y-36738217D01*
X132196234Y-36738225D01*
X132194246Y-36739359D01*
X131767625Y-37026037D01*
X131363144Y-37343190D01*
X130982978Y-37689114D01*
X130885785Y-37791534D01*
X130634495Y-38056340D01*
X130629168Y-38061953D01*
X130303614Y-38459702D01*
X130302295Y-38461579D01*
X130302288Y-38461588D01*
X130093696Y-38758384D01*
X130008064Y-38880226D01*
X130006873Y-38882216D01*
X129762062Y-39291267D01*
X129744107Y-39321267D01*
X129743074Y-39323321D01*
X129527171Y-39752598D01*
X129513160Y-39780455D01*
X129512276Y-39782590D01*
X129512272Y-39782598D01*
X129328889Y-40225323D01*
X129316463Y-40255323D01*
X129315744Y-40257497D01*
X129157410Y-40736255D01*
X129155072Y-40743323D01*
X129154513Y-40745550D01*
X129037953Y-41209597D01*
X129029856Y-41241831D01*
X129029462Y-41244089D01*
X129029460Y-41244098D01*
X128992689Y-41454789D01*
X128941485Y-41748172D01*
X128890435Y-42259625D01*
X128890375Y-42261924D01*
X128877767Y-42743443D01*
X128876981Y-42773443D01*
X111510695Y-42773443D01*
X111513404Y-42670000D01*
X111494569Y-42156351D01*
X111487353Y-42090983D01*
X111449506Y-41748172D01*
X111438167Y-41645461D01*
X111367014Y-41261552D01*
X120321956Y-41261552D01*
X120337685Y-41448865D01*
X120389497Y-41629555D01*
X120392312Y-41635032D01*
X120392313Y-41635035D01*
X120472603Y-41791263D01*
X120475418Y-41796740D01*
X120479241Y-41801564D01*
X120479244Y-41801568D01*
X120505625Y-41834852D01*
X120592177Y-41944052D01*
X120735324Y-42065880D01*
X120740702Y-42068886D01*
X120740704Y-42068887D01*
X120817366Y-42111732D01*
X120899409Y-42157584D01*
X121078180Y-42215670D01*
X121264830Y-42237927D01*
X121270965Y-42237455D01*
X121270967Y-42237455D01*
X121446105Y-42223979D01*
X121446109Y-42223978D01*
X121452247Y-42223506D01*
X121577014Y-42188670D01*
X121627350Y-42174616D01*
X121627353Y-42174615D01*
X121633294Y-42172956D01*
X121638798Y-42170176D01*
X121638800Y-42170175D01*
X121795574Y-42090983D01*
X121795576Y-42090982D01*
X121801075Y-42088204D01*
X121949199Y-41972477D01*
X121953225Y-41967813D01*
X122067994Y-41834852D01*
X122067995Y-41834850D01*
X122072023Y-41830184D01*
X122164870Y-41666744D01*
X122224203Y-41488382D01*
X122247762Y-41301892D01*
X122248138Y-41275000D01*
X122246819Y-41261552D01*
X122861956Y-41261552D01*
X122877685Y-41448865D01*
X122929497Y-41629555D01*
X122932312Y-41635032D01*
X122932313Y-41635035D01*
X123012603Y-41791263D01*
X123015418Y-41796740D01*
X123019241Y-41801564D01*
X123019244Y-41801568D01*
X123045625Y-41834852D01*
X123132177Y-41944052D01*
X123275324Y-42065880D01*
X123280702Y-42068886D01*
X123280704Y-42068887D01*
X123357366Y-42111732D01*
X123439409Y-42157584D01*
X123618180Y-42215670D01*
X123804830Y-42237927D01*
X123810965Y-42237455D01*
X123810967Y-42237455D01*
X123986105Y-42223979D01*
X123986109Y-42223978D01*
X123992247Y-42223506D01*
X124117014Y-42188670D01*
X124167350Y-42174616D01*
X124167353Y-42174615D01*
X124173294Y-42172956D01*
X124178798Y-42170176D01*
X124178800Y-42170175D01*
X124335574Y-42090983D01*
X124335576Y-42090982D01*
X124341075Y-42088204D01*
X124489199Y-41972477D01*
X124493225Y-41967813D01*
X124607994Y-41834852D01*
X124607995Y-41834850D01*
X124612023Y-41830184D01*
X124704870Y-41666744D01*
X124764203Y-41488382D01*
X124787762Y-41301892D01*
X124788138Y-41275000D01*
X124786819Y-41261552D01*
X125401956Y-41261552D01*
X125417685Y-41448865D01*
X125469497Y-41629555D01*
X125472312Y-41635032D01*
X125472313Y-41635035D01*
X125552603Y-41791263D01*
X125555418Y-41796740D01*
X125559241Y-41801564D01*
X125559244Y-41801568D01*
X125585625Y-41834852D01*
X125672177Y-41944052D01*
X125815324Y-42065880D01*
X125820702Y-42068886D01*
X125820704Y-42068887D01*
X125897366Y-42111732D01*
X125979409Y-42157584D01*
X126158180Y-42215670D01*
X126344830Y-42237927D01*
X126350965Y-42237455D01*
X126350967Y-42237455D01*
X126526105Y-42223979D01*
X126526109Y-42223978D01*
X126532247Y-42223506D01*
X126657014Y-42188670D01*
X126707350Y-42174616D01*
X126707353Y-42174615D01*
X126713294Y-42172956D01*
X126718798Y-42170176D01*
X126718800Y-42170175D01*
X126875574Y-42090983D01*
X126875576Y-42090982D01*
X126881075Y-42088204D01*
X127029199Y-41972477D01*
X127033225Y-41967813D01*
X127147994Y-41834852D01*
X127147995Y-41834850D01*
X127152023Y-41830184D01*
X127244870Y-41666744D01*
X127304203Y-41488382D01*
X127327762Y-41301892D01*
X127328138Y-41275000D01*
X127309795Y-41087926D01*
X127255465Y-40907977D01*
X127167218Y-40742008D01*
X127048415Y-40596340D01*
X126994603Y-40551823D01*
X126908329Y-40480450D01*
X126908324Y-40480447D01*
X126903580Y-40476522D01*
X126898161Y-40473592D01*
X126898158Y-40473590D01*
X126828671Y-40436019D01*
X126738231Y-40387119D01*
X126558666Y-40331534D01*
X126552541Y-40330890D01*
X126552540Y-40330890D01*
X126377852Y-40312529D01*
X126377851Y-40312529D01*
X126371724Y-40311885D01*
X126294673Y-40318897D01*
X126190665Y-40328363D01*
X126190662Y-40328364D01*
X126184526Y-40328922D01*
X126178620Y-40330660D01*
X126178616Y-40330661D01*
X126045278Y-40369905D01*
X126004202Y-40381994D01*
X125837621Y-40469080D01*
X125691128Y-40586864D01*
X125687170Y-40591582D01*
X125687167Y-40591584D01*
X125620762Y-40670723D01*
X125570302Y-40730859D01*
X125567338Y-40736251D01*
X125567335Y-40736255D01*
X125561176Y-40747459D01*
X125479746Y-40895580D01*
X125422909Y-41074752D01*
X125401956Y-41261552D01*
X124786819Y-41261552D01*
X124769795Y-41087926D01*
X124715465Y-40907977D01*
X124627218Y-40742008D01*
X124508415Y-40596340D01*
X124454603Y-40551823D01*
X124368329Y-40480450D01*
X124368324Y-40480447D01*
X124363580Y-40476522D01*
X124358161Y-40473592D01*
X124358158Y-40473590D01*
X124288671Y-40436019D01*
X124198231Y-40387119D01*
X124018666Y-40331534D01*
X124012541Y-40330890D01*
X124012540Y-40330890D01*
X123837852Y-40312529D01*
X123837851Y-40312529D01*
X123831724Y-40311885D01*
X123754673Y-40318897D01*
X123650665Y-40328363D01*
X123650662Y-40328364D01*
X123644526Y-40328922D01*
X123638620Y-40330660D01*
X123638616Y-40330661D01*
X123505278Y-40369905D01*
X123464202Y-40381994D01*
X123297621Y-40469080D01*
X123151128Y-40586864D01*
X123147170Y-40591582D01*
X123147167Y-40591584D01*
X123080762Y-40670723D01*
X123030302Y-40730859D01*
X123027338Y-40736251D01*
X123027335Y-40736255D01*
X123021176Y-40747459D01*
X122939746Y-40895580D01*
X122882909Y-41074752D01*
X122861956Y-41261552D01*
X122246819Y-41261552D01*
X122229795Y-41087926D01*
X122175465Y-40907977D01*
X122087218Y-40742008D01*
X121968415Y-40596340D01*
X121914603Y-40551823D01*
X121828329Y-40480450D01*
X121828324Y-40480447D01*
X121823580Y-40476522D01*
X121818161Y-40473592D01*
X121818158Y-40473590D01*
X121748671Y-40436019D01*
X121658231Y-40387119D01*
X121478666Y-40331534D01*
X121472541Y-40330890D01*
X121472540Y-40330890D01*
X121297852Y-40312529D01*
X121297851Y-40312529D01*
X121291724Y-40311885D01*
X121214673Y-40318897D01*
X121110665Y-40328363D01*
X121110662Y-40328364D01*
X121104526Y-40328922D01*
X121098620Y-40330660D01*
X121098616Y-40330661D01*
X120965278Y-40369905D01*
X120924202Y-40381994D01*
X120757621Y-40469080D01*
X120611128Y-40586864D01*
X120607170Y-40591582D01*
X120607167Y-40591584D01*
X120540762Y-40670723D01*
X120490302Y-40730859D01*
X120487338Y-40736251D01*
X120487335Y-40736255D01*
X120481176Y-40747459D01*
X120399746Y-40895580D01*
X120342909Y-41074752D01*
X120321956Y-41261552D01*
X111367014Y-41261552D01*
X111344499Y-41140073D01*
X111240068Y-40742008D01*
X111214652Y-40645127D01*
X111214648Y-40645113D01*
X111214068Y-40642903D01*
X111199761Y-40601114D01*
X111048321Y-40158793D01*
X111048318Y-40158784D01*
X111047577Y-40156621D01*
X111046683Y-40154525D01*
X111046678Y-40154512D01*
X110931799Y-39885184D01*
X110845918Y-39683838D01*
X110842079Y-39676399D01*
X110611236Y-39229151D01*
X110611232Y-39229145D01*
X110610174Y-39227094D01*
X110341613Y-38788841D01*
X110293261Y-38721552D01*
X120321956Y-38721552D01*
X120322472Y-38727696D01*
X120330291Y-38820807D01*
X120337685Y-38908865D01*
X120389497Y-39089555D01*
X120392312Y-39095032D01*
X120392313Y-39095035D01*
X120460182Y-39227094D01*
X120475418Y-39256740D01*
X120479241Y-39261564D01*
X120479244Y-39261568D01*
X120505625Y-39294852D01*
X120592177Y-39404052D01*
X120735324Y-39525880D01*
X120740702Y-39528886D01*
X120740704Y-39528887D01*
X120817366Y-39571732D01*
X120899409Y-39617584D01*
X121078180Y-39675670D01*
X121264830Y-39697927D01*
X121270965Y-39697455D01*
X121270967Y-39697455D01*
X121446105Y-39683979D01*
X121446109Y-39683978D01*
X121452247Y-39683506D01*
X121537378Y-39659737D01*
X121627350Y-39634616D01*
X121627353Y-39634615D01*
X121633294Y-39632956D01*
X121638798Y-39630176D01*
X121638800Y-39630175D01*
X121795574Y-39550983D01*
X121795576Y-39550982D01*
X121801075Y-39548204D01*
X121949199Y-39432477D01*
X121953225Y-39427813D01*
X122067994Y-39294852D01*
X122067995Y-39294850D01*
X122072023Y-39290184D01*
X122164870Y-39126744D01*
X122224203Y-38948382D01*
X122247762Y-38761892D01*
X122248138Y-38735000D01*
X122246819Y-38721552D01*
X122861956Y-38721552D01*
X122862472Y-38727696D01*
X122870291Y-38820807D01*
X122877685Y-38908865D01*
X122929497Y-39089555D01*
X122932312Y-39095032D01*
X122932313Y-39095035D01*
X123000182Y-39227094D01*
X123015418Y-39256740D01*
X123019241Y-39261564D01*
X123019244Y-39261568D01*
X123045625Y-39294852D01*
X123132177Y-39404052D01*
X123275324Y-39525880D01*
X123280702Y-39528886D01*
X123280704Y-39528887D01*
X123357366Y-39571732D01*
X123439409Y-39617584D01*
X123618180Y-39675670D01*
X123804830Y-39697927D01*
X123810965Y-39697455D01*
X123810967Y-39697455D01*
X123986105Y-39683979D01*
X123986109Y-39683978D01*
X123992247Y-39683506D01*
X124077378Y-39659737D01*
X124167350Y-39634616D01*
X124167353Y-39634615D01*
X124173294Y-39632956D01*
X124178798Y-39630176D01*
X124178800Y-39630175D01*
X124335574Y-39550983D01*
X124335576Y-39550982D01*
X124341075Y-39548204D01*
X124489199Y-39432477D01*
X124493225Y-39427813D01*
X124607994Y-39294852D01*
X124607995Y-39294850D01*
X124612023Y-39290184D01*
X124704870Y-39126744D01*
X124764203Y-38948382D01*
X124787762Y-38761892D01*
X124788138Y-38735000D01*
X124786819Y-38721552D01*
X125401956Y-38721552D01*
X125402472Y-38727696D01*
X125410291Y-38820807D01*
X125417685Y-38908865D01*
X125469497Y-39089555D01*
X125472312Y-39095032D01*
X125472313Y-39095035D01*
X125540182Y-39227094D01*
X125555418Y-39256740D01*
X125559241Y-39261564D01*
X125559244Y-39261568D01*
X125585625Y-39294852D01*
X125672177Y-39404052D01*
X125815324Y-39525880D01*
X125820702Y-39528886D01*
X125820704Y-39528887D01*
X125897366Y-39571732D01*
X125979409Y-39617584D01*
X126158180Y-39675670D01*
X126344830Y-39697927D01*
X126350965Y-39697455D01*
X126350967Y-39697455D01*
X126526105Y-39683979D01*
X126526109Y-39683978D01*
X126532247Y-39683506D01*
X126617378Y-39659737D01*
X126707350Y-39634616D01*
X126707353Y-39634615D01*
X126713294Y-39632956D01*
X126718798Y-39630176D01*
X126718800Y-39630175D01*
X126875574Y-39550983D01*
X126875576Y-39550982D01*
X126881075Y-39548204D01*
X127029199Y-39432477D01*
X127033225Y-39427813D01*
X127147994Y-39294852D01*
X127147995Y-39294850D01*
X127152023Y-39290184D01*
X127244870Y-39126744D01*
X127304203Y-38948382D01*
X127327762Y-38761892D01*
X127328138Y-38735000D01*
X127309795Y-38547926D01*
X127255465Y-38367977D01*
X127167218Y-38202008D01*
X127048415Y-38056340D01*
X126986914Y-38005462D01*
X126908329Y-37940450D01*
X126908324Y-37940447D01*
X126903580Y-37936522D01*
X126898161Y-37933592D01*
X126898158Y-37933590D01*
X126828671Y-37896019D01*
X126738231Y-37847119D01*
X126558666Y-37791534D01*
X126552541Y-37790890D01*
X126552540Y-37790890D01*
X126377852Y-37772529D01*
X126377851Y-37772529D01*
X126371724Y-37771885D01*
X126294673Y-37778897D01*
X126190665Y-37788363D01*
X126190662Y-37788364D01*
X126184526Y-37788922D01*
X126178620Y-37790660D01*
X126178616Y-37790661D01*
X126045278Y-37829905D01*
X126004202Y-37841994D01*
X125837621Y-37929080D01*
X125691128Y-38046864D01*
X125687170Y-38051582D01*
X125687167Y-38051584D01*
X125599797Y-38155708D01*
X125570302Y-38190859D01*
X125567338Y-38196251D01*
X125567335Y-38196255D01*
X125561176Y-38207459D01*
X125479746Y-38355580D01*
X125422909Y-38534752D01*
X125401956Y-38721552D01*
X124786819Y-38721552D01*
X124769795Y-38547926D01*
X124715465Y-38367977D01*
X124627218Y-38202008D01*
X124508415Y-38056340D01*
X124446914Y-38005462D01*
X124368329Y-37940450D01*
X124368324Y-37940447D01*
X124363580Y-37936522D01*
X124358161Y-37933592D01*
X124358158Y-37933590D01*
X124288671Y-37896019D01*
X124198231Y-37847119D01*
X124018666Y-37791534D01*
X124012541Y-37790890D01*
X124012540Y-37790890D01*
X123837852Y-37772529D01*
X123837851Y-37772529D01*
X123831724Y-37771885D01*
X123754673Y-37778897D01*
X123650665Y-37788363D01*
X123650662Y-37788364D01*
X123644526Y-37788922D01*
X123638620Y-37790660D01*
X123638616Y-37790661D01*
X123505278Y-37829905D01*
X123464202Y-37841994D01*
X123297621Y-37929080D01*
X123151128Y-38046864D01*
X123147170Y-38051582D01*
X123147167Y-38051584D01*
X123059797Y-38155708D01*
X123030302Y-38190859D01*
X123027338Y-38196251D01*
X123027335Y-38196255D01*
X123021176Y-38207459D01*
X122939746Y-38355580D01*
X122882909Y-38534752D01*
X122861956Y-38721552D01*
X122246819Y-38721552D01*
X122229795Y-38547926D01*
X122175465Y-38367977D01*
X122087218Y-38202008D01*
X121968415Y-38056340D01*
X121906914Y-38005462D01*
X121828329Y-37940450D01*
X121828324Y-37940447D01*
X121823580Y-37936522D01*
X121818161Y-37933592D01*
X121818158Y-37933590D01*
X121748671Y-37896019D01*
X121658231Y-37847119D01*
X121478666Y-37791534D01*
X121472541Y-37790890D01*
X121472540Y-37790890D01*
X121297852Y-37772529D01*
X121297851Y-37772529D01*
X121291724Y-37771885D01*
X121214673Y-37778897D01*
X121110665Y-37788363D01*
X121110662Y-37788364D01*
X121104526Y-37788922D01*
X121098620Y-37790660D01*
X121098616Y-37790661D01*
X120965278Y-37829905D01*
X120924202Y-37841994D01*
X120757621Y-37929080D01*
X120611128Y-38046864D01*
X120607170Y-38051582D01*
X120607167Y-38051584D01*
X120519797Y-38155708D01*
X120490302Y-38190859D01*
X120487338Y-38196251D01*
X120487335Y-38196255D01*
X120481176Y-38207459D01*
X120399746Y-38355580D01*
X120342909Y-38534752D01*
X120321956Y-38721552D01*
X110293261Y-38721552D01*
X110041676Y-38371435D01*
X109711975Y-37977117D01*
X109354280Y-37608004D01*
X109058802Y-37344742D01*
X108972233Y-37267612D01*
X108972227Y-37267607D01*
X108970512Y-37266079D01*
X108562733Y-36953179D01*
X108560828Y-36951928D01*
X108560813Y-36951917D01*
X108135061Y-36672251D01*
X108135052Y-36672246D01*
X108133133Y-36670985D01*
X107684019Y-36421011D01*
X107527466Y-36348342D01*
X107219889Y-36205569D01*
X107219882Y-36205566D01*
X107217803Y-36204601D01*
X106770677Y-36035646D01*
X106739139Y-36023729D01*
X106739138Y-36023729D01*
X106736990Y-36022917D01*
X106734789Y-36022265D01*
X106734783Y-36022263D01*
X106246389Y-35877594D01*
X106246380Y-35877592D01*
X106244163Y-35876935D01*
X105741967Y-35767439D01*
X105233100Y-35695016D01*
X104720296Y-35660057D01*
X104717979Y-35660069D01*
X104717975Y-35660069D01*
X104433884Y-35661557D01*
X104206309Y-35662748D01*
X104087058Y-35672133D01*
X103696196Y-35702894D01*
X103696190Y-35702895D01*
X103693899Y-35703075D01*
X103495563Y-35733425D01*
X103188112Y-35780472D01*
X103188109Y-35780473D01*
X103185819Y-35780823D01*
X103183565Y-35781339D01*
X103183561Y-35781340D01*
X102687049Y-35895056D01*
X102687043Y-35895058D01*
X102684797Y-35895572D01*
X102682589Y-35896251D01*
X102682590Y-35896251D01*
X102195728Y-36046029D01*
X102195721Y-36046031D01*
X102193525Y-36046707D01*
X102191380Y-36047543D01*
X102191378Y-36047544D01*
X102061065Y-36098351D01*
X101714641Y-36233416D01*
X101588037Y-36293803D01*
X101258444Y-36451011D01*
X101250718Y-36454696D01*
X101248730Y-36455830D01*
X100806247Y-36708217D01*
X100806234Y-36708225D01*
X100804246Y-36709359D01*
X100377625Y-36996037D01*
X99973144Y-37313190D01*
X99592978Y-37659114D01*
X99239168Y-38031953D01*
X98913614Y-38429702D01*
X98912295Y-38431579D01*
X98912288Y-38431588D01*
X98640122Y-38818841D01*
X98618064Y-38850226D01*
X98616873Y-38852216D01*
X98391283Y-39229151D01*
X98354107Y-39291267D01*
X98123160Y-39750455D01*
X98122276Y-39752590D01*
X98122272Y-39752598D01*
X97943367Y-40184512D01*
X97926463Y-40225323D01*
X97925744Y-40227497D01*
X97778440Y-40672903D01*
X97765072Y-40713323D01*
X97639856Y-41211831D01*
X97639462Y-41214089D01*
X97639460Y-41214098D01*
X97567985Y-41623631D01*
X97551485Y-41718172D01*
X97500435Y-42229625D01*
X97499589Y-42261924D01*
X97488119Y-42700000D01*
X97486981Y-42743443D01*
X97028500Y-42743443D01*
X97028500Y-35500000D01*
X116086496Y-35500000D01*
X116106458Y-35689928D01*
X116165473Y-35871556D01*
X116260960Y-36036944D01*
X116265378Y-36041851D01*
X116265379Y-36041852D01*
X116347452Y-36133003D01*
X116388747Y-36178866D01*
X116543248Y-36291118D01*
X116549276Y-36293802D01*
X116549278Y-36293803D01*
X116705365Y-36363297D01*
X116717712Y-36368794D01*
X116811112Y-36388647D01*
X116898056Y-36407128D01*
X116898061Y-36407128D01*
X116904513Y-36408500D01*
X117095487Y-36408500D01*
X117101939Y-36407128D01*
X117101944Y-36407128D01*
X117188888Y-36388647D01*
X117282288Y-36368794D01*
X117294635Y-36363297D01*
X117450722Y-36293803D01*
X117450724Y-36293802D01*
X117456752Y-36291118D01*
X117494881Y-36263416D01*
X117589671Y-36194546D01*
X117611253Y-36178866D01*
X117615668Y-36173963D01*
X117620580Y-36169540D01*
X117621705Y-36170789D01*
X117675014Y-36137949D01*
X117708200Y-36133500D01*
X118171233Y-36133500D01*
X118182416Y-36134027D01*
X118189909Y-36135702D01*
X118197835Y-36135453D01*
X118197836Y-36135453D01*
X118257986Y-36133562D01*
X118261945Y-36133500D01*
X118289856Y-36133500D01*
X118293791Y-36133003D01*
X118293856Y-36132995D01*
X118305693Y-36132062D01*
X118337951Y-36131048D01*
X118341970Y-36130922D01*
X118349889Y-36130673D01*
X118369343Y-36125021D01*
X118388700Y-36121013D01*
X118400930Y-36119468D01*
X118400931Y-36119468D01*
X118408797Y-36118474D01*
X118416168Y-36115555D01*
X118416170Y-36115555D01*
X118449912Y-36102196D01*
X118461142Y-36098351D01*
X118495983Y-36088229D01*
X118495984Y-36088229D01*
X118503593Y-36086018D01*
X118510412Y-36081985D01*
X118510417Y-36081983D01*
X118521028Y-36075707D01*
X118538776Y-36067012D01*
X118557617Y-36059552D01*
X118566750Y-36052917D01*
X118593387Y-36033564D01*
X118603307Y-36027048D01*
X118641362Y-36004542D01*
X118642336Y-36006188D01*
X118698871Y-35983993D01*
X118710008Y-35983500D01*
X118898134Y-35983500D01*
X118960316Y-35976745D01*
X119096705Y-35925615D01*
X119213261Y-35838261D01*
X119300615Y-35721705D01*
X119351745Y-35585316D01*
X119358500Y-35523134D01*
X119358500Y-35339594D01*
X119378502Y-35271473D01*
X119395405Y-35250499D01*
X121031364Y-33614540D01*
X121093676Y-33580514D01*
X121138539Y-33578939D01*
X121189663Y-33586352D01*
X121189667Y-33586352D01*
X121195604Y-33587213D01*
X121406899Y-33577433D01*
X121569443Y-33538260D01*
X121606701Y-33529281D01*
X121606703Y-33529280D01*
X121612534Y-33527875D01*
X121617992Y-33525393D01*
X121617996Y-33525392D01*
X121770409Y-33456093D01*
X121805087Y-33440326D01*
X121977611Y-33317946D01*
X122123881Y-33165150D01*
X122127688Y-33159255D01*
X122144746Y-33132837D01*
X122198501Y-33086460D01*
X122268797Y-33076507D01*
X122333314Y-33106139D01*
X122349681Y-33123351D01*
X122443604Y-33242920D01*
X122448135Y-33246852D01*
X122448138Y-33246855D01*
X122534058Y-33321412D01*
X122603363Y-33381552D01*
X122608549Y-33384552D01*
X122608553Y-33384555D01*
X122754408Y-33468934D01*
X122786454Y-33487473D01*
X122986271Y-33556861D01*
X122992206Y-33557722D01*
X122992208Y-33557722D01*
X123189664Y-33586352D01*
X123189667Y-33586352D01*
X123195604Y-33587213D01*
X123406899Y-33577433D01*
X123569443Y-33538260D01*
X123606701Y-33529281D01*
X123606703Y-33529280D01*
X123612534Y-33527875D01*
X123617992Y-33525393D01*
X123617996Y-33525392D01*
X123770409Y-33456093D01*
X123805087Y-33440326D01*
X123977611Y-33317946D01*
X124123881Y-33165150D01*
X124127688Y-33159255D01*
X124144746Y-33132837D01*
X124198501Y-33086460D01*
X124268797Y-33076507D01*
X124333314Y-33106139D01*
X124349681Y-33123351D01*
X124443604Y-33242920D01*
X124448135Y-33246852D01*
X124448138Y-33246855D01*
X124534058Y-33321412D01*
X124603363Y-33381552D01*
X124608549Y-33384552D01*
X124608553Y-33384555D01*
X124754408Y-33468934D01*
X124786454Y-33487473D01*
X124986271Y-33556861D01*
X124992206Y-33557722D01*
X124992208Y-33557722D01*
X125189664Y-33586352D01*
X125189667Y-33586352D01*
X125195604Y-33587213D01*
X125406899Y-33577433D01*
X125569443Y-33538260D01*
X125606701Y-33529281D01*
X125606703Y-33529280D01*
X125612534Y-33527875D01*
X125617992Y-33525393D01*
X125617996Y-33525392D01*
X125770409Y-33456093D01*
X125805087Y-33440326D01*
X125977611Y-33317946D01*
X126123881Y-33165150D01*
X126127688Y-33159255D01*
X126144746Y-33132837D01*
X126198501Y-33086460D01*
X126268797Y-33076507D01*
X126333314Y-33106139D01*
X126349681Y-33123351D01*
X126443604Y-33242920D01*
X126448135Y-33246852D01*
X126448138Y-33246855D01*
X126534058Y-33321412D01*
X126603363Y-33381552D01*
X126608549Y-33384552D01*
X126608553Y-33384555D01*
X126754408Y-33468934D01*
X126786454Y-33487473D01*
X126792115Y-33489439D01*
X126797084Y-33491714D01*
X126850694Y-33538260D01*
X126870629Y-33606400D01*
X126850560Y-33674501D01*
X126833724Y-33695371D01*
X126449500Y-34079595D01*
X126387188Y-34113621D01*
X126360405Y-34116500D01*
X121728768Y-34116500D01*
X121717585Y-34115973D01*
X121710092Y-34114298D01*
X121702166Y-34114547D01*
X121702165Y-34114547D01*
X121642002Y-34116438D01*
X121638044Y-34116500D01*
X121610144Y-34116500D01*
X121606154Y-34117004D01*
X121594320Y-34117936D01*
X121550111Y-34119326D01*
X121542495Y-34121539D01*
X121542493Y-34121539D01*
X121530652Y-34124979D01*
X121511293Y-34128988D01*
X121509983Y-34129154D01*
X121491203Y-34131526D01*
X121483837Y-34134442D01*
X121483831Y-34134444D01*
X121450098Y-34147800D01*
X121438868Y-34151645D01*
X121404017Y-34161770D01*
X121396407Y-34163981D01*
X121389584Y-34168016D01*
X121378966Y-34174295D01*
X121361213Y-34182992D01*
X121353568Y-34186019D01*
X121342383Y-34190448D01*
X121335968Y-34195109D01*
X121306612Y-34216437D01*
X121296695Y-34222951D01*
X121258638Y-34245458D01*
X121244317Y-34259779D01*
X121229284Y-34272619D01*
X121212893Y-34284528D01*
X121207843Y-34290632D01*
X121207838Y-34290637D01*
X121184707Y-34318598D01*
X121176717Y-34327379D01*
X120374499Y-35129596D01*
X120312187Y-35163621D01*
X120285404Y-35166500D01*
X120101866Y-35166500D01*
X120039684Y-35173255D01*
X119903295Y-35224385D01*
X119786739Y-35311739D01*
X119699385Y-35428295D01*
X119648255Y-35564684D01*
X119641500Y-35626866D01*
X119641500Y-36173134D01*
X119648255Y-36235316D01*
X119699385Y-36371705D01*
X119786739Y-36488261D01*
X119903295Y-36575615D01*
X120039684Y-36626745D01*
X120101866Y-36633500D01*
X120898134Y-36633500D01*
X120960316Y-36626745D01*
X121096705Y-36575615D01*
X121213261Y-36488261D01*
X121300615Y-36371705D01*
X121351745Y-36235316D01*
X121358500Y-36173134D01*
X121358500Y-35989594D01*
X121378502Y-35921473D01*
X121395405Y-35900499D01*
X121875499Y-35420405D01*
X121937811Y-35386379D01*
X121964594Y-35383500D01*
X126596233Y-35383500D01*
X126607416Y-35384027D01*
X126614909Y-35385702D01*
X126622835Y-35385453D01*
X126622836Y-35385453D01*
X126682986Y-35383562D01*
X126686945Y-35383500D01*
X126714856Y-35383500D01*
X126718791Y-35383003D01*
X126718856Y-35382995D01*
X126730693Y-35382062D01*
X126762951Y-35381048D01*
X126766970Y-35380922D01*
X126774889Y-35380673D01*
X126794343Y-35375021D01*
X126813700Y-35371013D01*
X126825930Y-35369468D01*
X126825931Y-35369468D01*
X126833797Y-35368474D01*
X126841168Y-35365555D01*
X126841170Y-35365555D01*
X126874912Y-35352196D01*
X126886142Y-35348351D01*
X126920983Y-35338229D01*
X126920984Y-35338229D01*
X126928593Y-35336018D01*
X126935412Y-35331985D01*
X126935417Y-35331983D01*
X126946028Y-35325707D01*
X126963776Y-35317012D01*
X126982617Y-35309552D01*
X126990543Y-35303794D01*
X127018387Y-35283564D01*
X127028307Y-35277048D01*
X127059535Y-35258580D01*
X127059538Y-35258578D01*
X127066362Y-35254542D01*
X127080683Y-35240221D01*
X127095717Y-35227380D01*
X127099839Y-35224385D01*
X127112107Y-35215472D01*
X127140298Y-35181395D01*
X127148288Y-35172616D01*
X128765487Y-33555418D01*
X128827799Y-33521392D01*
X128895914Y-33525485D01*
X128980603Y-33554893D01*
X128980605Y-33554894D01*
X128986271Y-33556861D01*
X128992206Y-33557722D01*
X128992208Y-33557722D01*
X129189664Y-33586352D01*
X129189667Y-33586352D01*
X129195604Y-33587213D01*
X129406899Y-33577433D01*
X129569443Y-33538260D01*
X129606701Y-33529281D01*
X129606703Y-33529280D01*
X129612534Y-33527875D01*
X129617992Y-33525393D01*
X129617996Y-33525392D01*
X129770409Y-33456093D01*
X129805087Y-33440326D01*
X129977611Y-33317946D01*
X130123881Y-33165150D01*
X130238620Y-32987452D01*
X130287944Y-32865062D01*
X130315442Y-32796832D01*
X130315443Y-32796829D01*
X130317686Y-32791263D01*
X130358228Y-32583663D01*
X130358500Y-32578101D01*
X130358500Y-31822154D01*
X130346845Y-31700000D01*
X132286835Y-31700000D01*
X132305465Y-31936711D01*
X132360895Y-32167594D01*
X132362788Y-32172165D01*
X132362789Y-32172167D01*
X132419260Y-32308500D01*
X132451760Y-32386963D01*
X132454346Y-32391183D01*
X132573241Y-32585202D01*
X132573245Y-32585208D01*
X132575824Y-32589416D01*
X132730031Y-32769969D01*
X132910584Y-32924176D01*
X132914792Y-32926755D01*
X132914798Y-32926759D01*
X133022060Y-32992489D01*
X133113037Y-33048240D01*
X133117607Y-33050133D01*
X133117611Y-33050135D01*
X133327833Y-33137211D01*
X133332406Y-33139105D01*
X133412609Y-33158360D01*
X133558476Y-33193380D01*
X133558482Y-33193381D01*
X133563289Y-33194535D01*
X133800000Y-33213165D01*
X134036711Y-33194535D01*
X134041518Y-33193381D01*
X134041524Y-33193380D01*
X134187391Y-33158360D01*
X134267594Y-33139105D01*
X134272167Y-33137211D01*
X134482389Y-33050135D01*
X134482393Y-33050133D01*
X134486963Y-33048240D01*
X134577940Y-32992489D01*
X134685202Y-32926759D01*
X134685208Y-32926755D01*
X134689416Y-32924176D01*
X134869969Y-32769969D01*
X135024176Y-32589416D01*
X135026755Y-32585208D01*
X135026759Y-32585202D01*
X135145654Y-32391183D01*
X135148240Y-32386963D01*
X135180741Y-32308500D01*
X135237211Y-32172167D01*
X135237212Y-32172165D01*
X135239105Y-32167594D01*
X135294535Y-31936711D01*
X135313165Y-31700000D01*
X135294535Y-31463289D01*
X135292819Y-31456138D01*
X135248969Y-31273493D01*
X135239105Y-31232406D01*
X135232791Y-31217163D01*
X135150135Y-31017611D01*
X135150133Y-31017607D01*
X135148240Y-31013037D01*
X135120916Y-30968448D01*
X135026759Y-30814798D01*
X135026755Y-30814792D01*
X135024176Y-30810584D01*
X134869969Y-30630031D01*
X134689416Y-30475824D01*
X134685208Y-30473245D01*
X134685202Y-30473241D01*
X134491183Y-30354346D01*
X134486963Y-30351760D01*
X134482393Y-30349867D01*
X134482389Y-30349865D01*
X134272167Y-30262789D01*
X134272165Y-30262788D01*
X134267594Y-30260895D01*
X134187391Y-30241640D01*
X134041524Y-30206620D01*
X134041518Y-30206619D01*
X134036711Y-30205465D01*
X133800000Y-30186835D01*
X133563289Y-30205465D01*
X133558482Y-30206619D01*
X133558476Y-30206620D01*
X133412609Y-30241640D01*
X133332406Y-30260895D01*
X133327835Y-30262788D01*
X133327833Y-30262789D01*
X133117611Y-30349865D01*
X133117607Y-30349867D01*
X133113037Y-30351760D01*
X133108817Y-30354346D01*
X132914798Y-30473241D01*
X132914792Y-30473245D01*
X132910584Y-30475824D01*
X132730031Y-30630031D01*
X132575824Y-30810584D01*
X132573245Y-30814792D01*
X132573241Y-30814798D01*
X132479084Y-30968448D01*
X132451760Y-31013037D01*
X132449867Y-31017607D01*
X132449865Y-31017611D01*
X132367209Y-31217163D01*
X132360895Y-31232406D01*
X132351031Y-31273493D01*
X132307182Y-31456138D01*
X132305465Y-31463289D01*
X132286835Y-31700000D01*
X130346845Y-31700000D01*
X130343452Y-31664434D01*
X130283908Y-31461466D01*
X130230368Y-31357511D01*
X130189804Y-31278751D01*
X130189802Y-31278748D01*
X130187058Y-31273420D01*
X130056396Y-31107080D01*
X130051865Y-31103148D01*
X130051862Y-31103145D01*
X129901167Y-30972379D01*
X129896637Y-30968448D01*
X129891451Y-30965448D01*
X129891447Y-30965445D01*
X129718742Y-30865533D01*
X129713546Y-30862527D01*
X129513729Y-30793139D01*
X129507794Y-30792278D01*
X129507792Y-30792278D01*
X129310336Y-30763648D01*
X129310333Y-30763648D01*
X129304396Y-30762787D01*
X129093101Y-30772567D01*
X128961923Y-30804181D01*
X128893299Y-30820719D01*
X128893297Y-30820720D01*
X128887466Y-30822125D01*
X128882008Y-30824607D01*
X128882004Y-30824608D01*
X128784867Y-30868774D01*
X128694913Y-30909674D01*
X128522389Y-31032054D01*
X128376119Y-31184850D01*
X128372868Y-31189885D01*
X128372866Y-31189888D01*
X128355254Y-31217163D01*
X128301499Y-31263540D01*
X128231203Y-31273493D01*
X128166686Y-31243861D01*
X128150317Y-31226647D01*
X128142453Y-31216635D01*
X128056396Y-31107080D01*
X128051865Y-31103148D01*
X128051862Y-31103145D01*
X127901167Y-30972379D01*
X127896637Y-30968448D01*
X127891451Y-30965448D01*
X127891447Y-30965445D01*
X127718742Y-30865533D01*
X127713546Y-30862527D01*
X127513729Y-30793139D01*
X127507794Y-30792278D01*
X127507792Y-30792278D01*
X127310336Y-30763648D01*
X127310333Y-30763648D01*
X127304396Y-30762787D01*
X127093101Y-30772567D01*
X126961923Y-30804181D01*
X126893299Y-30820719D01*
X126893297Y-30820720D01*
X126887466Y-30822125D01*
X126882008Y-30824607D01*
X126882004Y-30824608D01*
X126784867Y-30868774D01*
X126694913Y-30909674D01*
X126522389Y-31032054D01*
X126376119Y-31184850D01*
X126372868Y-31189885D01*
X126372866Y-31189888D01*
X126355254Y-31217163D01*
X126301499Y-31263540D01*
X126231203Y-31273493D01*
X126166686Y-31243861D01*
X126150317Y-31226647D01*
X126142453Y-31216635D01*
X126056396Y-31107080D01*
X126051865Y-31103148D01*
X126051862Y-31103145D01*
X125901167Y-30972379D01*
X125896637Y-30968448D01*
X125891451Y-30965448D01*
X125891447Y-30965445D01*
X125718742Y-30865533D01*
X125713546Y-30862527D01*
X125513729Y-30793139D01*
X125507794Y-30792278D01*
X125507792Y-30792278D01*
X125310336Y-30763648D01*
X125310333Y-30763648D01*
X125304396Y-30762787D01*
X125093101Y-30772567D01*
X124961923Y-30804181D01*
X124893299Y-30820719D01*
X124893297Y-30820720D01*
X124887466Y-30822125D01*
X124882008Y-30824607D01*
X124882004Y-30824608D01*
X124784867Y-30868774D01*
X124694913Y-30909674D01*
X124522389Y-31032054D01*
X124376119Y-31184850D01*
X124372868Y-31189885D01*
X124372866Y-31189888D01*
X124355254Y-31217163D01*
X124301499Y-31263540D01*
X124231203Y-31273493D01*
X124166686Y-31243861D01*
X124150317Y-31226647D01*
X124142453Y-31216635D01*
X124056396Y-31107080D01*
X124051865Y-31103148D01*
X124051862Y-31103145D01*
X123901167Y-30972379D01*
X123896637Y-30968448D01*
X123891451Y-30965448D01*
X123891447Y-30965445D01*
X123718742Y-30865533D01*
X123713546Y-30862527D01*
X123513729Y-30793139D01*
X123507794Y-30792278D01*
X123507792Y-30792278D01*
X123310336Y-30763648D01*
X123310333Y-30763648D01*
X123304396Y-30762787D01*
X123093101Y-30772567D01*
X122961923Y-30804181D01*
X122893299Y-30820719D01*
X122893297Y-30820720D01*
X122887466Y-30822125D01*
X122882008Y-30824607D01*
X122882004Y-30824608D01*
X122784867Y-30868774D01*
X122694913Y-30909674D01*
X122522389Y-31032054D01*
X122376119Y-31184850D01*
X122372868Y-31189885D01*
X122372866Y-31189888D01*
X122355254Y-31217163D01*
X122301499Y-31263540D01*
X122231203Y-31273493D01*
X122166686Y-31243861D01*
X122150317Y-31226647D01*
X122142453Y-31216635D01*
X122056396Y-31107080D01*
X122051865Y-31103148D01*
X122051862Y-31103145D01*
X121901167Y-30972379D01*
X121896637Y-30968448D01*
X121891451Y-30965448D01*
X121891447Y-30965445D01*
X121718742Y-30865533D01*
X121713546Y-30862527D01*
X121513729Y-30793139D01*
X121507794Y-30792278D01*
X121507792Y-30792278D01*
X121310336Y-30763648D01*
X121310333Y-30763648D01*
X121304396Y-30762787D01*
X121093101Y-30772567D01*
X120961923Y-30804181D01*
X120893299Y-30820719D01*
X120893297Y-30820720D01*
X120887466Y-30822125D01*
X120882008Y-30824607D01*
X120882004Y-30824608D01*
X120784867Y-30868774D01*
X120694913Y-30909674D01*
X120522389Y-31032054D01*
X120376119Y-31184850D01*
X120261380Y-31362548D01*
X120182314Y-31558737D01*
X120141772Y-31766337D01*
X120141500Y-31771899D01*
X120141500Y-32527846D01*
X120147733Y-32593175D01*
X120151954Y-32637414D01*
X120138513Y-32707126D01*
X120115619Y-32738476D01*
X118374500Y-34479595D01*
X118312188Y-34513621D01*
X118285405Y-34516500D01*
X118101866Y-34516500D01*
X118039684Y-34523255D01*
X117903295Y-34574385D01*
X117786739Y-34661739D01*
X117748499Y-34712763D01*
X117721979Y-34748148D01*
X117665119Y-34790662D01*
X117594301Y-34795687D01*
X117547092Y-34774518D01*
X117462094Y-34712763D01*
X117462093Y-34712762D01*
X117456752Y-34708882D01*
X117450724Y-34706198D01*
X117450722Y-34706197D01*
X117288319Y-34633891D01*
X117288318Y-34633891D01*
X117282288Y-34631206D01*
X117188887Y-34611353D01*
X117101944Y-34592872D01*
X117101939Y-34592872D01*
X117095487Y-34591500D01*
X116904513Y-34591500D01*
X116898061Y-34592872D01*
X116898056Y-34592872D01*
X116811112Y-34611353D01*
X116717712Y-34631206D01*
X116711682Y-34633891D01*
X116711681Y-34633891D01*
X116549278Y-34706197D01*
X116549276Y-34706198D01*
X116543248Y-34708882D01*
X116388747Y-34821134D01*
X116260960Y-34963056D01*
X116165473Y-35128444D01*
X116106458Y-35310072D01*
X116105768Y-35316633D01*
X116105768Y-35316635D01*
X116098793Y-35383003D01*
X116086496Y-35500000D01*
X97028500Y-35500000D01*
X97028500Y-33652299D01*
X112488795Y-33652299D01*
X112508757Y-33842227D01*
X112567772Y-34023855D01*
X112663259Y-34189243D01*
X112667677Y-34194150D01*
X112667678Y-34194151D01*
X112726770Y-34259779D01*
X112791046Y-34331165D01*
X112945547Y-34443417D01*
X112951575Y-34446101D01*
X112951577Y-34446102D01*
X113113980Y-34518408D01*
X113120011Y-34521093D01*
X113213412Y-34540946D01*
X113300355Y-34559427D01*
X113300360Y-34559427D01*
X113306812Y-34560799D01*
X113497786Y-34560799D01*
X113504238Y-34559427D01*
X113504243Y-34559427D01*
X113591187Y-34540946D01*
X113684587Y-34521093D01*
X113690618Y-34518408D01*
X113853021Y-34446102D01*
X113853023Y-34446101D01*
X113859051Y-34443417D01*
X114013552Y-34331165D01*
X114077828Y-34259779D01*
X114136920Y-34194151D01*
X114136921Y-34194150D01*
X114141339Y-34189243D01*
X114236826Y-34023855D01*
X114295841Y-33842227D01*
X114315803Y-33652299D01*
X114312812Y-33623836D01*
X114325585Y-33553997D01*
X114349027Y-33521572D01*
X115525195Y-32345405D01*
X115587507Y-32311379D01*
X115614290Y-32308500D01*
X115695487Y-32308500D01*
X115701939Y-32307128D01*
X115701944Y-32307128D01*
X115788888Y-32288647D01*
X115882288Y-32268794D01*
X115888319Y-32266109D01*
X116050722Y-32193803D01*
X116050724Y-32193802D01*
X116056752Y-32191118D01*
X116211253Y-32078866D01*
X116339040Y-31936944D01*
X116434527Y-31771556D01*
X116493542Y-31589928D01*
X116513504Y-31400000D01*
X116507935Y-31347016D01*
X116494232Y-31216635D01*
X116494232Y-31216633D01*
X116493542Y-31210072D01*
X116434527Y-31028444D01*
X116339040Y-30863056D01*
X116295589Y-30814798D01*
X116215675Y-30726045D01*
X116215674Y-30726044D01*
X116211253Y-30721134D01*
X116056752Y-30608882D01*
X116050724Y-30606198D01*
X116050722Y-30606197D01*
X115888319Y-30533891D01*
X115888318Y-30533891D01*
X115882288Y-30531206D01*
X115788888Y-30511353D01*
X115701944Y-30492872D01*
X115701939Y-30492872D01*
X115695487Y-30491500D01*
X115504513Y-30491500D01*
X115498061Y-30492872D01*
X115498056Y-30492872D01*
X115411112Y-30511353D01*
X115317712Y-30531206D01*
X115311682Y-30533891D01*
X115311681Y-30533891D01*
X115149278Y-30606197D01*
X115149276Y-30606198D01*
X115143248Y-30608882D01*
X114988747Y-30721134D01*
X114984326Y-30726044D01*
X114984325Y-30726045D01*
X114904412Y-30814798D01*
X114860960Y-30863056D01*
X114765473Y-31028444D01*
X114706458Y-31210072D01*
X114705768Y-31216633D01*
X114705768Y-31216635D01*
X114692065Y-31347016D01*
X114665052Y-31412673D01*
X114655850Y-31422941D01*
X113368990Y-32709800D01*
X113306092Y-32743952D01*
X113120011Y-32783505D01*
X113113981Y-32786190D01*
X113113980Y-32786190D01*
X112951577Y-32858496D01*
X112951575Y-32858497D01*
X112945547Y-32861181D01*
X112791046Y-32973433D01*
X112786625Y-32978343D01*
X112786624Y-32978344D01*
X112723690Y-33048240D01*
X112663259Y-33115355D01*
X112567772Y-33280743D01*
X112508757Y-33462371D01*
X112508067Y-33468932D01*
X112508067Y-33468934D01*
X112496505Y-33578939D01*
X112488795Y-33652299D01*
X97028500Y-33652299D01*
X97028500Y-29844500D01*
X97048502Y-29776379D01*
X97102158Y-29729886D01*
X97154500Y-29718500D01*
X144145500Y-29718500D01*
X144213621Y-29738502D01*
G37*
%TD.AperFunction*%
%TD*%
M02*
