%TF.GenerationSoftware,KiCad,Pcbnew,(6.0.8)*%
%TF.CreationDate,2023-11-18T01:52:55+01:00*%
%TF.ProjectId,BTS50005-1LUA_TestBoard,42545335-3030-4303-952d-314c55415f54,rev?*%
%TF.SameCoordinates,Original*%
%TF.FileFunction,Soldermask,Top*%
%TF.FilePolarity,Negative*%
%FSLAX46Y46*%
G04 Gerber Fmt 4.6, Leading zero omitted, Abs format (unit mm)*
G04 Created by KiCad (PCBNEW (6.0.8)) date 2023-11-18 01:52:55*
%MOMM*%
%LPD*%
G01*
G04 APERTURE LIST*
G04 Aperture macros list*
%AMRoundRect*
0 Rectangle with rounded corners*
0 $1 Rounding radius*
0 $2 $3 $4 $5 $6 $7 $8 $9 X,Y pos of 4 corners*
0 Add a 4 corners polygon primitive as box body*
4,1,4,$2,$3,$4,$5,$6,$7,$8,$9,$2,$3,0*
0 Add four circle primitives for the rounded corners*
1,1,$1+$1,$2,$3*
1,1,$1+$1,$4,$5*
1,1,$1+$1,$6,$7*
1,1,$1+$1,$8,$9*
0 Add four rect primitives between the rounded corners*
20,1,$1+$1,$2,$3,$4,$5,0*
20,1,$1+$1,$4,$5,$6,$7,0*
20,1,$1+$1,$6,$7,$8,$9,0*
20,1,$1+$1,$8,$9,$2,$3,0*%
G04 Aperture macros list end*
%ADD10R,2.600000X0.800000*%
%ADD11R,2.600000X4.400000*%
%ADD12R,7.410000X10.000000*%
%ADD13R,0.800000X0.600000*%
%ADD14RoundRect,0.250000X-0.350000X-0.650000X0.350000X-0.650000X0.350000X0.650000X-0.350000X0.650000X0*%
%ADD15O,1.200000X1.800000*%
%ADD16C,2.000000*%
%ADD17RoundRect,0.135000X0.185000X-0.135000X0.185000X0.135000X-0.185000X0.135000X-0.185000X-0.135000X0*%
%ADD18RoundRect,0.135000X-0.185000X0.135000X-0.185000X-0.135000X0.185000X-0.135000X0.185000X0.135000X0*%
%ADD19RoundRect,0.140000X-0.170000X0.140000X-0.170000X-0.140000X0.170000X-0.140000X0.170000X0.140000X0*%
%ADD20RoundRect,0.250000X0.475000X-0.250000X0.475000X0.250000X-0.475000X0.250000X-0.475000X-0.250000X0*%
%ADD21C,0.900000*%
%ADD22C,13.000000*%
G04 APERTURE END LIST*
D10*
%TO.C,Q1*%
X116465000Y-38300000D03*
X116465000Y-39500000D03*
X116465000Y-40700000D03*
X116465000Y-41900000D03*
D11*
X116465000Y-44900000D03*
D12*
X124000000Y-42500000D03*
%TD*%
D13*
%TO.C,RT1*%
X123791600Y-35864800D03*
X122791600Y-35864800D03*
%TD*%
D14*
%TO.C,J1*%
X119250000Y-32175000D03*
D15*
X121250000Y-32175000D03*
X123250000Y-32175000D03*
X125250000Y-32175000D03*
X127250000Y-32175000D03*
X129250000Y-32175000D03*
%TD*%
D16*
%TO.C,TP2*%
X111750000Y-48000000D03*
%TD*%
D17*
%TO.C,R1*%
X113000000Y-35500000D03*
X113000000Y-34480000D03*
%TD*%
D18*
%TO.C,R2*%
X116000000Y-34480000D03*
X116000000Y-35500000D03*
%TD*%
D19*
%TO.C,C2*%
X110000000Y-34540000D03*
X110000000Y-35500000D03*
%TD*%
D20*
%TO.C,C3*%
X141200000Y-36250000D03*
X141200000Y-34350000D03*
%TD*%
D21*
%TO.C,H1*%
X135890000Y-37825000D03*
X131015000Y-42700000D03*
D22*
X135890000Y-42700000D03*
D21*
X139337146Y-46147146D03*
X139337146Y-39252854D03*
X135890000Y-47575000D03*
X132442854Y-46147146D03*
X132442854Y-39252854D03*
X140765000Y-42700000D03*
%TD*%
D16*
%TO.C,TP1*%
X133800000Y-31700000D03*
%TD*%
D21*
%TO.C,H2*%
X109375000Y-42670000D03*
D22*
X104500000Y-42670000D03*
D21*
X107947146Y-46117146D03*
X107947146Y-39222854D03*
X101052854Y-39222854D03*
X104500000Y-37795000D03*
X101052854Y-46117146D03*
X104500000Y-47545000D03*
X99625000Y-42670000D03*
%TD*%
D19*
%TO.C,C1*%
X114500000Y-34510000D03*
X114500000Y-35470000D03*
%TD*%
D17*
%TO.C,R3*%
X111500000Y-35550000D03*
X111500000Y-34530000D03*
%TD*%
M02*
