%TF.GenerationSoftware,KiCad,Pcbnew,(6.0.8)*%
%TF.CreationDate,2023-11-01T20:00:16+01:00*%
%TF.ProjectId,BTS50005-1LUA_TestBoard,42545335-3030-4303-952d-314c55415f54,rev?*%
%TF.SameCoordinates,Original*%
%TF.FileFunction,Copper,L1,Top*%
%TF.FilePolarity,Positive*%
%FSLAX46Y46*%
G04 Gerber Fmt 4.6, Leading zero omitted, Abs format (unit mm)*
G04 Created by KiCad (PCBNEW (6.0.8)) date 2023-11-01 20:00:16*
%MOMM*%
%LPD*%
G01*
G04 APERTURE LIST*
G04 Aperture macros list*
%AMRoundRect*
0 Rectangle with rounded corners*
0 $1 Rounding radius*
0 $2 $3 $4 $5 $6 $7 $8 $9 X,Y pos of 4 corners*
0 Add a 4 corners polygon primitive as box body*
4,1,4,$2,$3,$4,$5,$6,$7,$8,$9,$2,$3,0*
0 Add four circle primitives for the rounded corners*
1,1,$1+$1,$2,$3*
1,1,$1+$1,$4,$5*
1,1,$1+$1,$6,$7*
1,1,$1+$1,$8,$9*
0 Add four rect primitives between the rounded corners*
20,1,$1+$1,$2,$3,$4,$5,0*
20,1,$1+$1,$4,$5,$6,$7,0*
20,1,$1+$1,$6,$7,$8,$9,0*
20,1,$1+$1,$8,$9,$2,$3,0*%
G04 Aperture macros list end*
%TA.AperFunction,ComponentPad*%
%ADD10RoundRect,0.250000X-0.350000X-0.650000X0.350000X-0.650000X0.350000X0.650000X-0.350000X0.650000X0*%
%TD*%
%TA.AperFunction,ComponentPad*%
%ADD11O,1.200000X1.800000*%
%TD*%
%TA.AperFunction,ComponentPad*%
%ADD12C,2.000000*%
%TD*%
%TA.AperFunction,SMDPad,CuDef*%
%ADD13RoundRect,0.135000X0.185000X-0.135000X0.185000X0.135000X-0.185000X0.135000X-0.185000X-0.135000X0*%
%TD*%
%TA.AperFunction,SMDPad,CuDef*%
%ADD14RoundRect,0.135000X-0.185000X0.135000X-0.185000X-0.135000X0.185000X-0.135000X0.185000X0.135000X0*%
%TD*%
%TA.AperFunction,SMDPad,CuDef*%
%ADD15RoundRect,0.140000X-0.170000X0.140000X-0.170000X-0.140000X0.170000X-0.140000X0.170000X0.140000X0*%
%TD*%
%TA.AperFunction,SMDPad,CuDef*%
%ADD16RoundRect,0.250000X0.475000X-0.250000X0.475000X0.250000X-0.475000X0.250000X-0.475000X-0.250000X0*%
%TD*%
%TA.AperFunction,ComponentPad*%
%ADD17C,0.900000*%
%TD*%
%TA.AperFunction,ComponentPad*%
%ADD18C,13.000000*%
%TD*%
%TA.AperFunction,SMDPad,CuDef*%
%ADD19R,2.600000X0.800000*%
%TD*%
%TA.AperFunction,SMDPad,CuDef*%
%ADD20R,2.600000X4.400000*%
%TD*%
%TA.AperFunction,SMDPad,CuDef*%
%ADD21R,7.410000X10.000000*%
%TD*%
%TA.AperFunction,ViaPad*%
%ADD22C,0.900000*%
%TD*%
%TA.AperFunction,ViaPad*%
%ADD23C,0.800000*%
%TD*%
%TA.AperFunction,Conductor*%
%ADD24C,0.250000*%
%TD*%
G04 APERTURE END LIST*
D10*
%TO.P,J1,1,Pin_1*%
%TO.N,GND*%
X119250000Y-32175000D03*
D11*
%TO.P,J1,2,Pin_2*%
%TO.N,CONTROLLER_ADC*%
X121250000Y-32175000D03*
%TO.P,J1,3,Pin_3*%
%TO.N,unconnected-(J1-Pad3)*%
X123250000Y-32175000D03*
%TO.P,J1,4,Pin_4*%
%TO.N,CONTROLER_DEN*%
X125250000Y-32175000D03*
%TO.P,J1,5,Pin_5*%
%TO.N,CONTROLER_IN*%
X127250000Y-32175000D03*
%TO.P,J1,6,Pin_6*%
%TO.N,CONTOLLER_VDD*%
X129250000Y-32175000D03*
%TD*%
D12*
%TO.P,TP2,1,1*%
%TO.N,OUT*%
X111750000Y-48000000D03*
%TD*%
D13*
%TO.P,R1,1*%
%TO.N,/IN*%
X113000000Y-35500000D03*
%TO.P,R1,2*%
%TO.N,CONTROLER_IN*%
X113000000Y-34480000D03*
%TD*%
D14*
%TO.P,R2,1*%
%TO.N,GND*%
X116000000Y-34480000D03*
%TO.P,R2,2*%
%TO.N,CONTROLLER_ADC*%
X116000000Y-35500000D03*
%TD*%
D15*
%TO.P,C2,1*%
%TO.N,GND*%
X110000000Y-34540000D03*
%TO.P,C2,2*%
%TO.N,OUT*%
X110000000Y-35500000D03*
%TD*%
D16*
%TO.P,C3,1*%
%TO.N,+12V*%
X141200000Y-36250000D03*
%TO.P,C3,2*%
%TO.N,GND*%
X141200000Y-34350000D03*
%TD*%
D17*
%TO.P,H1,1,1*%
%TO.N,+12V*%
X135890000Y-37825000D03*
X131015000Y-42700000D03*
D18*
X135890000Y-42700000D03*
D17*
X139337146Y-46147146D03*
X139337146Y-39252854D03*
X135890000Y-47575000D03*
X132442854Y-46147146D03*
X132442854Y-39252854D03*
X140765000Y-42700000D03*
%TD*%
D12*
%TO.P,TP1,1,1*%
%TO.N,CONTROLER_IN*%
X133800000Y-31700000D03*
%TD*%
D17*
%TO.P,H2,1,1*%
%TO.N,OUT*%
X109375000Y-42670000D03*
D18*
X104500000Y-42670000D03*
D17*
X107947146Y-46117146D03*
X107947146Y-39222854D03*
X101052854Y-39222854D03*
X104500000Y-37795000D03*
X101052854Y-46117146D03*
X104500000Y-47545000D03*
X99625000Y-42670000D03*
%TD*%
D15*
%TO.P,C1,1*%
%TO.N,GND*%
X114500000Y-34510000D03*
%TO.P,C1,2*%
%TO.N,CONTROLLER_ADC*%
X114500000Y-35470000D03*
%TD*%
D13*
%TO.P,R3,1*%
%TO.N,/DEN*%
X111500000Y-35550000D03*
%TO.P,R3,2*%
%TO.N,CONTROLER_DEN*%
X111500000Y-34530000D03*
%TD*%
D19*
%TO.P,Q1,1,GND_*%
%TO.N,GND*%
X116465000Y-38300000D03*
%TO.P,Q1,2,IS*%
%TO.N,CONTROLLER_ADC*%
X116465000Y-39500000D03*
%TO.P,Q1,3,IN*%
%TO.N,/IN*%
X116465000Y-40700000D03*
%TO.P,Q1,4,DEN*%
%TO.N,/DEN*%
X116465000Y-41900000D03*
D20*
%TO.P,Q1,5,OUT*%
%TO.N,OUT*%
X116465000Y-44900000D03*
D21*
%TO.P,Q1,9,VS*%
%TO.N,+12V*%
X124000000Y-42500000D03*
%TD*%
D22*
%TO.N,+12V*%
X126365000Y-46355000D03*
X123825000Y-46355000D03*
X121285000Y-46355000D03*
X126365000Y-43815000D03*
X123825000Y-43815000D03*
X121285000Y-43815000D03*
X126365000Y-41275000D03*
X123825000Y-41275000D03*
X121285000Y-41275000D03*
X126365000Y-38735000D03*
X123825000Y-38735000D03*
X121285000Y-38735000D03*
D23*
%TO.N,GND*%
X142200000Y-33200000D03*
X141300000Y-33200000D03*
X114500000Y-33500000D03*
X140400000Y-33200000D03*
X110000000Y-33500000D03*
X115500000Y-37250000D03*
X116000000Y-33500000D03*
X116500000Y-37250000D03*
X117500000Y-37250000D03*
%TO.N,CONTROLLER_ADC*%
X117000000Y-35500000D03*
%TO.N,CONTROLER_IN*%
X115600000Y-31400000D03*
X113402299Y-33652299D03*
%TD*%
D24*
%TO.N,GND*%
X141300000Y-33200000D02*
X142200000Y-33200000D01*
X141200000Y-34350000D02*
X141300000Y-34250000D01*
X110000000Y-34540000D02*
X110000000Y-33500000D01*
X114500000Y-34510000D02*
X114500000Y-33500000D01*
X116000000Y-34480000D02*
X116000000Y-33500000D01*
X140400000Y-33200000D02*
X141300000Y-33200000D01*
X141300000Y-34250000D02*
X141300000Y-33200000D01*
%TO.N,CONTROLLER_ADC*%
X115970000Y-35470000D02*
X116000000Y-35500000D01*
X115250000Y-39500000D02*
X114500000Y-38750000D01*
X114500000Y-38750000D02*
X114500000Y-35470000D01*
X117000000Y-35500000D02*
X116000000Y-35500000D01*
X116465000Y-39500000D02*
X115250000Y-39500000D01*
X114500000Y-35470000D02*
X115970000Y-35470000D01*
%TO.N,OUT*%
X110000000Y-35500000D02*
X110000000Y-35750000D01*
X110000000Y-35750000D02*
X109250000Y-36500000D01*
%TO.N,CONTROLER_IN*%
X115600000Y-31200000D02*
X116050000Y-30750000D01*
X113000000Y-34480000D02*
X113000000Y-34054598D01*
X131900000Y-33600000D02*
X133800000Y-31700000D01*
X113000000Y-34054598D02*
X113402299Y-33652299D01*
X127250000Y-32175000D02*
X128675000Y-33600000D01*
X128675000Y-33600000D02*
X131900000Y-33600000D01*
X125825000Y-30750000D02*
X127250000Y-32175000D01*
X116050000Y-30750000D02*
X125825000Y-30750000D01*
%TO.N,CONTROLER_DEN*%
X111500000Y-34530000D02*
X113255000Y-32775000D01*
X113255000Y-32775000D02*
X118036827Y-32775000D01*
X118036827Y-32775000D02*
X118761827Y-33500000D01*
X118761827Y-33500000D02*
X123925000Y-33500000D01*
X123925000Y-33500000D02*
X125250000Y-32175000D01*
%TO.N,/IN*%
X113000000Y-38500000D02*
X113000000Y-35500000D01*
X116465000Y-40700000D02*
X115200000Y-40700000D01*
X115200000Y-40700000D02*
X113000000Y-38500000D01*
%TO.N,/DEN*%
X115315000Y-41900000D02*
X111500000Y-38085000D01*
X116465000Y-41900000D02*
X115315000Y-41900000D01*
X111500000Y-38085000D02*
X111500000Y-35550000D01*
%TD*%
%TA.AperFunction,Conductor*%
%TO.N,GND*%
G36*
X118192121Y-36770002D02*
G01*
X118238614Y-36823658D01*
X118250000Y-36876000D01*
X118250000Y-37376712D01*
X118229998Y-37444833D01*
X118176342Y-37491326D01*
X118106068Y-37501430D01*
X118048434Y-37477538D01*
X118018644Y-37455212D01*
X118003054Y-37446676D01*
X117882606Y-37401522D01*
X117867351Y-37397895D01*
X117816486Y-37392369D01*
X117809672Y-37392000D01*
X116737115Y-37392000D01*
X116721876Y-37396475D01*
X116720671Y-37397865D01*
X116719000Y-37405548D01*
X116719000Y-38428000D01*
X116698998Y-38496121D01*
X116645342Y-38542614D01*
X116593000Y-38554000D01*
X116337000Y-38554000D01*
X116268879Y-38533998D01*
X116222386Y-38480342D01*
X116211000Y-38428000D01*
X116211000Y-37410116D01*
X116206525Y-37394877D01*
X116205135Y-37393672D01*
X116197452Y-37392001D01*
X115259500Y-37392001D01*
X115191379Y-37371999D01*
X115144886Y-37318343D01*
X115133500Y-37266001D01*
X115133500Y-36876000D01*
X115153502Y-36807879D01*
X115207158Y-36761386D01*
X115259500Y-36750000D01*
X118124000Y-36750000D01*
X118192121Y-36770002D01*
G37*
%TD.AperFunction*%
%TD*%
%TA.AperFunction,Conductor*%
%TO.N,+12V*%
G36*
X144121321Y-35520002D02*
G01*
X144167814Y-35573658D01*
X144179200Y-35626000D01*
X144179200Y-49874000D01*
X144159198Y-49942121D01*
X144105542Y-49988614D01*
X144053200Y-50000000D01*
X119376000Y-50000000D01*
X119307879Y-49979998D01*
X119261386Y-49926342D01*
X119250000Y-49874000D01*
X119250000Y-35626000D01*
X119270002Y-35557879D01*
X119323658Y-35511386D01*
X119376000Y-35500000D01*
X144053200Y-35500000D01*
X144121321Y-35520002D01*
G37*
%TD.AperFunction*%
%TD*%
%TA.AperFunction,Conductor*%
%TO.N,OUT*%
G36*
X108268456Y-35470002D02*
G01*
X108286307Y-35483887D01*
X110826472Y-37854708D01*
X110862624Y-37915811D01*
X110866500Y-37946821D01*
X110866500Y-38006233D01*
X110865973Y-38017416D01*
X110864298Y-38024909D01*
X110864547Y-38032835D01*
X110864547Y-38032836D01*
X110866438Y-38092986D01*
X110866500Y-38096945D01*
X110866500Y-38124856D01*
X110866997Y-38128790D01*
X110866997Y-38128791D01*
X110867005Y-38128856D01*
X110867938Y-38140693D01*
X110869327Y-38184889D01*
X110874978Y-38204339D01*
X110878987Y-38223700D01*
X110881526Y-38243797D01*
X110884445Y-38251168D01*
X110884445Y-38251170D01*
X110897804Y-38284912D01*
X110901649Y-38296142D01*
X110913982Y-38338593D01*
X110918015Y-38345412D01*
X110918017Y-38345417D01*
X110924293Y-38356028D01*
X110932988Y-38373776D01*
X110940448Y-38392617D01*
X110945110Y-38399033D01*
X110945110Y-38399034D01*
X110966436Y-38428387D01*
X110972952Y-38438307D01*
X110995458Y-38476362D01*
X111009779Y-38490683D01*
X111022619Y-38505716D01*
X111034528Y-38522107D01*
X111040634Y-38527158D01*
X111068605Y-38550298D01*
X111077384Y-38558288D01*
X114619595Y-42100500D01*
X114653621Y-42162812D01*
X114656500Y-42189595D01*
X114656500Y-42348134D01*
X114663255Y-42410316D01*
X114714385Y-42546705D01*
X114801739Y-42663261D01*
X114918295Y-42750615D01*
X115054684Y-42801745D01*
X115116866Y-42808500D01*
X117813134Y-42808500D01*
X117860393Y-42803366D01*
X117930274Y-42815894D01*
X117982290Y-42864214D01*
X118000000Y-42928629D01*
X118000000Y-49874000D01*
X117979998Y-49942121D01*
X117926342Y-49988614D01*
X117874000Y-50000000D01*
X97154500Y-50000000D01*
X97086379Y-49979998D01*
X97039886Y-49926342D01*
X97028500Y-49874000D01*
X97028500Y-35576000D01*
X97048502Y-35507879D01*
X97102158Y-35461386D01*
X97154500Y-35450000D01*
X108200335Y-35450000D01*
X108268456Y-35470002D01*
G37*
%TD.AperFunction*%
%TD*%
M02*
