%TF.GenerationSoftware,KiCad,Pcbnew,(6.0.8)*%
%TF.CreationDate,2023-11-18T01:52:55+01:00*%
%TF.ProjectId,BTS50005-1LUA_TestBoard,42545335-3030-4303-952d-314c55415f54,rev?*%
%TF.SameCoordinates,Original*%
%TF.FileFunction,Legend,Bot*%
%TF.FilePolarity,Positive*%
%FSLAX46Y46*%
G04 Gerber Fmt 4.6, Leading zero omitted, Abs format (unit mm)*
G04 Created by KiCad (PCBNEW (6.0.8)) date 2023-11-18 01:52:55*
%MOMM*%
%LPD*%
G01*
G04 APERTURE LIST*
%ADD10C,0.100000*%
%ADD11C,0.120000*%
G04 APERTURE END LIST*
D10*
%TO.C,R5*%
X127862000Y-36085428D02*
X128062000Y-35799714D01*
X128204857Y-36085428D02*
X128204857Y-35485428D01*
X127976285Y-35485428D01*
X127919142Y-35514000D01*
X127890571Y-35542571D01*
X127862000Y-35599714D01*
X127862000Y-35685428D01*
X127890571Y-35742571D01*
X127919142Y-35771142D01*
X127976285Y-35799714D01*
X128204857Y-35799714D01*
X127319142Y-35485428D02*
X127604857Y-35485428D01*
X127633428Y-35771142D01*
X127604857Y-35742571D01*
X127547714Y-35714000D01*
X127404857Y-35714000D01*
X127347714Y-35742571D01*
X127319142Y-35771142D01*
X127290571Y-35828285D01*
X127290571Y-35971142D01*
X127319142Y-36028285D01*
X127347714Y-36056857D01*
X127404857Y-36085428D01*
X127547714Y-36085428D01*
X127604857Y-36056857D01*
X127633428Y-36028285D01*
%TO.C,R4*%
X127862000Y-34917028D02*
X128062000Y-34631314D01*
X128204857Y-34917028D02*
X128204857Y-34317028D01*
X127976285Y-34317028D01*
X127919142Y-34345600D01*
X127890571Y-34374171D01*
X127862000Y-34431314D01*
X127862000Y-34517028D01*
X127890571Y-34574171D01*
X127919142Y-34602742D01*
X127976285Y-34631314D01*
X128204857Y-34631314D01*
X127347714Y-34517028D02*
X127347714Y-34917028D01*
X127490571Y-34288457D02*
X127633428Y-34717028D01*
X127262000Y-34717028D01*
%TO.C,C4*%
X125576000Y-30389485D02*
X125604571Y-30418057D01*
X125690285Y-30446628D01*
X125747428Y-30446628D01*
X125833142Y-30418057D01*
X125890285Y-30360914D01*
X125918857Y-30303771D01*
X125947428Y-30189485D01*
X125947428Y-30103771D01*
X125918857Y-29989485D01*
X125890285Y-29932342D01*
X125833142Y-29875200D01*
X125747428Y-29846628D01*
X125690285Y-29846628D01*
X125604571Y-29875200D01*
X125576000Y-29903771D01*
X125061714Y-30046628D02*
X125061714Y-30446628D01*
X125204571Y-29818057D02*
X125347428Y-30246628D01*
X124976000Y-30246628D01*
%TO.C,D1*%
X122442857Y-36271428D02*
X122442857Y-35671428D01*
X122300000Y-35671428D01*
X122214285Y-35700000D01*
X122157142Y-35757142D01*
X122128571Y-35814285D01*
X122100000Y-35928571D01*
X122100000Y-36014285D01*
X122128571Y-36128571D01*
X122157142Y-36185714D01*
X122214285Y-36242857D01*
X122300000Y-36271428D01*
X122442857Y-36271428D01*
X121528571Y-36271428D02*
X121871428Y-36271428D01*
X121700000Y-36271428D02*
X121700000Y-35671428D01*
X121757142Y-35757142D01*
X121814285Y-35814285D01*
X121871428Y-35842857D01*
D11*
%TO.C,R5*%
X125881159Y-35434000D02*
X126188441Y-35434000D01*
X125881159Y-36194000D02*
X126188441Y-36194000D01*
%TO.C,R4*%
X126186441Y-34974800D02*
X125879159Y-34974800D01*
X126186441Y-34214800D02*
X125879159Y-34214800D01*
%TO.C,C4*%
X123691764Y-30535200D02*
X123907436Y-30535200D01*
X123691764Y-29815200D02*
X123907436Y-29815200D01*
%TO.C,kibuzzard-65429BC2*%
G36*
X104846437Y-32006381D02*
G01*
X104823066Y-31938560D01*
X104809043Y-31852570D01*
X104804369Y-31748412D01*
X104805087Y-31732537D01*
X104880569Y-31732537D01*
X104905175Y-31806356D01*
X104967881Y-31837312D01*
X105032969Y-31806356D01*
X105056781Y-31732537D01*
X105032969Y-31657925D01*
X104967881Y-31626175D01*
X104905175Y-31657925D01*
X104880569Y-31732537D01*
X104805087Y-31732537D01*
X104809043Y-31645137D01*
X104823066Y-31559676D01*
X104846437Y-31492031D01*
X104898230Y-31425952D01*
X104969469Y-31403925D01*
X105039716Y-31425952D01*
X105091706Y-31492031D01*
X105115519Y-31559676D01*
X105129806Y-31645137D01*
X105134569Y-31748412D01*
X105129806Y-31852570D01*
X105115519Y-31938560D01*
X105091706Y-32006381D01*
X105039716Y-32072461D01*
X104969469Y-32094487D01*
X104967881Y-32093997D01*
X104898230Y-32072461D01*
X104846437Y-32006381D01*
G37*
G36*
X109011244Y-31419800D02*
G01*
X109054106Y-31424562D01*
X109054106Y-31649987D01*
X108977906Y-31649987D01*
X108865194Y-31617444D01*
X108827094Y-31527750D01*
X108838206Y-31471394D01*
X108868369Y-31438056D01*
X108912819Y-31422181D01*
X108965206Y-31418212D01*
X109011244Y-31419800D01*
G37*
G36*
X109054106Y-32078612D02*
G01*
X109008863Y-32083375D01*
X108960444Y-32084962D01*
X108895356Y-32079406D01*
X108839000Y-32058769D01*
X108798519Y-32015906D01*
X108782644Y-31945262D01*
X108827888Y-31842869D01*
X108949331Y-31811912D01*
X109054106Y-31811912D01*
X109054106Y-32078612D01*
G37*
G36*
X105640187Y-32006381D02*
G01*
X105616816Y-31938560D01*
X105602793Y-31852570D01*
X105598119Y-31748412D01*
X105598837Y-31732537D01*
X105674319Y-31732537D01*
X105698925Y-31806356D01*
X105761631Y-31837312D01*
X105826719Y-31806356D01*
X105850531Y-31732537D01*
X105826719Y-31657925D01*
X105761631Y-31626175D01*
X105698925Y-31657925D01*
X105674319Y-31732537D01*
X105598837Y-31732537D01*
X105602793Y-31645137D01*
X105616816Y-31559676D01*
X105640187Y-31492031D01*
X105691980Y-31425952D01*
X105763219Y-31403925D01*
X105833466Y-31425952D01*
X105885456Y-31492031D01*
X105909269Y-31559676D01*
X105923556Y-31645137D01*
X105928319Y-31748412D01*
X105923556Y-31852570D01*
X105909269Y-31938560D01*
X105885456Y-32006381D01*
X105833466Y-32072461D01*
X105763219Y-32094487D01*
X105761631Y-32093997D01*
X105691980Y-32072461D01*
X105640187Y-32006381D01*
G37*
G36*
X99444175Y-31555531D02*
G01*
X99469575Y-31653956D01*
X99491800Y-31751587D01*
X99511644Y-31853187D01*
X99319556Y-31853187D01*
X99338606Y-31751587D01*
X99360037Y-31653956D01*
X99385437Y-31555531D01*
X99414806Y-31449962D01*
X99444175Y-31555531D01*
G37*
G36*
X98193807Y-30906508D02*
G01*
X109580098Y-30906508D01*
X110086193Y-32593492D01*
X98699902Y-32593492D01*
X98594492Y-32242125D01*
X99030631Y-32242125D01*
X99240181Y-32242125D01*
X99286219Y-32015113D01*
X99548156Y-32015113D01*
X99592606Y-32242125D01*
X99795806Y-32242125D01*
X99767803Y-32127984D01*
X99739672Y-32017970D01*
X99711415Y-31912084D01*
X99704285Y-31886525D01*
X99872006Y-31886525D01*
X99875975Y-31968281D01*
X99887881Y-32042100D01*
X99909709Y-32106791D01*
X99943444Y-32161162D01*
X99989481Y-32204620D01*
X100048219Y-32236569D01*
X100121244Y-32256214D01*
X100210144Y-32262762D01*
X100297655Y-32256214D01*
X100349315Y-32242125D01*
X100667344Y-32242125D01*
X101284881Y-32242125D01*
X101462681Y-32242125D01*
X102059581Y-32242125D01*
X102059581Y-32080200D01*
X101853206Y-32080200D01*
X101853206Y-31945262D01*
X103069231Y-31945262D01*
X103093044Y-32071469D01*
X103166069Y-32172275D01*
X103221234Y-32210375D01*
X103288306Y-32238950D01*
X103367284Y-32256809D01*
X103458169Y-32262762D01*
X103535956Y-32258000D01*
X103612156Y-32246094D01*
X103678037Y-32229425D01*
X103723281Y-32211962D01*
X103683594Y-32050037D01*
X103594694Y-32081787D01*
X103533972Y-32092503D01*
X103459756Y-32096075D01*
X103365300Y-32083375D01*
X103306562Y-32050831D01*
X103277194Y-32005587D01*
X103269256Y-31953200D01*
X103282750Y-31877794D01*
X103336725Y-31819056D01*
X103451819Y-31780956D01*
X103537941Y-31770836D01*
X103647081Y-31767462D01*
X103645019Y-31748412D01*
X103834406Y-31748412D01*
X103839863Y-31870253D01*
X103856234Y-31975425D01*
X103883520Y-32063928D01*
X103921719Y-32135762D01*
X103988747Y-32206318D01*
X104073413Y-32248651D01*
X104175719Y-32262762D01*
X104278024Y-32248651D01*
X104362691Y-32206318D01*
X104429719Y-32135762D01*
X104467918Y-32063928D01*
X104495203Y-31975425D01*
X104511574Y-31870253D01*
X104517031Y-31748412D01*
X104628156Y-31748412D01*
X104633613Y-31870253D01*
X104649984Y-31975425D01*
X104677270Y-32063928D01*
X104715469Y-32135762D01*
X104782497Y-32206318D01*
X104867163Y-32248651D01*
X104969469Y-32262762D01*
X105071774Y-32248651D01*
X105156441Y-32206318D01*
X105223469Y-32135762D01*
X105261668Y-32063928D01*
X105288953Y-31975425D01*
X105305324Y-31870253D01*
X105310781Y-31748412D01*
X105421906Y-31748412D01*
X105427363Y-31870253D01*
X105443734Y-31975425D01*
X105471020Y-32063928D01*
X105509219Y-32135762D01*
X105576247Y-32206318D01*
X105660913Y-32248651D01*
X105763219Y-32262762D01*
X105865524Y-32248651D01*
X105950191Y-32206318D01*
X106017219Y-32135762D01*
X106055418Y-32063928D01*
X106082703Y-31975425D01*
X106087398Y-31945262D01*
X106244231Y-31945262D01*
X106268044Y-32071469D01*
X106341069Y-32172275D01*
X106396234Y-32210375D01*
X106463306Y-32238950D01*
X106542284Y-32256809D01*
X106633169Y-32262762D01*
X106710956Y-32258000D01*
X106787156Y-32246094D01*
X106853037Y-32229425D01*
X106898281Y-32211962D01*
X106858594Y-32050037D01*
X106769694Y-32081787D01*
X106708972Y-32092503D01*
X106634756Y-32096075D01*
X106540300Y-32083375D01*
X106481562Y-32050831D01*
X106452194Y-32005587D01*
X106447383Y-31973837D01*
X107017344Y-31973837D01*
X107039767Y-32096273D01*
X107107037Y-32187356D01*
X107177152Y-32229249D01*
X107267904Y-32254384D01*
X107379294Y-32262762D01*
X107489228Y-32256214D01*
X107574556Y-32236569D01*
X107684094Y-32188150D01*
X107626944Y-32029400D01*
X107524550Y-32077025D01*
X107458470Y-32093694D01*
X107379294Y-32099250D01*
X107297537Y-32088931D01*
X107245944Y-32060356D01*
X107219750Y-32019081D01*
X107212606Y-31972250D01*
X107230069Y-31918275D01*
X107274519Y-31876206D01*
X107334844Y-31842869D01*
X107401519Y-31815087D01*
X107493594Y-31778575D01*
X107580112Y-31726187D01*
X107644406Y-31647606D01*
X107669806Y-31530925D01*
X107649842Y-31421387D01*
X107787281Y-31421387D01*
X108046044Y-31421387D01*
X108046044Y-32242125D01*
X108242894Y-32242125D01*
X108242894Y-31945262D01*
X108590556Y-31945262D01*
X108598097Y-32026820D01*
X108620719Y-32093694D01*
X108702475Y-32188944D01*
X108758831Y-32219503D01*
X108824713Y-32239744D01*
X108897936Y-32251055D01*
X108976319Y-32254825D01*
X109042597Y-32253039D01*
X109111256Y-32247681D01*
X109180709Y-32238752D01*
X109249369Y-32226250D01*
X109249369Y-31272162D01*
X109127131Y-31255494D01*
X108995369Y-31248350D01*
X108894563Y-31254105D01*
X108814394Y-31271369D01*
X108704856Y-31331694D01*
X108650881Y-31415037D01*
X108636594Y-31507112D01*
X108645127Y-31572994D01*
X108670725Y-31630937D01*
X108762006Y-31716662D01*
X108678067Y-31759525D01*
X108626275Y-31815087D01*
X108599486Y-31878587D01*
X108590556Y-31945262D01*
X108242894Y-31945262D01*
X108242894Y-31421387D01*
X108501656Y-31421387D01*
X108501656Y-31259462D01*
X107787281Y-31259462D01*
X107787281Y-31421387D01*
X107649842Y-31421387D01*
X107647383Y-31407894D01*
X107580112Y-31315025D01*
X107512820Y-31271810D01*
X107430535Y-31245881D01*
X107333256Y-31237237D01*
X107248523Y-31242397D01*
X107175300Y-31257875D01*
X107061794Y-31303912D01*
X107118944Y-31454725D01*
X107207050Y-31416625D01*
X107318969Y-31400750D01*
X107405399Y-31413274D01*
X107457258Y-31450844D01*
X107474544Y-31513462D01*
X107458669Y-31563469D01*
X107418187Y-31601569D01*
X107362625Y-31630937D01*
X107301506Y-31654750D01*
X107205462Y-31693644D01*
X107113387Y-31750794D01*
X107044331Y-31839694D01*
X107024091Y-31899820D01*
X107017344Y-31973837D01*
X106447383Y-31973837D01*
X106444256Y-31953200D01*
X106457750Y-31877794D01*
X106511725Y-31819056D01*
X106626819Y-31780956D01*
X106712941Y-31770836D01*
X106822081Y-31767462D01*
X106807794Y-31635502D01*
X106796681Y-31506319D01*
X106788347Y-31380708D01*
X106782394Y-31259462D01*
X106280744Y-31259462D01*
X106280744Y-31421387D01*
X106618881Y-31421387D01*
X106626819Y-31527750D01*
X106634756Y-31618237D01*
X106514635Y-31634465D01*
X106416740Y-31666215D01*
X106341069Y-31713487D01*
X106287270Y-31775929D01*
X106254991Y-31853187D01*
X106244231Y-31945262D01*
X106087398Y-31945262D01*
X106099074Y-31870253D01*
X106104531Y-31748412D01*
X106098975Y-31627961D01*
X106082306Y-31523781D01*
X106054525Y-31435873D01*
X106015631Y-31364237D01*
X105948074Y-31293682D01*
X105863937Y-31251349D01*
X105763219Y-31237237D01*
X105660913Y-31251260D01*
X105576247Y-31293329D01*
X105509219Y-31363444D01*
X105471020Y-31434832D01*
X105443734Y-31522789D01*
X105427363Y-31627316D01*
X105421906Y-31748412D01*
X105310781Y-31748412D01*
X105305225Y-31627961D01*
X105288556Y-31523781D01*
X105260775Y-31435873D01*
X105221881Y-31364237D01*
X105154324Y-31293682D01*
X105070187Y-31251349D01*
X104969469Y-31237237D01*
X104867163Y-31251260D01*
X104782497Y-31293329D01*
X104715469Y-31363444D01*
X104677270Y-31434832D01*
X104649984Y-31522789D01*
X104633613Y-31627316D01*
X104628156Y-31748412D01*
X104517031Y-31748412D01*
X104511475Y-31627961D01*
X104494806Y-31523781D01*
X104467025Y-31435873D01*
X104428131Y-31364237D01*
X104360574Y-31293682D01*
X104276437Y-31251349D01*
X104175719Y-31237237D01*
X104073413Y-31251260D01*
X103988747Y-31293329D01*
X103921719Y-31363444D01*
X103883520Y-31434832D01*
X103856234Y-31522789D01*
X103839863Y-31627316D01*
X103834406Y-31748412D01*
X103645019Y-31748412D01*
X103632794Y-31635502D01*
X103621681Y-31506319D01*
X103613347Y-31380708D01*
X103607394Y-31259462D01*
X103105744Y-31259462D01*
X103105744Y-31421387D01*
X103443881Y-31421387D01*
X103451819Y-31527750D01*
X103459756Y-31618237D01*
X103339635Y-31634465D01*
X103241740Y-31666215D01*
X103166069Y-31713487D01*
X103112270Y-31775929D01*
X103079991Y-31853187D01*
X103069231Y-31945262D01*
X101853206Y-31945262D01*
X101853206Y-31930975D01*
X102370731Y-31930975D01*
X102805706Y-31930975D01*
X102805706Y-31738887D01*
X102370731Y-31738887D01*
X102370731Y-31930975D01*
X101853206Y-31930975D01*
X101853206Y-31530925D01*
X101954806Y-31587281D01*
X102051644Y-31626175D01*
X102115144Y-31464250D01*
X102032594Y-31427737D01*
X101943694Y-31378525D01*
X101859556Y-31321375D01*
X101791294Y-31259462D01*
X101657944Y-31259462D01*
X101657944Y-32080200D01*
X101462681Y-32080200D01*
X101462681Y-32242125D01*
X101284881Y-32242125D01*
X101284881Y-31259462D01*
X101088031Y-31259462D01*
X101088031Y-32080200D01*
X100667344Y-32080200D01*
X100667344Y-32242125D01*
X100349315Y-32242125D01*
X100369687Y-32236569D01*
X100472081Y-32161162D01*
X100504625Y-32106791D01*
X100526056Y-32042100D01*
X100537963Y-31968281D01*
X100541931Y-31886525D01*
X100541931Y-31259462D01*
X100345081Y-31259462D01*
X100345081Y-31873825D01*
X100338731Y-31977806D01*
X100317300Y-32045275D01*
X100275231Y-32081787D01*
X100206969Y-32092900D01*
X100138706Y-32081787D01*
X100095844Y-32044481D01*
X100073619Y-31976219D01*
X100067269Y-31872237D01*
X100067269Y-31259462D01*
X99872006Y-31259462D01*
X99872006Y-31886525D01*
X99704285Y-31886525D01*
X99683030Y-31810325D01*
X99654519Y-31712694D01*
X99619098Y-31594772D01*
X99584272Y-31479927D01*
X99550041Y-31368157D01*
X99516406Y-31259462D01*
X99303681Y-31259462D01*
X99268806Y-31369050D01*
X99234030Y-31481911D01*
X99199353Y-31598046D01*
X99164775Y-31717456D01*
X99137311Y-31815913D01*
X99110165Y-31917608D01*
X99083336Y-32022542D01*
X99056825Y-32130714D01*
X99030631Y-32242125D01*
X98594492Y-32242125D01*
X98193807Y-30906508D01*
G37*
G36*
X104052687Y-32006381D02*
G01*
X104029316Y-31938560D01*
X104015293Y-31852570D01*
X104010619Y-31748412D01*
X104011337Y-31732537D01*
X104086819Y-31732537D01*
X104111425Y-31806356D01*
X104174131Y-31837312D01*
X104239219Y-31806356D01*
X104263031Y-31732537D01*
X104239219Y-31657925D01*
X104174131Y-31626175D01*
X104111425Y-31657925D01*
X104086819Y-31732537D01*
X104011337Y-31732537D01*
X104015293Y-31645137D01*
X104029316Y-31559676D01*
X104052687Y-31492031D01*
X104104480Y-31425952D01*
X104175719Y-31403925D01*
X104245966Y-31425952D01*
X104297956Y-31492031D01*
X104321769Y-31559676D01*
X104336056Y-31645137D01*
X104340819Y-31748412D01*
X104336056Y-31852570D01*
X104321769Y-31938560D01*
X104297956Y-32006381D01*
X104245966Y-32072461D01*
X104175719Y-32094487D01*
X104174131Y-32093997D01*
X104104480Y-32072461D01*
X104052687Y-32006381D01*
G37*
%TO.C,D1*%
X120180000Y-36410000D02*
X118770000Y-36410000D01*
X118770000Y-34090000D02*
X120800000Y-34090000D01*
X118770000Y-34090000D02*
X118770000Y-34750000D01*
X118770000Y-35750000D02*
X118770000Y-36410000D01*
%TD*%
M02*
