%TF.GenerationSoftware,KiCad,Pcbnew,(6.0.8)*%
%TF.CreationDate,2023-11-18T01:52:57+01:00*%
%TF.ProjectId,BTS50005-1LUA_TestBoard,42545335-3030-4303-952d-314c55415f54,rev?*%
%TF.SameCoordinates,Original*%
%TF.FileFunction,Drillmap*%
%TF.FilePolarity,Positive*%
%FSLAX45Y45*%
G04 Gerber Fmt 4.5, Leading zero omitted, Abs format (unit mm)*
G04 Created by KiCad (PCBNEW (6.0.8)) date 2023-11-18 01:52:57*
%MOMM*%
%LPD*%
G01*
G04 APERTURE LIST*
%ADD10C,0.100000*%
%ADD11C,0.200000*%
G04 APERTURE END LIST*
D10*
X14478000Y-5080000D02*
X14478000Y-2921000D01*
X9652000Y-5080000D02*
X14478000Y-5080000D01*
X14478000Y-2921000D02*
X9652000Y-2921000D01*
X9652000Y-2921000D02*
X9652000Y-5080000D01*
D11*
X9904619Y-5395476D02*
X9904619Y-5195476D01*
X9952238Y-5195476D01*
X9980810Y-5205000D01*
X9999857Y-5224048D01*
X10009381Y-5243095D01*
X10018905Y-5281190D01*
X10018905Y-5309762D01*
X10009381Y-5347857D01*
X9999857Y-5366905D01*
X9980810Y-5385952D01*
X9952238Y-5395476D01*
X9904619Y-5395476D01*
X10104619Y-5395476D02*
X10104619Y-5262143D01*
X10104619Y-5300238D02*
X10114143Y-5281190D01*
X10123667Y-5271667D01*
X10142714Y-5262143D01*
X10161762Y-5262143D01*
X10228429Y-5395476D02*
X10228429Y-5262143D01*
X10228429Y-5195476D02*
X10218905Y-5205000D01*
X10228429Y-5214524D01*
X10237952Y-5205000D01*
X10228429Y-5195476D01*
X10228429Y-5214524D01*
X10352238Y-5395476D02*
X10333190Y-5385952D01*
X10323667Y-5366905D01*
X10323667Y-5195476D01*
X10457000Y-5395476D02*
X10437952Y-5385952D01*
X10428429Y-5366905D01*
X10428429Y-5195476D01*
X10685571Y-5395476D02*
X10685571Y-5195476D01*
X10752238Y-5338333D01*
X10818905Y-5195476D01*
X10818905Y-5395476D01*
X10999857Y-5395476D02*
X10999857Y-5290714D01*
X10990333Y-5271667D01*
X10971286Y-5262143D01*
X10933190Y-5262143D01*
X10914143Y-5271667D01*
X10999857Y-5385952D02*
X10980810Y-5395476D01*
X10933190Y-5395476D01*
X10914143Y-5385952D01*
X10904619Y-5366905D01*
X10904619Y-5347857D01*
X10914143Y-5328810D01*
X10933190Y-5319286D01*
X10980810Y-5319286D01*
X10999857Y-5309762D01*
X11095095Y-5262143D02*
X11095095Y-5462143D01*
X11095095Y-5271667D02*
X11114143Y-5262143D01*
X11152238Y-5262143D01*
X11171286Y-5271667D01*
X11180810Y-5281190D01*
X11190333Y-5300238D01*
X11190333Y-5357381D01*
X11180810Y-5376429D01*
X11171286Y-5385952D01*
X11152238Y-5395476D01*
X11114143Y-5395476D01*
X11095095Y-5385952D01*
X11276048Y-5376429D02*
X11285571Y-5385952D01*
X11276048Y-5395476D01*
X11266524Y-5385952D01*
X11276048Y-5376429D01*
X11276048Y-5395476D01*
X11276048Y-5271667D02*
X11285571Y-5281190D01*
X11276048Y-5290714D01*
X11266524Y-5281190D01*
X11276048Y-5271667D01*
X11276048Y-5290714D01*
M02*
