%TF.GenerationSoftware,KiCad,Pcbnew,(6.0.8)*%
%TF.CreationDate,2024-08-14T07:32:43+02:00*%
%TF.ProjectId,FUSE_TestBoard,46555345-5f54-4657-9374-426f6172642e,rev?*%
%TF.SameCoordinates,Original*%
%TF.FileFunction,Legend,Top*%
%TF.FilePolarity,Positive*%
%FSLAX46Y46*%
G04 Gerber Fmt 4.6, Leading zero omitted, Abs format (unit mm)*
G04 Created by KiCad (PCBNEW (6.0.8)) date 2024-08-14 07:32:43*
%MOMM*%
%LPD*%
G01*
G04 APERTURE LIST*
%ADD10C,0.150000*%
%ADD11C,0.254000*%
%ADD12C,0.120000*%
%ADD13C,0.100000*%
G04 APERTURE END LIST*
D10*
%TO.C,F8*%
X175679166Y-78308571D02*
X175345833Y-78308571D01*
X175345833Y-78832380D02*
X175345833Y-77832380D01*
X175822023Y-77832380D01*
X176345833Y-78260952D02*
X176250595Y-78213333D01*
X176202976Y-78165714D01*
X176155357Y-78070476D01*
X176155357Y-78022857D01*
X176202976Y-77927619D01*
X176250595Y-77880000D01*
X176345833Y-77832380D01*
X176536309Y-77832380D01*
X176631547Y-77880000D01*
X176679166Y-77927619D01*
X176726785Y-78022857D01*
X176726785Y-78070476D01*
X176679166Y-78165714D01*
X176631547Y-78213333D01*
X176536309Y-78260952D01*
X176345833Y-78260952D01*
X176250595Y-78308571D01*
X176202976Y-78356190D01*
X176155357Y-78451428D01*
X176155357Y-78641904D01*
X176202976Y-78737142D01*
X176250595Y-78784761D01*
X176345833Y-78832380D01*
X176536309Y-78832380D01*
X176631547Y-78784761D01*
X176679166Y-78737142D01*
X176726785Y-78641904D01*
X176726785Y-78451428D01*
X176679166Y-78356190D01*
X176631547Y-78308571D01*
X176536309Y-78260952D01*
%TO.C,F7*%
X175679166Y-84508571D02*
X175345833Y-84508571D01*
X175345833Y-85032380D02*
X175345833Y-84032380D01*
X175822023Y-84032380D01*
X176107738Y-84032380D02*
X176774404Y-84032380D01*
X176345833Y-85032380D01*
%TO.C,F6*%
X175679166Y-94808571D02*
X175345833Y-94808571D01*
X175345833Y-95332380D02*
X175345833Y-94332380D01*
X175822023Y-94332380D01*
X176631547Y-94332380D02*
X176441071Y-94332380D01*
X176345833Y-94380000D01*
X176298214Y-94427619D01*
X176202976Y-94570476D01*
X176155357Y-94760952D01*
X176155357Y-95141904D01*
X176202976Y-95237142D01*
X176250595Y-95284761D01*
X176345833Y-95332380D01*
X176536309Y-95332380D01*
X176631547Y-95284761D01*
X176679166Y-95237142D01*
X176726785Y-95141904D01*
X176726785Y-94903809D01*
X176679166Y-94808571D01*
X176631547Y-94760952D01*
X176536309Y-94713333D01*
X176345833Y-94713333D01*
X176250595Y-94760952D01*
X176202976Y-94808571D01*
X176155357Y-94903809D01*
%TO.C,F5*%
X175679166Y-106808571D02*
X175345833Y-106808571D01*
X175345833Y-107332380D02*
X175345833Y-106332380D01*
X175822023Y-106332380D01*
X176679166Y-106332380D02*
X176202976Y-106332380D01*
X176155357Y-106808571D01*
X176202976Y-106760952D01*
X176298214Y-106713333D01*
X176536309Y-106713333D01*
X176631547Y-106760952D01*
X176679166Y-106808571D01*
X176726785Y-106903809D01*
X176726785Y-107141904D01*
X176679166Y-107237142D01*
X176631547Y-107284761D01*
X176536309Y-107332380D01*
X176298214Y-107332380D01*
X176202976Y-107284761D01*
X176155357Y-107237142D01*
%TO.C,F4*%
X175666666Y-118408571D02*
X175333333Y-118408571D01*
X175333333Y-118932380D02*
X175333333Y-117932380D01*
X175809523Y-117932380D01*
X176619047Y-118265714D02*
X176619047Y-118932380D01*
X176380952Y-117884761D02*
X176142857Y-118599047D01*
X176761904Y-118599047D01*
%TO.C,F3*%
X175666666Y-131208571D02*
X175333333Y-131208571D01*
X175333333Y-131732380D02*
X175333333Y-130732380D01*
X175809523Y-130732380D01*
X176095238Y-130732380D02*
X176714285Y-130732380D01*
X176380952Y-131113333D01*
X176523809Y-131113333D01*
X176619047Y-131160952D01*
X176666666Y-131208571D01*
X176714285Y-131303809D01*
X176714285Y-131541904D01*
X176666666Y-131637142D01*
X176619047Y-131684761D01*
X176523809Y-131732380D01*
X176238095Y-131732380D01*
X176142857Y-131684761D01*
X176095238Y-131637142D01*
%TO.C,F2*%
X175679166Y-137908571D02*
X175345833Y-137908571D01*
X175345833Y-138432380D02*
X175345833Y-137432380D01*
X175822023Y-137432380D01*
X176155357Y-137527619D02*
X176202976Y-137480000D01*
X176298214Y-137432380D01*
X176536309Y-137432380D01*
X176631547Y-137480000D01*
X176679166Y-137527619D01*
X176726785Y-137622857D01*
X176726785Y-137718095D01*
X176679166Y-137860952D01*
X176107738Y-138432380D01*
X176726785Y-138432380D01*
%TO.C,F1*%
X175666666Y-145608571D02*
X175333333Y-145608571D01*
X175333333Y-146132380D02*
X175333333Y-145132380D01*
X175809523Y-145132380D01*
X176714285Y-146132380D02*
X176142857Y-146132380D01*
X176428571Y-146132380D02*
X176428571Y-145132380D01*
X176333333Y-145275238D01*
X176238095Y-145370476D01*
X176142857Y-145418095D01*
D11*
%TO.C,J1*%
X161076666Y-74904523D02*
X161076666Y-75811666D01*
X161016190Y-75993095D01*
X160895238Y-76114047D01*
X160713809Y-76174523D01*
X160592857Y-76174523D01*
X162346666Y-76174523D02*
X161620952Y-76174523D01*
X161983809Y-76174523D02*
X161983809Y-74904523D01*
X161862857Y-75085952D01*
X161741904Y-75206904D01*
X161620952Y-75267380D01*
D12*
%TO.C,F8*%
X175410436Y-81110000D02*
X176614564Y-81110000D01*
X175410436Y-79290000D02*
X176614564Y-79290000D01*
%TO.C,F7*%
X175410436Y-87310000D02*
X176614564Y-87310000D01*
X175410436Y-85490000D02*
X176614564Y-85490000D01*
%TO.C,F6*%
X175410436Y-97610000D02*
X176614564Y-97610000D01*
X175410436Y-95790000D02*
X176614564Y-95790000D01*
%TO.C,F5*%
X175410436Y-109610000D02*
X176614564Y-109610000D01*
X175410436Y-107790000D02*
X176614564Y-107790000D01*
%TO.C,F4*%
X175397936Y-121210000D02*
X176602064Y-121210000D01*
X175397936Y-119390000D02*
X176602064Y-119390000D01*
%TO.C,F3*%
X175397936Y-132190000D02*
X176602064Y-132190000D01*
X175397936Y-134010000D02*
X176602064Y-134010000D01*
%TO.C,F2*%
X175410436Y-140710000D02*
X176614564Y-140710000D01*
X175410436Y-138890000D02*
X176614564Y-138890000D01*
%TO.C,F1*%
X175397936Y-148410000D02*
X176602064Y-148410000D01*
X175397936Y-146590000D02*
X176602064Y-146590000D01*
D13*
%TO.C,J1*%
X150650000Y-152300000D02*
X150650000Y-74300000D01*
X157650000Y-74300000D02*
X157650000Y-83300000D01*
X157650000Y-143300000D02*
X157650000Y-152300000D01*
X171150000Y-143300000D02*
X157650000Y-143300000D01*
X157650000Y-152300000D02*
X150650000Y-152300000D01*
X171150000Y-83300000D02*
X171150000Y-143300000D01*
X157650000Y-83300000D02*
X171150000Y-83300000D01*
X150650000Y-74300000D02*
X157650000Y-74300000D01*
%TD*%
M02*
