%TF.GenerationSoftware,KiCad,Pcbnew,(6.0.8)*%
%TF.CreationDate,2024-08-14T07:32:42+02:00*%
%TF.ProjectId,FUSE_TestBoard,46555345-5f54-4657-9374-426f6172642e,rev?*%
%TF.SameCoordinates,Original*%
%TF.FileFunction,Copper,L1,Top*%
%TF.FilePolarity,Positive*%
%FSLAX46Y46*%
G04 Gerber Fmt 4.6, Leading zero omitted, Abs format (unit mm)*
G04 Created by KiCad (PCBNEW (6.0.8)) date 2024-08-14 07:32:42*
%MOMM*%
%LPD*%
G01*
G04 APERTURE LIST*
G04 Aperture macros list*
%AMRoundRect*
0 Rectangle with rounded corners*
0 $1 Rounding radius*
0 $2 $3 $4 $5 $6 $7 $8 $9 X,Y pos of 4 corners*
0 Add a 4 corners polygon primitive as box body*
4,1,4,$2,$3,$4,$5,$6,$7,$8,$9,$2,$3,0*
0 Add four circle primitives for the rounded corners*
1,1,$1+$1,$2,$3*
1,1,$1+$1,$4,$5*
1,1,$1+$1,$6,$7*
1,1,$1+$1,$8,$9*
0 Add four rect primitives between the rounded corners*
20,1,$1+$1,$2,$3,$4,$5,0*
20,1,$1+$1,$4,$5,$6,$7,0*
20,1,$1+$1,$6,$7,$8,$9,0*
20,1,$1+$1,$8,$9,$2,$3,0*%
G04 Aperture macros list end*
%TA.AperFunction,ComponentPad*%
%ADD10C,2.250000*%
%TD*%
%TA.AperFunction,SMDPad,CuDef*%
%ADD11RoundRect,0.250001X-0.462499X-0.624999X0.462499X-0.624999X0.462499X0.624999X-0.462499X0.624999X0*%
%TD*%
%TA.AperFunction,ComponentPad*%
%ADD12C,5.100000*%
%TD*%
G04 APERTURE END LIST*
D10*
%TO.P,J2,1,1*%
%TO.N,HP_MOS7_B*%
X183587300Y-85278000D03*
%TO.P,J2,2,2*%
%TO.N,LP_MOS7*%
X186087300Y-86778000D03*
%TO.P,J2,3,3*%
%TO.N,HP_MOS7_B*%
X183587300Y-88278000D03*
%TO.P,J2,4,4*%
%TO.N,unconnected-(J2-Pad4)*%
X186087300Y-89778000D03*
%TO.P,J2,5,5*%
%TO.N,LP_MOS6*%
X183587300Y-91278000D03*
%TO.P,J2,6,6*%
%TO.N,unconnected-(J2-Pad6)*%
X186087300Y-92778000D03*
%TO.P,J2,7,7*%
%TO.N,LP_MOS5*%
X183587300Y-94278000D03*
%TO.P,J2,8,8*%
%TO.N,HP_MOS6_B*%
X186087300Y-95778000D03*
%TO.P,J2,9,9*%
X183587300Y-97278000D03*
%TO.P,J2,10,10*%
%TO.N,GND*%
X186087300Y-98778000D03*
%TO.P,J2,11,11*%
%TO.N,LP_MOS4*%
X183587300Y-100278000D03*
%TO.P,J2,12,12*%
%TO.N,GND*%
X186087300Y-101778000D03*
%TO.P,J2,13,13*%
%TO.N,LP_MOS3*%
X183587300Y-103278000D03*
%TO.P,J2,14,14*%
%TO.N,GND*%
X186087300Y-104778000D03*
%TO.P,J2,15,15*%
%TO.N,LP_MOS2*%
X183587300Y-106278000D03*
%TO.P,J2,16,16*%
%TO.N,HP_MOS5_B*%
X186087300Y-107778000D03*
%TO.P,J2,17,17*%
X183587300Y-109278000D03*
%TO.P,J2,18,18*%
%TO.N,LP_MOS8*%
X191587300Y-85278000D03*
%TO.P,J2,19,19*%
%TO.N,HP_MOS8_B*%
X189087300Y-86778000D03*
%TO.P,J2,20,20*%
X191587300Y-88278000D03*
%TO.P,J2,21,21*%
%TO.N,+12VA*%
X189087300Y-89778000D03*
%TO.P,J2,22,22*%
X191587300Y-91278000D03*
%TO.P,J2,23,23*%
%TO.N,+3.3VP*%
X189087300Y-92778000D03*
%TO.P,J2,24,24*%
X191587300Y-94278000D03*
%TO.P,J2,25,25*%
%TO.N,+5VL*%
X189087300Y-95778000D03*
%TO.P,J2,26,26*%
X191587300Y-97278000D03*
%TO.P,J2,27,27*%
%TO.N,GND*%
X189087300Y-98778000D03*
%TO.P,J2,28,28*%
X191587300Y-100278000D03*
%TO.P,J2,29,29*%
X189087300Y-101778000D03*
%TO.P,J2,30,30*%
X191587300Y-103278000D03*
%TO.P,J2,31,31*%
X189087300Y-104778000D03*
%TO.P,J2,32,32*%
X191587300Y-106278000D03*
%TO.P,J2,33,33*%
%TO.N,SAFETY_IN*%
X189087300Y-107778000D03*
%TO.P,J2,34,34*%
%TO.N,LP_MOS1*%
X191587300Y-109278000D03*
%TO.P,J2,35,35*%
%TO.N,HP_MOS4_B*%
X183587300Y-123778000D03*
%TO.P,J2,36,36*%
X186087300Y-125278000D03*
%TO.P,J2,37,37*%
X183587300Y-126778000D03*
%TO.P,J2,38,38*%
%TO.N,CAN1_L*%
X186087300Y-128278000D03*
%TO.P,J2,39,39*%
%TO.N,HP_MOS3_B*%
X183587300Y-129778000D03*
%TO.P,J2,40,40*%
%TO.N,CAN1_H*%
X186087300Y-131278000D03*
%TO.P,J2,41,41*%
%TO.N,HP_MOS3_B*%
X183587300Y-132778000D03*
%TO.P,J2,42,42*%
%TO.N,CAN2_L*%
X186087300Y-134278000D03*
%TO.P,J2,43,43*%
%TO.N,HP_MOS3_B*%
X183587300Y-135778000D03*
%TO.P,J2,44,44*%
%TO.N,CAN2_H*%
X186087300Y-137278000D03*
%TO.P,J2,45,45*%
%TO.N,HP_MOS2_B*%
X183587300Y-138778000D03*
%TO.P,J2,46,46*%
%TO.N,HP_MOS1_B*%
X186087300Y-140278000D03*
%TO.P,J2,47,47*%
%TO.N,HP_MOS2_B*%
X183587300Y-141778000D03*
%TO.P,J2,48,48*%
%TO.N,ADC_IN1*%
X191587300Y-123778000D03*
%TO.P,J2,49,49*%
%TO.N,ADC_IN2*%
X189087300Y-125278000D03*
%TO.P,J2,50,50*%
%TO.N,ADC_IN3*%
X191587300Y-126778000D03*
%TO.P,J2,51,51*%
%TO.N,ADC_IN4*%
X189087300Y-128278000D03*
%TO.P,J2,52,52*%
%TO.N,CONN_AD_IN5*%
X191587300Y-129778000D03*
%TO.P,J2,53,53*%
%TO.N,CONN_AD_IN6*%
X189087300Y-131278000D03*
%TO.P,J2,54,54*%
%TO.N,CONN_AD_IN7*%
X191587300Y-132778000D03*
%TO.P,J2,55,55*%
%TO.N,CONN_AD_IN8*%
X189087300Y-134278000D03*
%TO.P,J2,56,56*%
%TO.N,GND*%
X191587300Y-135778000D03*
%TO.P,J2,57,57*%
X189087300Y-137278000D03*
%TO.P,J2,58,58*%
X191587300Y-138778000D03*
%TO.P,J2,59,59*%
%TO.N,HP_MOS1_B*%
X189087300Y-140278000D03*
%TO.P,J2,60,60*%
%TO.N,GND*%
X191587300Y-141778000D03*
%TD*%
D11*
%TO.P,F8,1*%
%TO.N,HP_MOS8*%
X174525000Y-80200000D03*
%TO.P,F8,2*%
%TO.N,HP_MOS8_B*%
X177500000Y-80200000D03*
%TD*%
%TO.P,F7,1*%
%TO.N,HP_MOS7*%
X174525000Y-86400000D03*
%TO.P,F7,2*%
%TO.N,HP_MOS7_B*%
X177500000Y-86400000D03*
%TD*%
%TO.P,F6,1*%
%TO.N,HP_MOS6*%
X174525000Y-96700000D03*
%TO.P,F6,2*%
%TO.N,HP_MOS6_B*%
X177500000Y-96700000D03*
%TD*%
%TO.P,F5,1*%
%TO.N,HP_MOS5*%
X174525000Y-108700000D03*
%TO.P,F5,2*%
%TO.N,HP_MOS5_B*%
X177500000Y-108700000D03*
%TD*%
%TO.P,F4,1*%
%TO.N,HP_MOS4*%
X174512500Y-120300000D03*
%TO.P,F4,2*%
%TO.N,HP_MOS4_B*%
X177487500Y-120300000D03*
%TD*%
%TO.P,F3,2*%
%TO.N,HP_MOS3_B*%
X177487500Y-133100000D03*
%TO.P,F3,1*%
%TO.N,HP_MOS3*%
X174512500Y-133100000D03*
%TD*%
%TO.P,F2,1*%
%TO.N,HP_MOS2*%
X174525000Y-139800000D03*
%TO.P,F2,2*%
%TO.N,HP_MOS2_B*%
X177500000Y-139800000D03*
%TD*%
%TO.P,F1,1*%
%TO.N,HP_MOS1*%
X174512500Y-147500000D03*
%TO.P,F1,2*%
%TO.N,HP_MOS1_B*%
X177487500Y-147500000D03*
%TD*%
D10*
%TO.P,J1,1,1*%
%TO.N,HP_MOS7*%
X168650000Y-85050000D03*
%TO.P,J1,2,2*%
%TO.N,LP_MOS7*%
X166150000Y-86550000D03*
%TO.P,J1,3,3*%
%TO.N,HP_MOS7*%
X168650000Y-88050000D03*
%TO.P,J1,4,4*%
%TO.N,unconnected-(J1-Pad4)*%
X166150000Y-89550000D03*
%TO.P,J1,5,5*%
%TO.N,LP_MOS6*%
X168650000Y-91050000D03*
%TO.P,J1,6,6*%
%TO.N,unconnected-(J1-Pad6)*%
X166150000Y-92550000D03*
%TO.P,J1,7,7*%
%TO.N,LP_MOS5*%
X168650000Y-94050000D03*
%TO.P,J1,8,8*%
%TO.N,HP_MOS6*%
X166150000Y-95550000D03*
%TO.P,J1,9,9*%
X168650000Y-97050000D03*
%TO.P,J1,10,10*%
%TO.N,GND*%
X166150000Y-98550000D03*
%TO.P,J1,11,11*%
%TO.N,LP_MOS4*%
X168650000Y-100050000D03*
%TO.P,J1,12,12*%
%TO.N,GND*%
X166150000Y-101550000D03*
%TO.P,J1,13,13*%
%TO.N,LP_MOS3*%
X168650000Y-103050000D03*
%TO.P,J1,14,14*%
%TO.N,GND*%
X166150000Y-104550000D03*
%TO.P,J1,15,15*%
%TO.N,LP_MOS2*%
X168650000Y-106050000D03*
%TO.P,J1,16,16*%
%TO.N,HP_MOS5*%
X166150000Y-107550000D03*
%TO.P,J1,17,17*%
X168650000Y-109050000D03*
%TO.P,J1,18,18*%
%TO.N,LP_MOS8*%
X160650000Y-85050000D03*
%TO.P,J1,19,19*%
%TO.N,HP_MOS8*%
X163150000Y-86550000D03*
%TO.P,J1,20,20*%
X160650000Y-88050000D03*
%TO.P,J1,21,21*%
%TO.N,+12VA*%
X163150000Y-89550000D03*
%TO.P,J1,22,22*%
X160650000Y-91050000D03*
%TO.P,J1,23,23*%
%TO.N,+3.3VP*%
X163150000Y-92550000D03*
%TO.P,J1,24,24*%
X160650000Y-94050000D03*
%TO.P,J1,25,25*%
%TO.N,+5VL*%
X163150000Y-95550000D03*
%TO.P,J1,26,26*%
X160650000Y-97050000D03*
%TO.P,J1,27,27*%
%TO.N,GND*%
X163150000Y-98550000D03*
%TO.P,J1,28,28*%
X160650000Y-100050000D03*
%TO.P,J1,29,29*%
X163150000Y-101550000D03*
%TO.P,J1,30,30*%
X160650000Y-103050000D03*
%TO.P,J1,31,31*%
X163150000Y-104550000D03*
%TO.P,J1,32,32*%
X160650000Y-106050000D03*
%TO.P,J1,33,33*%
%TO.N,SAFETY_IN*%
X163150000Y-107550000D03*
%TO.P,J1,34,34*%
%TO.N,LP_MOS1*%
X160650000Y-109050000D03*
%TO.P,J1,35,35*%
%TO.N,HP_MOS4*%
X168650000Y-123550000D03*
%TO.P,J1,36,36*%
X166150000Y-125050000D03*
%TO.P,J1,37,37*%
X168650000Y-126550000D03*
%TO.P,J1,38,38*%
%TO.N,CAN1_L*%
X166150000Y-128050000D03*
%TO.P,J1,39,39*%
%TO.N,HP_MOS3*%
X168650000Y-129550000D03*
%TO.P,J1,40,40*%
%TO.N,CAN1_H*%
X166150000Y-131050000D03*
%TO.P,J1,41,41*%
%TO.N,HP_MOS3*%
X168650000Y-132550000D03*
%TO.P,J1,42,42*%
%TO.N,CAN2_L*%
X166150000Y-134050000D03*
%TO.P,J1,43,43*%
%TO.N,HP_MOS3*%
X168650000Y-135550000D03*
%TO.P,J1,44,44*%
%TO.N,CAN2_H*%
X166150000Y-137050000D03*
%TO.P,J1,45,45*%
%TO.N,HP_MOS2*%
X168650000Y-138550000D03*
%TO.P,J1,46,46*%
%TO.N,HP_MOS1*%
X166150000Y-140050000D03*
%TO.P,J1,47,47*%
%TO.N,HP_MOS2*%
X168650000Y-141550000D03*
%TO.P,J1,48,48*%
%TO.N,ADC_IN1*%
X160650000Y-123550000D03*
%TO.P,J1,49,49*%
%TO.N,ADC_IN2*%
X163150000Y-125050000D03*
%TO.P,J1,50,50*%
%TO.N,ADC_IN3*%
X160650000Y-126550000D03*
%TO.P,J1,51,51*%
%TO.N,ADC_IN4*%
X163150000Y-128050000D03*
%TO.P,J1,52,52*%
%TO.N,CONN_AD_IN5*%
X160650000Y-129550000D03*
%TO.P,J1,53,53*%
%TO.N,CONN_AD_IN6*%
X163150000Y-131050000D03*
%TO.P,J1,54,54*%
%TO.N,CONN_AD_IN7*%
X160650000Y-132550000D03*
%TO.P,J1,55,55*%
%TO.N,CONN_AD_IN8*%
X163150000Y-134050000D03*
%TO.P,J1,56,56*%
%TO.N,GND*%
X160650000Y-135550000D03*
%TO.P,J1,57,57*%
X163150000Y-137050000D03*
%TO.P,J1,58,58*%
X160650000Y-138550000D03*
%TO.P,J1,59,59*%
%TO.N,HP_MOS1*%
X163150000Y-140050000D03*
%TO.P,J1,60,60*%
%TO.N,GND*%
X160650000Y-141550000D03*
D12*
%TO.P,J1,MH1,MH1*%
%TO.N,unconnected-(J1-PadMH1)*%
X154150000Y-77800000D03*
%TO.P,J1,MH2,MH2*%
%TO.N,unconnected-(J1-PadMH2)*%
X154150000Y-116300000D03*
%TO.P,J1,MH3,MH3*%
%TO.N,unconnected-(J1-PadMH3)*%
X154150000Y-148800000D03*
%TD*%
%TA.AperFunction,Conductor*%
%TO.N,HP_MOS4*%
G36*
X170528436Y-113365253D02*
G01*
X173528662Y-113443284D01*
X175573240Y-113496461D01*
X175640818Y-113518227D01*
X175685900Y-113573073D01*
X175695964Y-113622504D01*
X175688134Y-125059149D01*
X175668085Y-125127256D01*
X175614398Y-125173712D01*
X175562142Y-125185063D01*
X171710609Y-125185321D01*
X170526400Y-125185400D01*
X170524515Y-125185515D01*
X170524504Y-125185515D01*
X170304481Y-125198900D01*
X170286400Y-125200000D01*
X170286400Y-127016800D01*
X170266398Y-127084921D01*
X170209884Y-127132676D01*
X168048999Y-128055474D01*
X167651330Y-128225297D01*
X167580828Y-128233656D01*
X167516998Y-128202570D01*
X167480107Y-128141911D01*
X167476325Y-128098439D01*
X167480084Y-128055474D01*
X167480563Y-128050000D01*
X167460349Y-127818950D01*
X167458925Y-127813635D01*
X167457970Y-127808219D01*
X167458220Y-127808175D01*
X167455041Y-127787390D01*
X167427154Y-127118099D01*
X167426400Y-127100000D01*
X164837274Y-125536754D01*
X164789297Y-125484422D01*
X164776400Y-125428890D01*
X164776400Y-113525240D01*
X164796402Y-113457119D01*
X164850058Y-113410626D01*
X164901637Y-113399242D01*
X170524408Y-113365212D01*
X170528436Y-113365253D01*
G37*
%TD.AperFunction*%
%TD*%
%TA.AperFunction,Conductor*%
%TO.N,HP_MOS5*%
G36*
X167928354Y-101310487D02*
G01*
X168218617Y-101311048D01*
X168250982Y-101315342D01*
X168413629Y-101358924D01*
X168413637Y-101358925D01*
X168418950Y-101360349D01*
X168650000Y-101380563D01*
X168881050Y-101360349D01*
X169042838Y-101316998D01*
X169075689Y-101312705D01*
X173276294Y-101320825D01*
X175476877Y-101325079D01*
X175544959Y-101345213D01*
X175591348Y-101398958D01*
X175602633Y-101451094D01*
X175601263Y-112974512D01*
X175581253Y-113042630D01*
X175527592Y-113089117D01*
X175475439Y-113100497D01*
X164905376Y-113115224D01*
X164837227Y-113095317D01*
X164790659Y-113041726D01*
X164779200Y-112989224D01*
X164779200Y-106050000D01*
X167319437Y-106050000D01*
X167339651Y-106281050D01*
X167399680Y-106505079D01*
X167402005Y-106510064D01*
X167495373Y-106710294D01*
X167495376Y-106710299D01*
X167497699Y-106715281D01*
X167630730Y-106905269D01*
X167794731Y-107069270D01*
X167984718Y-107202301D01*
X167989700Y-107204624D01*
X167989705Y-107204627D01*
X168096616Y-107254480D01*
X168194921Y-107300320D01*
X168418950Y-107360349D01*
X168650000Y-107380563D01*
X168881050Y-107360349D01*
X169105079Y-107300320D01*
X169203384Y-107254480D01*
X169310295Y-107204627D01*
X169310300Y-107204624D01*
X169315282Y-107202301D01*
X169505269Y-107069270D01*
X169669270Y-106905269D01*
X169802301Y-106715281D01*
X169804624Y-106710299D01*
X169804627Y-106710294D01*
X169897995Y-106510064D01*
X169900320Y-106505079D01*
X169960349Y-106281050D01*
X169980563Y-106050000D01*
X169960349Y-105818950D01*
X169900320Y-105594921D01*
X169811884Y-105405269D01*
X169804627Y-105389706D01*
X169804624Y-105389701D01*
X169802301Y-105384719D01*
X169694373Y-105230582D01*
X169672429Y-105199242D01*
X169672427Y-105199239D01*
X169669270Y-105194731D01*
X169505269Y-105030730D01*
X169315282Y-104897699D01*
X169310300Y-104895376D01*
X169310295Y-104895373D01*
X169203384Y-104845520D01*
X169105079Y-104799680D01*
X168881050Y-104739651D01*
X168650000Y-104719437D01*
X168418950Y-104739651D01*
X168194921Y-104799680D01*
X168096771Y-104845448D01*
X167989706Y-104895373D01*
X167989701Y-104895376D01*
X167984719Y-104897699D01*
X167980212Y-104900855D01*
X167980210Y-104900856D01*
X167799242Y-105027571D01*
X167799239Y-105027573D01*
X167794731Y-105030730D01*
X167630730Y-105194731D01*
X167627573Y-105199239D01*
X167627571Y-105199242D01*
X167605627Y-105230582D01*
X167497699Y-105384719D01*
X167495376Y-105389701D01*
X167495373Y-105389706D01*
X167488116Y-105405269D01*
X167399680Y-105594921D01*
X167339651Y-105818950D01*
X167319437Y-106050000D01*
X164779200Y-106050000D01*
X164779200Y-105302853D01*
X164799202Y-105234732D01*
X164852858Y-105188239D01*
X164923132Y-105178135D01*
X164987712Y-105207629D01*
X165008413Y-105230582D01*
X165119833Y-105389706D01*
X165130730Y-105405269D01*
X165294731Y-105569270D01*
X165484718Y-105702301D01*
X165489700Y-105704624D01*
X165489705Y-105704627D01*
X165596616Y-105754480D01*
X165694921Y-105800320D01*
X165918950Y-105860349D01*
X166150000Y-105880563D01*
X166381050Y-105860349D01*
X166605079Y-105800320D01*
X166703384Y-105754480D01*
X166810295Y-105704627D01*
X166810300Y-105704624D01*
X166815282Y-105702301D01*
X167005269Y-105569270D01*
X167169270Y-105405269D01*
X167180168Y-105389706D01*
X167299144Y-105219790D01*
X167299145Y-105219788D01*
X167302301Y-105215281D01*
X167304624Y-105210299D01*
X167304627Y-105210294D01*
X167354552Y-105103229D01*
X167400320Y-105005079D01*
X167460349Y-104781050D01*
X167480563Y-104550000D01*
X167460349Y-104318950D01*
X167400320Y-104094921D01*
X167311884Y-103905269D01*
X167304627Y-103889706D01*
X167304624Y-103889701D01*
X167302301Y-103884719D01*
X167262462Y-103827823D01*
X167172429Y-103699242D01*
X167172427Y-103699239D01*
X167169270Y-103694731D01*
X167005269Y-103530730D01*
X166815282Y-103397699D01*
X166810300Y-103395376D01*
X166810295Y-103395373D01*
X166703384Y-103345520D01*
X166605079Y-103299680D01*
X166381050Y-103239651D01*
X166150000Y-103219437D01*
X165918950Y-103239651D01*
X165694921Y-103299680D01*
X165596771Y-103345448D01*
X165489706Y-103395373D01*
X165489701Y-103395376D01*
X165484719Y-103397699D01*
X165480212Y-103400855D01*
X165480210Y-103400856D01*
X165299242Y-103527571D01*
X165299239Y-103527573D01*
X165294731Y-103530730D01*
X165130730Y-103694731D01*
X165127573Y-103699239D01*
X165127571Y-103699242D01*
X165008413Y-103869418D01*
X164952956Y-103913746D01*
X164882337Y-103921055D01*
X164818976Y-103889024D01*
X164782991Y-103827823D01*
X164779200Y-103797147D01*
X164779200Y-103050000D01*
X167319437Y-103050000D01*
X167339651Y-103281050D01*
X167399680Y-103505079D01*
X167445448Y-103603229D01*
X167495373Y-103710294D01*
X167495376Y-103710299D01*
X167497699Y-103715281D01*
X167500855Y-103719788D01*
X167500856Y-103719790D01*
X167619833Y-103889706D01*
X167630730Y-103905269D01*
X167794731Y-104069270D01*
X167984718Y-104202301D01*
X167989700Y-104204624D01*
X167989705Y-104204627D01*
X168096616Y-104254480D01*
X168194921Y-104300320D01*
X168418950Y-104360349D01*
X168650000Y-104380563D01*
X168881050Y-104360349D01*
X169105079Y-104300320D01*
X169203384Y-104254480D01*
X169310295Y-104204627D01*
X169310300Y-104204624D01*
X169315282Y-104202301D01*
X169505269Y-104069270D01*
X169669270Y-103905269D01*
X169680168Y-103889706D01*
X169799144Y-103719790D01*
X169799145Y-103719788D01*
X169802301Y-103715281D01*
X169804624Y-103710299D01*
X169804627Y-103710294D01*
X169854552Y-103603229D01*
X169900320Y-103505079D01*
X169960349Y-103281050D01*
X169980563Y-103050000D01*
X169960349Y-102818950D01*
X169900320Y-102594921D01*
X169811884Y-102405269D01*
X169804627Y-102389706D01*
X169804624Y-102389701D01*
X169802301Y-102384719D01*
X169694373Y-102230582D01*
X169672429Y-102199242D01*
X169672427Y-102199239D01*
X169669270Y-102194731D01*
X169505269Y-102030730D01*
X169315282Y-101897699D01*
X169310300Y-101895376D01*
X169310295Y-101895373D01*
X169203384Y-101845520D01*
X169105079Y-101799680D01*
X168881050Y-101739651D01*
X168650000Y-101719437D01*
X168418950Y-101739651D01*
X168194921Y-101799680D01*
X168096771Y-101845448D01*
X167989706Y-101895373D01*
X167989701Y-101895376D01*
X167984719Y-101897699D01*
X167980212Y-101900855D01*
X167980210Y-101900856D01*
X167799242Y-102027571D01*
X167799239Y-102027573D01*
X167794731Y-102030730D01*
X167630730Y-102194731D01*
X167627573Y-102199239D01*
X167627571Y-102199242D01*
X167605627Y-102230582D01*
X167497699Y-102384719D01*
X167495376Y-102389701D01*
X167495373Y-102389706D01*
X167488116Y-102405269D01*
X167399680Y-102594921D01*
X167339651Y-102818950D01*
X167319437Y-103050000D01*
X164779200Y-103050000D01*
X164779200Y-102302853D01*
X164799202Y-102234732D01*
X164852858Y-102188239D01*
X164923132Y-102178135D01*
X164987712Y-102207629D01*
X165008413Y-102230582D01*
X165119833Y-102389706D01*
X165130730Y-102405269D01*
X165294731Y-102569270D01*
X165484718Y-102702301D01*
X165489700Y-102704624D01*
X165489705Y-102704627D01*
X165596616Y-102754480D01*
X165694921Y-102800320D01*
X165918950Y-102860349D01*
X166150000Y-102880563D01*
X166381050Y-102860349D01*
X166605079Y-102800320D01*
X166703384Y-102754480D01*
X166810295Y-102704627D01*
X166810300Y-102704624D01*
X166815282Y-102702301D01*
X167005269Y-102569270D01*
X167169270Y-102405269D01*
X167180168Y-102389706D01*
X167299144Y-102219790D01*
X167299145Y-102219788D01*
X167302301Y-102215281D01*
X167304624Y-102210299D01*
X167304627Y-102210294D01*
X167354552Y-102103229D01*
X167400320Y-102005079D01*
X167460349Y-101781050D01*
X167480563Y-101550000D01*
X167471537Y-101446829D01*
X167485526Y-101377224D01*
X167534926Y-101326232D01*
X167597301Y-101309848D01*
X167928354Y-101310487D01*
G37*
%TD.AperFunction*%
%TD*%
%TA.AperFunction,Conductor*%
%TO.N,HP_MOS2*%
G36*
X170513124Y-137549504D02*
G01*
X170513133Y-137549504D01*
X170516400Y-137549843D01*
X175642204Y-137544357D01*
X175710345Y-137564286D01*
X175756896Y-137617892D01*
X175768333Y-137671485D01*
X175708860Y-144312370D01*
X175688249Y-144380309D01*
X175634179Y-144426320D01*
X175583541Y-144437240D01*
X170269837Y-144465736D01*
X170215929Y-144453941D01*
X168995187Y-143884932D01*
X167573068Y-143222057D01*
X167519776Y-143175149D01*
X167500312Y-143106175D01*
X167549216Y-139438386D01*
X167549226Y-139437638D01*
X167530325Y-137617892D01*
X167527867Y-137381192D01*
X167547160Y-137312867D01*
X167600330Y-137265819D01*
X167666847Y-137254554D01*
X170513124Y-137549504D01*
G37*
%TD.AperFunction*%
%TD*%
%TA.AperFunction,Conductor*%
%TO.N,HP_MOS6*%
G36*
X168044153Y-89242977D02*
G01*
X168097263Y-89254782D01*
X168132529Y-89271226D01*
X168189936Y-89297996D01*
X168189941Y-89297998D01*
X168194921Y-89300320D01*
X168418950Y-89360349D01*
X168650000Y-89380563D01*
X168881050Y-89360349D01*
X169105079Y-89300320D01*
X169199920Y-89256095D01*
X169253307Y-89244290D01*
X169997586Y-89245098D01*
X175572170Y-89251150D01*
X175640268Y-89271226D01*
X175686702Y-89324932D01*
X175698032Y-89377310D01*
X175690327Y-95358926D01*
X175683156Y-100925834D01*
X175663066Y-100993929D01*
X175609351Y-101040353D01*
X175557141Y-101051672D01*
X173694833Y-101051453D01*
X169809259Y-101050996D01*
X169741142Y-101030986D01*
X169694655Y-100977325D01*
X169684560Y-100907050D01*
X169706062Y-100852726D01*
X169799141Y-100719795D01*
X169799144Y-100719789D01*
X169802301Y-100715281D01*
X169804624Y-100710299D01*
X169804627Y-100710294D01*
X169854552Y-100603229D01*
X169900320Y-100505079D01*
X169960349Y-100281050D01*
X169980563Y-100050000D01*
X169960349Y-99818950D01*
X169900320Y-99594921D01*
X169811884Y-99405269D01*
X169804627Y-99389706D01*
X169804624Y-99389701D01*
X169802301Y-99384719D01*
X169708476Y-99250723D01*
X169672429Y-99199242D01*
X169672427Y-99199239D01*
X169669270Y-99194731D01*
X169505269Y-99030730D01*
X169315282Y-98897699D01*
X169310300Y-98895376D01*
X169310295Y-98895373D01*
X169203384Y-98845520D01*
X169105079Y-98799680D01*
X168881050Y-98739651D01*
X168650000Y-98719437D01*
X168418950Y-98739651D01*
X168194921Y-98799680D01*
X168096771Y-98845448D01*
X167989706Y-98895373D01*
X167989701Y-98895376D01*
X167984719Y-98897699D01*
X167980212Y-98900855D01*
X167980210Y-98900856D01*
X167799242Y-99027571D01*
X167799239Y-99027573D01*
X167794731Y-99030730D01*
X167630730Y-99194731D01*
X167627573Y-99199239D01*
X167627571Y-99199242D01*
X167591524Y-99250723D01*
X167497699Y-99384719D01*
X167495376Y-99389701D01*
X167495373Y-99389706D01*
X167488116Y-99405269D01*
X167399680Y-99594921D01*
X167339651Y-99818950D01*
X167319437Y-100050000D01*
X167339651Y-100281050D01*
X167399680Y-100505079D01*
X167445448Y-100603229D01*
X167495373Y-100710294D01*
X167495376Y-100710299D01*
X167497699Y-100715281D01*
X167500855Y-100719788D01*
X167500856Y-100719790D01*
X167593747Y-100852452D01*
X167616435Y-100919726D01*
X167599150Y-100988587D01*
X167547380Y-101037171D01*
X167490519Y-101050723D01*
X167466001Y-101050720D01*
X167459963Y-101050719D01*
X167391844Y-101030708D01*
X167345784Y-100977969D01*
X167304627Y-100889706D01*
X167304624Y-100889701D01*
X167302301Y-100884719D01*
X167299144Y-100880210D01*
X167172429Y-100699242D01*
X167172427Y-100699239D01*
X167169270Y-100694731D01*
X167005269Y-100530730D01*
X166815282Y-100397699D01*
X166810300Y-100395376D01*
X166810295Y-100395373D01*
X166703384Y-100345520D01*
X166605079Y-100299680D01*
X166381050Y-100239651D01*
X166150000Y-100219437D01*
X165918950Y-100239651D01*
X165694921Y-100299680D01*
X165596771Y-100345448D01*
X165489706Y-100395373D01*
X165489701Y-100395376D01*
X165484719Y-100397699D01*
X165480212Y-100400855D01*
X165480210Y-100400856D01*
X165299242Y-100527571D01*
X165299239Y-100527573D01*
X165294731Y-100530730D01*
X165130730Y-100694731D01*
X165127573Y-100699239D01*
X165127571Y-100699242D01*
X165000856Y-100880210D01*
X164997699Y-100884719D01*
X164995376Y-100889701D01*
X164995373Y-100889706D01*
X164989395Y-100902527D01*
X164942478Y-100955812D01*
X164874200Y-100975273D01*
X164806241Y-100954731D01*
X164760175Y-100900708D01*
X164749200Y-100849277D01*
X164749200Y-99250723D01*
X164769202Y-99182602D01*
X164822858Y-99136109D01*
X164893132Y-99126005D01*
X164957712Y-99155499D01*
X164989395Y-99197473D01*
X164995373Y-99210294D01*
X164995376Y-99210299D01*
X164997699Y-99215281D01*
X165000855Y-99219788D01*
X165000856Y-99219790D01*
X165119833Y-99389706D01*
X165130730Y-99405269D01*
X165294731Y-99569270D01*
X165484718Y-99702301D01*
X165489700Y-99704624D01*
X165489705Y-99704627D01*
X165596616Y-99754480D01*
X165694921Y-99800320D01*
X165918950Y-99860349D01*
X166150000Y-99880563D01*
X166381050Y-99860349D01*
X166605079Y-99800320D01*
X166703384Y-99754480D01*
X166810295Y-99704627D01*
X166810300Y-99704624D01*
X166815282Y-99702301D01*
X167005269Y-99569270D01*
X167169270Y-99405269D01*
X167180168Y-99389706D01*
X167299144Y-99219790D01*
X167299145Y-99219788D01*
X167302301Y-99215281D01*
X167304624Y-99210299D01*
X167304627Y-99210294D01*
X167354552Y-99103229D01*
X167400320Y-99005079D01*
X167460349Y-98781050D01*
X167480563Y-98550000D01*
X167460349Y-98318950D01*
X167400320Y-98094921D01*
X167309757Y-97900708D01*
X167304627Y-97889706D01*
X167304624Y-97889701D01*
X167302301Y-97884719D01*
X167299144Y-97880210D01*
X167172429Y-97699242D01*
X167172427Y-97699239D01*
X167169270Y-97694731D01*
X167005269Y-97530730D01*
X166815282Y-97397699D01*
X166810300Y-97395376D01*
X166810295Y-97395373D01*
X166703384Y-97345520D01*
X166605079Y-97299680D01*
X166381050Y-97239651D01*
X166150000Y-97219437D01*
X165918950Y-97239651D01*
X165694921Y-97299680D01*
X165596771Y-97345448D01*
X165489706Y-97395373D01*
X165489701Y-97395376D01*
X165484719Y-97397699D01*
X165480212Y-97400855D01*
X165480210Y-97400856D01*
X165299242Y-97527571D01*
X165299239Y-97527573D01*
X165294731Y-97530730D01*
X165130730Y-97694731D01*
X165127573Y-97699239D01*
X165127571Y-97699242D01*
X165000856Y-97880210D01*
X164997699Y-97884719D01*
X164995376Y-97889701D01*
X164995373Y-97889706D01*
X164989395Y-97902527D01*
X164942478Y-97955812D01*
X164874200Y-97975273D01*
X164806241Y-97954731D01*
X164760175Y-97900708D01*
X164749200Y-97849277D01*
X164749200Y-94050000D01*
X167319437Y-94050000D01*
X167339651Y-94281050D01*
X167399680Y-94505079D01*
X167402005Y-94510064D01*
X167495373Y-94710294D01*
X167495376Y-94710299D01*
X167497699Y-94715281D01*
X167630730Y-94905269D01*
X167794731Y-95069270D01*
X167984718Y-95202301D01*
X167989700Y-95204624D01*
X167989705Y-95204627D01*
X168096616Y-95254480D01*
X168194921Y-95300320D01*
X168418950Y-95360349D01*
X168650000Y-95380563D01*
X168881050Y-95360349D01*
X169105079Y-95300320D01*
X169203384Y-95254480D01*
X169310295Y-95204627D01*
X169310300Y-95204624D01*
X169315282Y-95202301D01*
X169505269Y-95069270D01*
X169669270Y-94905269D01*
X169802301Y-94715281D01*
X169804624Y-94710299D01*
X169804627Y-94710294D01*
X169897995Y-94510064D01*
X169900320Y-94505079D01*
X169960349Y-94281050D01*
X169980563Y-94050000D01*
X169960349Y-93818950D01*
X169900320Y-93594921D01*
X169811884Y-93405269D01*
X169804627Y-93389706D01*
X169804624Y-93389701D01*
X169802301Y-93384719D01*
X169708476Y-93250723D01*
X169672429Y-93199242D01*
X169672427Y-93199239D01*
X169669270Y-93194731D01*
X169505269Y-93030730D01*
X169315282Y-92897699D01*
X169310300Y-92895376D01*
X169310295Y-92895373D01*
X169203384Y-92845520D01*
X169105079Y-92799680D01*
X168881050Y-92739651D01*
X168650000Y-92719437D01*
X168418950Y-92739651D01*
X168194921Y-92799680D01*
X168096771Y-92845448D01*
X167989706Y-92895373D01*
X167989701Y-92895376D01*
X167984719Y-92897699D01*
X167980212Y-92900855D01*
X167980210Y-92900856D01*
X167799242Y-93027571D01*
X167799239Y-93027573D01*
X167794731Y-93030730D01*
X167630730Y-93194731D01*
X167627573Y-93199239D01*
X167627571Y-93199242D01*
X167591524Y-93250723D01*
X167497699Y-93384719D01*
X167495376Y-93389701D01*
X167495373Y-93389706D01*
X167488116Y-93405269D01*
X167399680Y-93594921D01*
X167339651Y-93818950D01*
X167319437Y-94050000D01*
X164749200Y-94050000D01*
X164749200Y-93250723D01*
X164769202Y-93182602D01*
X164822858Y-93136109D01*
X164893132Y-93126005D01*
X164957712Y-93155499D01*
X164989395Y-93197473D01*
X164995373Y-93210294D01*
X164995376Y-93210299D01*
X164997699Y-93215281D01*
X165000855Y-93219788D01*
X165000856Y-93219790D01*
X165119833Y-93389706D01*
X165130730Y-93405269D01*
X165294731Y-93569270D01*
X165484718Y-93702301D01*
X165489700Y-93704624D01*
X165489705Y-93704627D01*
X165596616Y-93754480D01*
X165694921Y-93800320D01*
X165918950Y-93860349D01*
X166150000Y-93880563D01*
X166381050Y-93860349D01*
X166605079Y-93800320D01*
X166703384Y-93754480D01*
X166810295Y-93704627D01*
X166810300Y-93704624D01*
X166815282Y-93702301D01*
X167005269Y-93569270D01*
X167169270Y-93405269D01*
X167180168Y-93389706D01*
X167299144Y-93219790D01*
X167299145Y-93219788D01*
X167302301Y-93215281D01*
X167304624Y-93210299D01*
X167304627Y-93210294D01*
X167354552Y-93103229D01*
X167400320Y-93005079D01*
X167460349Y-92781050D01*
X167480563Y-92550000D01*
X167460349Y-92318950D01*
X167400320Y-92094921D01*
X167310605Y-91902527D01*
X167304627Y-91889706D01*
X167304624Y-91889701D01*
X167302301Y-91884719D01*
X167299144Y-91880210D01*
X167172429Y-91699242D01*
X167172427Y-91699239D01*
X167169270Y-91694731D01*
X167005269Y-91530730D01*
X166815282Y-91397699D01*
X166810300Y-91395376D01*
X166810295Y-91395373D01*
X166703384Y-91345520D01*
X166605079Y-91299680D01*
X166381050Y-91239651D01*
X166150000Y-91219437D01*
X165918950Y-91239651D01*
X165694921Y-91299680D01*
X165596771Y-91345448D01*
X165489706Y-91395373D01*
X165489701Y-91395376D01*
X165484719Y-91397699D01*
X165480212Y-91400855D01*
X165480210Y-91400856D01*
X165299242Y-91527571D01*
X165299239Y-91527573D01*
X165294731Y-91530730D01*
X165130730Y-91694731D01*
X165127573Y-91699239D01*
X165127571Y-91699242D01*
X165000856Y-91880210D01*
X164997699Y-91884719D01*
X164995376Y-91889701D01*
X164995373Y-91889706D01*
X164989395Y-91902527D01*
X164942478Y-91955812D01*
X164874200Y-91975273D01*
X164806241Y-91954731D01*
X164760175Y-91900708D01*
X164749200Y-91849277D01*
X164749200Y-91050000D01*
X167319437Y-91050000D01*
X167339651Y-91281050D01*
X167399680Y-91505079D01*
X167445448Y-91603229D01*
X167495373Y-91710294D01*
X167495376Y-91710299D01*
X167497699Y-91715281D01*
X167500855Y-91719788D01*
X167500856Y-91719790D01*
X167619833Y-91889706D01*
X167630730Y-91905269D01*
X167794731Y-92069270D01*
X167984718Y-92202301D01*
X167989700Y-92204624D01*
X167989705Y-92204627D01*
X168096616Y-92254480D01*
X168194921Y-92300320D01*
X168418950Y-92360349D01*
X168650000Y-92380563D01*
X168881050Y-92360349D01*
X169105079Y-92300320D01*
X169203384Y-92254480D01*
X169310295Y-92204627D01*
X169310300Y-92204624D01*
X169315282Y-92202301D01*
X169505269Y-92069270D01*
X169669270Y-91905269D01*
X169680168Y-91889706D01*
X169799144Y-91719790D01*
X169799145Y-91719788D01*
X169802301Y-91715281D01*
X169804624Y-91710299D01*
X169804627Y-91710294D01*
X169854552Y-91603229D01*
X169900320Y-91505079D01*
X169960349Y-91281050D01*
X169980563Y-91050000D01*
X169960349Y-90818950D01*
X169900320Y-90594921D01*
X169811884Y-90405269D01*
X169804627Y-90389706D01*
X169804624Y-90389701D01*
X169802301Y-90384719D01*
X169708476Y-90250723D01*
X169672429Y-90199242D01*
X169672427Y-90199239D01*
X169669270Y-90194731D01*
X169505269Y-90030730D01*
X169315282Y-89897699D01*
X169310300Y-89895376D01*
X169310295Y-89895373D01*
X169203384Y-89845520D01*
X169105079Y-89799680D01*
X168881050Y-89739651D01*
X168650000Y-89719437D01*
X168418950Y-89739651D01*
X168194921Y-89799680D01*
X168096771Y-89845448D01*
X167989706Y-89895373D01*
X167989701Y-89895376D01*
X167984719Y-89897699D01*
X167980212Y-89900855D01*
X167980210Y-89900856D01*
X167799242Y-90027571D01*
X167799239Y-90027573D01*
X167794731Y-90030730D01*
X167630730Y-90194731D01*
X167627573Y-90199239D01*
X167627571Y-90199242D01*
X167591524Y-90250723D01*
X167497699Y-90384719D01*
X167495376Y-90389701D01*
X167495373Y-90389706D01*
X167488116Y-90405269D01*
X167399680Y-90594921D01*
X167339651Y-90818950D01*
X167319437Y-91050000D01*
X164749200Y-91050000D01*
X164749200Y-90250723D01*
X164769202Y-90182602D01*
X164822858Y-90136109D01*
X164893132Y-90126005D01*
X164957712Y-90155499D01*
X164989395Y-90197473D01*
X164995373Y-90210294D01*
X164995376Y-90210299D01*
X164997699Y-90215281D01*
X165000855Y-90219788D01*
X165000856Y-90219790D01*
X165119833Y-90389706D01*
X165130730Y-90405269D01*
X165294731Y-90569270D01*
X165484718Y-90702301D01*
X165489700Y-90704624D01*
X165489705Y-90704627D01*
X165596616Y-90754480D01*
X165694921Y-90800320D01*
X165918950Y-90860349D01*
X166150000Y-90880563D01*
X166381050Y-90860349D01*
X166605079Y-90800320D01*
X166703384Y-90754480D01*
X166810295Y-90704627D01*
X166810300Y-90704624D01*
X166815282Y-90702301D01*
X167005269Y-90569270D01*
X167169270Y-90405269D01*
X167180168Y-90389706D01*
X167299144Y-90219790D01*
X167299145Y-90219788D01*
X167302301Y-90215281D01*
X167304624Y-90210299D01*
X167304627Y-90210294D01*
X167354552Y-90103229D01*
X167400320Y-90005079D01*
X167460349Y-89781050D01*
X167480563Y-89550000D01*
X167465643Y-89379465D01*
X167479632Y-89309862D01*
X167529032Y-89258870D01*
X167591299Y-89242486D01*
X168044153Y-89242977D01*
G37*
%TD.AperFunction*%
%TD*%
%TA.AperFunction,Conductor*%
%TO.N,HP_MOS1*%
G36*
X167237775Y-138690333D02*
G01*
X167284570Y-138743725D01*
X167296253Y-138796858D01*
X167290794Y-143500000D01*
X167307815Y-143507492D01*
X167307816Y-143507492D01*
X168379972Y-143979372D01*
X170176397Y-144770019D01*
X172972658Y-144785197D01*
X175574684Y-144799320D01*
X175642695Y-144819691D01*
X175688896Y-144873599D01*
X175700000Y-144925318D01*
X175700000Y-152974000D01*
X175679998Y-153042121D01*
X175626342Y-153088614D01*
X175574000Y-153100000D01*
X167540974Y-153100000D01*
X167472853Y-153079998D01*
X167466864Y-153075901D01*
X162051745Y-149137633D01*
X162008418Y-149081390D01*
X161999855Y-149036018D01*
X161976685Y-138825576D01*
X161996533Y-138757410D01*
X162050083Y-138710795D01*
X162101974Y-138699292D01*
X163388357Y-138692038D01*
X167169543Y-138670715D01*
X167237775Y-138690333D01*
G37*
%TD.AperFunction*%
%TD*%
%TA.AperFunction,Conductor*%
%TO.N,HP_MOS3*%
G36*
X175642121Y-125470002D02*
G01*
X175688614Y-125523658D01*
X175700000Y-125576000D01*
X175700000Y-128523370D01*
X175699998Y-128524000D01*
X175684800Y-131561200D01*
X175684800Y-137159400D01*
X175664798Y-137227521D01*
X175611142Y-137274014D01*
X175558800Y-137285400D01*
X170526237Y-137285400D01*
X170512204Y-137284616D01*
X167638367Y-136962548D01*
X167572898Y-136935084D01*
X167532670Y-136876584D01*
X167526400Y-136837332D01*
X167526400Y-128632722D01*
X167546402Y-128564601D01*
X167602301Y-128517110D01*
X169056040Y-127887156D01*
X170526400Y-127250000D01*
X170519706Y-125576504D01*
X170539435Y-125508304D01*
X170592905Y-125461597D01*
X170645705Y-125450000D01*
X175574000Y-125450000D01*
X175642121Y-125470002D01*
G37*
%TD.AperFunction*%
%TD*%
%TA.AperFunction,Conductor*%
%TO.N,HP_MOS8*%
G36*
X175641997Y-73320002D02*
G01*
X175688490Y-73373658D01*
X175699876Y-73426122D01*
X175692895Y-80500000D01*
X175691521Y-81892638D01*
X175671452Y-81960739D01*
X175617750Y-82007179D01*
X175565774Y-82018514D01*
X170377667Y-82028873D01*
X167193462Y-83089100D01*
X167193549Y-83102230D01*
X167208959Y-85431233D01*
X167189408Y-85499485D01*
X167136061Y-85546332D01*
X167065856Y-85556900D01*
X167005633Y-85530210D01*
X167005269Y-85530730D01*
X167002617Y-85528873D01*
X166815282Y-85397699D01*
X166810300Y-85395376D01*
X166810295Y-85395373D01*
X166703384Y-85345520D01*
X166605079Y-85299680D01*
X166381050Y-85239651D01*
X166150000Y-85219437D01*
X165918950Y-85239651D01*
X165694921Y-85299680D01*
X165635302Y-85327481D01*
X165489706Y-85395373D01*
X165489701Y-85395376D01*
X165484719Y-85397699D01*
X165480212Y-85400855D01*
X165480210Y-85400856D01*
X165299242Y-85527571D01*
X165299239Y-85527573D01*
X165294731Y-85530730D01*
X165130730Y-85694731D01*
X165127573Y-85699239D01*
X165127571Y-85699242D01*
X165018317Y-85855273D01*
X164997699Y-85884719D01*
X164995376Y-85889701D01*
X164995373Y-85889706D01*
X164988116Y-85905269D01*
X164899680Y-86094921D01*
X164839651Y-86318950D01*
X164819437Y-86550000D01*
X164839651Y-86781050D01*
X164899680Y-87005079D01*
X164934072Y-87078832D01*
X164995373Y-87210294D01*
X164995376Y-87210299D01*
X164997699Y-87215281D01*
X165000855Y-87219788D01*
X165000856Y-87219790D01*
X165116341Y-87384719D01*
X165130730Y-87405269D01*
X165294731Y-87569270D01*
X165299239Y-87572427D01*
X165299242Y-87572429D01*
X165331364Y-87594921D01*
X165484718Y-87702301D01*
X165489700Y-87704624D01*
X165489705Y-87704627D01*
X165596616Y-87754480D01*
X165694921Y-87800320D01*
X165918950Y-87860349D01*
X166150000Y-87880563D01*
X166381050Y-87860349D01*
X166605079Y-87800320D01*
X166703384Y-87754480D01*
X166810295Y-87704627D01*
X166810300Y-87704624D01*
X166815282Y-87702301D01*
X166968636Y-87594921D01*
X167000758Y-87572429D01*
X167000761Y-87572427D01*
X167005269Y-87569270D01*
X167009166Y-87565373D01*
X167013369Y-87561846D01*
X167014232Y-87562874D01*
X167070888Y-87531937D01*
X167141703Y-87537002D01*
X167198539Y-87579549D01*
X167223350Y-87646069D01*
X167223668Y-87654224D01*
X167228929Y-88449369D01*
X167209378Y-88517621D01*
X167156031Y-88564468D01*
X167085826Y-88575036D01*
X167021051Y-88545971D01*
X167013837Y-88539298D01*
X167005269Y-88530730D01*
X166815282Y-88397699D01*
X166810300Y-88395376D01*
X166810295Y-88395373D01*
X166703384Y-88345520D01*
X166605079Y-88299680D01*
X166381050Y-88239651D01*
X166150000Y-88219437D01*
X165918950Y-88239651D01*
X165694921Y-88299680D01*
X165596771Y-88345448D01*
X165489706Y-88395373D01*
X165489701Y-88395376D01*
X165484719Y-88397699D01*
X165480212Y-88400855D01*
X165480210Y-88400856D01*
X165299242Y-88527571D01*
X165299239Y-88527573D01*
X165294731Y-88530730D01*
X165130730Y-88694731D01*
X165127573Y-88699239D01*
X165127571Y-88699242D01*
X165000856Y-88880210D01*
X164997699Y-88884719D01*
X164995374Y-88889706D01*
X164995373Y-88889707D01*
X164984216Y-88913633D01*
X164937298Y-88966918D01*
X164870829Y-88986380D01*
X164825207Y-88986673D01*
X164432099Y-88989194D01*
X164363852Y-88969630D01*
X164317096Y-88916447D01*
X164304627Y-88889706D01*
X164304623Y-88889699D01*
X164302301Y-88884719D01*
X164299144Y-88880210D01*
X164172429Y-88699242D01*
X164172427Y-88699239D01*
X164169270Y-88694731D01*
X164005269Y-88530730D01*
X163815282Y-88397699D01*
X163810300Y-88395376D01*
X163810295Y-88395373D01*
X163703384Y-88345520D01*
X163605079Y-88299680D01*
X163381050Y-88239651D01*
X163150000Y-88219437D01*
X162918950Y-88239651D01*
X162694921Y-88299680D01*
X162596771Y-88345448D01*
X162489706Y-88395373D01*
X162489701Y-88395376D01*
X162484719Y-88397699D01*
X162480212Y-88400855D01*
X162480210Y-88400856D01*
X162299242Y-88527571D01*
X162299239Y-88527573D01*
X162294731Y-88530730D01*
X162130730Y-88694731D01*
X162127573Y-88699239D01*
X162127571Y-88699242D01*
X162054308Y-88803873D01*
X161997699Y-88884719D01*
X161988117Y-88905269D01*
X161975214Y-88932939D01*
X161928296Y-88986224D01*
X161861827Y-89005686D01*
X159451338Y-89021152D01*
X159383092Y-89001588D01*
X159336256Y-88948232D01*
X159324532Y-88895523D01*
X159315648Y-85855273D01*
X159335450Y-85787094D01*
X159388970Y-85740445D01*
X159459214Y-85730136D01*
X159523881Y-85759440D01*
X159544860Y-85782634D01*
X159619833Y-85889706D01*
X159630730Y-85905269D01*
X159794731Y-86069270D01*
X159984718Y-86202301D01*
X159989700Y-86204624D01*
X159989705Y-86204627D01*
X160096616Y-86254480D01*
X160194921Y-86300320D01*
X160418950Y-86360349D01*
X160650000Y-86380563D01*
X160881050Y-86360349D01*
X161105079Y-86300320D01*
X161203384Y-86254480D01*
X161310295Y-86204627D01*
X161310300Y-86204624D01*
X161315282Y-86202301D01*
X161505269Y-86069270D01*
X161669270Y-85905269D01*
X161680168Y-85889706D01*
X161799144Y-85719790D01*
X161799145Y-85719788D01*
X161802301Y-85715281D01*
X161804624Y-85710299D01*
X161804627Y-85710294D01*
X161854552Y-85603229D01*
X161900320Y-85505079D01*
X161960349Y-85281050D01*
X161980563Y-85050000D01*
X161960349Y-84818950D01*
X161900320Y-84594921D01*
X161854552Y-84496771D01*
X161804627Y-84389706D01*
X161804624Y-84389701D01*
X161802301Y-84384719D01*
X161790863Y-84368384D01*
X161672429Y-84199242D01*
X161672427Y-84199239D01*
X161669270Y-84194731D01*
X161505269Y-84030730D01*
X161315282Y-83897699D01*
X161310300Y-83895376D01*
X161310295Y-83895373D01*
X161203384Y-83845520D01*
X161105079Y-83799680D01*
X160881050Y-83739651D01*
X160650000Y-83719437D01*
X160418950Y-83739651D01*
X160194921Y-83799680D01*
X160096771Y-83845448D01*
X159989706Y-83895373D01*
X159989701Y-83895376D01*
X159984719Y-83897699D01*
X159980212Y-83900855D01*
X159980210Y-83900856D01*
X159799242Y-84027571D01*
X159799239Y-84027573D01*
X159794731Y-84030730D01*
X159630730Y-84194731D01*
X159627572Y-84199241D01*
X159627567Y-84199247D01*
X159540176Y-84324055D01*
X159484719Y-84368384D01*
X159414100Y-84375693D01*
X159350739Y-84343663D01*
X159314754Y-84282461D01*
X159310964Y-84252153D01*
X159300178Y-80560785D01*
X159319980Y-80492606D01*
X159347465Y-80462028D01*
X168142345Y-73426124D01*
X168265487Y-73327611D01*
X168331175Y-73300675D01*
X168344198Y-73300000D01*
X175573876Y-73300000D01*
X175641997Y-73320002D01*
G37*
%TD.AperFunction*%
%TD*%
%TA.AperFunction,Conductor*%
%TO.N,HP_MOS7*%
G36*
X172995880Y-82285030D02*
G01*
X175572721Y-82299295D01*
X175640728Y-82319674D01*
X175686924Y-82373586D01*
X175698007Y-82427264D01*
X175684800Y-83270400D01*
X175684800Y-88859400D01*
X175664798Y-88927521D01*
X175611142Y-88974014D01*
X175558800Y-88985400D01*
X170519200Y-88985400D01*
X167657466Y-88999306D01*
X167589250Y-88979635D01*
X167542497Y-88926206D01*
X167530855Y-88873078D01*
X167540471Y-83584050D01*
X167560597Y-83515966D01*
X167618285Y-83467857D01*
X170485909Y-82280981D01*
X170534793Y-82271405D01*
X172995880Y-82285030D01*
G37*
%TD.AperFunction*%
%TD*%
%TA.AperFunction,Conductor*%
%TO.N,HP_MOS1_B*%
G36*
X185479590Y-138588497D02*
G01*
X185878858Y-138590748D01*
X185889121Y-138591225D01*
X186087300Y-138608563D01*
X186260150Y-138593441D01*
X186271831Y-138592964D01*
X188875284Y-138607645D01*
X190044178Y-138614237D01*
X190112184Y-138634623D01*
X190158374Y-138688540D01*
X190169467Y-138740521D01*
X190146295Y-148951894D01*
X190126138Y-149019969D01*
X190095601Y-149052628D01*
X186184089Y-151968483D01*
X184815177Y-152988945D01*
X184679662Y-153089965D01*
X184613092Y-153114642D01*
X184604356Y-153114945D01*
X176572152Y-153114945D01*
X176504031Y-153094943D01*
X176457538Y-153041287D01*
X176446152Y-152988945D01*
X176446152Y-144840263D01*
X176466154Y-144772142D01*
X176519810Y-144725649D01*
X176571468Y-144714265D01*
X179173494Y-144700142D01*
X181969755Y-144684964D01*
X184855358Y-143414945D01*
X184853935Y-142188926D01*
X184858228Y-142156168D01*
X184896226Y-142014360D01*
X184897649Y-142009050D01*
X184917863Y-141778000D01*
X184897649Y-141546950D01*
X184857269Y-141396250D01*
X184852977Y-141363794D01*
X184850468Y-139201865D01*
X184854761Y-139169107D01*
X184867607Y-139121168D01*
X184897649Y-139009050D01*
X184917863Y-138778000D01*
X184914584Y-138740521D01*
X184913051Y-138722993D01*
X184927041Y-138653388D01*
X184976440Y-138602396D01*
X185039282Y-138586014D01*
X185479590Y-138588497D01*
G37*
%TD.AperFunction*%
%TD*%
%TA.AperFunction,Conductor*%
%TO.N,HP_MOS6_B*%
G36*
X184785847Y-89177182D02*
G01*
X184832398Y-89230788D01*
X184842578Y-89301051D01*
X184837240Y-89322364D01*
X184836980Y-89322921D01*
X184776951Y-89546950D01*
X184756737Y-89778000D01*
X184776951Y-90009050D01*
X184836980Y-90233079D01*
X184882748Y-90331229D01*
X184932673Y-90438294D01*
X184932676Y-90438299D01*
X184934999Y-90443281D01*
X184938155Y-90447788D01*
X184938156Y-90447790D01*
X185057133Y-90617706D01*
X185068030Y-90633269D01*
X185232031Y-90797270D01*
X185422018Y-90930301D01*
X185427000Y-90932624D01*
X185427005Y-90932627D01*
X185533916Y-90982480D01*
X185632221Y-91028320D01*
X185856250Y-91088349D01*
X186087300Y-91108563D01*
X186318350Y-91088349D01*
X186542379Y-91028320D01*
X186640684Y-90982480D01*
X186747595Y-90932627D01*
X186747600Y-90932624D01*
X186752582Y-90930301D01*
X186942569Y-90797270D01*
X187106570Y-90633269D01*
X187117468Y-90617706D01*
X187167739Y-90545911D01*
X187223196Y-90501583D01*
X187293816Y-90494274D01*
X187357176Y-90526305D01*
X187393161Y-90587506D01*
X187396952Y-90618182D01*
X187396952Y-91937818D01*
X187376950Y-92005939D01*
X187323294Y-92052432D01*
X187253020Y-92062536D01*
X187188440Y-92033042D01*
X187167739Y-92010089D01*
X187109729Y-91927242D01*
X187109727Y-91927239D01*
X187106570Y-91922731D01*
X186942569Y-91758730D01*
X186752582Y-91625699D01*
X186747600Y-91623376D01*
X186747595Y-91623373D01*
X186640684Y-91573520D01*
X186542379Y-91527680D01*
X186318350Y-91467651D01*
X186087300Y-91447437D01*
X185856250Y-91467651D01*
X185632221Y-91527680D01*
X185534071Y-91573448D01*
X185427006Y-91623373D01*
X185427001Y-91623376D01*
X185422019Y-91625699D01*
X185417512Y-91628855D01*
X185417510Y-91628856D01*
X185236542Y-91755571D01*
X185236539Y-91755573D01*
X185232031Y-91758730D01*
X185068030Y-91922731D01*
X185064873Y-91927239D01*
X185064871Y-91927242D01*
X184938156Y-92108210D01*
X184934999Y-92112719D01*
X184932676Y-92117701D01*
X184932673Y-92117706D01*
X184925416Y-92133269D01*
X184836980Y-92322921D01*
X184776951Y-92546950D01*
X184756737Y-92778000D01*
X184776951Y-93009050D01*
X184836980Y-93233079D01*
X184882748Y-93331229D01*
X184932673Y-93438294D01*
X184932676Y-93438299D01*
X184934999Y-93443281D01*
X184938155Y-93447788D01*
X184938156Y-93447790D01*
X185057133Y-93617706D01*
X185068030Y-93633269D01*
X185232031Y-93797270D01*
X185422018Y-93930301D01*
X185427000Y-93932624D01*
X185427005Y-93932627D01*
X185533916Y-93982480D01*
X185632221Y-94028320D01*
X185856250Y-94088349D01*
X186087300Y-94108563D01*
X186318350Y-94088349D01*
X186542379Y-94028320D01*
X186640684Y-93982480D01*
X186747595Y-93932627D01*
X186747600Y-93932624D01*
X186752582Y-93930301D01*
X186942569Y-93797270D01*
X187106570Y-93633269D01*
X187117468Y-93617706D01*
X187167739Y-93545911D01*
X187223196Y-93501583D01*
X187293816Y-93494274D01*
X187357176Y-93526305D01*
X187393161Y-93587506D01*
X187396952Y-93618182D01*
X187396952Y-97937818D01*
X187376950Y-98005939D01*
X187323294Y-98052432D01*
X187253020Y-98062536D01*
X187188440Y-98033042D01*
X187167739Y-98010089D01*
X187109729Y-97927242D01*
X187109727Y-97927239D01*
X187106570Y-97922731D01*
X186942569Y-97758730D01*
X186752582Y-97625699D01*
X186747600Y-97623376D01*
X186747595Y-97623373D01*
X186640684Y-97573520D01*
X186542379Y-97527680D01*
X186318350Y-97467651D01*
X186087300Y-97447437D01*
X185856250Y-97467651D01*
X185632221Y-97527680D01*
X185534071Y-97573448D01*
X185427006Y-97623373D01*
X185427001Y-97623376D01*
X185422019Y-97625699D01*
X185417512Y-97628855D01*
X185417510Y-97628856D01*
X185236542Y-97755571D01*
X185236539Y-97755573D01*
X185232031Y-97758730D01*
X185068030Y-97922731D01*
X185064873Y-97927239D01*
X185064871Y-97927242D01*
X184938156Y-98108210D01*
X184934999Y-98112719D01*
X184932676Y-98117701D01*
X184932673Y-98117706D01*
X184882748Y-98224771D01*
X184836980Y-98322921D01*
X184776951Y-98546950D01*
X184756737Y-98778000D01*
X184776951Y-99009050D01*
X184836980Y-99233079D01*
X184882748Y-99331229D01*
X184932673Y-99438294D01*
X184932676Y-99438299D01*
X184934999Y-99443281D01*
X184938155Y-99447788D01*
X184938156Y-99447790D01*
X185057133Y-99617706D01*
X185068030Y-99633269D01*
X185232031Y-99797270D01*
X185422018Y-99930301D01*
X185427000Y-99932624D01*
X185427005Y-99932627D01*
X185533916Y-99982480D01*
X185632221Y-100028320D01*
X185856250Y-100088349D01*
X186087300Y-100108563D01*
X186318350Y-100088349D01*
X186542379Y-100028320D01*
X186640684Y-99982480D01*
X186747595Y-99932627D01*
X186747600Y-99932624D01*
X186752582Y-99930301D01*
X186942569Y-99797270D01*
X187106570Y-99633269D01*
X187117468Y-99617706D01*
X187167739Y-99545911D01*
X187223196Y-99501583D01*
X187293816Y-99494274D01*
X187357176Y-99526305D01*
X187393161Y-99587506D01*
X187396952Y-99618182D01*
X187396952Y-100839360D01*
X187376950Y-100907481D01*
X187323294Y-100953974D01*
X187270967Y-100965360D01*
X187230362Y-100965365D01*
X187200489Y-100965368D01*
X187132366Y-100945374D01*
X187106606Y-100922695D01*
X187106570Y-100922731D01*
X186942569Y-100758730D01*
X186913063Y-100738069D01*
X186859008Y-100700220D01*
X186752582Y-100625699D01*
X186747600Y-100623376D01*
X186747595Y-100623373D01*
X186640684Y-100573520D01*
X186542379Y-100527680D01*
X186318350Y-100467651D01*
X186087300Y-100447437D01*
X185856250Y-100467651D01*
X185632221Y-100527680D01*
X185534071Y-100573448D01*
X185427006Y-100623373D01*
X185427001Y-100623376D01*
X185422019Y-100625699D01*
X185417512Y-100628855D01*
X185417510Y-100628856D01*
X185236542Y-100755571D01*
X185236539Y-100755573D01*
X185232031Y-100758730D01*
X185068030Y-100922731D01*
X185067720Y-100922421D01*
X185011322Y-100959947D01*
X184973923Y-100965630D01*
X184926969Y-100965636D01*
X184858848Y-100945641D01*
X184812349Y-100891990D01*
X184802238Y-100821718D01*
X184812763Y-100786385D01*
X184835294Y-100738069D01*
X184835297Y-100738060D01*
X184837620Y-100733079D01*
X184897649Y-100509050D01*
X184917863Y-100278000D01*
X184897649Y-100046950D01*
X184837620Y-99822921D01*
X184749184Y-99633269D01*
X184741927Y-99617706D01*
X184741924Y-99617701D01*
X184739601Y-99612719D01*
X184692822Y-99545911D01*
X184609729Y-99427242D01*
X184609727Y-99427239D01*
X184606570Y-99422731D01*
X184442569Y-99258730D01*
X184252582Y-99125699D01*
X184247600Y-99123376D01*
X184247595Y-99123373D01*
X184140684Y-99073520D01*
X184042379Y-99027680D01*
X183818350Y-98967651D01*
X183587300Y-98947437D01*
X183356250Y-98967651D01*
X183132221Y-99027680D01*
X183034071Y-99073448D01*
X182927006Y-99123373D01*
X182927001Y-99123376D01*
X182922019Y-99125699D01*
X182917512Y-99128855D01*
X182917510Y-99128856D01*
X182736542Y-99255571D01*
X182736539Y-99255573D01*
X182732031Y-99258730D01*
X182568030Y-99422731D01*
X182564873Y-99427239D01*
X182564871Y-99427242D01*
X182481778Y-99545911D01*
X182434999Y-99612719D01*
X182432676Y-99617701D01*
X182432673Y-99617706D01*
X182425416Y-99633269D01*
X182336980Y-99822921D01*
X182276951Y-100046950D01*
X182256737Y-100278000D01*
X182276951Y-100509050D01*
X182336980Y-100733079D01*
X182339303Y-100738060D01*
X182339306Y-100738069D01*
X182361984Y-100786702D01*
X182372645Y-100856893D01*
X182343665Y-100921706D01*
X182284245Y-100960562D01*
X182247804Y-100965951D01*
X176589011Y-100966617D01*
X176520888Y-100946623D01*
X176474389Y-100892973D01*
X176462996Y-100840779D01*
X176454542Y-94278000D01*
X182256737Y-94278000D01*
X182276951Y-94509050D01*
X182336980Y-94733079D01*
X182339305Y-94738064D01*
X182432673Y-94938294D01*
X182432676Y-94938299D01*
X182434999Y-94943281D01*
X182568030Y-95133269D01*
X182732031Y-95297270D01*
X182922018Y-95430301D01*
X182927000Y-95432624D01*
X182927005Y-95432627D01*
X183033916Y-95482480D01*
X183132221Y-95528320D01*
X183356250Y-95588349D01*
X183587300Y-95608563D01*
X183818350Y-95588349D01*
X184042379Y-95528320D01*
X184140684Y-95482480D01*
X184247595Y-95432627D01*
X184247600Y-95432624D01*
X184252582Y-95430301D01*
X184442569Y-95297270D01*
X184606570Y-95133269D01*
X184739601Y-94943281D01*
X184741924Y-94938299D01*
X184741927Y-94938294D01*
X184835295Y-94738064D01*
X184837620Y-94733079D01*
X184897649Y-94509050D01*
X184917863Y-94278000D01*
X184897649Y-94046950D01*
X184837620Y-93822921D01*
X184749184Y-93633269D01*
X184741927Y-93617706D01*
X184741924Y-93617701D01*
X184739601Y-93612719D01*
X184692822Y-93545911D01*
X184609729Y-93427242D01*
X184609727Y-93427239D01*
X184606570Y-93422731D01*
X184442569Y-93258730D01*
X184252582Y-93125699D01*
X184247600Y-93123376D01*
X184247595Y-93123373D01*
X184140684Y-93073520D01*
X184042379Y-93027680D01*
X183818350Y-92967651D01*
X183587300Y-92947437D01*
X183356250Y-92967651D01*
X183132221Y-93027680D01*
X183034071Y-93073448D01*
X182927006Y-93123373D01*
X182927001Y-93123376D01*
X182922019Y-93125699D01*
X182917512Y-93128855D01*
X182917510Y-93128856D01*
X182736542Y-93255571D01*
X182736539Y-93255573D01*
X182732031Y-93258730D01*
X182568030Y-93422731D01*
X182564873Y-93427239D01*
X182564871Y-93427242D01*
X182481778Y-93545911D01*
X182434999Y-93612719D01*
X182432676Y-93617701D01*
X182432673Y-93617706D01*
X182425416Y-93633269D01*
X182336980Y-93822921D01*
X182276951Y-94046950D01*
X182256737Y-94278000D01*
X176454542Y-94278000D01*
X176454535Y-94272525D01*
X176450678Y-91278000D01*
X182256737Y-91278000D01*
X182276951Y-91509050D01*
X182336980Y-91733079D01*
X182382748Y-91831229D01*
X182432673Y-91938294D01*
X182432676Y-91938299D01*
X182434999Y-91943281D01*
X182438155Y-91947788D01*
X182438156Y-91947790D01*
X182557133Y-92117706D01*
X182568030Y-92133269D01*
X182732031Y-92297270D01*
X182922018Y-92430301D01*
X182927000Y-92432624D01*
X182927005Y-92432627D01*
X183033916Y-92482480D01*
X183132221Y-92528320D01*
X183356250Y-92588349D01*
X183587300Y-92608563D01*
X183818350Y-92588349D01*
X184042379Y-92528320D01*
X184140684Y-92482480D01*
X184247595Y-92432627D01*
X184247600Y-92432624D01*
X184252582Y-92430301D01*
X184442569Y-92297270D01*
X184606570Y-92133269D01*
X184617468Y-92117706D01*
X184736444Y-91947790D01*
X184736445Y-91947788D01*
X184739601Y-91943281D01*
X184741924Y-91938299D01*
X184741927Y-91938294D01*
X184791852Y-91831229D01*
X184837620Y-91733079D01*
X184897649Y-91509050D01*
X184917863Y-91278000D01*
X184897649Y-91046950D01*
X184837620Y-90822921D01*
X184749184Y-90633269D01*
X184741927Y-90617706D01*
X184741924Y-90617701D01*
X184739601Y-90612719D01*
X184692822Y-90545911D01*
X184609729Y-90427242D01*
X184609727Y-90427239D01*
X184606570Y-90422731D01*
X184442569Y-90258730D01*
X184252582Y-90125699D01*
X184247600Y-90123376D01*
X184247595Y-90123373D01*
X184140684Y-90073520D01*
X184042379Y-90027680D01*
X183818350Y-89967651D01*
X183587300Y-89947437D01*
X183356250Y-89967651D01*
X183132221Y-90027680D01*
X183034071Y-90073448D01*
X182927006Y-90123373D01*
X182927001Y-90123376D01*
X182922019Y-90125699D01*
X182917512Y-90128855D01*
X182917510Y-90128856D01*
X182736542Y-90255571D01*
X182736539Y-90255573D01*
X182732031Y-90258730D01*
X182568030Y-90422731D01*
X182564873Y-90427239D01*
X182564871Y-90427242D01*
X182481778Y-90545911D01*
X182434999Y-90612719D01*
X182432676Y-90617701D01*
X182432673Y-90617706D01*
X182425416Y-90633269D01*
X182336980Y-90822921D01*
X182276951Y-91046950D01*
X182256737Y-91278000D01*
X176450678Y-91278000D01*
X176448120Y-89292256D01*
X176468034Y-89224111D01*
X176521630Y-89177549D01*
X176573982Y-89166095D01*
X179577783Y-89162834D01*
X182542050Y-89159616D01*
X182610193Y-89179544D01*
X182631282Y-89196521D01*
X182732031Y-89297270D01*
X182736539Y-89300427D01*
X182736542Y-89300429D01*
X182815592Y-89355780D01*
X182922018Y-89430301D01*
X182927000Y-89432624D01*
X182927005Y-89432627D01*
X183033916Y-89482480D01*
X183132221Y-89528320D01*
X183356250Y-89588349D01*
X183587300Y-89608563D01*
X183818350Y-89588349D01*
X184042379Y-89528320D01*
X184140684Y-89482480D01*
X184247595Y-89432627D01*
X184247600Y-89432624D01*
X184252582Y-89430301D01*
X184359008Y-89355781D01*
X184438058Y-89300429D01*
X184438061Y-89300427D01*
X184442569Y-89297270D01*
X184545590Y-89194249D01*
X184607902Y-89160223D01*
X184634548Y-89157344D01*
X184652218Y-89157325D01*
X184717705Y-89157254D01*
X184785847Y-89177182D01*
G37*
%TD.AperFunction*%
%TD*%
%TA.AperFunction,Conductor*%
%TO.N,HP_MOS4_B*%
G36*
X187244515Y-113314187D02*
G01*
X187312513Y-113334601D01*
X187358680Y-113388537D01*
X187369752Y-113440185D01*
X187369752Y-125343835D01*
X187349750Y-125411956D01*
X187308878Y-125451699D01*
X184740409Y-127002473D01*
X184719752Y-127014945D01*
X184719206Y-127028042D01*
X184719206Y-127028043D01*
X184677347Y-128032664D01*
X184654526Y-128099893D01*
X184598981Y-128144112D01*
X184528348Y-128151282D01*
X184501972Y-128143295D01*
X181936268Y-127047621D01*
X181881476Y-127002473D01*
X181859752Y-126931745D01*
X181859752Y-125114945D01*
X181848163Y-125114240D01*
X181621648Y-125100460D01*
X181621637Y-125100460D01*
X181619752Y-125100345D01*
X180435543Y-125100266D01*
X176584010Y-125100008D01*
X176515890Y-125080001D01*
X176469401Y-125026343D01*
X176458018Y-124974094D01*
X176450188Y-113537449D01*
X176470143Y-113469315D01*
X176523767Y-113422785D01*
X176572912Y-113411406D01*
X178617490Y-113358229D01*
X181617716Y-113280198D01*
X181621744Y-113280157D01*
X187244515Y-113314187D01*
G37*
%TD.AperFunction*%
%TD*%
%TA.AperFunction,Conductor*%
%TO.N,HP_MOS3_B*%
G36*
X181568538Y-125484947D02*
G01*
X181615031Y-125538603D01*
X181626416Y-125591479D01*
X181619752Y-127164945D01*
X182477644Y-127536698D01*
X182530758Y-127580039D01*
X182568030Y-127633269D01*
X182732031Y-127797270D01*
X182922018Y-127930301D01*
X182927000Y-127932624D01*
X182927005Y-127932627D01*
X183033916Y-127982480D01*
X183132221Y-128028320D01*
X183356250Y-128088349D01*
X183587300Y-128108563D01*
X183730257Y-128096056D01*
X183791337Y-128105965D01*
X184543851Y-128432055D01*
X184598402Y-128477493D01*
X184619752Y-128547667D01*
X184619752Y-136752277D01*
X184599750Y-136820398D01*
X184546094Y-136866891D01*
X184507785Y-136877493D01*
X181805432Y-137180343D01*
X181633948Y-137199561D01*
X181619915Y-137200345D01*
X176587352Y-137200345D01*
X176519231Y-137180343D01*
X176472738Y-137126687D01*
X176461352Y-137074345D01*
X176461352Y-131476145D01*
X176461351Y-131475915D01*
X176446154Y-128438945D01*
X176446152Y-128438315D01*
X176446152Y-125590945D01*
X176466154Y-125522824D01*
X176519810Y-125476331D01*
X176572152Y-125464945D01*
X181500417Y-125464945D01*
X181568538Y-125484947D01*
G37*
%TD.AperFunction*%
%TD*%
%TA.AperFunction,Conductor*%
%TO.N,HP_MOS7_B*%
G36*
X181660243Y-82195926D02*
G01*
X184527867Y-83382802D01*
X184583160Y-83427335D01*
X184605681Y-83498995D01*
X184615297Y-88788023D01*
X184595419Y-88856180D01*
X184541848Y-88902770D01*
X184488687Y-88914251D01*
X181626952Y-88900345D01*
X176587352Y-88900345D01*
X176519231Y-88880343D01*
X176472738Y-88826687D01*
X176461352Y-88774345D01*
X176461352Y-83185345D01*
X176448145Y-82342209D01*
X176467078Y-82273786D01*
X176519999Y-82226458D01*
X176573430Y-82214240D01*
X179150272Y-82199975D01*
X181611359Y-82186350D01*
X181660243Y-82195926D01*
G37*
%TD.AperFunction*%
%TD*%
%TA.AperFunction,Conductor*%
%TO.N,HP_MOS8_B*%
G36*
X176877312Y-73300558D02*
G01*
X183802176Y-73314457D01*
X183870256Y-73334596D01*
X183879963Y-73341534D01*
X192798014Y-80376969D01*
X192839107Y-80434864D01*
X192845973Y-80476260D01*
X192834655Y-84349485D01*
X192814454Y-84417547D01*
X192760663Y-84463883D01*
X192690360Y-84473782D01*
X192625866Y-84444100D01*
X192612137Y-84430112D01*
X192609729Y-84427242D01*
X192606570Y-84422731D01*
X192442569Y-84258730D01*
X192252582Y-84125699D01*
X192247600Y-84123376D01*
X192247595Y-84123373D01*
X192140684Y-84073520D01*
X192042379Y-84027680D01*
X191818350Y-83967651D01*
X191587300Y-83947437D01*
X191356250Y-83967651D01*
X191132221Y-84027680D01*
X191034071Y-84073448D01*
X190927006Y-84123373D01*
X190927001Y-84123376D01*
X190922019Y-84125699D01*
X190917512Y-84128855D01*
X190917510Y-84128856D01*
X190736542Y-84255571D01*
X190736539Y-84255573D01*
X190732031Y-84258730D01*
X190568030Y-84422731D01*
X190564873Y-84427239D01*
X190564871Y-84427242D01*
X190438156Y-84608210D01*
X190434999Y-84612719D01*
X190432676Y-84617701D01*
X190432673Y-84617706D01*
X190382748Y-84724771D01*
X190336980Y-84822921D01*
X190276951Y-85046950D01*
X190256737Y-85278000D01*
X190276951Y-85509050D01*
X190336980Y-85733079D01*
X190381042Y-85827570D01*
X190432673Y-85938294D01*
X190432676Y-85938299D01*
X190434999Y-85943281D01*
X190438155Y-85947788D01*
X190438156Y-85947790D01*
X190557133Y-86117706D01*
X190568030Y-86133269D01*
X190732031Y-86297270D01*
X190922018Y-86430301D01*
X190927000Y-86432624D01*
X190927005Y-86432627D01*
X191033916Y-86482480D01*
X191132221Y-86528320D01*
X191356250Y-86588349D01*
X191587300Y-86608563D01*
X191818350Y-86588349D01*
X192042379Y-86528320D01*
X192140684Y-86482480D01*
X192247595Y-86432627D01*
X192247600Y-86432624D01*
X192252582Y-86430301D01*
X192442569Y-86297270D01*
X192606570Y-86133269D01*
X192607631Y-86131754D01*
X192665801Y-86093055D01*
X192736789Y-86091931D01*
X192797115Y-86129364D01*
X192827627Y-86193470D01*
X192829208Y-86213742D01*
X192821620Y-88810468D01*
X192801419Y-88878530D01*
X192747628Y-88924866D01*
X192694814Y-88936097D01*
X191557974Y-88928803D01*
X190155025Y-88919801D01*
X190087034Y-88899363D01*
X190066738Y-88882899D01*
X189942569Y-88758730D01*
X189752582Y-88625699D01*
X189747600Y-88623376D01*
X189747595Y-88623373D01*
X189640684Y-88573520D01*
X189542379Y-88527680D01*
X189318350Y-88467651D01*
X189087300Y-88447437D01*
X188856250Y-88467651D01*
X188632221Y-88527680D01*
X188534071Y-88573448D01*
X188427006Y-88623373D01*
X188427001Y-88623376D01*
X188422019Y-88625699D01*
X188417512Y-88628855D01*
X188417510Y-88628856D01*
X188236542Y-88755571D01*
X188236539Y-88755573D01*
X188232031Y-88758730D01*
X188121486Y-88869275D01*
X188059174Y-88903301D01*
X188031583Y-88906177D01*
X187714844Y-88904145D01*
X187135652Y-88900429D01*
X187067662Y-88879991D01*
X187047366Y-88863527D01*
X186942569Y-88758730D01*
X186752582Y-88625699D01*
X186747600Y-88623376D01*
X186747595Y-88623373D01*
X186640684Y-88573520D01*
X186542379Y-88527680D01*
X186318350Y-88467651D01*
X186087300Y-88447437D01*
X185856250Y-88467651D01*
X185632221Y-88527680D01*
X185534071Y-88573448D01*
X185427006Y-88623373D01*
X185427001Y-88623376D01*
X185422019Y-88625699D01*
X185417512Y-88628855D01*
X185417510Y-88628856D01*
X185236542Y-88755571D01*
X185236539Y-88755573D01*
X185232031Y-88758730D01*
X185140612Y-88850149D01*
X185078300Y-88884175D01*
X185050709Y-88887051D01*
X185039793Y-88886981D01*
X184971802Y-88866543D01*
X184925654Y-88812590D01*
X184914604Y-88760150D01*
X184915068Y-88690066D01*
X184917789Y-88278851D01*
X184917863Y-88278000D01*
X184917799Y-88277268D01*
X184917803Y-88276662D01*
X184921026Y-87789618D01*
X184941478Y-87721631D01*
X184995440Y-87675495D01*
X185065780Y-87665856D01*
X185130164Y-87695776D01*
X185136118Y-87701357D01*
X185232031Y-87797270D01*
X185422018Y-87930301D01*
X185427000Y-87932624D01*
X185427005Y-87932627D01*
X185533916Y-87982480D01*
X185632221Y-88028320D01*
X185856250Y-88088349D01*
X186087300Y-88108563D01*
X186318350Y-88088349D01*
X186542379Y-88028320D01*
X186640684Y-87982480D01*
X186747595Y-87932627D01*
X186747600Y-87932624D01*
X186752582Y-87930301D01*
X186942569Y-87797270D01*
X187106570Y-87633269D01*
X187120960Y-87612719D01*
X187236444Y-87447790D01*
X187236445Y-87447788D01*
X187239601Y-87443281D01*
X187241924Y-87438299D01*
X187241927Y-87438294D01*
X187291852Y-87331229D01*
X187337620Y-87233079D01*
X187397649Y-87009050D01*
X187417863Y-86778000D01*
X187397649Y-86546950D01*
X187337620Y-86322921D01*
X187249184Y-86133269D01*
X187241927Y-86117706D01*
X187241924Y-86117701D01*
X187239601Y-86112719D01*
X187225045Y-86091931D01*
X187109729Y-85927242D01*
X187109727Y-85927239D01*
X187106570Y-85922731D01*
X186942569Y-85758730D01*
X186752582Y-85625699D01*
X186747600Y-85623376D01*
X186747595Y-85623373D01*
X186615586Y-85561817D01*
X186542379Y-85527680D01*
X186318350Y-85467651D01*
X186087300Y-85447437D01*
X185856250Y-85467651D01*
X185632221Y-85527680D01*
X185559014Y-85561817D01*
X185427006Y-85623373D01*
X185427001Y-85623376D01*
X185422019Y-85625699D01*
X185417512Y-85628855D01*
X185417510Y-85628856D01*
X185236542Y-85755571D01*
X185236539Y-85755573D01*
X185232031Y-85758730D01*
X185149605Y-85841156D01*
X185087293Y-85875182D01*
X185016478Y-85870117D01*
X184959642Y-85827570D01*
X184934831Y-85761050D01*
X184934513Y-85751227D01*
X184944409Y-84255571D01*
X184952690Y-83004045D01*
X181768485Y-81943818D01*
X180641945Y-81941569D01*
X176579702Y-81933457D01*
X176511622Y-81913319D01*
X176465236Y-81859570D01*
X176453957Y-81808262D01*
X176400411Y-73426659D01*
X176419977Y-73358412D01*
X176473335Y-73311577D01*
X176526661Y-73299854D01*
X176877312Y-73300558D01*
G37*
%TD.AperFunction*%
%TD*%
%TA.AperFunction,Conductor*%
%TO.N,HP_MOS5_B*%
G36*
X184767060Y-101244373D02*
G01*
X184813656Y-101297938D01*
X184823896Y-101368192D01*
X184820851Y-101383113D01*
X184778374Y-101541637D01*
X184778373Y-101541644D01*
X184776951Y-101546950D01*
X184756737Y-101778000D01*
X184776951Y-102009050D01*
X184836980Y-102233079D01*
X184882748Y-102331229D01*
X184932673Y-102438294D01*
X184932676Y-102438299D01*
X184934999Y-102443281D01*
X184938155Y-102447788D01*
X184938156Y-102447790D01*
X185057133Y-102617706D01*
X185068030Y-102633269D01*
X185232031Y-102797270D01*
X185422018Y-102930301D01*
X185427000Y-102932624D01*
X185427005Y-102932627D01*
X185533916Y-102982480D01*
X185632221Y-103028320D01*
X185856250Y-103088349D01*
X186087300Y-103108563D01*
X186318350Y-103088349D01*
X186542379Y-103028320D01*
X186640684Y-102982480D01*
X186747595Y-102932627D01*
X186747600Y-102932624D01*
X186752582Y-102930301D01*
X186942569Y-102797270D01*
X187106570Y-102633269D01*
X187117468Y-102617706D01*
X187137739Y-102588755D01*
X187193196Y-102544427D01*
X187263815Y-102537118D01*
X187327176Y-102569149D01*
X187363161Y-102630350D01*
X187366952Y-102661026D01*
X187366952Y-103894974D01*
X187346950Y-103963095D01*
X187293294Y-104009588D01*
X187223020Y-104019692D01*
X187158440Y-103990198D01*
X187137739Y-103967245D01*
X187109729Y-103927242D01*
X187109727Y-103927239D01*
X187106570Y-103922731D01*
X186942569Y-103758730D01*
X186752582Y-103625699D01*
X186747600Y-103623376D01*
X186747595Y-103623373D01*
X186640684Y-103573520D01*
X186542379Y-103527680D01*
X186318350Y-103467651D01*
X186087300Y-103447437D01*
X185856250Y-103467651D01*
X185632221Y-103527680D01*
X185534071Y-103573448D01*
X185427006Y-103623373D01*
X185427001Y-103623376D01*
X185422019Y-103625699D01*
X185417512Y-103628855D01*
X185417510Y-103628856D01*
X185236542Y-103755571D01*
X185236539Y-103755573D01*
X185232031Y-103758730D01*
X185068030Y-103922731D01*
X185064873Y-103927239D01*
X185064871Y-103927242D01*
X185036861Y-103967245D01*
X184934999Y-104112719D01*
X184932676Y-104117701D01*
X184932673Y-104117706D01*
X184925416Y-104133269D01*
X184836980Y-104322921D01*
X184776951Y-104546950D01*
X184756737Y-104778000D01*
X184776951Y-105009050D01*
X184836980Y-105233079D01*
X184882748Y-105331229D01*
X184932673Y-105438294D01*
X184932676Y-105438299D01*
X184934999Y-105443281D01*
X184938155Y-105447788D01*
X184938156Y-105447790D01*
X185057133Y-105617706D01*
X185068030Y-105633269D01*
X185232031Y-105797270D01*
X185422018Y-105930301D01*
X185427000Y-105932624D01*
X185427005Y-105932627D01*
X185533916Y-105982480D01*
X185632221Y-106028320D01*
X185856250Y-106088349D01*
X186087300Y-106108563D01*
X186318350Y-106088349D01*
X186542379Y-106028320D01*
X186640684Y-105982480D01*
X186747595Y-105932627D01*
X186747600Y-105932624D01*
X186752582Y-105930301D01*
X186942569Y-105797270D01*
X187106570Y-105633269D01*
X187117468Y-105617706D01*
X187137739Y-105588755D01*
X187193196Y-105544427D01*
X187263815Y-105537118D01*
X187327176Y-105569149D01*
X187363161Y-105630350D01*
X187366952Y-105661026D01*
X187366952Y-112904169D01*
X187346950Y-112972290D01*
X187293294Y-113018783D01*
X187240776Y-113030169D01*
X176670713Y-113015442D01*
X176602621Y-112995345D01*
X176556203Y-112941625D01*
X176544889Y-112889457D01*
X176544103Y-106278000D01*
X182256737Y-106278000D01*
X182276951Y-106509050D01*
X182336980Y-106733079D01*
X182339305Y-106738064D01*
X182432673Y-106938294D01*
X182432676Y-106938299D01*
X182434999Y-106943281D01*
X182568030Y-107133269D01*
X182732031Y-107297270D01*
X182922018Y-107430301D01*
X182927000Y-107432624D01*
X182927005Y-107432627D01*
X183033916Y-107482480D01*
X183132221Y-107528320D01*
X183356250Y-107588349D01*
X183587300Y-107608563D01*
X183818350Y-107588349D01*
X184042379Y-107528320D01*
X184140684Y-107482480D01*
X184247595Y-107432627D01*
X184247600Y-107432624D01*
X184252582Y-107430301D01*
X184442569Y-107297270D01*
X184606570Y-107133269D01*
X184739601Y-106943281D01*
X184741924Y-106938299D01*
X184741927Y-106938294D01*
X184835295Y-106738064D01*
X184837620Y-106733079D01*
X184897649Y-106509050D01*
X184917863Y-106278000D01*
X184897649Y-106046950D01*
X184837620Y-105822921D01*
X184749184Y-105633269D01*
X184741927Y-105617706D01*
X184741924Y-105617701D01*
X184739601Y-105612719D01*
X184709093Y-105569149D01*
X184609729Y-105427242D01*
X184609727Y-105427239D01*
X184606570Y-105422731D01*
X184442569Y-105258730D01*
X184252582Y-105125699D01*
X184247600Y-105123376D01*
X184247595Y-105123373D01*
X184140684Y-105073520D01*
X184042379Y-105027680D01*
X183818350Y-104967651D01*
X183587300Y-104947437D01*
X183356250Y-104967651D01*
X183132221Y-105027680D01*
X183034071Y-105073448D01*
X182927006Y-105123373D01*
X182927001Y-105123376D01*
X182922019Y-105125699D01*
X182917512Y-105128855D01*
X182917510Y-105128856D01*
X182736542Y-105255571D01*
X182736539Y-105255573D01*
X182732031Y-105258730D01*
X182568030Y-105422731D01*
X182564873Y-105427239D01*
X182564871Y-105427242D01*
X182465507Y-105569149D01*
X182434999Y-105612719D01*
X182432676Y-105617701D01*
X182432673Y-105617706D01*
X182425416Y-105633269D01*
X182336980Y-105822921D01*
X182276951Y-106046950D01*
X182256737Y-106278000D01*
X176544103Y-106278000D01*
X176543746Y-103278000D01*
X182256737Y-103278000D01*
X182276951Y-103509050D01*
X182336980Y-103733079D01*
X182382748Y-103831229D01*
X182432673Y-103938294D01*
X182432676Y-103938299D01*
X182434999Y-103943281D01*
X182438155Y-103947788D01*
X182438156Y-103947790D01*
X182557133Y-104117706D01*
X182568030Y-104133269D01*
X182732031Y-104297270D01*
X182922018Y-104430301D01*
X182927000Y-104432624D01*
X182927005Y-104432627D01*
X183033916Y-104482480D01*
X183132221Y-104528320D01*
X183356250Y-104588349D01*
X183587300Y-104608563D01*
X183818350Y-104588349D01*
X184042379Y-104528320D01*
X184140684Y-104482480D01*
X184247595Y-104432627D01*
X184247600Y-104432624D01*
X184252582Y-104430301D01*
X184442569Y-104297270D01*
X184606570Y-104133269D01*
X184617468Y-104117706D01*
X184736444Y-103947790D01*
X184736445Y-103947788D01*
X184739601Y-103943281D01*
X184741924Y-103938299D01*
X184741927Y-103938294D01*
X184791852Y-103831229D01*
X184837620Y-103733079D01*
X184897649Y-103509050D01*
X184917863Y-103278000D01*
X184897649Y-103046950D01*
X184837620Y-102822921D01*
X184749184Y-102633269D01*
X184741927Y-102617706D01*
X184741924Y-102617701D01*
X184739601Y-102612719D01*
X184709093Y-102569149D01*
X184609729Y-102427242D01*
X184609727Y-102427239D01*
X184606570Y-102422731D01*
X184442569Y-102258730D01*
X184252582Y-102125699D01*
X184247600Y-102123376D01*
X184247595Y-102123373D01*
X184140684Y-102073520D01*
X184042379Y-102027680D01*
X183818350Y-101967651D01*
X183587300Y-101947437D01*
X183356250Y-101967651D01*
X183132221Y-102027680D01*
X183034071Y-102073448D01*
X182927006Y-102123373D01*
X182927001Y-102123376D01*
X182922019Y-102125699D01*
X182917512Y-102128855D01*
X182917510Y-102128856D01*
X182736542Y-102255571D01*
X182736539Y-102255573D01*
X182732031Y-102258730D01*
X182568030Y-102422731D01*
X182564873Y-102427239D01*
X182564871Y-102427242D01*
X182465507Y-102569149D01*
X182434999Y-102612719D01*
X182432676Y-102617701D01*
X182432673Y-102617706D01*
X182425416Y-102633269D01*
X182336980Y-102822921D01*
X182276951Y-103046950D01*
X182256737Y-103278000D01*
X176543746Y-103278000D01*
X176543519Y-101366039D01*
X176563513Y-101297916D01*
X176617163Y-101251417D01*
X176669275Y-101240024D01*
X177601445Y-101238222D01*
X182610867Y-101228539D01*
X182679025Y-101248409D01*
X182700204Y-101265443D01*
X182732031Y-101297270D01*
X182922018Y-101430301D01*
X182927000Y-101432624D01*
X182927005Y-101432627D01*
X183033916Y-101482480D01*
X183132221Y-101528320D01*
X183356250Y-101588349D01*
X183587300Y-101608563D01*
X183818350Y-101588349D01*
X184042379Y-101528320D01*
X184140684Y-101482480D01*
X184247595Y-101432627D01*
X184247600Y-101432624D01*
X184252582Y-101430301D01*
X184442569Y-101297270D01*
X184478177Y-101261662D01*
X184540489Y-101227636D01*
X184567025Y-101224757D01*
X184698901Y-101224502D01*
X184767060Y-101244373D01*
G37*
%TD.AperFunction*%
%TD*%
%TA.AperFunction,Conductor*%
%TO.N,HP_MOS2_B*%
G36*
X184549124Y-137182373D02*
G01*
X184600900Y-137230951D01*
X184618285Y-137296137D01*
X184615270Y-137586430D01*
X184596926Y-139352583D01*
X184596936Y-139353331D01*
X184645840Y-143021120D01*
X184626748Y-143089502D01*
X184573084Y-143137002D01*
X183150965Y-143799877D01*
X181930223Y-144368886D01*
X181876315Y-144380681D01*
X176562611Y-144352185D01*
X176494599Y-144331818D01*
X176448394Y-144277914D01*
X176437292Y-144227315D01*
X176377819Y-137586430D01*
X176397210Y-137518133D01*
X176450447Y-137471162D01*
X176503948Y-137459302D01*
X181629752Y-137464788D01*
X181633019Y-137464449D01*
X181633028Y-137464449D01*
X184479305Y-137169499D01*
X184549124Y-137182373D01*
G37*
%TD.AperFunction*%
%TD*%
M02*
