%TF.GenerationSoftware,KiCad,Pcbnew,(6.0.8)*%
%TF.CreationDate,2024-08-14T07:32:42+02:00*%
%TF.ProjectId,FUSE_TestBoard,46555345-5f54-4657-9374-426f6172642e,rev?*%
%TF.SameCoordinates,Original*%
%TF.FileFunction,Copper,L2,Bot*%
%TF.FilePolarity,Positive*%
%FSLAX46Y46*%
G04 Gerber Fmt 4.6, Leading zero omitted, Abs format (unit mm)*
G04 Created by KiCad (PCBNEW (6.0.8)) date 2024-08-14 07:32:42*
%MOMM*%
%LPD*%
G01*
G04 APERTURE LIST*
%TA.AperFunction,ComponentPad*%
%ADD10C,2.250000*%
%TD*%
%TA.AperFunction,ComponentPad*%
%ADD11C,5.100000*%
%TD*%
%TA.AperFunction,Conductor*%
%ADD12C,0.254000*%
%TD*%
%TA.AperFunction,Conductor*%
%ADD13C,1.000000*%
%TD*%
%TA.AperFunction,Conductor*%
%ADD14C,0.250000*%
%TD*%
%TA.AperFunction,Conductor*%
%ADD15C,0.200000*%
%TD*%
G04 APERTURE END LIST*
D10*
%TO.P,J2,1,1*%
%TO.N,HP_MOS7_B*%
X183587300Y-85278000D03*
%TO.P,J2,2,2*%
%TO.N,LP_MOS7*%
X186087300Y-86778000D03*
%TO.P,J2,3,3*%
%TO.N,HP_MOS7_B*%
X183587300Y-88278000D03*
%TO.P,J2,4,4*%
%TO.N,unconnected-(J2-Pad4)*%
X186087300Y-89778000D03*
%TO.P,J2,5,5*%
%TO.N,LP_MOS6*%
X183587300Y-91278000D03*
%TO.P,J2,6,6*%
%TO.N,unconnected-(J2-Pad6)*%
X186087300Y-92778000D03*
%TO.P,J2,7,7*%
%TO.N,LP_MOS5*%
X183587300Y-94278000D03*
%TO.P,J2,8,8*%
%TO.N,HP_MOS6_B*%
X186087300Y-95778000D03*
%TO.P,J2,9,9*%
X183587300Y-97278000D03*
%TO.P,J2,10,10*%
%TO.N,GND*%
X186087300Y-98778000D03*
%TO.P,J2,11,11*%
%TO.N,LP_MOS4*%
X183587300Y-100278000D03*
%TO.P,J2,12,12*%
%TO.N,GND*%
X186087300Y-101778000D03*
%TO.P,J2,13,13*%
%TO.N,LP_MOS3*%
X183587300Y-103278000D03*
%TO.P,J2,14,14*%
%TO.N,GND*%
X186087300Y-104778000D03*
%TO.P,J2,15,15*%
%TO.N,LP_MOS2*%
X183587300Y-106278000D03*
%TO.P,J2,16,16*%
%TO.N,HP_MOS5_B*%
X186087300Y-107778000D03*
%TO.P,J2,17,17*%
X183587300Y-109278000D03*
%TO.P,J2,18,18*%
%TO.N,LP_MOS8*%
X191587300Y-85278000D03*
%TO.P,J2,19,19*%
%TO.N,HP_MOS8_B*%
X189087300Y-86778000D03*
%TO.P,J2,20,20*%
X191587300Y-88278000D03*
%TO.P,J2,21,21*%
%TO.N,+12VA*%
X189087300Y-89778000D03*
%TO.P,J2,22,22*%
X191587300Y-91278000D03*
%TO.P,J2,23,23*%
%TO.N,+3.3VP*%
X189087300Y-92778000D03*
%TO.P,J2,24,24*%
X191587300Y-94278000D03*
%TO.P,J2,25,25*%
%TO.N,+5VL*%
X189087300Y-95778000D03*
%TO.P,J2,26,26*%
X191587300Y-97278000D03*
%TO.P,J2,27,27*%
%TO.N,GND*%
X189087300Y-98778000D03*
%TO.P,J2,28,28*%
X191587300Y-100278000D03*
%TO.P,J2,29,29*%
X189087300Y-101778000D03*
%TO.P,J2,30,30*%
X191587300Y-103278000D03*
%TO.P,J2,31,31*%
X189087300Y-104778000D03*
%TO.P,J2,32,32*%
X191587300Y-106278000D03*
%TO.P,J2,33,33*%
%TO.N,SAFETY_IN*%
X189087300Y-107778000D03*
%TO.P,J2,34,34*%
%TO.N,LP_MOS1*%
X191587300Y-109278000D03*
%TO.P,J2,35,35*%
%TO.N,HP_MOS4_B*%
X183587300Y-123778000D03*
%TO.P,J2,36,36*%
X186087300Y-125278000D03*
%TO.P,J2,37,37*%
X183587300Y-126778000D03*
%TO.P,J2,38,38*%
%TO.N,CAN1_L*%
X186087300Y-128278000D03*
%TO.P,J2,39,39*%
%TO.N,HP_MOS3_B*%
X183587300Y-129778000D03*
%TO.P,J2,40,40*%
%TO.N,CAN1_H*%
X186087300Y-131278000D03*
%TO.P,J2,41,41*%
%TO.N,HP_MOS3_B*%
X183587300Y-132778000D03*
%TO.P,J2,42,42*%
%TO.N,CAN2_L*%
X186087300Y-134278000D03*
%TO.P,J2,43,43*%
%TO.N,HP_MOS3_B*%
X183587300Y-135778000D03*
%TO.P,J2,44,44*%
%TO.N,CAN2_H*%
X186087300Y-137278000D03*
%TO.P,J2,45,45*%
%TO.N,HP_MOS2_B*%
X183587300Y-138778000D03*
%TO.P,J2,46,46*%
%TO.N,HP_MOS1_B*%
X186087300Y-140278000D03*
%TO.P,J2,47,47*%
%TO.N,HP_MOS2_B*%
X183587300Y-141778000D03*
%TO.P,J2,48,48*%
%TO.N,ADC_IN1*%
X191587300Y-123778000D03*
%TO.P,J2,49,49*%
%TO.N,ADC_IN2*%
X189087300Y-125278000D03*
%TO.P,J2,50,50*%
%TO.N,ADC_IN3*%
X191587300Y-126778000D03*
%TO.P,J2,51,51*%
%TO.N,ADC_IN4*%
X189087300Y-128278000D03*
%TO.P,J2,52,52*%
%TO.N,CONN_AD_IN5*%
X191587300Y-129778000D03*
%TO.P,J2,53,53*%
%TO.N,CONN_AD_IN6*%
X189087300Y-131278000D03*
%TO.P,J2,54,54*%
%TO.N,CONN_AD_IN7*%
X191587300Y-132778000D03*
%TO.P,J2,55,55*%
%TO.N,CONN_AD_IN8*%
X189087300Y-134278000D03*
%TO.P,J2,56,56*%
%TO.N,GND*%
X191587300Y-135778000D03*
%TO.P,J2,57,57*%
X189087300Y-137278000D03*
%TO.P,J2,58,58*%
X191587300Y-138778000D03*
%TO.P,J2,59,59*%
%TO.N,HP_MOS1_B*%
X189087300Y-140278000D03*
%TO.P,J2,60,60*%
%TO.N,GND*%
X191587300Y-141778000D03*
%TD*%
%TO.P,J1,1,1*%
%TO.N,HP_MOS7*%
X168650000Y-85050000D03*
%TO.P,J1,2,2*%
%TO.N,LP_MOS7*%
X166150000Y-86550000D03*
%TO.P,J1,3,3*%
%TO.N,HP_MOS7*%
X168650000Y-88050000D03*
%TO.P,J1,4,4*%
%TO.N,unconnected-(J1-Pad4)*%
X166150000Y-89550000D03*
%TO.P,J1,5,5*%
%TO.N,LP_MOS6*%
X168650000Y-91050000D03*
%TO.P,J1,6,6*%
%TO.N,unconnected-(J1-Pad6)*%
X166150000Y-92550000D03*
%TO.P,J1,7,7*%
%TO.N,LP_MOS5*%
X168650000Y-94050000D03*
%TO.P,J1,8,8*%
%TO.N,HP_MOS6*%
X166150000Y-95550000D03*
%TO.P,J1,9,9*%
X168650000Y-97050000D03*
%TO.P,J1,10,10*%
%TO.N,GND*%
X166150000Y-98550000D03*
%TO.P,J1,11,11*%
%TO.N,LP_MOS4*%
X168650000Y-100050000D03*
%TO.P,J1,12,12*%
%TO.N,GND*%
X166150000Y-101550000D03*
%TO.P,J1,13,13*%
%TO.N,LP_MOS3*%
X168650000Y-103050000D03*
%TO.P,J1,14,14*%
%TO.N,GND*%
X166150000Y-104550000D03*
%TO.P,J1,15,15*%
%TO.N,LP_MOS2*%
X168650000Y-106050000D03*
%TO.P,J1,16,16*%
%TO.N,HP_MOS5*%
X166150000Y-107550000D03*
%TO.P,J1,17,17*%
X168650000Y-109050000D03*
%TO.P,J1,18,18*%
%TO.N,LP_MOS8*%
X160650000Y-85050000D03*
%TO.P,J1,19,19*%
%TO.N,HP_MOS8*%
X163150000Y-86550000D03*
%TO.P,J1,20,20*%
X160650000Y-88050000D03*
%TO.P,J1,21,21*%
%TO.N,+12VA*%
X163150000Y-89550000D03*
%TO.P,J1,22,22*%
X160650000Y-91050000D03*
%TO.P,J1,23,23*%
%TO.N,+3.3VP*%
X163150000Y-92550000D03*
%TO.P,J1,24,24*%
X160650000Y-94050000D03*
%TO.P,J1,25,25*%
%TO.N,+5VL*%
X163150000Y-95550000D03*
%TO.P,J1,26,26*%
X160650000Y-97050000D03*
%TO.P,J1,27,27*%
%TO.N,GND*%
X163150000Y-98550000D03*
%TO.P,J1,28,28*%
X160650000Y-100050000D03*
%TO.P,J1,29,29*%
X163150000Y-101550000D03*
%TO.P,J1,30,30*%
X160650000Y-103050000D03*
%TO.P,J1,31,31*%
X163150000Y-104550000D03*
%TO.P,J1,32,32*%
X160650000Y-106050000D03*
%TO.P,J1,33,33*%
%TO.N,SAFETY_IN*%
X163150000Y-107550000D03*
%TO.P,J1,34,34*%
%TO.N,LP_MOS1*%
X160650000Y-109050000D03*
%TO.P,J1,35,35*%
%TO.N,HP_MOS4*%
X168650000Y-123550000D03*
%TO.P,J1,36,36*%
X166150000Y-125050000D03*
%TO.P,J1,37,37*%
X168650000Y-126550000D03*
%TO.P,J1,38,38*%
%TO.N,CAN1_L*%
X166150000Y-128050000D03*
%TO.P,J1,39,39*%
%TO.N,HP_MOS3*%
X168650000Y-129550000D03*
%TO.P,J1,40,40*%
%TO.N,CAN1_H*%
X166150000Y-131050000D03*
%TO.P,J1,41,41*%
%TO.N,HP_MOS3*%
X168650000Y-132550000D03*
%TO.P,J1,42,42*%
%TO.N,CAN2_L*%
X166150000Y-134050000D03*
%TO.P,J1,43,43*%
%TO.N,HP_MOS3*%
X168650000Y-135550000D03*
%TO.P,J1,44,44*%
%TO.N,CAN2_H*%
X166150000Y-137050000D03*
%TO.P,J1,45,45*%
%TO.N,HP_MOS2*%
X168650000Y-138550000D03*
%TO.P,J1,46,46*%
%TO.N,HP_MOS1*%
X166150000Y-140050000D03*
%TO.P,J1,47,47*%
%TO.N,HP_MOS2*%
X168650000Y-141550000D03*
%TO.P,J1,48,48*%
%TO.N,ADC_IN1*%
X160650000Y-123550000D03*
%TO.P,J1,49,49*%
%TO.N,ADC_IN2*%
X163150000Y-125050000D03*
%TO.P,J1,50,50*%
%TO.N,ADC_IN3*%
X160650000Y-126550000D03*
%TO.P,J1,51,51*%
%TO.N,ADC_IN4*%
X163150000Y-128050000D03*
%TO.P,J1,52,52*%
%TO.N,CONN_AD_IN5*%
X160650000Y-129550000D03*
%TO.P,J1,53,53*%
%TO.N,CONN_AD_IN6*%
X163150000Y-131050000D03*
%TO.P,J1,54,54*%
%TO.N,CONN_AD_IN7*%
X160650000Y-132550000D03*
%TO.P,J1,55,55*%
%TO.N,CONN_AD_IN8*%
X163150000Y-134050000D03*
%TO.P,J1,56,56*%
%TO.N,GND*%
X160650000Y-135550000D03*
%TO.P,J1,57,57*%
X163150000Y-137050000D03*
%TO.P,J1,58,58*%
X160650000Y-138550000D03*
%TO.P,J1,59,59*%
%TO.N,HP_MOS1*%
X163150000Y-140050000D03*
%TO.P,J1,60,60*%
%TO.N,GND*%
X160650000Y-141550000D03*
D11*
%TO.P,J1,MH1,MH1*%
%TO.N,unconnected-(J1-PadMH1)*%
X154150000Y-77800000D03*
%TO.P,J1,MH2,MH2*%
%TO.N,unconnected-(J1-PadMH2)*%
X154150000Y-116300000D03*
%TO.P,J1,MH3,MH3*%
%TO.N,unconnected-(J1-PadMH3)*%
X154150000Y-148800000D03*
%TD*%
D12*
%TO.N,CONN_AD_IN8*%
X192700000Y-118500000D02*
X195600000Y-121400000D01*
X159600000Y-118500000D02*
X192700000Y-118500000D01*
X195600000Y-131800000D02*
X193122000Y-134278000D01*
X156400000Y-121700000D02*
X159600000Y-118500000D01*
X195600000Y-121400000D02*
X195600000Y-131800000D01*
X156400000Y-130900000D02*
X156400000Y-121700000D01*
X159550000Y-134050000D02*
X156400000Y-130900000D01*
D13*
%TO.N,GND*%
X191587300Y-100278000D02*
X191587300Y-106278000D01*
D12*
%TO.N,ADC_IN3*%
X159000000Y-124900000D02*
X160650000Y-126550000D01*
X160900000Y-121000000D02*
X159000000Y-122900000D01*
X191400000Y-121000000D02*
X160900000Y-121000000D01*
X193100000Y-122700000D02*
X191400000Y-121000000D01*
X159000000Y-122900000D02*
X159000000Y-124900000D01*
X193100000Y-125265300D02*
X193100000Y-122700000D01*
X191587300Y-126778000D02*
X193100000Y-125265300D01*
D14*
%TO.N,ADC_IN4*%
X158500000Y-127200000D02*
X159300000Y-128000000D01*
X193694000Y-122394000D02*
X191752000Y-120452000D01*
X158500000Y-122739224D02*
X158500000Y-127200000D01*
X193694000Y-127762000D02*
X193694000Y-122394000D01*
X160787224Y-120452000D02*
X158500000Y-122739224D01*
X193178000Y-128278000D02*
X193694000Y-127762000D01*
X191752000Y-120452000D02*
X160787224Y-120452000D01*
D12*
%TO.N,CONN_AD_IN5*%
X193022000Y-129778000D02*
X191587300Y-129778000D01*
X194146000Y-128654000D02*
X193022000Y-129778000D01*
X191939224Y-120000000D02*
X194146000Y-122206776D01*
X158000000Y-128490990D02*
X158000000Y-122600000D01*
X160600000Y-120000000D02*
X191939224Y-120000000D01*
X194146000Y-122206776D02*
X194146000Y-128654000D01*
X159059010Y-129550000D02*
X158000000Y-128490990D01*
X160650000Y-129550000D02*
X159059010Y-129550000D01*
X158000000Y-122600000D02*
X160600000Y-120000000D01*
%TO.N,CONN_AD_IN6*%
X194600000Y-122018724D02*
X194600000Y-130256000D01*
X160392000Y-119408000D02*
X191989276Y-119408000D01*
X194600000Y-130256000D02*
X193578000Y-131278000D01*
X157500000Y-122300000D02*
X160392000Y-119408000D01*
X157500000Y-129200000D02*
X157500000Y-122300000D01*
X191989276Y-119408000D02*
X194600000Y-122018724D01*
X159350000Y-131050000D02*
X157500000Y-129200000D01*
%TO.N,CONN_AD_IN7*%
X193322000Y-132778000D02*
X191587300Y-132778000D01*
X195100000Y-131000000D02*
X193322000Y-132778000D01*
X195100000Y-121800000D02*
X195100000Y-131000000D01*
X157000000Y-122000000D02*
X160046000Y-118954000D01*
X192254000Y-118954000D02*
X195100000Y-121800000D01*
X159059010Y-132550000D02*
X157000000Y-130490990D01*
X157000000Y-130490990D02*
X157000000Y-122000000D01*
X160650000Y-132550000D02*
X159059010Y-132550000D01*
X160046000Y-118954000D02*
X192254000Y-118954000D01*
D13*
%TO.N,GND*%
X189665300Y-143700000D02*
X191587300Y-141778000D01*
X162800000Y-143700000D02*
X189665300Y-143700000D01*
X160650000Y-141550000D02*
X162800000Y-143700000D01*
X191587300Y-135778000D02*
X191587300Y-141778000D01*
X189087300Y-137278000D02*
X190087300Y-137278000D01*
X190087300Y-137278000D02*
X191587300Y-135778000D01*
X160650000Y-138550000D02*
X160650000Y-141550000D01*
X161650000Y-135550000D02*
X163150000Y-137050000D01*
X160650000Y-135550000D02*
X161650000Y-135550000D01*
X160650000Y-135550000D02*
X160650000Y-138550000D01*
D15*
%TO.N,CONN_AD_IN6*%
X189087300Y-131278000D02*
X193578000Y-131278000D01*
%TO.N,CONN_AD_IN8*%
X163150000Y-134050000D02*
X159550000Y-134050000D01*
%TO.N,CONN_AD_IN6*%
X163150000Y-131050000D02*
X159350000Y-131050000D01*
%TO.N,CONN_AD_IN8*%
X189087300Y-134278000D02*
X193122000Y-134278000D01*
%TO.N,ADC_IN4*%
X189087300Y-128278000D02*
X193178000Y-128278000D01*
X159350000Y-128050000D02*
X159300000Y-128000000D01*
X163150000Y-128050000D02*
X159350000Y-128050000D01*
D12*
%TO.N,ADC_IN1*%
X189409300Y-121600000D02*
X191587300Y-123778000D01*
X162600000Y-121600000D02*
X189409300Y-121600000D01*
X160650000Y-123550000D02*
X162600000Y-121600000D01*
%TO.N,ADC_IN2*%
X185907300Y-122098000D02*
X189087300Y-125278000D01*
X166102000Y-122098000D02*
X185907300Y-122098000D01*
X163150000Y-125050000D02*
X166102000Y-122098000D01*
D15*
%TO.N,CAN2_H*%
X169393255Y-137278000D02*
X169165255Y-137050000D01*
X169165255Y-137050000D02*
X166150000Y-137050000D01*
X186087300Y-137278000D02*
X169393255Y-137278000D01*
%TO.N,CAN2_L*%
X171750000Y-134050000D02*
X171978000Y-134278000D01*
X171978000Y-134278000D02*
X186087300Y-134278000D01*
X166150000Y-134050000D02*
X171750000Y-134050000D01*
%TO.N,CAN1_H*%
X166150000Y-131050000D02*
X182844045Y-131050000D01*
X182844045Y-131050000D02*
X183072045Y-131278000D01*
X183072045Y-131278000D02*
X186087300Y-131278000D01*
%TO.N,CAN1_L*%
X183072045Y-128278000D02*
X186087300Y-128278000D01*
X182844045Y-128050000D02*
X183072045Y-128278000D01*
X166150000Y-128050000D02*
X182844045Y-128050000D01*
D13*
%TO.N,+5VL*%
X195100000Y-100790700D02*
X191587300Y-97278000D01*
X161522004Y-114200000D02*
X191597056Y-114200000D01*
X157625000Y-110302996D02*
X161522004Y-114200000D01*
X160650000Y-97050000D02*
X157625000Y-100075000D01*
X157625000Y-100075000D02*
X157625000Y-110302996D01*
X191597056Y-114200000D02*
X195100000Y-110697056D01*
X195100000Y-110697056D02*
X195100000Y-100790700D01*
%TO.N,GND*%
X193900000Y-110200000D02*
X193900000Y-105590700D01*
X191100000Y-113000000D02*
X193900000Y-110200000D01*
X193900000Y-105590700D02*
X191587300Y-103278000D01*
X162019060Y-113000000D02*
X191100000Y-113000000D01*
X158825000Y-109805940D02*
X162019060Y-113000000D01*
X158825000Y-104875000D02*
X158825000Y-109805940D01*
X160650000Y-103050000D02*
X158825000Y-104875000D01*
X190087300Y-98778000D02*
X191587300Y-100278000D01*
X186087300Y-98778000D02*
X190087300Y-98778000D01*
X190087300Y-101778000D02*
X191587300Y-103278000D01*
X186087300Y-101778000D02*
X190087300Y-101778000D01*
X190087300Y-104778000D02*
X191587300Y-106278000D01*
X186087300Y-104778000D02*
X190087300Y-104778000D01*
X160650000Y-100050000D02*
X160650000Y-106050000D01*
X163150000Y-104550000D02*
X166150000Y-104550000D01*
X161650000Y-106050000D02*
X163150000Y-104550000D01*
X160650000Y-106050000D02*
X161650000Y-106050000D01*
X163150000Y-101550000D02*
X166150000Y-101550000D01*
X161650000Y-103050000D02*
X163150000Y-101550000D01*
X160650000Y-103050000D02*
X161650000Y-103050000D01*
X163150000Y-98550000D02*
X166150000Y-98550000D01*
X161650000Y-100050000D02*
X163150000Y-98550000D01*
X160650000Y-100050000D02*
X161650000Y-100050000D01*
%TO.N,+3.3VP*%
X194700000Y-83402944D02*
X194700000Y-91165300D01*
X194700000Y-91165300D02*
X191587300Y-94278000D01*
X161822004Y-79600000D02*
X190897056Y-79600000D01*
X157625000Y-83797004D02*
X161822004Y-79600000D01*
X157625000Y-91025000D02*
X157625000Y-83797004D01*
X190897056Y-79600000D02*
X194700000Y-83402944D01*
X160650000Y-94050000D02*
X157625000Y-91025000D01*
%TO.N,+12VA*%
X193500000Y-83900000D02*
X193500000Y-90000000D01*
X190425000Y-80825000D02*
X193500000Y-83900000D01*
X162294060Y-80825000D02*
X190425000Y-80825000D01*
X158825000Y-84294060D02*
X162294060Y-80825000D01*
X158825000Y-89225000D02*
X158825000Y-84294060D01*
X193500000Y-90000000D02*
X192222000Y-91278000D01*
X160650000Y-91050000D02*
X158825000Y-89225000D01*
X192222000Y-91278000D02*
X191587300Y-91278000D01*
%TO.N,+5VL*%
X190087300Y-95778000D02*
X191587300Y-97278000D01*
X189087300Y-95778000D02*
X190087300Y-95778000D01*
%TO.N,+3.3VP*%
X189087300Y-92778000D02*
X190087300Y-92778000D01*
X190087300Y-92778000D02*
X191587300Y-94278000D01*
%TO.N,+12VA*%
X190087300Y-89778000D02*
X191587300Y-91278000D01*
X189087300Y-89778000D02*
X190087300Y-89778000D01*
X162150000Y-89550000D02*
X160650000Y-91050000D01*
X163150000Y-89550000D02*
X162150000Y-89550000D01*
%TO.N,+3.3VP*%
X162150000Y-92550000D02*
X160650000Y-94050000D01*
X163150000Y-92550000D02*
X162150000Y-92550000D01*
%TO.N,+5VL*%
X163150000Y-95550000D02*
X162150000Y-95550000D01*
X162150000Y-95550000D02*
X160650000Y-97050000D01*
D12*
%TO.N,SAFETY_IN*%
X189087300Y-109458700D02*
X189087300Y-107778000D01*
X187573000Y-110973000D02*
X189087300Y-109458700D01*
X166573000Y-110973000D02*
X187573000Y-110973000D01*
X163150000Y-107550000D02*
X166573000Y-110973000D01*
D13*
%TO.N,LP_MOS1*%
X191587300Y-110712700D02*
X191587300Y-109278000D01*
X190500000Y-111800000D02*
X191587300Y-110712700D01*
X163400000Y-111800000D02*
X190500000Y-111800000D01*
X160650000Y-109050000D02*
X163400000Y-111800000D01*
%TO.N,LP_MOS2*%
X183359300Y-106050000D02*
X183587300Y-106278000D01*
X168650000Y-106050000D02*
X183359300Y-106050000D01*
%TO.N,LP_MOS3*%
X183359300Y-103050000D02*
X183587300Y-103278000D01*
X168650000Y-103050000D02*
X183359300Y-103050000D01*
%TO.N,LP_MOS4*%
X183359300Y-100050000D02*
X183587300Y-100278000D01*
X168650000Y-100050000D02*
X183359300Y-100050000D01*
%TO.N,LP_MOS5*%
X183359300Y-94050000D02*
X183587300Y-94278000D01*
X168650000Y-94050000D02*
X183359300Y-94050000D01*
%TO.N,LP_MOS6*%
X183359300Y-91050000D02*
X183587300Y-91278000D01*
X168650000Y-91050000D02*
X183359300Y-91050000D01*
%TO.N,LP_MOS8*%
X191587300Y-85278000D02*
X188334300Y-82025000D01*
X188334300Y-82025000D02*
X163675000Y-82025000D01*
X163675000Y-82025000D02*
X160650000Y-85050000D01*
%TO.N,LP_MOS7*%
X186087300Y-85197060D02*
X186087300Y-86778000D01*
X184115240Y-83225000D02*
X186087300Y-85197060D01*
X166150000Y-84959010D02*
X167884010Y-83225000D01*
X167884010Y-83225000D02*
X184115240Y-83225000D01*
X166150000Y-86550000D02*
X166150000Y-84959010D01*
%TD*%
M02*
