%TF.GenerationSoftware,KiCad,Pcbnew,(6.0.8)*%
%TF.CreationDate,2024-08-14T07:32:47+02:00*%
%TF.ProjectId,FUSE_TestBoard,46555345-5f54-4657-9374-426f6172642e,rev?*%
%TF.SameCoordinates,Original*%
%TF.FileFunction,Drillmap*%
%TF.FilePolarity,Positive*%
%FSLAX45Y45*%
G04 Gerber Fmt 4.5, Leading zero omitted, Abs format (unit mm)*
G04 Created by KiCad (PCBNEW (6.0.8)) date 2024-08-14 07:32:47*
%MOMM*%
%LPD*%
G01*
G04 APERTURE LIST*
%ADD10C,0.100000*%
%ADD11C,0.200000*%
G04 APERTURE END LIST*
D10*
X15070000Y-7290000D02*
X19630000Y-7290000D01*
X19630000Y-7290000D02*
X19630000Y-15360000D01*
X19630000Y-15360000D02*
X15070000Y-15360000D01*
X15070000Y-15360000D02*
X15070000Y-7290000D01*
D11*
X15322619Y-15675476D02*
X15322619Y-15475476D01*
X15370238Y-15475476D01*
X15398809Y-15485000D01*
X15417857Y-15504048D01*
X15427381Y-15523095D01*
X15436905Y-15561190D01*
X15436905Y-15589762D01*
X15427381Y-15627857D01*
X15417857Y-15646905D01*
X15398809Y-15665952D01*
X15370238Y-15675476D01*
X15322619Y-15675476D01*
X15522619Y-15675476D02*
X15522619Y-15542143D01*
X15522619Y-15580238D02*
X15532143Y-15561190D01*
X15541667Y-15551667D01*
X15560714Y-15542143D01*
X15579762Y-15542143D01*
X15646428Y-15675476D02*
X15646428Y-15542143D01*
X15646428Y-15475476D02*
X15636905Y-15485000D01*
X15646428Y-15494524D01*
X15655952Y-15485000D01*
X15646428Y-15475476D01*
X15646428Y-15494524D01*
X15770238Y-15675476D02*
X15751190Y-15665952D01*
X15741667Y-15646905D01*
X15741667Y-15475476D01*
X15875000Y-15675476D02*
X15855952Y-15665952D01*
X15846428Y-15646905D01*
X15846428Y-15475476D01*
X16103571Y-15675476D02*
X16103571Y-15475476D01*
X16170238Y-15618333D01*
X16236905Y-15475476D01*
X16236905Y-15675476D01*
X16417857Y-15675476D02*
X16417857Y-15570714D01*
X16408333Y-15551667D01*
X16389286Y-15542143D01*
X16351190Y-15542143D01*
X16332143Y-15551667D01*
X16417857Y-15665952D02*
X16398809Y-15675476D01*
X16351190Y-15675476D01*
X16332143Y-15665952D01*
X16322619Y-15646905D01*
X16322619Y-15627857D01*
X16332143Y-15608809D01*
X16351190Y-15599286D01*
X16398809Y-15599286D01*
X16417857Y-15589762D01*
X16513095Y-15542143D02*
X16513095Y-15742143D01*
X16513095Y-15551667D02*
X16532143Y-15542143D01*
X16570238Y-15542143D01*
X16589286Y-15551667D01*
X16598809Y-15561190D01*
X16608333Y-15580238D01*
X16608333Y-15637381D01*
X16598809Y-15656428D01*
X16589286Y-15665952D01*
X16570238Y-15675476D01*
X16532143Y-15675476D01*
X16513095Y-15665952D01*
X16694048Y-15656428D02*
X16703571Y-15665952D01*
X16694048Y-15675476D01*
X16684524Y-15665952D01*
X16694048Y-15656428D01*
X16694048Y-15675476D01*
X16694048Y-15551667D02*
X16703571Y-15561190D01*
X16694048Y-15570714D01*
X16684524Y-15561190D01*
X16694048Y-15551667D01*
X16694048Y-15570714D01*
M02*
