%TF.GenerationSoftware,KiCad,Pcbnew,(6.0.8)*%
%TF.CreationDate,2024-08-14T07:32:43+02:00*%
%TF.ProjectId,FUSE_TestBoard,46555345-5f54-4657-9374-426f6172642e,rev?*%
%TF.SameCoordinates,Original*%
%TF.FileFunction,Soldermask,Bot*%
%TF.FilePolarity,Negative*%
%FSLAX46Y46*%
G04 Gerber Fmt 4.6, Leading zero omitted, Abs format (unit mm)*
G04 Created by KiCad (PCBNEW (6.0.8)) date 2024-08-14 07:32:43*
%MOMM*%
%LPD*%
G01*
G04 APERTURE LIST*
%ADD10C,2.250000*%
%ADD11C,5.100000*%
G04 APERTURE END LIST*
D10*
%TO.C,J2*%
X183587300Y-85278000D03*
X186087300Y-86778000D03*
X183587300Y-88278000D03*
X186087300Y-89778000D03*
X183587300Y-91278000D03*
X186087300Y-92778000D03*
X183587300Y-94278000D03*
X186087300Y-95778000D03*
X183587300Y-97278000D03*
X186087300Y-98778000D03*
X183587300Y-100278000D03*
X186087300Y-101778000D03*
X183587300Y-103278000D03*
X186087300Y-104778000D03*
X183587300Y-106278000D03*
X186087300Y-107778000D03*
X183587300Y-109278000D03*
X191587300Y-85278000D03*
X189087300Y-86778000D03*
X191587300Y-88278000D03*
X189087300Y-89778000D03*
X191587300Y-91278000D03*
X189087300Y-92778000D03*
X191587300Y-94278000D03*
X189087300Y-95778000D03*
X191587300Y-97278000D03*
X189087300Y-98778000D03*
X191587300Y-100278000D03*
X189087300Y-101778000D03*
X191587300Y-103278000D03*
X189087300Y-104778000D03*
X191587300Y-106278000D03*
X189087300Y-107778000D03*
X191587300Y-109278000D03*
X183587300Y-123778000D03*
X186087300Y-125278000D03*
X183587300Y-126778000D03*
X186087300Y-128278000D03*
X183587300Y-129778000D03*
X186087300Y-131278000D03*
X183587300Y-132778000D03*
X186087300Y-134278000D03*
X183587300Y-135778000D03*
X186087300Y-137278000D03*
X183587300Y-138778000D03*
X186087300Y-140278000D03*
X183587300Y-141778000D03*
X191587300Y-123778000D03*
X189087300Y-125278000D03*
X191587300Y-126778000D03*
X189087300Y-128278000D03*
X191587300Y-129778000D03*
X189087300Y-131278000D03*
X191587300Y-132778000D03*
X189087300Y-134278000D03*
X191587300Y-135778000D03*
X189087300Y-137278000D03*
X191587300Y-138778000D03*
X189087300Y-140278000D03*
X191587300Y-141778000D03*
%TD*%
%TO.C,J1*%
X168650000Y-85050000D03*
X166150000Y-86550000D03*
X168650000Y-88050000D03*
X166150000Y-89550000D03*
X168650000Y-91050000D03*
X166150000Y-92550000D03*
X168650000Y-94050000D03*
X166150000Y-95550000D03*
X168650000Y-97050000D03*
X166150000Y-98550000D03*
X168650000Y-100050000D03*
X166150000Y-101550000D03*
X168650000Y-103050000D03*
X166150000Y-104550000D03*
X168650000Y-106050000D03*
X166150000Y-107550000D03*
X168650000Y-109050000D03*
X160650000Y-85050000D03*
X163150000Y-86550000D03*
X160650000Y-88050000D03*
X163150000Y-89550000D03*
X160650000Y-91050000D03*
X163150000Y-92550000D03*
X160650000Y-94050000D03*
X163150000Y-95550000D03*
X160650000Y-97050000D03*
X163150000Y-98550000D03*
X160650000Y-100050000D03*
X163150000Y-101550000D03*
X160650000Y-103050000D03*
X163150000Y-104550000D03*
X160650000Y-106050000D03*
X163150000Y-107550000D03*
X160650000Y-109050000D03*
X168650000Y-123550000D03*
X166150000Y-125050000D03*
X168650000Y-126550000D03*
X166150000Y-128050000D03*
X168650000Y-129550000D03*
X166150000Y-131050000D03*
X168650000Y-132550000D03*
X166150000Y-134050000D03*
X168650000Y-135550000D03*
X166150000Y-137050000D03*
X168650000Y-138550000D03*
X166150000Y-140050000D03*
X168650000Y-141550000D03*
X160650000Y-123550000D03*
X163150000Y-125050000D03*
X160650000Y-126550000D03*
X163150000Y-128050000D03*
X160650000Y-129550000D03*
X163150000Y-131050000D03*
X160650000Y-132550000D03*
X163150000Y-134050000D03*
X160650000Y-135550000D03*
X163150000Y-137050000D03*
X160650000Y-138550000D03*
X163150000Y-140050000D03*
X160650000Y-141550000D03*
D11*
X154150000Y-77800000D03*
X154150000Y-116300000D03*
X154150000Y-148800000D03*
%TD*%
M02*
