%TF.GenerationSoftware,KiCad,Pcbnew,(6.0.8)*%
%TF.CreationDate,2024-08-14T07:32:47+02:00*%
%TF.ProjectId,FUSE_TestBoard,46555345-5f54-4657-9374-426f6172642e,rev?*%
%TF.SameCoordinates,Original*%
%TF.FileFunction,Drillmap*%
%TF.FilePolarity,Positive*%
%FSLAX45Y45*%
G04 Gerber Fmt 4.5, Leading zero omitted, Abs format (unit mm)*
G04 Created by KiCad (PCBNEW (6.0.8)) date 2024-08-14 07:32:47*
%MOMM*%
%LPD*%
G01*
G04 APERTURE LIST*
%ADD10C,0.100000*%
%ADD11C,0.200000*%
%ADD12C,0.150000*%
%ADD13C,0.340000*%
G04 APERTURE END LIST*
D10*
X15070000Y-7290000D02*
X19630000Y-7290000D01*
X19630000Y-7290000D02*
X19630000Y-15360000D01*
X19630000Y-15360000D02*
X15070000Y-15360000D01*
X15070000Y-15360000D02*
X15070000Y-7290000D01*
D11*
D12*
X15990000Y-8430000D02*
X16140000Y-8580000D01*
X16140000Y-8430000D02*
X15990000Y-8580000D01*
X15990000Y-8730000D02*
X16140000Y-8880000D01*
X16140000Y-8730000D02*
X15990000Y-8880000D01*
X15990000Y-9030000D02*
X16140000Y-9180000D01*
X16140000Y-9030000D02*
X15990000Y-9180000D01*
X15990000Y-9330000D02*
X16140000Y-9480000D01*
X16140000Y-9330000D02*
X15990000Y-9480000D01*
X15990000Y-9630000D02*
X16140000Y-9780000D01*
X16140000Y-9630000D02*
X15990000Y-9780000D01*
X15990000Y-9930000D02*
X16140000Y-10080000D01*
X16140000Y-9930000D02*
X15990000Y-10080000D01*
X15990000Y-10230000D02*
X16140000Y-10380000D01*
X16140000Y-10230000D02*
X15990000Y-10380000D01*
X15990000Y-10530000D02*
X16140000Y-10680000D01*
X16140000Y-10530000D02*
X15990000Y-10680000D01*
X15990000Y-10830000D02*
X16140000Y-10980000D01*
X16140000Y-10830000D02*
X15990000Y-10980000D01*
X15990000Y-12280000D02*
X16140000Y-12430000D01*
X16140000Y-12280000D02*
X15990000Y-12430000D01*
X15990000Y-12580000D02*
X16140000Y-12730000D01*
X16140000Y-12580000D02*
X15990000Y-12730000D01*
X15990000Y-12880000D02*
X16140000Y-13030000D01*
X16140000Y-12880000D02*
X15990000Y-13030000D01*
X15990000Y-13180000D02*
X16140000Y-13330000D01*
X16140000Y-13180000D02*
X15990000Y-13330000D01*
X15990000Y-13480000D02*
X16140000Y-13630000D01*
X16140000Y-13480000D02*
X15990000Y-13630000D01*
X15990000Y-13780000D02*
X16140000Y-13930000D01*
X16140000Y-13780000D02*
X15990000Y-13930000D01*
X15990000Y-14080000D02*
X16140000Y-14230000D01*
X16140000Y-14080000D02*
X15990000Y-14230000D01*
X16240000Y-8580000D02*
X16390000Y-8730000D01*
X16390000Y-8580000D02*
X16240000Y-8730000D01*
X16240000Y-8880000D02*
X16390000Y-9030000D01*
X16390000Y-8880000D02*
X16240000Y-9030000D01*
X16240000Y-9180000D02*
X16390000Y-9330000D01*
X16390000Y-9180000D02*
X16240000Y-9330000D01*
X16240000Y-9480000D02*
X16390000Y-9630000D01*
X16390000Y-9480000D02*
X16240000Y-9630000D01*
X16240000Y-9780000D02*
X16390000Y-9930000D01*
X16390000Y-9780000D02*
X16240000Y-9930000D01*
X16240000Y-10080000D02*
X16390000Y-10230000D01*
X16390000Y-10080000D02*
X16240000Y-10230000D01*
X16240000Y-10380000D02*
X16390000Y-10530000D01*
X16390000Y-10380000D02*
X16240000Y-10530000D01*
X16240000Y-10680000D02*
X16390000Y-10830000D01*
X16390000Y-10680000D02*
X16240000Y-10830000D01*
X16240000Y-12430000D02*
X16390000Y-12580000D01*
X16390000Y-12430000D02*
X16240000Y-12580000D01*
X16240000Y-12730000D02*
X16390000Y-12880000D01*
X16390000Y-12730000D02*
X16240000Y-12880000D01*
X16240000Y-13030000D02*
X16390000Y-13180000D01*
X16390000Y-13030000D02*
X16240000Y-13180000D01*
X16240000Y-13330000D02*
X16390000Y-13480000D01*
X16390000Y-13330000D02*
X16240000Y-13480000D01*
X16240000Y-13630000D02*
X16390000Y-13780000D01*
X16390000Y-13630000D02*
X16240000Y-13780000D01*
X16240000Y-13930000D02*
X16390000Y-14080000D01*
X16390000Y-13930000D02*
X16240000Y-14080000D01*
X16540000Y-8580000D02*
X16690000Y-8730000D01*
X16690000Y-8580000D02*
X16540000Y-8730000D01*
X16540000Y-8880000D02*
X16690000Y-9030000D01*
X16690000Y-8880000D02*
X16540000Y-9030000D01*
X16540000Y-9180000D02*
X16690000Y-9330000D01*
X16690000Y-9180000D02*
X16540000Y-9330000D01*
X16540000Y-9480000D02*
X16690000Y-9630000D01*
X16690000Y-9480000D02*
X16540000Y-9630000D01*
X16540000Y-9780000D02*
X16690000Y-9930000D01*
X16690000Y-9780000D02*
X16540000Y-9930000D01*
X16540000Y-10080000D02*
X16690000Y-10230000D01*
X16690000Y-10080000D02*
X16540000Y-10230000D01*
X16540000Y-10380000D02*
X16690000Y-10530000D01*
X16690000Y-10380000D02*
X16540000Y-10530000D01*
X16540000Y-10680000D02*
X16690000Y-10830000D01*
X16690000Y-10680000D02*
X16540000Y-10830000D01*
X16540000Y-12430000D02*
X16690000Y-12580000D01*
X16690000Y-12430000D02*
X16540000Y-12580000D01*
X16540000Y-12730000D02*
X16690000Y-12880000D01*
X16690000Y-12730000D02*
X16540000Y-12880000D01*
X16540000Y-13030000D02*
X16690000Y-13180000D01*
X16690000Y-13030000D02*
X16540000Y-13180000D01*
X16540000Y-13330000D02*
X16690000Y-13480000D01*
X16690000Y-13330000D02*
X16540000Y-13480000D01*
X16540000Y-13630000D02*
X16690000Y-13780000D01*
X16690000Y-13630000D02*
X16540000Y-13780000D01*
X16540000Y-13930000D02*
X16690000Y-14080000D01*
X16690000Y-13930000D02*
X16540000Y-14080000D01*
X16790000Y-8430000D02*
X16940000Y-8580000D01*
X16940000Y-8430000D02*
X16790000Y-8580000D01*
X16790000Y-8730000D02*
X16940000Y-8880000D01*
X16940000Y-8730000D02*
X16790000Y-8880000D01*
X16790000Y-9030000D02*
X16940000Y-9180000D01*
X16940000Y-9030000D02*
X16790000Y-9180000D01*
X16790000Y-9330000D02*
X16940000Y-9480000D01*
X16940000Y-9330000D02*
X16790000Y-9480000D01*
X16790000Y-9630000D02*
X16940000Y-9780000D01*
X16940000Y-9630000D02*
X16790000Y-9780000D01*
X16790000Y-9930000D02*
X16940000Y-10080000D01*
X16940000Y-9930000D02*
X16790000Y-10080000D01*
X16790000Y-10230000D02*
X16940000Y-10380000D01*
X16940000Y-10230000D02*
X16790000Y-10380000D01*
X16790000Y-10530000D02*
X16940000Y-10680000D01*
X16940000Y-10530000D02*
X16790000Y-10680000D01*
X16790000Y-10830000D02*
X16940000Y-10980000D01*
X16940000Y-10830000D02*
X16790000Y-10980000D01*
X16790000Y-12280000D02*
X16940000Y-12430000D01*
X16940000Y-12280000D02*
X16790000Y-12430000D01*
X16790000Y-12580000D02*
X16940000Y-12730000D01*
X16940000Y-12580000D02*
X16790000Y-12730000D01*
X16790000Y-12880000D02*
X16940000Y-13030000D01*
X16940000Y-12880000D02*
X16790000Y-13030000D01*
X16790000Y-13180000D02*
X16940000Y-13330000D01*
X16940000Y-13180000D02*
X16790000Y-13330000D01*
X16790000Y-13480000D02*
X16940000Y-13630000D01*
X16940000Y-13480000D02*
X16790000Y-13630000D01*
X16790000Y-13780000D02*
X16940000Y-13930000D01*
X16940000Y-13780000D02*
X16790000Y-13930000D01*
X16790000Y-14080000D02*
X16940000Y-14230000D01*
X16940000Y-14080000D02*
X16790000Y-14230000D01*
X18283730Y-8452800D02*
X18433730Y-8602800D01*
X18433730Y-8452800D02*
X18283730Y-8602800D01*
X18283730Y-8752800D02*
X18433730Y-8902800D01*
X18433730Y-8752800D02*
X18283730Y-8902800D01*
X18283730Y-9052800D02*
X18433730Y-9202800D01*
X18433730Y-9052800D02*
X18283730Y-9202800D01*
X18283730Y-9352800D02*
X18433730Y-9502800D01*
X18433730Y-9352800D02*
X18283730Y-9502800D01*
X18283730Y-9652800D02*
X18433730Y-9802800D01*
X18433730Y-9652800D02*
X18283730Y-9802800D01*
X18283730Y-9952800D02*
X18433730Y-10102800D01*
X18433730Y-9952800D02*
X18283730Y-10102800D01*
X18283730Y-10252800D02*
X18433730Y-10402800D01*
X18433730Y-10252800D02*
X18283730Y-10402800D01*
X18283730Y-10552800D02*
X18433730Y-10702800D01*
X18433730Y-10552800D02*
X18283730Y-10702800D01*
X18283730Y-10852800D02*
X18433730Y-11002800D01*
X18433730Y-10852800D02*
X18283730Y-11002800D01*
X18283730Y-12302800D02*
X18433730Y-12452800D01*
X18433730Y-12302800D02*
X18283730Y-12452800D01*
X18283730Y-12602800D02*
X18433730Y-12752800D01*
X18433730Y-12602800D02*
X18283730Y-12752800D01*
X18283730Y-12902800D02*
X18433730Y-13052800D01*
X18433730Y-12902800D02*
X18283730Y-13052800D01*
X18283730Y-13202800D02*
X18433730Y-13352800D01*
X18433730Y-13202800D02*
X18283730Y-13352800D01*
X18283730Y-13502800D02*
X18433730Y-13652800D01*
X18433730Y-13502800D02*
X18283730Y-13652800D01*
X18283730Y-13802800D02*
X18433730Y-13952800D01*
X18433730Y-13802800D02*
X18283730Y-13952800D01*
X18283730Y-14102800D02*
X18433730Y-14252800D01*
X18433730Y-14102800D02*
X18283730Y-14252800D01*
X18533730Y-8602800D02*
X18683730Y-8752800D01*
X18683730Y-8602800D02*
X18533730Y-8752800D01*
X18533730Y-8902800D02*
X18683730Y-9052800D01*
X18683730Y-8902800D02*
X18533730Y-9052800D01*
X18533730Y-9202800D02*
X18683730Y-9352800D01*
X18683730Y-9202800D02*
X18533730Y-9352800D01*
X18533730Y-9502800D02*
X18683730Y-9652800D01*
X18683730Y-9502800D02*
X18533730Y-9652800D01*
X18533730Y-9802800D02*
X18683730Y-9952800D01*
X18683730Y-9802800D02*
X18533730Y-9952800D01*
X18533730Y-10102800D02*
X18683730Y-10252800D01*
X18683730Y-10102800D02*
X18533730Y-10252800D01*
X18533730Y-10402800D02*
X18683730Y-10552800D01*
X18683730Y-10402800D02*
X18533730Y-10552800D01*
X18533730Y-10702800D02*
X18683730Y-10852800D01*
X18683730Y-10702800D02*
X18533730Y-10852800D01*
X18533730Y-12452800D02*
X18683730Y-12602800D01*
X18683730Y-12452800D02*
X18533730Y-12602800D01*
X18533730Y-12752800D02*
X18683730Y-12902800D01*
X18683730Y-12752800D02*
X18533730Y-12902800D01*
X18533730Y-13052800D02*
X18683730Y-13202800D01*
X18683730Y-13052800D02*
X18533730Y-13202800D01*
X18533730Y-13352800D02*
X18683730Y-13502800D01*
X18683730Y-13352800D02*
X18533730Y-13502800D01*
X18533730Y-13652800D02*
X18683730Y-13802800D01*
X18683730Y-13652800D02*
X18533730Y-13802800D01*
X18533730Y-13952800D02*
X18683730Y-14102800D01*
X18683730Y-13952800D02*
X18533730Y-14102800D01*
X18833730Y-8602800D02*
X18983730Y-8752800D01*
X18983730Y-8602800D02*
X18833730Y-8752800D01*
X18833730Y-8902800D02*
X18983730Y-9052800D01*
X18983730Y-8902800D02*
X18833730Y-9052800D01*
X18833730Y-9202800D02*
X18983730Y-9352800D01*
X18983730Y-9202800D02*
X18833730Y-9352800D01*
X18833730Y-9502800D02*
X18983730Y-9652800D01*
X18983730Y-9502800D02*
X18833730Y-9652800D01*
X18833730Y-9802800D02*
X18983730Y-9952800D01*
X18983730Y-9802800D02*
X18833730Y-9952800D01*
X18833730Y-10102800D02*
X18983730Y-10252800D01*
X18983730Y-10102800D02*
X18833730Y-10252800D01*
X18833730Y-10402800D02*
X18983730Y-10552800D01*
X18983730Y-10402800D02*
X18833730Y-10552800D01*
X18833730Y-10702800D02*
X18983730Y-10852800D01*
X18983730Y-10702800D02*
X18833730Y-10852800D01*
X18833730Y-12452800D02*
X18983730Y-12602800D01*
X18983730Y-12452800D02*
X18833730Y-12602800D01*
X18833730Y-12752800D02*
X18983730Y-12902800D01*
X18983730Y-12752800D02*
X18833730Y-12902800D01*
X18833730Y-13052800D02*
X18983730Y-13202800D01*
X18983730Y-13052800D02*
X18833730Y-13202800D01*
X18833730Y-13352800D02*
X18983730Y-13502800D01*
X18983730Y-13352800D02*
X18833730Y-13502800D01*
X18833730Y-13652800D02*
X18983730Y-13802800D01*
X18983730Y-13652800D02*
X18833730Y-13802800D01*
X18833730Y-13952800D02*
X18983730Y-14102800D01*
X18983730Y-13952800D02*
X18833730Y-14102800D01*
X19083730Y-8452800D02*
X19233730Y-8602800D01*
X19233730Y-8452800D02*
X19083730Y-8602800D01*
X19083730Y-8752800D02*
X19233730Y-8902800D01*
X19233730Y-8752800D02*
X19083730Y-8902800D01*
X19083730Y-9052800D02*
X19233730Y-9202800D01*
X19233730Y-9052800D02*
X19083730Y-9202800D01*
X19083730Y-9352800D02*
X19233730Y-9502800D01*
X19233730Y-9352800D02*
X19083730Y-9502800D01*
X19083730Y-9652800D02*
X19233730Y-9802800D01*
X19233730Y-9652800D02*
X19083730Y-9802800D01*
X19083730Y-9952800D02*
X19233730Y-10102800D01*
X19233730Y-9952800D02*
X19083730Y-10102800D01*
X19083730Y-10252800D02*
X19233730Y-10402800D01*
X19233730Y-10252800D02*
X19083730Y-10402800D01*
X19083730Y-10552800D02*
X19233730Y-10702800D01*
X19233730Y-10552800D02*
X19083730Y-10702800D01*
X19083730Y-10852800D02*
X19233730Y-11002800D01*
X19233730Y-10852800D02*
X19083730Y-11002800D01*
X19083730Y-12302800D02*
X19233730Y-12452800D01*
X19233730Y-12302800D02*
X19083730Y-12452800D01*
X19083730Y-12602800D02*
X19233730Y-12752800D01*
X19233730Y-12602800D02*
X19083730Y-12752800D01*
X19083730Y-12902800D02*
X19233730Y-13052800D01*
X19233730Y-12902800D02*
X19083730Y-13052800D01*
X19083730Y-13202800D02*
X19233730Y-13352800D01*
X19233730Y-13202800D02*
X19083730Y-13352800D01*
X19083730Y-13502800D02*
X19233730Y-13652800D01*
X19233730Y-13502800D02*
X19083730Y-13652800D01*
X19083730Y-13802800D02*
X19233730Y-13952800D01*
X19233730Y-13802800D02*
X19083730Y-13952800D01*
X19083730Y-14102800D02*
X19233730Y-14252800D01*
X19233730Y-14102800D02*
X19083730Y-14252800D01*
D13*
X15585000Y-7780000D02*
G75*
G03*
X15585000Y-7780000I-170000J0D01*
G01*
X15585000Y-11630000D02*
G75*
G03*
X15585000Y-11630000I-170000J0D01*
G01*
X15585000Y-14880000D02*
G75*
G03*
X15585000Y-14880000I-170000J0D01*
G01*
D11*
X15322619Y-15675476D02*
X15322619Y-15475476D01*
X15370238Y-15475476D01*
X15398809Y-15485000D01*
X15417857Y-15504048D01*
X15427381Y-15523095D01*
X15436905Y-15561190D01*
X15436905Y-15589762D01*
X15427381Y-15627857D01*
X15417857Y-15646905D01*
X15398809Y-15665952D01*
X15370238Y-15675476D01*
X15322619Y-15675476D01*
X15522619Y-15675476D02*
X15522619Y-15542143D01*
X15522619Y-15580238D02*
X15532143Y-15561190D01*
X15541667Y-15551667D01*
X15560714Y-15542143D01*
X15579762Y-15542143D01*
X15646428Y-15675476D02*
X15646428Y-15542143D01*
X15646428Y-15475476D02*
X15636905Y-15485000D01*
X15646428Y-15494524D01*
X15655952Y-15485000D01*
X15646428Y-15475476D01*
X15646428Y-15494524D01*
X15770238Y-15675476D02*
X15751190Y-15665952D01*
X15741667Y-15646905D01*
X15741667Y-15475476D01*
X15875000Y-15675476D02*
X15855952Y-15665952D01*
X15846428Y-15646905D01*
X15846428Y-15475476D01*
X16103571Y-15675476D02*
X16103571Y-15475476D01*
X16170238Y-15618333D01*
X16236905Y-15475476D01*
X16236905Y-15675476D01*
X16417857Y-15675476D02*
X16417857Y-15570714D01*
X16408333Y-15551667D01*
X16389286Y-15542143D01*
X16351190Y-15542143D01*
X16332143Y-15551667D01*
X16417857Y-15665952D02*
X16398809Y-15675476D01*
X16351190Y-15675476D01*
X16332143Y-15665952D01*
X16322619Y-15646905D01*
X16322619Y-15627857D01*
X16332143Y-15608809D01*
X16351190Y-15599286D01*
X16398809Y-15599286D01*
X16417857Y-15589762D01*
X16513095Y-15542143D02*
X16513095Y-15742143D01*
X16513095Y-15551667D02*
X16532143Y-15542143D01*
X16570238Y-15542143D01*
X16589286Y-15551667D01*
X16598809Y-15561190D01*
X16608333Y-15580238D01*
X16608333Y-15637381D01*
X16598809Y-15656428D01*
X16589286Y-15665952D01*
X16570238Y-15675476D01*
X16532143Y-15675476D01*
X16513095Y-15665952D01*
X16694048Y-15656428D02*
X16703571Y-15665952D01*
X16694048Y-15675476D01*
X16684524Y-15665952D01*
X16694048Y-15656428D01*
X16694048Y-15675476D01*
X16694048Y-15551667D02*
X16703571Y-15561190D01*
X16694048Y-15570714D01*
X16684524Y-15561190D01*
X16694048Y-15551667D01*
X16694048Y-15570714D01*
D12*
X14915000Y-15930000D02*
X15065000Y-16080000D01*
X15065000Y-15930000D02*
X14915000Y-16080000D01*
D11*
X15427381Y-16095476D02*
X15313095Y-16095476D01*
X15370238Y-16095476D02*
X15370238Y-15895476D01*
X15351190Y-15924048D01*
X15332143Y-15943095D01*
X15313095Y-15952619D01*
X15513095Y-16076428D02*
X15522619Y-16085952D01*
X15513095Y-16095476D01*
X15503571Y-16085952D01*
X15513095Y-16076428D01*
X15513095Y-16095476D01*
X15703571Y-15895476D02*
X15608333Y-15895476D01*
X15598809Y-15990714D01*
X15608333Y-15981190D01*
X15627381Y-15971667D01*
X15675000Y-15971667D01*
X15694048Y-15981190D01*
X15703571Y-15990714D01*
X15713095Y-16009762D01*
X15713095Y-16057381D01*
X15703571Y-16076428D01*
X15694048Y-16085952D01*
X15675000Y-16095476D01*
X15627381Y-16095476D01*
X15608333Y-16085952D01*
X15598809Y-16076428D01*
X15836905Y-15895476D02*
X15855952Y-15895476D01*
X15875000Y-15905000D01*
X15884524Y-15914524D01*
X15894048Y-15933571D01*
X15903571Y-15971667D01*
X15903571Y-16019286D01*
X15894048Y-16057381D01*
X15884524Y-16076428D01*
X15875000Y-16085952D01*
X15855952Y-16095476D01*
X15836905Y-16095476D01*
X15817857Y-16085952D01*
X15808333Y-16076428D01*
X15798809Y-16057381D01*
X15789286Y-16019286D01*
X15789286Y-15971667D01*
X15798809Y-15933571D01*
X15808333Y-15914524D01*
X15817857Y-15905000D01*
X15836905Y-15895476D01*
X16027381Y-15895476D02*
X16046428Y-15895476D01*
X16065476Y-15905000D01*
X16075000Y-15914524D01*
X16084524Y-15933571D01*
X16094048Y-15971667D01*
X16094048Y-16019286D01*
X16084524Y-16057381D01*
X16075000Y-16076428D01*
X16065476Y-16085952D01*
X16046428Y-16095476D01*
X16027381Y-16095476D01*
X16008333Y-16085952D01*
X15998809Y-16076428D01*
X15989286Y-16057381D01*
X15979762Y-16019286D01*
X15979762Y-15971667D01*
X15989286Y-15933571D01*
X15998809Y-15914524D01*
X16008333Y-15905000D01*
X16027381Y-15895476D01*
X16179762Y-16095476D02*
X16179762Y-15962143D01*
X16179762Y-15981190D02*
X16189286Y-15971667D01*
X16208333Y-15962143D01*
X16236905Y-15962143D01*
X16255952Y-15971667D01*
X16265476Y-15990714D01*
X16265476Y-16095476D01*
X16265476Y-15990714D02*
X16275000Y-15971667D01*
X16294048Y-15962143D01*
X16322619Y-15962143D01*
X16341667Y-15971667D01*
X16351190Y-15990714D01*
X16351190Y-16095476D01*
X16446428Y-16095476D02*
X16446428Y-15962143D01*
X16446428Y-15981190D02*
X16455952Y-15971667D01*
X16475000Y-15962143D01*
X16503571Y-15962143D01*
X16522619Y-15971667D01*
X16532143Y-15990714D01*
X16532143Y-16095476D01*
X16532143Y-15990714D02*
X16541667Y-15971667D01*
X16560714Y-15962143D01*
X16589286Y-15962143D01*
X16608333Y-15971667D01*
X16617857Y-15990714D01*
X16617857Y-16095476D01*
X17008333Y-15885952D02*
X16836905Y-16143095D01*
X17265476Y-15895476D02*
X17284524Y-15895476D01*
X17303571Y-15905000D01*
X17313095Y-15914524D01*
X17322619Y-15933571D01*
X17332143Y-15971667D01*
X17332143Y-16019286D01*
X17322619Y-16057381D01*
X17313095Y-16076428D01*
X17303571Y-16085952D01*
X17284524Y-16095476D01*
X17265476Y-16095476D01*
X17246429Y-16085952D01*
X17236905Y-16076428D01*
X17227381Y-16057381D01*
X17217857Y-16019286D01*
X17217857Y-15971667D01*
X17227381Y-15933571D01*
X17236905Y-15914524D01*
X17246429Y-15905000D01*
X17265476Y-15895476D01*
X17417857Y-16076428D02*
X17427381Y-16085952D01*
X17417857Y-16095476D01*
X17408333Y-16085952D01*
X17417857Y-16076428D01*
X17417857Y-16095476D01*
X17551190Y-15895476D02*
X17570238Y-15895476D01*
X17589286Y-15905000D01*
X17598810Y-15914524D01*
X17608333Y-15933571D01*
X17617857Y-15971667D01*
X17617857Y-16019286D01*
X17608333Y-16057381D01*
X17598810Y-16076428D01*
X17589286Y-16085952D01*
X17570238Y-16095476D01*
X17551190Y-16095476D01*
X17532143Y-16085952D01*
X17522619Y-16076428D01*
X17513095Y-16057381D01*
X17503571Y-16019286D01*
X17503571Y-15971667D01*
X17513095Y-15933571D01*
X17522619Y-15914524D01*
X17532143Y-15905000D01*
X17551190Y-15895476D01*
X17798810Y-15895476D02*
X17703571Y-15895476D01*
X17694048Y-15990714D01*
X17703571Y-15981190D01*
X17722619Y-15971667D01*
X17770238Y-15971667D01*
X17789286Y-15981190D01*
X17798810Y-15990714D01*
X17808333Y-16009762D01*
X17808333Y-16057381D01*
X17798810Y-16076428D01*
X17789286Y-16085952D01*
X17770238Y-16095476D01*
X17722619Y-16095476D01*
X17703571Y-16085952D01*
X17694048Y-16076428D01*
X17903571Y-16095476D02*
X17941667Y-16095476D01*
X17960714Y-16085952D01*
X17970238Y-16076428D01*
X17989286Y-16047857D01*
X17998810Y-16009762D01*
X17998810Y-15933571D01*
X17989286Y-15914524D01*
X17979762Y-15905000D01*
X17960714Y-15895476D01*
X17922619Y-15895476D01*
X17903571Y-15905000D01*
X17894048Y-15914524D01*
X17884524Y-15933571D01*
X17884524Y-15981190D01*
X17894048Y-16000238D01*
X17903571Y-16009762D01*
X17922619Y-16019286D01*
X17960714Y-16019286D01*
X17979762Y-16009762D01*
X17989286Y-16000238D01*
X17998810Y-15981190D01*
X18189286Y-16095476D02*
X18075000Y-16095476D01*
X18132143Y-16095476D02*
X18132143Y-15895476D01*
X18113095Y-15924048D01*
X18094048Y-15943095D01*
X18075000Y-15952619D01*
X18265476Y-15895476D02*
X18265476Y-15933571D01*
X18341667Y-15895476D02*
X18341667Y-15933571D01*
X18636905Y-16171667D02*
X18627381Y-16162143D01*
X18608333Y-16133571D01*
X18598810Y-16114524D01*
X18589286Y-16085952D01*
X18579762Y-16038333D01*
X18579762Y-16000238D01*
X18589286Y-15952619D01*
X18598810Y-15924048D01*
X18608333Y-15905000D01*
X18627381Y-15876428D01*
X18636905Y-15866905D01*
X18817857Y-16095476D02*
X18703571Y-16095476D01*
X18760714Y-16095476D02*
X18760714Y-15895476D01*
X18741667Y-15924048D01*
X18722619Y-15943095D01*
X18703571Y-15952619D01*
X18894048Y-15914524D02*
X18903571Y-15905000D01*
X18922619Y-15895476D01*
X18970238Y-15895476D01*
X18989286Y-15905000D01*
X18998810Y-15914524D01*
X19008333Y-15933571D01*
X19008333Y-15952619D01*
X18998810Y-15981190D01*
X18884524Y-16095476D01*
X19008333Y-16095476D01*
X19132143Y-15895476D02*
X19151190Y-15895476D01*
X19170238Y-15905000D01*
X19179762Y-15914524D01*
X19189286Y-15933571D01*
X19198810Y-15971667D01*
X19198810Y-16019286D01*
X19189286Y-16057381D01*
X19179762Y-16076428D01*
X19170238Y-16085952D01*
X19151190Y-16095476D01*
X19132143Y-16095476D01*
X19113095Y-16085952D01*
X19103571Y-16076428D01*
X19094048Y-16057381D01*
X19084524Y-16019286D01*
X19084524Y-15971667D01*
X19094048Y-15933571D01*
X19103571Y-15914524D01*
X19113095Y-15905000D01*
X19132143Y-15895476D01*
X19436905Y-16095476D02*
X19436905Y-15895476D01*
X19522619Y-16095476D02*
X19522619Y-15990714D01*
X19513095Y-15971667D01*
X19494048Y-15962143D01*
X19465476Y-15962143D01*
X19446429Y-15971667D01*
X19436905Y-15981190D01*
X19646429Y-16095476D02*
X19627381Y-16085952D01*
X19617857Y-16076428D01*
X19608333Y-16057381D01*
X19608333Y-16000238D01*
X19617857Y-15981190D01*
X19627381Y-15971667D01*
X19646429Y-15962143D01*
X19675000Y-15962143D01*
X19694048Y-15971667D01*
X19703571Y-15981190D01*
X19713095Y-16000238D01*
X19713095Y-16057381D01*
X19703571Y-16076428D01*
X19694048Y-16085952D01*
X19675000Y-16095476D01*
X19646429Y-16095476D01*
X19827381Y-16095476D02*
X19808333Y-16085952D01*
X19798810Y-16066905D01*
X19798810Y-15895476D01*
X19979762Y-16085952D02*
X19960714Y-16095476D01*
X19922619Y-16095476D01*
X19903571Y-16085952D01*
X19894048Y-16066905D01*
X19894048Y-15990714D01*
X19903571Y-15971667D01*
X19922619Y-15962143D01*
X19960714Y-15962143D01*
X19979762Y-15971667D01*
X19989286Y-15990714D01*
X19989286Y-16009762D01*
X19894048Y-16028809D01*
X20065476Y-16085952D02*
X20084524Y-16095476D01*
X20122619Y-16095476D01*
X20141667Y-16085952D01*
X20151190Y-16066905D01*
X20151190Y-16057381D01*
X20141667Y-16038333D01*
X20122619Y-16028809D01*
X20094048Y-16028809D01*
X20075000Y-16019286D01*
X20065476Y-16000238D01*
X20065476Y-15990714D01*
X20075000Y-15971667D01*
X20094048Y-15962143D01*
X20122619Y-15962143D01*
X20141667Y-15971667D01*
X20217857Y-16171667D02*
X20227381Y-16162143D01*
X20246429Y-16133571D01*
X20255952Y-16114524D01*
X20265476Y-16085952D01*
X20275000Y-16038333D01*
X20275000Y-16000238D01*
X20265476Y-15952619D01*
X20255952Y-15924048D01*
X20246429Y-15905000D01*
X20227381Y-15876428D01*
X20217857Y-15866905D01*
X15065000Y-16275000D02*
G75*
G03*
X15065000Y-16275000I-100000J0D01*
G01*
X15303571Y-16165476D02*
X15427381Y-16165476D01*
X15360714Y-16241667D01*
X15389286Y-16241667D01*
X15408333Y-16251190D01*
X15417857Y-16260714D01*
X15427381Y-16279762D01*
X15427381Y-16327381D01*
X15417857Y-16346428D01*
X15408333Y-16355952D01*
X15389286Y-16365476D01*
X15332143Y-16365476D01*
X15313095Y-16355952D01*
X15303571Y-16346428D01*
X15513095Y-16346428D02*
X15522619Y-16355952D01*
X15513095Y-16365476D01*
X15503571Y-16355952D01*
X15513095Y-16346428D01*
X15513095Y-16365476D01*
X15694048Y-16232143D02*
X15694048Y-16365476D01*
X15646428Y-16155952D02*
X15598809Y-16298809D01*
X15722619Y-16298809D01*
X15836905Y-16165476D02*
X15855952Y-16165476D01*
X15875000Y-16175000D01*
X15884524Y-16184524D01*
X15894048Y-16203571D01*
X15903571Y-16241667D01*
X15903571Y-16289286D01*
X15894048Y-16327381D01*
X15884524Y-16346428D01*
X15875000Y-16355952D01*
X15855952Y-16365476D01*
X15836905Y-16365476D01*
X15817857Y-16355952D01*
X15808333Y-16346428D01*
X15798809Y-16327381D01*
X15789286Y-16289286D01*
X15789286Y-16241667D01*
X15798809Y-16203571D01*
X15808333Y-16184524D01*
X15817857Y-16175000D01*
X15836905Y-16165476D01*
X16027381Y-16165476D02*
X16046428Y-16165476D01*
X16065476Y-16175000D01*
X16075000Y-16184524D01*
X16084524Y-16203571D01*
X16094048Y-16241667D01*
X16094048Y-16289286D01*
X16084524Y-16327381D01*
X16075000Y-16346428D01*
X16065476Y-16355952D01*
X16046428Y-16365476D01*
X16027381Y-16365476D01*
X16008333Y-16355952D01*
X15998809Y-16346428D01*
X15989286Y-16327381D01*
X15979762Y-16289286D01*
X15979762Y-16241667D01*
X15989286Y-16203571D01*
X15998809Y-16184524D01*
X16008333Y-16175000D01*
X16027381Y-16165476D01*
X16179762Y-16365476D02*
X16179762Y-16232143D01*
X16179762Y-16251190D02*
X16189286Y-16241667D01*
X16208333Y-16232143D01*
X16236905Y-16232143D01*
X16255952Y-16241667D01*
X16265476Y-16260714D01*
X16265476Y-16365476D01*
X16265476Y-16260714D02*
X16275000Y-16241667D01*
X16294048Y-16232143D01*
X16322619Y-16232143D01*
X16341667Y-16241667D01*
X16351190Y-16260714D01*
X16351190Y-16365476D01*
X16446428Y-16365476D02*
X16446428Y-16232143D01*
X16446428Y-16251190D02*
X16455952Y-16241667D01*
X16475000Y-16232143D01*
X16503571Y-16232143D01*
X16522619Y-16241667D01*
X16532143Y-16260714D01*
X16532143Y-16365476D01*
X16532143Y-16260714D02*
X16541667Y-16241667D01*
X16560714Y-16232143D01*
X16589286Y-16232143D01*
X16608333Y-16241667D01*
X16617857Y-16260714D01*
X16617857Y-16365476D01*
X17008333Y-16155952D02*
X16836905Y-16413095D01*
X17265476Y-16165476D02*
X17284524Y-16165476D01*
X17303571Y-16175000D01*
X17313095Y-16184524D01*
X17322619Y-16203571D01*
X17332143Y-16241667D01*
X17332143Y-16289286D01*
X17322619Y-16327381D01*
X17313095Y-16346428D01*
X17303571Y-16355952D01*
X17284524Y-16365476D01*
X17265476Y-16365476D01*
X17246429Y-16355952D01*
X17236905Y-16346428D01*
X17227381Y-16327381D01*
X17217857Y-16289286D01*
X17217857Y-16241667D01*
X17227381Y-16203571D01*
X17236905Y-16184524D01*
X17246429Y-16175000D01*
X17265476Y-16165476D01*
X17417857Y-16346428D02*
X17427381Y-16355952D01*
X17417857Y-16365476D01*
X17408333Y-16355952D01*
X17417857Y-16346428D01*
X17417857Y-16365476D01*
X17617857Y-16365476D02*
X17503571Y-16365476D01*
X17560714Y-16365476D02*
X17560714Y-16165476D01*
X17541667Y-16194048D01*
X17522619Y-16213095D01*
X17503571Y-16222619D01*
X17684524Y-16165476D02*
X17808333Y-16165476D01*
X17741667Y-16241667D01*
X17770238Y-16241667D01*
X17789286Y-16251190D01*
X17798810Y-16260714D01*
X17808333Y-16279762D01*
X17808333Y-16327381D01*
X17798810Y-16346428D01*
X17789286Y-16355952D01*
X17770238Y-16365476D01*
X17713095Y-16365476D01*
X17694048Y-16355952D01*
X17684524Y-16346428D01*
X17875000Y-16165476D02*
X17998810Y-16165476D01*
X17932143Y-16241667D01*
X17960714Y-16241667D01*
X17979762Y-16251190D01*
X17989286Y-16260714D01*
X17998810Y-16279762D01*
X17998810Y-16327381D01*
X17989286Y-16346428D01*
X17979762Y-16355952D01*
X17960714Y-16365476D01*
X17903571Y-16365476D01*
X17884524Y-16355952D01*
X17875000Y-16346428D01*
X18094048Y-16365476D02*
X18132143Y-16365476D01*
X18151190Y-16355952D01*
X18160714Y-16346428D01*
X18179762Y-16317857D01*
X18189286Y-16279762D01*
X18189286Y-16203571D01*
X18179762Y-16184524D01*
X18170238Y-16175000D01*
X18151190Y-16165476D01*
X18113095Y-16165476D01*
X18094048Y-16175000D01*
X18084524Y-16184524D01*
X18075000Y-16203571D01*
X18075000Y-16251190D01*
X18084524Y-16270238D01*
X18094048Y-16279762D01*
X18113095Y-16289286D01*
X18151190Y-16289286D01*
X18170238Y-16279762D01*
X18179762Y-16270238D01*
X18189286Y-16251190D01*
X18265476Y-16165476D02*
X18265476Y-16203571D01*
X18341667Y-16165476D02*
X18341667Y-16203571D01*
X18636905Y-16441667D02*
X18627381Y-16432143D01*
X18608333Y-16403571D01*
X18598810Y-16384524D01*
X18589286Y-16355952D01*
X18579762Y-16308333D01*
X18579762Y-16270238D01*
X18589286Y-16222619D01*
X18598810Y-16194048D01*
X18608333Y-16175000D01*
X18627381Y-16146428D01*
X18636905Y-16136905D01*
X18694048Y-16165476D02*
X18817857Y-16165476D01*
X18751190Y-16241667D01*
X18779762Y-16241667D01*
X18798810Y-16251190D01*
X18808333Y-16260714D01*
X18817857Y-16279762D01*
X18817857Y-16327381D01*
X18808333Y-16346428D01*
X18798810Y-16355952D01*
X18779762Y-16365476D01*
X18722619Y-16365476D01*
X18703571Y-16355952D01*
X18694048Y-16346428D01*
X19055952Y-16365476D02*
X19055952Y-16165476D01*
X19141667Y-16365476D02*
X19141667Y-16260714D01*
X19132143Y-16241667D01*
X19113095Y-16232143D01*
X19084524Y-16232143D01*
X19065476Y-16241667D01*
X19055952Y-16251190D01*
X19265476Y-16365476D02*
X19246429Y-16355952D01*
X19236905Y-16346428D01*
X19227381Y-16327381D01*
X19227381Y-16270238D01*
X19236905Y-16251190D01*
X19246429Y-16241667D01*
X19265476Y-16232143D01*
X19294048Y-16232143D01*
X19313095Y-16241667D01*
X19322619Y-16251190D01*
X19332143Y-16270238D01*
X19332143Y-16327381D01*
X19322619Y-16346428D01*
X19313095Y-16355952D01*
X19294048Y-16365476D01*
X19265476Y-16365476D01*
X19446429Y-16365476D02*
X19427381Y-16355952D01*
X19417857Y-16336905D01*
X19417857Y-16165476D01*
X19598810Y-16355952D02*
X19579762Y-16365476D01*
X19541667Y-16365476D01*
X19522619Y-16355952D01*
X19513095Y-16336905D01*
X19513095Y-16260714D01*
X19522619Y-16241667D01*
X19541667Y-16232143D01*
X19579762Y-16232143D01*
X19598810Y-16241667D01*
X19608333Y-16260714D01*
X19608333Y-16279762D01*
X19513095Y-16298809D01*
X19684524Y-16355952D02*
X19703571Y-16365476D01*
X19741667Y-16365476D01*
X19760714Y-16355952D01*
X19770238Y-16336905D01*
X19770238Y-16327381D01*
X19760714Y-16308333D01*
X19741667Y-16298809D01*
X19713095Y-16298809D01*
X19694048Y-16289286D01*
X19684524Y-16270238D01*
X19684524Y-16260714D01*
X19694048Y-16241667D01*
X19713095Y-16232143D01*
X19741667Y-16232143D01*
X19760714Y-16241667D01*
X19836905Y-16441667D02*
X19846429Y-16432143D01*
X19865476Y-16403571D01*
X19875000Y-16384524D01*
X19884524Y-16355952D01*
X19894048Y-16308333D01*
X19894048Y-16270238D01*
X19884524Y-16222619D01*
X19875000Y-16194048D01*
X19865476Y-16175000D01*
X19846429Y-16146428D01*
X19836905Y-16136905D01*
M02*
