M48
; DRILL file {KiCad (6.0.8)} date Wed Aug 14 07:32:46 2024
; FORMAT={-:-/ absolute / inch / decimal}
; #@! TF.CreationDate,2024-08-14T07:32:46+02:00
; #@! TF.GenerationSoftware,Kicad,Pcbnew,(6.0.8)
; #@! TF.FileFunction,Plated,1,2,PTH
FMAT,2
INCH
; #@! TA.AperFunction,Plated,PTH,ComponentDrill
T1C0.0591
; #@! TA.AperFunction,Plated,PTH,ComponentDrill
T2C0.1339
%
G90
G05
T1
X6.3248Y-3.3484
X6.3248Y-3.4665
X6.3248Y-3.5846
X6.3248Y-3.7028
X6.3248Y-3.8209
X6.3248Y-3.939
X6.3248Y-4.0571
X6.3248Y-4.1752
X6.3248Y-4.2933
X6.3248Y-4.8642
X6.3248Y-4.9823
X6.3248Y-5.1004
X6.3248Y-5.2185
X6.3248Y-5.3366
X6.3248Y-5.4547
X6.3248Y-5.5728
X6.4232Y-3.4075
X6.4232Y-3.5256
X6.4232Y-3.6437
X6.4232Y-3.7618
X6.4232Y-3.8799
X6.4232Y-3.998
X6.4232Y-4.1161
X6.4232Y-4.2343
X6.4232Y-4.9232
X6.4232Y-5.0413
X6.4232Y-5.1594
X6.4232Y-5.2776
X6.4232Y-5.3957
X6.4232Y-5.5138
X6.5413Y-3.4075
X6.5413Y-3.5256
X6.5413Y-3.6437
X6.5413Y-3.7618
X6.5413Y-3.8799
X6.5413Y-3.998
X6.5413Y-4.1161
X6.5413Y-4.2343
X6.5413Y-4.9232
X6.5413Y-5.0413
X6.5413Y-5.1594
X6.5413Y-5.2776
X6.5413Y-5.3957
X6.5413Y-5.5138
X6.6398Y-3.3484
X6.6398Y-3.4665
X6.6398Y-3.5846
X6.6398Y-3.7028
X6.6398Y-3.8209
X6.6398Y-3.939
X6.6398Y-4.0571
X6.6398Y-4.1752
X6.6398Y-4.2933
X6.6398Y-4.8642
X6.6398Y-4.9823
X6.6398Y-5.1004
X6.6398Y-5.2185
X6.6398Y-5.3366
X6.6398Y-5.4547
X6.6398Y-5.5728
X7.2278Y-3.3574
X7.2278Y-3.4755
X7.2278Y-3.5936
X7.2278Y-3.7117
X7.2278Y-3.8298
X7.2278Y-3.948
X7.2278Y-4.0661
X7.2278Y-4.1842
X7.2278Y-4.3023
X7.2278Y-4.8731
X7.2278Y-4.9913
X7.2278Y-5.1094
X7.2278Y-5.2275
X7.2278Y-5.3456
X7.2278Y-5.4637
X7.2278Y-5.5818
X7.3263Y-3.4165
X7.3263Y-3.5346
X7.3263Y-3.6527
X7.3263Y-3.7708
X7.3263Y-3.8889
X7.3263Y-4.007
X7.3263Y-4.1251
X7.3263Y-4.2432
X7.3263Y-4.9322
X7.3263Y-5.0503
X7.3263Y-5.1684
X7.3263Y-5.2865
X7.3263Y-5.4046
X7.3263Y-5.5228
X7.4444Y-3.4165
X7.4444Y-3.5346
X7.4444Y-3.6527
X7.4444Y-3.7708
X7.4444Y-3.8889
X7.4444Y-4.007
X7.4444Y-4.1251
X7.4444Y-4.2432
X7.4444Y-4.9322
X7.4444Y-5.0503
X7.4444Y-5.1684
X7.4444Y-5.2865
X7.4444Y-5.4046
X7.4444Y-5.5228
X7.5428Y-3.3574
X7.5428Y-3.4755
X7.5428Y-3.5936
X7.5428Y-3.7117
X7.5428Y-3.8298
X7.5428Y-3.948
X7.5428Y-4.0661
X7.5428Y-4.1842
X7.5428Y-4.3023
X7.5428Y-4.8731
X7.5428Y-4.9913
X7.5428Y-5.1094
X7.5428Y-5.2275
X7.5428Y-5.3456
X7.5428Y-5.4637
X7.5428Y-5.5818
T2
X6.0689Y-3.063
X6.0689Y-4.5787
X6.0689Y-5.8583
T0
M30
