%TF.GenerationSoftware,KiCad,Pcbnew,(6.0.8)*%
%TF.CreationDate,2024-02-14T13:24:56+01:00*%
%TF.ProjectId,pdms,70646d73-2e6b-4696-9361-645f70636258,rev?*%
%TF.SameCoordinates,Original*%
%TF.FileFunction,Paste,Bot*%
%TF.FilePolarity,Positive*%
%FSLAX46Y46*%
G04 Gerber Fmt 4.6, Leading zero omitted, Abs format (unit mm)*
G04 Created by KiCad (PCBNEW (6.0.8)) date 2024-02-14 13:24:56*
%MOMM*%
%LPD*%
G01*
G04 APERTURE LIST*
G04 Aperture macros list*
%AMRoundRect*
0 Rectangle with rounded corners*
0 $1 Rounding radius*
0 $2 $3 $4 $5 $6 $7 $8 $9 X,Y pos of 4 corners*
0 Add a 4 corners polygon primitive as box body*
4,1,4,$2,$3,$4,$5,$6,$7,$8,$9,$2,$3,0*
0 Add four circle primitives for the rounded corners*
1,1,$1+$1,$2,$3*
1,1,$1+$1,$4,$5*
1,1,$1+$1,$6,$7*
1,1,$1+$1,$8,$9*
0 Add four rect primitives between the rounded corners*
20,1,$1+$1,$2,$3,$4,$5,0*
20,1,$1+$1,$4,$5,$6,$7,0*
20,1,$1+$1,$6,$7,$8,$9,0*
20,1,$1+$1,$8,$9,$2,$3,0*%
%AMRotRect*
0 Rectangle, with rotation*
0 The origin of the aperture is its center*
0 $1 length*
0 $2 width*
0 $3 Rotation angle, in degrees counterclockwise*
0 Add horizontal line*
21,1,$1,$2,0,0,$3*%
G04 Aperture macros list end*
%ADD10RoundRect,0.135000X0.135000X0.185000X-0.135000X0.185000X-0.135000X-0.185000X0.135000X-0.185000X0*%
%ADD11RoundRect,0.135000X0.185000X-0.135000X0.185000X0.135000X-0.185000X0.135000X-0.185000X-0.135000X0*%
%ADD12R,0.450000X0.700000*%
%ADD13RoundRect,0.135000X-0.135000X-0.185000X0.135000X-0.185000X0.135000X0.185000X-0.135000X0.185000X0*%
%ADD14RoundRect,0.140000X0.140000X0.170000X-0.140000X0.170000X-0.140000X-0.170000X0.140000X-0.170000X0*%
%ADD15RoundRect,0.135000X-0.226274X-0.035355X-0.035355X-0.226274X0.226274X0.035355X0.035355X0.226274X0*%
%ADD16RoundRect,0.135000X0.226274X0.035355X0.035355X0.226274X-0.226274X-0.035355X-0.035355X-0.226274X0*%
%ADD17RoundRect,0.250000X0.625000X-0.375000X0.625000X0.375000X-0.625000X0.375000X-0.625000X-0.375000X0*%
%ADD18RoundRect,0.135000X-0.185000X0.135000X-0.185000X-0.135000X0.185000X-0.135000X0.185000X0.135000X0*%
%ADD19RoundRect,0.140000X-0.170000X0.140000X-0.170000X-0.140000X0.170000X-0.140000X0.170000X0.140000X0*%
%ADD20RoundRect,0.135000X0.035355X-0.226274X0.226274X-0.035355X-0.035355X0.226274X-0.226274X0.035355X0*%
%ADD21R,0.700000X0.600000*%
%ADD22RoundRect,0.140000X0.021213X-0.219203X0.219203X-0.021213X-0.021213X0.219203X-0.219203X0.021213X0*%
%ADD23RotRect,0.600000X0.700000X315.000000*%
%ADD24R,0.600000X0.700000*%
%ADD25R,0.700000X0.450000*%
%ADD26R,0.550000X1.000000*%
%ADD27RoundRect,0.150000X-0.256326X-0.468458X0.468458X0.256326X0.256326X0.468458X-0.468458X-0.256326X0*%
%ADD28RoundRect,0.140000X-0.219203X-0.021213X-0.021213X-0.219203X0.219203X0.021213X0.021213X0.219203X0*%
%ADD29RoundRect,0.218750X0.335876X0.026517X0.026517X0.335876X-0.335876X-0.026517X-0.026517X-0.335876X0*%
%ADD30RoundRect,0.140000X-0.021213X0.219203X-0.219203X0.021213X0.021213X-0.219203X0.219203X-0.021213X0*%
G04 APERTURE END LIST*
D10*
%TO.C,R3*%
X62779000Y-147894300D03*
X61759000Y-147894300D03*
%TD*%
D11*
%TO.C,R106*%
X64370000Y-82470000D03*
X64370000Y-81450000D03*
%TD*%
D12*
%TO.C,D8*%
X69775000Y-111125000D03*
X68475000Y-111125000D03*
X69125000Y-109125000D03*
%TD*%
D13*
%TO.C,R91*%
X73983333Y-114147167D03*
X75003333Y-114147167D03*
%TD*%
D14*
%TO.C,C87*%
X48740000Y-106426000D03*
X47780000Y-106426000D03*
%TD*%
D15*
%TO.C,C44*%
X33062873Y-130014631D03*
X33784121Y-130735879D03*
%TD*%
D16*
%TO.C,C52*%
X40049480Y-126041584D03*
X39328232Y-125320336D03*
%TD*%
D17*
%TO.C,F12*%
X90156345Y-99935773D03*
X90156345Y-97135773D03*
%TD*%
D18*
%TO.C,R170*%
X85618000Y-155454000D03*
X85618000Y-156474000D03*
%TD*%
D10*
%TO.C,R12*%
X63343333Y-114157167D03*
X62323333Y-114157167D03*
%TD*%
D16*
%TO.C,R73*%
X31410624Y-134260624D03*
X30689376Y-133539376D03*
%TD*%
D13*
%TO.C,R65*%
X73983333Y-116627167D03*
X75003333Y-116627167D03*
%TD*%
D10*
%TO.C,R36*%
X63343333Y-110467167D03*
X62323333Y-110467167D03*
%TD*%
D11*
%TO.C,R168*%
X51579400Y-148869400D03*
X51579400Y-147849400D03*
%TD*%
D12*
%TO.C,D9*%
X67000000Y-111875000D03*
X65700000Y-111875000D03*
X66350000Y-109875000D03*
%TD*%
D19*
%TO.C,C108*%
X54559200Y-114223200D03*
X54559200Y-115183200D03*
%TD*%
%TO.C,C98*%
X42090000Y-114800000D03*
X42090000Y-115760000D03*
%TD*%
D17*
%TO.C,F11*%
X86193945Y-99977373D03*
X86193945Y-97177373D03*
%TD*%
D11*
%TO.C,R107*%
X40680000Y-93570000D03*
X40680000Y-92550000D03*
%TD*%
%TO.C,R110*%
X67310000Y-85090000D03*
X67310000Y-84070000D03*
%TD*%
D10*
%TO.C,R19*%
X63343333Y-117877167D03*
X62323333Y-117877167D03*
%TD*%
D18*
%TO.C,R174*%
X31242000Y-154836400D03*
X31242000Y-155856400D03*
%TD*%
D20*
%TO.C,R111*%
X66187376Y-90276624D03*
X66908624Y-89555376D03*
%TD*%
D21*
%TO.C,D45*%
X67310000Y-86168000D03*
X67310000Y-87568000D03*
%TD*%
D17*
%TO.C,F14*%
X102743000Y-100079000D03*
X102743000Y-97279000D03*
%TD*%
D13*
%TO.C,R50*%
X73983333Y-117827167D03*
X75003333Y-117827167D03*
%TD*%
D22*
%TO.C,C77*%
X32985389Y-137050000D03*
X33664211Y-136371178D03*
%TD*%
D23*
%TO.C,D48*%
X78726975Y-113016975D03*
X77737025Y-112027025D03*
%TD*%
D17*
%TO.C,F15*%
X106760000Y-100079000D03*
X106760000Y-97279000D03*
%TD*%
%TO.C,F13*%
X94132400Y-99923600D03*
X94132400Y-97123600D03*
%TD*%
D10*
%TO.C,R11*%
X63343333Y-115397167D03*
X62323333Y-115397167D03*
%TD*%
D17*
%TO.C,F17*%
X114808000Y-100076000D03*
X114808000Y-97276000D03*
%TD*%
D23*
%TO.C,D47*%
X79742975Y-112000975D03*
X78753025Y-111011025D03*
%TD*%
D24*
%TO.C,D41*%
X41310000Y-98890000D03*
X39910000Y-98890000D03*
%TD*%
D13*
%TO.C,R46*%
X73983333Y-119077167D03*
X75003333Y-119077167D03*
%TD*%
D12*
%TO.C,D2*%
X43100000Y-102350000D03*
X41800000Y-102350000D03*
X42450000Y-100350000D03*
%TD*%
D25*
%TO.C,D4*%
X46257400Y-148757400D03*
X46257400Y-147457400D03*
X48257400Y-148107400D03*
%TD*%
D24*
%TO.C,D44*%
X40450000Y-101580000D03*
X39050000Y-101580000D03*
%TD*%
D10*
%TO.C,R16*%
X63343333Y-112917167D03*
X62323333Y-112917167D03*
%TD*%
D19*
%TO.C,C86*%
X50724809Y-153052000D03*
X50724809Y-154012000D03*
%TD*%
D26*
%TO.C,D28*%
X44917600Y-100594400D03*
X46217600Y-100594400D03*
X45567600Y-102494400D03*
%TD*%
D13*
%TO.C,R87*%
X73983333Y-112907167D03*
X75003333Y-112907167D03*
%TD*%
D10*
%TO.C,R1*%
X56683000Y-147894300D03*
X55663000Y-147894300D03*
%TD*%
D27*
%TO.C,U12*%
X33189332Y-150579668D03*
X32517581Y-149907917D03*
X31845830Y-149236166D03*
X33454498Y-147627498D03*
X34126249Y-148299249D03*
X34798000Y-148971000D03*
%TD*%
D18*
%TO.C,R167*%
X50329400Y-147849400D03*
X50329400Y-148869400D03*
%TD*%
D11*
%TO.C,R177*%
X28702000Y-155856400D03*
X28702000Y-154836400D03*
%TD*%
D10*
%TO.C,R2*%
X59654800Y-147894300D03*
X58634800Y-147894300D03*
%TD*%
D12*
%TO.C,D5*%
X41900000Y-106900000D03*
X40600000Y-106900000D03*
X41250000Y-104900000D03*
%TD*%
D14*
%TO.C,C129*%
X55065200Y-118821200D03*
X54105200Y-118821200D03*
%TD*%
D19*
%TO.C,C93*%
X40850000Y-114810000D03*
X40850000Y-115770000D03*
%TD*%
D24*
%TO.C,D43*%
X62038000Y-90678000D03*
X63438000Y-90678000D03*
%TD*%
D16*
%TO.C,R74*%
X32410624Y-133310624D03*
X31689376Y-132589376D03*
%TD*%
D11*
%TO.C,R9*%
X41420000Y-95670000D03*
X41420000Y-94650000D03*
%TD*%
D26*
%TO.C,D27*%
X50658000Y-100599200D03*
X51958000Y-100599200D03*
X51308000Y-102499200D03*
%TD*%
D11*
%TO.C,R38*%
X43190000Y-88580000D03*
X43190000Y-87560000D03*
%TD*%
D24*
%TO.C,D46*%
X58736000Y-96012000D03*
X60136000Y-96012000D03*
%TD*%
D10*
%TO.C,R4*%
X65903200Y-147894300D03*
X64883200Y-147894300D03*
%TD*%
D13*
%TO.C,R51*%
X73983333Y-111667167D03*
X75003333Y-111667167D03*
%TD*%
D11*
%TO.C,R176*%
X30022800Y-155856400D03*
X30022800Y-154836400D03*
%TD*%
D19*
%TO.C,C103*%
X42330000Y-111910000D03*
X42330000Y-112870000D03*
%TD*%
D13*
%TO.C,R90*%
X73983333Y-115387167D03*
X75003333Y-115387167D03*
%TD*%
D10*
%TO.C,R15*%
X63343333Y-116637167D03*
X62323333Y-116637167D03*
%TD*%
D19*
%TO.C,C114*%
X55727600Y-114247200D03*
X55727600Y-115207200D03*
%TD*%
D10*
%TO.C,R32*%
X63343333Y-111717167D03*
X62323333Y-111717167D03*
%TD*%
D28*
%TO.C,C80*%
X42568195Y-122094515D03*
X43247017Y-122773337D03*
%TD*%
D17*
%TO.C,F10*%
X82245200Y-99974400D03*
X82245200Y-97174400D03*
%TD*%
D12*
%TO.C,D1*%
X42150000Y-110500000D03*
X40850000Y-110500000D03*
X41500000Y-108500000D03*
%TD*%
D29*
%TO.C,L1*%
X41712243Y-125549084D03*
X40598549Y-124435390D03*
%TD*%
D24*
%TO.C,D42*%
X43110000Y-90170000D03*
X41710000Y-90170000D03*
%TD*%
D17*
%TO.C,F16*%
X110697000Y-100082000D03*
X110697000Y-97282000D03*
%TD*%
D15*
%TO.C,R112*%
X80411376Y-112923376D03*
X81132624Y-113644624D03*
%TD*%
D13*
%TO.C,R47*%
X73980000Y-110457167D03*
X75000000Y-110457167D03*
%TD*%
D15*
%TO.C,R113*%
X79649376Y-113685376D03*
X80370624Y-114406624D03*
%TD*%
D11*
%TO.C,R178*%
X32512000Y-155831000D03*
X32512000Y-154811000D03*
%TD*%
D10*
%TO.C,R35*%
X63346666Y-119087167D03*
X62326666Y-119087167D03*
%TD*%
D18*
%TO.C,R169*%
X86868000Y-155444000D03*
X86868000Y-156464000D03*
%TD*%
D19*
%TO.C,C119*%
X56845200Y-114249200D03*
X56845200Y-115209200D03*
%TD*%
D15*
%TO.C,R56*%
X34439376Y-138089376D03*
X35160624Y-138810624D03*
%TD*%
D28*
%TO.C,C83*%
X41634249Y-123028463D03*
X42313071Y-123707285D03*
%TD*%
D20*
%TO.C,C51*%
X36889376Y-140860624D03*
X37610624Y-140139376D03*
%TD*%
D16*
%TO.C,C45*%
X45300000Y-141550000D03*
X44578752Y-140828752D03*
%TD*%
D30*
%TO.C,C124*%
X56625811Y-116932389D03*
X55946989Y-117611211D03*
%TD*%
M02*
