%TF.GenerationSoftware,KiCad,Pcbnew,(6.0.8)*%
%TF.CreationDate,2024-02-14T04:03:19+01:00*%
%TF.ProjectId,pdms,70646d73-2e6b-4696-9361-645f70636258,rev?*%
%TF.SameCoordinates,Original*%
%TF.FileFunction,Soldermask,Top*%
%TF.FilePolarity,Negative*%
%FSLAX46Y46*%
G04 Gerber Fmt 4.6, Leading zero omitted, Abs format (unit mm)*
G04 Created by KiCad (PCBNEW (6.0.8)) date 2024-02-14 04:03:19*
%MOMM*%
%LPD*%
G01*
G04 APERTURE LIST*
G04 Aperture macros list*
%AMRoundRect*
0 Rectangle with rounded corners*
0 $1 Rounding radius*
0 $2 $3 $4 $5 $6 $7 $8 $9 X,Y pos of 4 corners*
0 Add a 4 corners polygon primitive as box body*
4,1,4,$2,$3,$4,$5,$6,$7,$8,$9,$2,$3,0*
0 Add four circle primitives for the rounded corners*
1,1,$1+$1,$2,$3*
1,1,$1+$1,$4,$5*
1,1,$1+$1,$6,$7*
1,1,$1+$1,$8,$9*
0 Add four rect primitives between the rounded corners*
20,1,$1+$1,$2,$3,$4,$5,0*
20,1,$1+$1,$4,$5,$6,$7,0*
20,1,$1+$1,$6,$7,$8,$9,0*
20,1,$1+$1,$8,$9,$2,$3,0*%
%AMRotRect*
0 Rectangle, with rotation*
0 The origin of the aperture is its center*
0 $1 length*
0 $2 width*
0 $3 Rotation angle, in degrees counterclockwise*
0 Add horizontal line*
21,1,$1,$2,0,0,$3*%
G04 Aperture macros list end*
%ADD10R,2.400000X2.400000*%
%ADD11C,2.400000*%
%ADD12RoundRect,0.135000X0.135000X0.185000X-0.135000X0.185000X-0.135000X-0.185000X0.135000X-0.185000X0*%
%ADD13R,0.700000X0.600000*%
%ADD14RoundRect,0.135000X0.185000X-0.135000X0.185000X0.135000X-0.185000X0.135000X-0.185000X-0.135000X0*%
%ADD15RoundRect,0.250000X0.250000X0.475000X-0.250000X0.475000X-0.250000X-0.475000X0.250000X-0.475000X0*%
%ADD16RoundRect,0.140000X-0.140000X-0.170000X0.140000X-0.170000X0.140000X0.170000X-0.140000X0.170000X0*%
%ADD17RoundRect,0.140000X0.140000X0.170000X-0.140000X0.170000X-0.140000X-0.170000X0.140000X-0.170000X0*%
%ADD18RoundRect,0.140000X-0.219203X-0.021213X-0.021213X-0.219203X0.219203X0.021213X0.021213X0.219203X0*%
%ADD19RoundRect,0.135000X-0.135000X-0.185000X0.135000X-0.185000X0.135000X0.185000X-0.135000X0.185000X0*%
%ADD20R,0.800000X2.600000*%
%ADD21R,4.400000X2.600000*%
%ADD22R,10.000000X7.410000*%
%ADD23RoundRect,0.135000X-0.185000X0.135000X-0.185000X-0.135000X0.185000X-0.135000X0.185000X0.135000X0*%
%ADD24R,0.700000X0.700000*%
%ADD25RoundRect,0.225000X0.250000X-0.225000X0.250000X0.225000X-0.250000X0.225000X-0.250000X-0.225000X0*%
%ADD26RoundRect,0.200000X-0.200000X-0.450000X0.200000X-0.450000X0.200000X0.450000X-0.200000X0.450000X0*%
%ADD27O,0.800000X1.300000*%
%ADD28R,0.450000X1.525000*%
%ADD29R,6.500000X2.870000*%
%ADD30RoundRect,0.150000X0.587500X0.150000X-0.587500X0.150000X-0.587500X-0.150000X0.587500X-0.150000X0*%
%ADD31RoundRect,0.135000X0.226274X0.035355X0.035355X0.226274X-0.226274X-0.035355X-0.035355X-0.226274X0*%
%ADD32RoundRect,0.250000X-0.250000X-0.475000X0.250000X-0.475000X0.250000X0.475000X-0.250000X0.475000X0*%
%ADD33RoundRect,0.019500X0.465500X0.175500X-0.465500X0.175500X-0.465500X-0.175500X0.465500X-0.175500X0*%
%ADD34RoundRect,0.019500X-0.465500X-0.175500X0.465500X-0.175500X0.465500X0.175500X-0.465500X0.175500X0*%
%ADD35R,1.750000X0.650000*%
%ADD36C,1.000000*%
%ADD37R,0.600000X0.470000*%
%ADD38C,0.800000*%
%ADD39C,6.400000*%
%ADD40RoundRect,0.140000X0.219203X0.021213X0.021213X0.219203X-0.219203X-0.021213X-0.021213X-0.219203X0*%
%ADD41R,2.000000X0.500000*%
%ADD42RoundRect,0.147500X0.017678X-0.226274X0.226274X-0.017678X-0.017678X0.226274X-0.226274X0.017678X0*%
%ADD43RoundRect,0.135000X-0.226274X-0.035355X-0.035355X-0.226274X0.226274X0.035355X0.035355X0.226274X0*%
%ADD44R,0.863600X0.787400*%
%ADD45R,0.355600X0.787400*%
%ADD46RoundRect,0.250000X-0.132583X0.503814X-0.503814X0.132583X0.132583X-0.503814X0.503814X-0.132583X0*%
%ADD47RoundRect,0.243750X-0.243750X-0.456250X0.243750X-0.456250X0.243750X0.456250X-0.243750X0.456250X0*%
%ADD48R,0.250000X0.750000*%
%ADD49R,0.300000X0.750000*%
%ADD50O,1.025000X2.050000*%
%ADD51O,0.925000X1.850000*%
%ADD52R,0.450000X0.700000*%
%ADD53RoundRect,0.135000X-0.035355X0.226274X-0.226274X0.035355X0.035355X-0.226274X0.226274X-0.035355X0*%
%ADD54C,2.250000*%
%ADD55C,5.100000*%
%ADD56R,0.300000X0.850000*%
%ADD57R,2.500000X1.700000*%
%ADD58R,0.700000X0.450000*%
%ADD59RotRect,0.300000X1.475000X315.000000*%
%ADD60RotRect,0.300000X1.475000X225.000000*%
%ADD61R,2.000000X2.000000*%
%ADD62C,2.000000*%
%ADD63C,2.200000*%
%ADD64RoundRect,0.243750X0.243750X0.456250X-0.243750X0.456250X-0.243750X-0.456250X0.243750X-0.456250X0*%
%ADD65R,0.475000X0.300000*%
%ADD66RoundRect,0.135000X0.035355X-0.226274X0.226274X-0.035355X-0.035355X0.226274X-0.226274X0.035355X0*%
%ADD67RotRect,0.250000X0.475000X45.000000*%
%ADD68RotRect,0.250000X0.475000X315.000000*%
%ADD69R,1.475000X0.450000*%
%ADD70RoundRect,0.225000X-0.250000X0.225000X-0.250000X-0.225000X0.250000X-0.225000X0.250000X0.225000X0*%
%ADD71RotRect,1.000000X1.800000X225.000000*%
%ADD72RotRect,0.450000X0.700000X135.000000*%
%ADD73RoundRect,0.150000X-0.150000X0.587500X-0.150000X-0.587500X0.150000X-0.587500X0.150000X0.587500X0*%
%ADD74RotRect,0.900000X0.800000X45.000000*%
%ADD75RoundRect,0.150000X0.150000X-0.825000X0.150000X0.825000X-0.150000X0.825000X-0.150000X-0.825000X0*%
%ADD76RotRect,1.400000X1.400000X45.000000*%
%ADD77R,2.286000X1.854500*%
%ADD78R,1.000000X0.550000*%
%ADD79RoundRect,0.140000X-0.021213X0.219203X-0.219203X0.021213X0.021213X-0.219203X0.219203X-0.021213X0*%
%ADD80R,0.850000X0.300000*%
G04 APERTURE END LIST*
D10*
%TO.C,C88*%
X22051000Y-62611000D03*
D11*
X27051000Y-62611000D03*
%TD*%
D12*
%TO.C,R115*%
X115190000Y-121100000D03*
X114170000Y-121100000D03*
%TD*%
%TO.C,R114*%
X94470000Y-121100000D03*
X93450000Y-121100000D03*
%TD*%
D13*
%TO.C,D50*%
X75630000Y-125690000D03*
X75630000Y-127090000D03*
%TD*%
%TO.C,D49*%
X75650000Y-122650000D03*
X75650000Y-124050000D03*
%TD*%
D14*
%TO.C,R68*%
X21166000Y-104964000D03*
X21166000Y-105984000D03*
%TD*%
D15*
%TO.C,C3*%
X111084400Y-64160400D03*
X109184400Y-64160400D03*
%TD*%
D12*
%TO.C,C91*%
X83314000Y-156972000D03*
X82294000Y-156972000D03*
%TD*%
D16*
%TO.C,C130*%
X113012400Y-74498400D03*
X113972400Y-74498400D03*
%TD*%
D14*
%TO.C,R102*%
X111915200Y-124345862D03*
X111915200Y-123325862D03*
%TD*%
D17*
%TO.C,C116*%
X75122400Y-75728400D03*
X74162400Y-75728400D03*
%TD*%
D18*
%TO.C,C78*%
X56673256Y-136101293D03*
X57352078Y-136780115D03*
%TD*%
D14*
%TO.C,R83*%
X36586000Y-111110000D03*
X36586000Y-110090000D03*
%TD*%
D19*
%TO.C,R17*%
X62323333Y-116637167D03*
X63343333Y-116637167D03*
%TD*%
D20*
%TO.C,Q6*%
X65896600Y-78841600D03*
X64696600Y-78841600D03*
X63496600Y-78841600D03*
X62296600Y-78841600D03*
D21*
X59296600Y-78841600D03*
D22*
X61696600Y-86376600D03*
%TD*%
D23*
%TO.C,R98*%
X105735200Y-123325862D03*
X105735200Y-124345862D03*
%TD*%
D12*
%TO.C,R206*%
X89862400Y-75728400D03*
X88842400Y-75728400D03*
%TD*%
D24*
%TO.C,D18*%
X58267600Y-160020000D03*
X58267600Y-158920000D03*
X56437600Y-158920000D03*
X56437600Y-160020000D03*
%TD*%
D14*
%TO.C,R77*%
X28711000Y-104964000D03*
X28711000Y-105984000D03*
%TD*%
%TO.C,R72*%
X83566000Y-154942000D03*
X83566000Y-153922000D03*
%TD*%
%TO.C,R25*%
X91330000Y-124346662D03*
X91330000Y-123326662D03*
%TD*%
D17*
%TO.C,C105*%
X50974600Y-75737200D03*
X50014600Y-75737200D03*
%TD*%
D25*
%TO.C,C73*%
X112348000Y-109029800D03*
X112348000Y-107479800D03*
%TD*%
D20*
%TO.C,Q4*%
X41715800Y-78840800D03*
X40515800Y-78840800D03*
X39315800Y-78840800D03*
X38115800Y-78840800D03*
D21*
X35115800Y-78840800D03*
D22*
X37515800Y-86375800D03*
%TD*%
D26*
%TO.C,J5*%
X89737400Y-155348400D03*
D27*
X90987400Y-155348400D03*
X92237400Y-155348400D03*
X93487400Y-155348400D03*
%TD*%
D14*
%TO.C,R173*%
X31242000Y-154686000D03*
X31242000Y-153666000D03*
%TD*%
D16*
%TO.C,C113*%
X29470000Y-74500000D03*
X28510000Y-74500000D03*
%TD*%
D24*
%TO.C,D10*%
X39725600Y-160028800D03*
X39725600Y-158928800D03*
X37895600Y-158928800D03*
X37895600Y-160028800D03*
%TD*%
D14*
%TO.C,R59*%
X45110400Y-105920000D03*
X45110400Y-104900000D03*
%TD*%
D25*
%TO.C,C70*%
X105223000Y-109004800D03*
X105223000Y-107454800D03*
%TD*%
D14*
%TO.C,R101*%
X110675200Y-124345862D03*
X110675200Y-123325862D03*
%TD*%
D28*
%TO.C,IC7*%
X84638000Y-119606000D03*
X85288000Y-119606000D03*
X85938000Y-119606000D03*
X86588000Y-119606000D03*
X87238000Y-119606000D03*
X87888000Y-119606000D03*
X88538000Y-119606000D03*
X89188000Y-119606000D03*
X89838000Y-119606000D03*
X90488000Y-119606000D03*
X91138000Y-119606000D03*
X91788000Y-119606000D03*
X91788000Y-114182000D03*
X91138000Y-114182000D03*
X90488000Y-114182000D03*
X89838000Y-114182000D03*
X89188000Y-114182000D03*
X88538000Y-114182000D03*
X87888000Y-114182000D03*
X87238000Y-114182000D03*
X86588000Y-114182000D03*
X85938000Y-114182000D03*
X85288000Y-114182000D03*
X84638000Y-114182000D03*
D29*
X88213000Y-116894000D03*
%TD*%
D24*
%TO.C,D21*%
X86029800Y-160020000D03*
X86029800Y-158920000D03*
X84199800Y-158920000D03*
X84199800Y-160020000D03*
%TD*%
D12*
%TO.C,R201*%
X77792400Y-75738400D03*
X76772400Y-75738400D03*
%TD*%
D19*
%TO.C,R37*%
X62326666Y-119087167D03*
X63346666Y-119087167D03*
%TD*%
D17*
%TO.C,C2*%
X71713333Y-110447167D03*
X70753333Y-110447167D03*
%TD*%
D12*
%TO.C,R211*%
X101932400Y-75738400D03*
X100912400Y-75738400D03*
%TD*%
D23*
%TO.C,R80*%
X32766000Y-110094000D03*
X32766000Y-111114000D03*
%TD*%
D19*
%TO.C,R62*%
X71313700Y-143118600D03*
X72333700Y-143118600D03*
%TD*%
D14*
%TO.C,R75*%
X26171000Y-104964000D03*
X26171000Y-105984000D03*
%TD*%
D30*
%TO.C,Q1*%
X71882000Y-151384000D03*
X71882000Y-149484000D03*
X70007000Y-150434000D03*
%TD*%
D19*
%TO.C,R14*%
X62323333Y-112917167D03*
X63343333Y-112917167D03*
%TD*%
D12*
%TO.C,R109*%
X75184000Y-154524700D03*
X74164000Y-154524700D03*
%TD*%
D31*
%TO.C,C42*%
X49529108Y-123182699D03*
X48807860Y-122461451D03*
%TD*%
D23*
%TO.C,R179*%
X25325287Y-152802400D03*
X25325287Y-153822400D03*
%TD*%
D14*
%TO.C,R165*%
X39116000Y-105027000D03*
X39116000Y-106047000D03*
%TD*%
D25*
%TO.C,C55*%
X76987800Y-153507600D03*
X76987800Y-151957600D03*
%TD*%
D32*
%TO.C,C54*%
X79587700Y-148563400D03*
X81487700Y-148563400D03*
%TD*%
D31*
%TO.C,C48*%
X33520624Y-123030624D03*
X32799376Y-122309376D03*
%TD*%
D18*
%TO.C,C81*%
X52004547Y-140724039D03*
X52683369Y-141402861D03*
%TD*%
D33*
%TO.C,D24*%
X29056000Y-108918000D03*
X29056000Y-108268000D03*
X29056000Y-107618000D03*
D34*
X27096000Y-107618000D03*
X27096000Y-108268000D03*
X27096000Y-108918000D03*
%TD*%
D26*
%TO.C,J1*%
X19364000Y-147160400D03*
D27*
X20614000Y-147160400D03*
X21864000Y-147160400D03*
X23114000Y-147160400D03*
X24364000Y-147160400D03*
X25614000Y-147160400D03*
X26864000Y-147160400D03*
%TD*%
D35*
%TO.C,IC20*%
X29910000Y-125160000D03*
X29910000Y-123890000D03*
X29910000Y-122620000D03*
X29910000Y-121350000D03*
X22660000Y-121350000D03*
X22660000Y-122620000D03*
X22660000Y-123890000D03*
X22660000Y-125160000D03*
%TD*%
D23*
%TO.C,R86*%
X40396000Y-111112000D03*
X40396000Y-110092000D03*
%TD*%
%TO.C,R162*%
X35306000Y-106047000D03*
X35306000Y-105027000D03*
%TD*%
D36*
%TO.C,TP1*%
X74168000Y-150876000D03*
%TD*%
D37*
%TO.C,U4*%
X58530000Y-151200000D03*
X59800000Y-151200000D03*
X59800000Y-146280000D03*
X58530000Y-146280000D03*
%TD*%
D38*
%TO.C,H2*%
X116699056Y-51290744D03*
X115002000Y-50587800D03*
X113304944Y-54684856D03*
D39*
X115002000Y-52987800D03*
D38*
X112602000Y-52987800D03*
X113304944Y-51290744D03*
X115002000Y-55387800D03*
X116699056Y-54684856D03*
X117402000Y-52987800D03*
%TD*%
D24*
%TO.C,D15*%
X99898800Y-160024600D03*
X99898800Y-158924600D03*
X98068800Y-158924600D03*
X98068800Y-160024600D03*
%TD*%
D23*
%TO.C,R100*%
X108205200Y-123325862D03*
X108205200Y-124345862D03*
%TD*%
D32*
%TO.C,C56*%
X74328100Y-146090400D03*
X76228100Y-146090400D03*
%TD*%
D12*
%TO.C,R53*%
X75003333Y-112907167D03*
X73983333Y-112907167D03*
%TD*%
D16*
%TO.C,C115*%
X76802400Y-74488400D03*
X77762400Y-74488400D03*
%TD*%
D23*
%TO.C,R5*%
X55436400Y-152337300D03*
X55436400Y-153357300D03*
%TD*%
D17*
%TO.C,C65*%
X46073000Y-115824000D03*
X45113000Y-115824000D03*
%TD*%
D40*
%TO.C,C82*%
X24883608Y-131584542D03*
X24204786Y-130905720D03*
%TD*%
D41*
%TO.C,J4*%
X23540000Y-114200000D03*
X26840000Y-114200000D03*
X23540000Y-115200000D03*
X26840000Y-115200000D03*
X23540000Y-116200000D03*
X26840000Y-116200000D03*
X23540000Y-117200000D03*
X26840000Y-117200000D03*
%TD*%
D23*
%TO.C,R7*%
X61634000Y-152337300D03*
X61634000Y-153357300D03*
%TD*%
D12*
%TO.C,R216*%
X114002400Y-75748400D03*
X112982400Y-75748400D03*
%TD*%
D19*
%TO.C,R28*%
X80492000Y-119802000D03*
X81512000Y-119802000D03*
%TD*%
D25*
%TO.C,C72*%
X109623000Y-109097800D03*
X109623000Y-107547800D03*
%TD*%
D42*
%TO.C,D33*%
X57647053Y-131282947D03*
X58332947Y-130597053D03*
%TD*%
D43*
%TO.C,C46*%
X52141176Y-119374976D03*
X52862424Y-120096224D03*
%TD*%
D17*
%TO.C,C131*%
X111332400Y-75738400D03*
X110372400Y-75738400D03*
%TD*%
D23*
%TO.C,R164*%
X37846000Y-106047000D03*
X37846000Y-105027000D03*
%TD*%
D19*
%TO.C,R41*%
X62940000Y-145125000D03*
X63960000Y-145125000D03*
%TD*%
D23*
%TO.C,C63*%
X83462700Y-140378400D03*
X83462700Y-141398400D03*
%TD*%
D44*
%TO.C,R43*%
X64768800Y-132264400D03*
D45*
X65516322Y-132264400D03*
X66009844Y-132264400D03*
X66503366Y-132264400D03*
X66996888Y-132264400D03*
X67490410Y-132264400D03*
X67983932Y-132264400D03*
D44*
X68731200Y-132264400D03*
X68731200Y-130435600D03*
D45*
X67983932Y-130435600D03*
X67490410Y-130435600D03*
X66996888Y-130435600D03*
X66503366Y-130435600D03*
X66009844Y-130435600D03*
X65516322Y-130435600D03*
D44*
X64768800Y-130435600D03*
%TD*%
D14*
%TO.C,R119*%
X63539000Y-153357300D03*
X63539000Y-152337300D03*
%TD*%
D46*
%TO.C,R54*%
X60295235Y-131054765D03*
X59004765Y-132345235D03*
%TD*%
D17*
%TO.C,C100*%
X38899600Y-75737200D03*
X37939600Y-75737200D03*
%TD*%
D19*
%TO.C,C60*%
X71313700Y-138038600D03*
X72333700Y-138038600D03*
%TD*%
D47*
%TO.C,F3*%
X104222500Y-58680000D03*
X106097500Y-58680000D03*
%TD*%
D12*
%TO.C,R67*%
X29500000Y-75750000D03*
X28480000Y-75750000D03*
%TD*%
D48*
%TO.C,J6*%
X27430000Y-157838800D03*
X28230000Y-157838800D03*
X28730000Y-157838800D03*
X29230000Y-157838800D03*
X29730000Y-157838800D03*
X30230000Y-157838800D03*
X30730000Y-157838800D03*
X31230000Y-157838800D03*
X31730000Y-157838800D03*
X32230000Y-157838800D03*
X32730000Y-157838800D03*
X33530000Y-157838800D03*
X33480000Y-159088800D03*
X32980000Y-159088800D03*
X32480000Y-159088800D03*
X31980000Y-159088800D03*
X31480000Y-159088800D03*
X30980000Y-159088800D03*
X29980000Y-159088800D03*
X29480000Y-159088800D03*
X28980000Y-159088800D03*
X28480000Y-159088800D03*
X27980000Y-159088800D03*
X27480000Y-159088800D03*
D49*
X26930000Y-157838800D03*
X34030000Y-157838800D03*
D50*
X26030000Y-161213800D03*
X34930000Y-161213800D03*
D51*
X26030000Y-158013800D03*
X34930000Y-158013800D03*
%TD*%
D20*
%TO.C,Q8*%
X90052000Y-78841600D03*
X88852000Y-78841600D03*
X87652000Y-78841600D03*
X86452000Y-78841600D03*
D21*
X83452000Y-78841600D03*
D22*
X85852000Y-86376600D03*
%TD*%
D16*
%TO.C,C127*%
X93228200Y-91617800D03*
X94188200Y-91617800D03*
%TD*%
D52*
%TO.C,D6*%
X55700000Y-110100000D03*
X55050000Y-108100000D03*
X56350000Y-108100000D03*
%TD*%
D53*
%TO.C,C49*%
X38799329Y-148709113D03*
X38078081Y-149430361D03*
%TD*%
D24*
%TO.C,D16*%
X53644800Y-160020000D03*
X53644800Y-158920000D03*
X51814800Y-158920000D03*
X51814800Y-160020000D03*
%TD*%
D54*
%TO.C,J2*%
X96068000Y-67598000D03*
X94568000Y-65098000D03*
X93068000Y-67598000D03*
X91568000Y-65098000D03*
X90068000Y-67598000D03*
X88568000Y-65098000D03*
X87068000Y-67598000D03*
X85568000Y-65098000D03*
X84068000Y-67598000D03*
X82568000Y-65098000D03*
X81068000Y-67598000D03*
X79568000Y-65098000D03*
X78068000Y-67598000D03*
X76568000Y-65098000D03*
X75068000Y-67598000D03*
X73568000Y-65098000D03*
X72068000Y-67598000D03*
X96068000Y-59598000D03*
X94568000Y-62098000D03*
X93068000Y-59598000D03*
X91568000Y-62098000D03*
X90068000Y-59598000D03*
X88568000Y-62098000D03*
X87068000Y-59598000D03*
X85568000Y-62098000D03*
X84068000Y-59598000D03*
X82568000Y-62098000D03*
X81068000Y-59598000D03*
X79568000Y-62098000D03*
X78068000Y-59598000D03*
X76568000Y-62098000D03*
X75068000Y-59598000D03*
X73568000Y-62098000D03*
X72068000Y-59598000D03*
X57568000Y-67598000D03*
X56068000Y-65098000D03*
X54568000Y-67598000D03*
X53068000Y-65098000D03*
X51568000Y-67598000D03*
X50068000Y-65098000D03*
X48568000Y-67598000D03*
X47068000Y-65098000D03*
X45568000Y-67598000D03*
X44068000Y-65098000D03*
X42568000Y-67598000D03*
X41068000Y-65098000D03*
X39568000Y-67598000D03*
X57568000Y-59598000D03*
X56068000Y-62098000D03*
X54568000Y-59598000D03*
X53068000Y-62098000D03*
X51568000Y-59598000D03*
X50068000Y-62098000D03*
X48568000Y-59598000D03*
X47068000Y-62098000D03*
X45568000Y-59598000D03*
X44068000Y-62098000D03*
X42568000Y-59598000D03*
X41068000Y-62098000D03*
X39568000Y-59598000D03*
D55*
X103318000Y-53098000D03*
X64818000Y-53098000D03*
X32318000Y-53098000D03*
%TD*%
D47*
%TO.C,D34*%
X71620500Y-136057400D03*
X73495500Y-136057400D03*
%TD*%
D12*
%TO.C,R45*%
X75000000Y-110457167D03*
X73980000Y-110457167D03*
%TD*%
D23*
%TO.C,R71*%
X24976000Y-105984000D03*
X24976000Y-104964000D03*
%TD*%
D14*
%TO.C,R204*%
X56845200Y-114221800D03*
X56845200Y-115241800D03*
%TD*%
D17*
%TO.C,C110*%
X63049600Y-75737200D03*
X62089600Y-75737200D03*
%TD*%
D14*
%TO.C,R103*%
X113145200Y-124345862D03*
X113145200Y-123325862D03*
%TD*%
D24*
%TO.C,D36*%
X102599000Y-154191200D03*
X102599000Y-155291200D03*
X104429000Y-155291200D03*
X104429000Y-154191200D03*
%TD*%
D32*
%TO.C,C19*%
X80560000Y-121580000D03*
X82460000Y-121580000D03*
%TD*%
D12*
%TO.C,R60*%
X72333700Y-140578600D03*
X71313700Y-140578600D03*
%TD*%
D19*
%TO.C,R214*%
X55092600Y-118821200D03*
X54072600Y-118821200D03*
%TD*%
D12*
%TO.C,R96*%
X69540000Y-126210000D03*
X70560000Y-126210000D03*
%TD*%
D56*
%TO.C,IC14*%
X114205617Y-62210400D03*
X115155617Y-62210400D03*
X116105617Y-62210400D03*
X116105617Y-59310400D03*
X115155617Y-59310400D03*
X114205617Y-59310400D03*
D57*
X115155617Y-60760400D03*
%TD*%
D24*
%TO.C,D30*%
X72135400Y-160020000D03*
X72135400Y-158920000D03*
X70305400Y-158920000D03*
X70305400Y-160020000D03*
%TD*%
D58*
%TO.C,D39*%
X71860000Y-122570000D03*
X71860000Y-123870000D03*
X73860000Y-123220000D03*
%TD*%
D17*
%TO.C,C64*%
X51788000Y-115824000D03*
X50828000Y-115824000D03*
%TD*%
D14*
%TO.C,R175*%
X30099000Y-154686000D03*
X30099000Y-153666000D03*
%TD*%
D23*
%TO.C,R166*%
X40386000Y-106047000D03*
X40386000Y-105027000D03*
%TD*%
D19*
%TO.C,R105*%
X114210000Y-119890000D03*
X115230000Y-119890000D03*
%TD*%
D59*
%TO.C,IC19*%
X55174508Y-131868942D03*
X54820955Y-131515388D03*
X54467401Y-131161835D03*
X54113848Y-130808282D03*
X53760294Y-130454728D03*
X53406741Y-130101175D03*
X53053188Y-129747621D03*
X52699634Y-129394068D03*
X52346081Y-129040515D03*
X51992527Y-128686961D03*
X51638974Y-128333408D03*
X51285421Y-127979854D03*
X50931867Y-127626301D03*
X50578314Y-127272748D03*
X50224760Y-126919194D03*
X49871207Y-126565641D03*
X49517654Y-126212087D03*
X49164100Y-125858534D03*
X48810547Y-125504981D03*
X48456994Y-125151427D03*
X48103440Y-124797874D03*
X47749887Y-124444321D03*
X47396333Y-124090767D03*
X47042780Y-123737214D03*
X46689227Y-123383660D03*
X46335673Y-123030107D03*
X45982120Y-122676554D03*
X45628566Y-122323000D03*
X45275013Y-121969447D03*
X44921460Y-121615893D03*
X44567906Y-121262340D03*
X44214353Y-120908787D03*
X43860799Y-120555233D03*
X43507246Y-120201680D03*
X43153693Y-119848126D03*
X42800139Y-119494573D03*
D60*
X39988683Y-119494573D03*
X39635129Y-119848126D03*
X39281576Y-120201680D03*
X38928023Y-120555233D03*
X38574469Y-120908787D03*
X38220916Y-121262340D03*
X37867362Y-121615893D03*
X37513809Y-121969447D03*
X37160256Y-122323000D03*
X36806702Y-122676554D03*
X36453149Y-123030107D03*
X36099595Y-123383660D03*
X35746042Y-123737214D03*
X35392489Y-124090767D03*
X35038935Y-124444321D03*
X34685382Y-124797874D03*
X34331828Y-125151427D03*
X33978275Y-125504981D03*
X33624722Y-125858534D03*
X33271168Y-126212087D03*
X32917615Y-126565641D03*
X32564062Y-126919194D03*
X32210508Y-127272748D03*
X31856955Y-127626301D03*
X31503401Y-127979854D03*
X31149848Y-128333408D03*
X30796295Y-128686961D03*
X30442741Y-129040515D03*
X30089188Y-129394068D03*
X29735634Y-129747621D03*
X29382081Y-130101175D03*
X29028528Y-130454728D03*
X28674974Y-130808282D03*
X28321421Y-131161835D03*
X27967867Y-131515388D03*
X27614314Y-131868942D03*
D59*
X27614314Y-134680398D03*
X27967867Y-135033952D03*
X28321421Y-135387505D03*
X28674974Y-135741058D03*
X29028528Y-136094612D03*
X29382081Y-136448165D03*
X29735634Y-136801719D03*
X30089188Y-137155272D03*
X30442741Y-137508825D03*
X30796295Y-137862379D03*
X31149848Y-138215932D03*
X31503401Y-138569486D03*
X31856955Y-138923039D03*
X32210508Y-139276592D03*
X32564062Y-139630146D03*
X32917615Y-139983699D03*
X33271168Y-140337253D03*
X33624722Y-140690806D03*
X33978275Y-141044359D03*
X34331828Y-141397913D03*
X34685382Y-141751466D03*
X35038935Y-142105019D03*
X35392489Y-142458573D03*
X35746042Y-142812126D03*
X36099595Y-143165680D03*
X36453149Y-143519233D03*
X36806702Y-143872786D03*
X37160256Y-144226340D03*
X37513809Y-144579893D03*
X37867362Y-144933447D03*
X38220916Y-145287000D03*
X38574469Y-145640553D03*
X38928023Y-145994107D03*
X39281576Y-146347660D03*
X39635129Y-146701214D03*
X39988683Y-147054767D03*
D60*
X42800139Y-147054767D03*
X43153693Y-146701214D03*
X43507246Y-146347660D03*
X43860799Y-145994107D03*
X44214353Y-145640553D03*
X44567906Y-145287000D03*
X44921460Y-144933447D03*
X45275013Y-144579893D03*
X45628566Y-144226340D03*
X45982120Y-143872786D03*
X46335673Y-143519233D03*
X46689227Y-143165680D03*
X47042780Y-142812126D03*
X47396333Y-142458573D03*
X47749887Y-142105019D03*
X48103440Y-141751466D03*
X48456994Y-141397913D03*
X48810547Y-141044359D03*
X49164100Y-140690806D03*
X49517654Y-140337253D03*
X49871207Y-139983699D03*
X50224760Y-139630146D03*
X50578314Y-139276592D03*
X50931867Y-138923039D03*
X51285421Y-138569486D03*
X51638974Y-138215932D03*
X51992527Y-137862379D03*
X52346081Y-137508825D03*
X52699634Y-137155272D03*
X53053188Y-136801719D03*
X53406741Y-136448165D03*
X53760294Y-136094612D03*
X54113848Y-135741058D03*
X54467401Y-135387505D03*
X54820955Y-135033952D03*
X55174508Y-134680398D03*
%TD*%
D19*
%TO.C,R42*%
X65990000Y-145125000D03*
X67010000Y-145125000D03*
%TD*%
D12*
%TO.C,R88*%
X75003333Y-116627167D03*
X73983333Y-116627167D03*
%TD*%
D14*
%TO.C,R161*%
X34036000Y-105027000D03*
X34036000Y-106047000D03*
%TD*%
D16*
%TO.C,C99*%
X40579600Y-74497200D03*
X41539600Y-74497200D03*
%TD*%
D25*
%TO.C,C16*%
X89150000Y-109075000D03*
X89150000Y-107525000D03*
%TD*%
D33*
%TO.C,D26*%
X39471000Y-114046000D03*
X39471000Y-113396000D03*
X39471000Y-112746000D03*
D34*
X37511000Y-112746000D03*
X37511000Y-113396000D03*
X37511000Y-114046000D03*
%TD*%
D61*
%TO.C,BZ1*%
X91948000Y-141234000D03*
D62*
X91948000Y-148834000D03*
%TD*%
D24*
%TO.C,D29*%
X81407000Y-160020000D03*
X81407000Y-158920000D03*
X79577000Y-158920000D03*
X79577000Y-160020000D03*
%TD*%
D18*
%TO.C,C75*%
X22090589Y-142227589D03*
X22769411Y-142906411D03*
%TD*%
D63*
%TO.C,J3*%
X63830000Y-104250000D03*
X66370000Y-104250000D03*
X68910000Y-104250000D03*
X71450000Y-104250000D03*
X63830000Y-101710000D03*
X66370000Y-101710000D03*
X68910000Y-101710000D03*
X71450000Y-101710000D03*
X63830000Y-99170000D03*
X66370000Y-99170000D03*
X68910000Y-99170000D03*
X71450000Y-99170000D03*
X63830000Y-96630000D03*
X66370000Y-96630000D03*
X68910000Y-96630000D03*
X71450000Y-96630000D03*
%TD*%
D19*
%TO.C,R34*%
X62323333Y-110467167D03*
X63343333Y-110467167D03*
%TD*%
D64*
%TO.C,F20*%
X81237700Y-145888400D03*
X79362700Y-145888400D03*
%TD*%
D19*
%TO.C,R13*%
X62323333Y-115397167D03*
X63343333Y-115397167D03*
%TD*%
D23*
%TO.C,R97*%
X104495200Y-123325862D03*
X104495200Y-124345862D03*
%TD*%
D65*
%TO.C,IC11*%
X76666200Y-141358600D03*
X76666200Y-140858600D03*
X76666200Y-140358600D03*
X76666200Y-139858600D03*
X74990200Y-139858600D03*
X74990200Y-140358600D03*
X74990200Y-140858600D03*
X74990200Y-141358600D03*
%TD*%
D12*
%TO.C,R48*%
X75003333Y-119077167D03*
X73983333Y-119077167D03*
%TD*%
D58*
%TO.C,D40*%
X73900000Y-126940000D03*
X73900000Y-125640000D03*
X71900000Y-126290000D03*
%TD*%
D23*
%TO.C,R69*%
X22436000Y-105984000D03*
X22436000Y-104964000D03*
%TD*%
D66*
%TO.C,R209*%
X56647024Y-116911176D03*
X55925776Y-117632424D03*
%TD*%
D19*
%TO.C,R33*%
X62326666Y-117877167D03*
X63346666Y-117877167D03*
%TD*%
D66*
%TO.C,R66*%
X56789376Y-130470624D03*
X57510624Y-129749376D03*
%TD*%
D23*
%TO.C,R29*%
X82670000Y-123326662D03*
X82670000Y-124346662D03*
%TD*%
D24*
%TO.C,D19*%
X90653200Y-160011200D03*
X90653200Y-158911200D03*
X88823200Y-158911200D03*
X88823200Y-160011200D03*
%TD*%
D67*
%TO.C,IC15*%
X23908318Y-137947658D03*
X23554765Y-138301212D03*
X23201212Y-138654765D03*
X22847658Y-139008318D03*
D68*
X23201212Y-139591682D03*
X23554765Y-139945235D03*
X23908318Y-140298788D03*
D67*
X24491682Y-140652342D03*
X24845235Y-140298788D03*
X25198788Y-139945235D03*
X25552342Y-139591682D03*
D68*
X25198788Y-139008318D03*
X24845235Y-138654765D03*
X24491682Y-138301212D03*
%TD*%
D52*
%TO.C,D3*%
X54775000Y-104700000D03*
X55425000Y-106700000D03*
X54125000Y-106700000D03*
%TD*%
D14*
%TO.C,R183*%
X42100000Y-114780000D03*
X42100000Y-115800000D03*
%TD*%
D69*
%TO.C,IC2*%
X65887000Y-111842167D03*
X65887000Y-112492167D03*
X65887000Y-113142167D03*
X65887000Y-113792167D03*
X65887000Y-114442167D03*
X65887000Y-115092167D03*
X65887000Y-115742167D03*
X65887000Y-116392167D03*
X65887000Y-117042167D03*
X65887000Y-117692167D03*
X65887000Y-118342167D03*
X65887000Y-118992167D03*
X71763000Y-118992167D03*
X71763000Y-118342167D03*
X71763000Y-117692167D03*
X71763000Y-117042167D03*
X71763000Y-116392167D03*
X71763000Y-115742167D03*
X71763000Y-115092167D03*
X71763000Y-114442167D03*
X71763000Y-113792167D03*
X71763000Y-113142167D03*
X71763000Y-112492167D03*
X71763000Y-111842167D03*
%TD*%
D25*
%TO.C,C17*%
X91800000Y-109075000D03*
X91800000Y-107525000D03*
%TD*%
D23*
%TO.C,C69*%
X102750000Y-112940000D03*
X102750000Y-113960000D03*
%TD*%
D14*
%TO.C,R79*%
X31496000Y-111114000D03*
X31496000Y-110094000D03*
%TD*%
D16*
%TO.C,C125*%
X100942400Y-74488400D03*
X101902400Y-74488400D03*
%TD*%
D70*
%TO.C,C4*%
X112466811Y-59338000D03*
X112466811Y-60888000D03*
%TD*%
D23*
%TO.C,R76*%
X27441000Y-105984000D03*
X27441000Y-104964000D03*
%TD*%
D66*
%TO.C,C43*%
X46039376Y-119960624D03*
X46760624Y-119239376D03*
%TD*%
D23*
%TO.C,R8*%
X64732800Y-152337300D03*
X64732800Y-153357300D03*
%TD*%
D38*
%TO.C,H1*%
X18812944Y-54684856D03*
D39*
X20510000Y-52987800D03*
D38*
X18812944Y-51290744D03*
X22207056Y-54684856D03*
X20510000Y-55387800D03*
X22207056Y-51290744D03*
X20510000Y-50587800D03*
X22910000Y-52987800D03*
X18110000Y-52987800D03*
%TD*%
D19*
%TO.C,R40*%
X59865000Y-145125000D03*
X60885000Y-145125000D03*
%TD*%
D17*
%TO.C,C106*%
X45877400Y-91618601D03*
X44917400Y-91618601D03*
%TD*%
D23*
%TO.C,R44*%
X88860000Y-123326662D03*
X88860000Y-124346662D03*
%TD*%
D19*
%TO.C,C61*%
X71373200Y-146903200D03*
X72393200Y-146903200D03*
%TD*%
%TO.C,R18*%
X62323333Y-111717167D03*
X63343333Y-111717167D03*
%TD*%
D23*
%TO.C,R21*%
X85150000Y-123326662D03*
X85150000Y-124346662D03*
%TD*%
%TO.C,R99*%
X106975200Y-123325862D03*
X106975200Y-124345862D03*
%TD*%
D17*
%TO.C,C95*%
X21722000Y-91617800D03*
X20762000Y-91617800D03*
%TD*%
D12*
%TO.C,R61*%
X72333700Y-139308600D03*
X71313700Y-139308600D03*
%TD*%
D24*
%TO.C,D17*%
X95276000Y-160011200D03*
X95276000Y-158911200D03*
X93446000Y-158911200D03*
X93446000Y-160011200D03*
%TD*%
D56*
%TO.C,IC10*%
X81534200Y-150618000D03*
X80584200Y-150618000D03*
X79634200Y-150618000D03*
X79634200Y-153518000D03*
X80584200Y-153518000D03*
X81534200Y-153518000D03*
D57*
X80584200Y-152068000D03*
%TD*%
D20*
%TO.C,Q5*%
X53806200Y-78841600D03*
X52606200Y-78841600D03*
X51406200Y-78841600D03*
X50206200Y-78841600D03*
D21*
X47206200Y-78841600D03*
D22*
X49606200Y-86376600D03*
%TD*%
D14*
%TO.C,R104*%
X114385200Y-124345862D03*
X114385200Y-123325862D03*
%TD*%
D31*
%TO.C,C41*%
X25826183Y-130721165D03*
X25104935Y-129999917D03*
%TD*%
D17*
%TO.C,C132*%
X106253200Y-91618600D03*
X105293200Y-91618600D03*
%TD*%
D12*
%TO.C,R49*%
X75000000Y-111667167D03*
X73980000Y-111667167D03*
%TD*%
D23*
%TO.C,R23*%
X87620000Y-123326662D03*
X87620000Y-124346662D03*
%TD*%
D12*
%TO.C,R64*%
X72350400Y-145643600D03*
X71330400Y-145643600D03*
%TD*%
D24*
%TO.C,D20*%
X62890400Y-160020000D03*
X62890400Y-158920000D03*
X61060400Y-158920000D03*
X61060400Y-160020000D03*
%TD*%
D52*
%TO.C,D37*%
X18386000Y-109664000D03*
X19686000Y-109664000D03*
X19036000Y-107664000D03*
%TD*%
D23*
%TO.C,R22*%
X86390000Y-123326662D03*
X86390000Y-124346662D03*
%TD*%
D38*
%TO.C,H3*%
X22207056Y-160434856D03*
X18812944Y-157040744D03*
X22207056Y-157040744D03*
X22910000Y-158737800D03*
X18812944Y-160434856D03*
D39*
X20510000Y-158737800D03*
D38*
X18110000Y-158737800D03*
X20510000Y-161137800D03*
X20510000Y-156337800D03*
%TD*%
D23*
%TO.C,R20*%
X83910000Y-123326662D03*
X83910000Y-124346662D03*
%TD*%
D17*
%TO.C,C122*%
X82123200Y-91618600D03*
X81163200Y-91618600D03*
%TD*%
D24*
%TO.C,D32*%
X107284000Y-154191200D03*
X107284000Y-155291200D03*
X109114000Y-155291200D03*
X109114000Y-154191200D03*
%TD*%
D71*
%TO.C,Y2*%
X55540647Y-127082534D03*
X57308413Y-125314768D03*
%TD*%
D23*
%TO.C,R6*%
X58535200Y-152337300D03*
X58535200Y-153357300D03*
%TD*%
D18*
%TO.C,C76*%
X23045166Y-141321503D03*
X23723988Y-142000325D03*
%TD*%
D19*
%TO.C,C58*%
X75377700Y-144210800D03*
X76397700Y-144210800D03*
%TD*%
D14*
%TO.C,C62*%
X83462700Y-143373400D03*
X83462700Y-142353400D03*
%TD*%
%TO.C,R24*%
X90090000Y-124346662D03*
X90090000Y-123326662D03*
%TD*%
%TO.C,R199*%
X55727600Y-114221800D03*
X55727600Y-115241800D03*
%TD*%
%TO.C,R58*%
X51866800Y-105920000D03*
X51866800Y-104900000D03*
%TD*%
%TO.C,R118*%
X60414800Y-153357300D03*
X60414800Y-152337300D03*
%TD*%
D17*
%TO.C,C121*%
X87192400Y-75718400D03*
X86232400Y-75718400D03*
%TD*%
%TO.C,C111*%
X57967800Y-91618600D03*
X57007800Y-91618600D03*
%TD*%
D72*
%TO.C,D38*%
X56466726Y-121212513D03*
X55547487Y-120293274D03*
X54592893Y-122167107D03*
%TD*%
D18*
%TO.C,C85*%
X58031362Y-123720667D03*
X58710184Y-124399489D03*
%TD*%
D24*
%TO.C,D13*%
X104513200Y-160020000D03*
X104513200Y-158920000D03*
X102683200Y-158920000D03*
X102683200Y-160020000D03*
%TD*%
D14*
%TO.C,R159*%
X31496000Y-105027000D03*
X31496000Y-106047000D03*
%TD*%
D12*
%TO.C,R30*%
X69580000Y-123850000D03*
X70600000Y-123850000D03*
%TD*%
D19*
%TO.C,C59*%
X71300400Y-141848600D03*
X72320400Y-141848600D03*
%TD*%
D16*
%TO.C,C104*%
X52654600Y-74497200D03*
X53614600Y-74497200D03*
%TD*%
D18*
%TO.C,C74*%
X21385589Y-139660589D03*
X22064411Y-140339411D03*
%TD*%
D56*
%TO.C,IC3*%
X108908011Y-62210400D03*
X109858011Y-62210400D03*
X110808011Y-62210400D03*
X110808011Y-59310400D03*
X109858011Y-59310400D03*
X108908011Y-59310400D03*
D57*
X109858011Y-60760400D03*
%TD*%
D24*
%TO.C,D14*%
X49022000Y-160020000D03*
X49022000Y-158920000D03*
X47192000Y-158920000D03*
X47192000Y-160020000D03*
%TD*%
D16*
%TO.C,C67*%
X70510000Y-127290000D03*
X69550000Y-127290000D03*
%TD*%
D19*
%TO.C,R10*%
X62323333Y-114157167D03*
X63343333Y-114157167D03*
%TD*%
D14*
%TO.C,R26*%
X92560000Y-124346662D03*
X92560000Y-123326662D03*
%TD*%
D19*
%TO.C,R94*%
X101032000Y-119762000D03*
X102052000Y-119762000D03*
%TD*%
D14*
%TO.C,R193*%
X54559200Y-114198400D03*
X54559200Y-115218400D03*
%TD*%
D20*
%TO.C,Q10*%
X114182000Y-78841600D03*
X112982000Y-78841600D03*
X111782000Y-78841600D03*
X110582000Y-78841600D03*
D21*
X107582000Y-78841600D03*
D22*
X109982000Y-86376600D03*
%TD*%
D73*
%TO.C,Q11*%
X117650000Y-66462500D03*
X115750000Y-66462500D03*
X116700000Y-68337500D03*
%TD*%
D74*
%TO.C,Y1*%
X50678864Y-122089512D03*
X51668813Y-121099563D03*
X50890996Y-120321746D03*
X49901047Y-121311695D03*
%TD*%
D14*
%TO.C,R81*%
X34036000Y-111114000D03*
X34036000Y-110094000D03*
%TD*%
%TO.C,R117*%
X57316000Y-153357300D03*
X57316000Y-152337300D03*
%TD*%
D75*
%TO.C,U2*%
X49403000Y-113854000D03*
X50673000Y-113854000D03*
X51943000Y-113854000D03*
X53213000Y-113854000D03*
X53213000Y-108904000D03*
X51943000Y-108904000D03*
X50673000Y-108904000D03*
X49403000Y-108904000D03*
%TD*%
D12*
%TO.C,R185*%
X41569600Y-75747200D03*
X40549600Y-75747200D03*
%TD*%
D23*
%TO.C,R82*%
X35306000Y-110096000D03*
X35306000Y-111116000D03*
%TD*%
D14*
%TO.C,R163*%
X36576000Y-105027000D03*
X36576000Y-106047000D03*
%TD*%
D76*
%TO.C,C40*%
X62477817Y-126722183D03*
X60922183Y-128277817D03*
%TD*%
D20*
%TO.C,Q7*%
X77964400Y-78841600D03*
X76764400Y-78841600D03*
X75564400Y-78841600D03*
X74364400Y-78841600D03*
D21*
X71364400Y-78841600D03*
D22*
X73764400Y-86376600D03*
%TD*%
D12*
%TO.C,R195*%
X65719600Y-75747200D03*
X64699600Y-75747200D03*
%TD*%
D33*
%TO.C,D25*%
X34381000Y-114046000D03*
X34381000Y-113396000D03*
X34381000Y-112746000D03*
D34*
X32421000Y-112746000D03*
X32421000Y-113396000D03*
X32421000Y-114046000D03*
%TD*%
D64*
%TO.C,F18*%
X81826700Y-155263400D03*
X79951700Y-155263400D03*
%TD*%
D20*
%TO.C,Q3*%
X29650800Y-78840800D03*
X28450800Y-78840800D03*
X27250800Y-78840800D03*
X26050800Y-78840800D03*
D21*
X23050800Y-78840800D03*
D22*
X25450800Y-86375800D03*
%TD*%
D64*
%TO.C,F1*%
X76215600Y-148376400D03*
X74340600Y-148376400D03*
%TD*%
D14*
%TO.C,R116*%
X54217200Y-153357300D03*
X54217200Y-152337300D03*
%TD*%
D24*
%TO.C,D12*%
X44399200Y-160020000D03*
X44399200Y-158920000D03*
X42569200Y-158920000D03*
X42569200Y-160020000D03*
%TD*%
D52*
%TO.C,D7*%
X57400000Y-104700000D03*
X58050000Y-106700000D03*
X56750000Y-106700000D03*
%TD*%
D77*
%TO.C,L2*%
X80586700Y-138800600D03*
X80586700Y-142585100D03*
%TD*%
D25*
%TO.C,C14*%
X84600000Y-109075000D03*
X84600000Y-107525000D03*
%TD*%
D12*
%TO.C,R190*%
X53644600Y-75747200D03*
X52624600Y-75747200D03*
%TD*%
D17*
%TO.C,C126*%
X99262400Y-75728400D03*
X98302400Y-75728400D03*
%TD*%
D37*
%TO.C,U6*%
X64730000Y-151200000D03*
X66000000Y-151200000D03*
X66000000Y-146280000D03*
X64730000Y-146280000D03*
%TD*%
D32*
%TO.C,C68*%
X101100000Y-121540000D03*
X103000000Y-121540000D03*
%TD*%
D23*
%TO.C,R93*%
X109445200Y-123325862D03*
X109445200Y-124345862D03*
%TD*%
D34*
%TO.C,IC12*%
X46823809Y-152882000D03*
X46823809Y-153532000D03*
X46823809Y-154182000D03*
D33*
X48783809Y-154182000D03*
X48783809Y-153532000D03*
X48783809Y-152882000D03*
%TD*%
D17*
%TO.C,C94*%
X26830000Y-75740000D03*
X25870000Y-75740000D03*
%TD*%
D12*
%TO.C,R52*%
X75003333Y-117827167D03*
X73983333Y-117827167D03*
%TD*%
D19*
%TO.C,R31*%
X93460000Y-119880000D03*
X94480000Y-119880000D03*
%TD*%
%TO.C,C57*%
X76338200Y-142864600D03*
X75318200Y-142864600D03*
%TD*%
D66*
%TO.C,C53*%
X50799376Y-124610624D03*
X51520624Y-123889376D03*
%TD*%
D25*
%TO.C,C71*%
X107933400Y-109097800D03*
X107933400Y-107547800D03*
%TD*%
D37*
%TO.C,U1*%
X55430000Y-151200000D03*
X56700000Y-151200000D03*
X56700000Y-146280000D03*
X55430000Y-146280000D03*
%TD*%
D25*
%TO.C,C15*%
X87300000Y-109075000D03*
X87300000Y-107525000D03*
%TD*%
D19*
%TO.C,R63*%
X71330400Y-144373600D03*
X72350400Y-144373600D03*
%TD*%
D12*
%TO.C,R92*%
X75003333Y-115387167D03*
X73983333Y-115387167D03*
%TD*%
D47*
%TO.C,F19*%
X114109117Y-57573000D03*
X115984117Y-57573000D03*
%TD*%
D12*
%TO.C,R108*%
X76194500Y-136057400D03*
X75174500Y-136057400D03*
%TD*%
D19*
%TO.C,R39*%
X56715000Y-145125000D03*
X57735000Y-145125000D03*
%TD*%
D75*
%TO.C,U3*%
X43688000Y-113854000D03*
X44958000Y-113854000D03*
X46228000Y-113854000D03*
X47498000Y-113854000D03*
X47498000Y-108904000D03*
X46228000Y-108904000D03*
X44958000Y-108904000D03*
X43688000Y-108904000D03*
%TD*%
D24*
%TO.C,D31*%
X76758800Y-160020000D03*
X76758800Y-158920000D03*
X74928800Y-158920000D03*
X74928800Y-160020000D03*
%TD*%
D33*
%TO.C,D23*%
X24051000Y-108918000D03*
X24051000Y-108268000D03*
X24051000Y-107618000D03*
D34*
X22091000Y-107618000D03*
X22091000Y-108268000D03*
X22091000Y-108918000D03*
%TD*%
D14*
%TO.C,R188*%
X42340000Y-111890000D03*
X42340000Y-112910000D03*
%TD*%
D47*
%TO.C,D35*%
X70665400Y-154575500D03*
X72540400Y-154575500D03*
%TD*%
D23*
%TO.C,R180*%
X26595287Y-152802400D03*
X26595287Y-153822400D03*
%TD*%
D37*
%TO.C,U5*%
X61630000Y-151200000D03*
X62900000Y-151200000D03*
X62900000Y-146280000D03*
X61630000Y-146280000D03*
%TD*%
D23*
%TO.C,R95*%
X103255200Y-123325862D03*
X103255200Y-124345862D03*
%TD*%
D43*
%TO.C,C50*%
X37939376Y-117339376D03*
X38660624Y-118060624D03*
%TD*%
D23*
%TO.C,R172*%
X19417000Y-105999000D03*
X19417000Y-104979000D03*
%TD*%
D15*
%TO.C,C90*%
X116205617Y-64160400D03*
X114305617Y-64160400D03*
%TD*%
D14*
%TO.C,R85*%
X39126000Y-111110000D03*
X39126000Y-110090000D03*
%TD*%
D17*
%TO.C,C117*%
X70035600Y-91618600D03*
X69075600Y-91618600D03*
%TD*%
D78*
%TO.C,Q2*%
X84252000Y-150084000D03*
X84252000Y-151384000D03*
X86152000Y-150734000D03*
%TD*%
D38*
%TO.C,H4*%
X113304944Y-160434856D03*
X116699056Y-157040744D03*
X115002000Y-161137800D03*
X112602000Y-158737800D03*
D39*
X115002000Y-158737800D03*
D38*
X117402000Y-158737800D03*
X116699056Y-160434856D03*
X113304944Y-157040744D03*
X115002000Y-156337800D03*
%TD*%
D23*
%TO.C,R160*%
X32766000Y-106047000D03*
X32766000Y-105027000D03*
%TD*%
D47*
%TO.C,F2*%
X108811511Y-57573000D03*
X110686511Y-57573000D03*
%TD*%
D23*
%TO.C,C20*%
X94300000Y-112940000D03*
X94300000Y-113960000D03*
%TD*%
D16*
%TO.C,C109*%
X64729600Y-74497200D03*
X65689600Y-74497200D03*
%TD*%
D28*
%TO.C,IC16*%
X105204889Y-119584455D03*
X105854889Y-119584455D03*
X106504889Y-119584455D03*
X107154889Y-119584455D03*
X107804889Y-119584455D03*
X108454889Y-119584455D03*
X109104889Y-119584455D03*
X109754889Y-119584455D03*
X110404889Y-119584455D03*
X111054889Y-119584455D03*
X111704889Y-119584455D03*
X112354889Y-119584455D03*
X112354889Y-114160455D03*
X111704889Y-114160455D03*
X111054889Y-114160455D03*
X110404889Y-114160455D03*
X109754889Y-114160455D03*
X109104889Y-114160455D03*
X108454889Y-114160455D03*
X107804889Y-114160455D03*
X107154889Y-114160455D03*
X106504889Y-114160455D03*
X105854889Y-114160455D03*
X105204889Y-114160455D03*
D29*
X108779889Y-116872455D03*
%TD*%
D16*
%TO.C,C120*%
X88872400Y-74478400D03*
X89832400Y-74478400D03*
%TD*%
D18*
%TO.C,C84*%
X54021498Y-127603249D03*
X54700320Y-128282071D03*
%TD*%
D14*
%TO.C,R70*%
X23706000Y-104964000D03*
X23706000Y-105984000D03*
%TD*%
D24*
%TO.C,D22*%
X67487800Y-160020000D03*
X67487800Y-158920000D03*
X65657800Y-158920000D03*
X65657800Y-160020000D03*
%TD*%
%TO.C,D11*%
X109119000Y-160020000D03*
X109119000Y-158920000D03*
X107289000Y-158920000D03*
X107289000Y-160020000D03*
%TD*%
D23*
%TO.C,R57*%
X50724809Y-153047400D03*
X50724809Y-154067400D03*
%TD*%
D16*
%TO.C,C101*%
X32827000Y-91617800D03*
X33787000Y-91617800D03*
%TD*%
D23*
%TO.C,R84*%
X37856000Y-110092000D03*
X37856000Y-111112000D03*
%TD*%
D16*
%TO.C,C18*%
X70540000Y-124960000D03*
X69580000Y-124960000D03*
%TD*%
D20*
%TO.C,Q9*%
X102117000Y-78840800D03*
X100917000Y-78840800D03*
X99717000Y-78840800D03*
X98517000Y-78840800D03*
D21*
X95517000Y-78840800D03*
D22*
X97917000Y-86375800D03*
%TD*%
D79*
%TO.C,C79*%
X37919264Y-147864968D03*
X37240442Y-148543790D03*
%TD*%
D70*
%TO.C,C92*%
X117764417Y-59338000D03*
X117764417Y-60888000D03*
%TD*%
D23*
%TO.C,R78*%
X29981000Y-105984000D03*
X29981000Y-104964000D03*
%TD*%
D66*
%TO.C,C47*%
X45211778Y-119125197D03*
X45933026Y-118403949D03*
%TD*%
D80*
%TO.C,IC17*%
X50038200Y-106210800D03*
X50038200Y-105710800D03*
X50038200Y-105210800D03*
X50038200Y-104710800D03*
X46888200Y-104710800D03*
X46888200Y-105210800D03*
X46888200Y-105710800D03*
X46888200Y-106210800D03*
%TD*%
D14*
%TO.C,R27*%
X93800000Y-124346662D03*
X93800000Y-123326662D03*
%TD*%
D43*
%TO.C,R55*%
X54375618Y-138338544D03*
X55096866Y-139059792D03*
%TD*%
D19*
%TO.C,C66*%
X21508400Y-127193001D03*
X22528400Y-127193001D03*
%TD*%
D14*
%TO.C,R198*%
X40840000Y-114790000D03*
X40840000Y-115810000D03*
%TD*%
%TO.C,R171*%
X18147000Y-104979000D03*
X18147000Y-105999000D03*
%TD*%
D12*
%TO.C,R89*%
X75003333Y-114147167D03*
X73983333Y-114147167D03*
%TD*%
G36*
X73668121Y-94358002D02*
G01*
X73714614Y-94411658D01*
X73726000Y-94464000D01*
X73726000Y-106404000D01*
X73705998Y-106472121D01*
X73652342Y-106518614D01*
X73600000Y-106530000D01*
X61660000Y-106530000D01*
X61591879Y-106509998D01*
X61545386Y-106456342D01*
X61534000Y-106404000D01*
X61534000Y-94464000D01*
X61554002Y-94395879D01*
X61607658Y-94349386D01*
X61660000Y-94338000D01*
X73600000Y-94338000D01*
X73668121Y-94358002D01*
G37*
M02*
