%TF.GenerationSoftware,KiCad,Pcbnew,8.0.7*%
%TF.CreationDate,2025-04-30T18:01:11+02:00*%
%TF.ProjectId,pdms,70646d73-2e6b-4696-9361-645f70636258,rev?*%
%TF.SameCoordinates,Original*%
%TF.FileFunction,Paste,Top*%
%TF.FilePolarity,Positive*%
%FSLAX46Y46*%
G04 Gerber Fmt 4.6, Leading zero omitted, Abs format (unit mm)*
G04 Created by KiCad (PCBNEW 8.0.7) date 2025-04-30 18:01:11*
%MOMM*%
%LPD*%
G01*
G04 APERTURE LIST*
G04 Aperture macros list*
%AMRoundRect*
0 Rectangle with rounded corners*
0 $1 Rounding radius*
0 $2 $3 $4 $5 $6 $7 $8 $9 X,Y pos of 4 corners*
0 Add a 4 corners polygon primitive as box body*
4,1,4,$2,$3,$4,$5,$6,$7,$8,$9,$2,$3,0*
0 Add four circle primitives for the rounded corners*
1,1,$1+$1,$2,$3*
1,1,$1+$1,$4,$5*
1,1,$1+$1,$6,$7*
1,1,$1+$1,$8,$9*
0 Add four rect primitives between the rounded corners*
20,1,$1+$1,$2,$3,$4,$5,0*
20,1,$1+$1,$4,$5,$6,$7,0*
20,1,$1+$1,$6,$7,$8,$9,0*
20,1,$1+$1,$8,$9,$2,$3,0*%
%AMRotRect*
0 Rectangle, with rotation*
0 The origin of the aperture is its center*
0 $1 length*
0 $2 width*
0 $3 Rotation angle, in degrees counterclockwise*
0 Add horizontal line*
21,1,$1,$2,0,0,$3*%
%AMFreePoly0*
4,1,6,0.400000,0.025000,0.250000,-0.125000,-0.400000,-0.125000,-0.400000,0.125000,0.400000,0.125000,0.400000,0.025000,0.400000,0.025000,$1*%
%AMFreePoly1*
4,1,6,0.400000,-0.025000,0.400000,-0.125000,-0.400000,-0.125000,-0.400000,0.125000,0.250000,0.125000,0.400000,-0.025000,0.400000,-0.025000,$1*%
%AMFreePoly2*
4,1,6,0.400000,-0.125000,-0.250000,-0.125000,-0.400000,0.025000,-0.400000,0.125000,0.400000,0.125000,0.400000,-0.125000,0.400000,-0.125000,$1*%
G04 Aperture macros list end*
%ADD10RoundRect,0.250000X-0.475000X0.250000X-0.475000X-0.250000X0.475000X-0.250000X0.475000X0.250000X0*%
%ADD11RoundRect,0.135000X0.226274X0.035355X0.035355X0.226274X-0.226274X-0.035355X-0.035355X-0.226274X0*%
%ADD12RoundRect,0.250000X0.250000X0.475000X-0.250000X0.475000X-0.250000X-0.475000X0.250000X-0.475000X0*%
%ADD13R,0.800000X0.250000*%
%ADD14FreePoly0,0.000000*%
%ADD15FreePoly1,90.000000*%
%ADD16R,0.250000X0.800000*%
%ADD17FreePoly0,90.000000*%
%ADD18FreePoly2,0.000000*%
%ADD19R,0.250000X1.800000*%
%ADD20RoundRect,0.135000X-0.185000X0.135000X-0.185000X-0.135000X0.185000X-0.135000X0.185000X0.135000X0*%
%ADD21RoundRect,0.140000X-0.140000X-0.170000X0.140000X-0.170000X0.140000X0.170000X-0.140000X0.170000X0*%
%ADD22RoundRect,0.135000X0.185000X-0.135000X0.185000X0.135000X-0.185000X0.135000X-0.185000X-0.135000X0*%
%ADD23R,2.500000X3.300000*%
%ADD24RoundRect,0.140000X0.140000X0.170000X-0.140000X0.170000X-0.140000X-0.170000X0.140000X-0.170000X0*%
%ADD25RoundRect,0.140000X-0.021213X0.219203X-0.219203X0.021213X0.021213X-0.219203X0.219203X-0.021213X0*%
%ADD26RoundRect,0.135000X-0.135000X-0.185000X0.135000X-0.185000X0.135000X0.185000X-0.135000X0.185000X0*%
%ADD27R,0.800000X2.600000*%
%ADD28R,4.400000X2.600000*%
%ADD29R,10.000000X7.410000*%
%ADD30RoundRect,0.135000X0.135000X0.185000X-0.135000X0.185000X-0.135000X-0.185000X0.135000X-0.185000X0*%
%ADD31R,0.700000X0.700000*%
%ADD32RoundRect,0.250000X0.475000X-0.250000X0.475000X0.250000X-0.475000X0.250000X-0.475000X-0.250000X0*%
%ADD33RoundRect,0.135000X0.035355X-0.226274X0.226274X-0.035355X-0.035355X0.226274X-0.226274X0.035355X0*%
%ADD34RoundRect,0.140000X-0.170000X0.140000X-0.170000X-0.140000X0.170000X-0.140000X0.170000X0.140000X0*%
%ADD35RoundRect,0.225000X0.250000X-0.225000X0.250000X0.225000X-0.250000X0.225000X-0.250000X-0.225000X0*%
%ADD36R,0.450000X1.525000*%
%ADD37R,6.500000X2.870000*%
%ADD38RoundRect,0.250000X-0.650000X0.325000X-0.650000X-0.325000X0.650000X-0.325000X0.650000X0.325000X0*%
%ADD39RoundRect,0.150000X-0.150000X0.587500X-0.150000X-0.587500X0.150000X-0.587500X0.150000X0.587500X0*%
%ADD40RoundRect,0.225000X0.225000X0.250000X-0.225000X0.250000X-0.225000X-0.250000X0.225000X-0.250000X0*%
%ADD41RoundRect,0.019500X-0.465500X-0.175500X0.465500X-0.175500X0.465500X0.175500X-0.465500X0.175500X0*%
%ADD42RoundRect,0.019500X0.465500X0.175500X-0.465500X0.175500X-0.465500X-0.175500X0.465500X-0.175500X0*%
%ADD43R,1.750000X0.650000*%
%ADD44R,0.600000X0.470000*%
%ADD45RoundRect,0.200000X-0.275000X0.200000X-0.275000X-0.200000X0.275000X-0.200000X0.275000X0.200000X0*%
%ADD46RoundRect,0.140000X0.021213X-0.219203X0.219203X-0.021213X-0.021213X0.219203X-0.219203X0.021213X0*%
%ADD47R,2.000000X0.500000*%
%ADD48RoundRect,0.250000X0.262500X0.450000X-0.262500X0.450000X-0.262500X-0.450000X0.262500X-0.450000X0*%
%ADD49RoundRect,0.147500X0.017678X-0.226274X0.226274X-0.017678X-0.017678X0.226274X-0.226274X0.017678X0*%
%ADD50RoundRect,0.135000X-0.226274X-0.035355X-0.035355X-0.226274X0.226274X0.035355X0.035355X0.226274X0*%
%ADD51RoundRect,0.250000X0.650000X-0.325000X0.650000X0.325000X-0.650000X0.325000X-0.650000X-0.325000X0*%
%ADD52RoundRect,0.243750X-0.456250X0.243750X-0.456250X-0.243750X0.456250X-0.243750X0.456250X0.243750X0*%
%ADD53R,0.863600X0.787400*%
%ADD54R,0.355600X0.787400*%
%ADD55RoundRect,0.250000X-0.132583X0.503814X-0.503814X0.132583X0.132583X-0.503814X0.503814X-0.132583X0*%
%ADD56RoundRect,0.140000X0.170000X-0.140000X0.170000X0.140000X-0.170000X0.140000X-0.170000X-0.140000X0*%
%ADD57RoundRect,0.243750X-0.243750X-0.456250X0.243750X-0.456250X0.243750X0.456250X-0.243750X0.456250X0*%
%ADD58R,0.250000X0.750000*%
%ADD59R,0.300000X0.750000*%
%ADD60R,0.450000X0.700000*%
%ADD61RoundRect,0.135000X-0.035355X0.226274X-0.226274X0.035355X0.035355X-0.226274X0.226274X-0.035355X0*%
%ADD62RotRect,0.710000X0.580000X225.000000*%
%ADD63RotRect,0.750000X0.300000X225.000000*%
%ADD64RoundRect,0.150000X-0.150000X-0.200000X0.150000X-0.200000X0.150000X0.200000X-0.150000X0.200000X0*%
%ADD65RoundRect,0.250000X-0.250000X-0.475000X0.250000X-0.475000X0.250000X0.475000X-0.250000X0.475000X0*%
%ADD66R,0.300000X0.850000*%
%ADD67R,2.500000X1.700000*%
%ADD68RoundRect,0.250000X0.625000X-0.375000X0.625000X0.375000X-0.625000X0.375000X-0.625000X-0.375000X0*%
%ADD69R,0.700000X0.450000*%
%ADD70RotRect,0.300000X1.475000X315.000000*%
%ADD71RotRect,0.300000X1.475000X225.000000*%
%ADD72R,0.700000X0.600000*%
%ADD73RotRect,0.250000X0.475000X45.000000*%
%ADD74RotRect,0.250000X0.475000X315.000000*%
%ADD75R,1.475000X0.450000*%
%ADD76RoundRect,0.225000X-0.250000X0.225000X-0.250000X-0.225000X0.250000X-0.225000X0.250000X0.225000X0*%
%ADD77R,2.286000X1.854500*%
%ADD78R,0.850000X0.300000*%
%ADD79R,1.700000X2.500000*%
%ADD80R,3.400000X0.980000*%
%ADD81RoundRect,0.243750X0.456250X-0.243750X0.456250X0.243750X-0.456250X0.243750X-0.456250X-0.243750X0*%
%ADD82RotRect,1.000000X1.800000X225.000000*%
%ADD83R,0.450000X0.600000*%
%ADD84RoundRect,0.140000X-0.219203X-0.021213X-0.021213X-0.219203X0.219203X0.021213X0.021213X0.219203X0*%
%ADD85R,1.370000X1.070000*%
%ADD86R,9.000000X10.000000*%
%ADD87RoundRect,0.150000X0.512500X0.150000X-0.512500X0.150000X-0.512500X-0.150000X0.512500X-0.150000X0*%
%ADD88R,1.500000X2.400000*%
%ADD89RoundRect,0.218750X-0.381250X0.218750X-0.381250X-0.218750X0.381250X-0.218750X0.381250X0.218750X0*%
%ADD90RotRect,0.900000X0.800000X45.000000*%
%ADD91RoundRect,0.150000X0.150000X-0.825000X0.150000X0.825000X-0.150000X0.825000X-0.150000X-0.825000X0*%
%ADD92RotRect,1.400000X1.400000X45.000000*%
%ADD93RoundRect,0.250000X0.375000X0.625000X-0.375000X0.625000X-0.375000X-0.625000X0.375000X-0.625000X0*%
%ADD94RoundRect,0.218750X0.218750X0.381250X-0.218750X0.381250X-0.218750X-0.381250X0.218750X-0.381250X0*%
%ADD95RoundRect,0.250000X1.500000X0.550000X-1.500000X0.550000X-1.500000X-0.550000X1.500000X-0.550000X0*%
%ADD96R,0.550000X1.000000*%
%ADD97RoundRect,0.140000X0.219203X0.021213X0.021213X0.219203X-0.219203X-0.021213X-0.021213X-0.219203X0*%
%ADD98R,0.600000X0.450000*%
G04 APERTURE END LIST*
D10*
%TO.C,C69*%
X102175000Y-113675000D03*
X102175000Y-115575000D03*
%TD*%
%TO.C,C20*%
X94875000Y-113650000D03*
X94875000Y-115550000D03*
%TD*%
D11*
%TO.C,R68*%
X33161138Y-120772101D03*
X32439890Y-120050853D03*
%TD*%
D12*
%TO.C,C3*%
X111084400Y-64000000D03*
X109184400Y-64000000D03*
%TD*%
D13*
%TO.C,U7*%
X77907499Y-146942500D03*
X77907499Y-147592500D03*
X77907499Y-148242500D03*
D14*
X77907499Y-148742500D03*
D15*
X78307501Y-149467500D03*
D16*
X78807500Y-149467500D03*
D17*
X79307499Y-149467500D03*
D18*
X79707501Y-148742500D03*
D13*
X79707501Y-148242500D03*
X79707501Y-147592500D03*
X79707501Y-146942500D03*
D19*
X78807500Y-147167500D03*
%TD*%
D20*
%TO.C,C91*%
X101700000Y-151140001D03*
X101700000Y-152159999D03*
%TD*%
D21*
%TO.C,C130*%
X113012400Y-74498400D03*
X113972400Y-74498400D03*
%TD*%
D22*
%TO.C,R102*%
X111915200Y-124345862D03*
X111915200Y-123325862D03*
%TD*%
D23*
%TO.C,D52*%
X85640000Y-128430000D03*
X78840000Y-128430000D03*
%TD*%
D24*
%TO.C,C116*%
X75122400Y-75728400D03*
X74162400Y-75728400D03*
%TD*%
D25*
%TO.C,C78*%
X56270000Y-135840000D03*
X55591178Y-136518822D03*
%TD*%
D11*
%TO.C,R83*%
X37383572Y-116526429D03*
X36662324Y-115805181D03*
%TD*%
D26*
%TO.C,R17*%
X62323333Y-116637167D03*
X63343333Y-116637167D03*
%TD*%
D27*
%TO.C,Q6*%
X65896600Y-78841600D03*
X64696600Y-78841600D03*
X63496600Y-78841600D03*
X62296600Y-78841600D03*
D28*
X59296600Y-78841600D03*
D29*
X61696600Y-86376600D03*
%TD*%
D30*
%TO.C,R115*%
X114830694Y-121087041D03*
X113810694Y-121087041D03*
%TD*%
D20*
%TO.C,R98*%
X105735200Y-123325862D03*
X105735200Y-124345862D03*
%TD*%
D30*
%TO.C,R206*%
X89862400Y-75728400D03*
X88842400Y-75728400D03*
%TD*%
D31*
%TO.C,D18*%
X58267600Y-160020000D03*
X58267600Y-158920000D03*
X56437600Y-158920000D03*
X56437600Y-160020000D03*
%TD*%
D11*
%TO.C,R77*%
X35269322Y-118640678D03*
X34548074Y-117919430D03*
%TD*%
D22*
%TO.C,R72*%
X96660000Y-155100000D03*
X96660000Y-154080000D03*
%TD*%
D32*
%TO.C,C31*%
X75907500Y-148092498D03*
X75907500Y-146192500D03*
%TD*%
D33*
%TO.C,R122*%
X53249376Y-123570624D03*
X53970624Y-122849376D03*
%TD*%
D22*
%TO.C,R25*%
X91330000Y-124346662D03*
X91330000Y-123326662D03*
%TD*%
D34*
%TO.C,C22*%
X85290000Y-135070000D03*
X85290000Y-136030000D03*
%TD*%
D26*
%TO.C,C137*%
X93450000Y-161990000D03*
X94470000Y-161990000D03*
%TD*%
D24*
%TO.C,C105*%
X50974600Y-75737200D03*
X50014600Y-75737200D03*
%TD*%
D22*
%TO.C,R142*%
X22098000Y-111253999D03*
X22098000Y-110234001D03*
%TD*%
D35*
%TO.C,C73*%
X112348000Y-109029800D03*
X112348000Y-107479800D03*
%TD*%
D27*
%TO.C,Q4*%
X41715800Y-78840800D03*
X40515800Y-78840800D03*
X39315800Y-78840800D03*
X38115800Y-78840800D03*
D28*
X35115800Y-78840800D03*
D29*
X37515800Y-86375800D03*
%TD*%
D26*
%TO.C,C136*%
X98070000Y-161990000D03*
X99090000Y-161990000D03*
%TD*%
D22*
%TO.C,R173*%
X31240000Y-155680000D03*
X31240000Y-154660000D03*
%TD*%
D21*
%TO.C,C113*%
X28510000Y-74500000D03*
X29470000Y-74500000D03*
%TD*%
D31*
%TO.C,D10*%
X39770000Y-160020000D03*
X39770000Y-158920000D03*
X37940000Y-158920000D03*
X37940000Y-160020000D03*
%TD*%
D22*
%TO.C,R59*%
X45110400Y-105920000D03*
X45110400Y-104900000D03*
%TD*%
D35*
%TO.C,C70*%
X105223000Y-109004800D03*
X105223000Y-107454800D03*
%TD*%
D26*
%TO.C,C146*%
X51820000Y-161990000D03*
X52840000Y-161990000D03*
%TD*%
D22*
%TO.C,R101*%
X110675200Y-124345862D03*
X110675200Y-123325862D03*
%TD*%
D36*
%TO.C,IC7*%
X84638000Y-119606000D03*
X85288000Y-119606000D03*
X85938000Y-119606000D03*
X86588000Y-119606000D03*
X87238000Y-119606000D03*
X87888000Y-119606000D03*
X88538000Y-119606000D03*
X89188000Y-119606000D03*
X89838000Y-119606000D03*
X90488000Y-119606000D03*
X91138000Y-119606000D03*
X91788000Y-119606000D03*
X91788000Y-114182000D03*
X91138000Y-114182000D03*
X90488000Y-114182000D03*
X89838000Y-114182000D03*
X89188000Y-114182000D03*
X88538000Y-114182000D03*
X87888000Y-114182000D03*
X87238000Y-114182000D03*
X86588000Y-114182000D03*
X85938000Y-114182000D03*
X85288000Y-114182000D03*
X84638000Y-114182000D03*
D37*
X88213000Y-116894000D03*
%TD*%
D23*
%TO.C,D51*%
X18901200Y-98094800D03*
X25701200Y-98094800D03*
%TD*%
D22*
%TO.C,R62*%
X77282500Y-151861499D03*
X77282500Y-150841501D03*
%TD*%
D31*
%TO.C,D21*%
X86029800Y-160020000D03*
X86029800Y-158920000D03*
X84199800Y-158920000D03*
X84199800Y-160020000D03*
%TD*%
D30*
%TO.C,R201*%
X77792400Y-75738400D03*
X76772400Y-75738400D03*
%TD*%
D26*
%TO.C,R37*%
X62326666Y-119087167D03*
X63346666Y-119087167D03*
%TD*%
D21*
%TO.C,C2*%
X71440000Y-110530000D03*
X72400000Y-110530000D03*
%TD*%
D30*
%TO.C,R211*%
X101932400Y-75738400D03*
X100912400Y-75738400D03*
%TD*%
D11*
%TO.C,R75*%
X34568278Y-119352835D03*
X33847030Y-118631587D03*
%TD*%
D38*
%TO.C,C59*%
X75007500Y-139192499D03*
X75007500Y-142142501D03*
%TD*%
D39*
%TO.C,Q1*%
X76110000Y-128802500D03*
X74210000Y-128802500D03*
X75160000Y-130677500D03*
%TD*%
D22*
%TO.C,R60*%
X76182500Y-151861499D03*
X76182500Y-150841501D03*
%TD*%
D26*
%TO.C,R14*%
X62323333Y-112917167D03*
X63343333Y-112917167D03*
%TD*%
%TO.C,R109*%
X111480002Y-133006201D03*
X112500000Y-133006201D03*
%TD*%
D11*
%TO.C,C42*%
X49806836Y-123356592D03*
X49085588Y-122635344D03*
%TD*%
D20*
%TO.C,R179*%
X25325287Y-152802400D03*
X25325287Y-153822400D03*
%TD*%
D34*
%TO.C,C21*%
X86340000Y-135070000D03*
X86340000Y-136030000D03*
%TD*%
D40*
%TO.C,C55*%
X107094200Y-137139928D03*
X105544200Y-137139928D03*
%TD*%
D32*
%TO.C,C54*%
X102150000Y-134540027D03*
X102150000Y-132640029D03*
%TD*%
D25*
%TO.C,C81*%
X51879411Y-140260589D03*
X51200589Y-140939411D03*
%TD*%
D41*
%TO.C,D24*%
X22940000Y-107380000D03*
X22940000Y-108030000D03*
X22940000Y-108680000D03*
D42*
X24900000Y-108680000D03*
X24900000Y-108030000D03*
X24900000Y-107380000D03*
%TD*%
D38*
%TO.C,C58*%
X82607500Y-139192498D03*
X82607500Y-142142500D03*
%TD*%
D43*
%TO.C,IC20*%
X29610000Y-125160000D03*
X29610000Y-123890000D03*
X29610000Y-122620000D03*
X29610000Y-121350000D03*
X22360000Y-121350000D03*
X22360000Y-122620000D03*
X22360000Y-123890000D03*
X22360000Y-125160000D03*
%TD*%
D44*
%TO.C,U4*%
X58530000Y-151188000D03*
X59800000Y-151188000D03*
X59800000Y-146268000D03*
X58530000Y-146268000D03*
%TD*%
D31*
%TO.C,D15*%
X99898800Y-160024600D03*
X99898800Y-158924600D03*
X98068800Y-158924600D03*
X98068800Y-160024600D03*
%TD*%
D20*
%TO.C,R100*%
X108205200Y-123325862D03*
X108205200Y-124345862D03*
%TD*%
D30*
%TO.C,R53*%
X75003333Y-112907167D03*
X73983333Y-112907167D03*
%TD*%
D45*
%TO.C,R134*%
X32485000Y-104320000D03*
X32485000Y-105970000D03*
%TD*%
D21*
%TO.C,C115*%
X76802400Y-74488400D03*
X77762400Y-74488400D03*
%TD*%
D20*
%TO.C,R5*%
X55436400Y-152325300D03*
X55436400Y-153345300D03*
%TD*%
D24*
%TO.C,C65*%
X46120000Y-115830000D03*
X45160000Y-115830000D03*
%TD*%
D46*
%TO.C,C82*%
X24600589Y-130549411D03*
X25279411Y-129870589D03*
%TD*%
D47*
%TO.C,J4*%
X20373354Y-115360000D03*
X23673354Y-115360000D03*
X20373354Y-116360000D03*
X23673354Y-116360000D03*
X20373354Y-117360000D03*
X23673354Y-117360000D03*
X20373354Y-118360000D03*
X23673354Y-118360000D03*
%TD*%
D20*
%TO.C,R7*%
X61634000Y-152325300D03*
X61634000Y-153345300D03*
%TD*%
D30*
%TO.C,R216*%
X114002400Y-75748400D03*
X112982400Y-75748400D03*
%TD*%
D48*
%TO.C,R28*%
X82735000Y-119530000D03*
X80910000Y-119530000D03*
%TD*%
D32*
%TO.C,C5*%
X101725600Y-142665600D03*
X101725600Y-140765600D03*
%TD*%
D35*
%TO.C,C72*%
X109623000Y-109097800D03*
X109623000Y-107547800D03*
%TD*%
D49*
%TO.C,D33*%
X57647053Y-131282947D03*
X58332947Y-130597053D03*
%TD*%
D50*
%TO.C,C46*%
X52418904Y-119548869D03*
X53140152Y-120270117D03*
%TD*%
D24*
%TO.C,C131*%
X111332400Y-75738400D03*
X110372400Y-75738400D03*
%TD*%
D26*
%TO.C,R41*%
X62940000Y-145125000D03*
X63960000Y-145125000D03*
%TD*%
D51*
%TO.C,C11*%
X96440000Y-138630000D03*
X96440000Y-135679998D03*
%TD*%
D34*
%TO.C,C118*%
X59080000Y-141820000D03*
X59080000Y-142780000D03*
%TD*%
D52*
%TO.C,F20*%
X78906500Y-136516399D03*
X78906500Y-138391401D03*
%TD*%
D53*
%TO.C,R43*%
X63517600Y-131630000D03*
D54*
X64265122Y-131630000D03*
X64758644Y-131630000D03*
X65252166Y-131630000D03*
X65745688Y-131630000D03*
X66239210Y-131630000D03*
X66732732Y-131630000D03*
D53*
X67480000Y-131630000D03*
X67480000Y-129801200D03*
D54*
X66732732Y-129801200D03*
X66239210Y-129801200D03*
X65745688Y-129801200D03*
X65252166Y-129801200D03*
X64758644Y-129801200D03*
X64265122Y-129801200D03*
D53*
X63517600Y-129801200D03*
%TD*%
D22*
%TO.C,R119*%
X63539000Y-153345300D03*
X63539000Y-152325300D03*
%TD*%
D55*
%TO.C,R54*%
X60295235Y-131054765D03*
X59004765Y-132345235D03*
%TD*%
D45*
%TO.C,R129*%
X26420000Y-104330000D03*
X26420000Y-105980000D03*
%TD*%
D56*
%TO.C,C24*%
X71590000Y-129370000D03*
X71590000Y-128410000D03*
%TD*%
D24*
%TO.C,C100*%
X38899600Y-75737200D03*
X37939600Y-75737200D03*
%TD*%
D57*
%TO.C,F3*%
X104262500Y-58000000D03*
X106137500Y-58000000D03*
%TD*%
D30*
%TO.C,R67*%
X29500000Y-75750000D03*
X28480000Y-75750000D03*
%TD*%
D58*
%TO.C,J6*%
X27430000Y-157838800D03*
X28230000Y-157838800D03*
X28730000Y-157838800D03*
X29230000Y-157838800D03*
X29730000Y-157838800D03*
X30230000Y-157838800D03*
X30730000Y-157838800D03*
X31230000Y-157838800D03*
X31730000Y-157838800D03*
X32230000Y-157838800D03*
X32730000Y-157838800D03*
X33530000Y-157838800D03*
X33480000Y-159088800D03*
X32980000Y-159088800D03*
X32480000Y-159088800D03*
X31980000Y-159088800D03*
X31480000Y-159088800D03*
X30980000Y-159088800D03*
X29980000Y-159088800D03*
X29480000Y-159088800D03*
X28980000Y-159088800D03*
X28480000Y-159088800D03*
X27980000Y-159088800D03*
X27480000Y-159088800D03*
D59*
X26930000Y-157838800D03*
X34030000Y-157838800D03*
%TD*%
D27*
%TO.C,Q8*%
X90052000Y-78841600D03*
X88852000Y-78841600D03*
X87652000Y-78841600D03*
X86452000Y-78841600D03*
D28*
X83452000Y-78841600D03*
D29*
X85852000Y-86376600D03*
%TD*%
D26*
%TO.C,C149*%
X37890000Y-161990000D03*
X38910000Y-161990000D03*
%TD*%
D12*
%TO.C,C127*%
X94658199Y-92217800D03*
X92758201Y-92217800D03*
%TD*%
D60*
%TO.C,D6*%
X56350000Y-108100000D03*
X55050000Y-108100000D03*
X55700000Y-110100000D03*
%TD*%
D61*
%TO.C,C49*%
X38799329Y-148709113D03*
X38078081Y-149430361D03*
%TD*%
D31*
%TO.C,D16*%
X53644800Y-160020000D03*
X53644800Y-158920000D03*
X51814800Y-158920000D03*
X51814800Y-160020000D03*
%TD*%
D34*
%TO.C,C98*%
X41200000Y-114520000D03*
X41200000Y-115480000D03*
%TD*%
D26*
%TO.C,C144*%
X61060000Y-161990000D03*
X62080000Y-161990000D03*
%TD*%
D30*
%TO.C,R45*%
X75000000Y-110457167D03*
X73980000Y-110457167D03*
%TD*%
D62*
%TO.C,U9*%
X30230881Y-116078775D03*
X29718229Y-115566123D03*
X29612163Y-116697493D03*
X29099511Y-116184841D03*
D63*
X31220831Y-115636833D03*
X30867278Y-115283280D03*
X30513724Y-114929726D03*
X30160171Y-114576173D03*
X28109561Y-116626783D03*
X28463114Y-116980336D03*
X28816668Y-117333890D03*
X29170221Y-117687443D03*
%TD*%
D22*
%TO.C,R204*%
X56845200Y-115241800D03*
X56845200Y-114221800D03*
%TD*%
D24*
%TO.C,C110*%
X63049600Y-75737200D03*
X62089600Y-75737200D03*
%TD*%
D38*
%TO.C,C13*%
X98898400Y-130689996D03*
X98898400Y-133639998D03*
%TD*%
D22*
%TO.C,R103*%
X113145200Y-124345862D03*
X113145200Y-123325862D03*
%TD*%
D64*
%TO.C,D69*%
X65950000Y-142320000D03*
X64550000Y-142320000D03*
%TD*%
D31*
%TO.C,D36*%
X102599000Y-154191200D03*
X102599000Y-155291200D03*
X104429000Y-155291200D03*
X104429000Y-154191200D03*
%TD*%
D65*
%TO.C,C19*%
X80850000Y-121580000D03*
X82750000Y-121580000D03*
%TD*%
D26*
%TO.C,R214*%
X54072600Y-118821200D03*
X55092600Y-118821200D03*
%TD*%
D30*
%TO.C,R96*%
X70560000Y-126210000D03*
X69540000Y-126210000D03*
%TD*%
D66*
%TO.C,IC14*%
X114205617Y-62210400D03*
X115155617Y-62210400D03*
X116105617Y-62210400D03*
X116105617Y-59310400D03*
X115155617Y-59310400D03*
X114205617Y-59310400D03*
D67*
X115155617Y-60760400D03*
%TD*%
D31*
%TO.C,D30*%
X72135400Y-160020000D03*
X72135400Y-158920000D03*
X70305400Y-158920000D03*
X70305400Y-160020000D03*
%TD*%
D68*
%TO.C,F4*%
X35102800Y-75212400D03*
X35102800Y-72412400D03*
%TD*%
D69*
%TO.C,D39*%
X71860000Y-122570000D03*
X71860000Y-123870000D03*
X73860000Y-123220000D03*
%TD*%
D11*
%TO.C,R139*%
X35894516Y-110947289D03*
X35173268Y-110226041D03*
%TD*%
D24*
%TO.C,C64*%
X51788000Y-115824000D03*
X50828000Y-115824000D03*
%TD*%
D22*
%TO.C,R175*%
X30030000Y-155680000D03*
X30030000Y-154660000D03*
%TD*%
%TO.C,R108*%
X84600000Y-138609999D03*
X84600000Y-137590001D03*
%TD*%
D26*
%TO.C,R105*%
X113850694Y-119877041D03*
X114870694Y-119877041D03*
%TD*%
D70*
%TO.C,IC19*%
X55174508Y-131868942D03*
X54820955Y-131515388D03*
X54467401Y-131161835D03*
X54113848Y-130808282D03*
X53760294Y-130454728D03*
X53406741Y-130101175D03*
X53053188Y-129747621D03*
X52699634Y-129394068D03*
X52346081Y-129040515D03*
X51992527Y-128686961D03*
X51638974Y-128333408D03*
X51285421Y-127979854D03*
X50931867Y-127626301D03*
X50578314Y-127272748D03*
X50224760Y-126919194D03*
X49871207Y-126565641D03*
X49517654Y-126212087D03*
X49164100Y-125858534D03*
X48810547Y-125504981D03*
X48456994Y-125151427D03*
X48103440Y-124797874D03*
X47749887Y-124444321D03*
X47396333Y-124090767D03*
X47042780Y-123737214D03*
X46689227Y-123383660D03*
X46335673Y-123030107D03*
X45982120Y-122676554D03*
X45628566Y-122323000D03*
X45275013Y-121969447D03*
X44921460Y-121615893D03*
X44567906Y-121262340D03*
X44214353Y-120908787D03*
X43860799Y-120555233D03*
X43507246Y-120201680D03*
X43153693Y-119848126D03*
X42800139Y-119494573D03*
D71*
X39988683Y-119494573D03*
X39635129Y-119848126D03*
X39281576Y-120201680D03*
X38928023Y-120555233D03*
X38574469Y-120908787D03*
X38220916Y-121262340D03*
X37867362Y-121615893D03*
X37513809Y-121969447D03*
X37160256Y-122323000D03*
X36806702Y-122676554D03*
X36453149Y-123030107D03*
X36099595Y-123383660D03*
X35746042Y-123737214D03*
X35392489Y-124090767D03*
X35038935Y-124444321D03*
X34685382Y-124797874D03*
X34331828Y-125151427D03*
X33978275Y-125504981D03*
X33624722Y-125858534D03*
X33271168Y-126212087D03*
X32917615Y-126565641D03*
X32564062Y-126919194D03*
X32210508Y-127272748D03*
X31856955Y-127626301D03*
X31503401Y-127979854D03*
X31149848Y-128333408D03*
X30796295Y-128686961D03*
X30442741Y-129040515D03*
X30089188Y-129394068D03*
X29735634Y-129747621D03*
X29382081Y-130101175D03*
X29028528Y-130454728D03*
X28674974Y-130808282D03*
X28321421Y-131161835D03*
X27967867Y-131515388D03*
X27614314Y-131868942D03*
D70*
X27614314Y-134680398D03*
X27967867Y-135033952D03*
X28321421Y-135387505D03*
X28674974Y-135741058D03*
X29028528Y-136094612D03*
X29382081Y-136448165D03*
X29735634Y-136801719D03*
X30089188Y-137155272D03*
X30442741Y-137508825D03*
X30796295Y-137862379D03*
X31149848Y-138215932D03*
X31503401Y-138569486D03*
X31856955Y-138923039D03*
X32210508Y-139276592D03*
X32564062Y-139630146D03*
X32917615Y-139983699D03*
X33271168Y-140337253D03*
X33624722Y-140690806D03*
X33978275Y-141044359D03*
X34331828Y-141397913D03*
X34685382Y-141751466D03*
X35038935Y-142105019D03*
X35392489Y-142458573D03*
X35746042Y-142812126D03*
X36099595Y-143165680D03*
X36453149Y-143519233D03*
X36806702Y-143872786D03*
X37160256Y-144226340D03*
X37513809Y-144579893D03*
X37867362Y-144933447D03*
X38220916Y-145287000D03*
X38574469Y-145640553D03*
X38928023Y-145994107D03*
X39281576Y-146347660D03*
X39635129Y-146701214D03*
X39988683Y-147054767D03*
D71*
X42800139Y-147054767D03*
X43153693Y-146701214D03*
X43507246Y-146347660D03*
X43860799Y-145994107D03*
X44214353Y-145640553D03*
X44567906Y-145287000D03*
X44921460Y-144933447D03*
X45275013Y-144579893D03*
X45628566Y-144226340D03*
X45982120Y-143872786D03*
X46335673Y-143519233D03*
X46689227Y-143165680D03*
X47042780Y-142812126D03*
X47396333Y-142458573D03*
X47749887Y-142105019D03*
X48103440Y-141751466D03*
X48456994Y-141397913D03*
X48810547Y-141044359D03*
X49164100Y-140690806D03*
X49517654Y-140337253D03*
X49871207Y-139983699D03*
X50224760Y-139630146D03*
X50578314Y-139276592D03*
X50931867Y-138923039D03*
X51285421Y-138569486D03*
X51638974Y-138215932D03*
X51992527Y-137862379D03*
X52346081Y-137508825D03*
X52699634Y-137155272D03*
X53053188Y-136801719D03*
X53406741Y-136448165D03*
X53760294Y-136094612D03*
X54113848Y-135741058D03*
X54467401Y-135387505D03*
X54820955Y-135033952D03*
X55174508Y-134680398D03*
%TD*%
D26*
%TO.C,R42*%
X65990000Y-145125000D03*
X67010000Y-145125000D03*
%TD*%
D45*
%TO.C,R133*%
X30985000Y-104320000D03*
X30985000Y-105970000D03*
%TD*%
D30*
%TO.C,R88*%
X75003333Y-116627167D03*
X73983333Y-116627167D03*
%TD*%
D21*
%TO.C,C99*%
X40579600Y-74497200D03*
X41539600Y-74497200D03*
%TD*%
D35*
%TO.C,C16*%
X89150000Y-109075000D03*
X89150000Y-107525000D03*
%TD*%
D41*
%TO.C,D26*%
X30490000Y-107375000D03*
X30490000Y-108025000D03*
X30490000Y-108675000D03*
D42*
X32450000Y-108675000D03*
X32450000Y-108025000D03*
X32450000Y-107375000D03*
%TD*%
D31*
%TO.C,D29*%
X81407000Y-160020000D03*
X81407000Y-158920000D03*
X79577000Y-158920000D03*
X79577000Y-160020000D03*
%TD*%
D25*
%TO.C,C75*%
X25129411Y-141660589D03*
X24450589Y-142339411D03*
%TD*%
D26*
%TO.C,R34*%
X62323333Y-110467167D03*
X63343333Y-110467167D03*
%TD*%
%TO.C,R13*%
X62323333Y-115397167D03*
X63343333Y-115397167D03*
%TD*%
D20*
%TO.C,R97*%
X104495200Y-123325862D03*
X104495200Y-124345862D03*
%TD*%
D30*
%TO.C,R48*%
X75003333Y-119077167D03*
X73983333Y-119077167D03*
%TD*%
D69*
%TO.C,D40*%
X73900000Y-126940000D03*
X73900000Y-125640000D03*
X71900000Y-126290000D03*
%TD*%
D32*
%TO.C,C1*%
X101711800Y-148510000D03*
X101711800Y-146610000D03*
%TD*%
D72*
%TO.C,D50*%
X75630000Y-125690000D03*
X75630000Y-127090000D03*
%TD*%
D33*
%TO.C,R209*%
X56099376Y-117730624D03*
X56820624Y-117009376D03*
%TD*%
D26*
%TO.C,R33*%
X62326666Y-117877167D03*
X63346666Y-117877167D03*
%TD*%
D33*
%TO.C,R66*%
X56859376Y-130530624D03*
X57580624Y-129809376D03*
%TD*%
D20*
%TO.C,R29*%
X82670000Y-123326662D03*
X82670000Y-124346662D03*
%TD*%
D31*
%TO.C,D19*%
X90653200Y-160011200D03*
X90653200Y-158911200D03*
X88823200Y-158911200D03*
X88823200Y-160011200D03*
%TD*%
D73*
%TO.C,IC15*%
X23908318Y-137947658D03*
X23554765Y-138301212D03*
X23201212Y-138654765D03*
X22847658Y-139008318D03*
D74*
X23201212Y-139591682D03*
X23554765Y-139945235D03*
X23908318Y-140298788D03*
D73*
X24491682Y-140652342D03*
X24845235Y-140298788D03*
X25198788Y-139945235D03*
X25552342Y-139591682D03*
D74*
X25198788Y-139008318D03*
X24845235Y-138654765D03*
X24491682Y-138301212D03*
%TD*%
D60*
%TO.C,D3*%
X54125000Y-106700000D03*
X55425000Y-106700000D03*
X54775000Y-104700000D03*
%TD*%
D22*
%TO.C,R183*%
X42225000Y-115525000D03*
X42225000Y-114505000D03*
%TD*%
D26*
%TO.C,C134*%
X107340001Y-161990000D03*
X108359999Y-161990000D03*
%TD*%
D51*
%TO.C,C28*%
X84207500Y-149042501D03*
X84207500Y-146092499D03*
%TD*%
D62*
%TO.C,U8*%
X32110050Y-117961942D03*
X31597398Y-117449290D03*
X31491332Y-118580660D03*
X30978680Y-118068008D03*
D63*
X33100000Y-117520000D03*
X32746447Y-117166447D03*
X32392893Y-116812893D03*
X32039340Y-116459340D03*
X29988730Y-118509950D03*
X30342283Y-118863503D03*
X30695837Y-119217057D03*
X31049390Y-119570610D03*
%TD*%
D75*
%TO.C,IC2*%
X65887000Y-111842167D03*
X65887000Y-112492167D03*
X65887000Y-113142167D03*
X65887000Y-113792167D03*
X65887000Y-114442167D03*
X65887000Y-115092167D03*
X65887000Y-115742167D03*
X65887000Y-116392167D03*
X65887000Y-117042167D03*
X65887000Y-117692167D03*
X65887000Y-118342167D03*
X65887000Y-118992167D03*
X71763000Y-118992167D03*
X71763000Y-118342167D03*
X71763000Y-117692167D03*
X71763000Y-117042167D03*
X71763000Y-116392167D03*
X71763000Y-115742167D03*
X71763000Y-115092167D03*
X71763000Y-114442167D03*
X71763000Y-113792167D03*
X71763000Y-113142167D03*
X71763000Y-112492167D03*
X71763000Y-111842167D03*
%TD*%
D35*
%TO.C,C17*%
X91800000Y-109075000D03*
X91800000Y-107525000D03*
%TD*%
D11*
%TO.C,R79*%
X35976429Y-117933571D03*
X35255181Y-117212323D03*
%TD*%
D68*
%TO.C,F7*%
X23063200Y-75212400D03*
X23063200Y-72412400D03*
%TD*%
D21*
%TO.C,C125*%
X100942400Y-74488400D03*
X101902400Y-74488400D03*
%TD*%
D76*
%TO.C,C4*%
X112466811Y-59338000D03*
X112466811Y-60888000D03*
%TD*%
D33*
%TO.C,C43*%
X46039376Y-119960624D03*
X46760624Y-119239376D03*
%TD*%
D20*
%TO.C,R8*%
X64732800Y-152325300D03*
X64732800Y-153345300D03*
%TD*%
D77*
%TO.C,L5*%
X78832500Y-144159750D03*
X78832500Y-140375250D03*
%TD*%
D68*
%TO.C,F22*%
X107594400Y-75212400D03*
X107594400Y-72412400D03*
%TD*%
D26*
%TO.C,R40*%
X59865000Y-145125000D03*
X60885000Y-145125000D03*
%TD*%
D62*
%TO.C,U11*%
X34020660Y-112291282D03*
X33508008Y-111778630D03*
X33401942Y-112910000D03*
X32889290Y-112397348D03*
D63*
X35010610Y-111849340D03*
X34657057Y-111495787D03*
X34303503Y-111142233D03*
X33949950Y-110788680D03*
X31899340Y-112839290D03*
X32252893Y-113192843D03*
X32606447Y-113546397D03*
X32960000Y-113899950D03*
%TD*%
D22*
%TO.C,R63*%
X82106900Y-151777499D03*
X82106900Y-150757501D03*
%TD*%
D12*
%TO.C,C106*%
X46347400Y-92218601D03*
X44447400Y-92218601D03*
%TD*%
D56*
%TO.C,C23*%
X72670000Y-129370000D03*
X72670000Y-128410000D03*
%TD*%
D20*
%TO.C,R44*%
X88860000Y-123326662D03*
X88860000Y-124346662D03*
%TD*%
D45*
%TO.C,R126*%
X24920000Y-104330000D03*
X24920000Y-105980000D03*
%TD*%
D26*
%TO.C,R18*%
X62323333Y-111717167D03*
X63343333Y-111717167D03*
%TD*%
D20*
%TO.C,R21*%
X85150000Y-123326662D03*
X85150000Y-124346662D03*
%TD*%
%TO.C,R99*%
X106975200Y-123325862D03*
X106975200Y-124345862D03*
%TD*%
D12*
%TO.C,C95*%
X22192000Y-92217800D03*
X20292000Y-92217800D03*
%TD*%
D20*
%TO.C,R124*%
X67210000Y-139780002D03*
X67210000Y-140800000D03*
%TD*%
D31*
%TO.C,D17*%
X95276000Y-160011200D03*
X95276000Y-158911200D03*
X93446000Y-158911200D03*
X93446000Y-160011200D03*
%TD*%
D26*
%TO.C,C135*%
X102710000Y-161990000D03*
X103730000Y-161990000D03*
%TD*%
D78*
%TO.C,IC10*%
X104204600Y-132593528D03*
X104204600Y-133543528D03*
X104204600Y-134493528D03*
X107104600Y-134493528D03*
X107104600Y-133543528D03*
X107104600Y-132593528D03*
D79*
X105654600Y-133543528D03*
%TD*%
D69*
%TO.C,D4*%
X45880000Y-147360000D03*
X45880000Y-148660000D03*
X47880000Y-148010000D03*
%TD*%
D27*
%TO.C,Q5*%
X53806200Y-78841600D03*
X52606200Y-78841600D03*
X51406200Y-78841600D03*
X50206200Y-78841600D03*
D28*
X47206200Y-78841600D03*
D29*
X49606200Y-86376600D03*
%TD*%
D22*
%TO.C,R104*%
X114385200Y-124345862D03*
X114385200Y-123325862D03*
%TD*%
D33*
%TO.C,C41*%
X25359376Y-131400624D03*
X26080624Y-130679376D03*
%TD*%
D80*
%TO.C,L4*%
X70380000Y-142455000D03*
X70380000Y-140085000D03*
%TD*%
D45*
%TO.C,R136*%
X35510000Y-104320000D03*
X35510000Y-105970000D03*
%TD*%
D12*
%TO.C,C132*%
X106723200Y-92218600D03*
X104823200Y-92218600D03*
%TD*%
D30*
%TO.C,R49*%
X75000000Y-111667167D03*
X73980000Y-111667167D03*
%TD*%
D20*
%TO.C,R23*%
X87620000Y-123326662D03*
X87620000Y-124346662D03*
%TD*%
D26*
%TO.C,C139*%
X84210000Y-161990000D03*
X85230000Y-161990000D03*
%TD*%
D30*
%TO.C,R61*%
X84417499Y-150767500D03*
X83397501Y-150767500D03*
%TD*%
D81*
%TO.C,F23*%
X100200000Y-152437500D03*
X100200000Y-150562500D03*
%TD*%
D31*
%TO.C,D20*%
X62890400Y-160020000D03*
X62890400Y-158920000D03*
X61060400Y-158920000D03*
X61060400Y-160020000D03*
%TD*%
D60*
%TO.C,D37*%
X65780000Y-138730000D03*
X64480000Y-138730000D03*
X65130000Y-140730000D03*
%TD*%
D32*
%TO.C,C30*%
X81707500Y-148092499D03*
X81707500Y-146192501D03*
%TD*%
D20*
%TO.C,R22*%
X86390000Y-123326662D03*
X86390000Y-124346662D03*
%TD*%
%TO.C,R20*%
X83910000Y-123326662D03*
X83910000Y-124346662D03*
%TD*%
D12*
%TO.C,C122*%
X82593200Y-92218600D03*
X80693200Y-92218600D03*
%TD*%
D31*
%TO.C,D32*%
X107284000Y-154191200D03*
X107284000Y-155291200D03*
X109114000Y-155291200D03*
X109114000Y-154191200D03*
%TD*%
D82*
%TO.C,Y2*%
X55096117Y-127073883D03*
X56863883Y-125306117D03*
%TD*%
D20*
%TO.C,R6*%
X58535200Y-152325300D03*
X58535200Y-153345300D03*
%TD*%
D25*
%TO.C,C76*%
X25919411Y-142430589D03*
X25240589Y-143109411D03*
%TD*%
D68*
%TO.C,F9*%
X83464400Y-75212400D03*
X83464400Y-72412400D03*
%TD*%
D83*
%TO.C,D54*%
X102100000Y-136300000D03*
X102100000Y-138400000D03*
%TD*%
D62*
%TO.C,U10*%
X35900660Y-114171332D03*
X35388008Y-113658680D03*
X35281942Y-114790050D03*
X34769290Y-114277398D03*
D63*
X36890610Y-113729390D03*
X36537057Y-113375837D03*
X36183503Y-113022283D03*
X35829950Y-112668730D03*
X33779340Y-114719340D03*
X34132893Y-115072893D03*
X34486447Y-115426447D03*
X34840000Y-115780000D03*
%TD*%
D22*
%TO.C,R24*%
X90090000Y-124346662D03*
X90090000Y-123326662D03*
%TD*%
%TO.C,R199*%
X55727600Y-115241800D03*
X55727600Y-114221800D03*
%TD*%
%TO.C,R58*%
X51866800Y-105920000D03*
X51866800Y-104900000D03*
%TD*%
%TO.C,R118*%
X60414800Y-153345300D03*
X60414800Y-152325300D03*
%TD*%
D24*
%TO.C,C121*%
X87192400Y-75718400D03*
X86232400Y-75718400D03*
%TD*%
D12*
%TO.C,C111*%
X58437800Y-92218600D03*
X56537800Y-92218600D03*
%TD*%
D84*
%TO.C,C85*%
X57506832Y-123792016D03*
X58185654Y-124470838D03*
%TD*%
D31*
%TO.C,D13*%
X104513200Y-160020000D03*
X104513200Y-158920000D03*
X102683200Y-158920000D03*
X102683200Y-160020000D03*
%TD*%
D51*
%TO.C,C29*%
X73407500Y-149042501D03*
X73407500Y-146092499D03*
%TD*%
D85*
%TO.C,IC1*%
X104607600Y-142844400D03*
X104607600Y-144564400D03*
X104607600Y-146284400D03*
X104607600Y-148004400D03*
X104607600Y-149724400D03*
D86*
X110732600Y-146284400D03*
%TD*%
D87*
%TO.C,U14*%
X62820000Y-142790000D03*
X62820000Y-141840001D03*
X62820000Y-140890002D03*
X60545000Y-140890002D03*
X60545000Y-142790000D03*
%TD*%
D30*
%TO.C,R30*%
X70600000Y-123850000D03*
X69580000Y-123850000D03*
%TD*%
D68*
%TO.C,F8*%
X71374000Y-75212400D03*
X71374000Y-72412400D03*
%TD*%
D21*
%TO.C,C104*%
X52654600Y-74497200D03*
X53614600Y-74497200D03*
%TD*%
D84*
%TO.C,C74*%
X21385589Y-139660589D03*
X22064411Y-140339411D03*
%TD*%
D33*
%TO.C,R131*%
X28799376Y-114320624D03*
X29520624Y-113599376D03*
%TD*%
D66*
%TO.C,IC3*%
X108908011Y-62210400D03*
X109858011Y-62210400D03*
X110808011Y-62210400D03*
X110808011Y-59310400D03*
X109858011Y-59310400D03*
X108908011Y-59310400D03*
D67*
X109858011Y-60760400D03*
%TD*%
D31*
%TO.C,D14*%
X49022000Y-160020000D03*
X49022000Y-158920000D03*
X47192000Y-158920000D03*
X47192000Y-160020000D03*
%TD*%
D34*
%TO.C,C93*%
X40025000Y-111485000D03*
X40025000Y-112445000D03*
%TD*%
D21*
%TO.C,C67*%
X69550000Y-127290000D03*
X70510000Y-127290000D03*
%TD*%
D26*
%TO.C,R10*%
X62323333Y-114157167D03*
X63343333Y-114157167D03*
%TD*%
D22*
%TO.C,R26*%
X92560000Y-124346662D03*
X92560000Y-123326662D03*
%TD*%
D48*
%TO.C,R94*%
X103320000Y-119540000D03*
X101495000Y-119540000D03*
%TD*%
D88*
%TO.C,L3*%
X93810000Y-134780000D03*
X88310000Y-134780000D03*
%TD*%
D22*
%TO.C,R193*%
X54559200Y-115218400D03*
X54559200Y-114198400D03*
%TD*%
D89*
%TO.C,L2*%
X69930000Y-130697500D03*
X69930000Y-132822500D03*
%TD*%
D27*
%TO.C,Q10*%
X114182000Y-78841600D03*
X112982000Y-78841600D03*
X111782000Y-78841600D03*
X110582000Y-78841600D03*
D28*
X107582000Y-78841600D03*
D29*
X109982000Y-86376600D03*
%TD*%
D39*
%TO.C,Q11*%
X117650000Y-66462500D03*
X115750000Y-66462500D03*
X116700000Y-68337500D03*
%TD*%
D21*
%TO.C,C56*%
X74727500Y-143967500D03*
X75687500Y-143967500D03*
%TD*%
D90*
%TO.C,Y1*%
X50956592Y-122263405D03*
X51946541Y-121273456D03*
X51168724Y-120495639D03*
X50178775Y-121485588D03*
%TD*%
D11*
%TO.C,R81*%
X36680000Y-117230000D03*
X35958752Y-116508752D03*
%TD*%
D22*
%TO.C,R117*%
X57316000Y-153345300D03*
X57316000Y-152325300D03*
%TD*%
D91*
%TO.C,U2*%
X49403000Y-113854000D03*
X50673000Y-113854000D03*
X51943000Y-113854000D03*
X53213000Y-113854000D03*
X53213000Y-108904000D03*
X51943000Y-108904000D03*
X50673000Y-108904000D03*
X49403000Y-108904000D03*
%TD*%
D30*
%TO.C,R121*%
X84417499Y-151967500D03*
X83397501Y-151967500D03*
%TD*%
%TO.C,R185*%
X41569600Y-75747200D03*
X40549600Y-75747200D03*
%TD*%
D61*
%TO.C,R138*%
X31651248Y-111478752D03*
X30930000Y-112200000D03*
%TD*%
D45*
%TO.C,R135*%
X34010000Y-104320000D03*
X34010000Y-105970000D03*
%TD*%
D26*
%TO.C,C141*%
X74930000Y-161990000D03*
X75950000Y-161990000D03*
%TD*%
D38*
%TO.C,C10*%
X96460000Y-130689996D03*
X96460000Y-133639998D03*
%TD*%
D68*
%TO.C,F21*%
X95504000Y-75263200D03*
X95504000Y-72463200D03*
%TD*%
D92*
%TO.C,C40*%
X62147817Y-126852183D03*
X60592183Y-128407817D03*
%TD*%
D27*
%TO.C,Q7*%
X77964400Y-78841600D03*
X76764400Y-78841600D03*
X75564400Y-78841600D03*
X74364400Y-78841600D03*
D28*
X71364400Y-78841600D03*
D29*
X73764400Y-86376600D03*
%TD*%
D72*
%TO.C,D49*%
X75650000Y-122650000D03*
X75650000Y-124050000D03*
%TD*%
D30*
%TO.C,R195*%
X65719600Y-75747200D03*
X64699600Y-75747200D03*
%TD*%
D65*
%TO.C,C25*%
X69300001Y-135660000D03*
X71199999Y-135660000D03*
%TD*%
D41*
%TO.C,D25*%
X33975000Y-107375000D03*
X33975000Y-108025000D03*
X33975000Y-108675000D03*
D42*
X35935000Y-108675000D03*
X35935000Y-108025000D03*
X35935000Y-107375000D03*
%TD*%
D52*
%TO.C,F18*%
X108850000Y-132301028D03*
X108850000Y-134176030D03*
%TD*%
D27*
%TO.C,Q3*%
X29650800Y-78840800D03*
X28450800Y-78840800D03*
X27250800Y-78840800D03*
X26050800Y-78840800D03*
D28*
X23050800Y-78840800D03*
D29*
X25450800Y-86375800D03*
%TD*%
D93*
%TO.C,F1*%
X78439999Y-132970000D03*
X75640001Y-132970000D03*
%TD*%
D22*
%TO.C,R116*%
X54217200Y-153345300D03*
X54217200Y-152325300D03*
%TD*%
D26*
%TO.C,C142*%
X70310000Y-161990000D03*
X71330000Y-161990000D03*
%TD*%
D11*
%TO.C,R140*%
X37385624Y-112385624D03*
X36664376Y-111664376D03*
%TD*%
D31*
%TO.C,D12*%
X44399200Y-160020000D03*
X44399200Y-158920000D03*
X42569200Y-158920000D03*
X42569200Y-160020000D03*
%TD*%
D60*
%TO.C,D7*%
X56750000Y-106700000D03*
X58050000Y-106700000D03*
X57400000Y-104700000D03*
%TD*%
D20*
%TO.C,C133*%
X111020000Y-154230001D03*
X111020000Y-155249999D03*
%TD*%
D26*
%TO.C,C143*%
X65650000Y-161990000D03*
X66670000Y-161990000D03*
%TD*%
D35*
%TO.C,C14*%
X84600000Y-109075000D03*
X84600000Y-107525000D03*
%TD*%
D26*
%TO.C,C138*%
X88820000Y-161990000D03*
X89840000Y-161990000D03*
%TD*%
%TO.C,C148*%
X42590000Y-161990000D03*
X43610000Y-161990000D03*
%TD*%
D30*
%TO.C,R190*%
X53644600Y-75747200D03*
X52624600Y-75747200D03*
%TD*%
D24*
%TO.C,C126*%
X99262400Y-75728400D03*
X98302400Y-75728400D03*
%TD*%
D44*
%TO.C,U6*%
X64730000Y-151188000D03*
X66000000Y-151188000D03*
X66000000Y-146268000D03*
X64730000Y-146268000D03*
%TD*%
D65*
%TO.C,C68*%
X101440000Y-121570000D03*
X103340000Y-121570000D03*
%TD*%
D20*
%TO.C,R93*%
X109445200Y-123325862D03*
X109445200Y-124345862D03*
%TD*%
D41*
%TO.C,IC12*%
X46823809Y-152882000D03*
X46823809Y-153532000D03*
X46823809Y-154182000D03*
D42*
X48783809Y-154182000D03*
X48783809Y-153532000D03*
X48783809Y-152882000D03*
%TD*%
D24*
%TO.C,C94*%
X26830000Y-75740000D03*
X25870000Y-75740000D03*
%TD*%
D30*
%TO.C,R52*%
X75003333Y-117827167D03*
X73983333Y-117827167D03*
%TD*%
D94*
%TO.C,FB1*%
X83680000Y-134220000D03*
X81555000Y-134220000D03*
%TD*%
D68*
%TO.C,F5*%
X47244000Y-75212400D03*
X47244000Y-72412400D03*
%TD*%
D26*
%TO.C,R31*%
X93330000Y-119880000D03*
X94350000Y-119880000D03*
%TD*%
D68*
%TO.C,F6*%
X59283600Y-75212400D03*
X59283600Y-72412400D03*
%TD*%
D95*
%TO.C,C27*%
X74270000Y-153560000D03*
X68670000Y-153560000D03*
%TD*%
D30*
%TO.C,R114*%
X94340000Y-121100000D03*
X93320000Y-121100000D03*
%TD*%
D26*
%TO.C,C145*%
X56430000Y-161990000D03*
X57450000Y-161990000D03*
%TD*%
D50*
%TO.C,C53*%
X50219376Y-124539376D03*
X50940624Y-125260624D03*
%TD*%
D35*
%TO.C,C71*%
X107933400Y-109097800D03*
X107933400Y-107547800D03*
%TD*%
D44*
%TO.C,U1*%
X55430000Y-151188000D03*
X56700000Y-151188000D03*
X56700000Y-146268000D03*
X55430000Y-146268000D03*
%TD*%
D35*
%TO.C,C15*%
X87300000Y-109075000D03*
X87300000Y-107525000D03*
%TD*%
D30*
%TO.C,R92*%
X75003333Y-115387167D03*
X73983333Y-115387167D03*
%TD*%
D81*
%TO.C,D34*%
X86200000Y-139800000D03*
X86200000Y-137924998D03*
%TD*%
D57*
%TO.C,F19*%
X114109117Y-57573000D03*
X115984117Y-57573000D03*
%TD*%
D26*
%TO.C,R39*%
X56715000Y-145125000D03*
X57735000Y-145125000D03*
%TD*%
D91*
%TO.C,U3*%
X43688000Y-113854000D03*
X44958000Y-113854000D03*
X46228000Y-113854000D03*
X47498000Y-113854000D03*
X47498000Y-108904000D03*
X46228000Y-108904000D03*
X44958000Y-108904000D03*
X43688000Y-108904000D03*
%TD*%
D31*
%TO.C,D31*%
X76758800Y-160020000D03*
X76758800Y-158920000D03*
X74928800Y-158920000D03*
X74928800Y-160020000D03*
%TD*%
D41*
%TO.C,D23*%
X26415000Y-107375000D03*
X26415000Y-108025000D03*
X26415000Y-108675000D03*
D42*
X28375000Y-108675000D03*
X28375000Y-108025000D03*
X28375000Y-107375000D03*
%TD*%
D22*
%TO.C,R188*%
X42340000Y-112910000D03*
X42340000Y-111890000D03*
%TD*%
D81*
%TO.C,D35*%
X112000000Y-136300000D03*
X112000000Y-134424998D03*
%TD*%
D20*
%TO.C,R180*%
X26595287Y-152802400D03*
X26595287Y-153822400D03*
%TD*%
D51*
%TO.C,C12*%
X98878400Y-138629999D03*
X98878400Y-135679997D03*
%TD*%
D44*
%TO.C,U5*%
X61630000Y-151188000D03*
X62900000Y-151188000D03*
X62900000Y-146268000D03*
X61630000Y-146268000D03*
%TD*%
D45*
%TO.C,R130*%
X27920000Y-104330000D03*
X27920000Y-105980000D03*
%TD*%
D20*
%TO.C,R95*%
X103255200Y-123325862D03*
X103255200Y-124345862D03*
%TD*%
D12*
%TO.C,C90*%
X116205617Y-64000000D03*
X114305617Y-64000000D03*
%TD*%
D11*
%TO.C,R85*%
X38090678Y-115819322D03*
X37369430Y-115098074D03*
%TD*%
D12*
%TO.C,C117*%
X70505600Y-92218600D03*
X68605600Y-92218600D03*
%TD*%
D96*
%TO.C,Q2*%
X96750000Y-152670000D03*
X98050000Y-152670000D03*
X97400000Y-150770000D03*
%TD*%
D97*
%TO.C,C107*%
X52549411Y-124409411D03*
X51870589Y-123730589D03*
%TD*%
D26*
%TO.C,C147*%
X47190000Y-161990000D03*
X48210000Y-161990000D03*
%TD*%
%TO.C,C140*%
X79590000Y-161990000D03*
X80610000Y-161990000D03*
%TD*%
D57*
%TO.C,F2*%
X108811511Y-57573000D03*
X110686511Y-57573000D03*
%TD*%
D26*
%TO.C,R120*%
X79997501Y-150767500D03*
X81017499Y-150767500D03*
%TD*%
D61*
%TO.C,R128*%
X27870624Y-115249376D03*
X27149376Y-115970624D03*
%TD*%
D21*
%TO.C,C109*%
X64729600Y-74497200D03*
X65689600Y-74497200D03*
%TD*%
D36*
%TO.C,IC16*%
X105204889Y-119584455D03*
X105854889Y-119584455D03*
X106504889Y-119584455D03*
X107154889Y-119584455D03*
X107804889Y-119584455D03*
X108454889Y-119584455D03*
X109104889Y-119584455D03*
X109754889Y-119584455D03*
X110404889Y-119584455D03*
X111054889Y-119584455D03*
X111704889Y-119584455D03*
X112354889Y-119584455D03*
X112354889Y-114160455D03*
X111704889Y-114160455D03*
X111054889Y-114160455D03*
X110404889Y-114160455D03*
X109754889Y-114160455D03*
X109104889Y-114160455D03*
X108454889Y-114160455D03*
X107804889Y-114160455D03*
X107154889Y-114160455D03*
X106504889Y-114160455D03*
X105854889Y-114160455D03*
X105204889Y-114160455D03*
D37*
X108779889Y-116872455D03*
%TD*%
D26*
%TO.C,C150*%
X20190001Y-113020000D03*
X21209999Y-113020000D03*
%TD*%
D34*
%TO.C,C60*%
X78382500Y-150871500D03*
X78382500Y-151831500D03*
%TD*%
D21*
%TO.C,C120*%
X88872400Y-74478400D03*
X89832400Y-74478400D03*
%TD*%
%TO.C,C57*%
X80037500Y-153007501D03*
X80997500Y-153007501D03*
%TD*%
D97*
%TO.C,C84*%
X54350000Y-128510000D03*
X53671178Y-127831178D03*
%TD*%
D11*
%TO.C,R70*%
X33864706Y-120062466D03*
X33143458Y-119341218D03*
%TD*%
D31*
%TO.C,D22*%
X67487800Y-160020000D03*
X67487800Y-158920000D03*
X65657800Y-158920000D03*
X65657800Y-160020000D03*
%TD*%
%TO.C,D11*%
X109119000Y-160020000D03*
X109119000Y-158920000D03*
X107289000Y-158920000D03*
X107289000Y-160020000D03*
%TD*%
D20*
%TO.C,R57*%
X50580000Y-153030000D03*
X50580000Y-154050000D03*
%TD*%
D45*
%TO.C,R125*%
X23420000Y-104330000D03*
X23420000Y-105980000D03*
%TD*%
D65*
%TO.C,C101*%
X32357000Y-92217800D03*
X34257000Y-92217800D03*
%TD*%
D87*
%TO.C,U13*%
X57750000Y-122029999D03*
X57750000Y-121080000D03*
X57750000Y-120130001D03*
X55475000Y-120130001D03*
X55475000Y-122029999D03*
%TD*%
D21*
%TO.C,C18*%
X69580000Y-124960000D03*
X70540000Y-124960000D03*
%TD*%
D65*
%TO.C,C26*%
X69310001Y-137890000D03*
X71209999Y-137890000D03*
%TD*%
D27*
%TO.C,Q9*%
X102117000Y-78840800D03*
X100917000Y-78840800D03*
X99717000Y-78840800D03*
X98517000Y-78840800D03*
D28*
X95517000Y-78840800D03*
D29*
X97917000Y-86375800D03*
%TD*%
D98*
%TO.C,D53*%
X102160000Y-144680000D03*
X100060000Y-144680000D03*
%TD*%
D25*
%TO.C,C79*%
X37879411Y-147780589D03*
X37200589Y-148459411D03*
%TD*%
D76*
%TO.C,C92*%
X117764417Y-59338000D03*
X117764417Y-60888000D03*
%TD*%
D20*
%TO.C,R141*%
X67200000Y-141930001D03*
X67200000Y-142949999D03*
%TD*%
D33*
%TO.C,C47*%
X45211778Y-119125197D03*
X45933026Y-118403949D03*
%TD*%
D78*
%TO.C,IC17*%
X50038200Y-106210800D03*
X50038200Y-105710800D03*
X50038200Y-105210800D03*
X50038200Y-104710800D03*
X46888200Y-104710800D03*
X46888200Y-105210800D03*
X46888200Y-105710800D03*
X46888200Y-106210800D03*
%TD*%
D22*
%TO.C,R27*%
X93800000Y-124346662D03*
X93800000Y-123326662D03*
%TD*%
D61*
%TO.C,R55*%
X53970624Y-138199376D03*
X53249376Y-138920624D03*
%TD*%
D22*
%TO.C,C66*%
X20580000Y-125149999D03*
X20580000Y-124130001D03*
%TD*%
D61*
%TO.C,C45*%
X48330624Y-143879376D03*
X47609376Y-144600624D03*
%TD*%
D22*
%TO.C,R198*%
X41025000Y-112450000D03*
X41025000Y-111430000D03*
%TD*%
D30*
%TO.C,R64*%
X81027499Y-151867501D03*
X80007501Y-151867501D03*
%TD*%
%TO.C,R89*%
X75003333Y-114147167D03*
X73983333Y-114147167D03*
%TD*%
M02*
