M48
; DRILL file {KiCad 8.0.7} date 2025-04-29T20:30:12+0200
; FORMAT={-:-/ absolute / inch / decimal}
; #@! TF.CreationDate,2025-04-29T20:30:12+02:00
; #@! TF.GenerationSoftware,Kicad,Pcbnew,8.0.7
; #@! TF.FileFunction,Plated,1,4,PTH
FMAT,2
INCH
; #@! TA.AperFunction,Plated,PTH,ViaDrill
T1C0.0118
; #@! TA.AperFunction,Plated,PTH,ViaDrill
T2C0.0130
; #@! TA.AperFunction,Plated,PTH,ViaDrill
T3C0.0150
; #@! TA.AperFunction,Plated,PTH,ViaDrill
T4C0.0157
; #@! TA.AperFunction,Plated,PTH,ComponentDrill
T5C0.0177
; #@! TA.AperFunction,Plated,PTH,ComponentDrill
T6C0.0197
; #@! TA.AperFunction,Plated,PTH,ViaDrill
T7C0.0236
; #@! TA.AperFunction,Plated,PTH,ComponentDrill
T8C0.0315
; #@! TA.AperFunction,Plated,PTH,ComponentDrill
T9C0.0394
; #@! TA.AperFunction,Plated,PTH,ComponentDrill
T10C0.0472
; #@! TA.AperFunction,Plated,PTH,ComponentDrill
T11C0.0581
; #@! TA.AperFunction,Plated,PTH,ComponentDrill
T12C0.0591
; #@! TA.AperFunction,Plated,PTH,ComponentDrill
T13C0.1260
; #@! TA.AperFunction,Plated,PTH,ComponentDrill
T14C0.1339
%
G90
G05
T1
X0.7333Y-2.2652
X0.7333Y-4.155
X0.7333Y-4.2337
X0.7333Y-4.3124
X0.7333Y-4.3912
X0.7333Y-4.4699
X0.7333Y-4.6274
X0.7333Y-4.7061
X0.7333Y-4.7849
X0.7333Y-4.8636
X0.7333Y-4.9424
X0.7333Y-5.0211
X0.7333Y-5.0998
X0.7333Y-5.1786
X0.7333Y-5.2573
X0.7333Y-5.3361
X0.7333Y-5.4148
X0.7333Y-5.4935
X0.7333Y-5.5723
X0.7333Y-5.651
X0.7333Y-5.7298
X0.7333Y-5.8872
X0.7333Y-5.966
X0.7333Y-6.0447
X0.7549Y-4.5417
X0.7684Y-3.6306
X0.8035Y-4.4894
X0.8102Y-4.8638
X0.8102Y-4.9504
X0.812Y-2.2652
X0.812Y-4.155
X0.812Y-4.7849
X0.812Y-5.0211
X0.812Y-5.2573
X0.812Y-5.3361
X0.812Y-5.4148
X0.812Y-5.651
X0.812Y-5.7298
X0.812Y-5.8872
X0.812Y-5.966
X0.812Y-6.0447
X0.8272Y-5.4827
X0.8358Y-4.475
X0.847Y-4.5835
X0.8486Y-4.663
X0.8493Y-4.6228
X0.85Y-5.5409
X0.87Y-4.72
X0.8908Y-2.2652
X0.8908Y-4.4699
X0.8908Y-5.0211
X0.8908Y-5.0998
X0.8908Y-5.1786
X0.8908Y-5.2573
X0.8908Y-5.3361
X0.8908Y-5.651
X0.8908Y-5.7298
X0.8908Y-5.8872
X0.8908Y-5.966
X0.8908Y-6.0447
X0.8998Y-5.441
X0.9059Y-5.5311
X0.9137Y-5.4251
X0.9217Y-5.5472
X0.926Y-4.0789
X0.936Y-4.7776
X0.9433Y-5.3969
X0.948Y-5.6177
X0.9559Y-5.1543
X0.9695Y-2.029
X0.9695Y-2.1077
X0.9695Y-2.1865
X0.9695Y-2.2652
X0.9695Y-5.2573
X0.9695Y-6.3597
X0.9783Y-5.6504
X0.9793Y-4.6275
X0.9793Y-4.862
X0.9804Y-4.5823
X0.9812Y-5.4238
X0.9816Y-4.5429
X0.9824Y-4.6657
X0.9827Y-5.1882
X0.9854Y-4.0704
X0.9937Y-3.2071
X1.0024Y-5.5634
X1.0118Y-5.0969
X1.0138Y-4.4043
X1.0244Y-3.1709
X1.0335Y-5.5937
X1.0398Y-5.1276
X1.0441Y-4.0789
X1.0482Y-2.029
X1.0482Y-2.1077
X1.0482Y-2.1865
X1.0482Y-2.2652
X1.0482Y-4.4699
X1.0482Y-5.2573
X1.0482Y-5.8872
X1.0564Y-4.5931
X1.0575Y-2.9559
X1.0589Y-5.3903
X1.0602Y-6.1875
X1.0619Y-5.0185
X1.0689Y-6.263
X1.0854Y-6.1894
X1.0866Y-6.1468
X1.088Y-5.3873
X1.0937Y-5.0223
X1.098Y-4.5157
X1.1022Y-4.074
X1.1093Y-4.8415
X1.11Y-4.37
X1.1122Y-4.5
X1.1142Y-4.5433
X1.1171Y-4.8858
X1.1173Y-5.66
X1.1201Y-3.1673
X1.1264Y-4.5236
X1.127Y-2.029
X1.127Y-2.1077
X1.127Y-2.1865
X1.127Y-2.2652
X1.127Y-5.966
X1.1283Y-5.274
X1.13Y-6.0744
X1.1353Y-4.41
X1.1377Y-6.2993
X1.14Y-4.94
X1.145Y-4.6666
X1.1484Y-5.4508
X1.15Y-6.165
X1.1539Y-5.3028
X1.1542Y-3.2331
X1.1555Y-6.0779
X1.159Y-5.0269
X1.1615Y-5.1783
X1.1619Y-4.4404
X1.1685Y-4.6445
X1.1718Y-4.7067
X1.1803Y-4.5063
X1.1846Y-2.9831
X1.188Y-6.165
X1.1889Y-5.2122
X1.1957Y-5.3248
X1.205Y-6.285
X1.2057Y-2.2652
X1.2079Y-5.9988
X1.215Y-5.2437
X1.221Y-6.18
X1.2235Y-4.4488
X1.2276Y-4.5871
X1.2317Y-4.8772
X1.2319Y-4.7135
X1.2337Y-4.9741
X1.2346Y-4.9427
X1.2365Y-4.7711
X1.2421Y-6.2911
X1.2447Y-4.5655
X1.2545Y-5.4019
X1.2567Y-6.0782
X1.2567Y-5.0976
X1.2573Y-4.0697
X1.2583Y-5.365
X1.2591Y-4.376
X1.2606Y-5.1358
X1.2621Y-4.9254
X1.2643Y-4.8766
X1.27Y-6.1697
X1.2721Y-4.7599
X1.2733Y-4.4724
X1.2759Y-4.5636
X1.278Y-4.6854
X1.2784Y-5.4267
X1.284Y-6.075
X1.2845Y-2.2652
X1.2858Y-5.0732
X1.2863Y-6.3111
X1.2873Y-4.8551
X1.2932Y-6.1846
X1.3062Y-4.6565
X1.3123Y-4.4938
X1.313Y-4.3622
X1.3175Y-4.0689
X1.3177Y-5.4209
X1.3205Y-5.0764
X1.3207Y-6.2873
X1.3213Y-4.5539
X1.3217Y-6.1922
X1.3242Y-5.4681
X1.3375Y-6.2427
X1.3396Y-4.7701
X1.3539Y-3.5898
X1.355Y-5.5013
X1.36Y-4.7454
X1.3632Y-5.1786
X1.3632Y-5.3361
X1.3652Y-4.4374
X1.3694Y-4.0679
X1.372Y-4.8327
X1.3766Y-4.5711
X1.3857Y-4.7207
X1.3896Y-4.4207
X1.3988Y-4.9543
X1.4039Y-4.9937
X1.4065Y-4.5553
X1.4067Y-5.5091
X1.4087Y-4.3839
X1.4094Y-5.5504
X1.4133Y-4.6944
X1.42Y-6.28
X1.4213Y-4.0699
X1.4219Y-4.4195
X1.422Y-4.9303
X1.4261Y-3.2351
X1.4319Y-5.211
X1.4339Y-5.581
X1.4379Y-4.5185
X1.4382Y-5.7748
X1.4399Y-4.6644
X1.4419Y-2.029
X1.4419Y-2.1077
X1.4419Y-5.0998
X1.4419Y-5.3361
X1.4419Y-5.4148
X1.4419Y-6.3597
X1.4491Y-5.8282
X1.4602Y-4.9378
X1.4646Y-4.6378
X1.4661Y-5.752
X1.4681Y-5.5736
X1.4823Y-4.4518
X1.4835Y-5.8673
X1.4897Y-3.1876
X1.4911Y-4.6132
X1.4935Y-4.508
X1.5084Y-5.7906
X1.5154Y-4.0012
X1.5161Y-3.1673
X1.5167Y-4.5886
X1.5201Y-5.627
X1.5207Y-2.029
X1.5207Y-4.155
X1.5207Y-4.2337
X1.5207Y-5.0998
X1.5207Y-5.2573
X1.5207Y-5.3361
X1.5207Y-5.4148
X1.5207Y-5.4935
X1.5207Y-5.5723
X1.5276Y-5.8155
X1.5327Y-2.9558
X1.5496Y-3.8933
X1.5548Y-5.8315
X1.5555Y-6.3772
X1.5602Y-4.2941
X1.5603Y-5.7074
X1.5634Y-6.2272
X1.5673Y-4.5829
X1.5747Y-4.7717
X1.5794Y-4.3665
X1.5811Y-4.8075
X1.583Y-5.7293
X1.5858Y-5.8157
X1.5931Y-4.2325
X1.5945Y-3.0374
X1.5984Y-4.3287
X1.5992Y-5.8906
X1.5994Y-4.8636
X1.5994Y-4.9424
X1.5994Y-5.1786
X1.5994Y-5.2573
X1.5994Y-5.3361
X1.5994Y-5.4148
X1.5994Y-5.4935
X1.6063Y-4.7482
X1.607Y-5.5675
X1.6102Y-2.1693
X1.6159Y-4.1043
X1.6187Y-4.4636
X1.6378Y-4.7496
X1.6406Y-4.3038
X1.6482Y-3.5769
X1.6508Y-5.8886
X1.6527Y-4.2311
X1.6598Y-2.983
X1.6673Y-4.3256
X1.6704Y-4.1063
X1.6747Y-4.4651
X1.6754Y-4.1752
X1.6782Y-6.2022
X1.6862Y-5.0591
X1.6878Y-4.8756
X1.689Y-2.1693
X1.691Y-3.2501
X1.6917Y-3.2829
X1.697Y-4.0598
X1.6972Y-4.4079
X1.7008Y-4.7835
X1.7051Y-4.9563
X1.7104Y-3.2307
X1.7106Y-4.2419
X1.7154Y-4.3744
X1.7244Y-4.8071
X1.7323Y-4.5295
X1.7398Y-6.378
X1.7413Y-5.6674
X1.7476Y-6.2295
X1.7537Y-5.6428
X1.7561Y-5.4222
X1.7569Y-4.6394
X1.7569Y-5.1786
X1.7569Y-5.2573
X1.7569Y-5.3361
X1.7569Y-5.5723
X1.7575Y-4.389
X1.7614Y-5.0016
X1.7635Y-4.902
X1.7713Y-3.5984
X1.7719Y-6.0687
X1.772Y-4.196
X1.7724Y-4.5358
X1.7768Y-5.8311
X1.7949Y-4.074
X1.7952Y-5.7674
X1.7982Y-4.3504
X1.8053Y-6.0326
X1.8107Y-4.1494
X1.824Y-5.4949
X1.8254Y-4.4285
X1.8255Y-4.6445
X1.8294Y-4.3462
X1.8315Y-5.8531
X1.8319Y-5.8013
X1.8356Y-5.3361
X1.8356Y-6.2022
X1.8386Y-5.1966
X1.85Y-4.205
X1.8504Y-4.672
X1.8663Y-5.102
X1.875Y-4.555
X1.8819Y-6.0295
X1.8837Y-4.2285
X1.8877Y-5.7068
X1.8921Y-5.7969
X1.9059Y-4.1165
X1.9096Y-5.6286
X1.9105Y-5.1395
X1.9145Y-4.2219
X1.915Y-5.8346
X1.9185Y-5.697
X1.9209Y-6.3783
X1.9307Y-6.2295
X1.9392Y-4.2011
X1.9448Y-5.3745
X1.9489Y-5.8114
X1.9497Y-4.2382
X1.95Y-4.56
X1.9514Y-4.807
X1.954Y-6.0718
X1.9541Y-6.0403
X1.957Y-6.009
X1.9591Y-5.604
X1.9697Y-4.103
X1.9749Y-5.2551
X1.9793Y-3.0374
X1.9846Y-5.5935
X1.9931Y-6.2022
X1.9931Y-6.3597
X1.9945Y-4.5358
X1.9953Y-4.8862
X2.0008Y-5.5665
X2.002Y-5.3622
X2.002Y-3.2077
X2.006Y-4.194
X2.0081Y-2.9558
X2.0197Y-4.0811
X2.0232Y-4.9146
X2.0244Y-6.063
X2.0277Y-3.1672
X2.0302Y-3.2018
X2.0357Y-5.124
X2.0368Y-5.1615
X2.0421Y-4.852
X2.044Y-4.19
X2.0462Y-5.196
X2.0493Y-5.3257
X2.0559Y-5.2308
X2.063Y-5.5106
X2.065Y-5.9685
X2.0735Y-5.4809
X2.074Y-4.7575
X2.0784Y-6.0232
X2.0815Y-4.8157
X2.0935Y-5.8598
X2.0937Y-5.7996
X2.095Y-4.542
X2.0969Y-5.9947
X2.098Y-5.5248
X2.1031Y-6.378
X2.106Y-4.6651
X2.1098Y-4.4004
X2.1134Y-6.2291
X2.1154Y-5.7677
X2.1246Y-5.014
X2.1309Y-4.3758
X2.1343Y-5.976
X2.1344Y-2.9822
X2.1389Y-4.5559
X2.1429Y-4.7089
X2.1687Y-4.8479
X2.1701Y-5.3913
X2.1718Y-6.0624
X2.1756Y-5.4366
X2.1805Y-4.7829
X2.1855Y-4.5555
X2.1858Y-5.7885
X2.1898Y-4.6451
X2.19Y-5.72
X2.1965Y-5.2205
X2.2004Y-4.6748
X2.2011Y-4.8541
X2.2031Y-5.8539
X2.2195Y-4.5675
X2.2232Y-4.7063
X2.2261Y-5.9741
X2.2293Y-2.029
X2.2293Y-6.2022
X2.2313Y-4.1749
X2.2324Y-5.3322
X2.2339Y-5.7881
X2.2367Y-3.5904
X2.2374Y-4.7674
X2.2409Y-4.378
X2.2504Y-5.185
X2.2524Y-4.5803
X2.2524Y-4.6363
X2.2546Y-4.05
X2.2547Y-5.2189
X2.2576Y-5.9763
X2.2596Y-4.0811
X2.2751Y-4.1086
X2.2831Y-4.281
X2.2854Y-6.3772
X2.2859Y-4.2517
X2.287Y-4.2222
X2.2926Y-6.0629
X2.2956Y-6.2295
X2.2962Y-4.7157
X2.2986Y-5.7136
X2.3022Y-5.6742
X2.3077Y-4.9156
X2.3081Y-2.029
X2.3081Y-2.2652
X2.3085Y-5.7881
X2.3253Y-4.1936
X2.3272Y-5.6453
X2.3293Y-5.8554
X2.3467Y-5.9716
X2.3469Y-5.5819
X2.3505Y-5.5526
X2.352Y-5.2587
X2.3535Y-5.7871
X2.355Y-4.2095
X2.3587Y-5.6925
X2.3622Y-3.7422
X2.3729Y-4.496
X2.3776Y-5.9785
X2.3777Y-4.5323
X2.3783Y-4.8478
X2.3834Y-4.8207
X2.3868Y-2.029
X2.3868Y-2.1077
X2.3868Y-2.1865
X2.3868Y-6.2022
X2.387Y-2.2657
X2.387Y-2.3445
X2.387Y-2.4232
X2.4105Y-4.8157
X2.4209Y-5.7142
X2.4213Y-6.0575
X2.4236Y-4.7914
X2.4245Y-4.6259
X2.4247Y-5.2699
X2.4258Y-4.76
X2.4275Y-5.235
X2.4299Y-5.1843
X2.4315Y-5.7911
X2.45Y-5.148
X2.4594Y-6.1343
X2.4654Y-5.0693
X2.4656Y-2.2652
X2.4657Y-2.3445
X2.4657Y-2.4232
X2.4673Y-6.3772
X2.469Y-4.9032
X2.4712Y-5.9782
X2.472Y-5.4577
X2.4725Y-5.7911
X2.4748Y-5.8768
X2.4764Y-5.6878
X2.4779Y-6.2283
X2.4781Y-5.2246
X2.4783Y-4.9723
X2.4783Y-5.2699
X2.4834Y-2.9558
X2.4867Y-4.8821
X2.4893Y-3.5993
X2.4998Y-4.6731
X2.5004Y-3.1689
X2.5006Y-5.4612
X2.5025Y-5.9755
X2.5087Y-5.5768
X2.5166Y-4.8767
X2.5181Y-5.6047
X2.5187Y-4.4165
X2.5203Y-4.8483
X2.5225Y-4.5685
X2.5242Y-4.6061
X2.5252Y-4.4621
X2.5256Y-4.3802
X2.5264Y-4.5015
X2.5268Y-4.5373
X2.5378Y-2.4638
X2.5402Y-5.4878
X2.5406Y-6.0571
X2.5423Y-5.7136
X2.5443Y-2.2652
X2.5443Y-5.8872
X2.5443Y-6.2022
X2.5443Y-6.3597
X2.5445Y-2.3445
X2.5445Y-2.4232
X2.5472Y-3.1705
X2.5531Y-5.7894
X2.56Y-5.66
X2.5863Y-5.4886
X2.5866Y-4.3747
X2.5904Y-4.3277
X2.598Y-5.9732
X2.6004Y-5.7933
X2.6024Y-5.6937
X2.6059Y-5.4283
X2.6065Y-4.7581
X2.6106Y-2.983
X2.623Y-2.2652
X2.6232Y-2.3445
X2.6232Y-2.4232
X2.6325Y-4.8991
X2.6358Y-5.0551
X2.6378Y-4.3711
X2.639Y-4.6846
X2.6455Y-3.48
X2.648Y-6.3772
X2.6488Y-6.1339
X2.6533Y-5.3808
X2.6598Y-6.2287
X2.661Y-5.9217
X2.6614Y-3.2425
X2.6624Y-5.7136
X2.6634Y-5.0755
X2.6654Y-4.435
X2.6665Y-4.6283
X2.6693Y-4.6951
X2.6713Y-5.5031
X2.6744Y-2.4445
X2.6827Y-5.8181
X2.6835Y-5.763
X2.6843Y-3.2641
X2.6959Y-4.3455
X2.6996Y-3.5909
X2.7018Y-2.029
X2.7018Y-2.1077
X2.7018Y-2.1865
X2.7018Y-2.2652
X2.7018Y-4.8636
X2.7018Y-5.8872
X2.7018Y-6.3597
X2.702Y-2.3445
X2.7043Y-4.9224
X2.7098Y-4.963
X2.7173Y-4.628
X2.7303Y-4.7423
X2.7393Y-4.2962
X2.7445Y-4.461
X2.747Y-4.4065
X2.7488Y-4.826
X2.7524Y-2.9439
X2.7531Y-4.7177
X2.7634Y-4.7671
X2.7756Y-4.6335
X2.7805Y-2.029
X2.7805Y-2.1077
X2.7805Y-2.1865
X2.7805Y-2.2652
X2.7921Y-4.3516
X2.7997Y-4.7657
X2.8028Y-4.9197
X2.8035Y-5.0114
X2.8311Y-6.3772
X2.8424Y-6.2291
X2.8543Y-4.8256
X2.8563Y-4.8768
X2.8593Y-2.029
X2.8593Y-2.1077
X2.8593Y-2.1865
X2.8593Y-2.2652
X2.874Y-4.3516
X2.8789Y-4.3896
X2.8798Y-4.4999
X2.8802Y-4.5357
X2.881Y-4.657
X2.8823Y-4.948
X2.8827Y-4.5689
X2.8835Y-4.9996
X2.884Y-4.4687
X2.8919Y-4.4183
X2.8937Y-4.6205
X2.924Y-3.1693
X2.938Y-2.029
X2.938Y-2.1077
X2.938Y-2.1865
X2.938Y-2.2652
X2.938Y-4.7849
X2.9588Y-2.9554
X2.9677Y-3.1642
X2.9677Y-5.0717
X2.9758Y-3.2172
X2.9787Y-4.9098
X2.9832Y-4.4015
X2.9891Y-5.0242
X3.0013Y-4.3687
X3.0042Y-4.9283
X3.0126Y-6.3776
X3.0134Y-4.828
X3.0156Y-5.4566
X3.0156Y-5.4946
X3.0166Y-5.5906
X3.0167Y-2.029
X3.0167Y-2.1077
X3.0167Y-2.1865
X3.0167Y-2.2652
X3.0189Y-4.7535
X3.0232Y-3.2192
X3.0244Y-6.2291
X3.0272Y-4.5752
X3.0283Y-4.3331
X3.0291Y-5.0709
X3.0409Y-5.7501
X3.0416Y-6.0056
X3.0446Y-5.5306
X3.0449Y-4.3949
X3.0461Y-5.4936
X3.0476Y-5.4566
X3.0506Y-5.5906
X3.0654Y-4.5807
X3.0781Y-5.9107
X3.0839Y-4.3642
X3.0846Y-5.5906
X3.0955Y-2.029
X3.0955Y-2.1077
X3.0955Y-2.1865
X3.0955Y-2.2652
X3.0955Y-6.2022
X3.0955Y-6.3597
X3.1186Y-5.5906
X3.1193Y-4.7744
X3.122Y-4.8803
X3.1526Y-5.5906
X3.1549Y-2.884
X3.156Y-4.9364
X3.1596Y-5.4566
X3.1611Y-5.4936
X3.1626Y-5.5306
X3.1659Y-5.7501
X3.1673Y-4.8803
X3.1711Y-4.964
X3.1742Y-2.029
X3.1742Y-2.1077
X3.1742Y-2.1865
X3.1742Y-2.2652
X3.1742Y-5.651
X3.1866Y-5.5906
X3.1916Y-5.4566
X3.1916Y-5.4946
X3.1972Y-6.3776
X3.2011Y-5.9474
X3.2031Y-3.6047
X3.2067Y-6.2287
X3.2213Y-6.0008
X3.2307Y-6.0681
X3.2322Y-4.9417
X3.2528Y-5.9472
X3.253Y-2.029
X3.253Y-2.1077
X3.253Y-2.1865
X3.253Y-2.2652
X3.253Y-5.1786
X3.253Y-6.3597
X3.274Y-5.1374
X3.3035Y-4.9165
X3.3317Y-2.029
X3.3317Y-2.1077
X3.3317Y-2.1865
X3.3317Y-6.2022
X3.332Y-6.1414
X3.3346Y-5.4803
X3.3492Y-5.983
X3.3524Y-4.9185
X3.3571Y-5.378
X3.3783Y-6.3772
X3.3803Y-6.1953
X3.3894Y-6.2283
X3.3937Y-5.5354
X3.3992Y-5.3787
X3.4012Y-4.9171
X3.4104Y-2.029
X3.4104Y-2.1077
X3.4104Y-6.0447
X3.4119Y-3.166
X3.4194Y-4.3546
X3.4194Y-4.39
X3.4194Y-4.4255
X3.4206Y-6.22
X3.4509Y-4.3533
X3.4509Y-4.3888
X3.4509Y-4.4242
X3.4892Y-2.029
X3.4892Y-2.1077
X3.4892Y-5.4148
X3.4892Y-5.4935
X3.4892Y-5.5723
X3.4892Y-5.651
X3.4892Y-5.7298
X3.4892Y-5.8085
X3.4892Y-5.8872
X3.4892Y-5.966
X3.4892Y-6.0447
X3.4914Y-4.3543
X3.4914Y-4.3898
X3.4914Y-4.4252
X3.4965Y-4.9185
X3.5083Y-5.1016
X3.5091Y-5.0539
X3.5229Y-4.3546
X3.5229Y-4.3901
X3.5229Y-4.4255
X3.5437Y-4.9177
X3.5603Y-2.9814
X3.561Y-6.3772
X3.5679Y-2.029
X3.5679Y-2.1077
X3.5679Y-6.0447
X3.5685Y-6.2283
X3.5937Y-4.9185
X3.5988Y-5.7819
X3.6031Y-5.2433
X3.6039Y-5.3201
X3.6063Y-5.6559
X3.613Y-2.9362
X3.6382Y-4.9201
X3.6429Y-3.6724
X3.6467Y-2.029
X3.6467Y-2.1077
X3.6467Y-5.4148
X3.6467Y-5.4935
X3.6467Y-5.7298
X3.6509Y-6.1764
X3.6764Y-5.185
X3.6864Y-4.9199
X3.7091Y-4.4189
X3.7142Y-4.7949
X3.7254Y-2.029
X3.7254Y-2.1077
X3.7254Y-5.4148
X3.7254Y-5.5723
X3.7254Y-5.651
X3.7254Y-5.7298
X3.7254Y-5.966
X3.7254Y-6.0447
X3.7254Y-6.1235
X3.7394Y-4.7224
X3.7413Y-6.3772
X3.7516Y-6.2283
X3.774Y-4.1973
X3.774Y-4.2323
X3.8012Y-6.1343
X3.8033Y-3.23
X3.8041Y-2.029
X3.8041Y-2.1077
X3.8041Y-4.9424
X3.8041Y-5.5723
X3.8041Y-5.651
X3.8041Y-5.7298
X3.8041Y-5.8085
X3.8041Y-6.2022
X3.8041Y-6.3597
X3.8163Y-4.6679
X3.8248Y-4.146
X3.8412Y-4.1732
X3.8462Y-4.6689
X3.8465Y-4.9748
X3.8602Y-6.0433
X3.861Y-4.4286
X3.8666Y-3.23
X3.871Y-4.5355
X3.8829Y-2.029
X3.8829Y-2.1077
X3.8829Y-4.7849
X3.8829Y-5.5723
X3.8829Y-5.651
X3.8829Y-5.7298
X3.8829Y-5.8085
X3.8829Y-5.8872
X3.8829Y-5.966
X3.8829Y-6.1235
X3.8829Y-6.2022
X3.8909Y-4.9429
X3.8918Y-4.5147
X3.9065Y-4.4266
X3.9091Y-2.9554
X3.922Y-3.2185
X3.9244Y-6.3776
X3.9342Y-6.228
X3.9541Y-3.2151
X3.9616Y-6.1235
X3.9642Y-3.1622
X3.976Y-4.8563
X3.9835Y-3.2192
X4.0154Y-4.8983
X4.0173Y-3.2209
X4.0236Y-5.189
X4.0398Y-6.1425
X4.0404Y-6.2022
X4.0463Y-4.4154
X4.079Y-5.1722
X4.0799Y-5.5098
X4.0988Y-5.5594
X4.0993Y-5.3445
X4.0993Y-5.3811
X4.0993Y-5.4165
X4.1037Y-4.934
X4.1075Y-6.378
X4.111Y-5.1722
X4.1154Y-6.2276
X4.1273Y-3.5936
X4.1353Y-5.3445
X4.147Y-5.1722
X4.1524Y-5.5106
X4.1536Y-4.934
X4.159Y-5.2202
X4.159Y-5.2582
X4.159Y-5.2922
X4.1713Y-5.3445
X4.183Y-5.1722
X4.1874Y-5.05
X4.1978Y-2.029
X4.1978Y-2.1077
X4.1978Y-6.2022
X4.2036Y-4.934
X4.217Y-5.1722
X4.2249Y-6.1409
X4.2291Y-4.3538
X4.2291Y-4.3892
X4.2291Y-4.4246
X4.2606Y-4.3525
X4.2606Y-4.3879
X4.2606Y-4.4233
X4.2766Y-2.029
X4.2766Y-2.1077
X4.2898Y-6.378
X4.2937Y-5.5327
X4.2976Y-6.2256
X4.3011Y-4.3535
X4.3011Y-4.3889
X4.3011Y-4.4243
X4.3087Y-2.3925
X4.3087Y-3.1907
X4.3326Y-4.3538
X4.3326Y-4.3892
X4.3326Y-4.4246
X4.348Y-2.3925
X4.3495Y-3.1843
X4.3553Y-2.029
X4.3553Y-2.1077
X4.3553Y-5.4935
X4.3553Y-6.2022
X4.3553Y-6.2809
X4.3553Y-6.3597
X4.3555Y-4.9264
X4.3685Y-6.1343
X4.3713Y-3.0091
X4.3874Y-2.3925
X4.4055Y-4.9248
X4.4058Y-2.4354
X4.4275Y-2.4571
X4.4341Y-5.1786
X4.4341Y-5.4935
X4.4341Y-6.0447
X4.4472Y-2.4335
X4.4531Y-4.924
X4.4976Y-4.922
X4.5094Y-2.9835
X4.5128Y-5.0211
X4.5128Y-5.0998
X4.5128Y-5.1786
X4.5128Y-5.2573
X4.5128Y-5.3361
X4.5128Y-5.4148
X4.5128Y-5.4935
X4.5128Y-6.0447
X4.5159Y-4.7899
X4.5181Y-2.3925
X4.5575Y-2.3925
X4.5915Y-4.7849
X4.5915Y-4.8636
X4.5915Y-4.9424
X4.5915Y-5.0211
X4.5915Y-5.0998
X4.5915Y-5.1786
X4.5915Y-5.2573
X4.5915Y-5.3361
X4.5915Y-5.4148
X4.5915Y-5.4935
X4.5915Y-5.5723
X4.5915Y-5.651
X4.5915Y-5.7298
X4.5915Y-5.8085
X4.5915Y-5.8872
X4.5915Y-5.966
X4.5915Y-6.0447
X4.5969Y-2.3925
X4.6151Y-2.4354
X4.6367Y-2.4571
X4.6564Y-2.4335
X4.6634Y-2.5956
X4.6634Y-2.6216
X4.6634Y-2.6476
T2
X0.8886Y-4.2996
X0.9114Y-4.2126
X0.922Y-4.3096
X0.9831Y-4.3059
X1.0319Y-4.2096
X1.0354Y-4.3374
X1.1177Y-4.2992
X1.1677Y-4.5724
X1.1941Y-4.3362
X1.2015Y-4.209
X1.2425Y-4.6465
X1.2772Y-4.2984
X1.3177Y-4.4236
X1.3244Y-4.3358
X1.329Y-4.2115
X1.3909Y-4.4972
X1.4094Y-4.3059
X1.7224Y-2.1417
X1.8002Y-2.1407
X1.876Y-2.1407
X1.9528Y-2.1417
X2.0295Y-2.1417
X2.1063Y-2.1427
X2.1169Y-4.2268
X2.1292Y-4.4642
X2.1719Y-4.3033
X2.1831Y-2.1427
X2.2598Y-2.1427
X2.8252Y-5.0291
X2.8602Y-5.0315
X3.1192Y-4.6905
X3.1192Y-4.7205
X3.148Y-4.7346
X3.1488Y-4.6848
X3.2547Y-4.9201
X3.2768Y-4.3542
X3.2768Y-4.3896
X3.2768Y-4.4251
X3.3102Y-4.3546
X3.3102Y-4.39
X3.3102Y-4.4255
X3.3457Y-4.3546
X3.3457Y-4.39
X3.3457Y-4.4255
X3.3811Y-4.3546
X3.3811Y-4.39
X3.3811Y-4.4255
X3.5244Y-2.8992
X3.5646Y-4.3538
X3.5646Y-4.3893
X3.5646Y-4.4247
X3.598Y-4.3542
X3.598Y-4.3896
X3.598Y-4.4251
X3.6335Y-4.3542
X3.6335Y-4.3896
X3.6335Y-4.4251
X3.6689Y-4.3542
X3.6689Y-4.3896
X3.6689Y-4.4251
X3.931Y-4.6909
X3.931Y-4.7209
X3.9606Y-4.6852
X3.9606Y-4.7307
X4.0656Y-4.9279
X4.0865Y-4.3534
X4.0865Y-4.3888
X4.0865Y-4.4242
X4.12Y-4.3538
X4.12Y-4.3892
X4.12Y-4.4246
X4.1554Y-4.3538
X4.1554Y-4.3892
X4.1554Y-4.4246
X4.1908Y-4.3538
X4.1908Y-4.3892
X4.1908Y-4.4246
X4.3079Y-4.926
X4.3743Y-4.353
X4.3743Y-4.3884
X4.3743Y-4.4238
X4.4078Y-4.3534
X4.4078Y-4.3888
X4.4078Y-4.4242
X4.4432Y-4.3534
X4.4432Y-4.3888
X4.4432Y-4.4242
X4.4786Y-4.3534
X4.4786Y-4.3888
X4.4786Y-4.4242
X4.5461Y-4.72
T3
X0.7071Y-3.6256
X0.7071Y-3.7043
X0.7071Y-4.0193
X0.7075Y-2.465
X0.7087Y-2.5394
X0.7087Y-2.6181
X0.7087Y-2.6969
X0.7087Y-2.7756
X0.7087Y-2.8543
X0.7087Y-2.9331
X0.7087Y-3.002
X0.7087Y-3.0807
X0.7087Y-3.1594
X0.7087Y-3.2382
X0.7087Y-3.3169
X0.7087Y-3.3957
X0.7087Y-3.4744
X0.7087Y-3.5531
X0.7098Y-2.3894
X0.7858Y-3.7043
X0.7858Y-4.0193
X0.7863Y-2.465
X0.7874Y-2.5394
X0.7874Y-2.6181
X0.7886Y-2.3894
X0.799Y-2.7663
X0.799Y-2.845
X0.799Y-2.9238
X0.799Y-3.0025
X0.799Y-3.0813
X0.799Y-3.16
X0.8646Y-3.7043
X0.8673Y-2.3894
X0.874Y-3.782
X0.874Y-3.9406
X0.876Y-3.864
X0.8778Y-2.6876
X0.8778Y-2.7663
X0.8778Y-2.845
X0.8778Y-2.9238
X0.8778Y-3.0025
X0.8778Y-3.0813
X0.8778Y-3.16
X0.9433Y-3.6256
X0.9433Y-3.7043
X0.9433Y-3.7831
X0.9433Y-3.8618
X0.9433Y-3.9406
X0.9461Y-2.3894
X0.9565Y-2.6093
X0.9565Y-2.6876
X0.9565Y-2.7663
X0.9565Y-2.845
X0.9565Y-2.9238
X0.9565Y-3.0025
X0.9565Y-3.0813
X0.9565Y-3.16
X1.022Y-3.6256
X1.022Y-3.7043
X1.022Y-3.7831
X1.022Y-3.8618
X1.022Y-3.9406
X1.0276Y-2.9236
X1.0353Y-2.6093
X1.0353Y-2.6876
X1.0353Y-2.7663
X1.0353Y-2.845
X1.1008Y-3.6256
X1.1008Y-3.7043
X1.1008Y-3.7831
X1.1008Y-3.8618
X1.114Y-2.6093
X1.114Y-2.6876
X1.114Y-2.7663
X1.114Y-2.845
X1.1927Y-2.4518
X1.1927Y-2.5305
X1.1927Y-2.6093
X1.1927Y-2.688
X1.1929Y-2.7669
X1.1929Y-2.8457
X1.4031Y-2.9232
X1.4031Y-3.0022
X1.4031Y-3.0812
X1.4031Y-3.1602
X1.4154Y-3.7831
X1.4157Y-3.6256
X1.4157Y-3.7043
X1.4185Y-2.4265
X1.4185Y-2.4993
X1.4185Y-2.578
X1.4198Y-2.7305
X1.42Y-2.809
X1.4433Y-2.8815
X1.4575Y-3.0026
X1.4575Y-3.0816
X1.4575Y-3.1602
X1.4606Y-2.6744
X1.4933Y-3.624
X1.4941Y-3.7831
X1.4945Y-3.7043
X1.4945Y-3.8618
X1.4945Y-3.9406
X1.4973Y-2.4265
X1.4973Y-2.4993
X1.4973Y-2.578
X1.4985Y-2.7305
X1.4985Y-2.8093
X1.4985Y-2.8786
X1.5004Y-2.926
X1.5638Y-3.6248
X1.565Y-3.7051
X1.565Y-3.7839
X1.565Y-3.9413
X1.5773Y-2.7305
X1.5773Y-2.8093
X1.5773Y-2.8786
X1.6559Y-2.8091
X1.6559Y-2.8783
X1.656Y-2.7305
X1.6677Y-3.6248
X1.6677Y-3.7035
X1.6677Y-3.7823
X1.6677Y-3.861
X1.7373Y-3.1618
X1.7378Y-2.9232
X1.7378Y-3.002
X1.7378Y-3.0807
X1.7717Y-2.7524
X1.772Y-2.807
X1.772Y-2.8763
X1.7937Y-2.9232
X1.7937Y-3.002
X1.7937Y-3.0807
X1.7937Y-3.1594
X1.9039Y-3.6248
X1.9039Y-3.7035
X1.9039Y-3.7823
X1.9039Y-3.861
X1.9039Y-3.9398
X1.9039Y-4.0185
X1.9276Y-2.9232
X1.9276Y-3.002
X1.9276Y-3.0807
X1.9276Y-3.1594
X1.946Y-2.8673
X1.9626Y-2.8043
X1.9846Y-2.9232
X2.0165Y-3.6256
X2.042Y-2.7613
X2.042Y-2.84
X2.1043Y-3.6256
X2.1043Y-3.7043
X2.1043Y-3.7831
X2.1043Y-3.8618
X2.1043Y-3.9406
X2.108Y-2.7613
X2.108Y-2.84
X2.229Y-2.845
X2.229Y-2.9238
X2.229Y-3.0025
X2.229Y-3.0813
X2.23Y-3.16
X2.2323Y-2.774
X2.2567Y-3.687
X2.307Y-2.5378
X2.307Y-2.774
X2.3078Y-2.9238
X2.3078Y-3.0025
X2.3078Y-3.0813
X2.3078Y-3.16
X2.322Y-2.6016
X2.3307Y-2.7157
X2.3472Y-3.8728
X2.3472Y-3.9516
X2.3472Y-4.0303
X2.3858Y-2.5378
X2.3858Y-2.6165
X2.3858Y-2.6953
X2.3858Y-2.774
X2.3865Y-2.845
X2.3865Y-2.9238
X2.3865Y-3.0025
X2.3865Y-3.0813
X2.3865Y-3.16
X2.426Y-3.7154
X2.426Y-3.7941
X2.426Y-3.8728
X2.426Y-3.9516
X2.426Y-4.0303
X2.426Y-4.1091
X2.426Y-4.1878
X2.4567Y-2.9236
X2.4645Y-2.5378
X2.4645Y-2.6165
X2.4645Y-2.6953
X2.4645Y-2.774
X2.4653Y-2.845
X2.5047Y-3.7154
X2.5047Y-4.1878
X2.5311Y-2.8563
X2.5433Y-2.5378
X2.5433Y-2.6165
X2.5433Y-2.6953
X2.5433Y-2.774
X2.5835Y-3.6366
X2.5835Y-3.7154
X2.5835Y-4.1878
X2.6209Y-6.0449
X2.622Y-2.5378
X2.622Y-2.6165
X2.622Y-2.6953
X2.6248Y-2.7591
X2.6472Y-3.6382
X2.6512Y-5.9949
X2.6622Y-3.7154
X2.6622Y-4.1878
X2.6913Y-5.9941
X2.7078Y-2.9238
X2.7078Y-3.0025
X2.7078Y-3.0813
X2.7078Y-3.16
X2.7299Y-5.9949
X2.7409Y-3.7154
X2.7409Y-4.1878
X2.7858Y-6.1846
X2.7865Y-3.0025
X2.7865Y-3.0813
X2.7865Y-3.16
X2.8071Y-5.9839
X2.8098Y-2.5244
X2.8102Y-2.5933
X2.8122Y-2.7795
X2.813Y-2.7244
X2.8197Y-3.6366
X2.8197Y-3.7154
X2.8197Y-4.1878
X2.8342Y-5.4287
X2.8371Y-3.0228
X2.8653Y-2.845
X2.8653Y-3.0813
X2.8653Y-3.16
X2.8783Y-6.1823
X2.8811Y-2.7791
X2.8819Y-2.724
X2.8984Y-3.6366
X2.8984Y-3.7154
X2.8984Y-3.7941
X2.8984Y-3.8728
X2.8984Y-3.9516
X2.8984Y-4.0303
X2.8984Y-4.1091
X2.9237Y-2.9263
X2.924Y-2.852
X2.9705Y-6.1831
X3.0307Y-2.7602
X3.0559Y-3.6366
X3.0559Y-3.7154
X3.0559Y-3.7941
X3.0559Y-3.8728
X3.0559Y-3.9516
X3.0559Y-4.0303
X3.0559Y-4.1091
X3.0559Y-4.1878
X3.0669Y-2.7984
X3.1079Y-2.8437
X3.1346Y-3.7941
X3.1346Y-4.2665
X3.1547Y-4.0299
X3.1547Y-4.1087
X3.1728Y-2.7457
X3.1862Y-2.9264
X3.2067Y-2.7795
X3.2134Y-4.1878
X3.2134Y-4.2665
X3.2134Y-4.3453
X3.2142Y-4.4276
X3.224Y-2.9646
X3.2388Y-3.0311
X3.2388Y-3.0913
X3.2438Y-2.8172
X3.2917Y-3.165
X3.2998Y-3.0319
X3.2998Y-3.0921
X3.32Y-3.7113
X3.32Y-3.79
X3.35Y-2.73
X3.3646Y-2.9378
X3.385Y-2.77
X3.415Y-2.805
X3.45Y-2.835
X3.47Y-3.7113
X3.47Y-3.79
X3.48Y-2.87
X3.63Y-3.7113
X3.63Y-3.79
X3.6531Y-2.8091
X3.6545Y-3.0045
X3.6545Y-3.0833
X3.6545Y-3.162
X3.6555Y-2.9449
X3.7122Y-2.8091
X3.7232Y-5.8547
X3.7333Y-3.0045
X3.7333Y-3.0833
X3.7333Y-3.162
X3.7343Y-2.9449
X3.7724Y-2.8051
X3.8Y-3.64
X3.8Y-3.7113
X3.8Y-3.79
X3.812Y-3.0045
X3.812Y-3.0833
X3.812Y-3.162
X3.813Y-2.9449
X3.8273Y-2.4233
X3.8273Y-2.494
X3.8303Y-2.8091
X3.852Y-2.6919
X3.874Y-2.6484
X3.8894Y-2.8091
X3.906Y-2.4233
X3.906Y-2.494
X3.9079Y-2.6919
X3.9366Y-4.6083
X3.9374Y-4.5331
X3.9484Y-2.8091
X3.9606Y-2.6917
X3.97Y-3.64
X3.97Y-3.7113
X3.97Y-3.79
X3.972Y-2.632
X3.9764Y-2.4252
X3.978Y-2.494
X3.9984Y-4.4382
X4.0Y-4.1102
X4.0Y-4.189
X4.0Y-4.2677
X4.0Y-4.3465
X4.006Y-5.5101
X4.0063Y-2.811
X4.0154Y-4.6083
X4.0161Y-4.5331
X4.026Y-2.638
X4.0575Y-2.5071
X4.0602Y-5.7598
X4.064Y-2.676
X4.0941Y-4.6083
X4.0949Y-4.5331
X4.0984Y-6.0
X4.0992Y-2.5488
X4.112Y-2.37
X4.13Y-3.7113
X4.13Y-3.79
X4.134Y-2.75
X4.141Y-2.5906
X4.15Y-2.406
X4.1551Y-2.9406
X4.168Y-2.784
X4.1827Y-2.6323
X4.184Y-2.44
X4.1992Y-2.9894
X4.1992Y-3.047
X4.1992Y-3.1046
X4.1992Y-3.1622
X4.202Y-2.82
X4.22Y-2.476
X4.2205Y-2.2756
X4.2221Y-5.6198
X4.2221Y-5.6906
X4.2221Y-5.7615
X4.2221Y-5.8324
X4.2221Y-5.9032
X4.2243Y-2.6739
X4.2661Y-2.7157
X4.2746Y-2.8845
X4.28Y-3.7113
X4.28Y-3.79
X4.293Y-5.6198
X4.293Y-5.6906
X4.293Y-5.7615
X4.293Y-5.8324
X4.293Y-5.9032
X4.3078Y-2.7575
X4.309Y-3.1437
X4.3091Y-2.9705
X4.3091Y-3.0281
X4.3091Y-3.0857
X4.3337Y-5.2175
X4.3496Y-2.7992
X4.3638Y-5.6198
X4.3638Y-5.6906
X4.3638Y-5.7615
X4.3638Y-5.8324
X4.3638Y-5.9032
X4.4047Y-5.4054
X4.412Y-2.664
X4.4216Y-2.5545
X4.43Y-3.7113
X4.43Y-3.79
X4.4347Y-5.6198
X4.4347Y-5.6906
X4.4347Y-5.7615
X4.4347Y-5.8324
X4.4347Y-5.9032
X4.45Y-2.7
X4.484Y-2.734
X4.5056Y-5.6198
X4.5056Y-5.6906
X4.5056Y-5.7615
X4.5056Y-5.8324
X4.5056Y-5.9032
X4.52Y-2.77
X4.5513Y-4.61
X4.57Y-4.1438
X4.57Y-4.2225
X4.57Y-4.3013
X4.57Y-4.38
X4.62Y-3.7113
X4.62Y-3.79
X4.63Y-4.5313
X4.63Y-4.61
T4
X0.674Y-3.8115
X0.674Y-3.8588
X0.674Y-3.906
X0.7075Y-3.768
X0.708Y-3.956
X0.7548Y-3.768
X0.7552Y-3.956
X0.7972Y-5.1654
X0.802Y-3.768
X0.8025Y-3.956
X0.818Y-3.816
X0.818Y-3.8632
X0.818Y-3.9105
X1.161Y-3.0296
X1.201Y-3.0296
X1.216Y-3.0676
X1.216Y-3.1076
X1.216Y-3.1476
X1.6362Y-3.0295
X1.6762Y-3.0295
X1.691Y-3.0676
X1.691Y-3.1076
X1.691Y-3.1476
X1.7249Y-4.5704
X2.1116Y-3.0295
X2.1516Y-3.0295
X2.167Y-3.0677
X2.167Y-3.1077
X2.167Y-3.1477
X2.587Y-3.0295
X2.627Y-3.0295
X2.643Y-3.0677
X2.643Y-3.1077
X2.643Y-3.1477
X2.8358Y-5.3459
X2.8389Y-5.8196
X2.8389Y-5.8688
X2.8459Y-5.7051
X2.8459Y-5.7751
X2.8881Y-5.8196
X2.8959Y-5.7051
X2.9016Y-5.5965
X2.9373Y-5.8196
X2.9412Y-5.8688
X2.9449Y-5.7201
X2.9459Y-5.7751
X2.9528Y-5.6299
X2.9649Y-5.3609
X2.9649Y-5.4023
X3.0009Y-5.7151
X3.0023Y-5.3609
X3.0023Y-5.4023
X3.0397Y-5.3609
X3.0397Y-5.4023
X3.0582Y-6.0597
X3.0623Y-3.0292
X3.0929Y-6.0201
X3.0979Y-6.0594
X3.1023Y-3.0292
X3.1183Y-3.0673
X3.1209Y-3.1063
X3.1365Y-6.0601
X3.1716Y-5.3609
X3.1716Y-5.4023
X3.209Y-5.4023
X3.209Y-5.3609
X3.2464Y-5.3609
X3.2464Y-5.4023
X3.2523Y-5.6339
X3.2609Y-5.7151
X3.2609Y-5.7751
X3.2621Y-5.8176
X3.2621Y-5.8668
X3.3031Y-5.5965
X3.3038Y-5.1068
X3.3109Y-5.7051
X3.3113Y-5.8176
X3.3378Y-5.1568
X3.3605Y-5.8176
X3.3609Y-5.7051
X3.3609Y-5.7751
X3.3645Y-5.8668
X3.385Y-5.1568
X3.4323Y-5.1568
X3.4478Y-5.1113
X3.4478Y-5.0669
X3.5375Y-3.0288
X3.5775Y-3.0288
X3.594Y-3.0677
X3.594Y-3.1077
X3.594Y-3.1477
X3.7089Y-4.2229
X3.7089Y-4.2579
X3.7476Y-5.1421
X3.7618Y-5.1102
X3.7717Y-5.5
X3.7953Y-5.3012
X3.815Y-5.5
X3.874Y-5.502
X3.8925Y-5.3016
X3.9134Y-5.502
X3.9291Y-5.1122
X3.9429Y-5.1452
X4.0039Y-5.9232
X4.0127Y-3.0292
X4.0527Y-3.0292
X4.0687Y-3.0673
X4.069Y-3.1076
X4.069Y-3.1476
X4.2677Y-2.5197
X4.4646Y-2.5197
X4.4879Y-3.0296
X4.5207Y-4.2229
X4.5207Y-4.2579
X4.5279Y-3.0296
X4.5439Y-3.0677
X4.544Y-3.1077
X4.544Y-3.1477
T6
X0.713Y-2.0861
X0.713Y-6.2495
X0.7407Y-2.0193
X0.7407Y-2.1529
X0.7407Y-6.1827
X0.7407Y-6.3163
X0.7624Y-5.7937
X0.8075Y-1.9916
X0.8075Y-2.1806
X0.8075Y-6.155
X0.8075Y-6.344
X0.8116Y-5.7937
X0.8608Y-5.7937
X0.8743Y-2.0193
X0.8743Y-2.1529
X0.8743Y-6.1827
X0.8743Y-6.3163
X0.902Y-2.0861
X0.902Y-6.2495
X0.91Y-5.7937
X0.9592Y-5.7937
X1.0084Y-5.7937
X1.0576Y-5.7937
X3.533Y-6.1161
X3.5822Y-6.1161
X3.6314Y-6.1161
X3.6806Y-6.1161
X4.4331Y-2.0861
X4.4331Y-6.2495
X4.4608Y-2.0193
X4.4608Y-2.1529
X4.4608Y-6.1827
X4.4608Y-6.3163
X4.5276Y-1.9916
X4.5276Y-2.1806
X4.5276Y-6.155
X4.5276Y-6.344
X4.5945Y-2.0193
X4.5945Y-2.1529
X4.5945Y-6.1827
X4.5945Y-6.3163
X4.6221Y-2.0861
X4.6221Y-6.2495
T7
X0.8506Y-3.297
X0.8506Y-3.397
X0.8506Y-3.497
X0.9506Y-3.297
X0.9506Y-3.397
X0.9506Y-3.497
X1.0506Y-3.297
X1.0506Y-3.397
X1.0506Y-3.497
X1.15Y-3.3
X1.15Y-3.4
X1.15Y-3.5
X1.352Y-3.2976
X1.352Y-3.3965
X1.352Y-3.4965
X1.4432Y-3.297
X1.4432Y-3.397
X1.4432Y-3.497
X1.5344Y-3.297
X1.5344Y-3.397
X1.5344Y-3.497
X1.6256Y-3.297
X1.6256Y-3.397
X1.6256Y-3.497
X1.8016Y-3.297
X1.8016Y-3.397
X1.8016Y-3.497
X1.9016Y-3.297
X1.9016Y-3.397
X1.9016Y-3.497
X2.0016Y-3.397
X2.0016Y-3.497
X2.031Y-3.302
X2.1016Y-3.297
X2.1016Y-3.397
X2.1016Y-3.497
X2.2776Y-3.297
X2.2776Y-3.397
X2.2776Y-3.497
X2.3776Y-3.297
X2.3776Y-3.397
X2.3776Y-3.497
X2.4776Y-3.297
X2.4776Y-3.397
X2.4776Y-3.497
X2.5776Y-3.297
X2.5776Y-3.397
X2.5776Y-3.497
X2.7527Y-3.297
X2.7527Y-3.397
X2.7527Y-3.497
X2.8527Y-3.297
X2.8527Y-3.397
X2.8527Y-3.497
X2.9343Y-3.4953
X2.9437Y-3.3961
X2.9449Y-3.2957
X3.0527Y-3.297
X3.0527Y-3.397
X3.0527Y-3.497
X3.227Y-3.298
X3.227Y-3.398
X3.227Y-3.498
X3.374Y-3.396
X3.374Y-3.496
X3.527Y-3.298
X3.527Y-3.398
X3.527Y-3.498
X3.7028Y-3.2976
X3.7028Y-3.3976
X3.7028Y-3.4976
X3.8016Y-3.4976
X3.8028Y-3.2976
X3.8028Y-3.3976
X4.0028Y-3.2976
X4.0028Y-3.3976
X4.0028Y-3.4976
X4.1774Y-3.2984
X4.1774Y-3.3984
X4.1774Y-3.4984
X4.3268Y-3.4984
X4.3362Y-3.3992
X4.3374Y-3.2988
X4.4774Y-3.2984
X4.4774Y-3.3984
X4.4774Y-3.4984
T8
X0.7913Y-4.2126
X0.7913Y-4.2913
X0.7913Y-4.3701
T9
X3.62Y-5.5604
X3.62Y-5.8596
T10
X0.8783Y-2.5022
X1.0632Y-2.4348
T11
X2.513Y-3.8043
X2.513Y-3.9043
X2.513Y-4.0043
X2.513Y-4.1043
X2.613Y-3.8043
X2.613Y-3.9043
X2.613Y-4.0043
X2.613Y-4.1043
X2.713Y-3.8043
X2.713Y-3.9043
X2.713Y-4.0043
X2.713Y-4.1043
X2.813Y-3.8043
X2.813Y-3.9043
X2.813Y-4.0043
X2.813Y-4.1043
T12
X1.5578Y-2.3464
X1.5578Y-2.6613
X1.6169Y-2.4448
X1.6169Y-2.5629
X1.6759Y-2.3464
X1.6759Y-2.6613
X1.735Y-2.4448
X1.735Y-2.5629
X1.794Y-2.3464
X1.794Y-2.6613
X1.8531Y-2.4448
X1.8531Y-2.5629
X1.9121Y-2.3464
X1.9121Y-2.6613
X1.9712Y-2.4448
X1.9712Y-2.5629
X2.0302Y-2.3464
X2.0302Y-2.6613
X2.0893Y-2.4448
X2.0893Y-2.5629
X2.1483Y-2.3464
X2.1483Y-2.6613
X2.2074Y-2.4448
X2.2074Y-2.5629
X2.2665Y-2.3464
X2.2665Y-2.6613
X2.8373Y-2.3464
X2.8373Y-2.6613
X2.8964Y-2.4448
X2.8964Y-2.5629
X2.9554Y-2.3464
X2.9554Y-2.6613
X3.0145Y-2.4448
X3.0145Y-2.5629
X3.0735Y-2.3464
X3.0735Y-2.6613
X3.1326Y-2.4448
X3.1326Y-2.5629
X3.1917Y-2.3464
X3.1917Y-2.6613
X3.2507Y-2.4448
X3.2507Y-2.5629
X3.3098Y-2.3464
X3.3098Y-2.6613
X3.3688Y-2.4448
X3.3688Y-2.5629
X3.4279Y-2.3464
X3.4279Y-2.6613
X3.4869Y-2.4448
X3.4869Y-2.5629
X3.546Y-2.3464
X3.546Y-2.6613
X3.605Y-2.4448
X3.605Y-2.5629
X3.6641Y-2.3464
X3.6641Y-2.6613
X3.7231Y-2.4448
X3.7231Y-2.5629
X3.7822Y-2.3464
X3.7822Y-2.6613
T13
X0.8075Y-2.0861
X0.8075Y-6.2495
X4.5276Y-2.0861
X4.5276Y-6.2495
T14
X1.2724Y-2.0905
X2.5519Y-2.0905
X4.0676Y-2.0905
T5
G00X1.0248Y-6.2013
M15
G01X1.0248Y-6.2407
M16
G05
G00X1.0248Y-6.3234
M15
G01X1.0248Y-6.3706
M16
G05
G00X1.3752Y-6.2013
M15
G01X1.3752Y-6.2407
M16
G05
G00X1.3752Y-6.3234
M15
G01X1.3752Y-6.3706
M16
G05
M30
