%TF.GenerationSoftware,KiCad,Pcbnew,8.0.7*%
%TF.CreationDate,2025-04-29T20:30:12+02:00*%
%TF.ProjectId,pdms,70646d73-2e6b-4696-9361-645f70636258,rev?*%
%TF.SameCoordinates,Original*%
%TF.FileFunction,Soldermask,Bot*%
%TF.FilePolarity,Negative*%
%FSLAX46Y46*%
G04 Gerber Fmt 4.6, Leading zero omitted, Abs format (unit mm)*
G04 Created by KiCad (PCBNEW 8.0.7) date 2025-04-29 20:30:12*
%MOMM*%
%LPD*%
G01*
G04 APERTURE LIST*
G04 Aperture macros list*
%AMRoundRect*
0 Rectangle with rounded corners*
0 $1 Rounding radius*
0 $2 $3 $4 $5 $6 $7 $8 $9 X,Y pos of 4 corners*
0 Add a 4 corners polygon primitive as box body*
4,1,4,$2,$3,$4,$5,$6,$7,$8,$9,$2,$3,0*
0 Add four circle primitives for the rounded corners*
1,1,$1+$1,$2,$3*
1,1,$1+$1,$4,$5*
1,1,$1+$1,$6,$7*
1,1,$1+$1,$8,$9*
0 Add four rect primitives between the rounded corners*
20,1,$1+$1,$2,$3,$4,$5,0*
20,1,$1+$1,$4,$5,$6,$7,0*
20,1,$1+$1,$6,$7,$8,$9,0*
20,1,$1+$1,$8,$9,$2,$3,0*%
%AMRotRect*
0 Rectangle, with rotation*
0 The origin of the aperture is its center*
0 $1 length*
0 $2 width*
0 $3 Rotation angle, in degrees counterclockwise*
0 Add horizontal line*
21,1,$1,$2,0,0,$3*%
G04 Aperture macros list end*
%ADD10R,1.350000X1.350000*%
%ADD11O,1.350000X1.350000*%
%ADD12O,0.800000X1.300000*%
%ADD13RoundRect,0.200000X-0.200000X-0.450000X0.200000X-0.450000X0.200000X0.450000X-0.200000X0.450000X0*%
%ADD14C,0.800000*%
%ADD15C,6.400000*%
%ADD16RotRect,2.400000X2.400000X20.000000*%
%ADD17C,2.400000*%
%ADD18O,0.925000X1.850000*%
%ADD19O,1.025000X2.050000*%
%ADD20C,5.100000*%
%ADD21C,2.250000*%
%ADD22C,2.000000*%
%ADD23R,2.000000X2.000000*%
%ADD24C,2.200000*%
%ADD25RoundRect,0.135000X0.135000X0.185000X-0.135000X0.185000X-0.135000X-0.185000X0.135000X-0.185000X0*%
%ADD26RoundRect,0.135000X0.185000X-0.135000X0.185000X0.135000X-0.185000X0.135000X-0.185000X-0.135000X0*%
%ADD27RoundRect,0.140000X-0.219203X-0.021213X-0.021213X-0.219203X0.219203X0.021213X0.021213X0.219203X0*%
%ADD28RoundRect,0.135000X-0.035355X0.226274X-0.226274X0.035355X0.035355X-0.226274X0.226274X-0.035355X0*%
%ADD29RoundRect,0.112500X0.112500X-0.187500X0.112500X0.187500X-0.112500X0.187500X-0.112500X-0.187500X0*%
%ADD30RoundRect,0.135000X-0.226274X-0.035355X-0.035355X-0.226274X0.226274X0.035355X0.035355X0.226274X0*%
%ADD31R,0.450000X0.700000*%
%ADD32RoundRect,0.135000X-0.135000X-0.185000X0.135000X-0.185000X0.135000X0.185000X-0.135000X0.185000X0*%
%ADD33RoundRect,0.140000X0.140000X0.170000X-0.140000X0.170000X-0.140000X-0.170000X0.140000X-0.170000X0*%
%ADD34RoundRect,0.135000X0.035355X-0.226274X0.226274X-0.035355X-0.035355X0.226274X-0.226274X0.035355X0*%
%ADD35RoundRect,0.250000X0.650000X-0.325000X0.650000X0.325000X-0.650000X0.325000X-0.650000X-0.325000X0*%
%ADD36RoundRect,0.135000X-0.185000X0.135000X-0.185000X-0.135000X0.185000X-0.135000X0.185000X0.135000X0*%
%ADD37RoundRect,0.140000X0.021213X-0.219203X0.219203X-0.021213X-0.021213X0.219203X-0.219203X0.021213X0*%
%ADD38RoundRect,0.250000X0.625000X-0.375000X0.625000X0.375000X-0.625000X0.375000X-0.625000X-0.375000X0*%
%ADD39RoundRect,0.250000X-0.650000X0.325000X-0.650000X-0.325000X0.650000X-0.325000X0.650000X0.325000X0*%
%ADD40RoundRect,0.140000X-0.170000X0.140000X-0.170000X-0.140000X0.170000X-0.140000X0.170000X0.140000X0*%
%ADD41RoundRect,0.150000X-0.150000X-0.200000X0.150000X-0.200000X0.150000X0.200000X-0.150000X0.200000X0*%
%ADD42R,0.700000X0.600000*%
%ADD43RoundRect,0.140000X0.219203X0.021213X0.021213X0.219203X-0.219203X-0.021213X-0.021213X-0.219203X0*%
%ADD44RotRect,0.600000X0.700000X315.000000*%
%ADD45RoundRect,0.150000X0.150000X0.200000X-0.150000X0.200000X-0.150000X-0.200000X0.150000X-0.200000X0*%
%ADD46R,0.600000X0.700000*%
%ADD47R,0.550000X1.000000*%
%ADD48RoundRect,0.150000X-0.256326X-0.468458X0.468458X0.256326X0.256326X0.468458X-0.468458X-0.256326X0*%
%ADD49RoundRect,0.112500X0.187500X0.112500X-0.187500X0.112500X-0.187500X-0.112500X0.187500X-0.112500X0*%
%ADD50RoundRect,0.140000X-0.021213X0.219203X-0.219203X0.021213X0.021213X-0.219203X0.219203X-0.021213X0*%
%ADD51RoundRect,0.218750X-0.026517X0.335876X-0.335876X0.026517X0.026517X-0.335876X0.335876X-0.026517X0*%
%ADD52RotRect,1.000000X1.500000X45.000000*%
%ADD53RoundRect,0.135000X0.226274X0.035355X0.035355X0.226274X-0.226274X-0.035355X-0.035355X-0.226274X0*%
G04 APERTURE END LIST*
D10*
%TO.C,J7*%
X20100000Y-107000000D03*
D11*
X20100000Y-109000000D03*
X20100000Y-111000000D03*
%TD*%
D12*
%TO.C,J5*%
X93487400Y-155348400D03*
X92237400Y-155348400D03*
X90987400Y-155348400D03*
D13*
X89737400Y-155348400D03*
%TD*%
D12*
%TO.C,J1*%
X26864000Y-147160400D03*
X25614000Y-147160400D03*
X24364000Y-147160400D03*
X23114000Y-147160400D03*
X21864000Y-147160400D03*
X20614000Y-147160400D03*
D13*
X19364000Y-147160400D03*
%TD*%
D14*
%TO.C,H2*%
X117402000Y-52987800D03*
X116699056Y-54684856D03*
X116699056Y-51290744D03*
X115002000Y-55387800D03*
D15*
X115002000Y-52987800D03*
D14*
X115002000Y-50587800D03*
X113304944Y-54684856D03*
X113304944Y-51290744D03*
X112602000Y-52987800D03*
%TD*%
D16*
%TO.C,C88*%
X22307723Y-63555051D03*
D17*
X27006186Y-61844951D03*
%TD*%
D18*
%TO.C,J6*%
X34930000Y-158013800D03*
X26030000Y-158013800D03*
D19*
X34930000Y-161213800D03*
X26030000Y-161213800D03*
%TD*%
D20*
%TO.C,J2*%
X32318000Y-53098000D03*
X64818000Y-53098000D03*
X103318000Y-53098000D03*
D21*
X39568000Y-59598000D03*
X41068000Y-62098000D03*
X42568000Y-59598000D03*
X44068000Y-62098000D03*
X45568000Y-59598000D03*
X47068000Y-62098000D03*
X48568000Y-59598000D03*
X50068000Y-62098000D03*
X51568000Y-59598000D03*
X53068000Y-62098000D03*
X54568000Y-59598000D03*
X56068000Y-62098000D03*
X57568000Y-59598000D03*
X39568000Y-67598000D03*
X41068000Y-65098000D03*
X42568000Y-67598000D03*
X44068000Y-65098000D03*
X45568000Y-67598000D03*
X47068000Y-65098000D03*
X48568000Y-67598000D03*
X50068000Y-65098000D03*
X51568000Y-67598000D03*
X53068000Y-65098000D03*
X54568000Y-67598000D03*
X56068000Y-65098000D03*
X57568000Y-67598000D03*
X72068000Y-59598000D03*
X73568000Y-62098000D03*
X75068000Y-59598000D03*
X76568000Y-62098000D03*
X78068000Y-59598000D03*
X79568000Y-62098000D03*
X81068000Y-59598000D03*
X82568000Y-62098000D03*
X84068000Y-59598000D03*
X85568000Y-62098000D03*
X87068000Y-59598000D03*
X88568000Y-62098000D03*
X90068000Y-59598000D03*
X91568000Y-62098000D03*
X93068000Y-59598000D03*
X94568000Y-62098000D03*
X96068000Y-59598000D03*
X72068000Y-67598000D03*
X73568000Y-65098000D03*
X75068000Y-67598000D03*
X76568000Y-65098000D03*
X78068000Y-67598000D03*
X79568000Y-65098000D03*
X81068000Y-67598000D03*
X82568000Y-65098000D03*
X84068000Y-67598000D03*
X85568000Y-65098000D03*
X87068000Y-67598000D03*
X88568000Y-65098000D03*
X90068000Y-67598000D03*
X91568000Y-65098000D03*
X93068000Y-67598000D03*
X94568000Y-65098000D03*
X96068000Y-67598000D03*
%TD*%
D22*
%TO.C,BZ1*%
X91948000Y-148834000D03*
D23*
X91948000Y-141234000D03*
%TD*%
D24*
%TO.C,J3*%
X71450000Y-96630000D03*
X68910000Y-96630000D03*
X66370000Y-96630000D03*
X63830000Y-96630000D03*
X71450000Y-99170000D03*
X68910000Y-99170000D03*
X66370000Y-99170000D03*
X63830000Y-99170000D03*
X71450000Y-101710000D03*
X68910000Y-101710000D03*
X66370000Y-101710000D03*
X63830000Y-101710000D03*
X71450000Y-104250000D03*
X68910000Y-104250000D03*
X66370000Y-104250000D03*
X63830000Y-104250000D03*
%TD*%
D14*
%TO.C,H1*%
X22910000Y-52987800D03*
X22207056Y-54684856D03*
X22207056Y-51290744D03*
X20510000Y-55387800D03*
D15*
X20510000Y-52987800D03*
D14*
X20510000Y-50587800D03*
X18812944Y-54684856D03*
X18812944Y-51290744D03*
X18110000Y-52987800D03*
%TD*%
%TO.C,H3*%
X22910000Y-158737800D03*
X22207056Y-160434856D03*
X22207056Y-157040744D03*
X20510000Y-161137800D03*
D15*
X20510000Y-158737800D03*
D14*
X20510000Y-156337800D03*
X18812944Y-160434856D03*
X18812944Y-157040744D03*
X18110000Y-158737800D03*
%TD*%
%TO.C,H4*%
X117402000Y-158737800D03*
X116699056Y-160434856D03*
X116699056Y-157040744D03*
X115002000Y-161137800D03*
D15*
X115002000Y-158737800D03*
D14*
X115002000Y-156337800D03*
X113304944Y-160434856D03*
X113304944Y-157040744D03*
X112602000Y-158737800D03*
%TD*%
D25*
%TO.C,R3*%
X61759000Y-147882300D03*
X62779000Y-147882300D03*
%TD*%
D26*
%TO.C,R106*%
X64370000Y-81450000D03*
X64370000Y-82470000D03*
%TD*%
D27*
%TO.C,C38*%
X39021822Y-118103177D03*
X38343000Y-117424355D03*
%TD*%
D28*
%TO.C,R127*%
X27149376Y-115970624D03*
X27870624Y-115249376D03*
%TD*%
%TO.C,R123*%
X44019376Y-128880624D03*
X44740624Y-128159376D03*
%TD*%
D29*
%TO.C,D55*%
X57400000Y-55100000D03*
X57400000Y-57200000D03*
%TD*%
D28*
%TO.C,C102*%
X33749376Y-113800624D03*
X34470624Y-113079376D03*
%TD*%
D30*
%TO.C,C97*%
X34540624Y-116690624D03*
X33819376Y-115969376D03*
%TD*%
%TO.C,R80*%
X35976429Y-117933571D03*
X35255181Y-117212323D03*
%TD*%
D31*
%TO.C,D8*%
X69125000Y-109125000D03*
X68475000Y-111125000D03*
X69775000Y-111125000D03*
%TD*%
D26*
%TO.C,R165*%
X36100000Y-101765001D03*
X36100000Y-102784999D03*
%TD*%
D32*
%TO.C,R91*%
X75003333Y-114147167D03*
X73983333Y-114147167D03*
%TD*%
D33*
%TO.C,C87*%
X47780000Y-106426000D03*
X48740000Y-106426000D03*
%TD*%
D34*
%TO.C,C48*%
X36750624Y-125789376D03*
X36029376Y-126510624D03*
%TD*%
D35*
%TO.C,C7*%
X98878400Y-135681797D03*
X98878400Y-138631799D03*
%TD*%
D34*
%TO.C,C44*%
X33130624Y-129349376D03*
X32409376Y-130070624D03*
%TD*%
D30*
%TO.C,R86*%
X38091248Y-115821248D03*
X37370000Y-115100000D03*
%TD*%
D36*
%TO.C,R162*%
X34143333Y-100776669D03*
X34143333Y-99756671D03*
%TD*%
D27*
%TO.C,C37*%
X38328858Y-118796142D03*
X37650036Y-118117320D03*
%TD*%
D28*
%TO.C,C52*%
X43868752Y-125691248D03*
X44590000Y-124970000D03*
%TD*%
D37*
%TO.C,C128*%
X45229411Y-146850589D03*
X44550589Y-147529411D03*
%TD*%
D34*
%TO.C,R132*%
X29520000Y-113600000D03*
X28798752Y-114321248D03*
%TD*%
D38*
%TO.C,F12*%
X90156345Y-97135773D03*
X90156345Y-99935773D03*
%TD*%
D36*
%TO.C,R170*%
X85618000Y-156474000D03*
X85618000Y-155454000D03*
%TD*%
D25*
%TO.C,R12*%
X62323333Y-114157167D03*
X63343333Y-114157167D03*
%TD*%
D28*
%TO.C,R73*%
X29839376Y-134240624D03*
X30560624Y-133519376D03*
%TD*%
D32*
%TO.C,R65*%
X75003333Y-116627167D03*
X73983333Y-116627167D03*
%TD*%
D29*
%TO.C,D57*%
X53500000Y-55100000D03*
X53500000Y-57200000D03*
%TD*%
D25*
%TO.C,R36*%
X62323333Y-110467167D03*
X63343333Y-110467167D03*
%TD*%
D29*
%TO.C,D59*%
X49600000Y-55100000D03*
X49600000Y-57200000D03*
%TD*%
D39*
%TO.C,C8*%
X98898400Y-133638198D03*
X98898400Y-130688196D03*
%TD*%
D26*
%TO.C,R168*%
X51569700Y-147610000D03*
X51569700Y-148630000D03*
%TD*%
D36*
%TO.C,R164*%
X35446666Y-100783335D03*
X35446666Y-99763337D03*
%TD*%
D31*
%TO.C,D9*%
X66350000Y-109875000D03*
X65700000Y-111875000D03*
X67000000Y-111875000D03*
%TD*%
D40*
%TO.C,C108*%
X54559200Y-115183200D03*
X54559200Y-114223200D03*
%TD*%
D38*
%TO.C,F11*%
X86193945Y-97177373D03*
X86193945Y-99977373D03*
%TD*%
D26*
%TO.C,R107*%
X40680000Y-92550000D03*
X40680000Y-93570000D03*
%TD*%
D30*
%TO.C,R71*%
X33864706Y-120062466D03*
X33143458Y-119341218D03*
%TD*%
D41*
%TO.C,D64*%
X26860000Y-110120000D03*
X28260000Y-110120000D03*
%TD*%
D26*
%TO.C,R110*%
X67310000Y-84070000D03*
X67310000Y-85090000D03*
%TD*%
D25*
%TO.C,R19*%
X62323333Y-117877167D03*
X63343333Y-117877167D03*
%TD*%
D36*
%TO.C,R174*%
X31242000Y-155856400D03*
X31242000Y-154836400D03*
%TD*%
D34*
%TO.C,R111*%
X66908624Y-89555376D03*
X66187376Y-90276624D03*
%TD*%
D42*
%TO.C,D45*%
X67310000Y-87568000D03*
X67310000Y-86168000D03*
%TD*%
D29*
%TO.C,D62*%
X43750000Y-55100000D03*
X43750000Y-57200000D03*
%TD*%
D38*
%TO.C,F14*%
X102743000Y-97279000D03*
X102743000Y-100079000D03*
%TD*%
D36*
%TO.C,R166*%
X36750000Y-100790001D03*
X36750000Y-99770003D03*
%TD*%
D32*
%TO.C,R50*%
X75003333Y-117827167D03*
X73983333Y-117827167D03*
%TD*%
D26*
%TO.C,R161*%
X33463442Y-101770001D03*
X33463442Y-102789999D03*
%TD*%
D43*
%TO.C,C77*%
X32420589Y-136580589D03*
X33099411Y-137259411D03*
%TD*%
D44*
%TO.C,D48*%
X77737025Y-112027025D03*
X78726975Y-113016975D03*
%TD*%
D38*
%TO.C,F15*%
X106760000Y-97279000D03*
X106760000Y-100079000D03*
%TD*%
D30*
%TO.C,R69*%
X33161138Y-120772101D03*
X32439890Y-120050853D03*
%TD*%
D45*
%TO.C,D67*%
X69100000Y-113310000D03*
X67700000Y-113310000D03*
%TD*%
D27*
%TO.C,C32*%
X34881712Y-122243287D03*
X34202890Y-121564465D03*
%TD*%
D38*
%TO.C,F13*%
X94132400Y-97123600D03*
X94132400Y-99923600D03*
%TD*%
D39*
%TO.C,C61*%
X75480000Y-156002500D03*
X75480000Y-153052498D03*
%TD*%
D25*
%TO.C,R11*%
X62323333Y-115397167D03*
X63343333Y-115397167D03*
%TD*%
D41*
%TO.C,D63*%
X23467500Y-110140000D03*
X24867500Y-110140000D03*
%TD*%
D29*
%TO.C,D61*%
X45700000Y-55100000D03*
X45700000Y-57200000D03*
%TD*%
D30*
%TO.C,R76*%
X34568278Y-119352835D03*
X33847030Y-118631587D03*
%TD*%
D38*
%TO.C,F17*%
X114808000Y-97276000D03*
X114808000Y-100076000D03*
%TD*%
D44*
%TO.C,D47*%
X78753025Y-111011025D03*
X79742975Y-112000975D03*
%TD*%
D46*
%TO.C,D41*%
X39910000Y-98890000D03*
X41310000Y-98890000D03*
%TD*%
D32*
%TO.C,R46*%
X75003333Y-119077167D03*
X73983333Y-119077167D03*
%TD*%
D27*
%TO.C,C39*%
X39707716Y-117417284D03*
X39028894Y-116738462D03*
%TD*%
D31*
%TO.C,D2*%
X42450000Y-100350000D03*
X41800000Y-102350000D03*
X43100000Y-102350000D03*
%TD*%
D28*
%TO.C,R137*%
X30930000Y-112200000D03*
X31651248Y-111478752D03*
%TD*%
D46*
%TO.C,D44*%
X39050000Y-101580000D03*
X40450000Y-101580000D03*
%TD*%
D25*
%TO.C,R16*%
X62323333Y-112917167D03*
X63343333Y-112917167D03*
%TD*%
D40*
%TO.C,C86*%
X50580000Y-154020000D03*
X50580000Y-153060000D03*
%TD*%
D47*
%TO.C,D28*%
X45567600Y-102494400D03*
X46217600Y-100594400D03*
X44917600Y-100594400D03*
%TD*%
D32*
%TO.C,R87*%
X75003333Y-112907167D03*
X73983333Y-112907167D03*
%TD*%
D25*
%TO.C,R1*%
X55663000Y-147882300D03*
X56683000Y-147882300D03*
%TD*%
D48*
%TO.C,U12*%
X33898668Y-150391332D03*
X33226917Y-149719581D03*
X32555166Y-149047830D03*
X30946498Y-150656498D03*
X31618249Y-151328249D03*
X32290000Y-152000000D03*
%TD*%
D49*
%TO.C,D68*%
X65040000Y-62580000D03*
X67140000Y-62580000D03*
%TD*%
D39*
%TO.C,C63*%
X70770000Y-155992500D03*
X70770000Y-153042498D03*
%TD*%
D50*
%TO.C,C123*%
X43250000Y-128080000D03*
X43928822Y-127401178D03*
%TD*%
D36*
%TO.C,R167*%
X50319700Y-148630000D03*
X50319700Y-147610000D03*
%TD*%
D26*
%TO.C,R177*%
X28702000Y-154836400D03*
X28702000Y-155856400D03*
%TD*%
D25*
%TO.C,R2*%
X58634800Y-147882300D03*
X59654800Y-147882300D03*
%TD*%
D31*
%TO.C,D38*%
X68390000Y-114880000D03*
X67740000Y-116880000D03*
X69040000Y-116880000D03*
%TD*%
D28*
%TO.C,C96*%
X30150000Y-117530000D03*
X30871248Y-116808752D03*
%TD*%
D31*
%TO.C,D5*%
X41250000Y-104900000D03*
X40600000Y-106900000D03*
X41900000Y-106900000D03*
%TD*%
D30*
%TO.C,C89*%
X30840624Y-120470624D03*
X30119376Y-119749376D03*
%TD*%
D26*
%TO.C,R159*%
X32145163Y-101743335D03*
X32145163Y-102763333D03*
%TD*%
D27*
%TO.C,C33*%
X35571141Y-121553858D03*
X34892319Y-120875036D03*
%TD*%
D33*
%TO.C,C129*%
X54105200Y-118821200D03*
X55065200Y-118821200D03*
%TD*%
D39*
%TO.C,C62*%
X73130000Y-155992500D03*
X73130000Y-153042498D03*
%TD*%
D46*
%TO.C,D43*%
X63438000Y-90678000D03*
X62038000Y-90678000D03*
%TD*%
D30*
%TO.C,R82*%
X36680000Y-117230000D03*
X35958752Y-116508752D03*
%TD*%
D28*
%TO.C,R74*%
X29040000Y-133430000D03*
X29761248Y-132708752D03*
%TD*%
D26*
%TO.C,R9*%
X41420000Y-94650000D03*
X41420000Y-95670000D03*
%TD*%
%TO.C,R163*%
X34781721Y-101756668D03*
X34781721Y-102776666D03*
%TD*%
D47*
%TO.C,D27*%
X51308000Y-102499200D03*
X51958000Y-100599200D03*
X50658000Y-100599200D03*
%TD*%
D41*
%TO.C,D65*%
X30850000Y-110120000D03*
X32250000Y-110120000D03*
%TD*%
D29*
%TO.C,D58*%
X51550000Y-55100000D03*
X51550000Y-57200000D03*
%TD*%
D40*
%TO.C,C112*%
X55630000Y-120800000D03*
X55630000Y-119840000D03*
%TD*%
D27*
%TO.C,C34*%
X36260570Y-120864429D03*
X35581748Y-120185607D03*
%TD*%
D26*
%TO.C,R38*%
X43190000Y-87560000D03*
X43190000Y-88580000D03*
%TD*%
D46*
%TO.C,D46*%
X60136000Y-96012000D03*
X58736000Y-96012000D03*
%TD*%
D39*
%TO.C,C9*%
X96460000Y-133638198D03*
X96460000Y-130688196D03*
%TD*%
D29*
%TO.C,D60*%
X47650000Y-55100000D03*
X47650000Y-57200000D03*
%TD*%
%TO.C,D56*%
X55450000Y-55100000D03*
X55450000Y-57200000D03*
%TD*%
D25*
%TO.C,R4*%
X64883200Y-147882300D03*
X65903200Y-147882300D03*
%TD*%
D41*
%TO.C,D66*%
X34150000Y-110120000D03*
X35550000Y-110120000D03*
%TD*%
D35*
%TO.C,C6*%
X96440000Y-135681797D03*
X96440000Y-138631799D03*
%TD*%
D32*
%TO.C,R51*%
X75003333Y-111667167D03*
X73983333Y-111667167D03*
%TD*%
D26*
%TO.C,R176*%
X30022800Y-154836400D03*
X30022800Y-155856400D03*
%TD*%
D40*
%TO.C,C103*%
X42330000Y-112870000D03*
X42330000Y-111910000D03*
%TD*%
D32*
%TO.C,R90*%
X75003333Y-115387167D03*
X73983333Y-115387167D03*
%TD*%
D25*
%TO.C,R15*%
X62323333Y-116637167D03*
X63343333Y-116637167D03*
%TD*%
D40*
%TO.C,C114*%
X55727600Y-115207200D03*
X55727600Y-114247200D03*
%TD*%
D25*
%TO.C,R32*%
X62323333Y-111717167D03*
X63343333Y-111717167D03*
%TD*%
D27*
%TO.C,C80*%
X43247017Y-122773337D03*
X42568195Y-122094515D03*
%TD*%
D38*
%TO.C,F10*%
X82245200Y-97174400D03*
X82245200Y-99974400D03*
%TD*%
D31*
%TO.C,D1*%
X41500000Y-108500000D03*
X40850000Y-110500000D03*
X42150000Y-110500000D03*
%TD*%
D34*
%TO.C,C50*%
X41210624Y-121014376D03*
X40489376Y-121735624D03*
%TD*%
D27*
%TO.C,C35*%
X36950000Y-120175000D03*
X36271178Y-119496178D03*
%TD*%
D36*
%TO.C,R160*%
X32840000Y-100770003D03*
X32840000Y-99750005D03*
%TD*%
D51*
%TO.C,L1*%
X42843153Y-124916847D03*
X43956847Y-123803153D03*
%TD*%
D46*
%TO.C,D42*%
X41710000Y-90170000D03*
X43110000Y-90170000D03*
%TD*%
D52*
%TO.C,JP1*%
X48789239Y-137100761D03*
X47870000Y-138020000D03*
X46950761Y-138939239D03*
%TD*%
D27*
%TO.C,C36*%
X37639429Y-119485571D03*
X36960607Y-118806749D03*
%TD*%
D38*
%TO.C,F16*%
X110697000Y-97282000D03*
X110697000Y-100082000D03*
%TD*%
D30*
%TO.C,R112*%
X81132624Y-113644624D03*
X80411376Y-112923376D03*
%TD*%
D32*
%TO.C,R47*%
X75000000Y-110457167D03*
X73980000Y-110457167D03*
%TD*%
D30*
%TO.C,R113*%
X80370624Y-114406624D03*
X79649376Y-113685376D03*
%TD*%
%TO.C,R84*%
X37383572Y-116526429D03*
X36662324Y-115805181D03*
%TD*%
D26*
%TO.C,R178*%
X32512000Y-154811000D03*
X32512000Y-155831000D03*
%TD*%
D25*
%TO.C,R35*%
X62326666Y-119087167D03*
X63346666Y-119087167D03*
%TD*%
D36*
%TO.C,R169*%
X86868000Y-156464000D03*
X86868000Y-155444000D03*
%TD*%
D40*
%TO.C,C119*%
X56845200Y-115209200D03*
X56845200Y-114249200D03*
%TD*%
D30*
%TO.C,R56*%
X34960624Y-139070624D03*
X34239376Y-138349376D03*
%TD*%
%TO.C,R78*%
X35269322Y-118640678D03*
X34548074Y-117919430D03*
%TD*%
D27*
%TO.C,C83*%
X42514411Y-123514411D03*
X41835589Y-122835589D03*
%TD*%
D53*
%TO.C,C51*%
X36169376Y-140369376D03*
X36890624Y-141090624D03*
%TD*%
D50*
%TO.C,C124*%
X56120589Y-117709411D03*
X56799411Y-117030589D03*
%TD*%
G36*
X73668121Y-94358002D02*
G01*
X73714614Y-94411658D01*
X73726000Y-94464000D01*
X73726000Y-106404000D01*
X73705998Y-106472121D01*
X73652342Y-106518614D01*
X73600000Y-106530000D01*
X61660000Y-106530000D01*
X61591879Y-106509998D01*
X61545386Y-106456342D01*
X61534000Y-106404000D01*
X61534000Y-94464000D01*
X61554002Y-94395879D01*
X61607658Y-94349386D01*
X61660000Y-94338000D01*
X73600000Y-94338000D01*
X73668121Y-94358002D01*
G37*
M02*
