%TF.GenerationSoftware,KiCad,Pcbnew,(6.0.8)*%
%TF.CreationDate,2023-02-11T17:00:45+01:00*%
%TF.ProjectId,BTS50010_TestBoard,42545335-3030-4313-905f-54657374426f,rev?*%
%TF.SameCoordinates,Original*%
%TF.FileFunction,Copper,L2,Bot*%
%TF.FilePolarity,Positive*%
%FSLAX46Y46*%
G04 Gerber Fmt 4.6, Leading zero omitted, Abs format (unit mm)*
G04 Created by KiCad (PCBNEW (6.0.8)) date 2023-02-11 17:00:45*
%MOMM*%
%LPD*%
G01*
G04 APERTURE LIST*
%TA.AperFunction,ConnectorPad*%
%ADD10C,5.700000*%
%TD*%
%TA.AperFunction,ComponentPad*%
%ADD11C,3.600000*%
%TD*%
%TA.AperFunction,ComponentPad*%
%ADD12R,1.700000X1.700000*%
%TD*%
%TA.AperFunction,ComponentPad*%
%ADD13O,1.700000X1.700000*%
%TD*%
%TA.AperFunction,ViaPad*%
%ADD14C,0.800000*%
%TD*%
G04 APERTURE END LIST*
D10*
%TO.P,H2,1,1*%
%TO.N,OUT_VS*%
X61468000Y-30988000D03*
D11*
X61468000Y-30988000D03*
%TD*%
%TO.P,H1,1,1*%
%TO.N,IN_VS*%
X35560000Y-30988000D03*
D10*
X35560000Y-30988000D03*
%TD*%
D12*
%TO.P,J1,1,Pin_1*%
%TO.N,OUT_VS*%
X64516000Y-41656000D03*
D13*
%TO.P,J1,2,Pin_2*%
%TO.N,SENSE*%
X61976000Y-41656000D03*
%TO.P,J1,3,Pin_3*%
%TO.N,AUX_IN*%
X59436000Y-41656000D03*
%TO.P,J1,4,Pin_4*%
%TO.N,GND*%
X56896000Y-41656000D03*
%TD*%
D14*
%TO.N,GND*%
X61087000Y-39624000D03*
X56261000Y-37846000D03*
X64008000Y-39624000D03*
X56642000Y-39370000D03*
X52578000Y-40894000D03*
X42926000Y-42926000D03*
%TD*%
%TA.AperFunction,Conductor*%
%TO.N,GND*%
G36*
X66509001Y-25919026D02*
G01*
X66532709Y-25922717D01*
X66542898Y-25921384D01*
X66543728Y-25921276D01*
X66572416Y-25920818D01*
X66675196Y-25930939D01*
X66699423Y-25935758D01*
X66818520Y-25971885D01*
X66841340Y-25981337D01*
X66951105Y-26040006D01*
X66971644Y-26053730D01*
X67067850Y-26132685D01*
X67085315Y-26150150D01*
X67164270Y-26246356D01*
X67177994Y-26266895D01*
X67236663Y-26376660D01*
X67246115Y-26399480D01*
X67282242Y-26518578D01*
X67287061Y-26542806D01*
X67296516Y-26638828D01*
X67296064Y-26654886D01*
X67296774Y-26654895D01*
X67296664Y-26663868D01*
X67295283Y-26672739D01*
X67296447Y-26681642D01*
X67296447Y-26681647D01*
X67299430Y-26704462D01*
X67300494Y-26720736D01*
X67301697Y-29258723D01*
X67309476Y-45670726D01*
X67307976Y-45690170D01*
X67305690Y-45704851D01*
X67305690Y-45704855D01*
X67304309Y-45713724D01*
X67305473Y-45722626D01*
X67305750Y-45724746D01*
X67306207Y-45753431D01*
X67298987Y-45826741D01*
X67296084Y-45856212D01*
X67291267Y-45880432D01*
X67255134Y-45999546D01*
X67245685Y-46022355D01*
X67187013Y-46132124D01*
X67173295Y-46152655D01*
X67094329Y-46248876D01*
X67076876Y-46266329D01*
X66980655Y-46345295D01*
X66960124Y-46359013D01*
X66850355Y-46417685D01*
X66827546Y-46427134D01*
X66708432Y-46463267D01*
X66684211Y-46468084D01*
X66588191Y-46477541D01*
X66572132Y-46477091D01*
X66572123Y-46477800D01*
X66563147Y-46477690D01*
X66554276Y-46476309D01*
X66545374Y-46477473D01*
X66545372Y-46477473D01*
X66532856Y-46479110D01*
X66522798Y-46480425D01*
X66506433Y-46481489D01*
X32062423Y-46472487D01*
X32043088Y-46470988D01*
X32019291Y-46467283D01*
X32009102Y-46468616D01*
X32008272Y-46468724D01*
X31979584Y-46469182D01*
X31876804Y-46459061D01*
X31852577Y-46454242D01*
X31733480Y-46418115D01*
X31710660Y-46408663D01*
X31600895Y-46349994D01*
X31580356Y-46336270D01*
X31484150Y-46257315D01*
X31466685Y-46239850D01*
X31387730Y-46143644D01*
X31374006Y-46123105D01*
X31315337Y-46013340D01*
X31305885Y-45990520D01*
X31269758Y-45871422D01*
X31264939Y-45847194D01*
X31255484Y-45751172D01*
X31255936Y-45735114D01*
X31255226Y-45735105D01*
X31255336Y-45726132D01*
X31256717Y-45717261D01*
X31252589Y-45685686D01*
X31251526Y-45669352D01*
X31251526Y-41923966D01*
X55564257Y-41923966D01*
X55594565Y-42058446D01*
X55597645Y-42068275D01*
X55677770Y-42265603D01*
X55682413Y-42274794D01*
X55793694Y-42456388D01*
X55799777Y-42464699D01*
X55939213Y-42625667D01*
X55946580Y-42632883D01*
X56110434Y-42768916D01*
X56118881Y-42774831D01*
X56302756Y-42882279D01*
X56312042Y-42886729D01*
X56511001Y-42962703D01*
X56520899Y-42965579D01*
X56624250Y-42986606D01*
X56638299Y-42985410D01*
X56642000Y-42975065D01*
X56642000Y-42974517D01*
X57150000Y-42974517D01*
X57154064Y-42988359D01*
X57167478Y-42990393D01*
X57174184Y-42989534D01*
X57184262Y-42987392D01*
X57388255Y-42926191D01*
X57397842Y-42922433D01*
X57589095Y-42828739D01*
X57597945Y-42823464D01*
X57771328Y-42699792D01*
X57779200Y-42693139D01*
X57930052Y-42542812D01*
X57936730Y-42534965D01*
X58064022Y-42357819D01*
X58065279Y-42358722D01*
X58112373Y-42315362D01*
X58182311Y-42303145D01*
X58247751Y-42330678D01*
X58275579Y-42362511D01*
X58335987Y-42461088D01*
X58482250Y-42629938D01*
X58654126Y-42772632D01*
X58847000Y-42885338D01*
X59055692Y-42965030D01*
X59060760Y-42966061D01*
X59060763Y-42966062D01*
X59155862Y-42985410D01*
X59274597Y-43009567D01*
X59279772Y-43009757D01*
X59279774Y-43009757D01*
X59492673Y-43017564D01*
X59492677Y-43017564D01*
X59497837Y-43017753D01*
X59502957Y-43017097D01*
X59502959Y-43017097D01*
X59714288Y-42990025D01*
X59714289Y-42990025D01*
X59719416Y-42989368D01*
X59724366Y-42987883D01*
X59928429Y-42926661D01*
X59928434Y-42926659D01*
X59933384Y-42925174D01*
X60133994Y-42826896D01*
X60315860Y-42697173D01*
X60474096Y-42539489D01*
X60604453Y-42358077D01*
X60605776Y-42359028D01*
X60652645Y-42315857D01*
X60722580Y-42303625D01*
X60788026Y-42331144D01*
X60815875Y-42362994D01*
X60875987Y-42461088D01*
X61022250Y-42629938D01*
X61194126Y-42772632D01*
X61387000Y-42885338D01*
X61595692Y-42965030D01*
X61600760Y-42966061D01*
X61600763Y-42966062D01*
X61695862Y-42985410D01*
X61814597Y-43009567D01*
X61819772Y-43009757D01*
X61819774Y-43009757D01*
X62032673Y-43017564D01*
X62032677Y-43017564D01*
X62037837Y-43017753D01*
X62042957Y-43017097D01*
X62042959Y-43017097D01*
X62254288Y-42990025D01*
X62254289Y-42990025D01*
X62259416Y-42989368D01*
X62264366Y-42987883D01*
X62468429Y-42926661D01*
X62468434Y-42926659D01*
X62473384Y-42925174D01*
X62673994Y-42826896D01*
X62855860Y-42697173D01*
X62964091Y-42589319D01*
X63026462Y-42555404D01*
X63097268Y-42560592D01*
X63154030Y-42603238D01*
X63171012Y-42634341D01*
X63215385Y-42752705D01*
X63302739Y-42869261D01*
X63419295Y-42956615D01*
X63555684Y-43007745D01*
X63617866Y-43014500D01*
X65414134Y-43014500D01*
X65476316Y-43007745D01*
X65612705Y-42956615D01*
X65729261Y-42869261D01*
X65816615Y-42752705D01*
X65867745Y-42616316D01*
X65874500Y-42554134D01*
X65874500Y-40757866D01*
X65867745Y-40695684D01*
X65816615Y-40559295D01*
X65729261Y-40442739D01*
X65612705Y-40355385D01*
X65476316Y-40304255D01*
X65414134Y-40297500D01*
X63617866Y-40297500D01*
X63555684Y-40304255D01*
X63419295Y-40355385D01*
X63302739Y-40442739D01*
X63215385Y-40559295D01*
X63212233Y-40567703D01*
X63170919Y-40677907D01*
X63128277Y-40734671D01*
X63061716Y-40759371D01*
X62992367Y-40744163D01*
X62959743Y-40718476D01*
X62909151Y-40662875D01*
X62909142Y-40662866D01*
X62905670Y-40659051D01*
X62901619Y-40655852D01*
X62901615Y-40655848D01*
X62734414Y-40523800D01*
X62734410Y-40523798D01*
X62730359Y-40520598D01*
X62694028Y-40500542D01*
X62678136Y-40491769D01*
X62534789Y-40412638D01*
X62529920Y-40410914D01*
X62529916Y-40410912D01*
X62329087Y-40339795D01*
X62329083Y-40339794D01*
X62324212Y-40338069D01*
X62319119Y-40337162D01*
X62319116Y-40337161D01*
X62109373Y-40299800D01*
X62109367Y-40299799D01*
X62104284Y-40298894D01*
X62030452Y-40297992D01*
X61886081Y-40296228D01*
X61886079Y-40296228D01*
X61880911Y-40296165D01*
X61660091Y-40329955D01*
X61447756Y-40399357D01*
X61249607Y-40502507D01*
X61245474Y-40505610D01*
X61245471Y-40505612D01*
X61075100Y-40633530D01*
X61070965Y-40636635D01*
X61045541Y-40663240D01*
X60977280Y-40734671D01*
X60916629Y-40798138D01*
X60809201Y-40955621D01*
X60754293Y-41000621D01*
X60683768Y-41008792D01*
X60620021Y-40977538D01*
X60599324Y-40953054D01*
X60518822Y-40828617D01*
X60518820Y-40828614D01*
X60516014Y-40824277D01*
X60365670Y-40659051D01*
X60361619Y-40655852D01*
X60361615Y-40655848D01*
X60194414Y-40523800D01*
X60194410Y-40523798D01*
X60190359Y-40520598D01*
X60154028Y-40500542D01*
X60138136Y-40491769D01*
X59994789Y-40412638D01*
X59989920Y-40410914D01*
X59989916Y-40410912D01*
X59789087Y-40339795D01*
X59789083Y-40339794D01*
X59784212Y-40338069D01*
X59779119Y-40337162D01*
X59779116Y-40337161D01*
X59569373Y-40299800D01*
X59569367Y-40299799D01*
X59564284Y-40298894D01*
X59490452Y-40297992D01*
X59346081Y-40296228D01*
X59346079Y-40296228D01*
X59340911Y-40296165D01*
X59120091Y-40329955D01*
X58907756Y-40399357D01*
X58709607Y-40502507D01*
X58705474Y-40505610D01*
X58705471Y-40505612D01*
X58535100Y-40633530D01*
X58530965Y-40636635D01*
X58505541Y-40663240D01*
X58437280Y-40734671D01*
X58376629Y-40798138D01*
X58373720Y-40802403D01*
X58373714Y-40802411D01*
X58361404Y-40820457D01*
X58269204Y-40955618D01*
X58268898Y-40956066D01*
X58213987Y-41001069D01*
X58143462Y-41009240D01*
X58079715Y-40977986D01*
X58059018Y-40953502D01*
X57978426Y-40828926D01*
X57972136Y-40820757D01*
X57828806Y-40663240D01*
X57821273Y-40656215D01*
X57654139Y-40524222D01*
X57645552Y-40518517D01*
X57459117Y-40415599D01*
X57449705Y-40411369D01*
X57248959Y-40340280D01*
X57238988Y-40337646D01*
X57167837Y-40324972D01*
X57154540Y-40326432D01*
X57150000Y-40340989D01*
X57150000Y-42974517D01*
X56642000Y-42974517D01*
X56642000Y-41928115D01*
X56637525Y-41912876D01*
X56636135Y-41911671D01*
X56628452Y-41910000D01*
X55579225Y-41910000D01*
X55565694Y-41913973D01*
X55564257Y-41923966D01*
X31251526Y-41923966D01*
X31251526Y-41390183D01*
X55560389Y-41390183D01*
X55561912Y-41398607D01*
X55574292Y-41402000D01*
X56623885Y-41402000D01*
X56639124Y-41397525D01*
X56640329Y-41396135D01*
X56642000Y-41388452D01*
X56642000Y-40339102D01*
X56638082Y-40325758D01*
X56623806Y-40323771D01*
X56585324Y-40329660D01*
X56575288Y-40332051D01*
X56372868Y-40398212D01*
X56363359Y-40402209D01*
X56174463Y-40500542D01*
X56165738Y-40506036D01*
X55995433Y-40633905D01*
X55987726Y-40640748D01*
X55840590Y-40794717D01*
X55834104Y-40802727D01*
X55714098Y-40978649D01*
X55709000Y-40987623D01*
X55619338Y-41180783D01*
X55615775Y-41190470D01*
X55560389Y-41390183D01*
X31251526Y-41390183D01*
X31251526Y-30976259D01*
X32196587Y-30976259D01*
X32214992Y-31339574D01*
X32215529Y-31342929D01*
X32215530Y-31342935D01*
X32255211Y-31590670D01*
X32272527Y-31698777D01*
X32368519Y-32049664D01*
X32501845Y-32388133D01*
X32503428Y-32391148D01*
X32669362Y-32707206D01*
X32669367Y-32707214D01*
X32670946Y-32710222D01*
X32672840Y-32713040D01*
X32672845Y-32713049D01*
X32865419Y-32999628D01*
X32873843Y-33012165D01*
X33108163Y-33290428D01*
X33134899Y-33315977D01*
X33368702Y-33539405D01*
X33368709Y-33539411D01*
X33371165Y-33541758D01*
X33659771Y-33763214D01*
X33662689Y-33764988D01*
X33967692Y-33950433D01*
X33967697Y-33950436D01*
X33970607Y-33952205D01*
X33973695Y-33953651D01*
X33973694Y-33953651D01*
X34296952Y-34105077D01*
X34296962Y-34105081D01*
X34300036Y-34106521D01*
X34303254Y-34107623D01*
X34303257Y-34107624D01*
X34640981Y-34223253D01*
X34640989Y-34223255D01*
X34644204Y-34224356D01*
X34999084Y-34304332D01*
X35052123Y-34310375D01*
X35357144Y-34345128D01*
X35357152Y-34345128D01*
X35360527Y-34345513D01*
X35363931Y-34345531D01*
X35363934Y-34345531D01*
X35562058Y-34346568D01*
X35724303Y-34347418D01*
X35727689Y-34347068D01*
X35727691Y-34347068D01*
X36082765Y-34310375D01*
X36082774Y-34310374D01*
X36086157Y-34310024D01*
X36089490Y-34309310D01*
X36089493Y-34309309D01*
X36199895Y-34285641D01*
X36441856Y-34233768D01*
X36787239Y-34119544D01*
X36790323Y-34118138D01*
X36790332Y-34118135D01*
X37115171Y-33970096D01*
X37118265Y-33968686D01*
X37162276Y-33942554D01*
X37428128Y-33784704D01*
X37428132Y-33784701D01*
X37431063Y-33782961D01*
X37721973Y-33564539D01*
X37987592Y-33315977D01*
X38224813Y-33040182D01*
X38332983Y-32882794D01*
X38428931Y-32743190D01*
X38428936Y-32743182D01*
X38430861Y-32740381D01*
X38432473Y-32737387D01*
X38432478Y-32737379D01*
X38601703Y-32423092D01*
X38603325Y-32420080D01*
X38740188Y-32083027D01*
X38839850Y-31733164D01*
X38901143Y-31374583D01*
X38903285Y-31339574D01*
X38923241Y-31013278D01*
X38923351Y-31011481D01*
X38923433Y-30988000D01*
X38922797Y-30976259D01*
X58104587Y-30976259D01*
X58122992Y-31339574D01*
X58123529Y-31342929D01*
X58123530Y-31342935D01*
X58163211Y-31590670D01*
X58180527Y-31698777D01*
X58276519Y-32049664D01*
X58409845Y-32388133D01*
X58411428Y-32391148D01*
X58577362Y-32707206D01*
X58577367Y-32707214D01*
X58578946Y-32710222D01*
X58580840Y-32713040D01*
X58580845Y-32713049D01*
X58773419Y-32999628D01*
X58781843Y-33012165D01*
X59016163Y-33290428D01*
X59042899Y-33315977D01*
X59276702Y-33539405D01*
X59276709Y-33539411D01*
X59279165Y-33541758D01*
X59567771Y-33763214D01*
X59570689Y-33764988D01*
X59875692Y-33950433D01*
X59875697Y-33950436D01*
X59878607Y-33952205D01*
X59881695Y-33953651D01*
X59881694Y-33953651D01*
X60204952Y-34105077D01*
X60204962Y-34105081D01*
X60208036Y-34106521D01*
X60211254Y-34107623D01*
X60211257Y-34107624D01*
X60548981Y-34223253D01*
X60548989Y-34223255D01*
X60552204Y-34224356D01*
X60907084Y-34304332D01*
X60960123Y-34310375D01*
X61265144Y-34345128D01*
X61265152Y-34345128D01*
X61268527Y-34345513D01*
X61271931Y-34345531D01*
X61271934Y-34345531D01*
X61470058Y-34346568D01*
X61632303Y-34347418D01*
X61635689Y-34347068D01*
X61635691Y-34347068D01*
X61990765Y-34310375D01*
X61990774Y-34310374D01*
X61994157Y-34310024D01*
X61997490Y-34309310D01*
X61997493Y-34309309D01*
X62107895Y-34285641D01*
X62349856Y-34233768D01*
X62695239Y-34119544D01*
X62698323Y-34118138D01*
X62698332Y-34118135D01*
X63023171Y-33970096D01*
X63026265Y-33968686D01*
X63070276Y-33942554D01*
X63336128Y-33784704D01*
X63336132Y-33784701D01*
X63339063Y-33782961D01*
X63629973Y-33564539D01*
X63895592Y-33315977D01*
X64132813Y-33040182D01*
X64240983Y-32882794D01*
X64336931Y-32743190D01*
X64336936Y-32743182D01*
X64338861Y-32740381D01*
X64340473Y-32737387D01*
X64340478Y-32737379D01*
X64509703Y-32423092D01*
X64511325Y-32420080D01*
X64648188Y-32083027D01*
X64747850Y-31733164D01*
X64809143Y-31374583D01*
X64811285Y-31339574D01*
X64831241Y-31013278D01*
X64831351Y-31011481D01*
X64831433Y-30988000D01*
X64811760Y-30624751D01*
X64752972Y-30265752D01*
X64655756Y-29915202D01*
X64651331Y-29904081D01*
X64522508Y-29580365D01*
X64521249Y-29577201D01*
X64490690Y-29519485D01*
X64352624Y-29258723D01*
X64352620Y-29258716D01*
X64351025Y-29255704D01*
X64349118Y-29252888D01*
X64349113Y-29252879D01*
X64148985Y-28957292D01*
X64147075Y-28954471D01*
X63911785Y-28677027D01*
X63647908Y-28426617D01*
X63358530Y-28206170D01*
X63355618Y-28204413D01*
X63355613Y-28204410D01*
X63049951Y-28020023D01*
X63049945Y-28020020D01*
X63047036Y-28018265D01*
X62717071Y-27865100D01*
X62372494Y-27748467D01*
X62363234Y-27746414D01*
X62288485Y-27729843D01*
X62017336Y-27669731D01*
X61888217Y-27655476D01*
X61659133Y-27630184D01*
X61659128Y-27630184D01*
X61655752Y-27629811D01*
X61652353Y-27629805D01*
X61652352Y-27629805D01*
X61480762Y-27629506D01*
X61291972Y-27629176D01*
X61156831Y-27643618D01*
X60933634Y-27667471D01*
X60933628Y-27667472D01*
X60930250Y-27667833D01*
X60574820Y-27745330D01*
X60229838Y-27860759D01*
X59899340Y-28012771D01*
X59587192Y-28199588D01*
X59297046Y-28419023D01*
X59032296Y-28668511D01*
X58796040Y-28945132D01*
X58591040Y-29245651D01*
X58419694Y-29566552D01*
X58418419Y-29569724D01*
X58418417Y-29569728D01*
X58416626Y-29574185D01*
X58284009Y-29904081D01*
X58185569Y-30254290D01*
X58125528Y-30613082D01*
X58104587Y-30976259D01*
X38922797Y-30976259D01*
X38903760Y-30624751D01*
X38844972Y-30265752D01*
X38747756Y-29915202D01*
X38743331Y-29904081D01*
X38614508Y-29580365D01*
X38613249Y-29577201D01*
X38582690Y-29519485D01*
X38444624Y-29258723D01*
X38444620Y-29258716D01*
X38443025Y-29255704D01*
X38441118Y-29252888D01*
X38441113Y-29252879D01*
X38240985Y-28957292D01*
X38239075Y-28954471D01*
X38003785Y-28677027D01*
X37739908Y-28426617D01*
X37450530Y-28206170D01*
X37447618Y-28204413D01*
X37447613Y-28204410D01*
X37141951Y-28020023D01*
X37141945Y-28020020D01*
X37139036Y-28018265D01*
X36809071Y-27865100D01*
X36464494Y-27748467D01*
X36455234Y-27746414D01*
X36380485Y-27729843D01*
X36109336Y-27669731D01*
X35980217Y-27655476D01*
X35751133Y-27630184D01*
X35751128Y-27630184D01*
X35747752Y-27629811D01*
X35744353Y-27629805D01*
X35744352Y-27629805D01*
X35572762Y-27629506D01*
X35383972Y-27629176D01*
X35248831Y-27643618D01*
X35025634Y-27667471D01*
X35025628Y-27667472D01*
X35022250Y-27667833D01*
X34666820Y-27745330D01*
X34321838Y-27860759D01*
X33991340Y-28012771D01*
X33679192Y-28199588D01*
X33389046Y-28419023D01*
X33124296Y-28668511D01*
X32888040Y-28945132D01*
X32683040Y-29245651D01*
X32511694Y-29566552D01*
X32510419Y-29569724D01*
X32510417Y-29569728D01*
X32508626Y-29574185D01*
X32376009Y-29904081D01*
X32277569Y-30254290D01*
X32217528Y-30613082D01*
X32196587Y-30976259D01*
X31251526Y-30976259D01*
X31251526Y-26728382D01*
X31253026Y-26708999D01*
X31255335Y-26694165D01*
X31256717Y-26685291D01*
X31255276Y-26674272D01*
X31254818Y-26645584D01*
X31264939Y-26542804D01*
X31269758Y-26518577D01*
X31305885Y-26399480D01*
X31315337Y-26376660D01*
X31374006Y-26266895D01*
X31387730Y-26246356D01*
X31466685Y-26150150D01*
X31484150Y-26132685D01*
X31580356Y-26053730D01*
X31600895Y-26040006D01*
X31710660Y-25981337D01*
X31733480Y-25971885D01*
X31852578Y-25935758D01*
X31876806Y-25930939D01*
X31972828Y-25921484D01*
X31988886Y-25921936D01*
X31988895Y-25921226D01*
X31997868Y-25921336D01*
X32006739Y-25922717D01*
X32032087Y-25919403D01*
X32038314Y-25918589D01*
X32054648Y-25917526D01*
X66489618Y-25917526D01*
X66509001Y-25919026D01*
G37*
%TD.AperFunction*%
%TD*%
M02*
