%TF.GenerationSoftware,KiCad,Pcbnew,(6.0.8)*%
%TF.CreationDate,2023-02-11T17:00:48+01:00*%
%TF.ProjectId,BTS50010_TestBoard,42545335-3030-4313-905f-54657374426f,rev?*%
%TF.SameCoordinates,Original*%
%TF.FileFunction,Drillmap*%
%TF.FilePolarity,Positive*%
%FSLAX45Y45*%
G04 Gerber Fmt 4.5, Leading zero omitted, Abs format (unit mm)*
G04 Created by KiCad (PCBNEW (6.0.8)) date 2023-02-11 17:00:48*
%MOMM*%
%LPD*%
G01*
G04 APERTURE LIST*
%ADD10C,0.100000*%
%ADD11C,0.200000*%
G04 APERTURE END LIST*
D10*
X6781800Y-4572000D02*
X6780897Y-2667903D01*
X3201303Y-2540903D02*
X6653897Y-2540903D01*
X3074303Y-4571097D02*
X3074303Y-2667903D01*
X6654800Y-4699000D02*
X3201303Y-4698097D01*
X3201303Y-2540903D02*
G75*
G03*
X3074303Y-2667903I-3J-126997D01*
G01*
X3074303Y-4571097D02*
G75*
G03*
X3201303Y-4698097I126997J-3D01*
G01*
X6654800Y-4699000D02*
G75*
G03*
X6781800Y-4572000I0J127000D01*
G01*
X6780897Y-2667903D02*
G75*
G03*
X6653897Y-2540903I-126997J3D01*
G01*
D11*
X3326922Y-5014476D02*
X3326922Y-4814476D01*
X3374541Y-4814476D01*
X3403112Y-4824000D01*
X3422160Y-4843048D01*
X3431683Y-4862095D01*
X3441207Y-4900190D01*
X3441207Y-4928762D01*
X3431683Y-4966857D01*
X3422160Y-4985905D01*
X3403112Y-5004952D01*
X3374541Y-5014476D01*
X3326922Y-5014476D01*
X3526922Y-5014476D02*
X3526922Y-4881143D01*
X3526922Y-4919238D02*
X3536445Y-4900190D01*
X3545969Y-4890667D01*
X3565017Y-4881143D01*
X3584064Y-4881143D01*
X3650731Y-5014476D02*
X3650731Y-4881143D01*
X3650731Y-4814476D02*
X3641207Y-4824000D01*
X3650731Y-4833524D01*
X3660255Y-4824000D01*
X3650731Y-4814476D01*
X3650731Y-4833524D01*
X3774541Y-5014476D02*
X3755493Y-5004952D01*
X3745969Y-4985905D01*
X3745969Y-4814476D01*
X3879303Y-5014476D02*
X3860255Y-5004952D01*
X3850731Y-4985905D01*
X3850731Y-4814476D01*
X4107874Y-5014476D02*
X4107874Y-4814476D01*
X4174541Y-4957333D01*
X4241207Y-4814476D01*
X4241207Y-5014476D01*
X4422160Y-5014476D02*
X4422160Y-4909714D01*
X4412636Y-4890667D01*
X4393588Y-4881143D01*
X4355493Y-4881143D01*
X4336445Y-4890667D01*
X4422160Y-5004952D02*
X4403112Y-5014476D01*
X4355493Y-5014476D01*
X4336445Y-5004952D01*
X4326922Y-4985905D01*
X4326922Y-4966857D01*
X4336445Y-4947810D01*
X4355493Y-4938286D01*
X4403112Y-4938286D01*
X4422160Y-4928762D01*
X4517398Y-4881143D02*
X4517398Y-5081143D01*
X4517398Y-4890667D02*
X4536445Y-4881143D01*
X4574541Y-4881143D01*
X4593588Y-4890667D01*
X4603112Y-4900190D01*
X4612636Y-4919238D01*
X4612636Y-4976381D01*
X4603112Y-4995429D01*
X4593588Y-5004952D01*
X4574541Y-5014476D01*
X4536445Y-5014476D01*
X4517398Y-5004952D01*
X4698350Y-4995429D02*
X4707874Y-5004952D01*
X4698350Y-5014476D01*
X4688826Y-5004952D01*
X4698350Y-4995429D01*
X4698350Y-5014476D01*
X4698350Y-4890667D02*
X4707874Y-4900190D01*
X4698350Y-4909714D01*
X4688826Y-4900190D01*
X4698350Y-4890667D01*
X4698350Y-4909714D01*
M02*
