%TF.GenerationSoftware,KiCad,Pcbnew,(6.0.8)*%
%TF.CreationDate,2023-02-11T17:00:48+01:00*%
%TF.ProjectId,BTS50010_TestBoard,42545335-3030-4313-905f-54657374426f,rev?*%
%TF.SameCoordinates,Original*%
%TF.FileFunction,Drillmap*%
%TF.FilePolarity,Positive*%
%FSLAX45Y45*%
G04 Gerber Fmt 4.5, Leading zero omitted, Abs format (unit mm)*
G04 Created by KiCad (PCBNEW (6.0.8)) date 2023-02-11 17:00:48*
%MOMM*%
%LPD*%
G01*
G04 APERTURE LIST*
%ADD10C,0.100000*%
%ADD11C,0.200000*%
%ADD12C,0.040000*%
%ADD13C,0.320000*%
G04 APERTURE END LIST*
D10*
X6781800Y-4572000D02*
X6780897Y-2667903D01*
X3201303Y-2540903D02*
X6653897Y-2540903D01*
X3074303Y-4571097D02*
X3074303Y-2667903D01*
X6654800Y-4699000D02*
X3201303Y-4698097D01*
X3201303Y-2540903D02*
G75*
G03*
X3074303Y-2667903I-3J-126997D01*
G01*
X3074303Y-4571097D02*
G75*
G03*
X3201303Y-4698097I126997J-3D01*
G01*
X6654800Y-4699000D02*
G75*
G03*
X6781800Y-4572000I0J127000D01*
G01*
X6780897Y-2667903D02*
G75*
G03*
X6653897Y-2540903I-126997J3D01*
G01*
D11*
D12*
X4272600Y-4272600D02*
X4312600Y-4312600D01*
X4312600Y-4272600D02*
X4272600Y-4312600D01*
X5237800Y-4069400D02*
X5277800Y-4109400D01*
X5277800Y-4069400D02*
X5237800Y-4109400D01*
X5606100Y-3764600D02*
X5646100Y-3804600D01*
X5646100Y-3764600D02*
X5606100Y-3804600D01*
X5644200Y-3917000D02*
X5684200Y-3957000D01*
X5684200Y-3917000D02*
X5644200Y-3957000D01*
X6088700Y-3942400D02*
X6128700Y-3982400D01*
X6128700Y-3942400D02*
X6088700Y-3982400D01*
X6380800Y-3942400D02*
X6420800Y-3982400D01*
X6420800Y-3942400D02*
X6380800Y-3982400D01*
D10*
X5739600Y-4165600D02*
G75*
G03*
X5739600Y-4165600I-50000J0D01*
G01*
X5993600Y-4165600D02*
G75*
G03*
X5993600Y-4165600I-50000J0D01*
G01*
X6247600Y-4165600D02*
G75*
G03*
X6247600Y-4165600I-50000J0D01*
G01*
X6501600Y-4165600D02*
G75*
G03*
X6501600Y-4165600I-50000J0D01*
G01*
D13*
X3556000Y-2938800D02*
X3556000Y-3258800D01*
X3396000Y-3098800D02*
X3716000Y-3098800D01*
X6146800Y-2938800D02*
X6146800Y-3258800D01*
X5986800Y-3098800D02*
X6306800Y-3098800D01*
D11*
X3326922Y-5014476D02*
X3326922Y-4814476D01*
X3374541Y-4814476D01*
X3403112Y-4824000D01*
X3422160Y-4843048D01*
X3431683Y-4862095D01*
X3441207Y-4900190D01*
X3441207Y-4928762D01*
X3431683Y-4966857D01*
X3422160Y-4985905D01*
X3403112Y-5004952D01*
X3374541Y-5014476D01*
X3326922Y-5014476D01*
X3526922Y-5014476D02*
X3526922Y-4881143D01*
X3526922Y-4919238D02*
X3536445Y-4900190D01*
X3545969Y-4890667D01*
X3565017Y-4881143D01*
X3584064Y-4881143D01*
X3650731Y-5014476D02*
X3650731Y-4881143D01*
X3650731Y-4814476D02*
X3641207Y-4824000D01*
X3650731Y-4833524D01*
X3660255Y-4824000D01*
X3650731Y-4814476D01*
X3650731Y-4833524D01*
X3774541Y-5014476D02*
X3755493Y-5004952D01*
X3745969Y-4985905D01*
X3745969Y-4814476D01*
X3879303Y-5014476D02*
X3860255Y-5004952D01*
X3850731Y-4985905D01*
X3850731Y-4814476D01*
X4107874Y-5014476D02*
X4107874Y-4814476D01*
X4174541Y-4957333D01*
X4241207Y-4814476D01*
X4241207Y-5014476D01*
X4422160Y-5014476D02*
X4422160Y-4909714D01*
X4412636Y-4890667D01*
X4393588Y-4881143D01*
X4355493Y-4881143D01*
X4336445Y-4890667D01*
X4422160Y-5004952D02*
X4403112Y-5014476D01*
X4355493Y-5014476D01*
X4336445Y-5004952D01*
X4326922Y-4985905D01*
X4326922Y-4966857D01*
X4336445Y-4947810D01*
X4355493Y-4938286D01*
X4403112Y-4938286D01*
X4422160Y-4928762D01*
X4517398Y-4881143D02*
X4517398Y-5081143D01*
X4517398Y-4890667D02*
X4536445Y-4881143D01*
X4574541Y-4881143D01*
X4593588Y-4890667D01*
X4603112Y-4900190D01*
X4612636Y-4919238D01*
X4612636Y-4976381D01*
X4603112Y-4995429D01*
X4593588Y-5004952D01*
X4574541Y-5014476D01*
X4536445Y-5014476D01*
X4517398Y-5004952D01*
X4698350Y-4995429D02*
X4707874Y-5004952D01*
X4698350Y-5014476D01*
X4688826Y-5004952D01*
X4698350Y-4995429D01*
X4698350Y-5014476D01*
X4698350Y-4890667D02*
X4707874Y-4900190D01*
X4698350Y-4909714D01*
X4688826Y-4900190D01*
X4698350Y-4890667D01*
X4698350Y-4909714D01*
D12*
X3029303Y-5324000D02*
X3069303Y-5364000D01*
X3069303Y-5324000D02*
X3029303Y-5364000D01*
D11*
X3365017Y-5234476D02*
X3384064Y-5234476D01*
X3403112Y-5244000D01*
X3412636Y-5253524D01*
X3422160Y-5272571D01*
X3431683Y-5310667D01*
X3431683Y-5358286D01*
X3422160Y-5396381D01*
X3412636Y-5415429D01*
X3403112Y-5424952D01*
X3384064Y-5434476D01*
X3365017Y-5434476D01*
X3345969Y-5424952D01*
X3336445Y-5415429D01*
X3326922Y-5396381D01*
X3317398Y-5358286D01*
X3317398Y-5310667D01*
X3326922Y-5272571D01*
X3336445Y-5253524D01*
X3345969Y-5244000D01*
X3365017Y-5234476D01*
X3517398Y-5415429D02*
X3526922Y-5424952D01*
X3517398Y-5434476D01*
X3507874Y-5424952D01*
X3517398Y-5415429D01*
X3517398Y-5434476D01*
X3698350Y-5301143D02*
X3698350Y-5434476D01*
X3650731Y-5224952D02*
X3603112Y-5367810D01*
X3726922Y-5367810D01*
X3841207Y-5234476D02*
X3860255Y-5234476D01*
X3879303Y-5244000D01*
X3888826Y-5253524D01*
X3898350Y-5272571D01*
X3907874Y-5310667D01*
X3907874Y-5358286D01*
X3898350Y-5396381D01*
X3888826Y-5415429D01*
X3879303Y-5424952D01*
X3860255Y-5434476D01*
X3841207Y-5434476D01*
X3822160Y-5424952D01*
X3812636Y-5415429D01*
X3803112Y-5396381D01*
X3793588Y-5358286D01*
X3793588Y-5310667D01*
X3803112Y-5272571D01*
X3812636Y-5253524D01*
X3822160Y-5244000D01*
X3841207Y-5234476D01*
X4031683Y-5234476D02*
X4050731Y-5234476D01*
X4069779Y-5244000D01*
X4079303Y-5253524D01*
X4088826Y-5272571D01*
X4098350Y-5310667D01*
X4098350Y-5358286D01*
X4088826Y-5396381D01*
X4079303Y-5415429D01*
X4069779Y-5424952D01*
X4050731Y-5434476D01*
X4031683Y-5434476D01*
X4012636Y-5424952D01*
X4003112Y-5415429D01*
X3993588Y-5396381D01*
X3984064Y-5358286D01*
X3984064Y-5310667D01*
X3993588Y-5272571D01*
X4003112Y-5253524D01*
X4012636Y-5244000D01*
X4031683Y-5234476D01*
X4184064Y-5434476D02*
X4184064Y-5301143D01*
X4184064Y-5320190D02*
X4193588Y-5310667D01*
X4212636Y-5301143D01*
X4241207Y-5301143D01*
X4260255Y-5310667D01*
X4269779Y-5329714D01*
X4269779Y-5434476D01*
X4269779Y-5329714D02*
X4279303Y-5310667D01*
X4298350Y-5301143D01*
X4326922Y-5301143D01*
X4345969Y-5310667D01*
X4355493Y-5329714D01*
X4355493Y-5434476D01*
X4450731Y-5434476D02*
X4450731Y-5301143D01*
X4450731Y-5320190D02*
X4460255Y-5310667D01*
X4479303Y-5301143D01*
X4507874Y-5301143D01*
X4526922Y-5310667D01*
X4536445Y-5329714D01*
X4536445Y-5434476D01*
X4536445Y-5329714D02*
X4545969Y-5310667D01*
X4565017Y-5301143D01*
X4593588Y-5301143D01*
X4612636Y-5310667D01*
X4622160Y-5329714D01*
X4622160Y-5434476D01*
X5012636Y-5224952D02*
X4841207Y-5482095D01*
X5269779Y-5234476D02*
X5288826Y-5234476D01*
X5307874Y-5244000D01*
X5317398Y-5253524D01*
X5326922Y-5272571D01*
X5336445Y-5310667D01*
X5336445Y-5358286D01*
X5326922Y-5396381D01*
X5317398Y-5415429D01*
X5307874Y-5424952D01*
X5288826Y-5434476D01*
X5269779Y-5434476D01*
X5250731Y-5424952D01*
X5241207Y-5415429D01*
X5231684Y-5396381D01*
X5222160Y-5358286D01*
X5222160Y-5310667D01*
X5231684Y-5272571D01*
X5241207Y-5253524D01*
X5250731Y-5244000D01*
X5269779Y-5234476D01*
X5422160Y-5415429D02*
X5431684Y-5424952D01*
X5422160Y-5434476D01*
X5412636Y-5424952D01*
X5422160Y-5415429D01*
X5422160Y-5434476D01*
X5555493Y-5234476D02*
X5574541Y-5234476D01*
X5593588Y-5244000D01*
X5603112Y-5253524D01*
X5612636Y-5272571D01*
X5622160Y-5310667D01*
X5622160Y-5358286D01*
X5612636Y-5396381D01*
X5603112Y-5415429D01*
X5593588Y-5424952D01*
X5574541Y-5434476D01*
X5555493Y-5434476D01*
X5536445Y-5424952D01*
X5526922Y-5415429D01*
X5517398Y-5396381D01*
X5507874Y-5358286D01*
X5507874Y-5310667D01*
X5517398Y-5272571D01*
X5526922Y-5253524D01*
X5536445Y-5244000D01*
X5555493Y-5234476D01*
X5812636Y-5434476D02*
X5698350Y-5434476D01*
X5755493Y-5434476D02*
X5755493Y-5234476D01*
X5736445Y-5263048D01*
X5717398Y-5282095D01*
X5698350Y-5291619D01*
X5993588Y-5234476D02*
X5898350Y-5234476D01*
X5888826Y-5329714D01*
X5898350Y-5320190D01*
X5917398Y-5310667D01*
X5965017Y-5310667D01*
X5984064Y-5320190D01*
X5993588Y-5329714D01*
X6003112Y-5348762D01*
X6003112Y-5396381D01*
X5993588Y-5415429D01*
X5984064Y-5424952D01*
X5965017Y-5434476D01*
X5917398Y-5434476D01*
X5898350Y-5424952D01*
X5888826Y-5415429D01*
X6069779Y-5234476D02*
X6203112Y-5234476D01*
X6117398Y-5434476D01*
X6269779Y-5234476D02*
X6269779Y-5272571D01*
X6345969Y-5234476D02*
X6345969Y-5272571D01*
X6641207Y-5510667D02*
X6631683Y-5501143D01*
X6612636Y-5472571D01*
X6603112Y-5453524D01*
X6593588Y-5424952D01*
X6584064Y-5377333D01*
X6584064Y-5339238D01*
X6593588Y-5291619D01*
X6603112Y-5263048D01*
X6612636Y-5244000D01*
X6631683Y-5215429D01*
X6641207Y-5205905D01*
X6803112Y-5234476D02*
X6765017Y-5234476D01*
X6745969Y-5244000D01*
X6736445Y-5253524D01*
X6717398Y-5282095D01*
X6707874Y-5320190D01*
X6707874Y-5396381D01*
X6717398Y-5415429D01*
X6726922Y-5424952D01*
X6745969Y-5434476D01*
X6784064Y-5434476D01*
X6803112Y-5424952D01*
X6812636Y-5415429D01*
X6822160Y-5396381D01*
X6822160Y-5348762D01*
X6812636Y-5329714D01*
X6803112Y-5320190D01*
X6784064Y-5310667D01*
X6745969Y-5310667D01*
X6726922Y-5320190D01*
X6717398Y-5329714D01*
X6707874Y-5348762D01*
X7060255Y-5434476D02*
X7060255Y-5234476D01*
X7145969Y-5434476D02*
X7145969Y-5329714D01*
X7136445Y-5310667D01*
X7117398Y-5301143D01*
X7088826Y-5301143D01*
X7069779Y-5310667D01*
X7060255Y-5320190D01*
X7269779Y-5434476D02*
X7250731Y-5424952D01*
X7241207Y-5415429D01*
X7231683Y-5396381D01*
X7231683Y-5339238D01*
X7241207Y-5320190D01*
X7250731Y-5310667D01*
X7269779Y-5301143D01*
X7298350Y-5301143D01*
X7317398Y-5310667D01*
X7326922Y-5320190D01*
X7336445Y-5339238D01*
X7336445Y-5396381D01*
X7326922Y-5415429D01*
X7317398Y-5424952D01*
X7298350Y-5434476D01*
X7269779Y-5434476D01*
X7450731Y-5434476D02*
X7431683Y-5424952D01*
X7422160Y-5405905D01*
X7422160Y-5234476D01*
X7603112Y-5424952D02*
X7584064Y-5434476D01*
X7545969Y-5434476D01*
X7526922Y-5424952D01*
X7517398Y-5405905D01*
X7517398Y-5329714D01*
X7526922Y-5310667D01*
X7545969Y-5301143D01*
X7584064Y-5301143D01*
X7603112Y-5310667D01*
X7612636Y-5329714D01*
X7612636Y-5348762D01*
X7517398Y-5367810D01*
X7688826Y-5424952D02*
X7707874Y-5434476D01*
X7745969Y-5434476D01*
X7765017Y-5424952D01*
X7774541Y-5405905D01*
X7774541Y-5396381D01*
X7765017Y-5377333D01*
X7745969Y-5367810D01*
X7717398Y-5367810D01*
X7698350Y-5358286D01*
X7688826Y-5339238D01*
X7688826Y-5329714D01*
X7698350Y-5310667D01*
X7717398Y-5301143D01*
X7745969Y-5301143D01*
X7765017Y-5310667D01*
X7841207Y-5510667D02*
X7850731Y-5501143D01*
X7869779Y-5472571D01*
X7879302Y-5453524D01*
X7888826Y-5424952D01*
X7898350Y-5377333D01*
X7898350Y-5339238D01*
X7888826Y-5291619D01*
X7879302Y-5263048D01*
X7869779Y-5244000D01*
X7850731Y-5215429D01*
X7841207Y-5205905D01*
D10*
X3069303Y-5608000D02*
G75*
G03*
X3069303Y-5608000I-50000J0D01*
G01*
D11*
X3431683Y-5698476D02*
X3317398Y-5698476D01*
X3374541Y-5698476D02*
X3374541Y-5498476D01*
X3355493Y-5527048D01*
X3336445Y-5546095D01*
X3317398Y-5555619D01*
X3517398Y-5679428D02*
X3526922Y-5688952D01*
X3517398Y-5698476D01*
X3507874Y-5688952D01*
X3517398Y-5679428D01*
X3517398Y-5698476D01*
X3650731Y-5498476D02*
X3669779Y-5498476D01*
X3688826Y-5508000D01*
X3698350Y-5517524D01*
X3707874Y-5536571D01*
X3717398Y-5574667D01*
X3717398Y-5622286D01*
X3707874Y-5660381D01*
X3698350Y-5679428D01*
X3688826Y-5688952D01*
X3669779Y-5698476D01*
X3650731Y-5698476D01*
X3631683Y-5688952D01*
X3622160Y-5679428D01*
X3612636Y-5660381D01*
X3603112Y-5622286D01*
X3603112Y-5574667D01*
X3612636Y-5536571D01*
X3622160Y-5517524D01*
X3631683Y-5508000D01*
X3650731Y-5498476D01*
X3841207Y-5498476D02*
X3860255Y-5498476D01*
X3879303Y-5508000D01*
X3888826Y-5517524D01*
X3898350Y-5536571D01*
X3907874Y-5574667D01*
X3907874Y-5622286D01*
X3898350Y-5660381D01*
X3888826Y-5679428D01*
X3879303Y-5688952D01*
X3860255Y-5698476D01*
X3841207Y-5698476D01*
X3822160Y-5688952D01*
X3812636Y-5679428D01*
X3803112Y-5660381D01*
X3793588Y-5622286D01*
X3793588Y-5574667D01*
X3803112Y-5536571D01*
X3812636Y-5517524D01*
X3822160Y-5508000D01*
X3841207Y-5498476D01*
X4031683Y-5498476D02*
X4050731Y-5498476D01*
X4069779Y-5508000D01*
X4079303Y-5517524D01*
X4088826Y-5536571D01*
X4098350Y-5574667D01*
X4098350Y-5622286D01*
X4088826Y-5660381D01*
X4079303Y-5679428D01*
X4069779Y-5688952D01*
X4050731Y-5698476D01*
X4031683Y-5698476D01*
X4012636Y-5688952D01*
X4003112Y-5679428D01*
X3993588Y-5660381D01*
X3984064Y-5622286D01*
X3984064Y-5574667D01*
X3993588Y-5536571D01*
X4003112Y-5517524D01*
X4012636Y-5508000D01*
X4031683Y-5498476D01*
X4184064Y-5698476D02*
X4184064Y-5565143D01*
X4184064Y-5584190D02*
X4193588Y-5574667D01*
X4212636Y-5565143D01*
X4241207Y-5565143D01*
X4260255Y-5574667D01*
X4269779Y-5593714D01*
X4269779Y-5698476D01*
X4269779Y-5593714D02*
X4279303Y-5574667D01*
X4298350Y-5565143D01*
X4326922Y-5565143D01*
X4345969Y-5574667D01*
X4355493Y-5593714D01*
X4355493Y-5698476D01*
X4450731Y-5698476D02*
X4450731Y-5565143D01*
X4450731Y-5584190D02*
X4460255Y-5574667D01*
X4479303Y-5565143D01*
X4507874Y-5565143D01*
X4526922Y-5574667D01*
X4536445Y-5593714D01*
X4536445Y-5698476D01*
X4536445Y-5593714D02*
X4545969Y-5574667D01*
X4565017Y-5565143D01*
X4593588Y-5565143D01*
X4612636Y-5574667D01*
X4622160Y-5593714D01*
X4622160Y-5698476D01*
X5012636Y-5488952D02*
X4841207Y-5746095D01*
X5269779Y-5498476D02*
X5288826Y-5498476D01*
X5307874Y-5508000D01*
X5317398Y-5517524D01*
X5326922Y-5536571D01*
X5336445Y-5574667D01*
X5336445Y-5622286D01*
X5326922Y-5660381D01*
X5317398Y-5679428D01*
X5307874Y-5688952D01*
X5288826Y-5698476D01*
X5269779Y-5698476D01*
X5250731Y-5688952D01*
X5241207Y-5679428D01*
X5231684Y-5660381D01*
X5222160Y-5622286D01*
X5222160Y-5574667D01*
X5231684Y-5536571D01*
X5241207Y-5517524D01*
X5250731Y-5508000D01*
X5269779Y-5498476D01*
X5422160Y-5679428D02*
X5431684Y-5688952D01*
X5422160Y-5698476D01*
X5412636Y-5688952D01*
X5422160Y-5679428D01*
X5422160Y-5698476D01*
X5555493Y-5498476D02*
X5574541Y-5498476D01*
X5593588Y-5508000D01*
X5603112Y-5517524D01*
X5612636Y-5536571D01*
X5622160Y-5574667D01*
X5622160Y-5622286D01*
X5612636Y-5660381D01*
X5603112Y-5679428D01*
X5593588Y-5688952D01*
X5574541Y-5698476D01*
X5555493Y-5698476D01*
X5536445Y-5688952D01*
X5526922Y-5679428D01*
X5517398Y-5660381D01*
X5507874Y-5622286D01*
X5507874Y-5574667D01*
X5517398Y-5536571D01*
X5526922Y-5517524D01*
X5536445Y-5508000D01*
X5555493Y-5498476D01*
X5688826Y-5498476D02*
X5812636Y-5498476D01*
X5745969Y-5574667D01*
X5774541Y-5574667D01*
X5793588Y-5584190D01*
X5803112Y-5593714D01*
X5812636Y-5612762D01*
X5812636Y-5660381D01*
X5803112Y-5679428D01*
X5793588Y-5688952D01*
X5774541Y-5698476D01*
X5717398Y-5698476D01*
X5698350Y-5688952D01*
X5688826Y-5679428D01*
X5907874Y-5698476D02*
X5945969Y-5698476D01*
X5965017Y-5688952D01*
X5974541Y-5679428D01*
X5993588Y-5650857D01*
X6003112Y-5612762D01*
X6003112Y-5536571D01*
X5993588Y-5517524D01*
X5984064Y-5508000D01*
X5965017Y-5498476D01*
X5926922Y-5498476D01*
X5907874Y-5508000D01*
X5898350Y-5517524D01*
X5888826Y-5536571D01*
X5888826Y-5584190D01*
X5898350Y-5603238D01*
X5907874Y-5612762D01*
X5926922Y-5622286D01*
X5965017Y-5622286D01*
X5984064Y-5612762D01*
X5993588Y-5603238D01*
X6003112Y-5584190D01*
X6174541Y-5565143D02*
X6174541Y-5698476D01*
X6126922Y-5488952D02*
X6079302Y-5631809D01*
X6203112Y-5631809D01*
X6269779Y-5498476D02*
X6269779Y-5536571D01*
X6345969Y-5498476D02*
X6345969Y-5536571D01*
X6641207Y-5774667D02*
X6631683Y-5765143D01*
X6612636Y-5736571D01*
X6603112Y-5717524D01*
X6593588Y-5688952D01*
X6584064Y-5641333D01*
X6584064Y-5603238D01*
X6593588Y-5555619D01*
X6603112Y-5527048D01*
X6612636Y-5508000D01*
X6631683Y-5479429D01*
X6641207Y-5469905D01*
X6803112Y-5565143D02*
X6803112Y-5698476D01*
X6755493Y-5488952D02*
X6707874Y-5631809D01*
X6831683Y-5631809D01*
X7060255Y-5698476D02*
X7060255Y-5498476D01*
X7145969Y-5698476D02*
X7145969Y-5593714D01*
X7136445Y-5574667D01*
X7117398Y-5565143D01*
X7088826Y-5565143D01*
X7069779Y-5574667D01*
X7060255Y-5584190D01*
X7269779Y-5698476D02*
X7250731Y-5688952D01*
X7241207Y-5679428D01*
X7231683Y-5660381D01*
X7231683Y-5603238D01*
X7241207Y-5584190D01*
X7250731Y-5574667D01*
X7269779Y-5565143D01*
X7298350Y-5565143D01*
X7317398Y-5574667D01*
X7326922Y-5584190D01*
X7336445Y-5603238D01*
X7336445Y-5660381D01*
X7326922Y-5679428D01*
X7317398Y-5688952D01*
X7298350Y-5698476D01*
X7269779Y-5698476D01*
X7450731Y-5698476D02*
X7431683Y-5688952D01*
X7422160Y-5669905D01*
X7422160Y-5498476D01*
X7603112Y-5688952D02*
X7584064Y-5698476D01*
X7545969Y-5698476D01*
X7526922Y-5688952D01*
X7517398Y-5669905D01*
X7517398Y-5593714D01*
X7526922Y-5574667D01*
X7545969Y-5565143D01*
X7584064Y-5565143D01*
X7603112Y-5574667D01*
X7612636Y-5593714D01*
X7612636Y-5612762D01*
X7517398Y-5631809D01*
X7688826Y-5688952D02*
X7707874Y-5698476D01*
X7745969Y-5698476D01*
X7765017Y-5688952D01*
X7774541Y-5669905D01*
X7774541Y-5660381D01*
X7765017Y-5641333D01*
X7745969Y-5631809D01*
X7717398Y-5631809D01*
X7698350Y-5622286D01*
X7688826Y-5603238D01*
X7688826Y-5593714D01*
X7698350Y-5574667D01*
X7717398Y-5565143D01*
X7745969Y-5565143D01*
X7765017Y-5574667D01*
X7841207Y-5774667D02*
X7850731Y-5765143D01*
X7869779Y-5736571D01*
X7879302Y-5717524D01*
X7888826Y-5688952D01*
X7898350Y-5641333D01*
X7898350Y-5603238D01*
X7888826Y-5555619D01*
X7879302Y-5527048D01*
X7869779Y-5508000D01*
X7850731Y-5479429D01*
X7841207Y-5469905D01*
X2969303Y-5772000D02*
X2969303Y-5972000D01*
X2869303Y-5872000D02*
X3069303Y-5872000D01*
X3307874Y-5762476D02*
X3431683Y-5762476D01*
X3365017Y-5838667D01*
X3393588Y-5838667D01*
X3412636Y-5848190D01*
X3422160Y-5857714D01*
X3431683Y-5876762D01*
X3431683Y-5924381D01*
X3422160Y-5943428D01*
X3412636Y-5952952D01*
X3393588Y-5962476D01*
X3336445Y-5962476D01*
X3317398Y-5952952D01*
X3307874Y-5943428D01*
X3517398Y-5943428D02*
X3526922Y-5952952D01*
X3517398Y-5962476D01*
X3507874Y-5952952D01*
X3517398Y-5943428D01*
X3517398Y-5962476D01*
X3603112Y-5781524D02*
X3612636Y-5772000D01*
X3631683Y-5762476D01*
X3679303Y-5762476D01*
X3698350Y-5772000D01*
X3707874Y-5781524D01*
X3717398Y-5800571D01*
X3717398Y-5819619D01*
X3707874Y-5848190D01*
X3593588Y-5962476D01*
X3717398Y-5962476D01*
X3841207Y-5762476D02*
X3860255Y-5762476D01*
X3879303Y-5772000D01*
X3888826Y-5781524D01*
X3898350Y-5800571D01*
X3907874Y-5838667D01*
X3907874Y-5886286D01*
X3898350Y-5924381D01*
X3888826Y-5943428D01*
X3879303Y-5952952D01*
X3860255Y-5962476D01*
X3841207Y-5962476D01*
X3822160Y-5952952D01*
X3812636Y-5943428D01*
X3803112Y-5924381D01*
X3793588Y-5886286D01*
X3793588Y-5838667D01*
X3803112Y-5800571D01*
X3812636Y-5781524D01*
X3822160Y-5772000D01*
X3841207Y-5762476D01*
X4031683Y-5762476D02*
X4050731Y-5762476D01*
X4069779Y-5772000D01*
X4079303Y-5781524D01*
X4088826Y-5800571D01*
X4098350Y-5838667D01*
X4098350Y-5886286D01*
X4088826Y-5924381D01*
X4079303Y-5943428D01*
X4069779Y-5952952D01*
X4050731Y-5962476D01*
X4031683Y-5962476D01*
X4012636Y-5952952D01*
X4003112Y-5943428D01*
X3993588Y-5924381D01*
X3984064Y-5886286D01*
X3984064Y-5838667D01*
X3993588Y-5800571D01*
X4003112Y-5781524D01*
X4012636Y-5772000D01*
X4031683Y-5762476D01*
X4184064Y-5962476D02*
X4184064Y-5829143D01*
X4184064Y-5848190D02*
X4193588Y-5838667D01*
X4212636Y-5829143D01*
X4241207Y-5829143D01*
X4260255Y-5838667D01*
X4269779Y-5857714D01*
X4269779Y-5962476D01*
X4269779Y-5857714D02*
X4279303Y-5838667D01*
X4298350Y-5829143D01*
X4326922Y-5829143D01*
X4345969Y-5838667D01*
X4355493Y-5857714D01*
X4355493Y-5962476D01*
X4450731Y-5962476D02*
X4450731Y-5829143D01*
X4450731Y-5848190D02*
X4460255Y-5838667D01*
X4479303Y-5829143D01*
X4507874Y-5829143D01*
X4526922Y-5838667D01*
X4536445Y-5857714D01*
X4536445Y-5962476D01*
X4536445Y-5857714D02*
X4545969Y-5838667D01*
X4565017Y-5829143D01*
X4593588Y-5829143D01*
X4612636Y-5838667D01*
X4622160Y-5857714D01*
X4622160Y-5962476D01*
X5012636Y-5752952D02*
X4841207Y-6010095D01*
X5269779Y-5762476D02*
X5288826Y-5762476D01*
X5307874Y-5772000D01*
X5317398Y-5781524D01*
X5326922Y-5800571D01*
X5336445Y-5838667D01*
X5336445Y-5886286D01*
X5326922Y-5924381D01*
X5317398Y-5943428D01*
X5307874Y-5952952D01*
X5288826Y-5962476D01*
X5269779Y-5962476D01*
X5250731Y-5952952D01*
X5241207Y-5943428D01*
X5231684Y-5924381D01*
X5222160Y-5886286D01*
X5222160Y-5838667D01*
X5231684Y-5800571D01*
X5241207Y-5781524D01*
X5250731Y-5772000D01*
X5269779Y-5762476D01*
X5422160Y-5943428D02*
X5431684Y-5952952D01*
X5422160Y-5962476D01*
X5412636Y-5952952D01*
X5422160Y-5943428D01*
X5422160Y-5962476D01*
X5622160Y-5962476D02*
X5507874Y-5962476D01*
X5565017Y-5962476D02*
X5565017Y-5762476D01*
X5545969Y-5791048D01*
X5526922Y-5810095D01*
X5507874Y-5819619D01*
X5698350Y-5781524D02*
X5707874Y-5772000D01*
X5726922Y-5762476D01*
X5774541Y-5762476D01*
X5793588Y-5772000D01*
X5803112Y-5781524D01*
X5812636Y-5800571D01*
X5812636Y-5819619D01*
X5803112Y-5848190D01*
X5688826Y-5962476D01*
X5812636Y-5962476D01*
X5984064Y-5762476D02*
X5945969Y-5762476D01*
X5926922Y-5772000D01*
X5917398Y-5781524D01*
X5898350Y-5810095D01*
X5888826Y-5848190D01*
X5888826Y-5924381D01*
X5898350Y-5943428D01*
X5907874Y-5952952D01*
X5926922Y-5962476D01*
X5965017Y-5962476D01*
X5984064Y-5952952D01*
X5993588Y-5943428D01*
X6003112Y-5924381D01*
X6003112Y-5876762D01*
X5993588Y-5857714D01*
X5984064Y-5848190D01*
X5965017Y-5838667D01*
X5926922Y-5838667D01*
X5907874Y-5848190D01*
X5898350Y-5857714D01*
X5888826Y-5876762D01*
X6126922Y-5762476D02*
X6145969Y-5762476D01*
X6165017Y-5772000D01*
X6174541Y-5781524D01*
X6184064Y-5800571D01*
X6193588Y-5838667D01*
X6193588Y-5886286D01*
X6184064Y-5924381D01*
X6174541Y-5943428D01*
X6165017Y-5952952D01*
X6145969Y-5962476D01*
X6126922Y-5962476D01*
X6107874Y-5952952D01*
X6098350Y-5943428D01*
X6088826Y-5924381D01*
X6079302Y-5886286D01*
X6079302Y-5838667D01*
X6088826Y-5800571D01*
X6098350Y-5781524D01*
X6107874Y-5772000D01*
X6126922Y-5762476D01*
X6269779Y-5762476D02*
X6269779Y-5800571D01*
X6345969Y-5762476D02*
X6345969Y-5800571D01*
X6641207Y-6038667D02*
X6631683Y-6029143D01*
X6612636Y-6000571D01*
X6603112Y-5981524D01*
X6593588Y-5952952D01*
X6584064Y-5905333D01*
X6584064Y-5867238D01*
X6593588Y-5819619D01*
X6603112Y-5791048D01*
X6612636Y-5772000D01*
X6631683Y-5743428D01*
X6641207Y-5733905D01*
X6707874Y-5781524D02*
X6717398Y-5772000D01*
X6736445Y-5762476D01*
X6784064Y-5762476D01*
X6803112Y-5772000D01*
X6812636Y-5781524D01*
X6822160Y-5800571D01*
X6822160Y-5819619D01*
X6812636Y-5848190D01*
X6698350Y-5962476D01*
X6822160Y-5962476D01*
X7060255Y-5962476D02*
X7060255Y-5762476D01*
X7145969Y-5962476D02*
X7145969Y-5857714D01*
X7136445Y-5838667D01*
X7117398Y-5829143D01*
X7088826Y-5829143D01*
X7069779Y-5838667D01*
X7060255Y-5848190D01*
X7269779Y-5962476D02*
X7250731Y-5952952D01*
X7241207Y-5943428D01*
X7231683Y-5924381D01*
X7231683Y-5867238D01*
X7241207Y-5848190D01*
X7250731Y-5838667D01*
X7269779Y-5829143D01*
X7298350Y-5829143D01*
X7317398Y-5838667D01*
X7326922Y-5848190D01*
X7336445Y-5867238D01*
X7336445Y-5924381D01*
X7326922Y-5943428D01*
X7317398Y-5952952D01*
X7298350Y-5962476D01*
X7269779Y-5962476D01*
X7450731Y-5962476D02*
X7431683Y-5952952D01*
X7422160Y-5933905D01*
X7422160Y-5762476D01*
X7603112Y-5952952D02*
X7584064Y-5962476D01*
X7545969Y-5962476D01*
X7526922Y-5952952D01*
X7517398Y-5933905D01*
X7517398Y-5857714D01*
X7526922Y-5838667D01*
X7545969Y-5829143D01*
X7584064Y-5829143D01*
X7603112Y-5838667D01*
X7612636Y-5857714D01*
X7612636Y-5876762D01*
X7517398Y-5895809D01*
X7688826Y-5952952D02*
X7707874Y-5962476D01*
X7745969Y-5962476D01*
X7765017Y-5952952D01*
X7774541Y-5933905D01*
X7774541Y-5924381D01*
X7765017Y-5905333D01*
X7745969Y-5895809D01*
X7717398Y-5895809D01*
X7698350Y-5886286D01*
X7688826Y-5867238D01*
X7688826Y-5857714D01*
X7698350Y-5838667D01*
X7717398Y-5829143D01*
X7745969Y-5829143D01*
X7765017Y-5838667D01*
X7841207Y-6038667D02*
X7850731Y-6029143D01*
X7869779Y-6000571D01*
X7879302Y-5981524D01*
X7888826Y-5952952D01*
X7898350Y-5905333D01*
X7898350Y-5867238D01*
X7888826Y-5819619D01*
X7879302Y-5791048D01*
X7869779Y-5772000D01*
X7850731Y-5743428D01*
X7841207Y-5733905D01*
M02*
