%TF.GenerationSoftware,KiCad,Pcbnew,(6.0.8)*%
%TF.CreationDate,2023-02-11T17:00:45+01:00*%
%TF.ProjectId,BTS50010_TestBoard,42545335-3030-4313-905f-54657374426f,rev?*%
%TF.SameCoordinates,Original*%
%TF.FileFunction,Copper,L1,Top*%
%TF.FilePolarity,Positive*%
%FSLAX46Y46*%
G04 Gerber Fmt 4.6, Leading zero omitted, Abs format (unit mm)*
G04 Created by KiCad (PCBNEW (6.0.8)) date 2023-02-11 17:00:45*
%MOMM*%
%LPD*%
G01*
G04 APERTURE LIST*
G04 Aperture macros list*
%AMRoundRect*
0 Rectangle with rounded corners*
0 $1 Rounding radius*
0 $2 $3 $4 $5 $6 $7 $8 $9 X,Y pos of 4 corners*
0 Add a 4 corners polygon primitive as box body*
4,1,4,$2,$3,$4,$5,$6,$7,$8,$9,$2,$3,0*
0 Add four circle primitives for the rounded corners*
1,1,$1+$1,$2,$3*
1,1,$1+$1,$4,$5*
1,1,$1+$1,$6,$7*
1,1,$1+$1,$8,$9*
0 Add four rect primitives between the rounded corners*
20,1,$1+$1,$2,$3,$4,$5,0*
20,1,$1+$1,$4,$5,$6,$7,0*
20,1,$1+$1,$6,$7,$8,$9,0*
20,1,$1+$1,$8,$9,$2,$3,0*%
G04 Aperture macros list end*
%TA.AperFunction,SMDPad,CuDef*%
%ADD10RoundRect,0.250000X-0.450000X0.350000X-0.450000X-0.350000X0.450000X-0.350000X0.450000X0.350000X0*%
%TD*%
%TA.AperFunction,SMDPad,CuDef*%
%ADD11RoundRect,0.250000X0.450000X-0.350000X0.450000X0.350000X-0.450000X0.350000X-0.450000X-0.350000X0*%
%TD*%
%TA.AperFunction,ConnectorPad*%
%ADD12C,5.700000*%
%TD*%
%TA.AperFunction,ComponentPad*%
%ADD13C,3.600000*%
%TD*%
%TA.AperFunction,SMDPad,CuDef*%
%ADD14RoundRect,0.250000X0.475000X-0.337500X0.475000X0.337500X-0.475000X0.337500X-0.475000X-0.337500X0*%
%TD*%
%TA.AperFunction,SMDPad,CuDef*%
%ADD15RoundRect,0.250000X-0.475000X0.337500X-0.475000X-0.337500X0.475000X-0.337500X0.475000X0.337500X0*%
%TD*%
%TA.AperFunction,SMDPad,CuDef*%
%ADD16R,3.700000X0.800000*%
%TD*%
%TA.AperFunction,SMDPad,CuDef*%
%ADD17R,8.000000X10.300000*%
%TD*%
%TA.AperFunction,SMDPad,CuDef*%
%ADD18R,2.500000X1.800000*%
%TD*%
%TA.AperFunction,ComponentPad*%
%ADD19R,1.700000X1.700000*%
%TD*%
%TA.AperFunction,ComponentPad*%
%ADD20O,1.700000X1.700000*%
%TD*%
%TA.AperFunction,ViaPad*%
%ADD21C,0.800000*%
%TD*%
%TA.AperFunction,Conductor*%
%ADD22C,0.250000*%
%TD*%
%TA.AperFunction,Conductor*%
%ADD23C,0.800000*%
%TD*%
%TA.AperFunction,Conductor*%
%ADD24C,0.400000*%
%TD*%
G04 APERTURE END LIST*
D10*
%TO.P,R1,1*%
%TO.N,Net-(R1-Pad1)*%
X60198000Y-36608000D03*
%TO.P,R1,2*%
%TO.N,GND*%
X60198000Y-38608000D03*
%TD*%
D11*
%TO.P,R2,1*%
%TO.N,SENSE*%
X62600250Y-38608000D03*
%TO.P,R2,2*%
%TO.N,Net-(R1-Pad1)*%
X62600250Y-36608000D03*
%TD*%
D12*
%TO.P,H2,1,1*%
%TO.N,OUT_VS*%
X61468000Y-30988000D03*
D13*
X61468000Y-30988000D03*
%TD*%
D14*
%TO.P,C2,2*%
%TO.N,IN_VS*%
X41656000Y-40132000D03*
%TO.P,C2,1*%
%TO.N,GND*%
X41656000Y-42207000D03*
%TD*%
D15*
%TO.P,C1,1*%
%TO.N,AUX_IN*%
X57912000Y-36533000D03*
%TO.P,C1,2*%
%TO.N,GND*%
X57912000Y-38608000D03*
%TD*%
D13*
%TO.P,H1,1,1*%
%TO.N,IN_VS*%
X35560000Y-30988000D03*
D12*
X35560000Y-30988000D03*
%TD*%
D14*
%TO.P,C3,1*%
%TO.N,GND*%
X65024000Y-38608000D03*
%TO.P,C3,2*%
%TO.N,OUT_VS*%
X65024000Y-36533000D03*
%TD*%
D16*
%TO.P,U1,1,GND*%
%TO.N,GND*%
X54335000Y-36830000D03*
%TO.P,U1,2,IN*%
%TO.N,AUX_IN*%
X54335000Y-35560000D03*
%TO.P,U1,3,IS*%
%TO.N,Net-(R1-Pad1)*%
X54335000Y-34290000D03*
%TO.P,U1,5,OUT*%
%TO.N,OUT_VS*%
X54335000Y-31750000D03*
%TO.P,U1,6,OUT*%
X54335000Y-30480000D03*
%TO.P,U1,7,OUT*%
X54335000Y-29210000D03*
D17*
%TO.P,U1,8,VS*%
%TO.N,IN_VS*%
X44335000Y-33020000D03*
%TD*%
D18*
%TO.P,D1,1,A1*%
%TO.N,IN_VS*%
X46800000Y-41910000D03*
%TO.P,D1,2,A2*%
%TO.N,GND*%
X50800000Y-41910000D03*
%TD*%
D19*
%TO.P,J1,1,Pin_1*%
%TO.N,OUT_VS*%
X64516000Y-41656000D03*
D20*
%TO.P,J1,2,Pin_2*%
%TO.N,SENSE*%
X61976000Y-41656000D03*
%TO.P,J1,3,Pin_3*%
%TO.N,AUX_IN*%
X59436000Y-41656000D03*
%TO.P,J1,4,Pin_4*%
%TO.N,GND*%
X56896000Y-41656000D03*
%TD*%
D21*
%TO.N,GND*%
X61087000Y-39624000D03*
X56261000Y-37846000D03*
X64008000Y-39624000D03*
X56642000Y-39370000D03*
X52578000Y-40894000D03*
X42926000Y-42926000D03*
%TD*%
D22*
%TO.N,Net-(R1-Pad1)*%
X60198000Y-36608000D02*
X62600250Y-36608000D01*
X57880000Y-34290000D02*
X60198000Y-36608000D01*
%TO.N,AUX_IN*%
X56939000Y-35560000D02*
X54335000Y-35560000D01*
D23*
%TO.N,IN_VS*%
X44335000Y-39445000D02*
X44335000Y-33020000D01*
D24*
%TO.N,GND*%
X64008000Y-39624000D02*
X65024000Y-38608000D01*
X61087000Y-39497000D02*
X60198000Y-38608000D01*
X61087000Y-39624000D02*
X61087000Y-39497000D01*
X57150000Y-39370000D02*
X57912000Y-38608000D01*
X56642000Y-39370000D02*
X57150000Y-39370000D01*
X55245000Y-36830000D02*
X56261000Y-37846000D01*
X54335000Y-36830000D02*
X55245000Y-36830000D01*
X51816000Y-40894000D02*
X50800000Y-41910000D01*
X52578000Y-40894000D02*
X51816000Y-40894000D01*
X42926000Y-42926000D02*
X42375000Y-42926000D01*
X42375000Y-42926000D02*
X41656000Y-42207000D01*
%TO.N,IN_VS*%
X41656000Y-35699000D02*
X44335000Y-33020000D01*
X41656000Y-40132000D02*
X41656000Y-35699000D01*
D22*
%TO.N,AUX_IN*%
X58962000Y-41182000D02*
X59436000Y-41656000D01*
X58962000Y-37583000D02*
X58962000Y-41182000D01*
X57912000Y-36533000D02*
X58962000Y-37583000D01*
X56939000Y-35560000D02*
X57912000Y-36533000D01*
%TO.N,Net-(R1-Pad1)*%
X54335000Y-34290000D02*
X57880000Y-34290000D01*
%TO.N,OUT_VS*%
X65024000Y-36533000D02*
X66074000Y-37583000D01*
X65024000Y-34544000D02*
X61468000Y-30988000D01*
X65024000Y-36533000D02*
X65024000Y-34544000D01*
D23*
X54335000Y-30480000D02*
X61468000Y-30480000D01*
D22*
X66074000Y-40098000D02*
X64516000Y-41656000D01*
D23*
X54335000Y-29210000D02*
X54335000Y-31750000D01*
D22*
X66074000Y-37583000D02*
X66074000Y-40098000D01*
D23*
%TO.N,IN_VS*%
X35560000Y-30988000D02*
X42303000Y-30988000D01*
X44335000Y-39445000D02*
X46800000Y-41910000D01*
X42303000Y-30988000D02*
X44335000Y-33020000D01*
D22*
%TO.N,SENSE*%
X61976000Y-39232250D02*
X61976000Y-41656000D01*
X62600250Y-38608000D02*
X61976000Y-39232250D01*
%TD*%
%TA.AperFunction,Conductor*%
%TO.N,OUT_VS*%
G36*
X64966121Y-27960002D02*
G01*
X65012614Y-28013658D01*
X65024000Y-28066000D01*
X65024000Y-33910000D01*
X65003998Y-33978121D01*
X64950342Y-34024614D01*
X64898000Y-34036000D01*
X58970000Y-34036000D01*
X58901879Y-34015998D01*
X58894400Y-34010800D01*
X56910493Y-32522870D01*
X56910494Y-32522870D01*
X56896000Y-32512000D01*
X52450000Y-32512000D01*
X52381879Y-32491998D01*
X52335386Y-32438342D01*
X52324000Y-32386000D01*
X52324000Y-28066000D01*
X52344002Y-27997879D01*
X52397658Y-27951386D01*
X52450000Y-27940000D01*
X64898000Y-27940000D01*
X64966121Y-27960002D01*
G37*
%TD.AperFunction*%
%TD*%
%TA.AperFunction,Conductor*%
%TO.N,IN_VS*%
G36*
X48202121Y-27960002D02*
G01*
X48248614Y-28013658D01*
X48260000Y-28066000D01*
X48260000Y-33910000D01*
X48239998Y-33978121D01*
X48186342Y-34024614D01*
X48134000Y-34036000D01*
X32638000Y-34036000D01*
X32569879Y-34015998D01*
X32523386Y-33962342D01*
X32512000Y-33910000D01*
X32512000Y-28066000D01*
X32532002Y-27997879D01*
X32585658Y-27951386D01*
X32638000Y-27940000D01*
X48134000Y-27940000D01*
X48202121Y-27960002D01*
G37*
%TD.AperFunction*%
%TD*%
M02*
