M48
; DRILL file {KiCad (6.0.8)} date Mon May 29 03:20:37 2023
; FORMAT={-:-/ absolute / inch / decimal}
; #@! TF.CreationDate,2023-05-29T03:20:37+02:00
; #@! TF.GenerationSoftware,Kicad,Pcbnew,(6.0.8)
; #@! TF.FileFunction,Plated,1,4,PTH
FMAT,2
INCH
; #@! TA.AperFunction,Plated,PTH,ViaDrill
T1C0.0118
; #@! TA.AperFunction,Plated,PTH,ViaDrill
T2C0.0130
; #@! TA.AperFunction,Plated,PTH,ViaDrill
T3C0.0150
; #@! TA.AperFunction,Plated,PTH,ViaDrill
T4C0.0157
; #@! TA.AperFunction,Plated,PTH,ComponentDrill
T5C0.0197
; #@! TA.AperFunction,Plated,PTH,ComponentDrill
T6C0.0256
; #@! TA.AperFunction,Plated,PTH,ComponentDrill
T7C0.0394
; #@! TA.AperFunction,Plated,PTH,ComponentDrill
T8C0.0472
; #@! TA.AperFunction,Plated,PTH,ComponentDrill
T9C0.0571
; #@! TA.AperFunction,Plated,PTH,ComponentDrill
T10C0.0591
; #@! TA.AperFunction,Plated,PTH,ComponentDrill
T11C0.1260
; #@! TA.AperFunction,Plated,PTH,ComponentDrill
T12C0.1339
%
G90
G05
T1
X0.725Y-4.305
X0.735Y-4.55
X0.775Y-4.305
X0.785Y-4.55
X0.8327Y-5.4705
X0.8445Y-5.5472
X0.8459Y-5.0376
X0.8494Y-5.5827
X0.877Y-4.4137
X0.89Y-4.08
X0.89Y-4.21
X0.895Y-4.305
X0.8999Y-5.0366
X0.9126Y-5.6434
X0.925Y-4.465
X0.925Y-4.49
X0.9262Y-5.4153
X0.9429Y-4.7844
X0.9429Y-5.4724
X0.95Y-5.605
X0.9567Y-5.4961
X0.9684Y-5.1014
X0.9793Y-4.8521
X0.9836Y-5.4186
X0.99Y-4.08
X0.99Y-4.21
X0.9931Y-4.3031
X1.0575Y-2.7275
X1.0617Y-5.3904
X1.0619Y-5.0185
X1.0737Y-4.4137
X1.0788Y-5.64
X1.09Y-4.08
X1.09Y-4.215
X1.0909Y-4.3059
X1.0937Y-5.0223
X1.1093Y-4.8415
X1.1171Y-4.8858
X1.12Y-4.4629
X1.12Y-4.49
X1.1216Y-5.2254
X1.14Y-4.94
X1.1496Y-5.5208
X1.1543Y-5.2243
X1.16Y-5.04
X1.1664Y-5.315
X1.185Y-5.265
X1.19Y-4.08
X1.19Y-4.21
X1.1909Y-4.3063
X1.1987Y-5.2261
X1.2343Y-3.4016
X1.24Y-4.08
X1.241Y-4.784
X1.2724Y-4.4117
X1.273Y-5.1025
X1.275Y-5.4213
X1.29Y-4.21
X1.29Y-4.3075
X1.2921Y-5.0776
X1.2953Y-5.2303
X1.3152Y-4.465
X1.3152Y-4.49
X1.3327Y-5.4567
X1.34Y-4.08
X1.3457Y-4.8496
X1.35Y-3.1596
X1.3642Y-5.4921
X1.385Y-4.21
X1.39Y-4.3079
X1.3965Y-5.0714
X1.3974Y-4.9468
X1.4051Y-4.9849
X1.4226Y-5.0974
X1.4273Y-5.0072
X1.437Y-5.5709
X1.44Y-4.09
X1.4414Y-5.5137
X1.4476Y-5.83
X1.46Y-6.22
X1.4744Y-4.4078
X1.48Y-5.78
X1.4882Y-5.2411
X1.49Y-4.215
X1.49Y-4.31
X1.4981Y-4.633
X1.52Y-5.905
X1.5276Y-5.8155
X1.535Y-4.09
X1.535Y-4.915
X1.5531Y-4.9823
X1.5685Y-5.7149
X1.58Y-5.82
X1.5812Y-4.7658
X1.5889Y-5.1688
X1.59Y-4.215
X1.59Y-4.31
X1.5903Y-5.4344
X1.5909Y-2.6909
X1.5935Y-4.4649
X1.5955Y-4.4905
X1.6146Y-5.187
X1.615Y-5.405
X1.618Y-3.1104
X1.64Y-2.745
X1.6404Y-5.445
X1.6444Y-5.1769
X1.66Y-5.895
X1.665Y-5.405
X1.6701Y-5.1969
X1.6831Y-3.1398
X1.7008Y-4.7835
X1.7028Y-5.6871
X1.7244Y-4.8071
X1.7323Y-5.6626
X1.7391Y-4.0955
X1.7421Y-2.7756
X1.7628Y-4.0748
X1.7717Y-6.0128
X1.7766Y-5.8482
X1.8151Y-5.585
X1.823Y-5.1819
X1.8274Y-5.7301
X1.8275Y-4.6411
X1.8396Y-4.1199
X1.85Y-4.45
X1.8504Y-4.6604
X1.876Y-5.7636
X1.8947Y-4.112
X1.8996Y-4.315
X1.9133Y-5.7144
X1.9223Y-4.0766
X1.9335Y-5.0179
X1.9358Y-4.8002
X1.939Y-5.2224
X1.9459Y-4.112
X1.9555Y-5.2728
X1.9633Y-5.1706
X1.9665Y-5.5965
X1.9733Y-5.638
X1.9862Y-4.9331
X1.9903Y-5.238
X1.995Y-4.445
X2.002Y-5.3622
X2.0081Y-5.185
X2.0207Y-6.0525
X2.0266Y-5.1251
X2.0324Y-5.5105
X2.0549Y-5.5727
X2.063Y-4.7507
X2.0713Y-4.872
X2.101Y-4.1134
X2.1122Y-4.4567
X2.1338Y-5.5312
X2.1394Y-5.0759
X2.1398Y-5.2678
X2.1484Y-5.6989
X2.1585Y-4.112
X2.16Y-4.315
X2.1751Y-5.9191
X2.1823Y-5.874
X2.1843Y-5.822
X2.186Y-4.0766
X2.1875Y-5.5123
X2.2028Y-6.0463
X2.2136Y-4.112
X2.22Y-3.13
X2.2301Y-4.8534
X2.235Y-2.75
X2.2369Y-5.3934
X2.246Y-4.508
X2.2539Y-4.4547
X2.2589Y-5.9242
X2.275Y-5.2
X2.282Y-4.774
X2.2961Y-4.8022
X2.3045Y-5.6989
X2.3082Y-4.6918
X2.33Y-4.915
X2.332Y-4.8258
X2.335Y-4.649
X2.3415Y-2.835
X2.3426Y-4.6914
X2.357Y-4.067
X2.36Y-2.63
X2.3622Y-5.9272
X2.3731Y-4.252
X2.3819Y-5.7808
X2.425Y-5.575
X2.4301Y-4.6876
X2.44Y-4.228
X2.455Y-5.5566
X2.4606Y-4.6797
X2.4803Y-4.439
X2.4803Y-5.2717
X2.4803Y-5.6123
X2.4944Y-4.6788
X2.5036Y-4.5548
X2.5119Y-4.5117
X2.5136Y-4.5846
X2.5197Y-4.3898
X2.5511Y-5.2121
X2.556Y-4.36
X2.556Y-4.458
X2.558Y-4.658
X2.5584Y-4.5644
X2.5591Y-4.6102
X2.5591Y-4.7008
X2.57Y-6.02
X2.575Y-5.45
X2.5818Y-5.251
X2.595Y-5.175
X2.604Y-5.2736
X2.605Y-5.4
X2.608Y-5.5945
X2.632Y-5.7146
X2.635Y-5.9
X2.636Y-5.09
X2.6632Y-4.42
X2.6832Y-5.9275
X2.6841Y-4.4451
X2.685Y-4.99
X2.685Y-5.5945
X2.6929Y-5.4417
X2.695Y-6.08
X2.6969Y-4.6457
X2.701Y-4.4716
X2.7312Y-5.417
X2.735Y-5.5945
X2.7382Y-4.8878
X2.7609Y-5.4066
X2.761Y-6.023
X2.766Y-5.462
X2.7755Y-6.0509
X2.79Y-4.7038
X2.79Y-5.3789
X2.7913Y-4.6457
X2.807Y-5.156
X2.808Y-5.088
X2.81Y-3.135
X2.824Y-5.7146
X2.825Y-4.3
X2.83Y-2.74
X2.8425Y-2.6811
X2.88Y-4.99
X2.88Y-5.5945
X2.884Y-5.465
X2.885Y-6.08
X2.9094Y-4.6398
X2.9235Y-5.38
X2.925Y-5.5945
X2.9546Y-5.431
X2.955Y-2.275
X2.955Y-6.02
X2.96Y-5.4
X2.965Y-5.4642
X2.975Y-5.5789
X2.9833Y-6.0063
X3.0Y-5.156
X3.014Y-5.7146
X3.015Y-4.415
X3.02Y-4.888
X3.02Y-5.5566
X3.024Y-5.09
X3.07Y-4.99
X3.075Y-5.5074
X3.075Y-5.5945
X3.08Y-5.465
X3.085Y-3.135
X3.085Y-6.08
X3.102Y-4.888
X3.1042Y-5.4368
X3.106Y-4.7943
X3.1097Y-3.045
X3.1159Y-3.1412
X3.12Y-5.5945
X3.1346Y-5.445
X3.146Y-5.41
X3.148Y-6.02
X3.149Y-4.4177
X3.1496Y-4.315
X3.1496Y-4.365
X3.1526Y-4.6066
X3.154Y-4.716
X3.156Y-4.51
X3.165Y-6.055
X3.1831Y-4.3957
X3.1853Y-4.3015
X3.188Y-4.894
X3.188Y-5.156
X3.196Y-4.7943
X3.206Y-5.7146
X3.218Y-5.088
X3.2304Y-4.4827
X3.248Y-4.5441
X3.2512Y-4.4272
X3.265Y-4.99
X3.265Y-5.5945
X3.268Y-4.794
X3.274Y-5.465
X3.2779Y-4.2507
X3.28Y-6.08
X3.334Y-5.41
X3.34Y-6.02
X3.3465Y-6.1024
X3.35Y-4.625
X3.3548Y-4.3005
X3.3969Y-4.2957
X3.435Y-2.745
X3.4547Y-6.063
X3.48Y-5.465
X3.48Y-5.585
X3.49Y-5.415
X3.4902Y-4.934
X3.5138Y-6.0531
X3.54Y-4.934
X3.554Y-5.494
X3.554Y-5.5294
X3.554Y-5.5649
X3.5894Y-5.494
X3.5894Y-5.5294
X3.5894Y-5.5649
X3.59Y-4.934
X3.6162Y-4.3546
X3.6162Y-4.39
X3.6162Y-4.4255
X3.6249Y-5.494
X3.6249Y-5.5294
X3.6249Y-5.5649
X3.642Y-4.9392
X3.6477Y-4.3533
X3.6477Y-4.3888
X3.6477Y-4.4242
X3.652Y-5.248
X3.652Y-5.284
X3.652Y-5.32
X3.6882Y-4.3543
X3.6882Y-4.3898
X3.6882Y-4.4252
X3.6886Y-5.32
X3.7073Y-5.777
X3.7197Y-4.3546
X3.7197Y-4.3901
X3.7197Y-4.4255
X3.724Y-5.32
X3.7323Y-5.777
X3.7362Y-4.9429
X3.7566Y-5.2491
X3.7566Y-5.2846
X3.7566Y-5.32
X3.7573Y-5.777
X3.7767Y-4.9446
X3.7823Y-5.777
X3.792Y-5.2491
X3.792Y-5.2846
X3.792Y-5.32
X3.792Y-5.592
X3.818Y-5.564
X3.8189Y-4.9429
X3.848Y-5.496
X3.8551Y-5.5471
X3.8622Y-4.9409
X3.8624Y-5.4584
X3.8747Y-5.2456
X3.9007Y-5.2456
X3.9085Y-2.6476
X3.9267Y-5.2456
X3.927Y-4.893
X3.954Y-5.428
X3.964Y-5.663
X3.965Y-5.716
X3.984Y-2.706
X3.995Y-3.995
X4.0175Y-3.1276
X4.02Y-4.02
X4.0376Y-2.747
X4.05Y-3.995
X4.075Y-4.45
X4.0761Y-4.8679
X4.1831Y-5.876
X4.2717Y-5.7972
X4.2717Y-5.8268
X4.2717Y-5.8563
X4.2816Y-4.8892
X4.3307Y-4.9272
X4.3957Y-4.9291
X4.426Y-4.3538
X4.426Y-4.3892
X4.426Y-4.4246
X4.4488Y-4.9311
X4.4575Y-4.3525
X4.4575Y-4.3879
X4.4575Y-4.4233
X4.498Y-4.3535
X4.498Y-4.3889
X4.498Y-4.4243
X4.5295Y-4.3538
X4.5295Y-4.3892
X4.5295Y-4.4246
X4.5512Y-4.9311
X4.5965Y-4.9311
X4.63Y-2.715
X4.6457Y-4.9311
X4.6949Y-4.9311
X4.776Y-4.1375
X4.813Y-4.1128
X4.85Y-4.0882
X4.854Y-4.0
X4.868Y-3.011
X4.8812Y-4.016
X4.8819Y-4.0501
X4.895Y-3.055
X4.9105Y-3.155
X5.1828Y-3.135
X5.2106Y-2.7146
X5.232Y-2.738
X5.2756Y-2.6378
T2
X1.6287Y-6.2637
X1.6291Y-6.2336
X1.9087Y-6.2637
X1.9091Y-6.2336
X2.1122Y-6.2595
X2.1126Y-6.2295
X2.3076Y-6.2332
X2.3076Y-6.2632
X2.5076Y-6.2332
X2.5076Y-6.2632
X2.584Y-4.863
X2.7126Y-6.2332
X2.7126Y-6.2632
X2.9126Y-6.2332
X2.9126Y-6.2632
X3.1126Y-6.2332
X3.1126Y-6.2632
X3.3126Y-6.2332
X3.3126Y-6.2632
X3.3359Y-4.8681
X3.442Y-4.936
X3.4506Y-4.6939
X3.4506Y-4.7239
X3.4736Y-4.3542
X3.4736Y-4.3896
X3.4736Y-4.4251
X3.4806Y-4.6939
X3.4806Y-4.7239
X3.4906Y-4.7539
X3.5071Y-4.3546
X3.5071Y-4.39
X3.5071Y-4.4255
X3.5126Y-6.2332
X3.5126Y-6.2632
X3.5425Y-4.3546
X3.5425Y-4.39
X3.5425Y-4.4255
X3.578Y-4.3546
X3.578Y-4.39
X3.578Y-4.4255
X3.69Y-4.9409
X3.7126Y-6.2332
X3.7126Y-6.2632
X3.7548Y-5.7294
X3.7614Y-4.3538
X3.7614Y-4.3893
X3.7614Y-4.4247
X3.7949Y-4.3542
X3.7949Y-4.3896
X3.7949Y-4.4251
X3.8303Y-4.3542
X3.8303Y-4.3896
X3.8303Y-4.4251
X3.8606Y-4.7739
X3.8657Y-4.3542
X3.8657Y-4.3896
X3.8657Y-4.4251
X3.9126Y-6.2332
X3.9126Y-6.2632
X3.9489Y-4.4204
X3.9606Y-4.6839
X3.9789Y-4.4204
X4.1126Y-6.2332
X4.1126Y-6.2632
X4.1539Y-4.4204
X4.1839Y-4.4204
X4.214Y-4.9009
X4.2603Y-4.693
X4.2603Y-4.723
X4.2833Y-4.3534
X4.2833Y-4.3888
X4.2833Y-4.4242
X4.2903Y-4.693
X4.2903Y-4.723
X4.3003Y-4.753
X4.3126Y-6.2332
X4.3126Y-6.2632
X4.3168Y-4.3538
X4.3168Y-4.3892
X4.3168Y-4.4246
X4.3522Y-4.3538
X4.3522Y-4.3892
X4.3522Y-4.4246
X4.3877Y-4.3538
X4.3877Y-4.3892
X4.3877Y-4.4246
X4.5003Y-4.928
X4.5126Y-6.2332
X4.5126Y-6.2632
X4.5711Y-4.353
X4.5711Y-4.3884
X4.5711Y-4.4238
X4.6046Y-4.3534
X4.6046Y-4.3888
X4.6046Y-4.4242
X4.64Y-4.3534
X4.64Y-4.3888
X4.64Y-4.4242
X4.6703Y-4.773
X4.6755Y-4.3534
X4.6755Y-4.3888
X4.6755Y-4.4242
X4.7126Y-6.2332
X4.7126Y-6.2632
X4.7703Y-4.683
X4.9126Y-6.2332
X4.9126Y-6.2632
T3
X2.53Y-4.965
X3.696Y-5.89
X3.71Y-5.125
X3.956Y-5.922
X4.0Y-5.186
X4.128Y-5.115
X4.62Y-5.1
X4.8754Y-4.811
X4.876Y-4.685
X4.876Y-4.726
X4.876Y-4.768
X4.974Y-3.216
X5.0045Y-3.1855
X5.032Y-3.158
T4
X0.7213Y-3.6025
X0.7213Y-3.6813
X0.7213Y-3.76
X0.7213Y-3.8387
X0.7213Y-3.9175
X0.7213Y-3.9962
X0.7283Y-2.3819
X0.7283Y-2.4606
X0.7283Y-2.5394
X0.7283Y-2.6181
X0.8001Y-3.6025
X0.8001Y-3.6813
X0.8001Y-3.76
X0.8001Y-3.8387
X0.8001Y-3.9175
X0.8001Y-3.9962
X0.8071Y-2.3031
X0.8071Y-2.3819
X0.8071Y-2.4606
X0.8071Y-2.5394
X0.8788Y-3.6025
X0.8788Y-3.6813
X0.8788Y-3.76
X0.8788Y-3.8387
X0.8788Y-3.9175
X0.8788Y-3.9962
X0.8858Y-2.2244
X0.8858Y-2.3031
X0.8858Y-2.3819
X0.8858Y-2.4606
X0.8858Y-2.5394
X0.9576Y-3.6025
X0.9576Y-3.6813
X0.9576Y-3.76
X0.9576Y-3.8387
X0.9576Y-3.9175
X0.9646Y-2.1457
X0.9646Y-2.2244
X0.9646Y-2.3031
X0.9646Y-2.3819
X0.9646Y-2.4606
X0.9646Y-2.5394
X0.9646Y-2.6181
X1.0363Y-3.6025
X1.0363Y-3.6813
X1.0363Y-3.76
X1.0363Y-3.8387
X1.0433Y-2.0669
X1.0433Y-2.1457
X1.0433Y-2.2244
X1.0433Y-2.3031
X1.0433Y-2.3819
X1.0433Y-2.4606
X1.0433Y-2.5394
X1.0433Y-2.6181
X1.1Y-2.9
X1.12Y-2.94
X1.12Y-2.98
X1.12Y-3.02
X1.12Y-3.06
X1.12Y-3.1
X1.122Y-1.9882
X1.122Y-2.0669
X1.122Y-2.1457
X1.122Y-2.2244
X1.122Y-2.3031
X1.122Y-2.3819
X1.122Y-2.4606
X1.122Y-2.5394
X1.122Y-2.6181
X1.2008Y-1.9882
X1.2008Y-2.0669
X1.2008Y-2.1457
X1.2008Y-2.2244
X1.2008Y-2.3031
X1.2795Y-1.9882
X1.2795Y-2.0669
X1.2795Y-2.1457
X1.2795Y-2.2244
X1.3386Y-2.5394
X1.3386Y-2.6181
X1.3513Y-3.6025
X1.3513Y-3.6813
X1.3513Y-3.76
X1.3513Y-3.8387
X1.3583Y-1.9882
X1.3583Y-2.0669
X1.3583Y-2.1457
X1.4173Y-2.4606
X1.4173Y-2.5394
X1.43Y-3.6025
X1.43Y-3.6813
X1.43Y-3.76
X1.43Y-3.8387
X1.43Y-3.9175
X1.437Y-1.9882
X1.437Y-2.0669
X1.4961Y-2.3819
X1.4961Y-2.4606
X1.4961Y-2.5394
X1.5Y-3.6
X1.5Y-3.6787
X1.5Y-3.7575
X1.5Y-3.8362
X1.5Y-3.915
X1.5Y-3.9937
X1.5157Y-1.9882
X1.5748Y-2.3031
X1.5748Y-2.3819
X1.5748Y-2.4606
X1.5748Y-2.5394
X1.5748Y-2.6181
X1.5787Y-3.6
X1.5787Y-3.6787
X1.5787Y-3.7575
X1.5787Y-3.8362
X1.5787Y-3.915
X1.5787Y-3.9937
X1.6525Y-3.6
X1.6525Y-3.6787
X1.6525Y-3.7575
X1.6525Y-3.8362
X1.6525Y-3.915
X1.6525Y-3.9937
X1.6535Y-2.3031
X1.6535Y-2.3819
X1.6535Y-2.4606
X1.6535Y-2.5394
X1.6535Y-2.6181
X1.6957Y-2.9005
X1.7157Y-2.9405
X1.7157Y-2.9805
X1.7157Y-3.0205
X1.7157Y-3.0605
X1.7157Y-3.1005
X1.7323Y-2.1457
X1.7323Y-2.2244
X1.7323Y-2.3031
X1.7323Y-2.3819
X1.7323Y-2.4606
X1.7323Y-2.5394
X1.7323Y-2.6181
X1.811Y-2.0669
X1.811Y-2.1457
X1.811Y-2.2244
X1.811Y-2.3031
X1.811Y-2.3819
X1.811Y-2.4606
X1.811Y-2.5394
X1.811Y-2.6181
X1.8457Y-3.4005
X1.8887Y-3.6
X1.8887Y-3.6787
X1.8887Y-3.7575
X1.8887Y-3.8362
X1.8898Y-2.1457
X1.8898Y-2.2244
X1.9291Y-2.4606
X1.9291Y-2.5394
X1.9291Y-2.6181
X1.9675Y-3.6
X1.9675Y-3.6787
X1.9675Y-3.7575
X2.0079Y-2.4606
X2.0079Y-2.5394
X2.0462Y-3.8362
X2.0462Y-3.915
X2.0462Y-3.9937
X2.0866Y-2.4606
X2.0866Y-2.5394
X2.125Y-3.8362
X2.125Y-3.915
X2.125Y-3.9937
X2.1654Y-2.4606
X2.1654Y-2.6181
X2.2037Y-3.6
X2.2037Y-3.6787
X2.2441Y-2.5394
X2.2441Y-2.6181
X2.28Y-3.5983
X2.28Y-3.677
X2.28Y-3.7558
X2.28Y-3.8345
X2.28Y-3.9133
X2.28Y-3.992
X2.2911Y-2.901
X2.3111Y-2.941
X2.3111Y-2.981
X2.3111Y-3.021
X2.3111Y-3.061
X2.3111Y-3.101
X2.3228Y-2.4606
X2.3228Y-2.5394
X2.3587Y-3.6
X2.3587Y-3.6787
X2.3587Y-3.7575
X2.3587Y-3.8362
X2.3587Y-3.915
X2.3587Y-3.9937
X2.4409Y-2.6181
X2.4411Y-3.401
X2.5162Y-3.6
X2.5162Y-3.6787
X2.5162Y-3.7575
X2.5162Y-3.8362
X2.5162Y-3.915
X2.5162Y-3.9937
X2.5197Y-2.5394
X2.5197Y-2.6181
X2.5925Y-4.0645
X2.595Y-3.6
X2.595Y-3.6787
X2.595Y-3.7575
X2.595Y-3.8362
X2.595Y-3.915
X2.595Y-3.9937
X2.5984Y-2.4606
X2.5984Y-2.5394
X2.6713Y-4.0645
X2.6713Y-4.1433
X2.6737Y-3.6
X2.6737Y-3.6787
X2.6737Y-3.7575
X2.6737Y-3.8362
X2.6737Y-3.915
X2.6737Y-3.9937
X2.6772Y-2.4606
X2.6772Y-2.5394
X2.75Y-4.0645
X2.75Y-4.1433
X2.75Y-4.222
X2.7524Y-3.6
X2.7524Y-3.6787
X2.7524Y-3.7575
X2.7524Y-3.8362
X2.7524Y-3.915
X2.7524Y-3.9937
X2.7559Y-2.3819
X2.7559Y-2.4606
X2.7559Y-2.5394
X2.7559Y-2.6181
X2.8346Y-2.3819
X2.8346Y-2.4606
X2.8346Y-2.5394
X2.8346Y-2.6181
X2.8898Y-2.9015
X2.9075Y-4.1433
X2.9075Y-4.222
X2.9098Y-2.9415
X2.9098Y-2.9815
X2.9098Y-3.0215
X2.9098Y-3.0615
X2.9098Y-3.1015
X2.9134Y-2.3819
X2.9134Y-2.4606
X2.9134Y-2.5394
X2.9134Y-2.6181
X2.9862Y-4.1433
X2.9862Y-4.222
X3.0118Y-2.3031
X3.0118Y-2.3819
X3.0118Y-2.4606
X3.0118Y-2.5394
X3.0118Y-2.6181
X3.0398Y-3.4015
X3.065Y-4.1433
X3.065Y-4.222
X3.1437Y-4.1433
X3.1437Y-4.222
X3.189Y-2.2441
X3.189Y-2.4606
X3.189Y-2.5394
X3.248Y-2.4606
X3.248Y-2.5394
X3.4885Y-2.902
X3.5025Y-3.6
X3.5025Y-3.6787
X3.5025Y-3.7575
X3.5025Y-3.8362
X3.5039Y-2.5394
X3.5039Y-2.6181
X3.5085Y-2.942
X3.5085Y-2.982
X3.5085Y-3.022
X3.5085Y-3.062
X3.5085Y-3.102
X3.5827Y-2.6181
X3.6385Y-3.402
X3.66Y-3.6
X3.66Y-3.6787
X3.66Y-3.7575
X3.66Y-3.8362
X3.7008Y-2.4606
X3.7598Y-2.5394
X3.8174Y-3.6
X3.8174Y-3.6787
X3.8174Y-3.7575
X3.8174Y-3.8362
X3.9206Y-4.8078
X3.9319Y-4.2229
X3.9319Y-4.2579
X3.968Y-4.2579
X3.9693Y-4.2229
X4.068Y-3.6
X4.068Y-3.6787
X4.068Y-3.7575
X4.068Y-3.8362
X4.068Y-3.915
X4.0748Y-2.5
X4.0873Y-2.9025
X4.1073Y-2.9425
X4.1073Y-2.9825
X4.1073Y-3.0225
X4.1073Y-3.0625
X4.1073Y-3.1025
X4.1339Y-2.5591
X4.1339Y-3.7598
X4.2373Y-3.4025
X4.248Y-3.6
X4.252Y-2.3819
X4.252Y-2.4606
X4.3267Y-3.6
X4.3267Y-3.6787
X4.3267Y-3.7575
X4.3267Y-3.8362
X4.3307Y-2.4606
X4.3504Y-2.5394
X4.3898Y-2.2638
X4.4291Y-2.5394
X4.4685Y-2.3425
X4.4842Y-3.6
X4.4842Y-3.6787
X4.4842Y-3.7575
X4.4842Y-3.8362
X4.5079Y-2.0669
X4.5472Y-2.4213
X4.5669Y-2.1457
X4.5866Y-2.0669
X4.626Y-2.5394
X4.626Y-2.6181
X4.6417Y-3.6
X4.6417Y-3.6787
X4.6417Y-3.7575
X4.6417Y-3.8362
X4.6457Y-2.1457
X4.6457Y-2.2244
X4.685Y-2.5394
X4.685Y-2.6181
X4.686Y-2.903
X4.706Y-2.943
X4.706Y-2.983
X4.706Y-3.023
X4.706Y-3.063
X4.706Y-3.103
X4.7244Y-2.2244
X4.7244Y-2.3031
X4.7299Y-4.8201
X4.7426Y-4.2229
X4.7426Y-4.2579
X4.782Y-4.2579
X4.7833Y-4.2229
X4.8031Y-2.3031
X4.8031Y-2.3819
X4.826Y-3.6
X4.826Y-3.6787
X4.826Y-3.7575
X4.826Y-3.8362
X4.836Y-3.403
X4.8819Y-2.0669
X4.8819Y-2.3819
X4.8819Y-2.4606
X4.8819Y-2.5394
X4.8819Y-2.6181
X4.942Y-3.6
X4.942Y-3.6787
X4.942Y-3.7575
X4.942Y-3.8362
X4.942Y-3.915
X4.942Y-3.9937
X4.942Y-4.1512
X4.942Y-4.2299
X4.942Y-4.4661
X4.942Y-4.5449
X4.9606Y-2.0669
X4.9606Y-2.4606
X4.9606Y-2.5394
X4.9803Y-2.1457
X5.0207Y-4.0724
X5.0207Y-4.1512
X5.0207Y-4.3874
X5.0207Y-4.4661
X5.0207Y-4.5449
X5.0394Y-2.2244
X5.046Y-3.5983
X5.046Y-3.677
X5.046Y-3.7558
X5.046Y-3.8345
X5.046Y-3.9133
X5.046Y-3.992
X5.0591Y-2.1457
X5.0995Y-4.0724
X5.0995Y-4.3087
X5.0995Y-4.3874
X5.0995Y-4.4661
X5.1181Y-2.2244
X5.1181Y-2.3031
X5.1181Y-2.5394
X5.1247Y-3.5983
X5.1247Y-3.677
X5.1247Y-3.7558
X5.1247Y-3.8345
X5.1247Y-3.9133
X5.1247Y-3.992
X5.1782Y-4.2299
X5.1782Y-4.3087
X5.1782Y-4.3874
X5.1782Y-4.4661
X5.1969Y-2.2244
X5.1969Y-2.3031
X5.1969Y-2.6181
X5.2035Y-3.5983
X5.2035Y-3.677
X5.2035Y-3.7558
X5.2035Y-3.8345
X5.2035Y-3.9133
X5.2165Y-2.3819
X5.2498Y-4.1518
X5.2498Y-4.2305
X5.2498Y-4.3093
X5.2498Y-4.388
X5.2498Y-4.4667
X5.2498Y-4.5455
X5.2756Y-2.3031
X5.2822Y-3.5983
X5.2822Y-3.677
X5.2822Y-3.7558
X5.2822Y-3.8345
X5.2847Y-2.9035
X5.2953Y-2.3819
X5.2953Y-2.4606
X5.3047Y-2.9435
X5.3047Y-2.9835
X5.3047Y-3.0235
X5.3047Y-3.0635
X5.3047Y-3.1035
X5.3285Y-4.073
X5.3285Y-4.1518
X5.3285Y-4.2305
X5.3285Y-4.3093
X5.3285Y-4.388
X5.3285Y-4.4667
X5.3285Y-4.5455
X5.4073Y-3.992
X5.4073Y-4.073
X5.4073Y-4.1518
X5.4073Y-4.2305
X5.4073Y-4.3093
X5.4073Y-4.388
X5.4073Y-4.4667
X5.4073Y-4.5455
X5.428Y-2.856
X5.4347Y-3.4035
X5.452Y-2.882
X5.486Y-3.601
X5.486Y-3.6798
X5.486Y-3.7585
X5.486Y-3.8373
X5.486Y-3.916
X5.486Y-3.992
X5.486Y-4.073
X5.486Y-4.1518
X5.486Y-4.2305
X5.486Y-4.3093
X5.486Y-4.388
X5.486Y-4.4667
X5.486Y-4.5455
T5
X0.7805Y-1.85
X0.7805Y-6.2
X0.7831Y-5.88
X0.8082Y-1.7832
X0.8082Y-1.9168
X0.8082Y-6.1332
X0.8082Y-6.2668
X0.8324Y-5.88
X0.875Y-1.7555
X0.875Y-1.9445
X0.875Y-6.1055
X0.875Y-6.2945
X0.8816Y-5.88
X0.9308Y-5.88
X0.9418Y-1.7832
X0.9418Y-1.9168
X0.9418Y-6.1332
X0.9418Y-6.2668
X0.9695Y-1.85
X0.9695Y-6.2
X0.98Y-5.88
X1.0292Y-5.88
X3.627Y-6.1201
X3.6762Y-6.1201
X3.7254Y-6.1201
X3.7746Y-6.1201
X5.2305Y-1.8346
X5.2305Y-6.2
X5.2582Y-1.7678
X5.2582Y-1.9015
X5.2582Y-6.1332
X5.2582Y-6.2668
X5.325Y-1.7402
X5.325Y-1.9291
X5.325Y-6.1055
X5.325Y-6.2945
X5.3918Y-1.7678
X5.3918Y-1.9015
X5.3918Y-6.1332
X5.3918Y-6.2668
X5.4195Y-1.8346
X5.4195Y-6.2
T6
X1.135Y-6.1203
X1.135Y-6.1703
X1.185Y-6.1203
X1.185Y-6.1703
X1.235Y-6.1203
X1.235Y-6.1703
T7
X3.9862Y-4.992
X4.02Y-4.76
X4.177Y-5.027
X4.3898Y-5.2953
X4.3898Y-5.5945
T8
X5.155Y-4.5931
X5.155Y-4.79
T9
X2.89Y-3.71
X2.89Y-3.81
X2.89Y-3.91
X2.89Y-4.01
X2.99Y-3.71
X2.99Y-3.81
X2.99Y-3.91
X2.99Y-4.01
X3.09Y-3.71
X3.09Y-3.81
X3.09Y-3.91
X3.09Y-4.01
X3.19Y-3.71
X3.19Y-3.81
X3.19Y-3.91
X3.19Y-4.01
T10
X1.9314Y-2.0235
X1.9314Y-2.3384
X1.9905Y-2.1219
X1.9905Y-2.24
X2.0495Y-2.0235
X2.0495Y-2.3384
X2.1086Y-2.1219
X2.1086Y-2.24
X2.1676Y-2.0235
X2.1676Y-2.3384
X2.2267Y-2.1219
X2.2267Y-2.24
X2.2857Y-2.0235
X2.2857Y-2.3384
X2.3448Y-2.1219
X2.3448Y-2.24
X2.4039Y-2.0235
X2.4039Y-2.3384
X2.4629Y-2.1219
X2.4629Y-2.24
X2.522Y-2.0235
X2.522Y-2.3384
X2.581Y-2.1219
X2.581Y-2.24
X2.6401Y-2.0235
X2.6401Y-2.3384
X3.2109Y-2.0235
X3.2109Y-2.3384
X3.27Y-2.1219
X3.27Y-2.24
X3.3291Y-2.0235
X3.3291Y-2.3384
X3.3881Y-2.1219
X3.3881Y-2.24
X3.4472Y-2.0235
X3.4472Y-2.3384
X3.5062Y-2.1219
X3.5062Y-2.24
X3.5653Y-2.0235
X3.5653Y-2.3384
X3.6243Y-2.1219
X3.6243Y-2.24
X3.6834Y-2.0235
X3.6834Y-2.3384
X3.7424Y-2.1219
X3.7424Y-2.24
X3.8015Y-2.0235
X3.8015Y-2.3384
X3.8606Y-2.1219
X3.8606Y-2.24
X3.9196Y-2.0235
X3.9196Y-2.3384
X3.9787Y-2.1219
X3.9787Y-2.24
X4.0377Y-2.0235
X4.0377Y-2.3384
X4.0968Y-2.1219
X4.0968Y-2.24
X4.1558Y-2.0235
X4.1558Y-2.3384
T11
X0.875Y-1.85
X0.875Y-6.2
X5.325Y-1.8346
X5.325Y-6.2
T12
X1.646Y-1.7676
X2.9255Y-1.7676
X4.4413Y-1.7676
T0
M30
