%TF.GenerationSoftware,KiCad,Pcbnew,(6.0.8)*%
%TF.CreationDate,2023-05-29T03:20:34+02:00*%
%TF.ProjectId,pdms,70646d73-2e6b-4696-9361-645f70636258,rev?*%
%TF.SameCoordinates,Original*%
%TF.FileFunction,Copper,L4,Bot*%
%TF.FilePolarity,Positive*%
%FSLAX46Y46*%
G04 Gerber Fmt 4.6, Leading zero omitted, Abs format (unit mm)*
G04 Created by KiCad (PCBNEW (6.0.8)) date 2023-05-29 03:20:34*
%MOMM*%
%LPD*%
G01*
G04 APERTURE LIST*
G04 Aperture macros list*
%AMRoundRect*
0 Rectangle with rounded corners*
0 $1 Rounding radius*
0 $2 $3 $4 $5 $6 $7 $8 $9 X,Y pos of 4 corners*
0 Add a 4 corners polygon primitive as box body*
4,1,4,$2,$3,$4,$5,$6,$7,$8,$9,$2,$3,0*
0 Add four circle primitives for the rounded corners*
1,1,$1+$1,$2,$3*
1,1,$1+$1,$4,$5*
1,1,$1+$1,$6,$7*
1,1,$1+$1,$8,$9*
0 Add four rect primitives between the rounded corners*
20,1,$1+$1,$2,$3,$4,$5,0*
20,1,$1+$1,$4,$5,$6,$7,0*
20,1,$1+$1,$6,$7,$8,$9,0*
20,1,$1+$1,$8,$9,$2,$3,0*%
%AMRotRect*
0 Rectangle, with rotation*
0 The origin of the aperture is its center*
0 $1 length*
0 $2 width*
0 $3 Rotation angle, in degrees counterclockwise*
0 Add horizontal line*
21,1,$1,$2,0,0,$3*%
G04 Aperture macros list end*
%TA.AperFunction,ComponentPad*%
%ADD10C,2.000000*%
%TD*%
%TA.AperFunction,ComponentPad*%
%ADD11RoundRect,0.200000X-0.200000X-0.450000X0.200000X-0.450000X0.200000X0.450000X-0.200000X0.450000X0*%
%TD*%
%TA.AperFunction,ComponentPad*%
%ADD12O,0.800000X1.300000*%
%TD*%
%TA.AperFunction,ComponentPad*%
%ADD13R,1.000000X1.000000*%
%TD*%
%TA.AperFunction,ComponentPad*%
%ADD14O,1.000000X1.000000*%
%TD*%
%TA.AperFunction,ComponentPad*%
%ADD15C,0.800000*%
%TD*%
%TA.AperFunction,ComponentPad*%
%ADD16C,6.400000*%
%TD*%
%TA.AperFunction,ComponentPad*%
%ADD17C,2.250000*%
%TD*%
%TA.AperFunction,ComponentPad*%
%ADD18C,5.100000*%
%TD*%
%TA.AperFunction,ComponentPad*%
%ADD19R,2.000000X2.000000*%
%TD*%
%TA.AperFunction,ComponentPad*%
%ADD20R,2.175000X2.175000*%
%TD*%
%TA.AperFunction,ComponentPad*%
%ADD21C,2.175000*%
%TD*%
%TA.AperFunction,ComponentPad*%
%ADD22R,2.400000X2.400000*%
%TD*%
%TA.AperFunction,ComponentPad*%
%ADD23C,2.400000*%
%TD*%
%TA.AperFunction,SMDPad,CuDef*%
%ADD24RoundRect,0.135000X0.185000X-0.135000X0.185000X0.135000X-0.185000X0.135000X-0.185000X-0.135000X0*%
%TD*%
%TA.AperFunction,SMDPad,CuDef*%
%ADD25RoundRect,0.135000X0.135000X0.185000X-0.135000X0.185000X-0.135000X-0.185000X0.135000X-0.185000X0*%
%TD*%
%TA.AperFunction,SMDPad,CuDef*%
%ADD26RoundRect,0.135000X-0.226274X-0.035355X-0.035355X-0.226274X0.226274X0.035355X0.035355X0.226274X0*%
%TD*%
%TA.AperFunction,SMDPad,CuDef*%
%ADD27RoundRect,0.135000X0.226274X0.035355X0.035355X0.226274X-0.226274X-0.035355X-0.035355X-0.226274X0*%
%TD*%
%TA.AperFunction,SMDPad,CuDef*%
%ADD28RoundRect,0.250000X0.625000X-0.375000X0.625000X0.375000X-0.625000X0.375000X-0.625000X-0.375000X0*%
%TD*%
%TA.AperFunction,SMDPad,CuDef*%
%ADD29R,0.700000X0.450000*%
%TD*%
%TA.AperFunction,SMDPad,CuDef*%
%ADD30R,0.550000X1.000000*%
%TD*%
%TA.AperFunction,SMDPad,CuDef*%
%ADD31RoundRect,0.135000X-0.185000X0.135000X-0.185000X-0.135000X0.185000X-0.135000X0.185000X0.135000X0*%
%TD*%
%TA.AperFunction,SMDPad,CuDef*%
%ADD32RoundRect,0.135000X-0.135000X-0.185000X0.135000X-0.185000X0.135000X0.185000X-0.135000X0.185000X0*%
%TD*%
%TA.AperFunction,SMDPad,CuDef*%
%ADD33RoundRect,0.140000X-0.219203X-0.021213X-0.021213X-0.219203X0.219203X0.021213X0.021213X0.219203X0*%
%TD*%
%TA.AperFunction,SMDPad,CuDef*%
%ADD34RoundRect,0.218750X0.335876X0.026517X0.026517X0.335876X-0.335876X-0.026517X-0.026517X-0.335876X0*%
%TD*%
%TA.AperFunction,SMDPad,CuDef*%
%ADD35RotRect,1.000000X1.500000X45.000000*%
%TD*%
%TA.AperFunction,SMDPad,CuDef*%
%ADD36RoundRect,0.135000X0.035355X-0.226274X0.226274X-0.035355X-0.035355X0.226274X-0.226274X0.035355X0*%
%TD*%
%TA.AperFunction,ViaPad*%
%ADD37C,0.600000*%
%TD*%
%TA.AperFunction,ViaPad*%
%ADD38C,0.685800*%
%TD*%
%TA.AperFunction,ViaPad*%
%ADD39C,0.889000*%
%TD*%
%TA.AperFunction,ViaPad*%
%ADD40C,0.800000*%
%TD*%
%TA.AperFunction,Conductor*%
%ADD41C,0.250000*%
%TD*%
%TA.AperFunction,Conductor*%
%ADD42C,0.254000*%
%TD*%
%TA.AperFunction,Conductor*%
%ADD43C,0.762000*%
%TD*%
%TA.AperFunction,Conductor*%
%ADD44C,3.000000*%
%TD*%
%TA.AperFunction,Conductor*%
%ADD45C,2.000000*%
%TD*%
G04 APERTURE END LIST*
D10*
%TO.P,TP3,1,1*%
%TO.N,SPI3_MISO*%
X102108000Y-120904000D03*
%TD*%
D11*
%TO.P,J5,1,Pin_1*%
%TO.N,SAFETY_IN*%
X92125000Y-155450000D03*
D12*
%TO.P,J5,2,Pin_2*%
%TO.N,GND*%
X93375000Y-155450000D03*
%TO.P,J5,3,Pin_3*%
%TO.N,+12V*%
X94625000Y-155450000D03*
%TO.P,J5,4,Pin_4*%
%TO.N,+5V*%
X95875000Y-155450000D03*
%TD*%
D13*
%TO.P,J1,1,Pin_1*%
%TO.N,+3.3V*%
X28830000Y-156725000D03*
D14*
%TO.P,J1,2,Pin_2*%
%TO.N,GND*%
X28830000Y-155455000D03*
%TO.P,J1,3,Pin_3*%
%TO.N,+5V*%
X30100000Y-156725000D03*
%TO.P,J1,4,Pin_4*%
%TO.N,NRST*%
X30100000Y-155455000D03*
%TO.P,J1,5,Pin_5*%
%TO.N,SWCLK*%
X31370000Y-156725000D03*
%TO.P,J1,6,Pin_6*%
%TO.N,SWDIO*%
X31370000Y-155455000D03*
%TD*%
D15*
%TO.P,H2,1,1*%
%TO.N,GND*%
X136952056Y-44902944D03*
X135255000Y-44200000D03*
X133557944Y-48297056D03*
D16*
X135255000Y-46600000D03*
D15*
X132855000Y-46600000D03*
X133557944Y-44902944D03*
X135255000Y-49000000D03*
X136952056Y-48297056D03*
X137655000Y-46600000D03*
%TD*%
D17*
%TO.P,J2,1,1*%
%TO.N,HP_MOS7*%
X105558000Y-59396000D03*
%TO.P,J2,2,2*%
%TO.N,LP_MOS7*%
X104058000Y-56896000D03*
%TO.P,J2,3,3*%
%TO.N,HP_MOS7*%
X102558000Y-59396000D03*
%TO.P,J2,4,4*%
%TO.N,unconnected-(J2-Pad4)*%
X101058000Y-56896000D03*
%TO.P,J2,5,5*%
%TO.N,LP_MOS6*%
X99558000Y-59396000D03*
%TO.P,J2,6,6*%
%TO.N,unconnected-(J2-Pad6)*%
X98058000Y-56896000D03*
%TO.P,J2,7,7*%
%TO.N,LP_MOS5*%
X96558000Y-59396000D03*
%TO.P,J2,8,8*%
%TO.N,HP_MOS6*%
X95058000Y-56896000D03*
%TO.P,J2,9,9*%
X93558000Y-59396000D03*
%TO.P,J2,10,10*%
%TO.N,GND*%
X92058000Y-56896000D03*
%TO.P,J2,11,11*%
%TO.N,LP_MOS4*%
X90558000Y-59396000D03*
%TO.P,J2,12,12*%
%TO.N,GND*%
X89058000Y-56896000D03*
%TO.P,J2,13,13*%
%TO.N,LP_MOS3*%
X87558000Y-59396000D03*
%TO.P,J2,14,14*%
%TO.N,GND*%
X86058000Y-56896000D03*
%TO.P,J2,15,15*%
%TO.N,LP_MOS2*%
X84558000Y-59396000D03*
%TO.P,J2,16,16*%
%TO.N,HP_MOS5*%
X83058000Y-56896000D03*
%TO.P,J2,17,17*%
X81558000Y-59396000D03*
%TO.P,J2,18,18*%
%TO.N,LP_MOS8*%
X105558000Y-51396000D03*
%TO.P,J2,19,19*%
%TO.N,HP_MOS8*%
X104058000Y-53896000D03*
%TO.P,J2,20,20*%
X102558000Y-51396000D03*
%TO.P,J2,21,21*%
%TO.N,+12V*%
X101058000Y-53896000D03*
%TO.P,J2,22,22*%
X99558000Y-51396000D03*
%TO.P,J2,23,23*%
%TO.N,+5V*%
X98058000Y-53896000D03*
%TO.P,J2,24,24*%
X96558000Y-51396000D03*
%TO.P,J2,25,25*%
%TO.N,+3.3V*%
X95058000Y-53896000D03*
%TO.P,J2,26,26*%
X93558000Y-51396000D03*
%TO.P,J2,27,27*%
%TO.N,GND*%
X92058000Y-53896000D03*
%TO.P,J2,28,28*%
X90558000Y-51396000D03*
%TO.P,J2,29,29*%
X89058000Y-53896000D03*
%TO.P,J2,30,30*%
X87558000Y-51396000D03*
%TO.P,J2,31,31*%
X86058000Y-53896000D03*
%TO.P,J2,32,32*%
X84558000Y-51396000D03*
%TO.P,J2,33,33*%
%TO.N,SAFETY_IN*%
X83058000Y-53896000D03*
%TO.P,J2,34,34*%
%TO.N,LP_MOS1*%
X81558000Y-51396000D03*
%TO.P,J2,35,35*%
%TO.N,HP_MOS4*%
X67058000Y-59396000D03*
%TO.P,J2,36,36*%
%TO.N,CAN1_L*%
X65558000Y-56896000D03*
%TO.P,J2,37,37*%
%TO.N,HP_MOS4*%
X64058000Y-59396000D03*
%TO.P,J2,38,38*%
%TO.N,CAN1_H*%
X62558000Y-56896000D03*
%TO.P,J2,39,39*%
%TO.N,HP_MOS4*%
X61058000Y-59396000D03*
%TO.P,J2,40,40*%
%TO.N,CAN2_L*%
X59558000Y-56896000D03*
%TO.P,J2,41,41*%
%TO.N,HP_MOS3*%
X58058000Y-59396000D03*
%TO.P,J2,42,42*%
%TO.N,CAN2_H*%
X56558000Y-56896000D03*
%TO.P,J2,43,43*%
%TO.N,HP_MOS3*%
X55058000Y-59396000D03*
%TO.P,J2,44,44*%
%TO.N,HP_MOS2*%
X53558000Y-56896000D03*
%TO.P,J2,45,45*%
%TO.N,HP_MOS3*%
X52058000Y-59396000D03*
%TO.P,J2,46,46*%
%TO.N,HP_MOS2*%
X50558000Y-56896000D03*
%TO.P,J2,47,47*%
X49058000Y-59396000D03*
%TO.P,J2,48,48*%
%TO.N,CONN_AD_IN1*%
X67058000Y-51396000D03*
%TO.P,J2,49,49*%
%TO.N,CONN_AD_IN2*%
X65558000Y-53896000D03*
%TO.P,J2,50,50*%
%TO.N,CONN_AD_IN3*%
X64058000Y-51396000D03*
%TO.P,J2,51,51*%
%TO.N,CONN_AD_IN4*%
X62558000Y-53896000D03*
%TO.P,J2,52,52*%
%TO.N,CONN_AD_IN5*%
X61058000Y-51396000D03*
%TO.P,J2,53,53*%
%TO.N,CONN_AD_IN6*%
X59558000Y-53896000D03*
%TO.P,J2,54,54*%
%TO.N,CONN_AD_IN7*%
X58058000Y-51396000D03*
%TO.P,J2,55,55*%
%TO.N,CONN_AD_IN8*%
X56558000Y-53896000D03*
%TO.P,J2,56,56*%
%TO.N,GND*%
X55058000Y-51396000D03*
%TO.P,J2,57,57*%
X53558000Y-53896000D03*
%TO.P,J2,58,58*%
%TO.N,HP_MOS1*%
X52058000Y-51396000D03*
%TO.P,J2,59,59*%
X50558000Y-53896000D03*
%TO.P,J2,60,60*%
X49058000Y-51396000D03*
D18*
%TO.P,J2,MH1,MH1*%
%TO.N,unconnected-(J2-PadMH1)*%
X112808000Y-44896000D03*
%TO.P,J2,MH2,MH2*%
%TO.N,unconnected-(J2-PadMH2)*%
X74308000Y-44896000D03*
%TO.P,J2,MH3,MH3*%
%TO.N,unconnected-(J2-PadMH3)*%
X41808000Y-44896000D03*
%TD*%
D19*
%TO.P,BZ1,1,-*%
%TO.N,+5V*%
X111500000Y-134500000D03*
D10*
%TO.P,BZ1,2,+*%
%TO.N,Net-(BZ1-Pad2)*%
X111500000Y-142100000D03*
%TD*%
D11*
%TO.P,J4,1,Pin_1*%
%TO.N,+3.3V*%
X19892000Y-149352000D03*
D12*
%TO.P,J4,2,Pin_2*%
%TO.N,GND*%
X21142000Y-149352000D03*
%TO.P,J4,3,Pin_3*%
%TO.N,+5V*%
X22392000Y-149352000D03*
%TO.P,J4,4,Pin_4*%
%TO.N,NRST*%
X23642000Y-149352000D03*
%TO.P,J4,5,Pin_5*%
%TO.N,SWCLK*%
X24892000Y-149352000D03*
%TO.P,J4,6,Pin_6*%
%TO.N,SWDIO*%
X26142000Y-149352000D03*
%TD*%
D20*
%TO.P,J3,1,1*%
%TO.N,+12V*%
X73405500Y-101853500D03*
D21*
%TO.P,J3,2,2*%
X75945500Y-101853500D03*
%TO.P,J3,3,3*%
X78485500Y-101853500D03*
%TO.P,J3,4,4*%
X81025500Y-101853500D03*
%TO.P,J3,5,5*%
X73405500Y-99313500D03*
%TO.P,J3,6,6*%
X75945500Y-99313500D03*
%TO.P,J3,7,7*%
X78485500Y-99313500D03*
%TO.P,J3,8,8*%
X81025500Y-99313500D03*
%TO.P,J3,9,9*%
X73405500Y-96773500D03*
%TO.P,J3,10,10*%
X75945500Y-96773500D03*
%TO.P,J3,11,11*%
X78485500Y-96773500D03*
%TO.P,J3,12,12*%
X81025500Y-96773500D03*
%TO.P,J3,13,13*%
X73405500Y-94233500D03*
%TO.P,J3,14,14*%
X75945500Y-94233500D03*
%TO.P,J3,15,15*%
X78485500Y-94233500D03*
%TO.P,J3,16,16*%
X81025500Y-94233500D03*
%TD*%
D15*
%TO.P,H1,1,1*%
%TO.N,GND*%
X20527944Y-48687056D03*
D16*
X22225000Y-46990000D03*
D15*
X20527944Y-45292944D03*
X23922056Y-48687056D03*
X22225000Y-49390000D03*
X23922056Y-45292944D03*
X22225000Y-44590000D03*
X24625000Y-46990000D03*
X19825000Y-46990000D03*
%TD*%
D10*
%TO.P,TP4,1,1*%
%TO.N,SPI3_SCK*%
X106095800Y-127685800D03*
%TD*%
D15*
%TO.P,H3,1,1*%
%TO.N,GND*%
X23922056Y-159177056D03*
X20527944Y-155782944D03*
X23922056Y-155782944D03*
X24625000Y-157480000D03*
X20527944Y-159177056D03*
D16*
X22225000Y-157480000D03*
D15*
X19825000Y-157480000D03*
X22225000Y-159880000D03*
X22225000Y-155080000D03*
%TD*%
D10*
%TO.P,TP2,1,1*%
%TO.N,SPI3_MOSI*%
X101250000Y-126796800D03*
%TD*%
D15*
%TO.P,H4,1,1*%
%TO.N,GND*%
X133557944Y-159177056D03*
X136952056Y-155782944D03*
X135255000Y-159880000D03*
X132855000Y-157480000D03*
D16*
X135255000Y-157480000D03*
D15*
X137655000Y-157480000D03*
X136952056Y-159177056D03*
X133557944Y-155782944D03*
X135255000Y-155080000D03*
%TD*%
D22*
%TO.P,C88,1*%
%TO.N,+12V*%
X130937000Y-116666000D03*
D23*
%TO.P,C88,2*%
%TO.N,GND*%
X130937000Y-121666000D03*
%TD*%
D24*
%TO.P,R72,1*%
%TO.N,/PERIPHERAL/BUZZ_IN*%
X106250000Y-151000000D03*
%TO.P,R72,2*%
%TO.N,Net-(Q2-Pad1)*%
X106250000Y-149980000D03*
%TD*%
D25*
%TO.P,R59,1*%
%TO.N,CAN2_L*%
X49325400Y-98994400D03*
%TO.P,R59,2*%
%TO.N,CAN2_H*%
X48305400Y-98994400D03*
%TD*%
D26*
%TO.P,C44,1*%
%TO.N,+3.3V*%
X33062873Y-130014631D03*
%TO.P,C44,2*%
%TO.N,GND*%
X33784121Y-130735879D03*
%TD*%
D27*
%TO.P,C52,1*%
%TO.N,+3.3V*%
X40049480Y-126041584D03*
%TO.P,C52,2*%
%TO.N,GND*%
X39328232Y-125320336D03*
%TD*%
D28*
%TO.P,F12,1*%
%TO.N,/POWER_SWITCHES/BTS722204-1/OUT2*%
X95156345Y-99935773D03*
%TO.P,F12,2*%
%TO.N,LP_MOS3*%
X95156345Y-97135773D03*
%TD*%
D24*
%TO.P,R170,1*%
%TO.N,SAFETY_IN*%
X89250000Y-155500000D03*
%TO.P,R170,2*%
%TO.N,GND*%
X89250000Y-154480000D03*
%TD*%
D27*
%TO.P,R73,1*%
%TO.N,+3.3V*%
X31410624Y-134260624D03*
%TO.P,R73,2*%
%TO.N,/IMU/IMU_I2C_SDA*%
X30689376Y-133539376D03*
%TD*%
D24*
%TO.P,R168,1*%
%TO.N,Net-(D4-Pad3)*%
X61750000Y-148510000D03*
%TO.P,R168,2*%
%TO.N,SAFETY_IN*%
X61750000Y-147490000D03*
%TD*%
D28*
%TO.P,F11,1*%
%TO.N,/POWER_SWITCHES/BTS722204-1/OUT1*%
X91193945Y-99977373D03*
%TO.P,F11,2*%
%TO.N,LP_MOS2*%
X91193945Y-97177373D03*
%TD*%
%TO.P,F14,1*%
%TO.N,/POWER_SWITCHES/BTS722204-2/OUT0*%
X107492800Y-100079000D03*
%TO.P,F14,2*%
%TO.N,LP_MOS5*%
X107492800Y-97279000D03*
%TD*%
%TO.P,F15,1*%
%TO.N,/POWER_SWITCHES/BTS722204-2/OUT1*%
X111760000Y-100079000D03*
%TO.P,F15,2*%
%TO.N,LP_MOS6*%
X111760000Y-97279000D03*
%TD*%
%TO.P,F13,1*%
%TO.N,/POWER_SWITCHES/BTS722204-1/OUT3*%
X99525145Y-100037373D03*
%TO.P,F13,2*%
%TO.N,LP_MOS4*%
X99525145Y-97237373D03*
%TD*%
%TO.P,F17,1*%
%TO.N,/POWER_SWITCHES/BTS722204-2/OUT3*%
X120142000Y-100076000D03*
%TO.P,F17,2*%
%TO.N,LP_MOS8*%
X120142000Y-97276000D03*
%TD*%
D29*
%TO.P,D4,1*%
%TO.N,GND*%
X56385800Y-149189200D03*
%TO.P,D4,2*%
%TO.N,+3.3V*%
X56385800Y-147889200D03*
%TO.P,D4,3*%
%TO.N,Net-(D4-Pad3)*%
X58385800Y-148539200D03*
%TD*%
D30*
%TO.P,D28,1,K1*%
%TO.N,CAN2_H*%
X48175400Y-100594400D03*
%TO.P,D28,2,K2*%
%TO.N,CAN2_L*%
X49475400Y-100594400D03*
%TO.P,D28,3,CC*%
%TO.N,GND*%
X48825400Y-102494400D03*
%TD*%
D31*
%TO.P,R167,1*%
%TO.N,GND*%
X60500000Y-147490000D03*
%TO.P,R167,2*%
%TO.N,Net-(D4-Pad3)*%
X60500000Y-148510000D03*
%TD*%
D32*
%TO.P,R58,1*%
%TO.N,CAN1_H*%
X54915400Y-98994400D03*
%TO.P,R58,2*%
%TO.N,CAN1_L*%
X55935400Y-98994400D03*
%TD*%
D27*
%TO.P,R74,1*%
%TO.N,+3.3V*%
X32410624Y-133310624D03*
%TO.P,R74,2*%
%TO.N,/IMU/IMU_I2C_SCL*%
X31689376Y-132589376D03*
%TD*%
D30*
%TO.P,D27,1,K1*%
%TO.N,CAN1_H*%
X54875400Y-100610400D03*
%TO.P,D27,2,K2*%
%TO.N,CAN1_L*%
X56175400Y-100610400D03*
%TO.P,D27,3,CC*%
%TO.N,GND*%
X55525400Y-102510400D03*
%TD*%
D33*
%TO.P,C80,1*%
%TO.N,VDDA*%
X42568195Y-122094515D03*
%TO.P,C80,2*%
%TO.N,GND*%
X43247017Y-122773337D03*
%TD*%
D28*
%TO.P,F10,1*%
%TO.N,/POWER_SWITCHES/BTS722204-1/OUT0*%
X86674745Y-99977373D03*
%TO.P,F10,2*%
%TO.N,LP_MOS1*%
X86674745Y-97177373D03*
%TD*%
D34*
%TO.P,L1,1*%
%TO.N,+3.3V*%
X41712243Y-125549084D03*
%TO.P,L1,2*%
%TO.N,VDDA*%
X40598549Y-124435390D03*
%TD*%
D35*
%TO.P,JP1,1,A*%
%TO.N,GND*%
X53279522Y-141411478D03*
%TO.P,JP1,2,C*%
%TO.N,Net-(JP1-Pad2)*%
X54198761Y-140492239D03*
%TO.P,JP1,3,B*%
%TO.N,+3.3V*%
X55118000Y-139573000D03*
%TD*%
D28*
%TO.P,F16,1*%
%TO.N,/POWER_SWITCHES/BTS722204-2/OUT2*%
X115697000Y-100082000D03*
%TO.P,F16,2*%
%TO.N,LP_MOS7*%
X115697000Y-97282000D03*
%TD*%
D24*
%TO.P,R169,1*%
%TO.N,SAFETY_IN*%
X88000000Y-155510000D03*
%TO.P,R169,2*%
%TO.N,+5V*%
X88000000Y-154490000D03*
%TD*%
D26*
%TO.P,R56,1*%
%TO.N,SPI1_MISO*%
X34439376Y-138089376D03*
%TO.P,R56,2*%
%TO.N,SPI1_MOSI*%
X35160624Y-138810624D03*
%TD*%
D33*
%TO.P,C83,1*%
%TO.N,VDDA*%
X41634249Y-123028463D03*
%TO.P,C83,2*%
%TO.N,GND*%
X42313071Y-123707285D03*
%TD*%
D36*
%TO.P,C51,1*%
%TO.N,+3.3V*%
X36889376Y-140860624D03*
%TO.P,C51,2*%
%TO.N,GND*%
X37610624Y-140139376D03*
%TD*%
D37*
%TO.N,+3.3V*%
X19939000Y-115570000D03*
%TO.N,GND*%
X18669000Y-115570000D03*
X19685000Y-109347000D03*
%TO.N,+12V*%
X18415000Y-109347000D03*
D38*
%TO.N,/POWER_SWITCHES/BTS722204-1/OUT0*%
X89080000Y-110607000D03*
X89980000Y-110607000D03*
X88230000Y-110597000D03*
X89980000Y-111507000D03*
X88230000Y-111497000D03*
X89080000Y-112407000D03*
X88230000Y-112397000D03*
X90880000Y-110607000D03*
X89980000Y-112407000D03*
X90880000Y-112407000D03*
X89080000Y-111507000D03*
X90880000Y-111507000D03*
D39*
%TO.N,GND*%
X64262000Y-126111000D03*
D37*
X21150000Y-138950000D03*
X92760800Y-135128000D03*
D38*
X119701000Y-159084800D03*
X73981000Y-159084800D03*
D37*
X22856600Y-127929600D03*
X64973200Y-118313200D03*
X88392000Y-141859000D03*
X132892800Y-69545200D03*
X79908400Y-137414000D03*
X56769000Y-69850000D03*
X34180679Y-123180931D03*
D40*
X28448000Y-74676000D03*
D38*
X119701000Y-158322800D03*
D37*
X96316800Y-142036800D03*
X92760800Y-134213600D03*
D38*
X53649400Y-158992000D03*
D37*
X55525400Y-103544400D03*
X70127600Y-137328200D03*
X94589600Y-135128000D03*
X79984071Y-112208659D03*
X25225000Y-109300000D03*
D38*
X124781000Y-158322800D03*
D37*
X36611209Y-140048147D03*
X64922400Y-113233200D03*
D40*
X28448000Y-76708000D03*
D37*
X87249000Y-69723000D03*
X96316800Y-134228000D03*
D40*
X28448000Y-78740000D03*
D37*
X46725400Y-104644400D03*
D38*
X41380200Y-158334300D03*
X118624889Y-121235455D03*
X58614000Y-158322800D03*
D37*
X24300000Y-139600000D03*
X99738300Y-133238000D03*
X24598504Y-129575227D03*
D40*
X27940000Y-73660000D03*
D37*
X71323200Y-129235200D03*
X88392000Y-138811000D03*
D38*
X99381000Y-158322800D03*
X109541000Y-159084800D03*
D40*
X28448000Y-77724000D03*
D37*
X24130000Y-142367000D03*
X29200000Y-140228163D03*
X41656000Y-69723000D03*
X40525000Y-114058000D03*
D38*
X68901000Y-159084800D03*
D37*
X70900000Y-118000000D03*
X64922400Y-110744000D03*
X96316800Y-133328000D03*
X80000000Y-109601000D03*
D38*
X109226889Y-120727455D03*
D37*
X95416800Y-135128000D03*
X100685600Y-143840200D03*
X52610000Y-123750000D03*
X30249000Y-109380000D03*
D38*
X99381000Y-159084800D03*
X124781000Y-159084800D03*
D40*
X99870200Y-107261000D03*
D37*
X48250000Y-109600000D03*
X84683600Y-137414000D03*
X108500000Y-148750000D03*
D40*
X103816660Y-73722500D03*
D37*
X49112159Y-127453924D03*
D39*
X101600000Y-131724400D03*
D38*
X94301000Y-158322800D03*
D37*
X54341112Y-128928649D03*
X53365400Y-104481400D03*
D38*
X106272000Y-112279000D03*
D40*
X100787200Y-108150000D03*
D37*
X60500000Y-146831600D03*
D38*
X98058000Y-121257000D03*
D37*
X76581000Y-112141000D03*
X94801500Y-146735800D03*
X43800000Y-122100000D03*
D38*
X79061000Y-159084800D03*
D37*
X23495000Y-113411000D03*
X108500000Y-147250000D03*
X70129400Y-152984200D03*
X37084000Y-157988000D03*
X84836000Y-152908000D03*
X32766000Y-109411000D03*
D38*
X104461000Y-159084800D03*
D37*
X117602000Y-68961000D03*
X33405500Y-114046000D03*
X94166500Y-146735800D03*
D38*
X48492200Y-158334300D03*
X108210889Y-119203455D03*
D37*
X27709000Y-109371000D03*
X28448000Y-114046000D03*
D38*
X108972889Y-119203455D03*
D40*
X104324660Y-77786500D03*
D38*
X84141000Y-158322800D03*
D37*
X76809600Y-129286000D03*
X75184000Y-137160000D03*
D38*
X68901000Y-158322800D03*
D37*
X95416800Y-133328000D03*
X37846000Y-109474000D03*
D38*
X121164889Y-118949455D03*
D37*
X35306000Y-109421000D03*
X71729600Y-145150500D03*
X75057000Y-152908000D03*
D38*
X89221000Y-159084800D03*
D37*
X102555741Y-69772609D03*
D40*
X119532400Y-75767250D03*
D38*
X100303000Y-112279000D03*
D37*
X40475000Y-113408000D03*
D40*
X134740140Y-78828000D03*
X107626660Y-86422500D03*
D37*
X22733000Y-109347000D03*
D40*
X121495800Y-107261000D03*
D37*
X99077900Y-133238000D03*
X40386000Y-109474000D03*
D40*
X43578000Y-75703500D03*
D38*
X89221000Y-158322800D03*
D37*
X46417960Y-117883094D03*
X56816374Y-136991682D03*
D39*
X100482400Y-150418800D03*
D37*
X108500000Y-148000000D03*
D38*
X58614000Y-159084800D03*
D37*
X32820000Y-128970000D03*
X28448000Y-113358000D03*
X80162400Y-114554000D03*
X79959200Y-152908000D03*
D40*
X104324660Y-75754500D03*
X120462800Y-108150000D03*
X120462800Y-107261000D03*
D38*
X114621000Y-159084800D03*
X104461000Y-158322800D03*
D40*
X121462800Y-108150000D03*
D37*
X81432400Y-145150500D03*
X23950000Y-139000000D03*
X38989000Y-124841000D03*
X49168485Y-121924050D03*
D38*
X114621000Y-158322800D03*
D37*
X36768377Y-148082000D03*
X31521400Y-121513600D03*
D38*
X87644000Y-119225000D03*
D40*
X134740140Y-77812000D03*
X104324660Y-78802500D03*
D37*
X23180000Y-143342000D03*
D38*
X63694000Y-159084800D03*
X108972889Y-119965455D03*
D37*
X26860500Y-69278500D03*
D40*
X89116920Y-76757750D03*
X134740140Y-76796000D03*
D37*
X98417500Y-133238000D03*
X64984385Y-115936785D03*
D38*
X100598000Y-118971000D03*
X79061000Y-158322800D03*
X73981000Y-158322800D03*
X84141000Y-159084800D03*
D37*
X80111600Y-119786400D03*
X55430000Y-149199600D03*
X96316800Y-135128000D03*
X57785000Y-132080000D03*
X52401377Y-120666813D03*
D40*
X137871200Y-72542400D03*
D37*
X95436500Y-146735800D03*
X54864000Y-109601000D03*
D38*
X63694000Y-158322800D03*
D37*
X66852800Y-145150500D03*
D40*
X88608920Y-73709750D03*
X134740140Y-75780000D03*
X43070000Y-73671500D03*
X119532400Y-74751250D03*
D37*
X76555600Y-145150500D03*
D40*
X28448000Y-75692000D03*
X43578000Y-77735500D03*
X100820200Y-107261000D03*
D38*
X88406000Y-119987000D03*
D37*
X38051093Y-117679338D03*
X66954400Y-129286000D03*
X48825400Y-103544400D03*
X23495000Y-114046000D03*
D40*
X89116920Y-75741750D03*
X119024400Y-73735250D03*
D37*
X97739200Y-139598400D03*
X88646000Y-137541000D03*
D40*
X119532400Y-78815250D03*
X73909180Y-78777000D03*
D37*
X60000000Y-150550000D03*
D38*
X109541000Y-158322800D03*
D37*
X33405500Y-113411000D03*
D40*
X62003440Y-86384250D03*
X58701440Y-78764250D03*
X73909180Y-75729000D03*
D38*
X88660000Y-120749000D03*
D40*
X58701440Y-74700250D03*
X46880000Y-86371500D03*
D38*
X114306889Y-125172455D03*
D37*
X96071500Y-146735800D03*
D38*
X101065000Y-112279000D03*
D37*
X92760800Y-133299200D03*
X38802031Y-147714218D03*
D40*
X119532400Y-77799250D03*
D38*
X93726000Y-125499500D03*
X48480600Y-159096800D03*
D37*
X55248592Y-150346409D03*
D38*
X105510000Y-112279000D03*
D40*
X122834400Y-86435250D03*
D38*
X53661000Y-158229500D03*
D40*
X58701440Y-75716250D03*
D38*
X94301000Y-159084800D03*
D40*
X134740140Y-74764000D03*
D37*
X81737200Y-129235200D03*
D40*
X104324660Y-76770500D03*
D37*
X97920011Y-140896811D03*
D40*
X43578000Y-78751500D03*
D37*
X80074897Y-117006497D03*
D40*
X92418920Y-86409750D03*
D38*
X88406000Y-119225000D03*
D40*
X77211180Y-86397000D03*
D37*
X47000000Y-118375000D03*
X31350000Y-86400000D03*
D40*
X89116920Y-78789750D03*
X73909180Y-76745000D03*
D37*
X95416800Y-134228000D03*
D40*
X99870200Y-108150000D03*
X43578000Y-76719500D03*
X73909180Y-77761000D03*
X89116920Y-77773750D03*
X89116920Y-74725750D03*
D37*
X59182000Y-124841000D03*
D40*
X43578000Y-74687500D03*
D37*
X52193402Y-141547256D03*
X71882000Y-69596000D03*
D38*
X41368600Y-159096800D03*
D37*
X93689600Y-135128000D03*
D38*
X108210889Y-119965455D03*
D37*
X89250000Y-153750000D03*
D40*
X58701440Y-77748250D03*
X73401180Y-73697000D03*
D37*
X38608000Y-149987000D03*
D40*
X138042140Y-86448000D03*
X58701440Y-76732250D03*
D38*
X87644000Y-119987000D03*
D40*
X134232140Y-73748000D03*
X58193440Y-73684250D03*
X138480800Y-73202800D03*
D37*
X103505000Y-113030000D03*
D40*
X119532400Y-76783250D03*
X104324660Y-74738500D03*
X73909180Y-74713000D03*
D37*
X48597085Y-145145210D03*
%TO.N,/POWER_SWITCHES/BTS722204-1/OUT1*%
X92652400Y-112374600D03*
X91852400Y-111507000D03*
X92652400Y-110574600D03*
X91852400Y-110607000D03*
X91852400Y-112407000D03*
X92652400Y-111474600D03*
%TO.N,/POWER_SWITCHES/BTS722204-1/OUT2*%
X94481200Y-111507400D03*
X94481200Y-112407400D03*
X93681200Y-111500000D03*
X93681200Y-112400000D03*
X93681200Y-110600000D03*
X94481200Y-110607400D03*
D38*
%TO.N,/POWER_SWITCHES/BTS722204-1/OUT3*%
X95540000Y-110587000D03*
X98190000Y-111497000D03*
X98190000Y-110597000D03*
X95540000Y-112387000D03*
X96390000Y-112397000D03*
X96390000Y-110597000D03*
X97290000Y-112397000D03*
X96390000Y-111497000D03*
X97290000Y-110597000D03*
X98190000Y-112397000D03*
X97290000Y-111497000D03*
X95540000Y-111487000D03*
D37*
%TO.N,SENS_OUT_LP1*%
X59232800Y-122574500D03*
D40*
X99584395Y-122118235D03*
D37*
%TO.N,SENS_OUT_LP2*%
X56645345Y-123276500D03*
D40*
X120140000Y-122430000D03*
D37*
%TO.N,/POWER_SWITCHES/BTS50010-1TAE/IN*%
X34290000Y-80253500D03*
X62498519Y-118864875D03*
D40*
%TO.N,+12V*%
X103327200Y-99440000D03*
X34322000Y-97504000D03*
X137344400Y-113455200D03*
X125526800Y-101440000D03*
X92963000Y-91440000D03*
D39*
X127114300Y-80911700D03*
D40*
X67850000Y-105238800D03*
X63912000Y-91440000D03*
X65912000Y-95440000D03*
X139344400Y-103455200D03*
X38100000Y-101440000D03*
X38100000Y-93440000D03*
X69850000Y-105238800D03*
X38100000Y-99440000D03*
X88963000Y-95440000D03*
X135344400Y-107455200D03*
X88963000Y-93440000D03*
X92963000Y-93440000D03*
X34322000Y-91504000D03*
X49974000Y-95440000D03*
X18322000Y-101504000D03*
X20322000Y-101504000D03*
X67912000Y-97440000D03*
X132168400Y-93396800D03*
X137344400Y-115455200D03*
X139344400Y-113455200D03*
X125526800Y-97440000D03*
X135344400Y-105455200D03*
X113899200Y-91440000D03*
X55974000Y-91440000D03*
X135344400Y-111455200D03*
X96963000Y-97440000D03*
X96963000Y-93440000D03*
X135344400Y-109455200D03*
X122580400Y-91440000D03*
X20322000Y-95504000D03*
X67850000Y-103238800D03*
X125526800Y-115440000D03*
X127526800Y-113440000D03*
X57912000Y-93396800D03*
X139344400Y-101396800D03*
X65912000Y-101440000D03*
X125526800Y-91440000D03*
X22322000Y-93504000D03*
X122580400Y-95440000D03*
X73850000Y-107238800D03*
X24322000Y-95504000D03*
X57912000Y-97396800D03*
X65912000Y-97440000D03*
X36322000Y-97504000D03*
X129526800Y-103440000D03*
X53974000Y-99440000D03*
X125526800Y-99440000D03*
X105000000Y-95500000D03*
X24322000Y-93504000D03*
X34322000Y-95504000D03*
X26322000Y-93504000D03*
X125526800Y-107440000D03*
X134168400Y-91396800D03*
X139344400Y-93466400D03*
X128168400Y-101396800D03*
X130168400Y-97396800D03*
X59912000Y-99440000D03*
X117899200Y-93440000D03*
X117899200Y-91440000D03*
X18322000Y-91504000D03*
X63912000Y-99440000D03*
X128168400Y-99396800D03*
X88963000Y-91440000D03*
X67912000Y-95440000D03*
X92963000Y-95440000D03*
X49974000Y-91440000D03*
X24322000Y-91504000D03*
X135344400Y-113455200D03*
X69912000Y-99440000D03*
X107899200Y-91440000D03*
X137344400Y-101396800D03*
X113899200Y-95440000D03*
X36322000Y-91504000D03*
X92963000Y-97440000D03*
X113899200Y-97440000D03*
X137344400Y-103455200D03*
X47974000Y-95440000D03*
X41974000Y-97440000D03*
X20322000Y-93504000D03*
X63912000Y-101440000D03*
X109899200Y-93440000D03*
X67912000Y-101440000D03*
X63912000Y-97440000D03*
D39*
X127812800Y-80213200D03*
D40*
X128168400Y-91396800D03*
X18322000Y-95504000D03*
X129526800Y-109440000D03*
X127526800Y-111440000D03*
X139344400Y-99466400D03*
X53974000Y-97440000D03*
X125526800Y-113440000D03*
X103327200Y-97440000D03*
X79850000Y-107238800D03*
X135344400Y-115455200D03*
X36322000Y-95504000D03*
X55974000Y-93440000D03*
X139344400Y-109455200D03*
X130168400Y-91396800D03*
X75850000Y-105238800D03*
X69912000Y-101440000D03*
X117899200Y-97440000D03*
X22322000Y-95504000D03*
X18322000Y-97504000D03*
X109899200Y-97440000D03*
X79850000Y-105238800D03*
X59912000Y-97440000D03*
X88963000Y-97440000D03*
X24322000Y-99504000D03*
X132168400Y-97396800D03*
X67912000Y-91440000D03*
X131526800Y-111440000D03*
X41974000Y-93440000D03*
X109899200Y-95440000D03*
X125526800Y-95440000D03*
X38100000Y-95440000D03*
X139344400Y-105455200D03*
X137344400Y-109455200D03*
X69850000Y-103238800D03*
X127526800Y-105440000D03*
X134168400Y-93396800D03*
X133344400Y-113455200D03*
X40100000Y-97440000D03*
X128168400Y-95396800D03*
X65912000Y-99440000D03*
X40100000Y-99440000D03*
X20322000Y-99504000D03*
X125526800Y-93440000D03*
X127526800Y-115440000D03*
X139344400Y-91466400D03*
X137344400Y-105455200D03*
X26322000Y-95504000D03*
X128168400Y-97396800D03*
X20322000Y-97504000D03*
X133344400Y-107455200D03*
X133344400Y-115455200D03*
X26322000Y-91504000D03*
X96963000Y-91440000D03*
X129526800Y-113440000D03*
X130168400Y-95396800D03*
X130168400Y-99396800D03*
X67912000Y-93440000D03*
X113899200Y-93440000D03*
X41974000Y-101440000D03*
X38100000Y-91440000D03*
X63912000Y-93440000D03*
X134168400Y-97396800D03*
X134168400Y-95396800D03*
X77850000Y-107238800D03*
X69912000Y-95440000D03*
X137344400Y-111455200D03*
X47974000Y-97440000D03*
X57912000Y-101396800D03*
X73850000Y-105238800D03*
X127526800Y-103440000D03*
X132168400Y-95396800D03*
X103327200Y-93440000D03*
X69912000Y-93440000D03*
X69912000Y-91440000D03*
X24322000Y-97504000D03*
X22322000Y-101504000D03*
X103327200Y-95440000D03*
X67912000Y-99440000D03*
X103327200Y-91440000D03*
X41974000Y-99440000D03*
X18322000Y-93504000D03*
X65850000Y-103238800D03*
X40100000Y-91440000D03*
X40100000Y-95440000D03*
X36322000Y-93504000D03*
X22322000Y-91504000D03*
X139344400Y-95466400D03*
X139344400Y-107455200D03*
X57912000Y-91396800D03*
X139344400Y-97466400D03*
X69850000Y-107238800D03*
X51974000Y-101440000D03*
X65912000Y-91440000D03*
X40100000Y-93440000D03*
X77850000Y-105238800D03*
X59912000Y-93440000D03*
X69912000Y-97440000D03*
X137344400Y-107455200D03*
X57912000Y-95396800D03*
X131526800Y-109440000D03*
X65912000Y-93440000D03*
X129526800Y-111440000D03*
D39*
X126339600Y-81686400D03*
D40*
X130168400Y-93396800D03*
X36322000Y-99504000D03*
X20322000Y-91504000D03*
X47974000Y-93440000D03*
X122580400Y-93440000D03*
X26322000Y-97504000D03*
X63912000Y-95440000D03*
X51974000Y-97440000D03*
X18322000Y-99504000D03*
X49974000Y-93440000D03*
X59912000Y-101440000D03*
X133344400Y-105455200D03*
X122580400Y-97440000D03*
X47974000Y-91440000D03*
X131526800Y-107440000D03*
X132168400Y-99396800D03*
X41974000Y-95440000D03*
X41974000Y-91440000D03*
X38100000Y-97440000D03*
X109899200Y-91440000D03*
X135344400Y-103455200D03*
X128168400Y-93396800D03*
X131526800Y-113440000D03*
X130168400Y-101396800D03*
X125526800Y-105440000D03*
X34322000Y-93504000D03*
X59912000Y-95440000D03*
X51974000Y-99440000D03*
X132168400Y-91396800D03*
X139344400Y-115455200D03*
X22322000Y-97504000D03*
X57912000Y-99396800D03*
X40100000Y-101440000D03*
X117899200Y-95440000D03*
X22322000Y-99504000D03*
X53974000Y-101440000D03*
X96963000Y-95440000D03*
X75850000Y-107238800D03*
X59912000Y-91440000D03*
X133344400Y-109455200D03*
X139344400Y-111455200D03*
X133344400Y-111455200D03*
D37*
%TO.N,/POWER_SWITCHES/BTS50010-1TAE1/IN*%
X41097200Y-79004500D03*
X63358411Y-118841589D03*
%TO.N,/POWER_SWITCHES/BTS50010-1TAE2/IN*%
X59866559Y-103303041D03*
X56388000Y-79502000D03*
D38*
%TO.N,/POWER_SWITCHES/BTS722204-2/OUT0*%
X109646889Y-111485455D03*
X110546889Y-110585455D03*
X108796889Y-111475455D03*
X111446889Y-110585455D03*
X110546889Y-111485455D03*
X109646889Y-110585455D03*
X110546889Y-112385455D03*
X108796889Y-112375455D03*
X111446889Y-112385455D03*
X111446889Y-111485455D03*
X109646889Y-112385455D03*
X108796889Y-110575455D03*
D37*
%TO.N,/POWER_SWITCHES/BTS50010-1TAE3/IN*%
X71755000Y-109220000D03*
X71374000Y-79629000D03*
%TO.N,/POWER_SWITCHES/BTS722204-2/OUT1*%
X113219289Y-112353055D03*
X112419289Y-111485455D03*
X112419289Y-112385455D03*
X113219289Y-111453055D03*
X112419289Y-110585455D03*
X113219289Y-110553055D03*
%TO.N,/POWER_SWITCHES/BTS50010-1TAE4/IN*%
X76708000Y-124155200D03*
X71297800Y-130962400D03*
X69373021Y-137592419D03*
X78892400Y-121775500D03*
X79142977Y-79785795D03*
X69469000Y-142101500D03*
%TO.N,/POWER_SWITCHES/BTS50010-1TAE6/IN*%
X102108000Y-102108000D03*
X74295000Y-142101500D03*
X76200000Y-130962400D03*
X81178400Y-121775500D03*
X83258361Y-107968801D03*
X78790800Y-124155200D03*
X102044278Y-79439816D03*
X74257307Y-136652963D03*
%TO.N,/POWER_SWITCHES/BTS722204-2/OUT2*%
X114248089Y-111478455D03*
X115048089Y-111485855D03*
X114248089Y-110578455D03*
X115048089Y-112385855D03*
X115048089Y-110585855D03*
X114248089Y-112378455D03*
D38*
%TO.N,/POWER_SWITCHES/BTS722204-2/OUT3*%
X117856889Y-110575455D03*
X116956889Y-112375455D03*
X118756889Y-111475455D03*
X117856889Y-112375455D03*
X116106889Y-112365455D03*
X117856889Y-111475455D03*
X116956889Y-110575455D03*
X116956889Y-111475455D03*
X116106889Y-111465455D03*
X116106889Y-110565455D03*
X118756889Y-112375455D03*
X118756889Y-110575455D03*
D37*
%TO.N,/POWER_SWITCHES/BTS50010-1TAE7/IN*%
X85213003Y-109233003D03*
X78846575Y-138094824D03*
X124725700Y-80137000D03*
X80975200Y-124307600D03*
X124000101Y-102872642D03*
X80975200Y-130962400D03*
X79248000Y-142101500D03*
X83007200Y-121767600D03*
%TO.N,/POWER_SWITCHES/BTS50010-1TAE5/IN*%
X85090000Y-117475000D03*
X86280000Y-109110000D03*
X131643300Y-79629000D03*
X123190000Y-103840555D03*
%TO.N,LP_SIG_IN1*%
X49866589Y-131333411D03*
X94900000Y-125550000D03*
D39*
%TO.N,+5V*%
X117348000Y-129540000D03*
D38*
X84732066Y-123649534D03*
D39*
X94234000Y-130175000D03*
D38*
X65633600Y-123521400D03*
D39*
X104852200Y-129921000D03*
D37*
X87750000Y-154000000D03*
X61724413Y-119064783D03*
X57048400Y-114503200D03*
%TO.N,Net-(JP1-Pad2)*%
X54198761Y-140492239D03*
%TO.N,/ARGB_LEDS/LED_DATA_IN*%
X27400500Y-143256000D03*
X29319411Y-132697411D03*
%TO.N,/POWER1/PG3V3*%
X100431600Y-137871200D03*
X96977200Y-141325600D03*
%TO.N,/PERIPHERAL/BUZZ_IN*%
X45000000Y-152724500D03*
D38*
%TO.N,12V_LOGIC_ONLY*%
X95372324Y-145526242D03*
D37*
X100711000Y-145186400D03*
%TO.N,Net-(Q2-Pad1)*%
X106250000Y-149250000D03*
%TO.N,LP_SIG_IN2*%
X50554469Y-133045531D03*
X95927493Y-125593998D03*
%TO.N,LP_SIG_IN3*%
X49250000Y-132650000D03*
X97000000Y-125550000D03*
%TO.N,LP_SIG_IN4*%
X49670938Y-133929062D03*
X98100000Y-125500000D03*
%TO.N,LP_SIG_IN5*%
X115600000Y-125250000D03*
X49950000Y-142150000D03*
%TO.N,LP_SIG_IN6*%
X116750000Y-125250000D03*
X50120911Y-143204089D03*
%TO.N,LP_SIG_IN7*%
X118000000Y-125250000D03*
X44000000Y-143829089D03*
%TO.N,LP_SIG_IN8*%
X43250000Y-144453589D03*
X119250000Y-125250000D03*
%TO.N,VDDA*%
X43200000Y-121500000D03*
%TO.N,/VOLTAGE_OUT_MUX/HP_MOS_ADC*%
X73900000Y-117850000D03*
X59309300Y-118084300D03*
%TO.N,NCS*%
X28956000Y-125476000D03*
X29464000Y-128016000D03*
%TO.N,SENS_OUT1*%
X42750000Y-79750000D03*
X44173308Y-104025897D03*
%TO.N,SENS_OUT2*%
X44250000Y-70500000D03*
X44775500Y-103500000D03*
%TO.N,SENS_OUT3*%
X60276500Y-108000000D03*
X59472940Y-72009000D03*
%TO.N,SENS_OUT4*%
X61976000Y-107391200D03*
X72200000Y-68100000D03*
%TO.N,SENS_OUT5*%
X78985500Y-77343000D03*
X80850000Y-111650000D03*
X80907500Y-109256997D03*
X59502711Y-119160889D03*
%TO.N,SENS_OUT6*%
X82579808Y-112450208D03*
X58629322Y-119170678D03*
X102870000Y-101473000D03*
X101193600Y-68732400D03*
%TO.N,SENS_OUT7*%
X123647200Y-76479400D03*
X82051597Y-113861597D03*
X123291600Y-101600000D03*
X57962800Y-121259600D03*
%TO.N,SENS_OUT8*%
X132350000Y-68950000D03*
X122250000Y-104465055D03*
X58320349Y-121974697D03*
X82500000Y-115420000D03*
%TO.N,BK1_IO0*%
X23950000Y-121525000D03*
X24875000Y-123244500D03*
%TO.N,BK1_IO1*%
X27778945Y-127567306D03*
X28375000Y-124100000D03*
%TO.N,BK1_IO2*%
X26972094Y-127469171D03*
X28175000Y-122975000D03*
%TO.N,LP_CSN1*%
X66142100Y-133950000D03*
X46415534Y-145544343D03*
X54568385Y-144752622D03*
X92506800Y-125456600D03*
%TO.N,LP_CSN2*%
X113000000Y-125250000D03*
X58533483Y-144752622D03*
X63000000Y-142551500D03*
X47650000Y-146394710D03*
%TO.N,NRST*%
X37800000Y-133125000D03*
%TO.N,/PERIPHERAL/TEMP1_ALERT*%
X55950000Y-153575000D03*
X51325000Y-153733900D03*
D40*
%TO.N,HP_MOS3*%
X55000000Y-62500000D03*
X59000000Y-62500000D03*
X49000000Y-62500000D03*
X51000000Y-64500000D03*
X49000000Y-66500000D03*
X59000000Y-64500000D03*
D37*
X59944000Y-66802000D03*
X62998749Y-112751308D03*
D40*
X51000000Y-62500000D03*
X49000000Y-64500000D03*
X53000000Y-62500000D03*
X55000000Y-66500000D03*
X57000000Y-66500000D03*
X53000000Y-64500000D03*
X57000000Y-64500000D03*
D37*
%TO.N,/IMU/IMU_I2C_SA0*%
X29625675Y-135001783D03*
X23525212Y-137547894D03*
%TO.N,/IMU/IMU_I2C_SDA*%
X30099000Y-133731000D03*
X26968324Y-136915549D03*
X24983411Y-137633411D03*
%TO.N,/IMU/IMU_I2C_SCL*%
X30446512Y-132742851D03*
%TO.N,/CAN_BUS/CAN2_RX*%
X50673000Y-112903000D03*
X46303744Y-131620566D03*
%TO.N,/CAN_BUS/CAN2_TX*%
X50850000Y-136200000D03*
X46990000Y-113030000D03*
%TO.N,/CAN_BUS/CAN1_RX*%
X51004969Y-131700000D03*
X57250000Y-113150000D03*
%TO.N,/CAN_BUS/CAN1_TX*%
X53650000Y-113200000D03*
X51476609Y-130176609D03*
%TO.N,CAN1_H*%
X54825400Y-104444400D03*
%TO.N,CAN1_L*%
X56225400Y-104444400D03*
%TO.N,CAN2_L*%
X49425400Y-104444400D03*
%TO.N,CAN2_H*%
X48125400Y-104444400D03*
%TO.N,Net-(R107-Pad2)*%
X30226000Y-106934000D03*
X62357000Y-141137300D03*
X78105000Y-139888300D03*
X76708000Y-141137300D03*
X36132997Y-129475003D03*
X36254362Y-127182305D03*
%TO.N,SWDIO*%
X37592000Y-146812000D03*
%TO.N,SWCLK*%
X42164000Y-149733000D03*
%TO.N,CONN_AD_IN1*%
X22606000Y-103632000D03*
%TO.N,CONN_AD_IN2*%
X25146000Y-103632000D03*
%TO.N,CONN_AD_IN3*%
X27686000Y-103632000D03*
%TO.N,CONN_AD_IN4*%
X30226000Y-103632000D03*
%TO.N,CONN_AD_IN5*%
X31496000Y-103632000D03*
%TO.N,CONN_AD_IN6*%
X34036000Y-103632000D03*
%TO.N,CONN_AD_IN7*%
X36576000Y-103886000D03*
%TO.N,CONN_AD_IN8*%
X38989000Y-103886000D03*
%TO.N,Net-(R110-Pad2)*%
X66167000Y-137160000D03*
X22606000Y-106934000D03*
D40*
%TO.N,HP_MOS1*%
X48000000Y-54500000D03*
X28500000Y-62500000D03*
D37*
X40410000Y-68350000D03*
X65000000Y-119400000D03*
D40*
X46000000Y-52500000D03*
X24500000Y-56500000D03*
X26500000Y-58500000D03*
X26500000Y-56500000D03*
X24500000Y-64500000D03*
X34500000Y-54500000D03*
X32500000Y-52500000D03*
X28500000Y-58500000D03*
X18500000Y-62500000D03*
X38500000Y-50500000D03*
X36500000Y-50500000D03*
X28500000Y-56500000D03*
X36500000Y-52500000D03*
X26500000Y-60500000D03*
X28500000Y-52500000D03*
X30500000Y-58500000D03*
X24500000Y-58500000D03*
X28500000Y-64500000D03*
X26500000Y-52500000D03*
X20500000Y-60500000D03*
X28500000Y-50500000D03*
X20500000Y-64500000D03*
X20500000Y-62500000D03*
X18500000Y-60500000D03*
X32500000Y-54500000D03*
X30500000Y-52500000D03*
X30500000Y-50500000D03*
X24500000Y-54500000D03*
X26500000Y-54500000D03*
X24500000Y-66500000D03*
X26500000Y-64500000D03*
X22500000Y-60500000D03*
X30500000Y-56500000D03*
X30500000Y-54500000D03*
X22500000Y-62500000D03*
X24500000Y-60500000D03*
X26500000Y-66500000D03*
X34500000Y-50500000D03*
X22500000Y-58500000D03*
X32500000Y-56500000D03*
X18500000Y-64500000D03*
X44000000Y-54500000D03*
X22500000Y-64500000D03*
X46000000Y-54500000D03*
X26500000Y-62500000D03*
X28500000Y-66500000D03*
X34500000Y-52500000D03*
X20500000Y-58500000D03*
X28500000Y-54500000D03*
X24500000Y-62500000D03*
X28500000Y-60500000D03*
X32500000Y-50500000D03*
X22500000Y-56500000D03*
X18500000Y-66500000D03*
%TO.N,HP_MOS2*%
X44000000Y-66500000D03*
X40000000Y-64500000D03*
X46000000Y-62500000D03*
X44000000Y-58500000D03*
X42000000Y-62500000D03*
X46000000Y-64500000D03*
X34000000Y-66500000D03*
X40000000Y-66500000D03*
X42000000Y-58500000D03*
X38000000Y-60500000D03*
X46000000Y-58500000D03*
X42000000Y-64500000D03*
X44000000Y-62500000D03*
X36000000Y-62500000D03*
D37*
X65000000Y-117100000D03*
D40*
X40000000Y-60500000D03*
X40000000Y-62500000D03*
X40000000Y-58500000D03*
X34000000Y-64500000D03*
X48000000Y-56500000D03*
X42000000Y-66500000D03*
X46000000Y-56500000D03*
X38000000Y-62500000D03*
X36000000Y-64500000D03*
X44000000Y-60500000D03*
X44000000Y-64500000D03*
X42000000Y-60500000D03*
X46000000Y-66500000D03*
X38000000Y-64500000D03*
X44000000Y-56500000D03*
X46000000Y-60500000D03*
D37*
%TO.N,HP_MOS4*%
X64000000Y-111500000D03*
D40*
X74000000Y-64500000D03*
X70000000Y-66500000D03*
X66000000Y-62500000D03*
X62000000Y-66500000D03*
X72000000Y-66500000D03*
X70000000Y-62500000D03*
X70000000Y-60500000D03*
X74000000Y-66500000D03*
X74000000Y-60500000D03*
X72000000Y-64500000D03*
X66000000Y-64500000D03*
X72000000Y-62500000D03*
X68000000Y-62500000D03*
X64000000Y-64500000D03*
X74000000Y-62500000D03*
X68000000Y-64500000D03*
X70000000Y-64500000D03*
X64000000Y-66500000D03*
X72000000Y-60500000D03*
D37*
%TO.N,HP_MOS5*%
X78359000Y-79629000D03*
D40*
X76500000Y-64500000D03*
X81000000Y-57000000D03*
X82500000Y-62500000D03*
X76500000Y-58500000D03*
X76500000Y-62500000D03*
X89000000Y-66500000D03*
X89000000Y-64500000D03*
X81000000Y-64500000D03*
X76500000Y-66500000D03*
D37*
X80000000Y-110871000D03*
D40*
X76500000Y-60500000D03*
X81000000Y-62500000D03*
X82500000Y-64500000D03*
D37*
%TO.N,HP_MOS6*%
X101473000Y-101473000D03*
D40*
X105000000Y-65000000D03*
X103500000Y-63500000D03*
X95500000Y-64500000D03*
X94000000Y-62500000D03*
D37*
X99275000Y-67250000D03*
D40*
X91000000Y-66500000D03*
%TO.N,HP_MOS7*%
X119000000Y-64500000D03*
D37*
X123981492Y-102006400D03*
D40*
X117500000Y-64500000D03*
X108000000Y-62500000D03*
X117500000Y-66500000D03*
X111500000Y-57500000D03*
X110000000Y-62500000D03*
X119000000Y-66500000D03*
X108000000Y-60500000D03*
X115500000Y-61500000D03*
X112500000Y-64500000D03*
X110500000Y-64500000D03*
D37*
X124333000Y-77597000D03*
D40*
X113500000Y-59500000D03*
D37*
%TO.N,/VOLTAGE_OUT_MUX/HP_MOS_SEL3*%
X67645493Y-112268787D03*
X63802911Y-114597089D03*
%TO.N,/VOLTAGE_OUT_MUX/HP_MOS_SEL2*%
X68176935Y-112904803D03*
X63591589Y-115691589D03*
%TO.N,/VOLTAGE_OUT_MUX/HP_MOS_SEL1*%
X68606657Y-113579001D03*
X63844499Y-116450035D03*
D40*
%TO.N,HP_MOS8*%
X124000000Y-60500000D03*
X122000000Y-60500000D03*
X132500000Y-60500000D03*
X128500000Y-54500000D03*
X124000000Y-62500000D03*
X124000000Y-64500000D03*
X118000000Y-56500000D03*
D37*
X121309289Y-105092055D03*
D40*
X130000000Y-58500000D03*
X120000000Y-58500000D03*
X132000000Y-56500000D03*
X126500000Y-54500000D03*
X134500000Y-60500000D03*
X124000000Y-52500000D03*
X130000000Y-64500000D03*
X118000000Y-54500000D03*
X116500000Y-52500000D03*
X134000000Y-58500000D03*
D37*
X134000000Y-67000000D03*
D40*
X132000000Y-66500000D03*
X122000000Y-58500000D03*
X114500000Y-52500000D03*
X130000000Y-56500000D03*
X132000000Y-58500000D03*
X126000000Y-64500000D03*
X120000000Y-56500000D03*
X124000000Y-66500000D03*
X128000000Y-56500000D03*
X134500000Y-62500000D03*
X116000000Y-54500000D03*
X126000000Y-52500000D03*
X126000000Y-62500000D03*
D37*
%TO.N,+3.3V*%
X78105000Y-142101500D03*
D39*
X123850400Y-120040400D03*
X93878400Y-149606000D03*
D37*
X55563724Y-140011921D03*
X91171600Y-141347600D03*
X39840855Y-145157557D03*
X40132000Y-147828000D03*
X98106003Y-138644403D03*
X36500000Y-141500000D03*
D38*
X87426800Y-125374400D03*
D37*
X68500000Y-118000000D03*
X32319000Y-112058000D03*
X32333554Y-129604488D03*
X37450000Y-111958000D03*
X51622007Y-139967768D03*
X90271600Y-139547600D03*
X90271600Y-141347600D03*
X91171600Y-140447600D03*
X35493179Y-125649230D03*
D39*
X123850400Y-118999000D03*
D37*
X82931000Y-142101500D03*
X21450000Y-140900000D03*
X57375000Y-150475000D03*
X46103741Y-141858945D03*
X32900000Y-132850000D03*
X73152000Y-142101500D03*
X68199000Y-142101500D03*
X28488581Y-132725671D03*
D38*
X107035600Y-124482600D03*
D37*
X77978000Y-126746000D03*
X32386011Y-137700733D03*
X92071600Y-139547600D03*
D39*
X123850400Y-121107200D03*
D37*
X21573988Y-141800325D03*
X92071600Y-140447600D03*
X90271600Y-140447600D03*
X68199000Y-126746000D03*
X22275000Y-112108000D03*
X40162914Y-121051338D03*
X55480800Y-147878800D03*
X39450000Y-126550000D03*
X27271000Y-112108000D03*
X54351718Y-133803302D03*
X73152000Y-126746000D03*
X91171600Y-139547600D03*
X92071600Y-141347600D03*
X21485000Y-127955000D03*
X82931000Y-126746000D03*
D39*
X123834000Y-122199400D03*
D37*
X50450000Y-125300000D03*
%TO.N,SAFETY_IN*%
X75057000Y-57785000D03*
X78359000Y-154432000D03*
X65405000Y-138430000D03*
X83159600Y-138811000D03*
X83312000Y-154432000D03*
X75046500Y-137947590D03*
X66929000Y-149860000D03*
X66243200Y-142101500D03*
X70256400Y-138734800D03*
X69549847Y-124150553D03*
X85000000Y-155000000D03*
X73279000Y-154432000D03*
X79618500Y-138303000D03*
X73253600Y-138811000D03*
X68453000Y-154432000D03*
X65913000Y-131445000D03*
X70866000Y-119475500D03*
X68400630Y-138218919D03*
X78232000Y-138811000D03*
X68153794Y-150559109D03*
%TO.N,SPI3_MISO*%
X108751978Y-124185150D03*
X64798369Y-132387654D03*
X103531814Y-123645786D03*
X88650000Y-125323600D03*
%TO.N,SPI3_MOSI*%
X63000000Y-133900000D03*
X99745800Y-124282200D03*
X89916000Y-125323600D03*
X110000000Y-125150000D03*
%TO.N,SPI3_SCK*%
X65576542Y-133376542D03*
X91186000Y-125323600D03*
X111650000Y-125200000D03*
%TO.N,Net-(R113-Pad2)*%
X25146000Y-106934000D03*
X70866000Y-136624500D03*
%TO.N,Net-(R114-Pad2)*%
X35472245Y-128814252D03*
X75565000Y-141703122D03*
X35689029Y-126616971D03*
X61595000Y-141605000D03*
X27686000Y-107061000D03*
X75310561Y-138791861D03*
%TO.N,Net-(R116-Pad2)*%
X40358854Y-131286796D03*
X65278000Y-152908000D03*
X40394500Y-138034341D03*
X32766000Y-106934000D03*
%TO.N,Net-(R117-Pad2)*%
X41010500Y-131750000D03*
X70497425Y-153693962D03*
X41021000Y-137287000D03*
X35179000Y-106934000D03*
%TO.N,Net-(R118-Pad2)*%
X41767892Y-131493951D03*
X75776628Y-152559661D03*
X37846000Y-107061000D03*
X41666500Y-138303000D03*
%TO.N,Net-(R119-Pad2)*%
X42291000Y-137287000D03*
X80391000Y-153797000D03*
X40386000Y-107061000D03*
X42420029Y-132000000D03*
%TO.N,Net-(D4-Pad3)*%
X45125827Y-148544210D03*
%TO.N,SPI1_MISO*%
X33850000Y-138600000D03*
%TO.N,SPI1_MOSI*%
X34650000Y-139500000D03*
%TD*%
D41*
%TO.N,+12V*%
X18415000Y-101597000D02*
X18322000Y-101504000D01*
X18415000Y-109347000D02*
X18415000Y-101597000D01*
%TO.N,GND*%
X38989000Y-124841000D02*
X38989000Y-124981104D01*
D42*
X37519395Y-140048147D02*
X36611209Y-140048147D01*
D41*
X55525400Y-102510400D02*
X55525400Y-103544400D01*
D42*
X56385800Y-149189200D02*
X55440400Y-149189200D01*
D41*
X49168485Y-121924050D02*
X49797101Y-121295431D01*
X49797101Y-121295431D02*
X51772758Y-121295432D01*
X48825400Y-102494400D02*
X48825400Y-103544400D01*
D42*
X60500000Y-147490000D02*
X60500000Y-146831600D01*
X55440400Y-149189200D02*
X55430000Y-149199600D01*
X53279522Y-141411478D02*
X52329180Y-141411478D01*
D41*
X43800000Y-122220354D02*
X43247017Y-122773337D01*
X43236976Y-122799218D02*
X43272898Y-122799216D01*
D42*
X52329180Y-141411478D02*
X52193402Y-141547256D01*
X37610624Y-140139376D02*
X37519395Y-140048147D01*
X89250000Y-154480000D02*
X89250000Y-153750000D01*
D41*
X43800000Y-122100000D02*
X43800000Y-122220354D01*
X42313071Y-123707285D02*
X43247017Y-122773337D01*
X32820000Y-128970000D02*
X33046718Y-129196718D01*
X34115879Y-130404121D02*
X34115879Y-130142982D01*
X38989000Y-124981104D02*
X39328232Y-125320336D01*
X33784121Y-130735878D02*
X34115879Y-130404121D01*
X34115879Y-130062981D02*
X34115879Y-130142982D01*
X33249614Y-129196718D02*
X34115879Y-130062981D01*
X51772758Y-121295432D02*
X52401377Y-120666813D01*
X33046718Y-129196718D02*
X33249614Y-129196718D01*
D42*
%TO.N,SENS_OUT_LP1*%
X59415459Y-122757159D02*
X60535212Y-122757159D01*
X59232800Y-122574500D02*
X59415459Y-122757159D01*
X99300630Y-122402000D02*
X99584395Y-122118235D01*
X60535212Y-122757159D02*
X60890371Y-122402000D01*
X60890371Y-122402000D02*
X99300630Y-122402000D01*
D41*
%TO.N,SENS_OUT_LP2*%
X56645345Y-123276500D02*
X56781845Y-123140000D01*
X99589305Y-122936000D02*
X119634000Y-122936000D01*
X119634000Y-122936000D02*
X120140000Y-122430000D01*
X60551936Y-123379659D02*
X61077595Y-122854000D01*
X61077595Y-122854000D02*
X99507305Y-122854000D01*
X58870000Y-123140000D02*
X59109659Y-123379659D01*
X99507305Y-122854000D02*
X99589305Y-122936000D01*
X56781845Y-123140000D02*
X58870000Y-123140000D01*
X59109659Y-123379659D02*
X60551936Y-123379659D01*
%TO.N,/POWER_SWITCHES/BTS50010-1TAE/IN*%
X41450000Y-80260000D02*
X34296500Y-80260000D01*
X43434000Y-82244000D02*
X41450000Y-80260000D01*
X43042000Y-105464792D02*
X43042000Y-87911403D01*
X46427208Y-108850000D02*
X43042000Y-105464792D01*
X61600000Y-117966356D02*
X61600000Y-115259188D01*
X43042000Y-87911403D02*
X43434000Y-87519403D01*
X62498519Y-118864875D02*
X61600000Y-117966356D01*
X61600000Y-115259188D02*
X55190812Y-108850000D01*
X55190812Y-108850000D02*
X46427208Y-108850000D01*
X34296500Y-80260000D02*
X34290000Y-80253500D01*
X43434000Y-87519403D02*
X43434000Y-82244000D01*
D43*
%TO.N,+12V*%
X111717126Y-51254000D02*
X109275526Y-48812400D01*
X109275526Y-48812400D02*
X102141600Y-48812400D01*
X127812800Y-80213200D02*
X127965200Y-80060800D01*
X118139449Y-51254000D02*
X111717126Y-51254000D01*
X126339600Y-81686400D02*
X127114300Y-80911700D01*
X127965200Y-61079751D02*
X118139449Y-51254000D01*
X102141600Y-48812400D02*
X99558000Y-51396000D01*
X127114300Y-80911700D02*
X127812800Y-80213200D01*
X127965200Y-80060800D02*
X127965200Y-61079751D01*
D41*
%TO.N,/POWER_SWITCHES/BTS50010-1TAE1/IN*%
X46613604Y-108400000D02*
X55377208Y-108400000D01*
X41097200Y-79004500D02*
X43942000Y-81849300D01*
X62050000Y-115072792D02*
X62050000Y-117533178D01*
X43492000Y-105278396D02*
X46613604Y-108400000D01*
X55377208Y-108400000D02*
X62050000Y-115072792D01*
X62050000Y-117533178D02*
X63358411Y-118841589D01*
X43942000Y-87647799D02*
X43492000Y-88097799D01*
X43942000Y-81849300D02*
X43942000Y-87647799D01*
X43492000Y-88097799D02*
X43492000Y-105278396D01*
%TO.N,/POWER_SWITCHES/BTS50010-1TAE2/IN*%
X59866559Y-103056260D02*
X58737000Y-101926701D01*
X58737000Y-101926701D02*
X58737000Y-82030724D01*
X56388000Y-79695000D02*
X56388000Y-79502000D01*
X58723724Y-82030724D02*
X56388000Y-79695000D01*
X58737000Y-82030724D02*
X58723724Y-82030724D01*
X59866559Y-103303041D02*
X59866559Y-103056260D01*
%TO.N,/POWER_SWITCHES/BTS50010-1TAE3/IN*%
X71755000Y-109220000D02*
X71120000Y-108585000D01*
X71120000Y-108585000D02*
X71120000Y-79883000D01*
X71120000Y-79883000D02*
X71374000Y-79629000D01*
D42*
%TO.N,/POWER_SWITCHES/BTS50010-1TAE4/IN*%
X81988000Y-108962800D02*
X83312000Y-110286800D01*
X78994000Y-84786188D02*
X84147000Y-89939188D01*
X79138500Y-121775500D02*
X78892400Y-121775500D01*
X78994000Y-79934772D02*
X78994000Y-84786188D01*
D41*
X76708000Y-124206000D02*
X71948200Y-128965800D01*
D42*
X81988000Y-105979052D02*
X81988000Y-108962800D01*
D41*
X71948200Y-130312000D02*
X71297800Y-130962400D01*
D42*
X79142977Y-79785795D02*
X78994000Y-79934772D01*
X84147000Y-103820052D02*
X81988000Y-105979052D01*
D41*
X69469000Y-142101500D02*
X69443600Y-142076100D01*
X69443600Y-137662998D02*
X69373021Y-137592419D01*
D42*
X84147000Y-89939188D02*
X84147000Y-103820052D01*
X83312000Y-110286800D02*
X83312000Y-117602000D01*
D41*
X71948200Y-128965800D02*
X71948200Y-130312000D01*
D42*
X83312000Y-117602000D02*
X79138500Y-121775500D01*
D41*
X76708000Y-124155200D02*
X76708000Y-124206000D01*
X69443600Y-142076100D02*
X69443600Y-137662998D01*
D42*
%TO.N,/POWER_SWITCHES/BTS50010-1TAE6/IN*%
X83258361Y-107968801D02*
X83766000Y-108476440D01*
D41*
X74422000Y-141974500D02*
X74422000Y-136817656D01*
D42*
X102044278Y-79439816D02*
X102054000Y-79449538D01*
D41*
X78790800Y-124155200D02*
X78790800Y-124206000D01*
X76184600Y-126812200D02*
X76184600Y-130947000D01*
D42*
X102054000Y-100228680D02*
X102235000Y-100409680D01*
D41*
X74295000Y-142101500D02*
X74422000Y-141974500D01*
D42*
X102235000Y-101981000D02*
X102108000Y-102108000D01*
X102235000Y-100409680D02*
X102235000Y-101981000D01*
D41*
X83764000Y-119189900D02*
X83764000Y-115956200D01*
X78790800Y-124206000D02*
X76184600Y-126812200D01*
D42*
X102054000Y-79449538D02*
X102054000Y-100228680D01*
D41*
X76184600Y-130947000D02*
X76200000Y-130962400D01*
X74422000Y-136817656D02*
X74257307Y-136652963D01*
D42*
X83766000Y-108476440D02*
X83766000Y-115956200D01*
D41*
X81178400Y-121775500D02*
X83764000Y-119189900D01*
D42*
%TO.N,/POWER_SWITCHES/BTS50010-1TAE7/IN*%
X124841000Y-80252300D02*
X124841000Y-82550000D01*
D41*
X80975200Y-124307600D02*
X80959800Y-124323000D01*
X79227125Y-139552125D02*
X78994000Y-139319000D01*
D42*
X85213003Y-109233003D02*
X85160500Y-109285506D01*
D41*
X79248000Y-142101500D02*
X79227125Y-142080625D01*
D42*
X124241204Y-102633400D02*
X124239343Y-102633400D01*
D41*
X80959800Y-124323000D02*
X80959800Y-130947000D01*
X78994000Y-139319000D02*
X78994000Y-138242249D01*
D42*
X124725700Y-80137000D02*
X124841000Y-80252300D01*
X85160500Y-109285506D02*
X85160500Y-115870000D01*
D41*
X79227125Y-142080625D02*
X79227125Y-139552125D01*
X84455000Y-120319800D02*
X84455000Y-116683900D01*
D42*
X124239343Y-102633400D02*
X124000101Y-102872642D01*
X124607992Y-102266612D02*
X124241204Y-102633400D01*
D41*
X80959800Y-130947000D02*
X80975200Y-130962400D01*
X83007200Y-121767600D02*
X84455000Y-120319800D01*
D42*
X124725700Y-80137000D02*
X124725700Y-80284200D01*
D41*
X84455000Y-116683900D02*
X85162500Y-115976400D01*
D42*
X124841000Y-82550000D02*
X124607992Y-82783008D01*
X124607992Y-82783008D02*
X124607992Y-102266612D01*
D41*
X78994000Y-138242249D02*
X78846575Y-138094824D01*
D42*
%TO.N,/POWER_SWITCHES/BTS50010-1TAE5/IN*%
X86280000Y-109110000D02*
X85614500Y-109775500D01*
X85614500Y-115936500D02*
X85618000Y-115940000D01*
D41*
X85614500Y-116950500D02*
X85614500Y-115936500D01*
D42*
X85614500Y-109775500D02*
X85614500Y-115936500D01*
X126350000Y-85450000D02*
X126350000Y-102225715D01*
X124735160Y-103840555D02*
X123190000Y-103840555D01*
X131643300Y-79629000D02*
X131643300Y-80156700D01*
X131643300Y-80156700D02*
X126350000Y-85450000D01*
X126350000Y-102225715D02*
X124735160Y-103840555D01*
D41*
X85090000Y-117475000D02*
X85614500Y-116950500D01*
%TO.N,LP_SIG_IN1*%
X84348800Y-134650000D02*
X92831400Y-126167400D01*
X49866589Y-131474473D02*
X53042116Y-134650000D01*
X49866589Y-131333411D02*
X49866589Y-131474473D01*
X94282600Y-126167400D02*
X94900000Y-125550000D01*
X92831400Y-126167400D02*
X94282600Y-126167400D01*
X53042116Y-134650000D02*
X84348800Y-134650000D01*
D43*
%TO.N,+5V*%
X118537923Y-50292000D02*
X112115600Y-50292000D01*
X94488000Y-129921000D02*
X94234000Y-130175000D01*
X104852200Y-129921000D02*
X94488000Y-129921000D01*
X122809000Y-112141000D02*
X122809000Y-124079000D01*
X135721140Y-67475217D02*
X135721140Y-99228860D01*
D42*
X69217288Y-123596400D02*
X69290135Y-123523553D01*
X69290135Y-123523553D02*
X84606085Y-123523553D01*
D43*
X135721140Y-99228860D02*
X122809000Y-112141000D01*
X132101523Y-63855600D02*
X135721140Y-67475217D01*
D42*
X65633600Y-123521400D02*
X65708600Y-123596400D01*
D43*
X132080000Y-63804800D02*
X132101523Y-63826323D01*
D42*
X88000000Y-154250000D02*
X87750000Y-154000000D01*
D43*
X132101523Y-63855600D02*
X118537923Y-50292000D01*
D42*
X65708600Y-123596400D02*
X69217288Y-123596400D01*
D43*
X112115600Y-50292000D02*
X109674000Y-47850400D01*
X109674000Y-47850400D02*
X100103600Y-47850400D01*
D42*
X57162830Y-114503200D02*
X57048400Y-114503200D01*
D43*
X132101523Y-63826323D02*
X132101523Y-63855600D01*
D42*
X84606085Y-123523553D02*
X84732066Y-123649534D01*
D43*
X122809000Y-124079000D02*
X117348000Y-129540000D01*
D42*
X88000000Y-154490000D02*
X88000000Y-154250000D01*
D43*
X100103600Y-47850400D02*
X96558000Y-51396000D01*
D42*
X61724413Y-119064783D02*
X57162830Y-114503200D01*
%TO.N,/ARGB_LEDS/LED_DATA_IN*%
X30067396Y-134461396D02*
X29942684Y-134461396D01*
X29942684Y-134461396D02*
X29319411Y-133838123D01*
X30353000Y-134747000D02*
X30067396Y-134461396D01*
X30353000Y-137255500D02*
X30353000Y-134747000D01*
X29319411Y-133838123D02*
X29319411Y-132697411D01*
X27400500Y-140208000D02*
X30353000Y-137255500D01*
X27400500Y-143256000D02*
X27400500Y-140208000D01*
D41*
%TO.N,/POWER1/PG3V3*%
X98028600Y-140223400D02*
X99720400Y-138531600D01*
X96977200Y-140955738D02*
X97709538Y-140223400D01*
X96977200Y-141325600D02*
X96977200Y-140955738D01*
X96977200Y-141325600D02*
X97114200Y-141188600D01*
X99720400Y-138531600D02*
X100380800Y-137871200D01*
X100380800Y-137871200D02*
X100431600Y-137871200D01*
X97709538Y-140223400D02*
X98028600Y-140223400D01*
D42*
%TO.N,/PERIPHERAL/BUZZ_IN*%
X87108000Y-151892000D02*
X105397000Y-151892000D01*
X105397000Y-151892000D02*
X106250000Y-151039000D01*
X47525500Y-155250000D02*
X83750000Y-155250000D01*
X83750000Y-155250000D02*
X87108000Y-151892000D01*
X106250000Y-151039000D02*
X106250000Y-151000000D01*
X45000000Y-152724500D02*
X47525500Y-155250000D01*
D41*
%TO.N,12V_LOGIC_ONLY*%
X100711000Y-145244700D02*
X100711000Y-145186400D01*
X95372324Y-145526242D02*
X95580882Y-145734800D01*
X100220900Y-145734800D02*
X100711000Y-145244700D01*
X95580882Y-145734800D02*
X100220900Y-145734800D01*
D42*
%TO.N,Net-(Q2-Pad1)*%
X106250000Y-149980000D02*
X106250000Y-149250000D01*
D41*
%TO.N,LP_SIG_IN2*%
X52608938Y-135100000D02*
X50554469Y-133045531D01*
X95927493Y-125593998D02*
X94904091Y-126617400D01*
X94904091Y-126617400D02*
X93017796Y-126617400D01*
X93017796Y-126617400D02*
X84535196Y-135100000D01*
X84535196Y-135100000D02*
X52608938Y-135100000D01*
%TO.N,LP_SIG_IN3*%
X95482600Y-127067400D02*
X93204192Y-127067400D01*
X93204192Y-127067400D02*
X84721592Y-135550000D01*
X97000000Y-125550000D02*
X95482600Y-127067400D01*
X84721592Y-135550000D02*
X52175054Y-135550000D01*
X49275054Y-132650000D02*
X49250000Y-132650000D01*
X52175054Y-135550000D02*
X49275054Y-132650000D01*
%TO.N,LP_SIG_IN4*%
X98100000Y-125500000D02*
X96082600Y-127517400D01*
X96082600Y-127517400D02*
X93390588Y-127517400D01*
X84907988Y-136000000D02*
X51741876Y-136000000D01*
X51741876Y-136000000D02*
X49670938Y-133929062D01*
X93390588Y-127517400D02*
X84907988Y-136000000D01*
%TO.N,LP_SIG_IN5*%
X113325000Y-127011396D02*
X97160396Y-143176000D01*
X97160396Y-143176000D02*
X59749933Y-143176000D01*
X115600000Y-125250000D02*
X115500000Y-125250000D01*
X59351555Y-142777622D02*
X50577622Y-142777622D01*
X50577622Y-142777622D02*
X49950000Y-142150000D01*
X115500000Y-125250000D02*
X113738604Y-127011396D01*
X59749933Y-143176000D02*
X59351555Y-142777622D01*
X113738604Y-127011396D02*
X113325000Y-127011396D01*
%TO.N,LP_SIG_IN6*%
X116712500Y-125250000D02*
X114501104Y-127461396D01*
X50144444Y-143227622D02*
X50120911Y-143204089D01*
X116750000Y-125250000D02*
X116712500Y-125250000D01*
X113511396Y-127461396D02*
X97346792Y-143626000D01*
X59165159Y-143227622D02*
X50144444Y-143227622D01*
X114501104Y-127461396D02*
X113511396Y-127461396D01*
X97346792Y-143626000D02*
X59563537Y-143626000D01*
X59563537Y-143626000D02*
X59165159Y-143227622D01*
%TO.N,LP_SIG_IN7*%
X51149033Y-143829089D02*
X44000000Y-143829089D01*
X97533188Y-144076000D02*
X59377141Y-144076000D01*
X59377141Y-144076000D02*
X58978763Y-143677622D01*
X118000000Y-125250000D02*
X115338604Y-127911396D01*
X115338604Y-127911396D02*
X113697792Y-127911396D01*
X113697792Y-127911396D02*
X97533188Y-144076000D01*
X51300500Y-143677622D02*
X51149033Y-143829089D01*
X58978763Y-143677622D02*
X51300500Y-143677622D01*
%TO.N,LP_SIG_IN8*%
X51486896Y-144127622D02*
X51160929Y-144453589D01*
X58792367Y-144127622D02*
X51486896Y-144127622D01*
X116138604Y-128361396D02*
X113884188Y-128361396D01*
X113884188Y-128361396D02*
X97719584Y-144526000D01*
X97719584Y-144526000D02*
X59190745Y-144526000D01*
X119250000Y-125250000D02*
X116138604Y-128361396D01*
X51160929Y-144453589D02*
X43250000Y-144453589D01*
X59190745Y-144526000D02*
X58792367Y-144127622D01*
%TO.N,VDDA*%
X41642166Y-123036381D02*
X42558154Y-122120395D01*
X40598549Y-124080000D02*
X40598550Y-124435392D01*
X42800692Y-122094516D02*
X42568194Y-122094514D01*
X42568195Y-122094515D02*
X42605485Y-122094515D01*
X42605485Y-122094515D02*
X43200000Y-121500000D01*
X41642166Y-123036381D02*
X40598549Y-124080000D01*
%TO.N,/VOLTAGE_OUT_MUX/HP_MOS_ADC*%
X63452887Y-119689283D02*
X63863604Y-120100000D01*
X63863604Y-120100000D02*
X72263604Y-120100000D01*
X60914283Y-119689283D02*
X63452887Y-119689283D01*
X73900000Y-118463604D02*
X73900000Y-117850000D01*
X59309300Y-118084300D02*
X60914283Y-119689283D01*
X72263604Y-120100000D02*
X73900000Y-118463604D01*
%TO.N,NCS*%
X28956000Y-125476000D02*
X28956000Y-127508000D01*
X28956000Y-127508000D02*
X29464000Y-128016000D01*
%TO.N,SENS_OUT1*%
X43942000Y-103794589D02*
X44173308Y-104025897D01*
X44392000Y-87834195D02*
X43942000Y-88284195D01*
X43942000Y-88284195D02*
X43942000Y-103794589D01*
X42750000Y-79750000D02*
X44392000Y-81392000D01*
X44392000Y-81392000D02*
X44392000Y-87834195D01*
%TO.N,SENS_OUT2*%
X44704000Y-89572805D02*
X47605000Y-86671805D01*
X44775500Y-103500000D02*
X44704000Y-103428500D01*
X47605000Y-86671805D02*
X47605000Y-81768000D01*
X44577000Y-70827000D02*
X44250000Y-70500000D01*
X47605000Y-81768000D02*
X44577000Y-78740000D01*
X44577000Y-78740000D02*
X44577000Y-70827000D01*
X44704000Y-103428500D02*
X44704000Y-89572805D01*
%TO.N,SENS_OUT3*%
X59187000Y-82217120D02*
X59472940Y-81931180D01*
X60451000Y-107825500D02*
X60451000Y-103602484D01*
X60276500Y-108000000D02*
X60451000Y-107825500D01*
X60491559Y-103561925D02*
X60491559Y-103044864D01*
X59472940Y-81931180D02*
X59472940Y-72009000D01*
X59187000Y-101740305D02*
X59187000Y-82217120D01*
X60491559Y-103044864D02*
X59187000Y-101740305D01*
X60451000Y-103602484D02*
X60491559Y-103561925D01*
%TO.N,SENS_OUT4*%
X63754000Y-76546000D02*
X72200000Y-68100000D01*
X61976000Y-88265000D02*
X63754000Y-86487000D01*
X61976000Y-107391200D02*
X61976000Y-88265000D01*
X63754000Y-86487000D02*
X63754000Y-76546000D01*
%TO.N,SENS_OUT5*%
X77734000Y-84973000D02*
X83241000Y-90480000D01*
X63677208Y-120550000D02*
X72450000Y-120550000D01*
X80850000Y-112413484D02*
X80850000Y-111650000D01*
X60691822Y-120350000D02*
X63477208Y-120350000D01*
X81082000Y-105603775D02*
X81082000Y-109082497D01*
X72450000Y-120550000D02*
X80208600Y-112791400D01*
X77734000Y-78594500D02*
X77734000Y-84973000D01*
X59502711Y-119160889D02*
X60691822Y-120350000D01*
X83241000Y-90480000D02*
X83241000Y-103444776D01*
X63477208Y-120350000D02*
X63677208Y-120550000D01*
X78985500Y-77343000D02*
X77734000Y-78594500D01*
X80208600Y-112791400D02*
X80472084Y-112791400D01*
X83241000Y-103444776D02*
X81082000Y-105603775D01*
X81082000Y-109082497D02*
X80907500Y-109256997D01*
X80472084Y-112791400D02*
X80850000Y-112413484D01*
%TO.N,SENS_OUT6*%
X79736396Y-113900000D02*
X79950000Y-113900000D01*
X102669278Y-79698700D02*
X102669278Y-71880254D01*
X81449672Y-112450208D02*
X79970880Y-113929000D01*
X102870000Y-100405455D02*
X102506000Y-100041455D01*
X72636396Y-121000000D02*
X79736396Y-113900000D01*
X102506000Y-100041455D02*
X102506000Y-79861978D01*
X58629322Y-119170678D02*
X60258644Y-120800000D01*
X102870000Y-101422200D02*
X102870000Y-100354655D01*
X60258644Y-120800000D02*
X60900000Y-120800000D01*
X101193600Y-70404576D02*
X101193600Y-68732400D01*
X60709384Y-120800000D02*
X63290812Y-120800000D01*
X102506000Y-79861978D02*
X102669278Y-79698700D01*
X63490812Y-121000000D02*
X72636396Y-121000000D01*
X63290812Y-120800000D02*
X63490812Y-121000000D01*
X102669278Y-71880254D02*
X101193600Y-70404576D01*
X82579808Y-112450208D02*
X81449672Y-112450208D01*
%TO.N,SENS_OUT7*%
X63304416Y-121450000D02*
X72822792Y-121450000D01*
X58013600Y-121310400D02*
X63164816Y-121310400D01*
X57962800Y-121259600D02*
X58013600Y-121310400D01*
X81988403Y-113861597D02*
X82051597Y-113861597D01*
X63164816Y-121310400D02*
X63304416Y-121450000D01*
X123647200Y-101244400D02*
X123647200Y-76479400D01*
X72822792Y-121450000D02*
X79022792Y-115250000D01*
X80600000Y-115250000D02*
X81988403Y-113861597D01*
X79022792Y-115250000D02*
X80600000Y-115250000D01*
X123291600Y-101600000D02*
X123647200Y-101244400D01*
%TO.N,SENS_OUT8*%
X82330000Y-115420000D02*
X82500000Y-115420000D01*
X132267800Y-69032200D02*
X132350000Y-68950000D01*
X58320349Y-121974697D02*
X58345046Y-121950000D01*
X72959188Y-121950000D02*
X79209188Y-115700000D01*
X126802000Y-85637224D02*
X132267800Y-80171424D01*
X79209188Y-115700000D02*
X82050000Y-115700000D01*
X82050000Y-115700000D02*
X82330000Y-115420000D01*
X122250000Y-104465055D02*
X124749884Y-104465055D01*
X126802000Y-102412939D02*
X126802000Y-85637224D01*
X124749884Y-104465055D02*
X126802000Y-102412939D01*
X58345046Y-121950000D02*
X72959188Y-121950000D01*
X132267800Y-80171424D02*
X132267800Y-69032200D01*
%TO.N,BK1_IO0*%
X23950000Y-121525000D02*
X24875000Y-122450000D01*
X24875000Y-122450000D02*
X24875000Y-123244500D01*
%TO.N,BK1_IO1*%
X28375000Y-124100000D02*
X27825000Y-124650000D01*
X27825000Y-126500000D02*
X27625000Y-126500000D01*
X27525000Y-125900000D02*
X27825000Y-125900000D01*
X27825000Y-125900000D02*
X28175000Y-125900000D01*
X27825000Y-127300000D02*
X27825000Y-127521251D01*
X27825000Y-127521251D02*
X27778945Y-127567306D01*
X27425000Y-126700000D02*
X27425000Y-126900000D01*
X27825000Y-124650000D02*
X27825000Y-125000000D01*
X28175000Y-126500000D02*
X27825000Y-126500000D01*
X28175000Y-126500000D02*
G75*
G03*
X28475000Y-126200000I0J300000D01*
G01*
X27425000Y-126700000D02*
G75*
G02*
X27625000Y-126500000I200000J0D01*
G01*
X27225000Y-125600000D02*
G75*
G02*
X27525000Y-125300000I300000J0D01*
G01*
X27525000Y-125900000D02*
G75*
G02*
X27225000Y-125600000I0J300000D01*
G01*
X27625000Y-127100000D02*
G75*
G02*
X27425000Y-126900000I0J200000D01*
G01*
X28475000Y-126200000D02*
G75*
G03*
X28175000Y-125900000I-300000J0D01*
G01*
X27525000Y-125300000D02*
G75*
G03*
X27825000Y-125000000I0J300000D01*
G01*
X27825000Y-127300000D02*
G75*
G03*
X27625000Y-127100000I-200000J0D01*
G01*
%TO.N,BK1_IO2*%
X26972094Y-127469171D02*
X26750000Y-127247077D01*
X26450000Y-126050000D02*
X26263584Y-126050000D01*
X26750000Y-125150000D02*
X26750000Y-125100000D01*
X26750000Y-127247077D02*
X26750000Y-126350000D01*
X26263584Y-125450000D02*
X26450000Y-125450000D01*
X26750000Y-125100000D02*
X26750000Y-124400000D01*
X26750000Y-124400000D02*
X28175000Y-122975000D01*
X25963600Y-125750000D02*
G75*
G03*
X26263584Y-126050000I300000J0D01*
G01*
X26450000Y-126050000D02*
G75*
G02*
X26750000Y-126350000I0J-300000D01*
G01*
X26263584Y-125449984D02*
G75*
G03*
X25963584Y-125750000I16J-300016D01*
G01*
X26750000Y-125150000D02*
G75*
G02*
X26450000Y-125450000I-300000J0D01*
G01*
%TO.N,LP_CSN1*%
X89760588Y-126398600D02*
X82209188Y-133950000D01*
X51610929Y-144639985D02*
X54455748Y-144639985D01*
X50480704Y-145770210D02*
X51610929Y-144639985D01*
X54455748Y-144639985D02*
X54568385Y-144752622D01*
X46415534Y-145544343D02*
X46641401Y-145770210D01*
X46641401Y-145770210D02*
X50480704Y-145770210D01*
X92506800Y-125456600D02*
X91564800Y-126398600D01*
X82209188Y-133950000D02*
X66142100Y-133950000D01*
X91564800Y-126398600D02*
X89760588Y-126398600D01*
%TO.N,LP_CSN2*%
X50492600Y-146394710D02*
X47650000Y-146394710D01*
X113000000Y-126700000D02*
X113000000Y-125250000D01*
X63000000Y-142551500D02*
X63174500Y-142726000D01*
X96974000Y-142726000D02*
X113000000Y-126700000D01*
X57908483Y-145377622D02*
X51509688Y-145377622D01*
X58533483Y-144752622D02*
X57908483Y-145377622D01*
X51509688Y-145377622D02*
X50492600Y-146394710D01*
X63174500Y-142726000D02*
X96974000Y-142726000D01*
D42*
%TO.N,NRST*%
X30100000Y-141096000D02*
X30100000Y-155455000D01*
X37719000Y-133206000D02*
X37719000Y-133477000D01*
X37719000Y-133477000D02*
X30100000Y-141096000D01*
X37800000Y-133125000D02*
X37719000Y-133206000D01*
%TO.N,/PERIPHERAL/TEMP1_ALERT*%
X55950000Y-153575000D02*
X55783901Y-153741099D01*
X51332199Y-153741099D02*
X51325000Y-153733900D01*
X55783901Y-153741099D02*
X51332199Y-153741099D01*
D41*
%TO.N,HP_MOS3*%
X61000000Y-87042511D02*
X60828440Y-86870951D01*
X60901000Y-106945920D02*
X61000000Y-106846920D01*
X61000000Y-106846920D02*
X61000000Y-87042511D01*
X62998749Y-112751308D02*
X62998749Y-112630349D01*
X60901000Y-110532600D02*
X60901000Y-106945920D01*
X62998749Y-112630349D02*
X60901000Y-110532600D01*
X60828440Y-86870951D02*
X60828440Y-67686440D01*
X60828440Y-67686440D02*
X59944000Y-66802000D01*
%TO.N,/IMU/IMU_I2C_SA0*%
X24235729Y-138258411D02*
X23525212Y-137547894D01*
X29625675Y-135142082D02*
X26509346Y-138258411D01*
X29625675Y-135001783D02*
X29625675Y-135142082D01*
X26509346Y-138258411D02*
X24235729Y-138258411D01*
%TO.N,/IMU/IMU_I2C_SDA*%
X30290624Y-133539376D02*
X30689376Y-133539376D01*
X30099000Y-133731000D02*
X30290624Y-133539376D01*
X26968324Y-136915549D02*
X26250462Y-137633411D01*
X26250462Y-137633411D02*
X24983411Y-137633411D01*
%TO.N,/IMU/IMU_I2C_SCL*%
X31689376Y-132589376D02*
X30599987Y-132589376D01*
X30599987Y-132589376D02*
X30446512Y-132742851D01*
%TO.N,/CAN_BUS/CAN2_RX*%
X50673000Y-114277000D02*
X50673000Y-112903000D01*
X45900000Y-131216822D02*
X45900000Y-125670280D01*
X48075000Y-120261396D02*
X48075000Y-116875000D01*
X46303744Y-131620566D02*
X45900000Y-131216822D01*
X45900000Y-125670280D02*
X46875000Y-124695280D01*
X46875000Y-124695280D02*
X46875000Y-121461396D01*
X46875000Y-121461396D02*
X48075000Y-120261396D01*
X48075000Y-116875000D02*
X50673000Y-114277000D01*
%TO.N,/CAN_BUS/CAN2_TX*%
X47625000Y-120075000D02*
X47625000Y-113665000D01*
X50850000Y-136200000D02*
X50000000Y-136200000D01*
X46425000Y-121275000D02*
X47625000Y-120075000D01*
X47625000Y-113665000D02*
X46990000Y-113030000D01*
X46425000Y-124508884D02*
X46425000Y-121275000D01*
X45450000Y-131650000D02*
X45450000Y-125483884D01*
X45450000Y-125483884D02*
X46425000Y-124508884D01*
X50000000Y-136200000D02*
X45450000Y-131650000D01*
%TO.N,/CAN_BUS/CAN1_RX*%
X52100000Y-127336396D02*
X54218500Y-125217896D01*
X51004969Y-131700000D02*
X51083884Y-131700000D01*
X54218500Y-116181500D02*
X57250000Y-113150000D01*
X51083884Y-131700000D02*
X52101609Y-130682275D01*
X52100000Y-129916116D02*
X52100000Y-127336396D01*
X52101609Y-130682275D02*
X52101609Y-129917725D01*
X54218500Y-125217896D02*
X54218500Y-116181500D01*
X52101609Y-129917725D02*
X52100000Y-129916116D01*
%TO.N,/CAN_BUS/CAN1_TX*%
X51476609Y-130176609D02*
X51500000Y-130153218D01*
X53594000Y-125206000D02*
X53594000Y-113256000D01*
X51500000Y-130153218D02*
X51500000Y-127300000D01*
X51500000Y-127300000D02*
X53594000Y-125206000D01*
X53594000Y-113256000D02*
X53650000Y-113200000D01*
D42*
%TO.N,CAN1_H*%
X54156000Y-95498052D02*
X54156000Y-92974000D01*
X54156000Y-89324000D02*
X54156000Y-70709387D01*
X53693339Y-89674000D02*
X53856000Y-89674000D01*
D41*
X54875400Y-100610400D02*
X54875400Y-104394400D01*
D42*
X53856000Y-92674000D02*
X53693339Y-92674000D01*
X54156000Y-89374000D02*
X54156000Y-89324000D01*
X53693339Y-90874000D02*
X53856000Y-90874000D01*
X54915400Y-98994400D02*
X54722000Y-98801000D01*
X54722000Y-98801000D02*
X54722000Y-96064052D01*
X62558000Y-62307387D02*
X62558000Y-56896000D01*
X54915400Y-100570400D02*
X54875400Y-100610400D01*
X54156000Y-70709387D02*
X62558000Y-62307387D01*
X53856000Y-90274000D02*
X53693339Y-90274000D01*
X53693339Y-92074000D02*
X53856000Y-92074000D01*
X54722000Y-96064052D02*
X54156000Y-95498052D01*
X53856000Y-91474000D02*
X53693339Y-91474000D01*
X54915400Y-98994400D02*
X54915400Y-100570400D01*
D41*
X54875400Y-104394400D02*
X54825400Y-104444400D01*
D42*
X54156000Y-91774000D02*
G75*
G02*
X53856000Y-92074000I-300000J0D01*
G01*
X53856000Y-90274000D02*
G75*
G02*
X54156000Y-90574000I0J-300000D01*
G01*
X54156000Y-89374000D02*
G75*
G02*
X53856000Y-89674000I-300000J0D01*
G01*
X53856000Y-92674000D02*
G75*
G02*
X54156000Y-92974000I0J-300000D01*
G01*
X54156000Y-90574000D02*
G75*
G02*
X53856000Y-90874000I-300000J0D01*
G01*
X53856000Y-91474000D02*
G75*
G02*
X54156000Y-91774000I0J-300000D01*
G01*
X53693339Y-92074039D02*
G75*
G03*
X53393339Y-92374000I-39J-299961D01*
G01*
X53693339Y-89674039D02*
G75*
G03*
X53393339Y-89974000I-39J-299961D01*
G01*
X53393300Y-89974000D02*
G75*
G03*
X53693339Y-90274000I300000J0D01*
G01*
X53693339Y-90874039D02*
G75*
G03*
X53393339Y-91174000I-39J-299961D01*
G01*
X53393300Y-92374000D02*
G75*
G03*
X53693339Y-92674000I300000J0D01*
G01*
X53393300Y-91174000D02*
G75*
G03*
X53693339Y-91474000I300000J0D01*
G01*
%TO.N,CAN1_L*%
X65558000Y-56896000D02*
X65558000Y-59949439D01*
X54610000Y-95060000D02*
X56175400Y-96625400D01*
X54610000Y-70897439D02*
X54610000Y-95060000D01*
X65558000Y-59949439D02*
X54610000Y-70897439D01*
X56175400Y-96625400D02*
X56175400Y-100610400D01*
D41*
X56175400Y-100610400D02*
X56175400Y-104394400D01*
X56175400Y-104394400D02*
X56225400Y-104444400D01*
D42*
%TO.N,CAN2_L*%
X49450000Y-98869800D02*
X49450000Y-98000000D01*
X59558000Y-60062000D02*
X59558000Y-56896000D01*
X49325400Y-98994400D02*
X49450000Y-98869800D01*
X49325400Y-100444400D02*
X49475400Y-100594400D01*
D41*
X49475400Y-100594400D02*
X49475400Y-104394400D01*
D42*
X52254000Y-95196000D02*
X52254000Y-67366000D01*
X49450000Y-98000000D02*
X52254000Y-95196000D01*
D41*
X49475400Y-104394400D02*
X49425400Y-104444400D01*
D42*
X49325400Y-98994400D02*
X49325400Y-100444400D01*
X52254000Y-67366000D02*
X59558000Y-60062000D01*
D41*
%TO.N,CAN2_H*%
X51800000Y-94700000D02*
X51800000Y-92850000D01*
D42*
X56558000Y-62419948D02*
X51800000Y-67177948D01*
X56558000Y-56896000D02*
X56558000Y-62419948D01*
D41*
X51450845Y-91950000D02*
X51500000Y-91950000D01*
X51800000Y-91650000D02*
X51800000Y-86800000D01*
X48305400Y-98994400D02*
X48305400Y-100464400D01*
X48305400Y-98194600D02*
X51800000Y-94700000D01*
D42*
X51800000Y-67177948D02*
X51800000Y-85700000D01*
D41*
X48305400Y-100464400D02*
X48175400Y-100594400D01*
X51500000Y-92550000D02*
X51450845Y-92550000D01*
X48305400Y-98994400D02*
X48305400Y-98194600D01*
X51800000Y-86800000D02*
X51800000Y-85700000D01*
X48175400Y-100594400D02*
X48175400Y-104394400D01*
X48175400Y-104394400D02*
X48125400Y-104444400D01*
X51450845Y-91950045D02*
G75*
G03*
X51150845Y-92250000I-45J-299955D01*
G01*
X51500000Y-92550000D02*
G75*
G02*
X51800000Y-92850000I0J-300000D01*
G01*
X51150800Y-92250000D02*
G75*
G03*
X51450845Y-92550000I300000J0D01*
G01*
X51800000Y-91650000D02*
G75*
G02*
X51500000Y-91950000I-300000J0D01*
G01*
%TO.N,Net-(R107-Pad2)*%
X36132997Y-129475003D02*
X36379778Y-129475003D01*
X36254362Y-127182305D02*
X36314029Y-127122638D01*
X59399682Y-138520682D02*
X62016300Y-141137300D01*
X30874000Y-118990368D02*
X30874000Y-107582000D01*
X36314029Y-124430397D02*
X30874000Y-118990368D01*
X44716775Y-137812000D02*
X49299054Y-137812000D01*
X55189000Y-137810000D02*
X55899682Y-138520682D01*
X77957000Y-139888300D02*
X76708000Y-141137300D01*
X49299054Y-137812000D02*
X49301054Y-137810000D01*
X78105000Y-139888300D02*
X77957000Y-139888300D01*
X55899682Y-138520682D02*
X59399682Y-138520682D01*
X36314029Y-127122638D02*
X36314029Y-124430397D01*
X62016300Y-141137300D02*
X62357000Y-141137300D01*
X49301054Y-137810000D02*
X55189000Y-137810000D01*
X30874000Y-107582000D02*
X30226000Y-106934000D01*
X36379778Y-129475003D02*
X44716775Y-137812000D01*
D42*
%TO.N,SWDIO*%
X37151665Y-146812000D02*
X37592000Y-146812000D01*
X33067058Y-150896604D02*
X35255399Y-148708266D01*
X32049165Y-151151505D02*
X32812161Y-151914500D01*
X32387894Y-152338766D02*
X31624899Y-151575770D01*
X31370000Y-155455000D02*
X31370000Y-152593665D01*
X33236425Y-151490234D02*
X33236425Y-151490235D01*
X32387894Y-152338765D02*
X32387894Y-152338766D01*
X33236425Y-151490235D02*
X33067058Y-151320868D01*
X35255399Y-148708266D02*
X37151665Y-146812000D01*
X32049165Y-151151506D02*
X32049165Y-151151505D01*
X31794264Y-152593665D02*
X31963630Y-152763031D01*
X33236392Y-151490267D02*
G75*
G02*
X33236425Y-151914500I-212092J-212133D01*
G01*
X31794263Y-152593666D02*
G75*
G03*
X31370001Y-152593666I-212131J-212131D01*
G01*
X32387893Y-152763030D02*
G75*
G02*
X31963631Y-152763030I-212131J212131D01*
G01*
X32387892Y-152338767D02*
G75*
G02*
X32387894Y-152763031I-212092J-212133D01*
G01*
X32049164Y-151151507D02*
G75*
G03*
X31624900Y-151151507I-212132J-212130D01*
G01*
X33067022Y-150896568D02*
G75*
G03*
X33067058Y-151320868I212178J-212132D01*
G01*
X31624862Y-151151469D02*
G75*
G03*
X31624900Y-151575769I212138J-212131D01*
G01*
X33236424Y-151914499D02*
G75*
G02*
X32812162Y-151914499I-212131J212131D01*
G01*
%TO.N,SWCLK*%
X42164000Y-149733000D02*
X35172000Y-156725000D01*
X31370000Y-156725000D02*
X30543000Y-157552000D01*
X30543000Y-157552000D02*
X28012000Y-157552000D01*
X24892000Y-154432000D02*
X24892000Y-149352000D01*
X35172000Y-156725000D02*
X31370000Y-156725000D01*
X28012000Y-157552000D02*
X24892000Y-154432000D01*
D41*
%TO.N,CONN_AD_IN1*%
X29900000Y-62048000D02*
X29900000Y-84013103D01*
X46475000Y-45473000D02*
X29900000Y-62048000D01*
X28640000Y-93950000D02*
X28640000Y-97598000D01*
X61135000Y-45473000D02*
X46475000Y-45473000D01*
X28640000Y-97598000D02*
X22606000Y-103632000D01*
X29900000Y-84013103D02*
X28640000Y-85273103D01*
X67058000Y-51396000D02*
X61135000Y-45473000D01*
X28640000Y-85273103D02*
X28640000Y-93950000D01*
%TO.N,CONN_AD_IN2*%
X60635610Y-45923000D02*
X46661396Y-45923000D01*
X29150000Y-96380000D02*
X29150000Y-99628000D01*
X46661396Y-45923000D02*
X30350000Y-62234396D01*
X65558000Y-53896000D02*
X65558000Y-50845390D01*
X65558000Y-50845390D02*
X60635610Y-45923000D01*
X29150000Y-99628000D02*
X25146000Y-103632000D01*
X30350000Y-62234396D02*
X30350000Y-84199499D01*
X29150000Y-85399499D02*
X29150000Y-96380000D01*
X30350000Y-84199499D02*
X29150000Y-85399499D01*
D42*
%TO.N,CONN_AD_IN3*%
X59037000Y-46375000D02*
X46848620Y-46375000D01*
X29639000Y-101679000D02*
X27686000Y-103632000D01*
X46848620Y-46375000D02*
X30843086Y-62380534D01*
X29639000Y-85549722D02*
X29639000Y-97457000D01*
X30843086Y-84345637D02*
X29639000Y-85549722D01*
X29639000Y-97457000D02*
X29639000Y-101679000D01*
X30843086Y-62380534D02*
X30843086Y-84345637D01*
X64058000Y-51396000D02*
X59037000Y-46375000D01*
%TO.N,CONN_AD_IN4*%
X30093000Y-85737775D02*
X30093000Y-98939000D01*
X58544439Y-46829000D02*
X47036672Y-46829000D01*
X30093000Y-103499000D02*
X30226000Y-103632000D01*
X31297086Y-84533690D02*
X30093000Y-85737775D01*
X30093000Y-98939000D02*
X30093000Y-103499000D01*
X31297086Y-62568586D02*
X31297086Y-84533690D01*
X47036672Y-46829000D02*
X31297086Y-62568586D01*
X62558000Y-53896000D02*
X62558000Y-50842561D01*
X62558000Y-50842561D02*
X58544439Y-46829000D01*
D41*
%TO.N,CONN_AD_IN5*%
X56815267Y-47281000D02*
X47223896Y-47281000D01*
X47223896Y-47281000D02*
X31749086Y-62755810D01*
X31749086Y-84720914D02*
X30545000Y-85925000D01*
X31749086Y-62755810D02*
X31749086Y-84720914D01*
X30545000Y-85925000D02*
X30545000Y-98271400D01*
X61058000Y-51396000D02*
X60930267Y-51396000D01*
X30545000Y-102681000D02*
X31496000Y-103632000D01*
X60930267Y-51396000D02*
X56815267Y-47281000D01*
X30545000Y-98271400D02*
X30545000Y-102681000D01*
D42*
%TO.N,CONN_AD_IN6*%
X47411120Y-47733000D02*
X32201086Y-62943034D01*
X32201086Y-101797086D02*
X34036000Y-103632000D01*
X32201086Y-96071086D02*
X32201086Y-101797086D01*
X59558000Y-53896000D02*
X59558000Y-50662958D01*
X32201086Y-62943034D02*
X32201086Y-96071086D01*
X59558000Y-50662958D02*
X56628042Y-47733000D01*
X56628042Y-47733000D02*
X47411120Y-47733000D01*
%TO.N,CONN_AD_IN7*%
X56439990Y-48187000D02*
X47599172Y-48187000D01*
X58058000Y-51396000D02*
X58058000Y-49805010D01*
X47599172Y-48187000D02*
X32655086Y-63131086D01*
X32655086Y-63131086D02*
X32655086Y-93785086D01*
X32655086Y-99965086D02*
X36576000Y-103886000D01*
X58058000Y-49805010D02*
X56439990Y-48187000D01*
X32655086Y-93785086D02*
X32655086Y-99965086D01*
%TO.N,CONN_AD_IN8*%
X33200000Y-63228224D02*
X33200000Y-92902000D01*
X56558000Y-49954000D02*
X55245000Y-48641000D01*
X47787224Y-48641000D02*
X33200000Y-63228224D01*
X55245000Y-48641000D02*
X47787224Y-48641000D01*
X33200000Y-92902000D02*
X33200000Y-98097000D01*
X56558000Y-53896000D02*
X56558000Y-49954000D01*
X33200000Y-98097000D02*
X38989000Y-103886000D01*
%TO.N,Net-(R110-Pad2)*%
X44903999Y-137360000D02*
X24122000Y-116578000D01*
X55565775Y-137358000D02*
X49113829Y-137358000D01*
X63230543Y-138068682D02*
X56276457Y-138068682D01*
X56276457Y-138068682D02*
X55565775Y-137358000D01*
X24122000Y-116578000D02*
X24122000Y-108450000D01*
X49111829Y-137360000D02*
X44903999Y-137360000D01*
X24122000Y-108450000D02*
X22606000Y-106934000D01*
X66167000Y-137160000D02*
X64139224Y-137160000D01*
X49113829Y-137358000D02*
X49111829Y-137360000D01*
X64139224Y-137160000D02*
X63230543Y-138068682D01*
D41*
%TO.N,HP_MOS1*%
X45400000Y-106550000D02*
X45400000Y-91050000D01*
X62516589Y-114902985D02*
X55563604Y-107950000D01*
X45400000Y-91050000D02*
X48133000Y-88317000D01*
X62516589Y-117116589D02*
X62516589Y-114902985D01*
X65000000Y-119400000D02*
X64800000Y-119400000D01*
X44339782Y-68350000D02*
X40410000Y-68350000D01*
X46850000Y-107950000D02*
X45450000Y-106550000D01*
X64800000Y-119400000D02*
X62516589Y-117116589D01*
X55563604Y-107950000D02*
X46850000Y-107950000D01*
X48133000Y-88317000D02*
X48133000Y-72143218D01*
X48133000Y-72143218D02*
X44339782Y-68350000D01*
X45450000Y-106550000D02*
X45400000Y-106550000D01*
%TO.N,HP_MOS2*%
X62966589Y-114716589D02*
X55750000Y-107500000D01*
X48583000Y-68395000D02*
X46688000Y-66500000D01*
X45850000Y-106313604D02*
X45850000Y-91236396D01*
X46688000Y-66500000D02*
X46000000Y-66500000D01*
X65000000Y-117100000D02*
X63610580Y-117100000D01*
X63610580Y-117100000D02*
X62966589Y-116456009D01*
X47036396Y-107500000D02*
X45850000Y-106313604D01*
X48583000Y-88503396D02*
X48583000Y-68395000D01*
X62966589Y-116456009D02*
X62966589Y-114716589D01*
X45850000Y-91236396D02*
X48583000Y-88503396D01*
X55750000Y-107500000D02*
X47036396Y-107500000D01*
%TO.N,HP_MOS4*%
X61278440Y-67221560D02*
X62000000Y-66500000D01*
X61351000Y-110220600D02*
X61351000Y-107132316D01*
X64000000Y-111500000D02*
X62630400Y-111500000D01*
X61450000Y-107033316D02*
X61450000Y-86856115D01*
X61450000Y-86856115D02*
X61278440Y-86684555D01*
X61351000Y-107132316D02*
X61450000Y-107033316D01*
X62630400Y-111500000D02*
X61351000Y-110220600D01*
X61278440Y-86684555D02*
X61278440Y-67221560D01*
D42*
%TO.N,HP_MOS5*%
X81534000Y-105791000D02*
X83693000Y-103632000D01*
X80000000Y-110871000D02*
X80180209Y-110871000D01*
X80180209Y-110871000D02*
X81534000Y-109517209D01*
X81534000Y-109517209D02*
X81534000Y-105791000D01*
X83693000Y-90127240D02*
X78359000Y-84793240D01*
X78359000Y-84793240D02*
X78359000Y-79629000D01*
X83693000Y-103632000D02*
X83693000Y-90127240D01*
%TO.N,HP_MOS6*%
X101600000Y-79881540D02*
X101352145Y-79633685D01*
X99275000Y-69125200D02*
X99275000Y-67250000D01*
X101473000Y-101473000D02*
X101600000Y-101346000D01*
X101352145Y-71202345D02*
X99275000Y-69125200D01*
X101600000Y-101346000D02*
X101600000Y-79881540D01*
X101352145Y-79633685D02*
X101352145Y-71202345D01*
%TO.N,HP_MOS7*%
X123981492Y-102006400D02*
X124099200Y-101888692D01*
X124099200Y-101888692D02*
X124099200Y-77830800D01*
X124099200Y-77830800D02*
X124333000Y-77597000D01*
D44*
%TO.N,LP_MOS1*%
X81559400Y-82829400D02*
X81559400Y-75559400D01*
X78733000Y-72733000D02*
X78733000Y-54221000D01*
X78733000Y-54221000D02*
X81558000Y-51396000D01*
X81559400Y-75559400D02*
X78733000Y-72733000D01*
X86674745Y-97177373D02*
X86674745Y-87944745D01*
X86674745Y-87944745D02*
X81559400Y-82829400D01*
D45*
%TO.N,LP_MOS2*%
X91193945Y-88145945D02*
X91193945Y-97177373D01*
X84558000Y-59396000D02*
X84558000Y-81510000D01*
X84558000Y-81510000D02*
X91193945Y-88145945D01*
%TO.N,LP_MOS3*%
X87000000Y-67044088D02*
X95156345Y-75200433D01*
X95156345Y-75200433D02*
X95156345Y-97135773D01*
X87000000Y-59954000D02*
X87000000Y-67044088D01*
X87558000Y-59396000D02*
X87000000Y-59954000D01*
D44*
%TO.N,LP_MOS4*%
X99525145Y-97237373D02*
X99525145Y-71959113D01*
X99525145Y-71959113D02*
X97448000Y-69881968D01*
X97448000Y-69881968D02*
X97448000Y-69448000D01*
X90558000Y-62558000D02*
X90558000Y-59396000D01*
X97448000Y-69448000D02*
X90558000Y-62558000D01*
%TO.N,LP_MOS5*%
X105526660Y-92526660D02*
X107492800Y-94492800D01*
X106553000Y-79883000D02*
X105526660Y-80909340D01*
X99568000Y-64897000D02*
X100507853Y-64897000D01*
X106553000Y-70942147D02*
X106553000Y-79883000D01*
X107492800Y-94492800D02*
X107492800Y-97279000D01*
X96558000Y-61887000D02*
X99568000Y-64897000D01*
X100507853Y-64897000D02*
X106553000Y-70942147D01*
X105526660Y-80909340D02*
X105526660Y-92526660D01*
X96558000Y-59396000D02*
X96558000Y-61887000D01*
D45*
%TO.N,LP_MOS6*%
X111760000Y-68760000D02*
X111760000Y-97279000D01*
X104721000Y-61721000D02*
X111760000Y-68760000D01*
X99558000Y-60058000D02*
X101221000Y-61721000D01*
X101221000Y-61721000D02*
X104721000Y-61721000D01*
X99558000Y-59396000D02*
X99558000Y-60058000D01*
%TO.N,LP_MOS7*%
X115697000Y-64697000D02*
X107896000Y-56896000D01*
X107896000Y-56896000D02*
X104058000Y-56896000D01*
X115697000Y-97282000D02*
X115697000Y-64697000D01*
D44*
%TO.N,LP_MOS8*%
X120142000Y-86157801D02*
X121632400Y-84667401D01*
X120142000Y-97276000D02*
X120142000Y-86157801D01*
X108896000Y-51396000D02*
X105558000Y-51396000D01*
X121632400Y-64132400D02*
X108896000Y-51396000D01*
X121632400Y-84667401D02*
X121632400Y-64132400D01*
D41*
%TO.N,/VOLTAGE_OUT_MUX/HP_MOS_SEL3*%
X63802911Y-114597089D02*
X64541800Y-113858200D01*
X64541800Y-113858200D02*
X65181284Y-113858200D01*
X65181284Y-113858200D02*
X66770697Y-112268787D01*
X66770697Y-112268787D02*
X67645493Y-112268787D01*
%TO.N,/VOLTAGE_OUT_MUX/HP_MOS_SEL2*%
X65367680Y-114308200D02*
X66771077Y-112904803D01*
X65100000Y-114575880D02*
X65437940Y-114237940D01*
X63591589Y-115691589D02*
X63592295Y-115691589D01*
X64708004Y-114575880D02*
X65100000Y-114575880D01*
X66771077Y-112904803D02*
X68176935Y-112904803D01*
X63592295Y-115691589D02*
X64708004Y-114575880D01*
%TO.N,/VOLTAGE_OUT_MUX/HP_MOS_SEL1*%
X65554076Y-114758200D02*
X65286396Y-115025880D01*
X64216589Y-115800000D02*
X64216589Y-116077945D01*
X64216589Y-116077945D02*
X63844499Y-116450035D01*
X65554076Y-114758200D02*
X66628804Y-113683472D01*
X66628804Y-113683472D02*
X68502186Y-113683472D01*
X65286396Y-115025880D02*
X64990709Y-115025880D01*
X68502186Y-113683472D02*
X68606657Y-113579001D01*
X64990709Y-115025880D02*
X64216589Y-115800000D01*
D42*
%TO.N,HP_MOS8*%
X133050000Y-80100000D02*
X127254000Y-85896000D01*
X133050000Y-70650000D02*
X133050000Y-80100000D01*
X134050000Y-67050000D02*
X134050000Y-69650000D01*
X134000000Y-67000000D02*
X134050000Y-67050000D01*
X134050000Y-69650000D02*
X133050000Y-70650000D01*
X127254000Y-102600163D02*
X124762108Y-105092055D01*
X124762108Y-105092055D02*
X121309289Y-105092055D01*
X127254000Y-85896000D02*
X127254000Y-102600163D01*
D43*
%TO.N,+3.3V*%
X98065600Y-46888400D02*
X93558000Y-51396000D01*
X136683140Y-99627334D02*
X136683140Y-67047466D01*
X132478474Y-62842800D02*
X132449197Y-62842800D01*
D42*
X36500000Y-141250000D02*
X36889376Y-140860624D01*
D41*
X39958416Y-126041584D02*
X39450000Y-126550000D01*
D43*
X110134400Y-46888400D02*
X98065600Y-46888400D01*
X136683140Y-67047466D02*
X132478474Y-62842800D01*
D41*
X40637298Y-125549085D02*
X40007337Y-126179046D01*
X33062873Y-130014631D02*
X32743697Y-130014631D01*
D43*
X123850400Y-121107200D02*
X123850400Y-120040400D01*
X123850400Y-120040400D02*
X123850400Y-118999000D01*
D42*
X36500000Y-141500000D02*
X36500000Y-141250000D01*
D41*
X41712242Y-125549085D02*
X40637298Y-125549085D01*
X31410624Y-134260624D02*
X31460624Y-134260624D01*
D43*
X132449197Y-62842800D02*
X118936396Y-49330000D01*
X112576000Y-49330000D02*
X110134400Y-46888400D01*
X123850400Y-118999000D02*
X123850400Y-112460074D01*
D41*
X32743697Y-130014631D02*
X32333554Y-129604488D01*
D42*
X56385800Y-147889200D02*
X55491200Y-147889200D01*
X55124803Y-139573000D02*
X55118000Y-139573000D01*
D41*
X32410624Y-133310624D02*
X32439376Y-133310624D01*
X31460624Y-134260624D02*
X32410624Y-133310624D01*
D43*
X123850400Y-122183000D02*
X123850400Y-121107200D01*
X123834000Y-122199400D02*
X123850400Y-122183000D01*
D42*
X55491200Y-147889200D02*
X55480800Y-147878800D01*
X55563724Y-140011921D02*
X55124803Y-139573000D01*
D41*
X32439376Y-133310624D02*
X32900000Y-132850000D01*
X40049480Y-126041584D02*
X39958416Y-126041584D01*
D43*
X118936396Y-49330000D02*
X112576000Y-49330000D01*
X123850400Y-112460074D02*
X136683140Y-99627334D01*
D42*
%TO.N,SAFETY_IN*%
X73279000Y-154432000D02*
X78359000Y-154432000D01*
X68453000Y-154432000D02*
X73279000Y-154432000D01*
X64559000Y-147490000D02*
X61750000Y-147490000D01*
D41*
X79618500Y-138303000D02*
X81407000Y-138303000D01*
D42*
X65913000Y-127584200D02*
X65913000Y-131445000D01*
X69346647Y-124150553D02*
X65913000Y-127584200D01*
X65405000Y-138430000D02*
X65405000Y-141263300D01*
X64559000Y-147490000D02*
X66929000Y-149860000D01*
X66929000Y-149860000D02*
X67454685Y-149860000D01*
X85450000Y-155450000D02*
X92125000Y-155450000D01*
D41*
X70256400Y-138734800D02*
X73177400Y-138734800D01*
D42*
X72771000Y-117570500D02*
X70866000Y-119475500D01*
X72771000Y-108968288D02*
X72771000Y-117570500D01*
X69549847Y-124150553D02*
X69346647Y-124150553D01*
X78359000Y-154432000D02*
X83312000Y-154432000D01*
D41*
X73177400Y-138734800D02*
X73253600Y-138811000D01*
X75046500Y-137947590D02*
X77368590Y-137947590D01*
X81407000Y-138303000D02*
X81915000Y-138811000D01*
D42*
X71572000Y-107769288D02*
X72771000Y-108968288D01*
X68400630Y-138218919D02*
X65616081Y-138218919D01*
X75057000Y-57785000D02*
X75057000Y-80137000D01*
D41*
X77368590Y-137947590D02*
X78232000Y-138811000D01*
D42*
X65616081Y-138218919D02*
X65405000Y-138430000D01*
X71572000Y-83622000D02*
X71572000Y-107769288D01*
X65405000Y-141263300D02*
X66243200Y-142101500D01*
D41*
X81915000Y-138811000D02*
X83159600Y-138811000D01*
D42*
X85000000Y-155000000D02*
X85450000Y-155450000D01*
X75057000Y-80137000D02*
X71572000Y-83622000D01*
X67454685Y-149860000D02*
X68153794Y-150559109D01*
D41*
%TO.N,SPI3_MISO*%
X90373600Y-123600000D02*
X91450000Y-123600000D01*
X88650000Y-125323600D02*
X88650000Y-125600000D01*
X91495786Y-123645786D02*
X103531814Y-123645786D01*
X108212614Y-123645786D02*
X108751978Y-124185150D01*
X103531814Y-123645786D02*
X108212614Y-123645786D01*
X82017600Y-132232400D02*
X64953623Y-132232400D01*
X88650000Y-125323600D02*
X90373600Y-123600000D01*
X88650000Y-125600000D02*
X82017600Y-132232400D01*
X91450000Y-123600000D02*
X91495786Y-123645786D01*
X64953623Y-132232400D02*
X64798369Y-132387654D01*
%TO.N,SPI3_MOSI*%
X82196796Y-132689600D02*
X65380307Y-132689600D01*
X89916000Y-125323600D02*
X89562796Y-125323600D01*
X105736000Y-125150000D02*
X105482000Y-125150000D01*
X104169600Y-125150000D02*
X105482000Y-125150000D01*
X65380307Y-132689600D02*
X64169907Y-133900000D01*
X110000000Y-125150000D02*
X105482000Y-125150000D01*
X90969314Y-124270286D02*
X89916000Y-125323600D01*
X99745800Y-124282200D02*
X99733886Y-124270286D01*
X64169907Y-133900000D02*
X63000000Y-133900000D01*
X99733886Y-124270286D02*
X90969314Y-124270286D01*
X103301800Y-124282200D02*
X104169600Y-125150000D01*
X89562796Y-125323600D02*
X82196796Y-132689600D01*
X99745800Y-124282200D02*
X103301800Y-124282200D01*
%TO.N,SPI3_SCK*%
X98670100Y-124832100D02*
X98856800Y-125018800D01*
X91186000Y-125323600D02*
X90561000Y-125948600D01*
X98856800Y-125018800D02*
X103402004Y-125018800D01*
X65813484Y-133139600D02*
X65576542Y-133376542D01*
X111037500Y-125775000D02*
X111042500Y-125770000D01*
D42*
X106095800Y-127685800D02*
X104185000Y-125775000D01*
D41*
X90561000Y-125948600D02*
X89574192Y-125948600D01*
D42*
X104185000Y-125775000D02*
X104158204Y-125775000D01*
D41*
X104158204Y-125775000D02*
X111037500Y-125775000D01*
X103402004Y-125018800D02*
X104158204Y-125775000D01*
X89574192Y-125948600D02*
X82383192Y-133139600D01*
X82383192Y-133139600D02*
X65813484Y-133139600D01*
X111075000Y-125775000D02*
X111650000Y-125200000D01*
X91186000Y-125323600D02*
X91677500Y-124832100D01*
X91677500Y-124832100D02*
X98670100Y-124832100D01*
D42*
%TO.N,Net-(R113-Pad2)*%
X24576000Y-116389948D02*
X24576000Y-107504000D01*
D41*
X64210000Y-136450000D02*
X70691500Y-136450000D01*
X48923776Y-136906000D02*
X55753001Y-136906000D01*
X56463682Y-137616682D02*
X63043318Y-137616682D01*
X70691500Y-136450000D02*
X70866000Y-136624500D01*
X63043318Y-137616682D02*
X64210000Y-136450000D01*
D42*
X24576000Y-107504000D02*
X25146000Y-106934000D01*
X48923776Y-136906000D02*
X45092052Y-136906000D01*
D41*
X55753001Y-136906000D02*
X56463682Y-137616682D01*
D42*
X45092052Y-136906000D02*
X24576000Y-116389948D01*
D41*
%TO.N,Net-(R114-Pad2)*%
X35472245Y-129698135D02*
X36774110Y-131000000D01*
X35472245Y-128814252D02*
X35472245Y-129698135D01*
X31113365Y-122288089D02*
X26646000Y-117820724D01*
X55682408Y-138970682D02*
X58960682Y-138970682D01*
X49782000Y-138262000D02*
X49784000Y-138260000D01*
X36774110Y-131000000D02*
X37268379Y-131000000D01*
X49784000Y-138260000D02*
X54971726Y-138260000D01*
X35442247Y-126616971D02*
X31184138Y-122358862D01*
X26646000Y-108101000D02*
X27686000Y-107061000D01*
X75310561Y-141448683D02*
X75310561Y-138791861D01*
X58960682Y-138970682D02*
X61595000Y-141605000D01*
X54971726Y-138260000D02*
X55682408Y-138970682D01*
X37268379Y-131000000D02*
X44530379Y-138262000D01*
X44530379Y-138262000D02*
X49782000Y-138262000D01*
X26646000Y-117820724D02*
X26646000Y-108101000D01*
X31184138Y-122358862D02*
X31113365Y-122288089D01*
X35689029Y-126616971D02*
X35442247Y-126616971D01*
X75565000Y-141703122D02*
X75310561Y-141448683D01*
%TO.N,Net-(R116-Pad2)*%
X36688000Y-118861224D02*
X34030500Y-116203724D01*
X40358854Y-131286796D02*
X40358854Y-130608854D01*
X40513000Y-138152841D02*
X40513000Y-147070224D01*
X40513000Y-147070224D02*
X46350776Y-152908000D01*
X34030500Y-108198500D02*
X32766000Y-106934000D01*
X40358854Y-130608854D02*
X36879362Y-127129362D01*
X36879362Y-127129362D02*
X36879362Y-123379362D01*
X36879362Y-123379362D02*
X36688000Y-123188000D01*
X40394500Y-138034341D02*
X40513000Y-138152841D01*
X46350776Y-152908000D02*
X65278000Y-152908000D01*
X36688000Y-123188000D02*
X36688000Y-118861224D01*
X34030500Y-116203724D02*
X34030500Y-108198500D01*
D42*
%TO.N,Net-(R117-Pad2)*%
X62484000Y-152273000D02*
X46355000Y-152273000D01*
X37140000Y-123000776D02*
X37140000Y-118673999D01*
X68531488Y-152273000D02*
X62484000Y-152273000D01*
X46355000Y-152273000D02*
X44704000Y-150622000D01*
X37331362Y-126871982D02*
X37331362Y-123192138D01*
X35941000Y-107696000D02*
X35179000Y-106934000D01*
X37331362Y-123192138D02*
X37140000Y-123000776D01*
X37140000Y-118673999D02*
X35941000Y-117475000D01*
X41021000Y-146939000D02*
X41021000Y-137287000D01*
X41013000Y-130553620D02*
X37331362Y-126871982D01*
X41010500Y-131750000D02*
X41013000Y-131747500D01*
X44704000Y-150622000D02*
X41021000Y-146939000D01*
X69952450Y-153693962D02*
X68531488Y-152273000D01*
X70497425Y-153693962D02*
X69952450Y-153693962D01*
X35941000Y-117475000D02*
X35941000Y-107696000D01*
X41013000Y-131747500D02*
X41013000Y-130553620D01*
D41*
%TO.N,Net-(R118-Pad2)*%
X37592000Y-122813552D02*
X37592000Y-118104129D01*
X41783000Y-146940396D02*
X41783000Y-138938000D01*
X41783000Y-138938000D02*
X41783000Y-138811000D01*
X41767892Y-130669288D02*
X37783362Y-126684758D01*
X75776628Y-152559661D02*
X74981967Y-151765000D01*
X41783000Y-138419500D02*
X41666500Y-138303000D01*
D42*
X36823000Y-108084000D02*
X36823000Y-117337957D01*
D41*
X37783362Y-126684758D02*
X37783362Y-123004914D01*
D42*
X37846000Y-107061000D02*
X36823000Y-108084000D01*
X36823000Y-117337957D02*
X37590586Y-118105543D01*
D41*
X74981967Y-151765000D02*
X46607604Y-151765000D01*
X41783000Y-138938000D02*
X41783000Y-138419500D01*
X37783362Y-123004914D02*
X37592000Y-122813552D01*
X41767892Y-131493951D02*
X41767892Y-130669288D01*
X46607604Y-151765000D02*
X41783000Y-146940396D01*
%TO.N,Net-(R119-Pad2)*%
X38862000Y-108585000D02*
X40386000Y-107061000D01*
X75357851Y-151257000D02*
X61595000Y-151257000D01*
X80391000Y-153797000D02*
X77851000Y-153797000D01*
X46736000Y-151257000D02*
X42291000Y-146812000D01*
X38354000Y-126619000D02*
X38354000Y-118260315D01*
X38862000Y-117752315D02*
X38862000Y-108585000D01*
X42420029Y-130685029D02*
X38354000Y-126619000D01*
X42420029Y-132000000D02*
X42420029Y-130685029D01*
X77724000Y-153670000D02*
X77724000Y-153623149D01*
X38354000Y-118260315D02*
X38862000Y-117752315D01*
X77724000Y-153623149D02*
X75357851Y-151257000D01*
X77851000Y-153797000D02*
X77724000Y-153670000D01*
X42291000Y-146812000D02*
X42291000Y-137287000D01*
X61595000Y-151257000D02*
X46736000Y-151257000D01*
D42*
%TO.N,Net-(D4-Pad3)*%
X54940200Y-148539200D02*
X58385800Y-148539200D01*
X54787800Y-148691600D02*
X54940200Y-148539200D01*
X60500000Y-148510000D02*
X62000000Y-148510000D01*
X58385800Y-148539200D02*
X60470800Y-148539200D01*
X45125827Y-148544210D02*
X45273217Y-148691600D01*
X60470800Y-148539200D02*
X60500000Y-148510000D01*
X45273217Y-148691600D02*
X54787800Y-148691600D01*
%TO.N,SPI1_MISO*%
X34360624Y-138089376D02*
X33850000Y-138600000D01*
X34439376Y-138089376D02*
X34360624Y-138089376D01*
%TO.N,SPI1_MOSI*%
X35160624Y-138810624D02*
X35160624Y-138989376D01*
X35160624Y-138989376D02*
X34650000Y-139500000D01*
%TD*%
%TA.AperFunction,Conductor*%
%TO.N,/POWER_SWITCHES/BTS722204-2/OUT3*%
G36*
X119170844Y-108486344D02*
G01*
X119170861Y-108502414D01*
X119170875Y-108515862D01*
X119176716Y-114118143D01*
X119156785Y-114186284D01*
X119104102Y-114232405D01*
X117243504Y-115102718D01*
X117190173Y-115114587D01*
X115311195Y-115115400D01*
X115243065Y-115095427D01*
X115196549Y-115041792D01*
X115185140Y-114989091D01*
X115188921Y-113446349D01*
X115209090Y-113378278D01*
X115222347Y-113361183D01*
X115740039Y-112800495D01*
X115740039Y-112800494D01*
X115752329Y-112787184D01*
X115742331Y-108464908D01*
X115743525Y-108453910D01*
X119170844Y-108486344D01*
G37*
%TD.AperFunction*%
%TD*%
%TA.AperFunction,Conductor*%
%TO.N,/POWER_SWITCHES/BTS722204-2/OUT1*%
G36*
X113656317Y-108509786D02*
G01*
X113656973Y-108919894D01*
X113663978Y-113295920D01*
X113666687Y-114987854D01*
X113646794Y-115056007D01*
X113593213Y-115102586D01*
X113540688Y-115114056D01*
X113122433Y-115114055D01*
X112705494Y-115114055D01*
X112637373Y-115094053D01*
X112590880Y-115040397D01*
X112579494Y-114988250D01*
X112579494Y-114987854D01*
X112576889Y-113305455D01*
X112086277Y-112730624D01*
X112057268Y-112665824D01*
X112056116Y-112649131D01*
X112047125Y-108935966D01*
X112047124Y-108935964D01*
X112046056Y-108494747D01*
X113656317Y-108509786D01*
G37*
%TD.AperFunction*%
%TD*%
%TA.AperFunction,Conductor*%
%TO.N,/POWER_SWITCHES/BTS722204-2/OUT2*%
G36*
X115525616Y-108489803D02*
G01*
X115524573Y-108926728D01*
X115515687Y-112648146D01*
X115495522Y-112716219D01*
X115484338Y-112731014D01*
X114991533Y-113291855D01*
X114991532Y-113291857D01*
X114979574Y-113305466D01*
X114976970Y-114987867D01*
X114976969Y-114988261D01*
X114956861Y-115056351D01*
X114903134Y-115102761D01*
X114850969Y-115114066D01*
X114015775Y-115114066D01*
X113947654Y-115094064D01*
X113901161Y-115040408D01*
X113889775Y-114987867D01*
X113900035Y-108497612D01*
X115523598Y-108482631D01*
X115524592Y-108482622D01*
X115525616Y-108489803D01*
G37*
%TD.AperFunction*%
%TD*%
%TA.AperFunction,Conductor*%
%TO.N,/POWER_SWITCHES/BTS722204-1/OUT2*%
G36*
X94939987Y-108516710D02*
G01*
X94923337Y-112015745D01*
X94920215Y-112671803D01*
X94899889Y-112739827D01*
X94891091Y-112751771D01*
X94412685Y-113327011D01*
X94410081Y-115009410D01*
X94410080Y-115009806D01*
X94389972Y-115077896D01*
X94336245Y-115124306D01*
X94284080Y-115135611D01*
X93448889Y-115135611D01*
X93380768Y-115115609D01*
X93334275Y-115061953D01*
X93322889Y-115009410D01*
X93333225Y-108535849D01*
X93333960Y-108528910D01*
X93334745Y-108528903D01*
X94939592Y-108513921D01*
X94939987Y-108516710D01*
G37*
%TD.AperFunction*%
%TD*%
%TA.AperFunction,Conductor*%
%TO.N,/POWER_SWITCHES/BTS722204-1/OUT3*%
G36*
X95177252Y-108508883D02*
G01*
X98603644Y-108541076D01*
X98603639Y-108572399D01*
X98603639Y-108572400D01*
X98602911Y-113466606D01*
X98602812Y-114129159D01*
X98582800Y-114197277D01*
X98530891Y-114242945D01*
X96676905Y-115123937D01*
X96622881Y-115136132D01*
X94744306Y-115136945D01*
X94676176Y-115116972D01*
X94629660Y-115063337D01*
X94618251Y-115010636D01*
X94622035Y-113466606D01*
X94642204Y-113398535D01*
X94653952Y-113383103D01*
X95153529Y-112822301D01*
X95153529Y-112822300D01*
X95165578Y-112808775D01*
X95155401Y-108573891D01*
X95173632Y-108511249D01*
X95174163Y-108508854D01*
X95177252Y-108508883D01*
G37*
%TD.AperFunction*%
%TD*%
%TA.AperFunction,Conductor*%
%TO.N,/POWER_SWITCHES/BTS722204-2/OUT0*%
G36*
X111807417Y-108864203D02*
G01*
X111797889Y-112785392D01*
X111805617Y-112793680D01*
X111805617Y-112793681D01*
X112332993Y-113359313D01*
X112364818Y-113422777D01*
X112366836Y-113444928D01*
X112370616Y-114987316D01*
X112350781Y-115055486D01*
X112297239Y-115102110D01*
X112244562Y-115113625D01*
X111515433Y-115113310D01*
X110366503Y-115112813D01*
X110311592Y-115100190D01*
X108495369Y-114219626D01*
X108442799Y-114171910D01*
X108424341Y-114107130D01*
X108414969Y-112767276D01*
X108385314Y-108527527D01*
X111808314Y-108495064D01*
X111807417Y-108864203D01*
G37*
%TD.AperFunction*%
%TD*%
%TA.AperFunction,Conductor*%
%TO.N,/POWER_SWITCHES/BTS722204-1/OUT0*%
G36*
X91266698Y-108522280D02*
G01*
X91256400Y-112807000D01*
X91264295Y-112815862D01*
X91264295Y-112815863D01*
X91768026Y-113381328D01*
X91798403Y-113445498D01*
X91799943Y-113464831D01*
X91803727Y-115008861D01*
X91783892Y-115077031D01*
X91730350Y-115123655D01*
X91677673Y-115135170D01*
X90948544Y-115134855D01*
X89799614Y-115134358D01*
X89744703Y-115121735D01*
X87928480Y-114241171D01*
X87875910Y-114193455D01*
X87857452Y-114128676D01*
X87818491Y-108561468D01*
X87818490Y-108561464D01*
X87818335Y-108539301D01*
X91264516Y-108506922D01*
X91266698Y-108522280D01*
G37*
%TD.AperFunction*%
%TD*%
%TA.AperFunction,Conductor*%
%TO.N,/POWER_SWITCHES/BTS722204-1/OUT1*%
G36*
X93109192Y-108519988D02*
G01*
X93109570Y-108519994D01*
X93109996Y-108522966D01*
X93103728Y-112669235D01*
X93100190Y-115009791D01*
X93080085Y-115077882D01*
X93026359Y-115124294D01*
X92974191Y-115135601D01*
X92556389Y-115135600D01*
X92138605Y-115135600D01*
X92070484Y-115115598D01*
X92023991Y-115061942D01*
X92012605Y-115009795D01*
X92010028Y-113345116D01*
X92010000Y-113327000D01*
X91505529Y-112752882D01*
X91475590Y-112688507D01*
X91474181Y-112669235D01*
X91488811Y-108809451D01*
X91490000Y-108495818D01*
X93109192Y-108519988D01*
G37*
%TD.AperFunction*%
%TD*%
%TA.AperFunction,Conductor*%
%TO.N,/POWER_SWITCHES/BTS722204-1/OUT2*%
G36*
X96964572Y-99012948D02*
G01*
X97011065Y-99066603D01*
X97022452Y-99118946D01*
X97022450Y-100752617D01*
X97013095Y-100800260D01*
X94939345Y-105877373D01*
X94939345Y-108513923D01*
X93334745Y-108528903D01*
X93334747Y-99118960D01*
X93354749Y-99050839D01*
X93408405Y-99004346D01*
X93460744Y-98992960D01*
X95178615Y-98992953D01*
X96896451Y-98992946D01*
X96964572Y-99012948D01*
G37*
%TD.AperFunction*%
%TD*%
%TA.AperFunction,Conductor*%
%TO.N,/POWER_SWITCHES/BTS722204-1/OUT1*%
G36*
X91225901Y-98993020D02*
G01*
X92978799Y-98993052D01*
X93046920Y-99013055D01*
X93093412Y-99066712D01*
X93104797Y-99118992D01*
X93109192Y-108519988D01*
X91490000Y-108495818D01*
X91488876Y-108792281D01*
X91486377Y-108792278D01*
X91484108Y-108776264D01*
X91484742Y-105880263D01*
X91484745Y-105867373D01*
X89350062Y-100921875D01*
X89339745Y-100871942D01*
X89339738Y-99118989D01*
X89359740Y-99050868D01*
X89413395Y-99004375D01*
X89465739Y-98992988D01*
X91225901Y-98993020D01*
G37*
%TD.AperFunction*%
%TD*%
%TA.AperFunction,Conductor*%
%TO.N,/POWER_SWITCHES/BTS722204-1/OUT0*%
G36*
X89049622Y-99012975D02*
G01*
X89096115Y-99066631D01*
X89107501Y-99118973D01*
X89107501Y-100923373D01*
X89191578Y-101123468D01*
X91254881Y-106033898D01*
X91264719Y-106082836D01*
X91262263Y-108506943D01*
X87818335Y-108539301D01*
X87818399Y-108548378D01*
X87799825Y-108506901D01*
X84493504Y-101123468D01*
X84482500Y-101071972D01*
X84482500Y-99118973D01*
X84502502Y-99050852D01*
X84556158Y-99004359D01*
X84608500Y-98992973D01*
X88981501Y-98992973D01*
X89049622Y-99012975D01*
G37*
%TD.AperFunction*%
%TD*%
%TA.AperFunction,Conductor*%
%TO.N,/POWER_SWITCHES/BTS722204-2/OUT2*%
G36*
X117523425Y-98978387D02*
G01*
X117569918Y-99032042D01*
X117581305Y-99084385D01*
X117581303Y-100743734D01*
X117572151Y-100790879D01*
X115523598Y-105868212D01*
X115523598Y-108482631D01*
X113900035Y-108497612D01*
X113899385Y-108908612D01*
X113896404Y-108908612D01*
X113893598Y-108888987D01*
X113893600Y-99084399D01*
X113913602Y-99016278D01*
X113967258Y-98969785D01*
X114019597Y-98958399D01*
X115737468Y-98958392D01*
X117455304Y-98958385D01*
X117523425Y-98978387D01*
G37*
%TD.AperFunction*%
%TD*%
%TA.AperFunction,Conductor*%
%TO.N,/POWER_SWITCHES/BTS722204-1/OUT3*%
G36*
X99145410Y-98992911D02*
G01*
X101138505Y-98992994D01*
X101206625Y-99012999D01*
X101253116Y-99066657D01*
X101264500Y-99118994D01*
X101264500Y-100933765D01*
X101244498Y-101001886D01*
X101205735Y-101040327D01*
X101140042Y-101081776D01*
X101043622Y-101190951D01*
X100981719Y-101322800D01*
X100959309Y-101466724D01*
X100978195Y-101611152D01*
X100981809Y-101619365D01*
X100981810Y-101619369D01*
X101021567Y-101709722D01*
X101036859Y-101744474D01*
X101130583Y-101855973D01*
X101138060Y-101860950D01*
X101244361Y-101931710D01*
X101244363Y-101931711D01*
X101251834Y-101936684D01*
X101390864Y-101980121D01*
X101395160Y-101980200D01*
X101457083Y-102009822D01*
X101494398Y-102070222D01*
X101493134Y-102141207D01*
X101487815Y-102155216D01*
X98632187Y-108508883D01*
X98603639Y-108572400D01*
X98603644Y-108541076D01*
X95177252Y-108508883D01*
X95174576Y-106051482D01*
X95183534Y-106004690D01*
X97259945Y-100796178D01*
X97262907Y-99118615D01*
X97283029Y-99050529D01*
X97336767Y-99004131D01*
X97388911Y-98992837D01*
X99145410Y-98992911D01*
G37*
%TD.AperFunction*%
%TD*%
%TA.AperFunction,Conductor*%
%TO.N,/POWER_SWITCHES/BTS722204-2/OUT3*%
G36*
X119821758Y-98958483D02*
G01*
X119837869Y-98959518D01*
X120052321Y-98987180D01*
X120189595Y-98983945D01*
X120307408Y-98981169D01*
X120307413Y-98981169D01*
X120312187Y-98981056D01*
X120316885Y-98980223D01*
X120316889Y-98980223D01*
X120368676Y-98971044D01*
X120428501Y-98960442D01*
X120450487Y-98958509D01*
X121528011Y-98958554D01*
X122377556Y-98958590D01*
X122445676Y-98978595D01*
X122492167Y-99032253D01*
X122503551Y-99084589D01*
X122503564Y-100772827D01*
X122503566Y-101096244D01*
X122492397Y-101148107D01*
X119170861Y-108502414D01*
X119170844Y-108486344D01*
X115744737Y-108453921D01*
X115742048Y-106017053D01*
X115751006Y-105970254D01*
X117673390Y-101148108D01*
X117827416Y-100761746D01*
X117830378Y-99084183D01*
X117850500Y-99016097D01*
X117904238Y-98969699D01*
X117956382Y-98958405D01*
X119821758Y-98958483D01*
G37*
%TD.AperFunction*%
%TD*%
%TA.AperFunction,Conductor*%
%TO.N,/POWER_SWITCHES/BTS722204-2/OUT1*%
G36*
X111781508Y-98958434D02*
G01*
X113534577Y-98958466D01*
X113602698Y-98978469D01*
X113649190Y-99032126D01*
X113660575Y-99084410D01*
X113664905Y-108793688D01*
X113656816Y-108821283D01*
X113656317Y-108509786D01*
X112046056Y-108494747D01*
X112046855Y-108824625D01*
X112039777Y-108791969D01*
X112040522Y-105896488D01*
X112040522Y-105896486D01*
X112040525Y-105883600D01*
X109905842Y-100938102D01*
X109895525Y-100888168D01*
X109895519Y-99084402D01*
X109915521Y-99016282D01*
X109969176Y-98969789D01*
X110021520Y-98958402D01*
X111781508Y-98958434D01*
G37*
%TD.AperFunction*%
%TD*%
%TA.AperFunction,Conductor*%
%TO.N,/POWER_SWITCHES/BTS722204-2/OUT0*%
G36*
X107163242Y-98959238D02*
G01*
X107403121Y-98990180D01*
X107540395Y-98986945D01*
X107658208Y-98984169D01*
X107658213Y-98984169D01*
X107662987Y-98984056D01*
X107797953Y-98960136D01*
X107819941Y-98958203D01*
X109528394Y-98958203D01*
X109596515Y-98978205D01*
X109643008Y-99031861D01*
X109654394Y-99084203D01*
X109654394Y-100888603D01*
X109659264Y-100900193D01*
X111801775Y-105999129D01*
X111811613Y-106048065D01*
X111808801Y-108857700D01*
X111808094Y-108864203D01*
X111807417Y-108864203D01*
X111808314Y-108495064D01*
X108385314Y-108527527D01*
X108385770Y-108592764D01*
X107229373Y-105999129D01*
X104961714Y-100913095D01*
X104950794Y-100861786D01*
X104950794Y-99084203D01*
X104970796Y-99016082D01*
X105024452Y-98969589D01*
X105076794Y-98958203D01*
X107147123Y-98958203D01*
X107163242Y-98959238D01*
G37*
%TD.AperFunction*%
%TD*%
M02*
