M48
; DRILL file {KiCad (6.0.8)} date Wed Feb 14 13:25:16 2024
; FORMAT={-:-/ absolute / inch / decimal}
; #@! TF.CreationDate,2024-02-14T13:25:16+01:00
; #@! TF.GenerationSoftware,Kicad,Pcbnew,(6.0.8)
; #@! TF.FileFunction,Plated,1,4,PTH
FMAT,2
INCH
; #@! TA.AperFunction,Plated,PTH,ViaDrill
T1C0.0118
; #@! TA.AperFunction,Plated,PTH,ViaDrill
T2C0.0130
; #@! TA.AperFunction,Plated,PTH,ViaDrill
T3C0.0150
; #@! TA.AperFunction,Plated,PTH,ViaDrill
T4C0.0157
; #@! TA.AperFunction,Plated,PTH,ComponentDrill
T5C0.0177
; #@! TA.AperFunction,Plated,PTH,ComponentDrill
T6C0.0197
; #@! TA.AperFunction,Plated,PTH,ViaDrill
T7C0.0236
; #@! TA.AperFunction,Plated,PTH,ComponentDrill
T8C0.0394
; #@! TA.AperFunction,Plated,PTH,ComponentDrill
T9C0.0472
; #@! TA.AperFunction,Plated,PTH,ComponentDrill
T10C0.0581
; #@! TA.AperFunction,Plated,PTH,ComponentDrill
T11C0.0591
; #@! TA.AperFunction,Plated,PTH,ComponentDrill
T12C0.1260
; #@! TA.AperFunction,Plated,PTH,ComponentDrill
T13C0.1339
%
G90
G05
T1
X0.7144Y-4.1031
X0.7244Y-4.3481
X0.7598Y-4.2732
X0.7644Y-4.1031
X0.7744Y-4.3481
X0.7956Y-3.607
X0.8327Y-5.4705
X0.8344Y-4.1031
X0.8445Y-5.5472
X0.8459Y-5.0376
X0.8494Y-5.5827
X0.8664Y-4.2118
X0.8673Y-4.4965
X0.8844Y-4.1031
X0.8999Y-5.0366
X0.9144Y-4.2631
X0.9144Y-4.2881
X0.92Y-5.6434
X0.9262Y-5.4153
X0.9344Y-4.1031
X0.9429Y-4.7844
X0.9429Y-5.4724
X0.95Y-5.61
X0.9567Y-5.4961
X0.9654Y-4.6504
X0.9684Y-5.1014
X0.9793Y-4.8521
X0.9826Y-4.1013
X0.9836Y-5.4186
X0.9882Y-4.5638
X0.9898Y-4.6071
X1.0017Y-4.4802
X1.0244Y-3.1709
X1.0354Y-4.1016
X1.0575Y-2.9559
X1.0617Y-5.3904
X1.0619Y-5.0185
X1.0631Y-4.2118
X1.0804Y-4.1041
X1.0866Y-6.1468
X1.0937Y-5.0223
X1.098Y-4.6429
X1.1093Y-4.8415
X1.1094Y-4.261
X1.1094Y-4.2881
X1.1157Y-4.6106
X1.1171Y-4.8858
X1.1173Y-5.66
X1.1201Y-3.1673
X1.1216Y-5.2254
X1.1294Y-4.1031
X1.13Y-6.07
X1.1352Y-5.502
X1.14Y-4.94
X1.1483Y-4.6573
X1.15Y-6.165
X1.1538Y-6.3062
X1.1543Y-5.2243
X1.1573Y-6.05
X1.16Y-5.04
X1.1664Y-5.315
X1.1723Y-3.2351
X1.1804Y-4.1044
X1.1846Y-2.9831
X1.185Y-5.265
X1.188Y-6.165
X1.1987Y-5.2261
X1.205Y-6.285
X1.2081Y-6.0019
X1.221Y-6.18
X1.2337Y-4.9741
X1.2346Y-4.9427
X1.2346Y-4.7693
X1.2375Y-6.2929
X1.24Y-4.08
X1.2429Y-4.8447
X1.2472Y-4.8855
X1.2724Y-4.4117
X1.2728Y-4.939
X1.273Y-5.1025
X1.2731Y-6.0669
X1.275Y-5.4213
X1.2787Y-4.8465
X1.2811Y-6.1685
X1.29Y-4.3075
X1.2906Y-4.2071
X1.2921Y-5.0776
X1.2953Y-5.2303
X1.3042Y-6.2977
X1.3102Y-6.1803
X1.3152Y-4.465
X1.3152Y-4.49
X1.3218Y-4.8098
X1.3327Y-5.4567
X1.3349Y-5.3449
X1.34Y-4.08
X1.3543Y-3.6067
X1.3642Y-5.4921
X1.385Y-4.21
X1.39Y-4.3079
X1.3974Y-4.9468
X1.42Y-6.28
X1.4261Y-3.2351
X1.4319Y-5.211
X1.437Y-5.5709
X1.4378Y-5.77
X1.4398Y-4.9087
X1.44Y-4.09
X1.4414Y-5.5137
X1.4528Y-3.1683
X1.4595Y-5.8251
X1.4663Y-5.75
X1.4744Y-4.4078
X1.49Y-4.215
X1.49Y-4.31
X1.5024Y-3.1665
X1.506Y-5.79
X1.51Y-4.0
X1.5201Y-5.627
X1.527Y-5.8885
X1.5276Y-5.8155
X1.5327Y-2.9558
X1.535Y-4.09
X1.54Y-3.89
X1.5516Y-4.8984
X1.5531Y-4.9823
X1.5603Y-5.7074
X1.565Y-4.2126
X1.574Y-5.82
X1.5747Y-4.7717
X1.5748Y-4.311
X1.5756Y-4.5185
X1.5826Y-6.23
X1.583Y-5.7293
X1.5886Y-4.4776
X1.5894Y-4.5949
X1.5912Y-4.2559
X1.5945Y-3.0374
X1.596Y-4.7482
X1.6071Y-5.5707
X1.6181Y-4.0972
X1.6448Y-4.3091
X1.6478Y-4.0543
X1.6482Y-3.5769
X1.6598Y-2.983
X1.6705Y-4.478
X1.674Y-4.5878
X1.6754Y-4.1752
X1.6916Y-3.2362
X1.697Y-4.0709
X1.697Y-4.1122
X1.6974Y-3.2791
X1.6992Y-4.4059
X1.7008Y-4.7835
X1.7018Y-4.2323
X1.703Y-4.957
X1.7124Y-5.6484
X1.7185Y-3.2198
X1.7209Y-5.6787
X1.7216Y-5.4578
X1.724Y-4.5602
X1.7244Y-4.8071
X1.733Y-5.811
X1.748Y-6.2228
X1.7528Y-4.4323
X1.7579Y-4.6358
X1.7621Y-4.9676
X1.7705Y-5.8063
X1.7709Y-3.578
X1.7719Y-6.0687
X1.772Y-4.196
X1.7805Y-5.8557
X1.7913Y-5.6083
X1.7949Y-4.0945
X1.7982Y-4.3504
X1.8053Y-6.0326
X1.8107Y-4.1494
X1.8209Y-5.5846
X1.8272Y-4.6445
X1.8294Y-4.3462
X1.8356Y-4.4262
X1.8386Y-5.1764
X1.85Y-4.205
X1.8504Y-4.6713
X1.8663Y-5.102
X1.875Y-4.555
X1.8819Y-6.0295
X1.8837Y-4.2285
X1.9105Y-5.1395
X1.9144Y-5.6439
X1.9145Y-4.2219
X1.931Y-6.2223
X1.931Y-5.796
X1.9335Y-5.0179
X1.9358Y-4.8002
X1.9426Y-3.1624
X1.9459Y-4.2196
X1.95Y-4.56
X1.954Y-6.0718
X1.9542Y-6.0404
X1.9557Y-5.6496
X1.9585Y-5.6176
X1.9697Y-4.103
X1.9727Y-6.0149
X1.9749Y-5.2551
X1.976Y-4.9252
X1.9793Y-3.0374
X1.9906Y-5.6146
X1.995Y-4.425
X1.9971Y-3.2057
X2.002Y-5.3622
X2.006Y-4.194
X2.0081Y-2.9558
X2.0201Y-4.0929
X2.0293Y-6.0626
X2.0302Y-3.2018
X2.0324Y-5.5105
X2.0357Y-5.124
X2.0368Y-5.1615
X2.038Y-4.392
X2.044Y-4.19
X2.0462Y-5.196
X2.0465Y-3.1748
X2.0493Y-5.3257
X2.0549Y-5.5727
X2.0559Y-5.2308
X2.063Y-4.7507
X2.0784Y-6.0232
X2.08Y-5.8598
X2.095Y-4.542
X2.0969Y-5.9947
X2.106Y-4.6651
X2.1133Y-6.2223
X2.12Y-5.475
X2.1309Y-4.3758
X2.1334Y-4.5614
X2.1338Y-5.5312
X2.1345Y-5.9975
X2.1352Y-2.983
X2.1394Y-5.0759
X2.1641Y-4.7575
X2.1724Y-4.6451
X2.174Y-4.7874
X2.179Y-4.562
X2.1831Y-6.0374
X2.1858Y-5.789
X2.203Y-4.68
X2.204Y-4.873
X2.2041Y-4.7967
X2.2084Y-5.3316
X2.217Y-4.568
X2.2195Y-5.9816
X2.2296Y-4.1594
X2.2316Y-4.8484
X2.2339Y-5.7886
X2.2369Y-5.3934
X2.2411Y-4.376
X2.2437Y-3.5791
X2.2472Y-5.185
X2.252Y-4.581
X2.2546Y-4.05
X2.2565Y-5.9975
X2.269Y-4.078
X2.2697Y-5.7431
X2.2811Y-4.1071
X2.2839Y-4.279
X2.2953Y-4.1693
X2.2956Y-6.2223
X2.3007Y-4.9224
X2.3007Y-4.2524
X2.3045Y-6.0377
X2.3085Y-5.7886
X2.3284Y-4.1689
X2.3435Y-5.9786
X2.3451Y-4.8186
X2.3462Y-4.7848
X2.3535Y-5.7876
X2.355Y-4.2095
X2.3622Y-3.7422
X2.3729Y-4.5232
X2.377Y-4.4919
X2.3785Y-5.9975
X2.3829Y-4.7517
X2.3846Y-4.787
X2.3917Y-5.75
X2.4004Y-4.6661
X2.4075Y-5.2559
X2.4265Y-6.0377
X2.4315Y-5.7916
X2.4375Y-5.2655
X2.4403Y-4.7731
X2.4635Y-5.9806
X2.47Y-5.05
X2.4716Y-4.8999
X2.4725Y-5.7916
X2.4778Y-6.2223
X2.4834Y-2.9558
X2.4893Y-3.5993
X2.4921Y-5.2736
X2.4941Y-5.2086
X2.4946Y-4.8785
X2.4998Y-4.6731
X2.5004Y-3.1689
X2.5015Y-5.9975
X2.5187Y-4.4165
X2.5225Y-4.5685
X2.5242Y-4.6061
X2.5252Y-4.4621
X2.5256Y-4.3802
X2.5264Y-4.5015
X2.5268Y-4.5373
X2.5275Y-4.8731
X2.5297Y-4.8417
X2.5433Y-5.7146
X2.5472Y-3.1705
X2.5485Y-6.0377
X2.5531Y-5.7894
X2.5574Y-4.8268
X2.5865Y-5.9786
X2.5866Y-4.3661
X2.5876Y-4.3307
X2.598Y-4.7599
X2.6004Y-5.7933
X2.6106Y-2.983
X2.6379Y-4.9133
X2.639Y-4.6846
X2.6398Y-4.3691
X2.6455Y-3.48
X2.6601Y-6.2223
X2.6614Y-3.2425
X2.663Y-5.4653
X2.6673Y-5.7146
X2.6835Y-5.0909
X2.6843Y-3.2641
X2.6959Y-4.3455
X2.6963Y-4.9744
X2.7131Y-2.5328
X2.7144Y-4.8874
X2.7228Y-3.5815
X2.7257Y-5.0836
X2.7303Y-4.7423
X2.7461Y-4.2962
X2.751Y-4.4104
X2.7531Y-4.7177
X2.7545Y-4.3471
X2.7565Y-5.04
X2.7575Y-4.6343
X2.76Y-5.96
X2.7634Y-4.7671
X2.77Y-5.49
X2.782Y-5.5836
X2.7879Y-5.5212
X2.7971Y-6.0046
X2.7997Y-4.7657
X2.8122Y-4.9197
X2.8122Y-5.0138
X2.8231Y-6.0046
X2.8398Y-4.3791
X2.8424Y-6.2223
X2.8491Y-6.0046
X2.8634Y-4.8248
X2.8681Y-4.8807
X2.8764Y-4.948
X2.8789Y-4.3896
X2.8798Y-4.4999
X2.88Y-5.67
X2.8802Y-4.5357
X2.881Y-4.657
X2.8814Y-5.7929
X2.8827Y-4.5689
X2.8835Y-4.9996
X2.884Y-4.4687
X2.8897Y-5.7506
X2.89Y-5.7
X2.8919Y-4.4183
X2.8937Y-4.6205
X2.91Y-5.91
X2.924Y-3.1693
X2.9554Y-5.4696
X2.9588Y-2.9554
X2.9641Y-5.7053
X2.9677Y-3.1642
X2.9758Y-3.2172
X2.9787Y-4.9098
X2.9804Y-5.4696
X2.9811Y-5.9266
X2.9811Y-5.962
X2.9811Y-5.9975
X2.9832Y-4.4035
X3.0013Y-4.3687
X3.0054Y-5.4696
X3.008Y-5.0159
X3.0134Y-4.828
X3.0137Y-5.9266
X3.0165Y-4.9201
X3.02Y-5.2736
X3.0247Y-6.2223
X3.0252Y-3.2172
X3.0272Y-4.5752
X3.03Y-4.34
X3.0304Y-5.4696
X3.0491Y-5.9266
X3.0654Y-4.5807
X3.0717Y-5.0825
X3.08Y-4.39
X3.0857Y-5.9266
X3.0857Y-5.9626
X3.0857Y-5.9986
X3.097Y-5.7771
X3.1015Y-5.0562
X3.1875Y-5.6925
X3.1875Y-5.7929
X3.207Y-6.2223
X3.2129Y-3.58
X3.217Y-5.6925
X3.217Y-5.7929
X3.2281Y-4.9644
X3.2416Y-5.843
X3.2466Y-5.6954
X3.2466Y-5.7269
X3.2466Y-5.7614
X3.2466Y-5.7929
X3.2761Y-5.6954
X3.2761Y-5.7269
X3.2761Y-5.7614
X3.2761Y-5.7929
X3.2859Y-5.4966
X3.2933Y-4.934
X3.2952Y-6.1497
X3.3007Y-5.661
X3.31Y-6.18
X3.34Y-6.16
X3.3431Y-4.934
X3.3544Y-5.96
X3.3893Y-6.2223
X3.3931Y-4.934
X3.4194Y-4.3546
X3.4194Y-4.39
X3.4194Y-4.4255
X3.4206Y-6.22
X3.4224Y-3.1765
X3.4509Y-4.3533
X3.4509Y-4.3888
X3.4509Y-4.4242
X3.4914Y-4.3543
X3.4914Y-4.3898
X3.4914Y-4.4252
X3.4933Y-4.935
X3.5229Y-4.3546
X3.5229Y-4.3901
X3.5229Y-4.4255
X3.5476Y-4.935
X3.5611Y-2.9822
X3.5696Y-6.221
X3.5882Y-4.935
X3.6327Y-4.935
X3.6654Y-4.9409
X3.7091Y-4.4189
X3.711Y-4.8031
X3.7125Y-4.6883
X3.7442Y-3.5865
X3.7519Y-6.221
X3.774Y-4.1973
X3.774Y-4.2323
X3.8248Y-4.146
X3.8427Y-4.1731
X3.8591Y-4.4312
X3.8617Y-4.6491
X3.8686Y-3.222
X3.8706Y-4.5393
X3.8929Y-4.659
X3.8934Y-4.5163
X3.9091Y-2.9554
X3.9142Y-4.4161
X3.9186Y-3.2125
X3.9341Y-6.221
X3.9473Y-3.2253
X3.9642Y-3.1622
X3.9788Y-3.2253
X4.0173Y-3.2209
X4.04Y-6.1458
X4.0463Y-4.4154
X4.1037Y-4.934
X4.1138Y-3.6071
X4.1164Y-6.221
X4.1536Y-4.934
X4.2036Y-4.934
X4.225Y-6.1473
X4.2291Y-4.3538
X4.2291Y-4.3892
X4.2291Y-4.4246
X4.2511Y-5.1145
X4.2606Y-4.3525
X4.2606Y-4.3879
X4.2606Y-4.4233
X4.2987Y-6.221
X4.3011Y-4.3535
X4.3011Y-4.3889
X4.3011Y-4.4243
X4.3326Y-4.3538
X4.3326Y-4.3892
X4.3326Y-4.4246
X4.3535Y-3.1776
X4.3555Y-4.9264
X4.4055Y-4.9248
X4.4058Y-2.4354
X4.4275Y-2.4571
X4.4472Y-2.4335
X4.4531Y-4.924
X4.4976Y-4.922
X4.5115Y-2.983
X4.5146Y-4.8059
X4.6151Y-2.4354
X4.6367Y-2.4571
X4.6564Y-2.4335
X4.6634Y-2.5956
X4.6634Y-2.6216
X4.6634Y-2.6476
T2
X2.1024Y-4.2106
X2.1292Y-4.4642
X2.1562Y-4.7109
X2.1719Y-4.3033
X2.9829Y-5.5172
X3.2537Y-4.6939
X3.2537Y-4.7239
X3.2551Y-4.928
X3.2768Y-4.3542
X3.2768Y-4.3896
X3.2768Y-4.4251
X3.2837Y-4.6939
X3.2837Y-4.7239
X3.2937Y-4.7539
X3.3102Y-4.3546
X3.3102Y-4.39
X3.3102Y-4.4255
X3.3457Y-4.3546
X3.3457Y-4.39
X3.3457Y-4.4255
X3.3811Y-4.3546
X3.3811Y-4.39
X3.3811Y-4.4255
X3.5162Y-2.9014
X3.5646Y-4.3538
X3.5646Y-4.3893
X3.5646Y-4.4247
X3.598Y-4.3542
X3.598Y-4.3896
X3.598Y-4.4251
X3.6335Y-4.3542
X3.6335Y-4.3896
X3.6335Y-4.4251
X3.6689Y-4.3542
X3.6689Y-4.3896
X3.6689Y-4.4251
X4.0634Y-4.693
X4.0634Y-4.723
X4.0656Y-4.9279
X4.0865Y-4.3534
X4.0865Y-4.3888
X4.0865Y-4.4242
X4.0934Y-4.693
X4.0934Y-4.723
X4.12Y-4.3538
X4.12Y-4.3892
X4.12Y-4.4246
X4.1554Y-4.3538
X4.1554Y-4.3892
X4.1554Y-4.4246
X4.1908Y-4.3538
X4.1908Y-4.3892
X4.1908Y-4.4246
X4.3079Y-4.926
X4.3578Y-3.0145
X4.3743Y-4.353
X4.3743Y-4.3884
X4.3743Y-4.4238
X4.4078Y-4.3534
X4.4078Y-4.3888
X4.4078Y-4.4242
X4.4432Y-4.3534
X4.4432Y-4.3888
X4.4432Y-4.4242
X4.4786Y-4.3534
X4.4786Y-4.3888
X4.4786Y-4.4242
X4.5445Y-4.6894
T3
X0.7071Y-3.6256
X0.7071Y-3.7043
X0.7071Y-3.7831
X0.7071Y-3.8618
X0.7071Y-3.9406
X0.7071Y-4.0193
X0.7075Y-2.465
X0.7087Y-2.5394
X0.7087Y-2.6181
X0.7087Y-2.6969
X0.7087Y-2.7756
X0.7087Y-2.8543
X0.7087Y-2.9331
X0.7087Y-3.002
X0.7087Y-3.0807
X0.7087Y-3.1594
X0.7087Y-3.2382
X0.7087Y-3.3169
X0.7087Y-3.3957
X0.7087Y-3.4744
X0.7087Y-3.5531
X0.7098Y-2.2319
X0.7098Y-2.3106
X0.7098Y-2.3894
X0.7858Y-3.7043
X0.7858Y-3.7831
X0.7858Y-3.8618
X0.7858Y-3.9406
X0.7858Y-4.0193
X0.7863Y-2.465
X0.7874Y-2.5394
X0.7874Y-2.6181
X0.7886Y-2.3106
X0.7886Y-2.3894
X0.799Y-2.7663
X0.799Y-2.845
X0.799Y-2.9238
X0.799Y-3.0025
X0.799Y-3.0813
X0.799Y-3.16
X0.8646Y-3.7043
X0.8646Y-3.7831
X0.8646Y-3.8618
X0.8646Y-3.9406
X0.8673Y-2.3106
X0.8673Y-2.3894
X0.8778Y-2.6876
X0.8778Y-2.7663
X0.8778Y-2.845
X0.8778Y-2.9238
X0.8778Y-3.0025
X0.8778Y-3.0813
X0.8778Y-3.16
X0.9433Y-3.6256
X0.9433Y-3.7043
X0.9433Y-3.7831
X0.9433Y-3.8618
X0.9433Y-3.9406
X0.9461Y-2.2319
X0.9461Y-2.3106
X0.9461Y-2.3894
X0.9565Y-2.6093
X0.9565Y-2.6876
X0.9565Y-2.7663
X0.9565Y-2.845
X0.9565Y-2.9238
X0.9565Y-3.0025
X0.9565Y-3.0813
X0.9565Y-3.16
X1.022Y-3.6256
X1.022Y-3.7043
X1.022Y-3.7831
X1.022Y-3.8618
X1.022Y-3.9406
X1.0248Y-2.2319
X1.0248Y-2.3106
X1.0353Y-2.6093
X1.0353Y-2.6876
X1.0353Y-2.7663
X1.0353Y-2.845
X1.07Y-6.18
X1.1008Y-3.6256
X1.1008Y-3.7043
X1.1008Y-3.7831
X1.1008Y-3.8618
X1.1008Y-3.9406
X1.114Y-2.6093
X1.114Y-2.6876
X1.114Y-2.7663
X1.114Y-2.845
X1.1927Y-2.4518
X1.1927Y-2.5305
X1.1927Y-2.6093
X1.1927Y-2.688
X1.3431Y-6.1629
X1.4157Y-3.6256
X1.4157Y-3.7043
X1.4157Y-3.7831
X1.4157Y-3.8618
X1.4157Y-3.9406
X1.4185Y-2.4265
X1.4185Y-2.4993
X1.4185Y-2.578
X1.4198Y-2.7305
X1.4198Y-2.888
X1.42Y-2.809
X1.42Y-2.9665
X1.42Y-3.0453
X1.42Y-3.124
X1.4933Y-3.624
X1.4945Y-3.7043
X1.4945Y-3.7831
X1.4945Y-3.8618
X1.4945Y-3.9406
X1.4973Y-2.4265
X1.4973Y-2.4993
X1.4973Y-2.578
X1.4985Y-2.7305
X1.4985Y-2.8093
X1.4985Y-2.888
X1.5638Y-3.6248
X1.565Y-3.7051
X1.565Y-3.7839
X1.565Y-3.9413
X1.5773Y-2.7305
X1.5773Y-2.8093
X1.5773Y-2.888
X1.656Y-2.7305
X1.656Y-2.8093
X1.6677Y-3.6248
X1.6677Y-3.7035
X1.6677Y-3.7823
X1.6677Y-3.861
X1.772Y-2.807
X1.772Y-2.8858
X1.772Y-2.9645
X1.772Y-3.0433
X1.772Y-3.122
X1.9039Y-3.6248
X1.9039Y-3.7035
X1.9039Y-3.7823
X1.9039Y-3.861
X1.9039Y-3.9398
X1.926Y-3.044
X1.926Y-3.124
X1.928Y-2.954
X1.974Y-2.8393
X1.974Y-2.918
X2.0165Y-3.6256
X2.042Y-2.7613
X2.042Y-2.84
X2.1043Y-3.6256
X2.1043Y-3.7043
X2.1043Y-3.7831
X2.1043Y-3.8618
X2.1043Y-3.9406
X2.108Y-2.7613
X2.108Y-2.84
X2.229Y-2.845
X2.229Y-2.9238
X2.229Y-3.0025
X2.229Y-3.0813
X2.229Y-3.16
X2.2567Y-3.687
X2.307Y-2.5378
X2.307Y-2.774
X2.3078Y-2.845
X2.3078Y-2.9238
X2.3078Y-3.0025
X2.3078Y-3.0813
X2.3078Y-3.16
X2.3472Y-3.8728
X2.3472Y-3.9516
X2.3472Y-4.0303
X2.3858Y-2.5378
X2.3858Y-2.6165
X2.3858Y-2.6953
X2.3858Y-2.774
X2.3865Y-2.845
X2.3865Y-2.9238
X2.3865Y-3.0025
X2.3865Y-3.0813
X2.3865Y-3.16
X2.426Y-3.7154
X2.426Y-3.7941
X2.426Y-3.8728
X2.426Y-3.9516
X2.426Y-4.0303
X2.426Y-4.1091
X2.426Y-4.1878
X2.4645Y-2.5378
X2.4645Y-2.6165
X2.4645Y-2.6953
X2.4645Y-2.774
X2.4653Y-2.845
X2.5047Y-3.7154
X2.5047Y-4.1878
X2.5433Y-2.5378
X2.5433Y-2.6165
X2.5433Y-2.6953
X2.5433Y-2.774
X2.544Y-2.845
X2.5835Y-3.6366
X2.5835Y-3.7154
X2.5835Y-4.1878
X2.622Y-2.5378
X2.622Y-2.6165
X2.622Y-2.6953
X2.622Y-2.774
X2.6622Y-3.6366
X2.6622Y-3.7154
X2.6622Y-4.1878
X2.7078Y-2.9238
X2.7078Y-3.0025
X2.7078Y-3.0813
X2.7078Y-3.16
X2.7409Y-3.7154
X2.7409Y-4.1878
X2.742Y-6.0836
X2.7865Y-3.0025
X2.7865Y-3.0813
X2.7865Y-3.16
X2.8197Y-3.6366
X2.8197Y-3.7154
X2.8197Y-4.1878
X2.864Y-2.778
X2.8653Y-2.845
X2.8653Y-3.0813
X2.8653Y-3.16
X2.8984Y-3.6366
X2.8984Y-3.7154
X2.8984Y-3.7941
X2.8984Y-3.8728
X2.8984Y-3.9516
X2.8984Y-4.0303
X2.8984Y-4.1091
X2.924Y-2.852
X2.944Y-2.914
X3.0559Y-3.6366
X3.0559Y-3.7154
X3.0559Y-3.7941
X3.0559Y-3.8728
X3.0559Y-3.9516
X3.0559Y-4.0303
X3.0559Y-4.1091
X3.0559Y-4.1878
X3.1346Y-3.7941
X3.1346Y-4.2665
X3.18Y-2.91
X3.2134Y-4.1878
X3.2134Y-4.2665
X3.2134Y-4.3453
X3.2142Y-4.4276
X3.22Y-2.95
X3.26Y-2.99
X3.26Y-3.045
X3.26Y-3.105
X3.32Y-3.7113
X3.32Y-3.79
X3.35Y-2.73
X3.385Y-2.77
X3.415Y-2.805
X3.45Y-2.835
X3.47Y-3.7113
X3.47Y-3.79
X3.48Y-2.87
X3.63Y-3.7113
X3.63Y-3.79
X3.6545Y-2.937
X3.6545Y-3.0045
X3.6545Y-3.0833
X3.6545Y-3.162
X3.7333Y-2.937
X3.7333Y-3.0045
X3.7333Y-3.0833
X3.7333Y-3.162
X3.8Y-3.64
X3.8Y-3.7113
X3.8Y-3.79
X3.812Y-2.937
X3.812Y-3.0045
X3.812Y-3.0833
X3.812Y-3.162
X3.8273Y-2.4233
X3.8273Y-2.494
X3.906Y-2.4233
X3.906Y-2.494
X3.9374Y-4.5331
X3.9374Y-4.6118
X3.97Y-3.64
X3.97Y-3.7113
X3.97Y-3.79
X3.972Y-2.632
X3.978Y-2.494
X3.9984Y-4.4382
X4.0Y-4.1102
X4.0Y-4.189
X4.0Y-4.2677
X4.0Y-4.3465
X4.0161Y-4.5331
X4.0161Y-4.6118
X4.026Y-2.638
X4.064Y-2.676
X4.0949Y-4.5331
X4.0949Y-4.6118
X4.112Y-2.37
X4.13Y-3.7113
X4.13Y-3.79
X4.134Y-2.75
X4.15Y-2.406
X4.168Y-2.784
X4.184Y-2.44
X4.202Y-2.82
X4.2031Y-2.3535
X4.22Y-2.476
X4.24Y-2.856
X4.274Y-2.89
X4.28Y-3.7113
X4.28Y-3.79
X4.31Y-2.926
X4.344Y-2.594
X4.378Y-2.628
X4.412Y-2.664
X4.4216Y-2.5756
X4.43Y-3.7113
X4.43Y-3.79
X4.45Y-2.7
X4.484Y-2.734
X4.52Y-2.77
X4.5513Y-4.61
X4.57Y-4.1438
X4.57Y-4.2225
X4.57Y-4.3013
X4.57Y-4.38
X4.62Y-3.7113
X4.62Y-3.79
X4.63Y-4.5313
X4.63Y-4.61
T4
X1.161Y-3.0296
X1.201Y-3.0296
X1.216Y-3.0676
X1.216Y-3.1076
X1.216Y-3.1476
X1.6362Y-3.0295
X1.6762Y-3.0295
X1.691Y-3.0676
X1.691Y-3.1076
X1.691Y-3.1476
X2.1116Y-3.0295
X2.1516Y-3.0295
X2.167Y-3.0677
X2.167Y-3.1077
X2.167Y-3.1477
X2.587Y-3.0295
X2.627Y-3.0295
X2.643Y-3.0677
X2.643Y-3.1077
X2.643Y-3.1477
X3.0623Y-3.0292
X3.1023Y-3.0292
X3.1183Y-3.0673
X3.1209Y-3.1063
X3.5375Y-3.0288
X3.5775Y-3.0288
X3.594Y-3.0677
X3.594Y-3.1077
X3.594Y-3.1477
X3.7089Y-4.2229
X3.7089Y-4.2579
X4.0127Y-3.0292
X4.0527Y-3.0292
X4.0687Y-3.0673
X4.069Y-3.1076
X4.069Y-3.1476
X4.4879Y-3.0296
X4.5207Y-4.2229
X4.5207Y-4.2579
X4.5279Y-3.0296
X4.5439Y-3.0677
X4.544Y-3.1077
X4.544Y-3.1477
T6
X0.713Y-2.0861
X0.713Y-6.2495
X0.7407Y-2.0193
X0.7407Y-2.1529
X0.7407Y-6.1827
X0.7407Y-6.3163
X0.7624Y-5.7937
X0.8075Y-1.9916
X0.8075Y-2.1806
X0.8075Y-6.155
X0.8075Y-6.344
X0.8116Y-5.7937
X0.8608Y-5.7937
X0.8743Y-2.0193
X0.8743Y-2.1529
X0.8743Y-6.1827
X0.8743Y-6.3163
X0.902Y-2.0861
X0.902Y-6.2495
X0.91Y-5.7937
X0.9592Y-5.7937
X1.0084Y-5.7937
X1.0576Y-5.7937
X3.533Y-6.1161
X3.5822Y-6.1161
X3.6314Y-6.1161
X3.6806Y-6.1161
X4.4331Y-2.0861
X4.4331Y-6.2495
X4.4608Y-2.0193
X4.4608Y-2.1529
X4.4608Y-6.1827
X4.4608Y-6.3163
X4.5276Y-1.9916
X4.5276Y-2.1806
X4.5276Y-6.155
X4.5276Y-6.344
X4.5945Y-2.0193
X4.5945Y-2.1529
X4.5945Y-6.1827
X4.5945Y-6.3163
X4.6221Y-2.0861
X4.6221Y-6.2495
T7
X0.8506Y-3.297
X0.8506Y-3.397
X0.8506Y-3.497
X0.9506Y-3.297
X0.9506Y-3.397
X0.9506Y-3.497
X1.0506Y-3.297
X1.0506Y-3.397
X1.0506Y-3.497
X1.15Y-3.3
X1.15Y-3.4
X1.15Y-3.5
X1.4256Y-3.297
X1.4256Y-3.397
X1.4256Y-3.497
X1.5256Y-3.297
X1.5256Y-3.397
X1.5256Y-3.497
X1.6256Y-3.297
X1.6256Y-3.397
X1.6256Y-3.497
X1.8016Y-3.297
X1.8016Y-3.397
X1.8016Y-3.497
X1.9016Y-3.297
X1.9016Y-3.397
X1.9016Y-3.497
X2.0016Y-3.397
X2.0016Y-3.497
X2.0108Y-3.2972
X2.1016Y-3.297
X2.1016Y-3.397
X2.1016Y-3.497
X2.2776Y-3.297
X2.2776Y-3.397
X2.2776Y-3.497
X2.3776Y-3.297
X2.3776Y-3.397
X2.3776Y-3.497
X2.4776Y-3.297
X2.4776Y-3.397
X2.4776Y-3.497
X2.5776Y-3.297
X2.5776Y-3.397
X2.5776Y-3.497
X2.7527Y-3.297
X2.7527Y-3.397
X2.7527Y-3.497
X2.8527Y-3.297
X2.8527Y-3.397
X2.8527Y-3.497
X2.9343Y-3.4953
X2.9437Y-3.3961
X2.9449Y-3.2957
X3.0527Y-3.297
X3.0527Y-3.397
X3.0527Y-3.497
X3.227Y-3.298
X3.227Y-3.398
X3.227Y-3.498
X3.374Y-3.396
X3.374Y-3.496
X3.527Y-3.298
X3.527Y-3.398
X3.527Y-3.498
X3.7028Y-3.2976
X3.7028Y-3.3976
X3.7028Y-3.4976
X3.8016Y-3.4976
X3.8028Y-3.2976
X3.8028Y-3.3976
X4.0028Y-3.2976
X4.0028Y-3.3976
X4.0028Y-3.4976
X4.1774Y-3.2984
X4.1774Y-3.3984
X4.1774Y-3.4984
X4.3268Y-3.4984
X4.3362Y-3.3992
X4.3374Y-3.2988
X4.4774Y-3.2984
X4.4774Y-3.3984
X4.4774Y-3.4984
T8
X3.62Y-5.5604
X3.62Y-5.8596
T9
X0.8681Y-2.465
X1.065Y-2.465
T10
X2.513Y-3.8043
X2.513Y-3.9043
X2.513Y-4.0043
X2.513Y-4.1043
X2.613Y-3.8043
X2.613Y-3.9043
X2.613Y-4.0043
X2.613Y-4.1043
X2.713Y-3.8043
X2.713Y-3.9043
X2.713Y-4.0043
X2.713Y-4.1043
X2.813Y-3.8043
X2.813Y-3.9043
X2.813Y-4.0043
X2.813Y-4.1043
T11
X1.5578Y-2.3464
X1.5578Y-2.6613
X1.6169Y-2.4448
X1.6169Y-2.5629
X1.6759Y-2.3464
X1.6759Y-2.6613
X1.735Y-2.4448
X1.735Y-2.5629
X1.794Y-2.3464
X1.794Y-2.6613
X1.8531Y-2.4448
X1.8531Y-2.5629
X1.9121Y-2.3464
X1.9121Y-2.6613
X1.9712Y-2.4448
X1.9712Y-2.5629
X2.0302Y-2.3464
X2.0302Y-2.6613
X2.0893Y-2.4448
X2.0893Y-2.5629
X2.1483Y-2.3464
X2.1483Y-2.6613
X2.2074Y-2.4448
X2.2074Y-2.5629
X2.2665Y-2.3464
X2.2665Y-2.6613
X2.8373Y-2.3464
X2.8373Y-2.6613
X2.8964Y-2.4448
X2.8964Y-2.5629
X2.9554Y-2.3464
X2.9554Y-2.6613
X3.0145Y-2.4448
X3.0145Y-2.5629
X3.0735Y-2.3464
X3.0735Y-2.6613
X3.1326Y-2.4448
X3.1326Y-2.5629
X3.1917Y-2.3464
X3.1917Y-2.6613
X3.2507Y-2.4448
X3.2507Y-2.5629
X3.3098Y-2.3464
X3.3098Y-2.6613
X3.3688Y-2.4448
X3.3688Y-2.5629
X3.4279Y-2.3464
X3.4279Y-2.6613
X3.4869Y-2.4448
X3.4869Y-2.5629
X3.546Y-2.3464
X3.546Y-2.6613
X3.605Y-2.4448
X3.605Y-2.5629
X3.6641Y-2.3464
X3.6641Y-2.6613
X3.7231Y-2.4448
X3.7231Y-2.5629
X3.7822Y-2.3464
X3.7822Y-2.6613
T12
X0.8075Y-2.0861
X0.8075Y-6.2495
X4.5276Y-2.0861
X4.5276Y-6.2495
T13
X1.2724Y-2.0905
X2.5519Y-2.0905
X4.0676Y-2.0905
T5
G00X1.0248Y-6.2013
M15
G01X1.0248Y-6.2407
M16
G05
G00X1.0248Y-6.3234
M15
G01X1.0248Y-6.3706
M16
G05
G00X1.3752Y-6.2013
M15
G01X1.3752Y-6.2407
M16
G05
G00X1.3752Y-6.3234
M15
G01X1.3752Y-6.3706
M16
G05
T0
M30
