%TF.GenerationSoftware,KiCad,Pcbnew,(6.0.8)*%
%TF.CreationDate,2024-02-14T13:25:16+01:00*%
%TF.ProjectId,pdms,70646d73-2e6b-4696-9361-645f70636258,rev?*%
%TF.SameCoordinates,Original*%
%TF.FileFunction,Drillmap*%
%TF.FilePolarity,Positive*%
%FSLAX45Y45*%
G04 Gerber Fmt 4.5, Leading zero omitted, Abs format (unit mm)*
G04 Created by KiCad (PCBNEW (6.0.8)) date 2024-02-14 13:25:16*
%MOMM*%
%LPD*%
G01*
G04 APERTURE LIST*
%ADD10C,0.100000*%
%ADD11C,0.200000*%
G04 APERTURE END LIST*
D10*
X11896169Y-16175129D02*
X11896169Y-4994129D01*
X1645711Y-4993289D02*
X1645711Y-16174289D01*
X11896171Y-4994129D02*
G75*
G03*
X11796169Y-4894129I-100001J-1D01*
G01*
X1745711Y-16274289D02*
X11796169Y-16275129D01*
X1745711Y-4893291D02*
G75*
G03*
X1645711Y-4993289I-1J-99999D01*
G01*
X11796169Y-4894129D02*
X1745711Y-4893289D01*
X1645711Y-16174289D02*
G75*
G03*
X1745711Y-16274289I99999J-1D01*
G01*
X11796169Y-16275129D02*
G75*
G03*
X11896169Y-16175129I1J99999D01*
G01*
D11*
X1898330Y-16590605D02*
X1898330Y-16390605D01*
X1945949Y-16390605D01*
X1974520Y-16400129D01*
X1993568Y-16419176D01*
X2003092Y-16438224D01*
X2012615Y-16476319D01*
X2012615Y-16504890D01*
X2003092Y-16542986D01*
X1993568Y-16562033D01*
X1974520Y-16581081D01*
X1945949Y-16590605D01*
X1898330Y-16590605D01*
X2098330Y-16590605D02*
X2098330Y-16457271D01*
X2098330Y-16495367D02*
X2107854Y-16476319D01*
X2117377Y-16466795D01*
X2136425Y-16457271D01*
X2155473Y-16457271D01*
X2222139Y-16590605D02*
X2222139Y-16457271D01*
X2222139Y-16390605D02*
X2212615Y-16400129D01*
X2222139Y-16409652D01*
X2231663Y-16400129D01*
X2222139Y-16390605D01*
X2222139Y-16409652D01*
X2345949Y-16590605D02*
X2326901Y-16581081D01*
X2317377Y-16562033D01*
X2317377Y-16390605D01*
X2450711Y-16590605D02*
X2431663Y-16581081D01*
X2422139Y-16562033D01*
X2422139Y-16390605D01*
X2679282Y-16590605D02*
X2679282Y-16390605D01*
X2745949Y-16533462D01*
X2812615Y-16390605D01*
X2812615Y-16590605D01*
X2993568Y-16590605D02*
X2993568Y-16485843D01*
X2984044Y-16466795D01*
X2964996Y-16457271D01*
X2926901Y-16457271D01*
X2907853Y-16466795D01*
X2993568Y-16581081D02*
X2974520Y-16590605D01*
X2926901Y-16590605D01*
X2907853Y-16581081D01*
X2898330Y-16562033D01*
X2898330Y-16542986D01*
X2907853Y-16523938D01*
X2926901Y-16514414D01*
X2974520Y-16514414D01*
X2993568Y-16504890D01*
X3088806Y-16457271D02*
X3088806Y-16657271D01*
X3088806Y-16466795D02*
X3107853Y-16457271D01*
X3145949Y-16457271D01*
X3164996Y-16466795D01*
X3174520Y-16476319D01*
X3184044Y-16495367D01*
X3184044Y-16552509D01*
X3174520Y-16571557D01*
X3164996Y-16581081D01*
X3145949Y-16590605D01*
X3107853Y-16590605D01*
X3088806Y-16581081D01*
X3269758Y-16571557D02*
X3279282Y-16581081D01*
X3269758Y-16590605D01*
X3260234Y-16581081D01*
X3269758Y-16571557D01*
X3269758Y-16590605D01*
X3269758Y-16466795D02*
X3279282Y-16476319D01*
X3269758Y-16485843D01*
X3260234Y-16476319D01*
X3269758Y-16466795D01*
X3269758Y-16485843D01*
M02*
