%TF.GenerationSoftware,KiCad,Pcbnew,(6.0.8)*%
%TF.CreationDate,2024-10-13T14:56:53+02:00*%
%TF.ProjectId,MP4322_TestBoard,4d503433-3232-45f5-9465-7374426f6172,rev?*%
%TF.SameCoordinates,Original*%
%TF.FileFunction,Copper,L1,Top*%
%TF.FilePolarity,Positive*%
%FSLAX46Y46*%
G04 Gerber Fmt 4.6, Leading zero omitted, Abs format (unit mm)*
G04 Created by KiCad (PCBNEW (6.0.8)) date 2024-10-13 14:56:53*
%MOMM*%
%LPD*%
G01*
G04 APERTURE LIST*
G04 Aperture macros list*
%AMRoundRect*
0 Rectangle with rounded corners*
0 $1 Rounding radius*
0 $2 $3 $4 $5 $6 $7 $8 $9 X,Y pos of 4 corners*
0 Add a 4 corners polygon primitive as box body*
4,1,4,$2,$3,$4,$5,$6,$7,$8,$9,$2,$3,0*
0 Add four circle primitives for the rounded corners*
1,1,$1+$1,$2,$3*
1,1,$1+$1,$4,$5*
1,1,$1+$1,$6,$7*
1,1,$1+$1,$8,$9*
0 Add four rect primitives between the rounded corners*
20,1,$1+$1,$2,$3,$4,$5,0*
20,1,$1+$1,$4,$5,$6,$7,0*
20,1,$1+$1,$6,$7,$8,$9,0*
20,1,$1+$1,$8,$9,$2,$3,0*%
G04 Aperture macros list end*
%TA.AperFunction,ComponentPad*%
%ADD10C,2.600000*%
%TD*%
%TA.AperFunction,ConnectorPad*%
%ADD11C,3.500000*%
%TD*%
%TA.AperFunction,SMDPad,CuDef*%
%ADD12RoundRect,0.218750X-0.218750X-0.381250X0.218750X-0.381250X0.218750X0.381250X-0.218750X0.381250X0*%
%TD*%
%TA.AperFunction,ComponentPad*%
%ADD13O,2.000000X1.700000*%
%TD*%
%TA.AperFunction,ComponentPad*%
%ADD14RoundRect,0.250000X0.750000X-0.600000X0.750000X0.600000X-0.750000X0.600000X-0.750000X-0.600000X0*%
%TD*%
%TA.AperFunction,SMDPad,CuDef*%
%ADD15RoundRect,0.135000X-0.135000X-0.185000X0.135000X-0.185000X0.135000X0.185000X-0.135000X0.185000X0*%
%TD*%
%TA.AperFunction,SMDPad,CuDef*%
%ADD16RoundRect,0.140000X0.140000X0.170000X-0.140000X0.170000X-0.140000X-0.170000X0.140000X-0.170000X0*%
%TD*%
%TA.AperFunction,SMDPad,CuDef*%
%ADD17R,1.854500X2.286000*%
%TD*%
%TA.AperFunction,SMDPad,CuDef*%
%ADD18RoundRect,0.250000X0.325000X0.650000X-0.325000X0.650000X-0.325000X-0.650000X0.325000X-0.650000X0*%
%TD*%
%TA.AperFunction,SMDPad,CuDef*%
%ADD19RoundRect,0.250000X-0.550000X1.500000X-0.550000X-1.500000X0.550000X-1.500000X0.550000X1.500000X0*%
%TD*%
%TA.AperFunction,SMDPad,CuDef*%
%ADD20RoundRect,0.250000X-0.325000X-0.650000X0.325000X-0.650000X0.325000X0.650000X-0.325000X0.650000X0*%
%TD*%
%TA.AperFunction,SMDPad,CuDef*%
%ADD21RoundRect,0.135000X-0.185000X0.135000X-0.185000X-0.135000X0.185000X-0.135000X0.185000X0.135000X0*%
%TD*%
%TA.AperFunction,SMDPad,CuDef*%
%ADD22RoundRect,0.135000X0.185000X-0.135000X0.185000X0.135000X-0.185000X0.135000X-0.185000X-0.135000X0*%
%TD*%
%TA.AperFunction,SMDPad,CuDef*%
%ADD23RoundRect,0.140000X-0.170000X0.140000X-0.170000X-0.140000X0.170000X-0.140000X0.170000X0.140000X0*%
%TD*%
%TA.AperFunction,SMDPad,CuDef*%
%ADD24RoundRect,0.250000X-0.250000X-0.475000X0.250000X-0.475000X0.250000X0.475000X-0.250000X0.475000X0*%
%TD*%
%TA.AperFunction,SMDPad,CuDef*%
%ADD25RoundRect,0.250000X-0.475000X0.250000X-0.475000X-0.250000X0.475000X-0.250000X0.475000X0.250000X0*%
%TD*%
%TA.AperFunction,SMDPad,CuDef*%
%ADD26R,1.800000X0.250000*%
%TD*%
%TA.AperFunction,SMDPad,CuDef*%
%ADD27R,0.250000X0.800000*%
%TD*%
%TA.AperFunction,SMDPad,CuDef*%
%ADD28R,0.127000X0.127000*%
%TD*%
%TA.AperFunction,SMDPad,CuDef*%
%ADD29R,0.800000X0.250000*%
%TD*%
%TA.AperFunction,SMDPad,CuDef*%
%ADD30R,3.400000X0.980000*%
%TD*%
%TA.AperFunction,SMDPad,CuDef*%
%ADD31RoundRect,0.243750X0.243750X0.456250X-0.243750X0.456250X-0.243750X-0.456250X0.243750X-0.456250X0*%
%TD*%
%TA.AperFunction,ViaPad*%
%ADD32C,0.600000*%
%TD*%
%TA.AperFunction,ViaPad*%
%ADD33C,0.800000*%
%TD*%
%TA.AperFunction,Conductor*%
%ADD34C,0.250000*%
%TD*%
%TA.AperFunction,Conductor*%
%ADD35C,1.000000*%
%TD*%
G04 APERTURE END LIST*
%TO.C,U7*%
G36*
X109900000Y-106674999D02*
G01*
X109750000Y-106824999D01*
X109100000Y-106824999D01*
X109100000Y-106574999D01*
X109900000Y-106574999D01*
X109900000Y-106674999D01*
G37*
G36*
X109900000Y-105725001D02*
G01*
X109900000Y-105825001D01*
X109100000Y-105825001D01*
X109100000Y-105575001D01*
X109750000Y-105575001D01*
X109900000Y-105725001D01*
G37*
G36*
X110350000Y-105699999D02*
G01*
X110250000Y-105699999D01*
X110100000Y-105549999D01*
X110100000Y-104899999D01*
X110350000Y-104899999D01*
X110350000Y-105699999D01*
G37*
G36*
X110350000Y-107500001D02*
G01*
X110100000Y-107500001D01*
X110100000Y-106850001D01*
X110250000Y-106700001D01*
X110350000Y-106700001D01*
X110350000Y-107500001D01*
G37*
%TD*%
D10*
%TO.P,H3,1,1*%
%TO.N,GND*%
X94400000Y-114150000D03*
D11*
X94400000Y-114150000D03*
%TD*%
D10*
%TO.P,H2,1,1*%
%TO.N,GND*%
X126150000Y-114150000D03*
D11*
X126150000Y-114150000D03*
%TD*%
D10*
%TO.P,H1,1,1*%
%TO.N,GND*%
X126150000Y-98550000D03*
D11*
X126150000Y-98550000D03*
%TD*%
D12*
%TO.P,L1,1,1*%
%TO.N,+12V*%
X98207500Y-98180000D03*
%TO.P,L1,2,2*%
%TO.N,Net-(C3-Pad1)*%
X100332500Y-98180000D03*
%TD*%
D13*
%TO.P,J2,2,Pin_2*%
%TO.N,+3.3V*%
X125500000Y-105050000D03*
D14*
%TO.P,J2,1,Pin_1*%
%TO.N,GND*%
X125500000Y-107550000D03*
%TD*%
D15*
%TO.P,R1,1*%
%TO.N,Net-(C28-Pad1)*%
X107106000Y-103575000D03*
%TO.P,R1,2*%
%TO.N,Net-(R1-Pad2)*%
X108126000Y-103575000D03*
%TD*%
%TO.P,R120,1*%
%TO.N,GND*%
X107106000Y-104675000D03*
%TO.P,R120,2*%
%TO.N,Net-(R120-Pad2)*%
X108126000Y-104675000D03*
%TD*%
D16*
%TO.P,C1,1*%
%TO.N,+12V*%
X96695000Y-98925000D03*
%TO.P,C1,2*%
%TO.N,GND*%
X95735000Y-98925000D03*
%TD*%
D17*
%TO.P,L4,1*%
%TO.N,/MP4322/PRECOIL*%
X114807750Y-106225000D03*
%TO.P,L4,2*%
%TO.N,/MP4322/PREFUSE*%
X118592250Y-106225000D03*
%TD*%
D13*
%TO.P,J1,2,Pin_2*%
%TO.N,+12V*%
X94350000Y-105175000D03*
D14*
%TO.P,J1,1,Pin_1*%
%TO.N,GND*%
X94350000Y-107675000D03*
%TD*%
D18*
%TO.P,C30,1*%
%TO.N,/MP4322/PREFUSE*%
X119775000Y-110000000D03*
%TO.P,C30,2*%
%TO.N,GND*%
X116825000Y-110000000D03*
%TD*%
D19*
%TO.P,C5,1*%
%TO.N,12V_FILTERED*%
X101650000Y-106400000D03*
%TO.P,C5,2*%
%TO.N,GND*%
X101650000Y-112000000D03*
%TD*%
D20*
%TO.P,C23,1*%
%TO.N,12V_FILTERED*%
X109925000Y-111600000D03*
%TO.P,C23,2*%
%TO.N,GND*%
X112875000Y-111600000D03*
%TD*%
D15*
%TO.P,R122,1*%
%TO.N,Net-(C27-Pad1)*%
X107190000Y-109499400D03*
%TO.P,R122,2*%
%TO.N,/MP4322/PGO*%
X108210000Y-109499400D03*
%TD*%
D21*
%TO.P,R123,1*%
%TO.N,Net-(C29-Pad1)*%
X108200000Y-107390000D03*
%TO.P,R123,2*%
%TO.N,GND*%
X108200000Y-108410000D03*
%TD*%
D22*
%TO.P,R124,1*%
%TO.N,/MP4322/PREFUSE*%
X107000000Y-108400000D03*
%TO.P,R124,2*%
%TO.N,Net-(C29-Pad1)*%
X107000000Y-107380000D03*
%TD*%
D23*
%TO.P,C28,1*%
%TO.N,Net-(C28-Pad1)*%
X115000000Y-102120000D03*
%TO.P,C28,2*%
%TO.N,/MP4322/PRECOIL*%
X115000000Y-103080000D03*
%TD*%
D22*
%TO.P,R121,1*%
%TO.N,12V_FILTERED*%
X108200000Y-111810000D03*
%TO.P,R121,2*%
%TO.N,Net-(R121-Pad2)*%
X108200000Y-110790000D03*
%TD*%
D24*
%TO.P,C26,1*%
%TO.N,12V_FILTERED*%
X110875000Y-103300000D03*
%TO.P,C26,2*%
%TO.N,GND*%
X112775000Y-103300000D03*
%TD*%
D25*
%TO.P,C4,1*%
%TO.N,Net-(C3-Pad1)*%
X105412500Y-99990000D03*
%TO.P,C4,2*%
%TO.N,GND*%
X105412500Y-101890000D03*
%TD*%
D26*
%TO.P,U7,12,SW*%
%TO.N,/MP4322/PRECOIL*%
X111800000Y-106200000D03*
D27*
%TO.P,U7,11,PGND*%
%TO.N,GND*%
X112025000Y-107100001D03*
%TO.P,U7,10,VIN*%
%TO.N,12V_FILTERED*%
X111375000Y-107100001D03*
%TO.P,U7,9,EN*%
%TO.N,Net-(R121-Pad2)*%
X110725000Y-107100001D03*
D28*
%TO.P,U7,8,PG*%
%TO.N,/MP4322/PGO*%
X110225000Y-107100001D03*
%TO.P,U7,7,FB*%
%TO.N,Net-(C29-Pad1)*%
X109500000Y-106699999D03*
D29*
%TO.P,U7,6,AGND*%
%TO.N,GND*%
X109500000Y-106200000D03*
D28*
%TO.P,U7,5,VCC*%
%TO.N,Net-(C27-Pad1)*%
X109500000Y-105700001D03*
%TO.P,U7,4,FREQ*%
%TO.N,Net-(R120-Pad2)*%
X110225000Y-105299999D03*
D27*
%TO.P,U7,3,BOOT*%
%TO.N,Net-(R1-Pad2)*%
X110725000Y-105299999D03*
%TO.P,U7,2,VIN*%
%TO.N,12V_FILTERED*%
X111375000Y-105299999D03*
%TO.P,U7,1,PGND*%
%TO.N,GND*%
X112025000Y-105299999D03*
%TD*%
D24*
%TO.P,C25,1*%
%TO.N,12V_FILTERED*%
X110875000Y-109100000D03*
%TO.P,C25,2*%
%TO.N,GND*%
X112775000Y-109100000D03*
%TD*%
D25*
%TO.P,C3,1*%
%TO.N,Net-(C3-Pad1)*%
X98487500Y-99990000D03*
%TO.P,C3,2*%
%TO.N,GND*%
X98487500Y-101890000D03*
%TD*%
D20*
%TO.P,C24,1*%
%TO.N,12V_FILTERED*%
X109925000Y-100800000D03*
%TO.P,C24,2*%
%TO.N,GND*%
X112875000Y-100800000D03*
%TD*%
D18*
%TO.P,C31,1*%
%TO.N,/MP4322/PREFUSE*%
X119775000Y-102400000D03*
%TO.P,C31,2*%
%TO.N,GND*%
X116825000Y-102400000D03*
%TD*%
D30*
%TO.P,L2,1,1*%
%TO.N,12V_FILTERED*%
X101950000Y-102685000D03*
%TO.P,L2,2,2*%
%TO.N,Net-(C3-Pad1)*%
X101950000Y-100315000D03*
%TD*%
D16*
%TO.P,C27,1*%
%TO.N,Net-(C27-Pad1)*%
X108096000Y-105775000D03*
%TO.P,C27,2*%
%TO.N,GND*%
X107136000Y-105775000D03*
%TD*%
%TO.P,C2,1*%
%TO.N,+12V*%
X96685000Y-97805000D03*
%TO.P,C2,2*%
%TO.N,GND*%
X95725000Y-97805000D03*
%TD*%
D23*
%TO.P,C29,1*%
%TO.N,Net-(C29-Pad1)*%
X105800000Y-107420000D03*
%TO.P,C29,2*%
%TO.N,/MP4322/PREFUSE*%
X105800000Y-108380000D03*
%TD*%
D22*
%TO.P,R2,1*%
%TO.N,GND*%
X107000000Y-111810000D03*
%TO.P,R2,2*%
%TO.N,Net-(R121-Pad2)*%
X107000000Y-110790000D03*
%TD*%
D31*
%TO.P,F24,1*%
%TO.N,+3.3V*%
X122451100Y-106299000D03*
%TO.P,F24,2*%
%TO.N,/MP4322/PREFUSE*%
X120576100Y-106299000D03*
%TD*%
D32*
%TO.N,GND*%
X112915000Y-107807000D03*
D33*
X105420000Y-102990000D03*
D32*
X116967000Y-105740200D03*
D33*
X102975000Y-112775000D03*
D32*
X106426000Y-104648000D03*
D33*
X114058000Y-112760000D03*
X112280000Y-112760000D03*
D32*
X116967000Y-104013000D03*
X116967000Y-108331000D03*
D33*
X112280000Y-99679000D03*
X112280000Y-102219000D03*
X103025000Y-110775000D03*
X100375000Y-111725000D03*
D32*
X108579556Y-108128936D03*
D33*
X100375000Y-110775000D03*
X112280000Y-110220000D03*
D32*
X95700000Y-99575000D03*
D33*
X113804000Y-102219000D03*
X100325000Y-112775000D03*
X114058000Y-111490000D03*
X113804000Y-103616000D03*
X113804000Y-110220000D03*
X117750000Y-110900000D03*
X98500000Y-102990000D03*
D32*
X112915000Y-104632000D03*
X116967000Y-107467400D03*
X116967000Y-104876600D03*
D33*
X114058000Y-99679000D03*
D32*
X107061000Y-112522000D03*
X95700000Y-97150000D03*
X116967000Y-106603800D03*
D33*
X114058000Y-100949000D03*
X117700000Y-101250000D03*
X103025000Y-111725000D03*
D32*
%TO.N,Net-(C27-Pad1)*%
X108835546Y-105575500D03*
X106426000Y-109093000D03*
%TO.N,/MP4322/PREFUSE*%
X120370600Y-108458000D03*
X119405400Y-108458000D03*
X119430800Y-107683300D03*
X118491000Y-104724200D03*
X120370600Y-107645200D03*
X118491000Y-107721400D03*
X120370600Y-103987600D03*
X119430800Y-104762300D03*
X120370600Y-104800400D03*
X119405400Y-103987600D03*
D33*
%TO.N,+3.3V*%
X122800000Y-104600000D03*
X121750000Y-108900000D03*
X121750000Y-103650000D03*
X121750000Y-109850000D03*
X122800000Y-108900000D03*
X122800000Y-102700000D03*
X121750000Y-107950000D03*
X122800000Y-103650000D03*
X121750000Y-102700000D03*
X121750000Y-104600000D03*
X122800000Y-107950000D03*
X122800000Y-109850000D03*
%TO.N,12V_FILTERED*%
X109950000Y-112850000D03*
X111150000Y-99500000D03*
X111150000Y-102000000D03*
X102950000Y-107100000D03*
X109950000Y-110250000D03*
X111150000Y-100750000D03*
X109900000Y-102100000D03*
X100350000Y-105100000D03*
X103000000Y-105100000D03*
X111200000Y-110250000D03*
X100350000Y-106050000D03*
X111200000Y-112750000D03*
X109900000Y-99500000D03*
X100300000Y-107100000D03*
X111200000Y-111500000D03*
X103000000Y-106050000D03*
%TD*%
D34*
%TO.N,GND*%
X108200000Y-108410000D02*
X108298492Y-108410000D01*
X108450000Y-106513605D02*
X107844605Y-106513605D01*
X117700000Y-101250000D02*
X117700000Y-101525000D01*
X117700000Y-101525000D02*
X116825000Y-102400000D01*
X95695000Y-97155000D02*
X95695000Y-97805000D01*
X105412500Y-101890000D02*
X105412500Y-102982500D01*
X109500000Y-106200000D02*
X108763603Y-106200000D01*
X107844605Y-106513605D02*
X107106000Y-105775000D01*
X95705000Y-99570000D02*
X95700000Y-99575000D01*
X107106000Y-105775000D02*
X106975000Y-105775000D01*
X95705000Y-98925000D02*
X95705000Y-99570000D01*
X106975000Y-105775000D02*
X106426000Y-105226000D01*
X105412500Y-102982500D02*
X105420000Y-102990000D01*
X107000000Y-112461000D02*
X107061000Y-112522000D01*
X95700000Y-97150000D02*
X95695000Y-97155000D01*
X106426000Y-105226000D02*
X106426000Y-104648000D01*
X117750000Y-110900000D02*
X117725000Y-110900000D01*
X107000000Y-111810000D02*
X107000000Y-112461000D01*
X98487500Y-101890000D02*
X98487500Y-102977500D01*
X107106000Y-104675000D02*
X106453000Y-104675000D01*
X106453000Y-104675000D02*
X106426000Y-104648000D01*
X117725000Y-110900000D02*
X116825000Y-110000000D01*
X108298492Y-108410000D02*
X108579556Y-108128936D01*
X108763603Y-106200000D02*
X108450000Y-106513605D01*
X98487500Y-102977500D02*
X98500000Y-102990000D01*
%TO.N,Net-(C27-Pad1)*%
X108661046Y-105750000D02*
X108151000Y-105750000D01*
X108151000Y-105750000D02*
X108126000Y-105775000D01*
X106426000Y-109093000D02*
X106832400Y-109499400D01*
X108472799Y-105700001D02*
X108200999Y-105700001D01*
X109500000Y-105700001D02*
X108472799Y-105700001D01*
X108126000Y-105775000D02*
X108216000Y-105775000D01*
X106832400Y-109499400D02*
X107190000Y-109499400D01*
X108200999Y-105700001D02*
X108126000Y-105775000D01*
X108835546Y-105575500D02*
X108661046Y-105750000D01*
%TO.N,Net-(C28-Pad1)*%
X107106000Y-103575000D02*
X107106000Y-100793000D01*
X115000000Y-99595695D02*
X115000000Y-102090000D01*
X113829305Y-98425000D02*
X115000000Y-99595695D01*
X109474000Y-98425000D02*
X113829305Y-98425000D01*
X107106000Y-100793000D02*
X109474000Y-98425000D01*
%TO.N,/MP4322/PREFUSE*%
X106355000Y-111555000D02*
X106355000Y-112699884D01*
X107255116Y-113600000D02*
X116175000Y-113600000D01*
X105800000Y-111000000D02*
X106355000Y-111555000D01*
X106355000Y-112699884D02*
X107255116Y-113600000D01*
X116175000Y-113600000D02*
X119775000Y-110000000D01*
X105800000Y-108410000D02*
X105800000Y-111000000D01*
X105800000Y-108410000D02*
X106990000Y-108410000D01*
%TO.N,Net-(R121-Pad2)*%
X110050000Y-108940000D02*
X108200000Y-110790000D01*
X110050000Y-108386827D02*
X110050000Y-108940000D01*
X110386827Y-108050000D02*
X110050000Y-108386827D01*
X110725000Y-107800000D02*
X110475000Y-108050000D01*
X110475000Y-108050000D02*
X110386827Y-108050000D01*
X110725000Y-107100001D02*
X110725000Y-107800000D01*
X107000000Y-110790000D02*
X108200000Y-110790000D01*
%TO.N,/MP4322/PGO*%
X109099400Y-108610000D02*
X108210000Y-109499400D01*
X110225000Y-107351400D02*
X110225000Y-107100001D01*
X109099400Y-108477000D02*
X110225000Y-107351400D01*
X109099400Y-108610000D02*
X109099400Y-108477000D01*
D35*
%TO.N,+12V*%
X94350000Y-103050000D02*
X96725000Y-100675000D01*
X96725000Y-100675000D02*
X96725000Y-98925000D01*
X94350000Y-104775000D02*
X94350000Y-103050000D01*
D34*
%TO.N,12V_FILTERED*%
X108200000Y-111810000D02*
X109715000Y-111810000D01*
X109715000Y-111810000D02*
X109925000Y-111600000D01*
%TO.N,Net-(C29-Pad1)*%
X108900000Y-106700000D02*
X109500000Y-106699999D01*
X105800000Y-107390000D02*
X108200000Y-107390000D01*
X108200000Y-107390000D02*
X108210000Y-107390000D01*
X108210000Y-107390000D02*
X108900000Y-106700000D01*
%TO.N,Net-(R1-Pad2)*%
X108126000Y-103575000D02*
X109544000Y-103575000D01*
X110725000Y-104756000D02*
X110725000Y-105299999D01*
X109544000Y-103575000D02*
X110725000Y-104756000D01*
%TO.N,Net-(R120-Pad2)*%
X109600001Y-104675000D02*
X110225000Y-105299999D01*
X108126000Y-104675000D02*
X109600001Y-104675000D01*
%TD*%
%TA.AperFunction,Conductor*%
%TO.N,+3.3V*%
G36*
X123242121Y-102170002D02*
G01*
X123288614Y-102223658D01*
X123300000Y-102276000D01*
X123300000Y-110274000D01*
X123279998Y-110342121D01*
X123226342Y-110388614D01*
X123174000Y-110400000D01*
X121276000Y-110400000D01*
X121207879Y-110379998D01*
X121161386Y-110326342D01*
X121150000Y-110274000D01*
X121150000Y-107763000D01*
X121170002Y-107694879D01*
X121200400Y-107662200D01*
X121735505Y-107260871D01*
X121750000Y-107250000D01*
X121750000Y-105350000D01*
X121195337Y-104887781D01*
X121155810Y-104828805D01*
X121150000Y-104790985D01*
X121150000Y-102276000D01*
X121170002Y-102207879D01*
X121223658Y-102161386D01*
X121276000Y-102150000D01*
X123174000Y-102150000D01*
X123242121Y-102170002D01*
G37*
%TD.AperFunction*%
%TD*%
%TA.AperFunction,Conductor*%
%TO.N,/MP4322/PREFUSE*%
G36*
X120719121Y-101112002D02*
G01*
X120765614Y-101165658D01*
X120777000Y-101218000D01*
X120777000Y-105105200D01*
X120784396Y-105112274D01*
X120784396Y-105112275D01*
X121322294Y-105626786D01*
X121357695Y-105688327D01*
X121361200Y-105717839D01*
X121361200Y-106895849D01*
X121341198Y-106963970D01*
X121310094Y-106997174D01*
X120777000Y-107391200D01*
X120777000Y-111126000D01*
X120756998Y-111194121D01*
X120703342Y-111240614D01*
X120651000Y-111252000D01*
X119125000Y-111252000D01*
X119056879Y-111231998D01*
X119010386Y-111178342D01*
X118999000Y-111126000D01*
X118999000Y-108458000D01*
X118982458Y-108450481D01*
X118982457Y-108450480D01*
X117675861Y-107856573D01*
X117622123Y-107810175D01*
X117602000Y-107741867D01*
X117602000Y-104844167D01*
X117622002Y-104776046D01*
X117660354Y-104737866D01*
X118983715Y-103895727D01*
X118999000Y-103886000D01*
X118999000Y-101218000D01*
X119019002Y-101149879D01*
X119072658Y-101103386D01*
X119125000Y-101092000D01*
X120651000Y-101092000D01*
X120719121Y-101112002D01*
G37*
%TD.AperFunction*%
%TD*%
%TA.AperFunction,Conductor*%
%TO.N,+12V*%
G36*
X98992121Y-97320002D02*
G01*
X99038614Y-97373658D01*
X99050000Y-97426000D01*
X99050000Y-98749000D01*
X99029998Y-98817121D01*
X98976342Y-98863614D01*
X98924000Y-98875000D01*
X97425000Y-98875000D01*
X97418328Y-98883757D01*
X97062820Y-99350361D01*
X97005626Y-99392425D01*
X96962596Y-99400000D01*
X96421062Y-99400000D01*
X96352941Y-99379998D01*
X96306448Y-99326342D01*
X96296344Y-99256068D01*
X96302180Y-99232251D01*
X96317987Y-99187241D01*
X96317989Y-99187231D01*
X96320532Y-99179990D01*
X96323500Y-99148592D01*
X96323500Y-98701408D01*
X96320532Y-98670010D01*
X96275846Y-98542763D01*
X96270250Y-98535186D01*
X96249648Y-98507292D01*
X96225266Y-98440614D01*
X96225000Y-98432434D01*
X96225000Y-98284026D01*
X96245002Y-98215905D01*
X96249648Y-98209168D01*
X96260249Y-98194816D01*
X96260251Y-98194812D01*
X96265846Y-98187237D01*
X96310532Y-98059990D01*
X96313500Y-98028592D01*
X96313500Y-97581408D01*
X96310532Y-97550010D01*
X96281644Y-97467749D01*
X96277946Y-97396848D01*
X96313166Y-97335204D01*
X96376122Y-97302386D01*
X96400527Y-97300000D01*
X98924000Y-97300000D01*
X98992121Y-97320002D01*
G37*
%TD.AperFunction*%
%TD*%
%TA.AperFunction,Conductor*%
%TO.N,Net-(C3-Pad1)*%
G36*
X104517836Y-97320002D02*
G01*
X104536467Y-97334621D01*
X106435752Y-99137739D01*
X106471384Y-99199147D01*
X106475000Y-99229118D01*
X106475000Y-101130901D01*
X106454998Y-101199022D01*
X106401342Y-101245515D01*
X106331068Y-101255619D01*
X106272820Y-101231263D01*
X106171089Y-101154045D01*
X106171087Y-101154044D01*
X106164247Y-101148852D01*
X106021973Y-101092522D01*
X106013935Y-101091549D01*
X106013934Y-101091549D01*
X105989162Y-101088551D01*
X105930892Y-101081500D01*
X104894108Y-101081500D01*
X104835838Y-101088551D01*
X104811066Y-101091549D01*
X104811065Y-101091549D01*
X104803027Y-101092522D01*
X104660753Y-101148852D01*
X104538868Y-101241368D01*
X104446352Y-101363253D01*
X104390022Y-101505527D01*
X104384939Y-101547531D01*
X104356900Y-101612750D01*
X104298048Y-101652461D01*
X104260331Y-101658389D01*
X99955579Y-101674695D01*
X99887384Y-101654951D01*
X99840924Y-101601980D01*
X99707661Y-101316417D01*
X99700000Y-101300000D01*
X99690266Y-101297567D01*
X99690265Y-101297566D01*
X99334940Y-101208735D01*
X99289319Y-101186859D01*
X99239247Y-101148852D01*
X99231266Y-101145692D01*
X99231264Y-101145691D01*
X99161146Y-101117930D01*
X99096973Y-101092522D01*
X99088935Y-101091549D01*
X99088934Y-101091549D01*
X99064162Y-101088551D01*
X99005892Y-101081500D01*
X98841511Y-101081500D01*
X98810953Y-101077738D01*
X97695440Y-100798860D01*
X97634205Y-100762933D01*
X97602114Y-100699604D01*
X97600000Y-100676622D01*
X97600000Y-99351000D01*
X97620002Y-99282879D01*
X97673658Y-99236386D01*
X97726000Y-99225000D01*
X99425000Y-99225000D01*
X99425000Y-97426000D01*
X99445002Y-97357879D01*
X99498658Y-97311386D01*
X99551000Y-97300000D01*
X104449715Y-97300000D01*
X104517836Y-97320002D01*
G37*
%TD.AperFunction*%
%TD*%
%TA.AperFunction,Conductor*%
%TO.N,GND*%
G36*
X118627621Y-101120002D02*
G01*
X118674114Y-101173658D01*
X118685500Y-101226000D01*
X118685500Y-103644738D01*
X118665498Y-103712859D01*
X118627146Y-103751039D01*
X117494926Y-104471543D01*
X117494921Y-104471546D01*
X117492043Y-104473378D01*
X117439175Y-104515690D01*
X117436760Y-104518095D01*
X117436758Y-104518096D01*
X117402321Y-104552378D01*
X117402311Y-104552389D01*
X117400823Y-104553870D01*
X117399428Y-104555456D01*
X117378651Y-104579077D01*
X117378649Y-104579080D01*
X117373419Y-104585026D01*
X117321201Y-104687723D01*
X117301199Y-104755844D01*
X117288500Y-104844167D01*
X117288500Y-107741867D01*
X117301278Y-107830457D01*
X117321401Y-107898765D01*
X117345360Y-107957431D01*
X117417244Y-108047465D01*
X117470982Y-108093863D01*
X117546134Y-108141973D01*
X117550237Y-108143838D01*
X118611639Y-108626294D01*
X118665377Y-108672692D01*
X118685500Y-108741000D01*
X118685500Y-110424249D01*
X118665498Y-110492370D01*
X118648595Y-110513344D01*
X117948844Y-111213095D01*
X117886532Y-111247121D01*
X117859749Y-111250000D01*
X116176000Y-111250000D01*
X116107879Y-111229998D01*
X116061386Y-111176342D01*
X116050000Y-111124000D01*
X116050000Y-107965602D01*
X116070002Y-107897481D01*
X116103744Y-107862379D01*
X116282361Y-107737347D01*
X116550000Y-107550000D01*
X116550000Y-105050000D01*
X116086905Y-104586905D01*
X116052879Y-104524593D01*
X116050000Y-104497810D01*
X116050000Y-101226000D01*
X116070002Y-101157879D01*
X116123658Y-101111386D01*
X116176000Y-101100000D01*
X118559500Y-101100000D01*
X118627621Y-101120002D01*
G37*
%TD.AperFunction*%
%TD*%
%TA.AperFunction,Conductor*%
%TO.N,12V_FILTERED*%
G36*
X103841719Y-101993479D02*
G01*
X103888415Y-102046958D01*
X103900000Y-102099734D01*
X103900000Y-107674000D01*
X103879998Y-107742121D01*
X103826342Y-107788614D01*
X103774000Y-107800000D01*
X100026000Y-107800000D01*
X99957879Y-107779998D01*
X99911386Y-107726342D01*
X99900000Y-107674000D01*
X99900000Y-102113932D01*
X99920002Y-102045811D01*
X99973658Y-101999318D01*
X100025523Y-101987933D01*
X101814193Y-101981157D01*
X103773525Y-101973735D01*
X103841719Y-101993479D01*
G37*
%TD.AperFunction*%
%TD*%
%TA.AperFunction,Conductor*%
%TO.N,GND*%
G36*
X103392121Y-110320002D02*
G01*
X103438614Y-110373658D01*
X103450000Y-110426000D01*
X103450000Y-113424000D01*
X103429998Y-113492121D01*
X103376342Y-113538614D01*
X103324000Y-113550000D01*
X100026000Y-113550000D01*
X99957879Y-113529998D01*
X99911386Y-113476342D01*
X99900000Y-113424000D01*
X99900000Y-110426000D01*
X99920002Y-110357879D01*
X99973658Y-110311386D01*
X100026000Y-110300000D01*
X103324000Y-110300000D01*
X103392121Y-110320002D01*
G37*
%TD.AperFunction*%
%TD*%
%TA.AperFunction,Conductor*%
%TO.N,12V_FILTERED*%
G36*
X111451957Y-106660335D02*
G01*
X111497374Y-106679148D01*
X111520582Y-106694655D01*
X111555345Y-106729418D01*
X111570852Y-106752626D01*
X111589666Y-106798047D01*
X111597579Y-106837829D01*
X111600000Y-106862410D01*
X111600000Y-112887590D01*
X111597579Y-112912171D01*
X111582054Y-112990223D01*
X111563241Y-113035642D01*
X111526056Y-113091294D01*
X111491295Y-113126055D01*
X111435642Y-113163241D01*
X111390225Y-113182053D01*
X111321876Y-113195649D01*
X111312171Y-113197579D01*
X111287590Y-113200000D01*
X109362410Y-113200000D01*
X109337829Y-113197579D01*
X109328124Y-113195649D01*
X109259775Y-113182053D01*
X109214358Y-113163241D01*
X109158705Y-113126055D01*
X109123944Y-113091294D01*
X109086759Y-113035642D01*
X109067946Y-112990223D01*
X109052421Y-112912171D01*
X109050000Y-112887590D01*
X109050000Y-110946988D01*
X109051280Y-110929076D01*
X109059553Y-110871472D01*
X109069635Y-110837095D01*
X109093790Y-110784138D01*
X109102388Y-110768372D01*
X109828058Y-109637677D01*
X109845003Y-109616637D01*
X110271625Y-109190015D01*
X110279729Y-109182588D01*
X110300972Y-109164763D01*
X110309417Y-109157677D01*
X110328793Y-109124116D01*
X110334688Y-109114863D01*
X110356916Y-109083118D01*
X110359769Y-109072470D01*
X110361396Y-109068981D01*
X110362710Y-109065369D01*
X110368222Y-109055823D01*
X110374949Y-109017672D01*
X110377328Y-109006941D01*
X110384503Y-108980165D01*
X110384503Y-108980161D01*
X110387356Y-108969515D01*
X110383979Y-108930914D01*
X110383500Y-108919933D01*
X110383500Y-108809175D01*
X110403460Y-108741120D01*
X110659460Y-108342236D01*
X110683862Y-108314506D01*
X110692677Y-108309417D01*
X110717590Y-108279727D01*
X110725016Y-108271624D01*
X110946625Y-108050015D01*
X110954729Y-108042588D01*
X110975972Y-108024763D01*
X110984417Y-108017677D01*
X111003793Y-107984116D01*
X111009688Y-107974863D01*
X111031916Y-107943118D01*
X111034769Y-107932470D01*
X111036396Y-107928981D01*
X111037710Y-107925369D01*
X111043222Y-107915823D01*
X111049949Y-107877672D01*
X111052328Y-107866941D01*
X111059503Y-107840165D01*
X111059503Y-107840161D01*
X111062356Y-107829515D01*
X111058979Y-107790914D01*
X111058500Y-107779933D01*
X111058500Y-107757431D01*
X111078459Y-107689377D01*
X111152476Y-107574049D01*
X111200000Y-107500000D01*
X111200000Y-106862410D01*
X111202421Y-106837829D01*
X111210334Y-106798047D01*
X111229148Y-106752626D01*
X111244655Y-106729418D01*
X111279418Y-106694655D01*
X111302626Y-106679148D01*
X111348043Y-106660335D01*
X111375421Y-106654889D01*
X111424579Y-106654889D01*
X111451957Y-106660335D01*
G37*
%TD.AperFunction*%
%TD*%
%TA.AperFunction,Conductor*%
%TO.N,GND*%
G36*
X114148596Y-99220002D02*
G01*
X114169570Y-99236905D01*
X114513095Y-99580430D01*
X114547121Y-99642742D01*
X114550000Y-99669525D01*
X114550000Y-101526611D01*
X114549922Y-101531050D01*
X114549412Y-101545516D01*
X114548788Y-101554356D01*
X114547263Y-101568746D01*
X114546719Y-101573143D01*
X114511013Y-101824943D01*
X114499462Y-101862581D01*
X114491406Y-101879061D01*
X114481500Y-101946966D01*
X114481500Y-102024180D01*
X114480252Y-102041870D01*
X114200263Y-104016365D01*
X114195892Y-104035882D01*
X114176783Y-104097708D01*
X114159130Y-104133459D01*
X114121658Y-104186221D01*
X114108820Y-104201557D01*
X113306739Y-105018139D01*
X113305446Y-105019436D01*
X113301207Y-105023628D01*
X113298578Y-105026154D01*
X113294204Y-105030236D01*
X113292847Y-105031483D01*
X112731478Y-105540223D01*
X112596958Y-105662132D01*
X112594360Y-105664486D01*
X112575843Y-105678395D01*
X112512220Y-105717595D01*
X112469187Y-105734194D01*
X112395716Y-105747872D01*
X112372655Y-105750000D01*
X112163210Y-105750000D01*
X112138629Y-105747579D01*
X112128924Y-105745649D01*
X112060575Y-105732053D01*
X112015158Y-105713241D01*
X111959505Y-105676055D01*
X111924744Y-105641294D01*
X111887559Y-105585642D01*
X111868746Y-105540223D01*
X111853221Y-105462171D01*
X111850800Y-105437590D01*
X111850800Y-99512410D01*
X111853221Y-99487829D01*
X111868746Y-99409777D01*
X111887559Y-99364358D01*
X111924745Y-99308705D01*
X111959505Y-99273945D01*
X112015158Y-99236759D01*
X112060575Y-99217947D01*
X112138628Y-99202421D01*
X112163210Y-99200000D01*
X114080475Y-99200000D01*
X114148596Y-99220002D01*
G37*
%TD.AperFunction*%
%TD*%
%TA.AperFunction,Conductor*%
%TO.N,GND*%
G36*
X112390229Y-106652333D02*
G01*
X112423501Y-106658826D01*
X112466936Y-106667302D01*
X112511662Y-106685450D01*
X112577113Y-106728162D01*
X112596048Y-106743304D01*
X113115040Y-107247467D01*
X113129224Y-107263843D01*
X113170335Y-107320497D01*
X113189329Y-107359263D01*
X113208905Y-107426473D01*
X113213152Y-107447710D01*
X113300000Y-108225000D01*
X113321686Y-108270540D01*
X114345752Y-110421080D01*
X114517846Y-110782477D01*
X114523148Y-110795417D01*
X114538025Y-110838384D01*
X114544182Y-110865635D01*
X114549223Y-110910815D01*
X114550000Y-110924787D01*
X114550000Y-112887590D01*
X114547579Y-112912171D01*
X114532054Y-112990223D01*
X114513241Y-113035642D01*
X114476056Y-113091294D01*
X114441295Y-113126055D01*
X114385642Y-113163241D01*
X114340225Y-113182053D01*
X114271876Y-113195649D01*
X114262171Y-113197579D01*
X114237590Y-113200000D01*
X112163210Y-113200000D01*
X112138629Y-113197579D01*
X112128924Y-113195649D01*
X112060575Y-113182053D01*
X112015158Y-113163241D01*
X111959505Y-113126055D01*
X111924744Y-113091294D01*
X111887559Y-113035642D01*
X111868746Y-112990223D01*
X111853221Y-112912171D01*
X111850800Y-112887590D01*
X111850800Y-106962410D01*
X111853221Y-106937829D01*
X111868746Y-106859777D01*
X111887559Y-106814358D01*
X111924745Y-106758705D01*
X111959505Y-106723945D01*
X112015158Y-106686759D01*
X112060575Y-106667947D01*
X112138628Y-106652421D01*
X112163210Y-106650000D01*
X112366096Y-106650000D01*
X112390229Y-106652333D01*
G37*
%TD.AperFunction*%
%TD*%
%TA.AperFunction,Conductor*%
%TO.N,/MP4322/PRECOIL*%
G36*
X115032244Y-102851935D02*
G01*
X115102473Y-102864387D01*
X115143785Y-102879512D01*
X115195720Y-102909693D01*
X115229314Y-102938099D01*
X115267705Y-102984293D01*
X115289486Y-103022517D01*
X115313437Y-103089702D01*
X115319001Y-103111071D01*
X115593142Y-104737645D01*
X115594882Y-104747971D01*
X115594884Y-104747977D01*
X115602860Y-104795304D01*
X115750000Y-105075000D01*
X115962506Y-105075000D01*
X115987255Y-105077455D01*
X116035981Y-105087216D01*
X116081658Y-105106281D01*
X116112303Y-105126938D01*
X116147110Y-105162126D01*
X116167432Y-105192991D01*
X116186001Y-105238873D01*
X116195233Y-105287707D01*
X116197418Y-105312479D01*
X116178359Y-107065939D01*
X116175706Y-107090324D01*
X116159549Y-107167701D01*
X116140498Y-107212655D01*
X116103183Y-107267688D01*
X116068473Y-107302022D01*
X116013041Y-107338735D01*
X115967882Y-107357296D01*
X115902807Y-107370149D01*
X115890334Y-107372612D01*
X115865921Y-107375000D01*
X113719151Y-107375000D01*
X113695714Y-107372801D01*
X113694716Y-107372612D01*
X113621110Y-107358677D01*
X113577482Y-107341545D01*
X113514621Y-107302022D01*
X113513202Y-107301130D01*
X113494534Y-107286796D01*
X113414696Y-107212660D01*
X112625851Y-106480162D01*
X112539523Y-106400000D01*
X110901933Y-106400000D01*
X110877352Y-106397579D01*
X110837570Y-106389666D01*
X110792149Y-106370852D01*
X110768941Y-106355345D01*
X110734178Y-106320582D01*
X110718671Y-106297374D01*
X110699857Y-106251955D01*
X110694412Y-106224579D01*
X110694412Y-106175421D01*
X110699858Y-106148043D01*
X110718671Y-106102626D01*
X110734178Y-106079418D01*
X110768941Y-106044655D01*
X110792149Y-106029148D01*
X110837570Y-106010334D01*
X110877352Y-106002421D01*
X110901933Y-106000000D01*
X112539523Y-106000000D01*
X113495951Y-105157432D01*
X113514282Y-105144012D01*
X113542662Y-105126937D01*
X113577123Y-105106203D01*
X113619453Y-105090217D01*
X113691600Y-105077048D01*
X113714225Y-105075000D01*
X114525000Y-105075000D01*
X114675000Y-104825000D01*
X114675000Y-103162410D01*
X114677421Y-103137829D01*
X114682743Y-103111071D01*
X114692947Y-103059775D01*
X114711759Y-103014358D01*
X114748945Y-102958705D01*
X114783705Y-102923945D01*
X114839358Y-102886759D01*
X114884775Y-102867947D01*
X114962828Y-102852421D01*
X114987410Y-102850000D01*
X115010247Y-102850000D01*
X115032244Y-102851935D01*
G37*
%TD.AperFunction*%
%TD*%
%TA.AperFunction,Conductor*%
%TO.N,12V_FILTERED*%
G36*
X111312172Y-99202421D02*
G01*
X111390225Y-99217947D01*
X111435642Y-99236759D01*
X111491295Y-99273945D01*
X111526055Y-99308705D01*
X111563241Y-99364358D01*
X111582054Y-99409777D01*
X111597579Y-99487829D01*
X111600000Y-99512410D01*
X111600000Y-105537590D01*
X111597579Y-105562171D01*
X111589666Y-105601953D01*
X111570852Y-105647374D01*
X111555345Y-105670582D01*
X111520582Y-105705345D01*
X111497374Y-105720852D01*
X111451957Y-105739665D01*
X111424579Y-105745111D01*
X111375421Y-105745111D01*
X111348043Y-105739665D01*
X111302626Y-105720852D01*
X111279418Y-105705345D01*
X111244655Y-105670582D01*
X111229148Y-105647374D01*
X111210334Y-105601953D01*
X111202421Y-105562171D01*
X111200000Y-105537590D01*
X111200000Y-104900000D01*
X111150043Y-104822160D01*
X111059151Y-104680536D01*
X111046790Y-104655577D01*
X111045136Y-104651033D01*
X111043222Y-104640177D01*
X111037710Y-104630629D01*
X111036392Y-104627009D01*
X111034768Y-104623528D01*
X111031916Y-104612882D01*
X111009688Y-104581137D01*
X111003791Y-104571880D01*
X110984417Y-104538323D01*
X110975970Y-104531235D01*
X110963268Y-104520576D01*
X110938221Y-104492111D01*
X109102388Y-101631628D01*
X109093790Y-101615862D01*
X109069635Y-101562905D01*
X109059553Y-101528528D01*
X109051280Y-101470924D01*
X109050000Y-101453012D01*
X109050000Y-99512410D01*
X109052421Y-99487829D01*
X109067946Y-99409777D01*
X109086759Y-99364358D01*
X109123945Y-99308705D01*
X109158705Y-99273945D01*
X109214358Y-99236759D01*
X109259775Y-99217947D01*
X109337828Y-99202421D01*
X109362410Y-99200000D01*
X111287590Y-99200000D01*
X111312172Y-99202421D01*
G37*
%TD.AperFunction*%
%TD*%
M02*
