%TF.GenerationSoftware,KiCad,Pcbnew,(6.0.8)*%
%TF.CreationDate,2024-10-13T14:56:53+02:00*%
%TF.ProjectId,MP4322_TestBoard,4d503433-3232-45f5-9465-7374426f6172,rev?*%
%TF.SameCoordinates,Original*%
%TF.FileFunction,Copper,L2,Inr*%
%TF.FilePolarity,Positive*%
%FSLAX46Y46*%
G04 Gerber Fmt 4.6, Leading zero omitted, Abs format (unit mm)*
G04 Created by KiCad (PCBNEW (6.0.8)) date 2024-10-13 14:56:53*
%MOMM*%
%LPD*%
G01*
G04 APERTURE LIST*
G04 Aperture macros list*
%AMRoundRect*
0 Rectangle with rounded corners*
0 $1 Rounding radius*
0 $2 $3 $4 $5 $6 $7 $8 $9 X,Y pos of 4 corners*
0 Add a 4 corners polygon primitive as box body*
4,1,4,$2,$3,$4,$5,$6,$7,$8,$9,$2,$3,0*
0 Add four circle primitives for the rounded corners*
1,1,$1+$1,$2,$3*
1,1,$1+$1,$4,$5*
1,1,$1+$1,$6,$7*
1,1,$1+$1,$8,$9*
0 Add four rect primitives between the rounded corners*
20,1,$1+$1,$2,$3,$4,$5,0*
20,1,$1+$1,$4,$5,$6,$7,0*
20,1,$1+$1,$6,$7,$8,$9,0*
20,1,$1+$1,$8,$9,$2,$3,0*%
G04 Aperture macros list end*
%TA.AperFunction,ComponentPad*%
%ADD10C,2.600000*%
%TD*%
%TA.AperFunction,ComponentPad*%
%ADD11O,2.000000X1.700000*%
%TD*%
%TA.AperFunction,ComponentPad*%
%ADD12RoundRect,0.250000X0.750000X-0.600000X0.750000X0.600000X-0.750000X0.600000X-0.750000X-0.600000X0*%
%TD*%
%TA.AperFunction,ViaPad*%
%ADD13C,0.600000*%
%TD*%
%TA.AperFunction,ViaPad*%
%ADD14C,0.800000*%
%TD*%
G04 APERTURE END LIST*
D10*
%TO.N,GND*%
%TO.C,H3*%
X94400000Y-114150000D03*
%TD*%
%TO.N,GND*%
%TO.C,H2*%
X126150000Y-114150000D03*
%TD*%
%TO.N,GND*%
%TO.C,H1*%
X126150000Y-98550000D03*
%TD*%
D11*
%TO.N,+3.3V*%
%TO.C,J2*%
X125500000Y-105050000D03*
D12*
%TO.N,GND*%
X125500000Y-107550000D03*
%TD*%
D11*
%TO.N,+12V*%
%TO.C,J1*%
X94350000Y-105175000D03*
D12*
%TO.N,GND*%
X94350000Y-107675000D03*
%TD*%
D13*
%TO.N,GND*%
X112915000Y-107807000D03*
D14*
X105420000Y-102990000D03*
D13*
X116967000Y-105740200D03*
D14*
X102975000Y-112775000D03*
D13*
X106426000Y-104648000D03*
D14*
X114058000Y-112760000D03*
X112280000Y-112760000D03*
D13*
X116967000Y-104013000D03*
X116967000Y-108331000D03*
D14*
X112280000Y-99679000D03*
X112280000Y-102219000D03*
X103025000Y-110775000D03*
X100375000Y-111725000D03*
D13*
X108579556Y-108128936D03*
D14*
X100375000Y-110775000D03*
X112280000Y-110220000D03*
D13*
X95700000Y-99575000D03*
D14*
X113804000Y-102219000D03*
X100325000Y-112775000D03*
X114058000Y-111490000D03*
X113804000Y-103616000D03*
X113804000Y-110220000D03*
X117750000Y-110900000D03*
X98500000Y-102990000D03*
D13*
X112915000Y-104632000D03*
X116967000Y-107467400D03*
X116967000Y-104876600D03*
D14*
X114058000Y-99679000D03*
D13*
X107061000Y-112522000D03*
X95700000Y-97150000D03*
X116967000Y-106603800D03*
D14*
X114058000Y-100949000D03*
X117700000Y-101250000D03*
X103025000Y-111725000D03*
D13*
%TO.N,Net-(C27-Pad1)*%
X108835546Y-105575500D03*
X106426000Y-109093000D03*
%TO.N,/MP4322/PREFUSE*%
X120370600Y-108458000D03*
X119405400Y-108458000D03*
X119430800Y-107683300D03*
X118491000Y-104724200D03*
X120370600Y-107645200D03*
X118491000Y-107721400D03*
X120370600Y-103987600D03*
X119430800Y-104762300D03*
X120370600Y-104800400D03*
X119405400Y-103987600D03*
D14*
%TO.N,+3.3V*%
X122800000Y-104600000D03*
X121750000Y-108900000D03*
X121750000Y-103650000D03*
X121750000Y-109850000D03*
X122800000Y-108900000D03*
X122800000Y-102700000D03*
X121750000Y-107950000D03*
X122800000Y-103650000D03*
X121750000Y-102700000D03*
X121750000Y-104600000D03*
X122800000Y-107950000D03*
X122800000Y-109850000D03*
%TO.N,12V_FILTERED*%
X109950000Y-112850000D03*
X111150000Y-99500000D03*
X111150000Y-102000000D03*
X102950000Y-107100000D03*
X109950000Y-110250000D03*
X111150000Y-100750000D03*
X109900000Y-102100000D03*
X100350000Y-105100000D03*
X103000000Y-105100000D03*
X111200000Y-110250000D03*
X100350000Y-106050000D03*
X111200000Y-112750000D03*
X109900000Y-99500000D03*
X100300000Y-107100000D03*
X111200000Y-111500000D03*
X103000000Y-106050000D03*
%TD*%
%TA.AperFunction,Conductor*%
%TO.N,GND*%
G36*
X128133621Y-96553502D02*
G01*
X128180114Y-96607158D01*
X128191500Y-96659500D01*
X128191500Y-116065500D01*
X128171498Y-116133621D01*
X128117842Y-116180114D01*
X128065500Y-116191500D01*
X92459500Y-116191500D01*
X92391379Y-116171498D01*
X92344886Y-116117842D01*
X92333500Y-116065500D01*
X92333500Y-112842526D01*
X109236335Y-112842526D01*
X109255153Y-113012975D01*
X109314085Y-113174015D01*
X109318322Y-113180321D01*
X109318324Y-113180324D01*
X109353781Y-113233089D01*
X109409730Y-113316349D01*
X109444372Y-113347871D01*
X109518708Y-113415511D01*
X109536565Y-113431760D01*
X109687268Y-113513585D01*
X109853139Y-113557101D01*
X109940586Y-113558474D01*
X110017003Y-113559675D01*
X110017006Y-113559675D01*
X110024602Y-113559794D01*
X110032006Y-113558098D01*
X110032008Y-113558098D01*
X110094846Y-113543706D01*
X110191759Y-113521510D01*
X110344958Y-113444459D01*
X110350729Y-113439530D01*
X110350732Y-113439528D01*
X110469578Y-113338023D01*
X110475355Y-113333089D01*
X110491916Y-113310043D01*
X110516446Y-113275906D01*
X110572441Y-113232259D01*
X110643145Y-113225814D01*
X110703567Y-113256239D01*
X110780944Y-113326646D01*
X110780948Y-113326649D01*
X110786565Y-113331760D01*
X110937268Y-113413585D01*
X111103139Y-113457101D01*
X111190586Y-113458474D01*
X111267003Y-113459675D01*
X111267006Y-113459675D01*
X111274602Y-113459794D01*
X111282006Y-113458098D01*
X111282008Y-113458098D01*
X111363088Y-113439528D01*
X111441759Y-113421510D01*
X111594958Y-113344459D01*
X111600729Y-113339530D01*
X111600732Y-113339528D01*
X111719578Y-113238023D01*
X111725355Y-113233089D01*
X111825424Y-113093830D01*
X111889385Y-112934720D01*
X111890455Y-112927202D01*
X111912966Y-112769031D01*
X111912966Y-112769027D01*
X111913547Y-112764947D01*
X111913704Y-112750000D01*
X111893102Y-112579758D01*
X111832487Y-112419344D01*
X111796407Y-112366847D01*
X111739659Y-112284278D01*
X111739658Y-112284276D01*
X111735357Y-112278019D01*
X111729095Y-112272439D01*
X111669294Y-112219159D01*
X111631738Y-112158909D01*
X111632718Y-112087919D01*
X111671282Y-112029272D01*
X111719578Y-111988023D01*
X111725355Y-111983089D01*
X111825424Y-111843830D01*
X111889385Y-111684720D01*
X111913547Y-111514947D01*
X111913704Y-111500000D01*
X111893102Y-111329758D01*
X111832487Y-111169344D01*
X111735357Y-111028019D01*
X111729095Y-111022439D01*
X111669294Y-110969159D01*
X111631738Y-110908909D01*
X111632718Y-110837919D01*
X111671282Y-110779272D01*
X111719578Y-110738023D01*
X111719579Y-110738022D01*
X111725355Y-110733089D01*
X111825424Y-110593830D01*
X111889385Y-110434720D01*
X111905504Y-110321459D01*
X111912966Y-110269031D01*
X111912966Y-110269027D01*
X111913547Y-110264947D01*
X111913704Y-110250000D01*
X111893102Y-110079758D01*
X111878746Y-110041764D01*
X111835171Y-109926447D01*
X111832487Y-109919344D01*
X111787669Y-109854133D01*
X111739659Y-109784278D01*
X111739658Y-109784276D01*
X111735357Y-109778019D01*
X111729686Y-109772966D01*
X111612993Y-109668996D01*
X111612990Y-109668994D01*
X111607321Y-109663943D01*
X111599325Y-109659709D01*
X111462481Y-109587254D01*
X111462482Y-109587254D01*
X111455769Y-109583700D01*
X111438196Y-109579286D01*
X111296822Y-109543775D01*
X111296818Y-109543775D01*
X111289451Y-109541924D01*
X111281852Y-109541884D01*
X111281850Y-109541884D01*
X111210394Y-109541510D01*
X111117969Y-109541026D01*
X111110589Y-109542798D01*
X111110587Y-109542798D01*
X110958602Y-109579286D01*
X110958598Y-109579287D01*
X110951223Y-109581058D01*
X110798839Y-109659709D01*
X110669615Y-109772439D01*
X110667333Y-109775686D01*
X110608203Y-109812114D01*
X110537219Y-109810762D01*
X110485905Y-109777403D01*
X110485357Y-109778019D01*
X110481321Y-109774423D01*
X110404158Y-109705673D01*
X110362993Y-109668996D01*
X110362990Y-109668994D01*
X110357321Y-109663943D01*
X110349325Y-109659709D01*
X110212481Y-109587254D01*
X110212482Y-109587254D01*
X110205769Y-109583700D01*
X110188196Y-109579286D01*
X110046822Y-109543775D01*
X110046818Y-109543775D01*
X110039451Y-109541924D01*
X110031852Y-109541884D01*
X110031850Y-109541884D01*
X109960394Y-109541510D01*
X109867969Y-109541026D01*
X109860589Y-109542798D01*
X109860587Y-109542798D01*
X109708602Y-109579286D01*
X109708598Y-109579287D01*
X109701223Y-109581058D01*
X109548839Y-109659709D01*
X109419615Y-109772439D01*
X109321010Y-109912739D01*
X109289864Y-109992624D01*
X109276383Y-110027202D01*
X109258718Y-110072509D01*
X109257726Y-110080042D01*
X109257726Y-110080043D01*
X109241934Y-110199998D01*
X109236335Y-110242526D01*
X109255153Y-110412975D01*
X109257762Y-110420106D01*
X109257763Y-110420108D01*
X109263353Y-110435384D01*
X109314085Y-110574015D01*
X109318322Y-110580321D01*
X109318324Y-110580324D01*
X109327400Y-110593830D01*
X109409730Y-110716349D01*
X109536565Y-110831760D01*
X109687268Y-110913585D01*
X109853139Y-110957101D01*
X109940586Y-110958474D01*
X110017003Y-110959675D01*
X110017006Y-110959675D01*
X110024602Y-110959794D01*
X110032006Y-110958098D01*
X110032008Y-110958098D01*
X110094846Y-110943706D01*
X110191759Y-110921510D01*
X110344958Y-110844459D01*
X110350729Y-110839530D01*
X110350732Y-110839528D01*
X110469579Y-110738022D01*
X110475355Y-110733089D01*
X110479789Y-110726919D01*
X110482212Y-110724284D01*
X110543045Y-110687680D01*
X110614010Y-110689775D01*
X110659759Y-110716377D01*
X110731709Y-110781846D01*
X110768632Y-110842486D01*
X110766909Y-110913462D01*
X110729739Y-110969989D01*
X110675341Y-111017443D01*
X110675337Y-111017447D01*
X110669615Y-111022439D01*
X110571010Y-111162739D01*
X110508718Y-111322509D01*
X110486335Y-111492526D01*
X110505153Y-111662975D01*
X110507762Y-111670106D01*
X110507763Y-111670108D01*
X110515688Y-111691764D01*
X110564085Y-111824015D01*
X110659730Y-111966349D01*
X110665345Y-111971458D01*
X110665350Y-111971464D01*
X110731710Y-112031847D01*
X110768632Y-112092487D01*
X110766909Y-112163463D01*
X110729739Y-112219989D01*
X110675341Y-112267443D01*
X110675337Y-112267447D01*
X110669615Y-112272439D01*
X110665247Y-112278653D01*
X110665246Y-112278655D01*
X110634349Y-112322616D01*
X110578814Y-112366847D01*
X110508182Y-112374032D01*
X110447444Y-112344240D01*
X110362993Y-112268996D01*
X110362990Y-112268994D01*
X110357321Y-112263943D01*
X110349325Y-112259709D01*
X110212481Y-112187254D01*
X110212482Y-112187254D01*
X110205769Y-112183700D01*
X110188196Y-112179286D01*
X110046822Y-112143775D01*
X110046818Y-112143775D01*
X110039451Y-112141924D01*
X110031852Y-112141884D01*
X110031850Y-112141884D01*
X109960394Y-112141510D01*
X109867969Y-112141026D01*
X109860589Y-112142798D01*
X109860587Y-112142798D01*
X109708602Y-112179286D01*
X109708598Y-112179287D01*
X109701223Y-112181058D01*
X109548839Y-112259709D01*
X109419615Y-112372439D01*
X109321010Y-112512739D01*
X109258718Y-112672509D01*
X109257726Y-112680042D01*
X109257726Y-112680043D01*
X109246011Y-112769031D01*
X109236335Y-112842526D01*
X92333500Y-112842526D01*
X92333500Y-109093000D01*
X105812249Y-109093000D01*
X105833162Y-109251850D01*
X105894476Y-109399875D01*
X105931022Y-109447502D01*
X105986984Y-109520434D01*
X105986987Y-109520437D01*
X105992013Y-109526987D01*
X106119124Y-109624524D01*
X106126750Y-109627683D01*
X106126752Y-109627684D01*
X106259520Y-109682678D01*
X106259523Y-109682679D01*
X106267150Y-109685838D01*
X106426000Y-109706751D01*
X106434188Y-109705673D01*
X106576662Y-109686916D01*
X106584850Y-109685838D01*
X106592477Y-109682679D01*
X106592480Y-109682678D01*
X106725248Y-109627684D01*
X106725250Y-109627683D01*
X106732876Y-109624524D01*
X106859987Y-109526987D01*
X106865013Y-109520437D01*
X106865016Y-109520434D01*
X106920978Y-109447502D01*
X106957524Y-109399875D01*
X107018838Y-109251850D01*
X107039751Y-109093000D01*
X107018838Y-108934150D01*
X106957524Y-108786125D01*
X106908709Y-108722509D01*
X106865016Y-108665566D01*
X106865013Y-108665563D01*
X106859987Y-108659013D01*
X106732876Y-108561476D01*
X106725250Y-108558317D01*
X106725248Y-108558316D01*
X106592480Y-108503322D01*
X106592477Y-108503321D01*
X106584850Y-108500162D01*
X106426000Y-108479249D01*
X106267150Y-108500162D01*
X106119125Y-108561476D01*
X105992013Y-108659013D01*
X105894476Y-108786125D01*
X105833162Y-108934150D01*
X105812249Y-109093000D01*
X92333500Y-109093000D01*
X92333500Y-107092526D01*
X99586335Y-107092526D01*
X99593431Y-107156802D01*
X99603645Y-107249313D01*
X99605153Y-107262975D01*
X99607762Y-107270106D01*
X99607763Y-107270108D01*
X99614038Y-107287254D01*
X99664085Y-107424015D01*
X99759730Y-107566349D01*
X99886565Y-107681760D01*
X100037268Y-107763585D01*
X100203139Y-107807101D01*
X100290586Y-107808474D01*
X100367003Y-107809675D01*
X100367006Y-107809675D01*
X100374602Y-107809794D01*
X100382006Y-107808098D01*
X100382008Y-107808098D01*
X100472820Y-107787299D01*
X100541759Y-107771510D01*
X100694958Y-107694459D01*
X100700729Y-107689530D01*
X100700732Y-107689528D01*
X100819578Y-107588023D01*
X100825355Y-107583089D01*
X100925424Y-107443830D01*
X100989385Y-107284720D01*
X100998914Y-107217766D01*
X101012966Y-107119031D01*
X101012966Y-107119027D01*
X101013547Y-107114947D01*
X101013704Y-107100000D01*
X101012800Y-107092526D01*
X102236335Y-107092526D01*
X102243431Y-107156802D01*
X102253645Y-107249313D01*
X102255153Y-107262975D01*
X102257762Y-107270106D01*
X102257763Y-107270108D01*
X102264038Y-107287254D01*
X102314085Y-107424015D01*
X102409730Y-107566349D01*
X102536565Y-107681760D01*
X102687268Y-107763585D01*
X102853139Y-107807101D01*
X102940586Y-107808474D01*
X103017003Y-107809675D01*
X103017006Y-107809675D01*
X103024602Y-107809794D01*
X103032006Y-107808098D01*
X103032008Y-107808098D01*
X103122820Y-107787299D01*
X103191759Y-107771510D01*
X103291392Y-107721400D01*
X117877249Y-107721400D01*
X117898162Y-107880250D01*
X117959476Y-108028275D01*
X117977374Y-108051600D01*
X118051984Y-108148834D01*
X118051987Y-108148837D01*
X118057013Y-108155387D01*
X118063563Y-108160413D01*
X118063564Y-108160414D01*
X118177574Y-108247898D01*
X118184124Y-108252924D01*
X118191750Y-108256083D01*
X118191752Y-108256084D01*
X118324520Y-108311078D01*
X118324523Y-108311079D01*
X118332150Y-108314238D01*
X118491000Y-108335151D01*
X118499188Y-108334073D01*
X118649850Y-108314238D01*
X118650295Y-108317620D01*
X118705452Y-108318942D01*
X118764242Y-108358745D01*
X118792180Y-108424013D01*
X118792076Y-108441554D01*
X118792727Y-108441554D01*
X118792727Y-108449812D01*
X118791649Y-108458000D01*
X118812562Y-108616850D01*
X118873876Y-108764875D01*
X118890182Y-108786125D01*
X118966384Y-108885434D01*
X118966387Y-108885437D01*
X118971413Y-108891987D01*
X118977963Y-108897013D01*
X118977964Y-108897014D01*
X119006657Y-108919031D01*
X119098524Y-108989524D01*
X119106150Y-108992683D01*
X119106152Y-108992684D01*
X119238920Y-109047678D01*
X119238923Y-109047679D01*
X119246550Y-109050838D01*
X119405400Y-109071751D01*
X119413588Y-109070673D01*
X119556062Y-109051916D01*
X119564250Y-109050838D01*
X119571877Y-109047679D01*
X119571880Y-109047678D01*
X119704648Y-108992684D01*
X119704650Y-108992683D01*
X119712276Y-108989524D01*
X119811295Y-108913543D01*
X119877516Y-108887942D01*
X119947064Y-108902206D01*
X119964705Y-108913543D01*
X120063724Y-108989524D01*
X120071350Y-108992683D01*
X120071352Y-108992684D01*
X120204120Y-109047678D01*
X120204123Y-109047679D01*
X120211750Y-109050838D01*
X120370600Y-109071751D01*
X120378788Y-109070673D01*
X120521262Y-109051916D01*
X120529450Y-109050838D01*
X120537077Y-109047679D01*
X120537080Y-109047678D01*
X120669848Y-108992684D01*
X120669850Y-108992683D01*
X120677476Y-108989524D01*
X120769343Y-108919031D01*
X120798036Y-108897014D01*
X120798037Y-108897013D01*
X120804587Y-108891987D01*
X120816329Y-108876685D01*
X120873664Y-108834820D01*
X120944535Y-108830598D01*
X121006438Y-108865362D01*
X121039719Y-108928074D01*
X121041528Y-108939564D01*
X121047393Y-108992684D01*
X121055153Y-109062975D01*
X121057762Y-109070106D01*
X121057763Y-109070108D01*
X121069137Y-109101188D01*
X121114085Y-109224015D01*
X121118322Y-109230321D01*
X121118324Y-109230324D01*
X121168354Y-109304775D01*
X121189747Y-109372472D01*
X121171143Y-109440988D01*
X121166859Y-109447502D01*
X121125382Y-109506517D01*
X121125379Y-109506523D01*
X121121010Y-109512739D01*
X121108910Y-109543775D01*
X121062058Y-109663943D01*
X121058718Y-109672509D01*
X121057726Y-109680042D01*
X121057726Y-109680043D01*
X121040339Y-109812114D01*
X121036335Y-109842526D01*
X121055153Y-110012975D01*
X121057762Y-110020106D01*
X121057763Y-110020108D01*
X121065688Y-110041764D01*
X121114085Y-110174015D01*
X121209730Y-110316349D01*
X121273148Y-110374055D01*
X121323760Y-110420108D01*
X121336565Y-110431760D01*
X121487268Y-110513585D01*
X121653139Y-110557101D01*
X121740586Y-110558474D01*
X121817003Y-110559675D01*
X121817006Y-110559675D01*
X121824602Y-110559794D01*
X121832006Y-110558098D01*
X121832008Y-110558098D01*
X121894846Y-110543706D01*
X121991759Y-110521510D01*
X122144958Y-110444459D01*
X122192315Y-110404012D01*
X122257105Y-110374981D01*
X122327305Y-110385586D01*
X122358945Y-110406629D01*
X122380944Y-110426646D01*
X122380948Y-110426649D01*
X122386565Y-110431760D01*
X122537268Y-110513585D01*
X122703139Y-110557101D01*
X122790586Y-110558474D01*
X122867003Y-110559675D01*
X122867006Y-110559675D01*
X122874602Y-110559794D01*
X122882006Y-110558098D01*
X122882008Y-110558098D01*
X122944846Y-110543706D01*
X123041759Y-110521510D01*
X123194958Y-110444459D01*
X123200729Y-110439530D01*
X123200732Y-110439528D01*
X123319578Y-110338023D01*
X123325355Y-110333089D01*
X123425424Y-110193830D01*
X123489385Y-110034720D01*
X123493554Y-110005425D01*
X123512966Y-109869031D01*
X123512966Y-109869027D01*
X123513547Y-109864947D01*
X123513704Y-109850000D01*
X123504382Y-109772966D01*
X123494015Y-109687299D01*
X123494014Y-109687296D01*
X123493102Y-109679758D01*
X123489036Y-109668996D01*
X123435171Y-109526447D01*
X123432487Y-109519344D01*
X123382406Y-109446475D01*
X123360306Y-109379007D01*
X123378191Y-109310300D01*
X123383924Y-109301582D01*
X123425424Y-109243830D01*
X123489385Y-109084720D01*
X123513547Y-108914947D01*
X123513704Y-108900000D01*
X123500847Y-108793755D01*
X123494015Y-108737299D01*
X123494014Y-108737296D01*
X123493102Y-108729758D01*
X123464471Y-108653986D01*
X123435171Y-108576447D01*
X123432487Y-108569344D01*
X123382406Y-108496475D01*
X123360306Y-108429007D01*
X123378191Y-108360300D01*
X123383924Y-108351582D01*
X123396506Y-108334073D01*
X123425424Y-108293830D01*
X123489385Y-108134720D01*
X123513547Y-107964947D01*
X123513704Y-107950000D01*
X123496737Y-107809794D01*
X123494015Y-107787299D01*
X123494014Y-107787296D01*
X123493102Y-107779758D01*
X123489986Y-107771510D01*
X123435171Y-107626447D01*
X123432487Y-107619344D01*
X123335357Y-107478019D01*
X123329686Y-107472966D01*
X123212993Y-107368996D01*
X123212989Y-107368993D01*
X123207321Y-107363943D01*
X123199325Y-107359709D01*
X123070999Y-107291764D01*
X123055769Y-107283700D01*
X123038196Y-107279286D01*
X122896822Y-107243775D01*
X122896818Y-107243775D01*
X122889451Y-107241924D01*
X122881852Y-107241884D01*
X122881850Y-107241884D01*
X122810394Y-107241510D01*
X122717969Y-107241026D01*
X122710589Y-107242798D01*
X122710587Y-107242798D01*
X122558602Y-107279286D01*
X122558598Y-107279287D01*
X122551223Y-107281058D01*
X122398839Y-107359709D01*
X122358112Y-107395238D01*
X122293632Y-107424945D01*
X122223324Y-107415076D01*
X122191468Y-107394367D01*
X122157321Y-107363943D01*
X122149325Y-107359709D01*
X122020999Y-107291764D01*
X122005769Y-107283700D01*
X121988196Y-107279286D01*
X121846822Y-107243775D01*
X121846818Y-107243775D01*
X121839451Y-107241924D01*
X121831852Y-107241884D01*
X121831850Y-107241884D01*
X121760394Y-107241510D01*
X121667969Y-107241026D01*
X121660589Y-107242798D01*
X121660587Y-107242798D01*
X121508602Y-107279286D01*
X121508598Y-107279287D01*
X121501223Y-107281058D01*
X121348839Y-107359709D01*
X121219615Y-107472439D01*
X121209996Y-107486126D01*
X121185659Y-107520753D01*
X121130124Y-107564985D01*
X121059492Y-107572170D01*
X120996188Y-107540028D01*
X120963980Y-107486126D01*
X120963438Y-107486350D01*
X120961911Y-107482664D01*
X120902124Y-107338325D01*
X120838512Y-107255425D01*
X120809616Y-107217766D01*
X120809613Y-107217763D01*
X120804587Y-107211213D01*
X120788622Y-107198962D01*
X120684026Y-107118702D01*
X120677476Y-107113676D01*
X120669850Y-107110517D01*
X120669848Y-107110516D01*
X120537080Y-107055522D01*
X120537077Y-107055521D01*
X120529450Y-107052362D01*
X120370600Y-107031449D01*
X120211750Y-107052362D01*
X120063725Y-107113676D01*
X119952577Y-107198963D01*
X119886358Y-107224563D01*
X119816809Y-107210298D01*
X119799169Y-107198962D01*
X119744226Y-107156802D01*
X119737676Y-107151776D01*
X119730050Y-107148617D01*
X119730048Y-107148616D01*
X119597280Y-107093622D01*
X119597277Y-107093621D01*
X119589650Y-107090462D01*
X119430800Y-107069549D01*
X119271950Y-107090462D01*
X119123925Y-107151776D01*
X119012777Y-107237063D01*
X118946558Y-107262663D01*
X118877009Y-107248398D01*
X118859369Y-107237062D01*
X118804426Y-107194902D01*
X118797876Y-107189876D01*
X118790250Y-107186717D01*
X118790248Y-107186716D01*
X118657480Y-107131722D01*
X118657477Y-107131721D01*
X118649850Y-107128562D01*
X118491000Y-107107649D01*
X118332150Y-107128562D01*
X118184125Y-107189876D01*
X118057013Y-107287413D01*
X117959476Y-107414525D01*
X117898162Y-107562550D01*
X117897084Y-107570738D01*
X117896270Y-107576919D01*
X117877249Y-107721400D01*
X103291392Y-107721400D01*
X103344958Y-107694459D01*
X103350729Y-107689530D01*
X103350732Y-107689528D01*
X103469578Y-107588023D01*
X103475355Y-107583089D01*
X103575424Y-107443830D01*
X103639385Y-107284720D01*
X103648914Y-107217766D01*
X103662966Y-107119031D01*
X103662966Y-107119027D01*
X103663547Y-107114947D01*
X103663704Y-107100000D01*
X103643102Y-106929758D01*
X103582487Y-106769344D01*
X103521466Y-106680558D01*
X103499367Y-106613091D01*
X103517252Y-106544384D01*
X103525577Y-106533248D01*
X103525355Y-106533089D01*
X103620992Y-106399998D01*
X103620993Y-106399997D01*
X103625424Y-106393830D01*
X103689385Y-106234720D01*
X103693117Y-106208500D01*
X103712966Y-106069031D01*
X103712966Y-106069027D01*
X103713547Y-106064947D01*
X103713704Y-106050000D01*
X103696808Y-105910383D01*
X103694015Y-105887299D01*
X103694014Y-105887296D01*
X103693102Y-105879758D01*
X103632487Y-105719344D01*
X103582406Y-105646475D01*
X103560306Y-105579007D01*
X103561219Y-105575500D01*
X108221795Y-105575500D01*
X108242708Y-105734350D01*
X108304022Y-105882375D01*
X108331415Y-105918074D01*
X108396530Y-106002934D01*
X108396533Y-106002937D01*
X108401559Y-106009487D01*
X108408109Y-106014513D01*
X108408110Y-106014514D01*
X108434801Y-106034995D01*
X108528670Y-106107024D01*
X108536296Y-106110183D01*
X108536298Y-106110184D01*
X108669066Y-106165178D01*
X108669069Y-106165179D01*
X108676696Y-106168338D01*
X108835546Y-106189251D01*
X108843734Y-106188173D01*
X108986208Y-106169416D01*
X108994396Y-106168338D01*
X109002023Y-106165179D01*
X109002026Y-106165178D01*
X109134794Y-106110184D01*
X109134796Y-106110183D01*
X109142422Y-106107024D01*
X109236291Y-106034995D01*
X109262982Y-106014514D01*
X109262983Y-106014513D01*
X109269533Y-106009487D01*
X109274559Y-106002937D01*
X109274562Y-106002934D01*
X109339677Y-105918074D01*
X109367070Y-105882375D01*
X109428384Y-105734350D01*
X109449297Y-105575500D01*
X109428384Y-105416650D01*
X109367070Y-105268625D01*
X109310160Y-105194459D01*
X109274562Y-105148066D01*
X109274559Y-105148063D01*
X109269533Y-105141513D01*
X109261700Y-105135502D01*
X109148972Y-105049002D01*
X109142422Y-105043976D01*
X109134796Y-105040817D01*
X109134794Y-105040816D01*
X109002026Y-104985822D01*
X109002023Y-104985821D01*
X108994396Y-104982662D01*
X108835546Y-104961749D01*
X108676696Y-104982662D01*
X108528671Y-105043976D01*
X108401559Y-105141513D01*
X108304022Y-105268625D01*
X108242708Y-105416650D01*
X108221795Y-105575500D01*
X103561219Y-105575500D01*
X103578191Y-105510300D01*
X103583924Y-105501582D01*
X103598323Y-105481544D01*
X103625424Y-105443830D01*
X103689385Y-105284720D01*
X103702933Y-105189528D01*
X103712966Y-105119031D01*
X103712966Y-105119027D01*
X103713547Y-105114947D01*
X103713704Y-105100000D01*
X103697104Y-104962827D01*
X103694015Y-104937299D01*
X103694014Y-104937296D01*
X103693102Y-104929758D01*
X103678336Y-104890679D01*
X103635171Y-104776447D01*
X103632487Y-104769344D01*
X103607088Y-104732388D01*
X103601461Y-104724200D01*
X117877249Y-104724200D01*
X117898162Y-104883050D01*
X117959476Y-105031075D01*
X118003174Y-105088023D01*
X118051984Y-105151634D01*
X118051987Y-105151637D01*
X118057013Y-105158187D01*
X118063563Y-105163213D01*
X118063564Y-105163214D01*
X118162869Y-105239414D01*
X118184124Y-105255724D01*
X118191750Y-105258883D01*
X118191752Y-105258884D01*
X118324520Y-105313878D01*
X118324523Y-105313879D01*
X118332150Y-105317038D01*
X118491000Y-105337951D01*
X118499188Y-105336873D01*
X118641662Y-105318116D01*
X118649850Y-105317038D01*
X118657477Y-105313879D01*
X118657480Y-105313878D01*
X118790248Y-105258884D01*
X118790250Y-105258883D01*
X118797876Y-105255724D01*
X118859369Y-105208538D01*
X118925589Y-105182937D01*
X118995138Y-105197201D01*
X119012777Y-105208536D01*
X119123924Y-105293824D01*
X119131550Y-105296983D01*
X119131552Y-105296984D01*
X119264320Y-105351978D01*
X119264323Y-105351979D01*
X119271950Y-105355138D01*
X119280138Y-105356216D01*
X119351375Y-105365594D01*
X119430800Y-105376051D01*
X119438988Y-105374973D01*
X119581462Y-105356216D01*
X119589650Y-105355138D01*
X119597277Y-105351979D01*
X119597280Y-105351978D01*
X119730048Y-105296984D01*
X119730050Y-105296983D01*
X119737676Y-105293824D01*
X119799169Y-105246638D01*
X119865389Y-105221037D01*
X119934938Y-105235301D01*
X119952577Y-105246636D01*
X120063724Y-105331924D01*
X120071350Y-105335083D01*
X120071352Y-105335084D01*
X120204120Y-105390078D01*
X120204123Y-105390079D01*
X120211750Y-105393238D01*
X120370600Y-105414151D01*
X120378788Y-105413073D01*
X120521262Y-105394316D01*
X120529450Y-105393238D01*
X120537077Y-105390079D01*
X120537080Y-105390078D01*
X120669848Y-105335084D01*
X120669850Y-105335083D01*
X120677476Y-105331924D01*
X120708526Y-105308098D01*
X120798036Y-105239414D01*
X120798037Y-105239413D01*
X120804587Y-105234387D01*
X120809613Y-105227837D01*
X120809616Y-105227834D01*
X120859200Y-105163214D01*
X120902124Y-105107275D01*
X120939990Y-105015859D01*
X120984539Y-104960578D01*
X121051902Y-104938157D01*
X121120693Y-104955715D01*
X121160977Y-104993797D01*
X121209730Y-105066349D01*
X121267627Y-105119031D01*
X121310659Y-105158187D01*
X121336565Y-105181760D01*
X121487268Y-105263585D01*
X121653139Y-105307101D01*
X121740586Y-105308474D01*
X121817003Y-105309675D01*
X121817006Y-105309675D01*
X121824602Y-105309794D01*
X121832006Y-105308098D01*
X121832008Y-105308098D01*
X121907377Y-105290836D01*
X121991759Y-105271510D01*
X122144958Y-105194459D01*
X122192315Y-105154012D01*
X122257105Y-105124981D01*
X122327305Y-105135586D01*
X122358945Y-105156629D01*
X122380944Y-105176646D01*
X122380948Y-105176649D01*
X122386565Y-105181760D01*
X122537268Y-105263585D01*
X122703139Y-105307101D01*
X122790586Y-105308474D01*
X122867003Y-105309675D01*
X122867006Y-105309675D01*
X122874602Y-105309794D01*
X122882006Y-105308098D01*
X122882008Y-105308098D01*
X122957377Y-105290836D01*
X123041759Y-105271510D01*
X123194958Y-105194459D01*
X123200729Y-105189530D01*
X123200732Y-105189528D01*
X123257218Y-105141284D01*
X124190124Y-105141284D01*
X124191103Y-105146981D01*
X124191103Y-105146982D01*
X124223425Y-105335084D01*
X124226181Y-105351126D01*
X124299875Y-105550884D01*
X124319392Y-105583688D01*
X124404156Y-105726162D01*
X124408739Y-105733866D01*
X124549125Y-105893946D01*
X124716333Y-106025762D01*
X124721444Y-106028451D01*
X124721447Y-106028453D01*
X124790811Y-106064947D01*
X124904762Y-106124900D01*
X124910283Y-106126614D01*
X124910287Y-106126616D01*
X125048126Y-106169416D01*
X125108102Y-106188039D01*
X125280982Y-106208500D01*
X125704013Y-106208500D01*
X125789645Y-106200632D01*
X125856270Y-106194510D01*
X125856273Y-106194509D01*
X125862024Y-106193981D01*
X125867584Y-106192413D01*
X126061389Y-106137754D01*
X126061391Y-106137753D01*
X126066948Y-106136186D01*
X126072123Y-106133634D01*
X126072128Y-106133632D01*
X126252727Y-106044570D01*
X126257908Y-106042015D01*
X126266790Y-106035383D01*
X126423886Y-105918074D01*
X126428509Y-105914622D01*
X126573037Y-105758271D01*
X126686653Y-105578201D01*
X126765551Y-105380441D01*
X126770305Y-105356544D01*
X126805962Y-105177282D01*
X126805962Y-105177280D01*
X126807089Y-105171615D01*
X126807320Y-105154012D01*
X126809128Y-105015859D01*
X126809876Y-104958716D01*
X126803913Y-104924015D01*
X126774797Y-104754564D01*
X126774796Y-104754561D01*
X126773819Y-104748874D01*
X126700125Y-104549116D01*
X126591261Y-104366134D01*
X126450875Y-104206054D01*
X126283667Y-104074238D01*
X126278556Y-104071549D01*
X126278553Y-104071547D01*
X126142559Y-103999997D01*
X126095238Y-103975100D01*
X126089717Y-103973386D01*
X126089713Y-103973384D01*
X125897421Y-103913676D01*
X125897422Y-103913676D01*
X125891898Y-103911961D01*
X125719018Y-103891500D01*
X125295987Y-103891500D01*
X125210355Y-103899368D01*
X125143730Y-103905490D01*
X125143727Y-103905491D01*
X125137976Y-103906019D01*
X125132417Y-103907587D01*
X125132416Y-103907587D01*
X124938611Y-103962246D01*
X124938609Y-103962247D01*
X124933052Y-103963814D01*
X124927877Y-103966366D01*
X124927872Y-103966368D01*
X124793594Y-104032587D01*
X124742092Y-104057985D01*
X124737466Y-104061439D01*
X124737465Y-104061440D01*
X124700807Y-104088814D01*
X124571491Y-104185378D01*
X124426963Y-104341729D01*
X124313347Y-104521799D01*
X124234449Y-104719559D01*
X124233323Y-104725219D01*
X124233322Y-104725223D01*
X124200411Y-104890679D01*
X124192911Y-104928385D01*
X124192835Y-104934160D01*
X124192835Y-104934164D01*
X124192200Y-104982662D01*
X124190124Y-105141284D01*
X123257218Y-105141284D01*
X123319578Y-105088023D01*
X123325355Y-105083089D01*
X123413389Y-104960578D01*
X123420992Y-104949998D01*
X123420993Y-104949997D01*
X123425424Y-104943830D01*
X123489385Y-104784720D01*
X123498659Y-104719559D01*
X123512966Y-104619031D01*
X123512966Y-104619027D01*
X123513547Y-104614947D01*
X123513704Y-104600000D01*
X123506946Y-104544153D01*
X123494015Y-104437299D01*
X123494014Y-104437296D01*
X123493102Y-104429758D01*
X123479591Y-104394000D01*
X123435171Y-104276447D01*
X123432487Y-104269344D01*
X123382406Y-104196475D01*
X123360306Y-104129007D01*
X123378191Y-104060300D01*
X123383924Y-104051582D01*
X123393198Y-104038676D01*
X123425424Y-103993830D01*
X123489385Y-103834720D01*
X123510216Y-103688355D01*
X123512966Y-103669031D01*
X123512966Y-103669027D01*
X123513547Y-103664947D01*
X123513704Y-103650000D01*
X123506447Y-103590029D01*
X123494015Y-103487299D01*
X123494014Y-103487296D01*
X123493102Y-103479758D01*
X123484154Y-103456076D01*
X123435171Y-103326447D01*
X123432487Y-103319344D01*
X123382406Y-103246475D01*
X123360306Y-103179007D01*
X123378191Y-103110300D01*
X123383924Y-103101582D01*
X123420992Y-103049997D01*
X123425424Y-103043830D01*
X123489385Y-102884720D01*
X123493554Y-102855425D01*
X123512966Y-102719031D01*
X123512966Y-102719027D01*
X123513547Y-102714947D01*
X123513704Y-102700000D01*
X123499395Y-102581760D01*
X123494015Y-102537299D01*
X123494014Y-102537296D01*
X123493102Y-102529758D01*
X123475468Y-102483089D01*
X123435171Y-102376447D01*
X123432487Y-102369344D01*
X123335357Y-102228019D01*
X123329686Y-102222966D01*
X123212993Y-102118996D01*
X123212989Y-102118993D01*
X123207321Y-102113943D01*
X123199325Y-102109709D01*
X123062481Y-102037254D01*
X123062482Y-102037254D01*
X123055769Y-102033700D01*
X123038196Y-102029286D01*
X122896822Y-101993775D01*
X122896818Y-101993775D01*
X122889451Y-101991924D01*
X122881852Y-101991884D01*
X122881850Y-101991884D01*
X122810394Y-101991510D01*
X122717969Y-101991026D01*
X122710589Y-101992798D01*
X122710587Y-101992798D01*
X122558602Y-102029286D01*
X122558598Y-102029287D01*
X122551223Y-102031058D01*
X122398839Y-102109709D01*
X122358112Y-102145238D01*
X122293632Y-102174945D01*
X122223324Y-102165076D01*
X122191468Y-102144367D01*
X122157321Y-102113943D01*
X122149325Y-102109709D01*
X122012481Y-102037254D01*
X122012482Y-102037254D01*
X122005769Y-102033700D01*
X121988196Y-102029286D01*
X121846822Y-101993775D01*
X121846818Y-101993775D01*
X121839451Y-101991924D01*
X121831852Y-101991884D01*
X121831850Y-101991884D01*
X121760394Y-101991510D01*
X121667969Y-101991026D01*
X121660589Y-101992798D01*
X121660587Y-101992798D01*
X121508602Y-102029286D01*
X121508598Y-102029287D01*
X121501223Y-102031058D01*
X121348839Y-102109709D01*
X121219615Y-102222439D01*
X121121010Y-102362739D01*
X121099902Y-102416879D01*
X121072164Y-102488023D01*
X121058718Y-102522509D01*
X121057726Y-102530042D01*
X121057726Y-102530043D01*
X121038879Y-102673205D01*
X121036335Y-102692526D01*
X121043780Y-102759962D01*
X121049282Y-102809794D01*
X121055153Y-102862975D01*
X121057762Y-102870106D01*
X121057763Y-102870108D01*
X121065688Y-102891764D01*
X121114085Y-103024015D01*
X121118322Y-103030321D01*
X121118324Y-103030324D01*
X121168354Y-103104775D01*
X121189747Y-103172472D01*
X121171143Y-103240988D01*
X121166859Y-103247502D01*
X121125382Y-103306517D01*
X121125379Y-103306523D01*
X121121010Y-103312739D01*
X121058718Y-103472509D01*
X121057726Y-103480042D01*
X121057726Y-103480043D01*
X121052092Y-103522837D01*
X121023369Y-103587764D01*
X120964104Y-103626855D01*
X120893112Y-103627700D01*
X120832934Y-103590029D01*
X120827220Y-103583109D01*
X120804587Y-103553613D01*
X120764480Y-103522837D01*
X120684026Y-103461102D01*
X120677476Y-103456076D01*
X120669850Y-103452917D01*
X120669848Y-103452916D01*
X120537080Y-103397922D01*
X120537077Y-103397921D01*
X120529450Y-103394762D01*
X120370600Y-103373849D01*
X120211750Y-103394762D01*
X120063725Y-103456076D01*
X120032491Y-103480043D01*
X119964705Y-103532057D01*
X119898485Y-103557658D01*
X119828936Y-103543393D01*
X119811297Y-103532057D01*
X119718830Y-103461105D01*
X119718829Y-103461105D01*
X119712276Y-103456076D01*
X119704650Y-103452917D01*
X119704648Y-103452916D01*
X119571880Y-103397922D01*
X119571877Y-103397921D01*
X119564250Y-103394762D01*
X119405400Y-103373849D01*
X119246550Y-103394762D01*
X119098525Y-103456076D01*
X118971413Y-103553613D01*
X118873876Y-103680725D01*
X118812562Y-103828750D01*
X118791649Y-103987600D01*
X118792727Y-103995788D01*
X118792727Y-104004046D01*
X118789836Y-104004046D01*
X118781043Y-104060368D01*
X118733906Y-104113459D01*
X118665549Y-104132638D01*
X118649965Y-104130492D01*
X118649850Y-104131362D01*
X118499188Y-104111527D01*
X118491000Y-104110449D01*
X118482812Y-104111527D01*
X118357543Y-104128019D01*
X118332150Y-104131362D01*
X118184125Y-104192676D01*
X118057013Y-104290213D01*
X117959476Y-104417325D01*
X117898162Y-104565350D01*
X117877249Y-104724200D01*
X103601461Y-104724200D01*
X103539659Y-104634278D01*
X103539658Y-104634276D01*
X103535357Y-104628019D01*
X103529686Y-104622966D01*
X103412993Y-104518996D01*
X103412990Y-104518994D01*
X103407321Y-104513943D01*
X103399325Y-104509709D01*
X103346723Y-104481858D01*
X103255769Y-104433700D01*
X103211216Y-104422509D01*
X103096822Y-104393775D01*
X103096818Y-104393775D01*
X103089451Y-104391924D01*
X103081852Y-104391884D01*
X103081850Y-104391884D01*
X103010394Y-104391510D01*
X102917969Y-104391026D01*
X102910589Y-104392798D01*
X102910587Y-104392798D01*
X102758602Y-104429286D01*
X102758598Y-104429287D01*
X102751223Y-104431058D01*
X102598839Y-104509709D01*
X102469615Y-104622439D01*
X102371010Y-104762739D01*
X102365371Y-104777202D01*
X102325462Y-104879564D01*
X102308718Y-104922509D01*
X102307726Y-104930042D01*
X102307726Y-104930043D01*
X102287495Y-105083716D01*
X102286335Y-105092526D01*
X102292467Y-105148066D01*
X102303798Y-105250698D01*
X102305153Y-105262975D01*
X102307762Y-105270106D01*
X102307763Y-105270108D01*
X102322243Y-105309675D01*
X102364085Y-105424015D01*
X102368322Y-105430321D01*
X102368324Y-105430324D01*
X102418354Y-105504775D01*
X102439747Y-105572472D01*
X102421143Y-105640988D01*
X102416859Y-105647502D01*
X102375382Y-105706517D01*
X102375379Y-105706523D01*
X102371010Y-105712739D01*
X102359610Y-105741979D01*
X102312344Y-105863210D01*
X102308718Y-105872509D01*
X102307726Y-105880042D01*
X102307726Y-105880043D01*
X102288188Y-106028453D01*
X102286335Y-106042526D01*
X102292901Y-106101998D01*
X102302534Y-106189251D01*
X102305153Y-106212975D01*
X102307762Y-106220106D01*
X102307763Y-106220108D01*
X102321861Y-106258632D01*
X102364085Y-106374015D01*
X102368322Y-106380321D01*
X102368324Y-106380324D01*
X102429127Y-106470807D01*
X102450520Y-106538504D01*
X102431916Y-106607020D01*
X102421845Y-106620494D01*
X102419615Y-106622439D01*
X102321010Y-106762739D01*
X102258718Y-106922509D01*
X102257726Y-106930042D01*
X102257726Y-106930043D01*
X102241207Y-107055522D01*
X102236335Y-107092526D01*
X101012800Y-107092526D01*
X100993102Y-106929758D01*
X100932487Y-106769344D01*
X100871466Y-106680558D01*
X100849367Y-106613091D01*
X100867252Y-106544384D01*
X100875577Y-106533248D01*
X100875355Y-106533089D01*
X100970992Y-106399998D01*
X100970993Y-106399997D01*
X100975424Y-106393830D01*
X101039385Y-106234720D01*
X101043117Y-106208500D01*
X101062966Y-106069031D01*
X101062966Y-106069027D01*
X101063547Y-106064947D01*
X101063704Y-106050000D01*
X101046808Y-105910383D01*
X101044015Y-105887299D01*
X101044014Y-105887296D01*
X101043102Y-105879758D01*
X100982487Y-105719344D01*
X100932406Y-105646475D01*
X100910306Y-105579007D01*
X100928191Y-105510300D01*
X100933924Y-105501582D01*
X100948323Y-105481544D01*
X100975424Y-105443830D01*
X101039385Y-105284720D01*
X101052933Y-105189528D01*
X101062966Y-105119031D01*
X101062966Y-105119027D01*
X101063547Y-105114947D01*
X101063704Y-105100000D01*
X101047104Y-104962827D01*
X101044015Y-104937299D01*
X101044014Y-104937296D01*
X101043102Y-104929758D01*
X101028336Y-104890679D01*
X100985171Y-104776447D01*
X100982487Y-104769344D01*
X100957088Y-104732388D01*
X100889659Y-104634278D01*
X100889658Y-104634276D01*
X100885357Y-104628019D01*
X100879686Y-104622966D01*
X100762993Y-104518996D01*
X100762990Y-104518994D01*
X100757321Y-104513943D01*
X100749325Y-104509709D01*
X100696723Y-104481858D01*
X100605769Y-104433700D01*
X100561216Y-104422509D01*
X100446822Y-104393775D01*
X100446818Y-104393775D01*
X100439451Y-104391924D01*
X100431852Y-104391884D01*
X100431850Y-104391884D01*
X100360394Y-104391510D01*
X100267969Y-104391026D01*
X100260589Y-104392798D01*
X100260587Y-104392798D01*
X100108602Y-104429286D01*
X100108598Y-104429287D01*
X100101223Y-104431058D01*
X99948839Y-104509709D01*
X99819615Y-104622439D01*
X99721010Y-104762739D01*
X99715371Y-104777202D01*
X99675462Y-104879564D01*
X99658718Y-104922509D01*
X99657726Y-104930042D01*
X99657726Y-104930043D01*
X99637495Y-105083716D01*
X99636335Y-105092526D01*
X99642467Y-105148066D01*
X99653798Y-105250698D01*
X99655153Y-105262975D01*
X99657762Y-105270106D01*
X99657763Y-105270108D01*
X99672243Y-105309675D01*
X99714085Y-105424015D01*
X99718322Y-105430321D01*
X99718324Y-105430324D01*
X99768354Y-105504775D01*
X99789747Y-105572472D01*
X99771143Y-105640988D01*
X99766859Y-105647502D01*
X99725382Y-105706517D01*
X99725379Y-105706523D01*
X99721010Y-105712739D01*
X99709610Y-105741979D01*
X99662344Y-105863210D01*
X99658718Y-105872509D01*
X99657726Y-105880042D01*
X99657726Y-105880043D01*
X99638188Y-106028453D01*
X99636335Y-106042526D01*
X99642901Y-106101998D01*
X99652534Y-106189251D01*
X99655153Y-106212975D01*
X99657762Y-106220106D01*
X99657763Y-106220108D01*
X99671861Y-106258632D01*
X99714085Y-106374015D01*
X99718322Y-106380321D01*
X99718324Y-106380324D01*
X99779127Y-106470807D01*
X99800520Y-106538504D01*
X99781916Y-106607020D01*
X99771845Y-106620494D01*
X99769615Y-106622439D01*
X99671010Y-106762739D01*
X99608718Y-106922509D01*
X99607726Y-106930042D01*
X99607726Y-106930043D01*
X99591207Y-107055522D01*
X99586335Y-107092526D01*
X92333500Y-107092526D01*
X92333500Y-105266284D01*
X93040124Y-105266284D01*
X93041103Y-105271981D01*
X93041103Y-105271982D01*
X93070632Y-105443830D01*
X93076181Y-105476126D01*
X93149875Y-105675884D01*
X93258739Y-105858866D01*
X93399125Y-106018946D01*
X93566333Y-106150762D01*
X93571444Y-106153451D01*
X93571447Y-106153453D01*
X93674961Y-106207915D01*
X93754762Y-106249900D01*
X93760283Y-106251614D01*
X93760287Y-106251616D01*
X93930623Y-106304506D01*
X93958102Y-106313039D01*
X94130982Y-106333500D01*
X94554013Y-106333500D01*
X94639645Y-106325632D01*
X94706270Y-106319510D01*
X94706273Y-106319509D01*
X94712024Y-106318981D01*
X94733093Y-106313039D01*
X94911389Y-106262754D01*
X94911391Y-106262753D01*
X94916948Y-106261186D01*
X94922123Y-106258634D01*
X94922128Y-106258632D01*
X95102727Y-106169570D01*
X95107908Y-106167015D01*
X95147094Y-106137754D01*
X95244594Y-106064947D01*
X95278509Y-106039622D01*
X95423037Y-105883271D01*
X95526168Y-105719819D01*
X95533574Y-105708081D01*
X95536653Y-105703201D01*
X95615551Y-105505441D01*
X95620305Y-105481544D01*
X95655962Y-105302282D01*
X95655962Y-105302280D01*
X95657089Y-105296615D01*
X95657192Y-105288798D01*
X95658901Y-105158187D01*
X95659876Y-105083716D01*
X95653911Y-105049002D01*
X95624797Y-104879564D01*
X95624796Y-104879561D01*
X95623819Y-104873874D01*
X95550125Y-104674116D01*
X95441261Y-104491134D01*
X95300875Y-104331054D01*
X95133667Y-104199238D01*
X95128556Y-104196549D01*
X95128553Y-104196547D01*
X94964908Y-104110449D01*
X94945238Y-104100100D01*
X94939717Y-104098386D01*
X94939713Y-104098384D01*
X94747421Y-104038676D01*
X94747422Y-104038676D01*
X94741898Y-104036961D01*
X94569018Y-104016500D01*
X94145987Y-104016500D01*
X94060355Y-104024368D01*
X93993730Y-104030490D01*
X93993727Y-104030491D01*
X93987976Y-104031019D01*
X93982417Y-104032587D01*
X93982416Y-104032587D01*
X93788611Y-104087246D01*
X93788609Y-104087247D01*
X93783052Y-104088814D01*
X93777877Y-104091366D01*
X93777872Y-104091368D01*
X93597273Y-104180430D01*
X93592092Y-104182985D01*
X93587466Y-104186439D01*
X93587465Y-104186440D01*
X93579114Y-104192676D01*
X93421491Y-104310378D01*
X93276963Y-104466729D01*
X93163347Y-104646799D01*
X93084449Y-104844559D01*
X93083323Y-104850219D01*
X93083322Y-104850223D01*
X93044038Y-105047718D01*
X93042911Y-105053385D01*
X93042835Y-105059160D01*
X93042835Y-105059164D01*
X93041625Y-105151634D01*
X93040124Y-105266284D01*
X92333500Y-105266284D01*
X92333500Y-102092526D01*
X109186335Y-102092526D01*
X109194345Y-102165076D01*
X109201985Y-102234278D01*
X109205153Y-102262975D01*
X109264085Y-102424015D01*
X109268322Y-102430321D01*
X109268324Y-102430324D01*
X109303781Y-102483089D01*
X109359730Y-102566349D01*
X109394372Y-102597871D01*
X109468708Y-102665511D01*
X109486565Y-102681760D01*
X109637268Y-102763585D01*
X109803139Y-102807101D01*
X109890586Y-102808474D01*
X109967003Y-102809675D01*
X109967006Y-102809675D01*
X109974602Y-102809794D01*
X109982006Y-102808098D01*
X109982008Y-102808098D01*
X110044846Y-102793706D01*
X110141759Y-102771510D01*
X110294958Y-102694459D01*
X110300729Y-102689530D01*
X110300732Y-102689528D01*
X110419578Y-102588023D01*
X110425355Y-102583089D01*
X110441916Y-102560043D01*
X110466446Y-102525906D01*
X110522441Y-102482259D01*
X110593145Y-102475814D01*
X110653567Y-102506239D01*
X110730944Y-102576646D01*
X110730948Y-102576649D01*
X110736565Y-102581760D01*
X110887268Y-102663585D01*
X111053139Y-102707101D01*
X111140586Y-102708474D01*
X111217003Y-102709675D01*
X111217006Y-102709675D01*
X111224602Y-102709794D01*
X111232006Y-102708098D01*
X111232008Y-102708098D01*
X111313088Y-102689528D01*
X111391759Y-102671510D01*
X111544958Y-102594459D01*
X111550729Y-102589530D01*
X111550732Y-102589528D01*
X111669578Y-102488023D01*
X111675355Y-102483089D01*
X111775424Y-102343830D01*
X111839385Y-102184720D01*
X111849350Y-102114703D01*
X111862966Y-102019031D01*
X111862966Y-102019027D01*
X111863547Y-102014947D01*
X111863704Y-102000000D01*
X111843102Y-101829758D01*
X111782487Y-101669344D01*
X111746407Y-101616847D01*
X111689659Y-101534278D01*
X111689658Y-101534276D01*
X111685357Y-101528019D01*
X111679095Y-101522439D01*
X111619294Y-101469159D01*
X111581738Y-101408909D01*
X111582718Y-101337919D01*
X111621282Y-101279272D01*
X111669578Y-101238023D01*
X111675355Y-101233089D01*
X111775424Y-101093830D01*
X111839385Y-100934720D01*
X111863547Y-100764947D01*
X111863704Y-100750000D01*
X111843102Y-100579758D01*
X111782487Y-100419344D01*
X111685357Y-100278019D01*
X111679095Y-100272439D01*
X111619294Y-100219159D01*
X111581738Y-100158909D01*
X111582718Y-100087919D01*
X111621282Y-100029272D01*
X111669578Y-99988023D01*
X111669579Y-99988022D01*
X111675355Y-99983089D01*
X111775424Y-99843830D01*
X111839385Y-99684720D01*
X111863547Y-99514947D01*
X111863704Y-99500000D01*
X111843102Y-99329758D01*
X111782487Y-99169344D01*
X111685357Y-99028019D01*
X111679686Y-99022966D01*
X111562993Y-98918996D01*
X111562990Y-98918994D01*
X111557321Y-98913943D01*
X111549325Y-98909709D01*
X111412481Y-98837254D01*
X111412482Y-98837254D01*
X111405769Y-98833700D01*
X111388196Y-98829286D01*
X111246822Y-98793775D01*
X111246818Y-98793775D01*
X111239451Y-98791924D01*
X111231852Y-98791884D01*
X111231850Y-98791884D01*
X111160394Y-98791510D01*
X111067969Y-98791026D01*
X111060589Y-98792798D01*
X111060587Y-98792798D01*
X110908602Y-98829286D01*
X110908598Y-98829287D01*
X110901223Y-98831058D01*
X110748839Y-98909709D01*
X110619615Y-99022439D01*
X110617333Y-99025686D01*
X110558203Y-99062114D01*
X110487219Y-99060762D01*
X110435905Y-99027403D01*
X110435357Y-99028019D01*
X110431321Y-99024423D01*
X110385095Y-98983238D01*
X110312993Y-98918996D01*
X110312990Y-98918994D01*
X110307321Y-98913943D01*
X110299325Y-98909709D01*
X110162481Y-98837254D01*
X110162482Y-98837254D01*
X110155769Y-98833700D01*
X110138196Y-98829286D01*
X109996822Y-98793775D01*
X109996818Y-98793775D01*
X109989451Y-98791924D01*
X109981852Y-98791884D01*
X109981850Y-98791884D01*
X109910394Y-98791510D01*
X109817969Y-98791026D01*
X109810589Y-98792798D01*
X109810587Y-98792798D01*
X109658602Y-98829286D01*
X109658598Y-98829287D01*
X109651223Y-98831058D01*
X109498839Y-98909709D01*
X109369615Y-99022439D01*
X109271010Y-99162739D01*
X109208718Y-99322509D01*
X109186335Y-99492526D01*
X109205153Y-99662975D01*
X109207762Y-99670106D01*
X109207763Y-99670108D01*
X109215688Y-99691764D01*
X109264085Y-99824015D01*
X109268322Y-99830321D01*
X109268324Y-99830324D01*
X109277400Y-99843830D01*
X109359730Y-99966349D01*
X109486565Y-100081760D01*
X109637268Y-100163585D01*
X109803139Y-100207101D01*
X109890586Y-100208474D01*
X109967003Y-100209675D01*
X109967006Y-100209675D01*
X109974602Y-100209794D01*
X109982006Y-100208098D01*
X109982008Y-100208098D01*
X110044846Y-100193706D01*
X110141759Y-100171510D01*
X110294958Y-100094459D01*
X110300729Y-100089530D01*
X110300732Y-100089528D01*
X110419579Y-99988022D01*
X110425355Y-99983089D01*
X110429789Y-99976919D01*
X110432212Y-99974284D01*
X110493045Y-99937680D01*
X110564010Y-99939775D01*
X110609759Y-99966377D01*
X110681709Y-100031846D01*
X110718632Y-100092486D01*
X110716909Y-100163462D01*
X110679739Y-100219989D01*
X110625341Y-100267443D01*
X110625337Y-100267447D01*
X110619615Y-100272439D01*
X110521010Y-100412739D01*
X110458718Y-100572509D01*
X110436335Y-100742526D01*
X110455153Y-100912975D01*
X110457762Y-100920106D01*
X110457763Y-100920108D01*
X110465688Y-100941764D01*
X110514085Y-101074015D01*
X110609730Y-101216349D01*
X110615345Y-101221458D01*
X110615350Y-101221464D01*
X110681710Y-101281847D01*
X110718632Y-101342487D01*
X110716909Y-101413463D01*
X110679739Y-101469989D01*
X110625341Y-101517443D01*
X110625337Y-101517447D01*
X110619615Y-101522439D01*
X110615247Y-101528653D01*
X110615246Y-101528655D01*
X110584349Y-101572616D01*
X110528814Y-101616847D01*
X110458182Y-101624032D01*
X110397444Y-101594240D01*
X110312993Y-101518996D01*
X110312990Y-101518994D01*
X110307321Y-101513943D01*
X110299325Y-101509709D01*
X110162481Y-101437254D01*
X110162482Y-101437254D01*
X110155769Y-101433700D01*
X110138196Y-101429286D01*
X109996822Y-101393775D01*
X109996818Y-101393775D01*
X109989451Y-101391924D01*
X109981852Y-101391884D01*
X109981850Y-101391884D01*
X109910394Y-101391510D01*
X109817969Y-101391026D01*
X109810589Y-101392798D01*
X109810587Y-101392798D01*
X109658602Y-101429286D01*
X109658598Y-101429287D01*
X109651223Y-101431058D01*
X109498839Y-101509709D01*
X109369615Y-101622439D01*
X109271010Y-101762739D01*
X109208718Y-101922509D01*
X109207726Y-101930042D01*
X109207726Y-101930043D01*
X109193612Y-102037254D01*
X109186335Y-102092526D01*
X92333500Y-102092526D01*
X92333500Y-96659500D01*
X92353502Y-96591379D01*
X92407158Y-96544886D01*
X92459500Y-96533500D01*
X128065500Y-96533500D01*
X128133621Y-96553502D01*
G37*
%TD.AperFunction*%
%TD*%
M02*
