M48
; DRILL file {KiCad (6.0.8)} date Sun Oct 13 14:56:53 2024
; FORMAT={-:-/ absolute / inch / decimal}
; #@! TF.CreationDate,2024-10-13T14:56:53+02:00
; #@! TF.GenerationSoftware,Kicad,Pcbnew,(6.0.8)
; #@! TF.FileFunction,Plated,1,4,PTH
FMAT,2
INCH
; #@! TA.AperFunction,Plated,PTH,ViaDrill
T1C0.0118
; #@! TA.AperFunction,Plated,PTH,ViaDrill
T2C0.0157
; #@! TA.AperFunction,Plated,PTH,ComponentDrill
T3C0.0394
; #@! TA.AperFunction,Plated,PTH,ComponentDrill
T4C0.0866
%
G90
G05
T1
X3.7677Y-3.8248
X3.7677Y-3.9203
X4.19Y-4.12
X4.19Y-4.295
X4.215Y-4.43
X4.2748Y-4.257
X4.2849Y-4.1565
X4.4455Y-4.1194
X4.4455Y-4.2444
X4.605Y-4.095
X4.605Y-4.129
X4.605Y-4.163
X4.605Y-4.197
X4.605Y-4.231
X4.605Y-4.265
X4.665Y-4.123
X4.665Y-4.241
X4.701Y-4.094
X4.701Y-4.27
X4.702Y-4.1245
X4.702Y-4.2395
X4.739Y-4.094
X4.739Y-4.126
X4.739Y-4.238
X4.739Y-4.27
T2
X3.878Y-4.0547
X3.9488Y-4.2165
X3.9498Y-4.44
X3.9508Y-4.1378
X3.9508Y-4.1752
X3.9518Y-4.3612
X3.9518Y-4.3986
X4.0531Y-4.2165
X4.0541Y-4.44
X4.0551Y-4.1378
X4.0551Y-4.1752
X4.0561Y-4.3612
X4.0561Y-4.3986
X4.1504Y-4.0547
X4.3268Y-3.9173
X4.3268Y-4.0197
X4.3287Y-4.3406
X4.3287Y-4.4429
X4.376Y-3.9173
X4.376Y-3.9665
X4.376Y-4.0157
X4.378Y-4.3406
X4.378Y-4.3898
X4.378Y-4.439
X4.4205Y-3.9244
X4.4205Y-4.0244
X4.4205Y-4.3394
X4.4205Y-4.4394
X4.4805Y-4.0244
X4.4805Y-4.0794
X4.4805Y-4.3394
X4.4905Y-3.9244
X4.4905Y-3.9744
X4.4905Y-4.3894
X4.4905Y-4.4394
X4.6339Y-3.9862
X4.6358Y-4.3661
X4.7933Y-4.0433
X4.7933Y-4.0807
X4.7933Y-4.1181
X4.7933Y-4.25
X4.7933Y-4.2874
X4.7933Y-4.3248
X4.8346Y-4.0433
X4.8346Y-4.0807
X4.8346Y-4.1181
X4.8346Y-4.25
X4.8346Y-4.2874
X4.8346Y-4.3248
T3
X3.7146Y-4.1407
X3.7146Y-4.2392
X4.9409Y-4.1358
X4.9409Y-4.2343
T4
X3.7165Y-4.4941
X4.9665Y-3.8799
X4.9665Y-4.4941
T0
M30
