%TF.GenerationSoftware,KiCad,Pcbnew,(6.0.8)*%
%TF.CreationDate,2024-10-13T14:56:53+02:00*%
%TF.ProjectId,MP4322_TestBoard,4d503433-3232-45f5-9465-7374426f6172,rev?*%
%TF.SameCoordinates,Original*%
%TF.FileFunction,Paste,Top*%
%TF.FilePolarity,Positive*%
%FSLAX46Y46*%
G04 Gerber Fmt 4.6, Leading zero omitted, Abs format (unit mm)*
G04 Created by KiCad (PCBNEW (6.0.8)) date 2024-10-13 14:56:53*
%MOMM*%
%LPD*%
G01*
G04 APERTURE LIST*
G04 Aperture macros list*
%AMRoundRect*
0 Rectangle with rounded corners*
0 $1 Rounding radius*
0 $2 $3 $4 $5 $6 $7 $8 $9 X,Y pos of 4 corners*
0 Add a 4 corners polygon primitive as box body*
4,1,4,$2,$3,$4,$5,$6,$7,$8,$9,$2,$3,0*
0 Add four circle primitives for the rounded corners*
1,1,$1+$1,$2,$3*
1,1,$1+$1,$4,$5*
1,1,$1+$1,$6,$7*
1,1,$1+$1,$8,$9*
0 Add four rect primitives between the rounded corners*
20,1,$1+$1,$2,$3,$4,$5,0*
20,1,$1+$1,$4,$5,$6,$7,0*
20,1,$1+$1,$6,$7,$8,$9,0*
20,1,$1+$1,$8,$9,$2,$3,0*%
G04 Aperture macros list end*
%ADD10RoundRect,0.218750X-0.218750X-0.381250X0.218750X-0.381250X0.218750X0.381250X-0.218750X0.381250X0*%
%ADD11RoundRect,0.135000X-0.135000X-0.185000X0.135000X-0.185000X0.135000X0.185000X-0.135000X0.185000X0*%
%ADD12RoundRect,0.140000X0.140000X0.170000X-0.140000X0.170000X-0.140000X-0.170000X0.140000X-0.170000X0*%
%ADD13R,1.854500X2.286000*%
%ADD14RoundRect,0.250000X0.325000X0.650000X-0.325000X0.650000X-0.325000X-0.650000X0.325000X-0.650000X0*%
%ADD15RoundRect,0.250000X-0.550000X1.500000X-0.550000X-1.500000X0.550000X-1.500000X0.550000X1.500000X0*%
%ADD16RoundRect,0.250000X-0.325000X-0.650000X0.325000X-0.650000X0.325000X0.650000X-0.325000X0.650000X0*%
%ADD17RoundRect,0.135000X-0.185000X0.135000X-0.185000X-0.135000X0.185000X-0.135000X0.185000X0.135000X0*%
%ADD18RoundRect,0.135000X0.185000X-0.135000X0.185000X0.135000X-0.185000X0.135000X-0.185000X-0.135000X0*%
%ADD19RoundRect,0.140000X-0.170000X0.140000X-0.170000X-0.140000X0.170000X-0.140000X0.170000X0.140000X0*%
%ADD20RoundRect,0.250000X-0.250000X-0.475000X0.250000X-0.475000X0.250000X0.475000X-0.250000X0.475000X0*%
%ADD21RoundRect,0.250000X-0.475000X0.250000X-0.475000X-0.250000X0.475000X-0.250000X0.475000X0.250000X0*%
%ADD22R,1.800000X0.250000*%
%ADD23R,0.250000X0.800000*%
%ADD24R,0.127000X0.127000*%
%ADD25R,0.800000X0.250000*%
%ADD26R,3.400000X0.980000*%
%ADD27RoundRect,0.243750X0.243750X0.456250X-0.243750X0.456250X-0.243750X-0.456250X0.243750X-0.456250X0*%
G04 APERTURE END LIST*
%TO.C,U7*%
G36*
X110350000Y-105699999D02*
G01*
X110250000Y-105699999D01*
X110100000Y-105549999D01*
X110100000Y-104899999D01*
X110350000Y-104899999D01*
X110350000Y-105699999D01*
G37*
G36*
X110350000Y-107500001D02*
G01*
X110100000Y-107500001D01*
X110100000Y-106850001D01*
X110250000Y-106700001D01*
X110350000Y-106700001D01*
X110350000Y-107500001D01*
G37*
G36*
X109900000Y-105725001D02*
G01*
X109900000Y-105825001D01*
X109100000Y-105825001D01*
X109100000Y-105575001D01*
X109750000Y-105575001D01*
X109900000Y-105725001D01*
G37*
G36*
X109900000Y-106674999D02*
G01*
X109750000Y-106824999D01*
X109100000Y-106824999D01*
X109100000Y-106574999D01*
X109900000Y-106574999D01*
X109900000Y-106674999D01*
G37*
%TD*%
D10*
%TO.C,L1*%
X98207500Y-98180000D03*
X100332500Y-98180000D03*
%TD*%
D11*
%TO.C,R1*%
X107106000Y-103575000D03*
X108126000Y-103575000D03*
%TD*%
%TO.C,R120*%
X107106000Y-104675000D03*
X108126000Y-104675000D03*
%TD*%
D12*
%TO.C,C1*%
X96695000Y-98925000D03*
X95735000Y-98925000D03*
%TD*%
D13*
%TO.C,L4*%
X114807750Y-106225000D03*
X118592250Y-106225000D03*
%TD*%
D14*
%TO.C,C30*%
X119775000Y-110000000D03*
X116825000Y-110000000D03*
%TD*%
D15*
%TO.C,C5*%
X101650000Y-106400000D03*
X101650000Y-112000000D03*
%TD*%
D16*
%TO.C,C23*%
X109925000Y-111600000D03*
X112875000Y-111600000D03*
%TD*%
D11*
%TO.C,R122*%
X107190000Y-109499400D03*
X108210000Y-109499400D03*
%TD*%
D17*
%TO.C,R123*%
X108200000Y-107390000D03*
X108200000Y-108410000D03*
%TD*%
D18*
%TO.C,R124*%
X107000000Y-108400000D03*
X107000000Y-107380000D03*
%TD*%
D19*
%TO.C,C28*%
X115000000Y-102120000D03*
X115000000Y-103080000D03*
%TD*%
D18*
%TO.C,R121*%
X108200000Y-111810000D03*
X108200000Y-110790000D03*
%TD*%
D20*
%TO.C,C26*%
X110875000Y-103300000D03*
X112775000Y-103300000D03*
%TD*%
D21*
%TO.C,C4*%
X105412500Y-99990000D03*
X105412500Y-101890000D03*
%TD*%
D22*
%TO.C,U7*%
X111800000Y-106200000D03*
D23*
X112025000Y-107100001D03*
X111375000Y-107100001D03*
X110725000Y-107100001D03*
D24*
X110225000Y-107100001D03*
X109500000Y-106699999D03*
D25*
X109500000Y-106200000D03*
D24*
X109500000Y-105700001D03*
X110225000Y-105299999D03*
D23*
X110725000Y-105299999D03*
X111375000Y-105299999D03*
X112025000Y-105299999D03*
%TD*%
D20*
%TO.C,C25*%
X110875000Y-109100000D03*
X112775000Y-109100000D03*
%TD*%
D21*
%TO.C,C3*%
X98487500Y-99990000D03*
X98487500Y-101890000D03*
%TD*%
D16*
%TO.C,C24*%
X109925000Y-100800000D03*
X112875000Y-100800000D03*
%TD*%
D14*
%TO.C,C31*%
X119775000Y-102400000D03*
X116825000Y-102400000D03*
%TD*%
D26*
%TO.C,L2*%
X101950000Y-102685000D03*
X101950000Y-100315000D03*
%TD*%
D12*
%TO.C,C27*%
X108096000Y-105775000D03*
X107136000Y-105775000D03*
%TD*%
%TO.C,C2*%
X96685000Y-97805000D03*
X95725000Y-97805000D03*
%TD*%
D19*
%TO.C,C29*%
X105800000Y-107420000D03*
X105800000Y-108380000D03*
%TD*%
D18*
%TO.C,R2*%
X107000000Y-111810000D03*
X107000000Y-110790000D03*
%TD*%
D27*
%TO.C,F24*%
X122451100Y-106299000D03*
X120576100Y-106299000D03*
%TD*%
M02*
