%TF.GenerationSoftware,KiCad,Pcbnew,(6.0.8)*%
%TF.CreationDate,2024-10-13T14:56:53+02:00*%
%TF.ProjectId,MP4322_TestBoard,4d503433-3232-45f5-9465-7374426f6172,rev?*%
%TF.SameCoordinates,Original*%
%TF.FileFunction,Copper,L4,Bot*%
%TF.FilePolarity,Positive*%
%FSLAX46Y46*%
G04 Gerber Fmt 4.6, Leading zero omitted, Abs format (unit mm)*
G04 Created by KiCad (PCBNEW (6.0.8)) date 2024-10-13 14:56:53*
%MOMM*%
%LPD*%
G01*
G04 APERTURE LIST*
G04 Aperture macros list*
%AMRoundRect*
0 Rectangle with rounded corners*
0 $1 Rounding radius*
0 $2 $3 $4 $5 $6 $7 $8 $9 X,Y pos of 4 corners*
0 Add a 4 corners polygon primitive as box body*
4,1,4,$2,$3,$4,$5,$6,$7,$8,$9,$2,$3,0*
0 Add four circle primitives for the rounded corners*
1,1,$1+$1,$2,$3*
1,1,$1+$1,$4,$5*
1,1,$1+$1,$6,$7*
1,1,$1+$1,$8,$9*
0 Add four rect primitives between the rounded corners*
20,1,$1+$1,$2,$3,$4,$5,0*
20,1,$1+$1,$4,$5,$6,$7,0*
20,1,$1+$1,$6,$7,$8,$9,0*
20,1,$1+$1,$8,$9,$2,$3,0*%
G04 Aperture macros list end*
%TA.AperFunction,ConnectorPad*%
%ADD10C,3.500000*%
%TD*%
%TA.AperFunction,ComponentPad*%
%ADD11C,2.600000*%
%TD*%
%TA.AperFunction,ComponentPad*%
%ADD12O,2.000000X1.700000*%
%TD*%
%TA.AperFunction,ComponentPad*%
%ADD13RoundRect,0.250000X0.750000X-0.600000X0.750000X0.600000X-0.750000X0.600000X-0.750000X-0.600000X0*%
%TD*%
%TA.AperFunction,ViaPad*%
%ADD14C,0.600000*%
%TD*%
%TA.AperFunction,ViaPad*%
%ADD15C,0.800000*%
%TD*%
%TA.AperFunction,Conductor*%
%ADD16C,0.250000*%
%TD*%
G04 APERTURE END LIST*
D10*
%TO.P,H3,1,1*%
%TO.N,GND*%
X94400000Y-114150000D03*
D11*
X94400000Y-114150000D03*
%TD*%
D10*
%TO.P,H2,1,1*%
%TO.N,GND*%
X126150000Y-114150000D03*
D11*
X126150000Y-114150000D03*
%TD*%
D10*
%TO.P,H1,1,1*%
%TO.N,GND*%
X126150000Y-98550000D03*
D11*
X126150000Y-98550000D03*
%TD*%
D12*
%TO.P,J2,2,Pin_2*%
%TO.N,+3.3V*%
X125500000Y-105050000D03*
D13*
%TO.P,J2,1,Pin_1*%
%TO.N,GND*%
X125500000Y-107550000D03*
%TD*%
D12*
%TO.P,J1,2,Pin_2*%
%TO.N,+12V*%
X94350000Y-105175000D03*
D13*
%TO.P,J1,1,Pin_1*%
%TO.N,GND*%
X94350000Y-107675000D03*
%TD*%
D14*
%TO.N,GND*%
X112915000Y-107807000D03*
D15*
X105420000Y-102990000D03*
D14*
X116967000Y-105740200D03*
D15*
X102975000Y-112775000D03*
D14*
X106426000Y-104648000D03*
D15*
X114058000Y-112760000D03*
X112280000Y-112760000D03*
D14*
X116967000Y-104013000D03*
X116967000Y-108331000D03*
D15*
X112280000Y-99679000D03*
X112280000Y-102219000D03*
X103025000Y-110775000D03*
X100375000Y-111725000D03*
D14*
X108579556Y-108128936D03*
D15*
X100375000Y-110775000D03*
X112280000Y-110220000D03*
D14*
X95700000Y-99575000D03*
D15*
X113804000Y-102219000D03*
X100325000Y-112775000D03*
X114058000Y-111490000D03*
X113804000Y-103616000D03*
X113804000Y-110220000D03*
X117750000Y-110900000D03*
X98500000Y-102990000D03*
D14*
X112915000Y-104632000D03*
X116967000Y-107467400D03*
X116967000Y-104876600D03*
D15*
X114058000Y-99679000D03*
D14*
X107061000Y-112522000D03*
X95700000Y-97150000D03*
X116967000Y-106603800D03*
D15*
X114058000Y-100949000D03*
X117700000Y-101250000D03*
X103025000Y-111725000D03*
D14*
%TO.N,Net-(C27-Pad1)*%
X108835546Y-105575500D03*
X106426000Y-109093000D03*
%TO.N,/MP4322/PREFUSE*%
X120370600Y-108458000D03*
X119405400Y-108458000D03*
X119430800Y-107683300D03*
X118491000Y-104724200D03*
X120370600Y-107645200D03*
X118491000Y-107721400D03*
X120370600Y-103987600D03*
X119430800Y-104762300D03*
X120370600Y-104800400D03*
X119405400Y-103987600D03*
D15*
%TO.N,+3.3V*%
X122800000Y-104600000D03*
X121750000Y-108900000D03*
X121750000Y-103650000D03*
X121750000Y-109850000D03*
X122800000Y-108900000D03*
X122800000Y-102700000D03*
X121750000Y-107950000D03*
X122800000Y-103650000D03*
X121750000Y-102700000D03*
X121750000Y-104600000D03*
X122800000Y-107950000D03*
X122800000Y-109850000D03*
%TO.N,12V_FILTERED*%
X109950000Y-112850000D03*
X111150000Y-99500000D03*
X111150000Y-102000000D03*
X102950000Y-107100000D03*
X109950000Y-110250000D03*
X111150000Y-100750000D03*
X109900000Y-102100000D03*
X100350000Y-105100000D03*
X103000000Y-105100000D03*
X111200000Y-110250000D03*
X100350000Y-106050000D03*
X111200000Y-112750000D03*
X109900000Y-99500000D03*
X100300000Y-107100000D03*
X111200000Y-111500000D03*
X103000000Y-106050000D03*
%TD*%
D16*
%TO.N,Net-(C27-Pad1)*%
X106426000Y-109093000D02*
X106426000Y-106832400D01*
X106426000Y-106832400D02*
X107682900Y-105575500D01*
X107682900Y-105575500D02*
X108835546Y-105575500D01*
%TD*%
M02*
