%TF.GenerationSoftware,KiCad,Pcbnew,(6.0.8)*%
%TF.CreationDate,2024-10-13T14:56:53+02:00*%
%TF.ProjectId,MP4322_TestBoard,4d503433-3232-45f5-9465-7374426f6172,rev?*%
%TF.SameCoordinates,Original*%
%TF.FileFunction,Copper,L3,Inr*%
%TF.FilePolarity,Positive*%
%FSLAX46Y46*%
G04 Gerber Fmt 4.6, Leading zero omitted, Abs format (unit mm)*
G04 Created by KiCad (PCBNEW (6.0.8)) date 2024-10-13 14:56:53*
%MOMM*%
%LPD*%
G01*
G04 APERTURE LIST*
G04 Aperture macros list*
%AMRoundRect*
0 Rectangle with rounded corners*
0 $1 Rounding radius*
0 $2 $3 $4 $5 $6 $7 $8 $9 X,Y pos of 4 corners*
0 Add a 4 corners polygon primitive as box body*
4,1,4,$2,$3,$4,$5,$6,$7,$8,$9,$2,$3,0*
0 Add four circle primitives for the rounded corners*
1,1,$1+$1,$2,$3*
1,1,$1+$1,$4,$5*
1,1,$1+$1,$6,$7*
1,1,$1+$1,$8,$9*
0 Add four rect primitives between the rounded corners*
20,1,$1+$1,$2,$3,$4,$5,0*
20,1,$1+$1,$4,$5,$6,$7,0*
20,1,$1+$1,$6,$7,$8,$9,0*
20,1,$1+$1,$8,$9,$2,$3,0*%
G04 Aperture macros list end*
%TA.AperFunction,ComponentPad*%
%ADD10C,2.600000*%
%TD*%
%TA.AperFunction,ComponentPad*%
%ADD11O,2.000000X1.700000*%
%TD*%
%TA.AperFunction,ComponentPad*%
%ADD12RoundRect,0.250000X0.750000X-0.600000X0.750000X0.600000X-0.750000X0.600000X-0.750000X-0.600000X0*%
%TD*%
%TA.AperFunction,ViaPad*%
%ADD13C,0.600000*%
%TD*%
%TA.AperFunction,ViaPad*%
%ADD14C,0.800000*%
%TD*%
G04 APERTURE END LIST*
D10*
%TO.N,GND*%
%TO.C,H3*%
X94400000Y-114150000D03*
%TD*%
%TO.N,GND*%
%TO.C,H2*%
X126150000Y-114150000D03*
%TD*%
%TO.N,GND*%
%TO.C,H1*%
X126150000Y-98550000D03*
%TD*%
D11*
%TO.N,+3.3V*%
%TO.C,J2*%
X125500000Y-105050000D03*
D12*
%TO.N,GND*%
X125500000Y-107550000D03*
%TD*%
D11*
%TO.N,+12V*%
%TO.C,J1*%
X94350000Y-105175000D03*
D12*
%TO.N,GND*%
X94350000Y-107675000D03*
%TD*%
D13*
%TO.N,GND*%
X112915000Y-107807000D03*
D14*
X105420000Y-102990000D03*
D13*
X116967000Y-105740200D03*
D14*
X102975000Y-112775000D03*
D13*
X106426000Y-104648000D03*
D14*
X114058000Y-112760000D03*
X112280000Y-112760000D03*
D13*
X116967000Y-104013000D03*
X116967000Y-108331000D03*
D14*
X112280000Y-99679000D03*
X112280000Y-102219000D03*
X103025000Y-110775000D03*
X100375000Y-111725000D03*
D13*
X108579556Y-108128936D03*
D14*
X100375000Y-110775000D03*
X112280000Y-110220000D03*
D13*
X95700000Y-99575000D03*
D14*
X113804000Y-102219000D03*
X100325000Y-112775000D03*
X114058000Y-111490000D03*
X113804000Y-103616000D03*
X113804000Y-110220000D03*
X117750000Y-110900000D03*
X98500000Y-102990000D03*
D13*
X112915000Y-104632000D03*
X116967000Y-107467400D03*
X116967000Y-104876600D03*
D14*
X114058000Y-99679000D03*
D13*
X107061000Y-112522000D03*
X95700000Y-97150000D03*
X116967000Y-106603800D03*
D14*
X114058000Y-100949000D03*
X117700000Y-101250000D03*
X103025000Y-111725000D03*
D13*
%TO.N,Net-(C27-Pad1)*%
X108835546Y-105575500D03*
X106426000Y-109093000D03*
%TO.N,/MP4322/PREFUSE*%
X120370600Y-108458000D03*
X119405400Y-108458000D03*
X119430800Y-107683300D03*
X118491000Y-104724200D03*
X120370600Y-107645200D03*
X118491000Y-107721400D03*
X120370600Y-103987600D03*
X119430800Y-104762300D03*
X120370600Y-104800400D03*
X119405400Y-103987600D03*
D14*
%TO.N,+3.3V*%
X122800000Y-104600000D03*
X121750000Y-108900000D03*
X121750000Y-103650000D03*
X121750000Y-109850000D03*
X122800000Y-108900000D03*
X122800000Y-102700000D03*
X121750000Y-107950000D03*
X122800000Y-103650000D03*
X121750000Y-102700000D03*
X121750000Y-104600000D03*
X122800000Y-107950000D03*
X122800000Y-109850000D03*
%TO.N,12V_FILTERED*%
X109950000Y-112850000D03*
X111150000Y-99500000D03*
X111150000Y-102000000D03*
X102950000Y-107100000D03*
X109950000Y-110250000D03*
X111150000Y-100750000D03*
X109900000Y-102100000D03*
X100350000Y-105100000D03*
X103000000Y-105100000D03*
X111200000Y-110250000D03*
X100350000Y-106050000D03*
X111200000Y-112750000D03*
X109900000Y-99500000D03*
X100300000Y-107100000D03*
X111200000Y-111500000D03*
X103000000Y-106050000D03*
%TD*%
%TA.AperFunction,Conductor*%
%TO.N,/MP4322/PREFUSE*%
G36*
X120719121Y-101112002D02*
G01*
X120765614Y-101165658D01*
X120777000Y-101218000D01*
X120777000Y-105105200D01*
X120784396Y-105112274D01*
X120784396Y-105112275D01*
X121322294Y-105626786D01*
X121357695Y-105688327D01*
X121361200Y-105717839D01*
X121361200Y-106895849D01*
X121341198Y-106963970D01*
X121310094Y-106997174D01*
X120777000Y-107391200D01*
X120777000Y-111126000D01*
X120756998Y-111194121D01*
X120703342Y-111240614D01*
X120651000Y-111252000D01*
X119125000Y-111252000D01*
X119056879Y-111231998D01*
X119010386Y-111178342D01*
X118999000Y-111126000D01*
X118999000Y-108458000D01*
X118982458Y-108450481D01*
X118982457Y-108450480D01*
X117675861Y-107856573D01*
X117622123Y-107810175D01*
X117602000Y-107741867D01*
X117602000Y-104844167D01*
X117622002Y-104776046D01*
X117660354Y-104737866D01*
X118983715Y-103895727D01*
X118999000Y-103886000D01*
X118999000Y-101218000D01*
X119019002Y-101149879D01*
X119072658Y-101103386D01*
X119125000Y-101092000D01*
X120651000Y-101092000D01*
X120719121Y-101112002D01*
G37*
%TD.AperFunction*%
%TD*%
%TA.AperFunction,Conductor*%
%TO.N,12V_FILTERED*%
G36*
X111542121Y-99220002D02*
G01*
X111588614Y-99273658D01*
X111600000Y-99326000D01*
X111600000Y-99448879D01*
X111592843Y-99486941D01*
X111593366Y-99487075D01*
X111591477Y-99494433D01*
X111588718Y-99501509D01*
X111566335Y-99671526D01*
X111585153Y-99841975D01*
X111592326Y-99861575D01*
X111600000Y-99904876D01*
X111600000Y-101988879D01*
X111592843Y-102026941D01*
X111593366Y-102027075D01*
X111591477Y-102034433D01*
X111588718Y-102041509D01*
X111566335Y-102211526D01*
X111585153Y-102381975D01*
X111591643Y-102399709D01*
X111592326Y-102401575D01*
X111600000Y-102444876D01*
X111600000Y-109989879D01*
X111592843Y-110027941D01*
X111593366Y-110028075D01*
X111591477Y-110035433D01*
X111588718Y-110042509D01*
X111587727Y-110050038D01*
X111569440Y-110188943D01*
X111566335Y-110212526D01*
X111585153Y-110382975D01*
X111592326Y-110402575D01*
X111600000Y-110445876D01*
X111600000Y-112529879D01*
X111592843Y-112567941D01*
X111593366Y-112568075D01*
X111591477Y-112575433D01*
X111588718Y-112582509D01*
X111566335Y-112752526D01*
X111585153Y-112922975D01*
X111592326Y-112942575D01*
X111600000Y-112985876D01*
X111600000Y-113074000D01*
X111579998Y-113142121D01*
X111526342Y-113188614D01*
X111474000Y-113200000D01*
X109176000Y-113200000D01*
X109107879Y-113179998D01*
X109061386Y-113126342D01*
X109050000Y-113074000D01*
X109050000Y-108558184D01*
X109070002Y-108490063D01*
X109076037Y-108481480D01*
X109106053Y-108442362D01*
X109111080Y-108435811D01*
X109172394Y-108287786D01*
X109193307Y-108128936D01*
X109172394Y-107970086D01*
X109111080Y-107822061D01*
X109076037Y-107776392D01*
X109050437Y-107710172D01*
X109050000Y-107699688D01*
X109050000Y-107600000D01*
X108917743Y-107600000D01*
X108869525Y-107590409D01*
X108746036Y-107539258D01*
X108746033Y-107539257D01*
X108738406Y-107536098D01*
X108579556Y-107515185D01*
X108420706Y-107536098D01*
X108413077Y-107539258D01*
X108289588Y-107590409D01*
X108241370Y-107600000D01*
X99986000Y-107600000D01*
X99917879Y-107579998D01*
X99871386Y-107526342D01*
X99860000Y-107474000D01*
X99860000Y-104874103D01*
X99880002Y-104805982D01*
X99933658Y-104759489D01*
X99986011Y-104748103D01*
X103976682Y-104748442D01*
X103979855Y-104748482D01*
X103983774Y-104748581D01*
X103985792Y-104748632D01*
X104974126Y-104748899D01*
X105725085Y-104749102D01*
X105793200Y-104769122D01*
X105841460Y-104826884D01*
X105894476Y-104954875D01*
X105923185Y-104992289D01*
X105986984Y-105075434D01*
X105986987Y-105075437D01*
X105992013Y-105081987D01*
X105998563Y-105087013D01*
X105998564Y-105087014D01*
X106063038Y-105136487D01*
X106119124Y-105179524D01*
X106126750Y-105182683D01*
X106126752Y-105182684D01*
X106259520Y-105237678D01*
X106259523Y-105237679D01*
X106267150Y-105240838D01*
X106426000Y-105261751D01*
X106434188Y-105260673D01*
X106576662Y-105241916D01*
X106584850Y-105240838D01*
X106592477Y-105237679D01*
X106592480Y-105237678D01*
X106725248Y-105182684D01*
X106725250Y-105182683D01*
X106732876Y-105179524D01*
X106788962Y-105136487D01*
X106853436Y-105087014D01*
X106853437Y-105087013D01*
X106859987Y-105081987D01*
X106865013Y-105075437D01*
X106865016Y-105075434D01*
X106928815Y-104992289D01*
X106957524Y-104954875D01*
X107010383Y-104827262D01*
X107054931Y-104771981D01*
X107126824Y-104749480D01*
X108286161Y-104749794D01*
X108605271Y-104749880D01*
X108673386Y-104769900D01*
X108719865Y-104823569D01*
X108729950Y-104893845D01*
X108700439Y-104958418D01*
X108653456Y-104992288D01*
X108528671Y-105043976D01*
X108401559Y-105141513D01*
X108304022Y-105268625D01*
X108242708Y-105416650D01*
X108221795Y-105575500D01*
X108242708Y-105734350D01*
X108304022Y-105882375D01*
X108352791Y-105945931D01*
X108396530Y-106002934D01*
X108396533Y-106002937D01*
X108401559Y-106009487D01*
X108528670Y-106107024D01*
X108536296Y-106110183D01*
X108536298Y-106110184D01*
X108669066Y-106165178D01*
X108669069Y-106165179D01*
X108676696Y-106168338D01*
X108835546Y-106189251D01*
X108843734Y-106188173D01*
X108986208Y-106169416D01*
X108994396Y-106168338D01*
X109002023Y-106165179D01*
X109002026Y-106165178D01*
X109134794Y-106110184D01*
X109134796Y-106110183D01*
X109142422Y-106107024D01*
X109269533Y-106009487D01*
X109274559Y-106002937D01*
X109274562Y-106002934D01*
X109318301Y-105945931D01*
X109367070Y-105882375D01*
X109428384Y-105734350D01*
X109449297Y-105575500D01*
X109428384Y-105416650D01*
X109367070Y-105268625D01*
X109298700Y-105179524D01*
X109274562Y-105148066D01*
X109274559Y-105148063D01*
X109269533Y-105141513D01*
X109198510Y-105087014D01*
X109148972Y-105049002D01*
X109142422Y-105043976D01*
X109011219Y-104989630D01*
X108955939Y-104945083D01*
X108933518Y-104877720D01*
X108951076Y-104808928D01*
X109003038Y-104760550D01*
X109023971Y-104752317D01*
X109031886Y-104749995D01*
X109050000Y-104750000D01*
X109050000Y-99326000D01*
X109070002Y-99257879D01*
X109123658Y-99211386D01*
X109176000Y-99200000D01*
X111474000Y-99200000D01*
X111542121Y-99220002D01*
G37*
%TD.AperFunction*%
%TD*%
%TA.AperFunction,Conductor*%
%TO.N,+3.3V*%
G36*
X95218679Y-96553502D02*
G01*
X95265172Y-96607158D01*
X95275276Y-96677432D01*
X95250520Y-96736203D01*
X95168476Y-96843125D01*
X95107162Y-96991150D01*
X95086249Y-97150000D01*
X95107162Y-97308850D01*
X95168476Y-97456875D01*
X95217245Y-97520431D01*
X95260984Y-97577434D01*
X95260987Y-97577437D01*
X95266013Y-97583987D01*
X95272563Y-97589013D01*
X95272564Y-97589014D01*
X95294489Y-97605838D01*
X95393124Y-97681524D01*
X95400750Y-97684683D01*
X95400752Y-97684684D01*
X95533520Y-97739678D01*
X95533523Y-97739679D01*
X95541150Y-97742838D01*
X95700000Y-97763751D01*
X95708188Y-97762673D01*
X95850662Y-97743916D01*
X95858850Y-97742838D01*
X95866477Y-97739679D01*
X95866480Y-97739678D01*
X95999248Y-97684684D01*
X95999250Y-97684683D01*
X96006876Y-97681524D01*
X96105511Y-97605838D01*
X96127436Y-97589014D01*
X96127437Y-97589013D01*
X96133987Y-97583987D01*
X96139013Y-97577437D01*
X96139016Y-97577434D01*
X96182755Y-97520431D01*
X96231524Y-97456875D01*
X96292838Y-97308850D01*
X96313751Y-97150000D01*
X96292838Y-96991150D01*
X96231524Y-96843125D01*
X96149480Y-96736204D01*
X96123879Y-96669984D01*
X96138143Y-96600435D01*
X96187745Y-96549639D01*
X96249442Y-96533500D01*
X128065500Y-96533500D01*
X128133621Y-96553502D01*
X128180114Y-96607158D01*
X128191500Y-96659500D01*
X128191500Y-116065500D01*
X128171498Y-116133621D01*
X128117842Y-116180114D01*
X128065500Y-116191500D01*
X92459500Y-116191500D01*
X92391379Y-116171498D01*
X92344886Y-116117842D01*
X92333500Y-116065500D01*
X92333500Y-114150000D01*
X92786526Y-114150000D01*
X92806391Y-114402403D01*
X92865495Y-114648591D01*
X92962384Y-114882502D01*
X93094672Y-115098376D01*
X93259102Y-115290898D01*
X93451624Y-115455328D01*
X93667498Y-115587616D01*
X93672068Y-115589509D01*
X93672072Y-115589511D01*
X93896836Y-115682611D01*
X93901409Y-115684505D01*
X93986032Y-115704821D01*
X94142784Y-115742454D01*
X94142790Y-115742455D01*
X94147597Y-115743609D01*
X94400000Y-115763474D01*
X94652403Y-115743609D01*
X94657210Y-115742455D01*
X94657216Y-115742454D01*
X94813968Y-115704821D01*
X94898591Y-115684505D01*
X94903164Y-115682611D01*
X95127928Y-115589511D01*
X95127932Y-115589509D01*
X95132502Y-115587616D01*
X95348376Y-115455328D01*
X95540898Y-115290898D01*
X95705328Y-115098376D01*
X95837616Y-114882502D01*
X95934505Y-114648591D01*
X95993609Y-114402403D01*
X96013474Y-114150000D01*
X124536526Y-114150000D01*
X124556391Y-114402403D01*
X124615495Y-114648591D01*
X124712384Y-114882502D01*
X124844672Y-115098376D01*
X125009102Y-115290898D01*
X125201624Y-115455328D01*
X125417498Y-115587616D01*
X125422068Y-115589509D01*
X125422072Y-115589511D01*
X125646836Y-115682611D01*
X125651409Y-115684505D01*
X125736032Y-115704821D01*
X125892784Y-115742454D01*
X125892790Y-115742455D01*
X125897597Y-115743609D01*
X126150000Y-115763474D01*
X126402403Y-115743609D01*
X126407210Y-115742455D01*
X126407216Y-115742454D01*
X126563968Y-115704821D01*
X126648591Y-115684505D01*
X126653164Y-115682611D01*
X126877928Y-115589511D01*
X126877932Y-115589509D01*
X126882502Y-115587616D01*
X127098376Y-115455328D01*
X127290898Y-115290898D01*
X127455328Y-115098376D01*
X127587616Y-114882502D01*
X127684505Y-114648591D01*
X127743609Y-114402403D01*
X127763474Y-114150000D01*
X127743609Y-113897597D01*
X127684505Y-113651409D01*
X127646508Y-113559675D01*
X127589511Y-113422072D01*
X127589509Y-113422068D01*
X127587616Y-113417498D01*
X127455328Y-113201624D01*
X127290898Y-113009102D01*
X127098376Y-112844672D01*
X126882502Y-112712384D01*
X126877932Y-112710491D01*
X126877928Y-112710489D01*
X126653164Y-112617389D01*
X126653162Y-112617388D01*
X126648591Y-112615495D01*
X126541388Y-112589758D01*
X126407216Y-112557546D01*
X126407210Y-112557545D01*
X126402403Y-112556391D01*
X126150000Y-112536526D01*
X125897597Y-112556391D01*
X125892790Y-112557545D01*
X125892784Y-112557546D01*
X125758612Y-112589758D01*
X125651409Y-112615495D01*
X125646838Y-112617388D01*
X125646836Y-112617389D01*
X125422072Y-112710489D01*
X125422068Y-112710491D01*
X125417498Y-112712384D01*
X125201624Y-112844672D01*
X125009102Y-113009102D01*
X124844672Y-113201624D01*
X124712384Y-113417498D01*
X124710491Y-113422068D01*
X124710489Y-113422072D01*
X124653492Y-113559675D01*
X124615495Y-113651409D01*
X124556391Y-113897597D01*
X124536526Y-114150000D01*
X96013474Y-114150000D01*
X95993609Y-113897597D01*
X95934505Y-113651409D01*
X95896508Y-113559675D01*
X95839511Y-113422072D01*
X95839509Y-113422068D01*
X95837616Y-113417498D01*
X95705328Y-113201624D01*
X95540898Y-113009102D01*
X95348376Y-112844672D01*
X95222485Y-112767526D01*
X99611335Y-112767526D01*
X99630153Y-112937975D01*
X99632762Y-112945106D01*
X99632763Y-112945108D01*
X99638584Y-112961014D01*
X99689085Y-113099015D01*
X99693322Y-113105321D01*
X99693324Y-113105324D01*
X99719273Y-113143939D01*
X99784730Y-113241349D01*
X99848147Y-113299054D01*
X99888790Y-113336036D01*
X99911565Y-113356760D01*
X100062268Y-113438585D01*
X100228139Y-113482101D01*
X100315586Y-113483474D01*
X100392003Y-113484675D01*
X100392006Y-113484675D01*
X100399602Y-113484794D01*
X100407006Y-113483098D01*
X100407008Y-113483098D01*
X100485272Y-113465173D01*
X100566759Y-113446510D01*
X100719958Y-113369459D01*
X100725729Y-113364530D01*
X100725732Y-113364528D01*
X100844578Y-113263023D01*
X100850355Y-113258089D01*
X100934753Y-113140638D01*
X100945992Y-113124998D01*
X100945993Y-113124997D01*
X100950424Y-113118830D01*
X101014385Y-112959720D01*
X101038547Y-112789947D01*
X101038704Y-112775000D01*
X101037799Y-112767526D01*
X102261335Y-112767526D01*
X102280153Y-112937975D01*
X102282762Y-112945106D01*
X102282763Y-112945108D01*
X102288584Y-112961014D01*
X102339085Y-113099015D01*
X102343322Y-113105321D01*
X102343324Y-113105324D01*
X102369273Y-113143939D01*
X102434730Y-113241349D01*
X102498147Y-113299054D01*
X102538790Y-113336036D01*
X102561565Y-113356760D01*
X102712268Y-113438585D01*
X102878139Y-113482101D01*
X102965586Y-113483474D01*
X103042003Y-113484675D01*
X103042006Y-113484675D01*
X103049602Y-113484794D01*
X103057006Y-113483098D01*
X103057008Y-113483098D01*
X103135272Y-113465173D01*
X103216759Y-113446510D01*
X103369958Y-113369459D01*
X103375729Y-113364530D01*
X103375732Y-113364528D01*
X103494578Y-113263023D01*
X103500355Y-113258089D01*
X103584753Y-113140638D01*
X103595992Y-113124998D01*
X103595993Y-113124997D01*
X103600424Y-113118830D01*
X103664385Y-112959720D01*
X103688547Y-112789947D01*
X103688704Y-112775000D01*
X103681439Y-112714970D01*
X103669015Y-112612299D01*
X103669014Y-112612296D01*
X103668102Y-112604758D01*
X103665284Y-112597299D01*
X103636831Y-112522000D01*
X106447249Y-112522000D01*
X106468162Y-112680850D01*
X106529476Y-112828875D01*
X106578244Y-112892431D01*
X106621984Y-112949434D01*
X106621987Y-112949437D01*
X106627013Y-112955987D01*
X106633563Y-112961013D01*
X106633564Y-112961014D01*
X106692052Y-113005894D01*
X106754124Y-113053524D01*
X106761750Y-113056683D01*
X106761752Y-113056684D01*
X106894520Y-113111678D01*
X106894523Y-113111679D01*
X106902150Y-113114838D01*
X107061000Y-113135751D01*
X107069188Y-113134673D01*
X107211662Y-113115916D01*
X107219850Y-113114838D01*
X107227477Y-113111679D01*
X107227480Y-113111678D01*
X107360248Y-113056684D01*
X107360250Y-113056683D01*
X107367876Y-113053524D01*
X107429948Y-113005894D01*
X107488436Y-112961014D01*
X107488437Y-112961013D01*
X107494987Y-112955987D01*
X107500013Y-112949437D01*
X107500016Y-112949434D01*
X107543755Y-112892431D01*
X107592524Y-112828875D01*
X107653838Y-112680850D01*
X107674751Y-112522000D01*
X107653838Y-112363150D01*
X107592524Y-112215125D01*
X107523263Y-112124863D01*
X107500016Y-112094566D01*
X107500013Y-112094563D01*
X107494987Y-112088013D01*
X107460807Y-112061785D01*
X107374426Y-111995502D01*
X107367876Y-111990476D01*
X107360250Y-111987317D01*
X107360248Y-111987316D01*
X107227480Y-111932322D01*
X107227477Y-111932321D01*
X107219850Y-111929162D01*
X107061000Y-111908249D01*
X106902150Y-111929162D01*
X106754125Y-111990476D01*
X106627013Y-112088013D01*
X106529476Y-112215125D01*
X106468162Y-112363150D01*
X106447249Y-112522000D01*
X103636831Y-112522000D01*
X103610171Y-112451447D01*
X103607487Y-112444344D01*
X103546466Y-112355558D01*
X103524367Y-112288091D01*
X103542252Y-112219384D01*
X103550577Y-112208248D01*
X103550355Y-112208089D01*
X103645992Y-112074998D01*
X103645993Y-112074997D01*
X103650424Y-112068830D01*
X103714385Y-111909720D01*
X103738547Y-111739947D01*
X103738704Y-111725000D01*
X103724451Y-111607220D01*
X103719015Y-111562299D01*
X103719014Y-111562296D01*
X103718102Y-111554758D01*
X103709805Y-111532799D01*
X103660171Y-111401447D01*
X103657487Y-111394344D01*
X103607406Y-111321475D01*
X103585306Y-111254007D01*
X103603191Y-111185300D01*
X103608924Y-111176582D01*
X103625808Y-111153086D01*
X103650424Y-111118830D01*
X103714385Y-110959720D01*
X103720757Y-110914947D01*
X103737966Y-110794031D01*
X103737966Y-110794027D01*
X103738547Y-110789947D01*
X103738704Y-110775000D01*
X103734258Y-110738262D01*
X103719015Y-110612299D01*
X103719014Y-110612296D01*
X103718102Y-110604758D01*
X103707405Y-110576447D01*
X103660171Y-110451447D01*
X103657487Y-110444344D01*
X103560357Y-110303019D01*
X103554686Y-110297966D01*
X103437993Y-110193996D01*
X103437990Y-110193994D01*
X103432321Y-110188943D01*
X103424325Y-110184709D01*
X103287481Y-110112254D01*
X103287482Y-110112254D01*
X103280769Y-110108700D01*
X103263196Y-110104286D01*
X103121822Y-110068775D01*
X103121818Y-110068775D01*
X103114451Y-110066924D01*
X103106852Y-110066884D01*
X103106850Y-110066884D01*
X103035394Y-110066510D01*
X102942969Y-110066026D01*
X102935589Y-110067798D01*
X102935587Y-110067798D01*
X102783602Y-110104286D01*
X102783598Y-110104287D01*
X102776223Y-110106058D01*
X102623839Y-110184709D01*
X102494615Y-110297439D01*
X102396010Y-110437739D01*
X102386876Y-110461167D01*
X102341930Y-110576447D01*
X102333718Y-110597509D01*
X102332726Y-110605042D01*
X102332726Y-110605043D01*
X102313714Y-110749456D01*
X102311335Y-110767526D01*
X102315972Y-110809528D01*
X102329250Y-110929794D01*
X102330153Y-110937975D01*
X102332762Y-110945106D01*
X102332763Y-110945108D01*
X102340317Y-110965750D01*
X102389085Y-111099015D01*
X102393322Y-111105321D01*
X102393324Y-111105324D01*
X102443354Y-111179775D01*
X102464747Y-111247472D01*
X102446143Y-111315988D01*
X102441859Y-111322502D01*
X102400382Y-111381517D01*
X102400379Y-111381523D01*
X102396010Y-111387739D01*
X102375838Y-111439477D01*
X102351921Y-111500822D01*
X102333718Y-111547509D01*
X102332726Y-111555042D01*
X102332726Y-111555043D01*
X102325534Y-111609675D01*
X102311335Y-111717526D01*
X102330153Y-111887975D01*
X102332762Y-111895106D01*
X102332763Y-111895108D01*
X102340688Y-111916764D01*
X102389085Y-112049015D01*
X102393322Y-112055321D01*
X102393324Y-112055324D01*
X102454127Y-112145807D01*
X102475520Y-112213504D01*
X102456916Y-112282020D01*
X102446845Y-112295494D01*
X102444615Y-112297439D01*
X102346010Y-112437739D01*
X102316350Y-112513812D01*
X102286629Y-112590043D01*
X102283718Y-112597509D01*
X102282726Y-112605042D01*
X102282726Y-112605043D01*
X102263310Y-112752526D01*
X102261335Y-112767526D01*
X101037799Y-112767526D01*
X101031439Y-112714970D01*
X101019015Y-112612299D01*
X101019014Y-112612296D01*
X101018102Y-112604758D01*
X101015284Y-112597299D01*
X100960171Y-112451447D01*
X100957487Y-112444344D01*
X100896466Y-112355558D01*
X100874367Y-112288091D01*
X100892252Y-112219384D01*
X100900577Y-112208248D01*
X100900355Y-112208089D01*
X100995992Y-112074998D01*
X100995993Y-112074997D01*
X101000424Y-112068830D01*
X101064385Y-111909720D01*
X101088547Y-111739947D01*
X101088704Y-111725000D01*
X101074451Y-111607220D01*
X101069015Y-111562299D01*
X101069014Y-111562296D01*
X101068102Y-111554758D01*
X101059805Y-111532799D01*
X101010171Y-111401447D01*
X101007487Y-111394344D01*
X100957406Y-111321475D01*
X100935306Y-111254007D01*
X100953191Y-111185300D01*
X100958924Y-111176582D01*
X100975808Y-111153086D01*
X101000424Y-111118830D01*
X101064385Y-110959720D01*
X101070757Y-110914947D01*
X101087966Y-110794031D01*
X101087966Y-110794027D01*
X101088547Y-110789947D01*
X101088704Y-110775000D01*
X101084258Y-110738262D01*
X101069015Y-110612299D01*
X101069014Y-110612296D01*
X101068102Y-110604758D01*
X101057405Y-110576447D01*
X101010171Y-110451447D01*
X101007487Y-110444344D01*
X100910357Y-110303019D01*
X100904686Y-110297966D01*
X100787993Y-110193996D01*
X100787990Y-110193994D01*
X100782321Y-110188943D01*
X100774325Y-110184709D01*
X100637481Y-110112254D01*
X100637482Y-110112254D01*
X100630769Y-110108700D01*
X100613196Y-110104286D01*
X100471822Y-110068775D01*
X100471818Y-110068775D01*
X100464451Y-110066924D01*
X100456852Y-110066884D01*
X100456850Y-110066884D01*
X100385394Y-110066510D01*
X100292969Y-110066026D01*
X100285589Y-110067798D01*
X100285587Y-110067798D01*
X100133602Y-110104286D01*
X100133598Y-110104287D01*
X100126223Y-110106058D01*
X99973839Y-110184709D01*
X99844615Y-110297439D01*
X99746010Y-110437739D01*
X99736876Y-110461167D01*
X99691930Y-110576447D01*
X99683718Y-110597509D01*
X99682726Y-110605042D01*
X99682726Y-110605043D01*
X99663714Y-110749456D01*
X99661335Y-110767526D01*
X99665972Y-110809528D01*
X99679250Y-110929794D01*
X99680153Y-110937975D01*
X99682762Y-110945106D01*
X99682763Y-110945108D01*
X99690317Y-110965750D01*
X99739085Y-111099015D01*
X99743322Y-111105321D01*
X99743324Y-111105324D01*
X99793354Y-111179775D01*
X99814747Y-111247472D01*
X99796143Y-111315988D01*
X99791859Y-111322502D01*
X99750382Y-111381517D01*
X99750379Y-111381523D01*
X99746010Y-111387739D01*
X99725838Y-111439477D01*
X99701921Y-111500822D01*
X99683718Y-111547509D01*
X99682726Y-111555042D01*
X99682726Y-111555043D01*
X99675534Y-111609675D01*
X99661335Y-111717526D01*
X99680153Y-111887975D01*
X99682762Y-111895106D01*
X99682763Y-111895108D01*
X99690688Y-111916764D01*
X99739085Y-112049015D01*
X99743322Y-112055321D01*
X99743324Y-112055324D01*
X99804127Y-112145807D01*
X99825520Y-112213504D01*
X99806916Y-112282020D01*
X99796845Y-112295494D01*
X99794615Y-112297439D01*
X99696010Y-112437739D01*
X99666350Y-112513812D01*
X99636629Y-112590043D01*
X99633718Y-112597509D01*
X99632726Y-112605042D01*
X99632726Y-112605043D01*
X99613310Y-112752526D01*
X99611335Y-112767526D01*
X95222485Y-112767526D01*
X95132502Y-112712384D01*
X95127932Y-112710491D01*
X95127928Y-112710489D01*
X94903164Y-112617389D01*
X94903162Y-112617388D01*
X94898591Y-112615495D01*
X94791388Y-112589758D01*
X94657216Y-112557546D01*
X94657210Y-112557545D01*
X94652403Y-112556391D01*
X94400000Y-112536526D01*
X94147597Y-112556391D01*
X94142790Y-112557545D01*
X94142784Y-112557546D01*
X94008612Y-112589758D01*
X93901409Y-112615495D01*
X93896838Y-112617388D01*
X93896836Y-112617389D01*
X93672072Y-112710489D01*
X93672068Y-112710491D01*
X93667498Y-112712384D01*
X93451624Y-112844672D01*
X93259102Y-113009102D01*
X93094672Y-113201624D01*
X92962384Y-113417498D01*
X92960491Y-113422068D01*
X92960489Y-113422072D01*
X92903492Y-113559675D01*
X92865495Y-113651409D01*
X92806391Y-113897597D01*
X92786526Y-114150000D01*
X92333500Y-114150000D01*
X92333500Y-109093000D01*
X105812249Y-109093000D01*
X105833162Y-109251850D01*
X105894476Y-109399875D01*
X105918488Y-109431168D01*
X105986984Y-109520434D01*
X105986987Y-109520437D01*
X105992013Y-109526987D01*
X105998563Y-109532013D01*
X105998564Y-109532014D01*
X106027919Y-109554539D01*
X106119124Y-109624524D01*
X106126750Y-109627683D01*
X106126752Y-109627684D01*
X106259520Y-109682678D01*
X106259523Y-109682679D01*
X106267150Y-109685838D01*
X106426000Y-109706751D01*
X106434188Y-109705673D01*
X106576662Y-109686916D01*
X106584850Y-109685838D01*
X106592477Y-109682679D01*
X106592480Y-109682678D01*
X106725248Y-109627684D01*
X106725250Y-109627683D01*
X106732876Y-109624524D01*
X106824081Y-109554539D01*
X106853436Y-109532014D01*
X106853437Y-109532013D01*
X106859987Y-109526987D01*
X106865013Y-109520437D01*
X106865016Y-109520434D01*
X106933512Y-109431168D01*
X106957524Y-109399875D01*
X107018838Y-109251850D01*
X107039751Y-109093000D01*
X107018838Y-108934150D01*
X106957524Y-108786125D01*
X106890249Y-108698451D01*
X106865016Y-108665566D01*
X106865013Y-108665563D01*
X106859987Y-108659013D01*
X106840824Y-108644308D01*
X106739426Y-108566502D01*
X106732876Y-108561476D01*
X106725250Y-108558317D01*
X106725248Y-108558316D01*
X106592480Y-108503322D01*
X106592477Y-108503321D01*
X106584850Y-108500162D01*
X106426000Y-108479249D01*
X106267150Y-108500162D01*
X106119125Y-108561476D01*
X105992013Y-108659013D01*
X105894476Y-108786125D01*
X105833162Y-108934150D01*
X105812249Y-109093000D01*
X92333500Y-109093000D01*
X92333500Y-105266284D01*
X93040124Y-105266284D01*
X93041103Y-105271981D01*
X93041103Y-105271982D01*
X93074601Y-105466928D01*
X93076181Y-105476126D01*
X93149875Y-105675884D01*
X93258739Y-105858866D01*
X93399125Y-106018946D01*
X93566333Y-106150762D01*
X93571444Y-106153451D01*
X93571447Y-106153453D01*
X93674961Y-106207915D01*
X93754762Y-106249900D01*
X93820037Y-106270168D01*
X93879161Y-106309471D01*
X93907651Y-106374500D01*
X93896461Y-106444609D01*
X93849144Y-106497539D01*
X93782671Y-106516500D01*
X93556608Y-106516500D01*
X93498338Y-106523551D01*
X93473566Y-106526549D01*
X93473565Y-106526549D01*
X93465527Y-106527522D01*
X93323253Y-106583852D01*
X93201368Y-106676368D01*
X93108852Y-106798253D01*
X93052522Y-106940527D01*
X93041500Y-107031608D01*
X93041500Y-108318392D01*
X93044017Y-108339188D01*
X93050974Y-108396678D01*
X93052522Y-108409473D01*
X93108852Y-108551747D01*
X93201368Y-108673632D01*
X93323253Y-108766148D01*
X93465527Y-108822478D01*
X93473565Y-108823451D01*
X93473566Y-108823451D01*
X93498338Y-108826449D01*
X93556608Y-108833500D01*
X95143392Y-108833500D01*
X95201662Y-108826449D01*
X95226434Y-108823451D01*
X95226435Y-108823451D01*
X95234473Y-108822478D01*
X95376747Y-108766148D01*
X95498632Y-108673632D01*
X95591148Y-108551747D01*
X95647478Y-108409473D01*
X95649027Y-108396678D01*
X95655983Y-108339188D01*
X95658500Y-108318392D01*
X95658500Y-107474000D01*
X99546500Y-107474000D01*
X99546860Y-107477346D01*
X99546860Y-107477351D01*
X99550537Y-107511548D01*
X99553664Y-107540638D01*
X99565050Y-107592980D01*
X99576295Y-107632189D01*
X99580273Y-107638990D01*
X99580273Y-107638991D01*
X99631521Y-107726619D01*
X99631524Y-107726623D01*
X99634458Y-107731640D01*
X99680951Y-107785296D01*
X99726859Y-107828581D01*
X99829556Y-107880799D01*
X99835142Y-107882439D01*
X99835144Y-107882440D01*
X99856516Y-107888715D01*
X99897677Y-107900801D01*
X99902133Y-107901442D01*
X99902139Y-107901443D01*
X99949235Y-107908214D01*
X99986000Y-107913500D01*
X107850492Y-107913500D01*
X107918613Y-107933502D01*
X107965106Y-107987158D01*
X107975414Y-108055946D01*
X107965805Y-108128936D01*
X107986718Y-108287786D01*
X108048032Y-108435811D01*
X108082191Y-108480327D01*
X108140540Y-108556370D01*
X108140543Y-108556373D01*
X108145569Y-108562923D01*
X108152119Y-108567949D01*
X108152120Y-108567950D01*
X108251787Y-108644428D01*
X108272680Y-108660460D01*
X108280306Y-108663619D01*
X108280308Y-108663620D01*
X108413076Y-108718614D01*
X108413079Y-108718615D01*
X108420706Y-108721774D01*
X108579556Y-108742687D01*
X108594053Y-108740778D01*
X108664200Y-108751716D01*
X108717300Y-108798843D01*
X108736500Y-108865700D01*
X108736500Y-113074000D01*
X108736860Y-113077346D01*
X108736860Y-113077351D01*
X108743139Y-113135751D01*
X108743664Y-113140638D01*
X108755050Y-113192980D01*
X108766295Y-113232189D01*
X108770273Y-113238990D01*
X108770273Y-113238991D01*
X108821521Y-113326619D01*
X108821524Y-113326623D01*
X108824458Y-113331640D01*
X108870951Y-113385296D01*
X108900629Y-113413278D01*
X108909956Y-113422072D01*
X108916859Y-113428581D01*
X109019556Y-113480799D01*
X109025142Y-113482439D01*
X109025144Y-113482440D01*
X109047307Y-113488947D01*
X109087677Y-113500801D01*
X109092133Y-113501442D01*
X109092139Y-113501443D01*
X109128691Y-113506698D01*
X109176000Y-113513500D01*
X109670690Y-113513500D01*
X109702663Y-113517624D01*
X109853139Y-113557101D01*
X109940586Y-113558474D01*
X110017003Y-113559675D01*
X110017006Y-113559675D01*
X110024602Y-113559794D01*
X110032006Y-113558098D01*
X110032008Y-113558098D01*
X110184356Y-113523206D01*
X110184360Y-113523205D01*
X110191759Y-113521510D01*
X110194072Y-113520347D01*
X110233305Y-113513500D01*
X111474000Y-113513500D01*
X111477346Y-113513140D01*
X111477351Y-113513140D01*
X111537274Y-113506698D01*
X111537280Y-113506697D01*
X111540638Y-113506336D01*
X111592980Y-113494950D01*
X111632189Y-113483705D01*
X111655975Y-113469794D01*
X111726619Y-113428479D01*
X111726623Y-113428476D01*
X111731640Y-113425542D01*
X111740923Y-113417498D01*
X111777112Y-113386141D01*
X111841693Y-113356648D01*
X111911967Y-113366753D01*
X111919746Y-113370635D01*
X112017268Y-113423585D01*
X112183139Y-113467101D01*
X112270586Y-113468474D01*
X112347003Y-113469675D01*
X112347006Y-113469675D01*
X112354602Y-113469794D01*
X112362006Y-113468098D01*
X112362008Y-113468098D01*
X112424846Y-113453706D01*
X112521759Y-113431510D01*
X112674958Y-113354459D01*
X112680729Y-113349530D01*
X112680732Y-113349528D01*
X112799578Y-113248023D01*
X112805355Y-113243089D01*
X112905424Y-113103830D01*
X112969385Y-112944720D01*
X112970455Y-112937202D01*
X112992966Y-112779031D01*
X112992966Y-112779027D01*
X112993547Y-112774947D01*
X112993704Y-112760000D01*
X112974952Y-112605043D01*
X112974015Y-112597299D01*
X112974014Y-112597296D01*
X112973102Y-112589758D01*
X112952988Y-112536526D01*
X112915171Y-112436447D01*
X112912487Y-112429344D01*
X112866993Y-112363150D01*
X112819659Y-112294278D01*
X112819658Y-112294276D01*
X112815357Y-112288019D01*
X112809686Y-112282966D01*
X112692993Y-112178996D01*
X112692990Y-112178994D01*
X112687321Y-112173943D01*
X112679325Y-112169709D01*
X112542481Y-112097254D01*
X112542482Y-112097254D01*
X112535769Y-112093700D01*
X112493115Y-112082986D01*
X112376822Y-112053775D01*
X112376818Y-112053775D01*
X112369451Y-112051924D01*
X112361852Y-112051884D01*
X112361850Y-112051884D01*
X112290394Y-112051510D01*
X112197969Y-112051026D01*
X112190589Y-112052798D01*
X112190587Y-112052798D01*
X112068914Y-112082009D01*
X111998006Y-112078462D01*
X111940272Y-112037142D01*
X111914042Y-111971168D01*
X111913500Y-111959490D01*
X111913500Y-111516795D01*
X111913570Y-111514947D01*
X111913547Y-111514947D01*
X111913665Y-111503737D01*
X111913665Y-111503730D01*
X111913704Y-111500000D01*
X111913520Y-111498483D01*
X111913500Y-111497740D01*
X111913500Y-111019682D01*
X111933502Y-110951561D01*
X111987158Y-110905068D01*
X112057432Y-110894964D01*
X112071474Y-110897806D01*
X112120329Y-110910623D01*
X112183139Y-110927101D01*
X112270586Y-110928474D01*
X112347003Y-110929675D01*
X112347006Y-110929675D01*
X112354602Y-110929794D01*
X112362006Y-110928098D01*
X112362008Y-110928098D01*
X112445411Y-110908996D01*
X112521759Y-110891510D01*
X112674958Y-110814459D01*
X112680729Y-110809530D01*
X112680732Y-110809528D01*
X112799578Y-110708023D01*
X112805355Y-110703089D01*
X112881223Y-110597509D01*
X112900992Y-110569998D01*
X112900993Y-110569997D01*
X112905424Y-110563830D01*
X112908256Y-110556785D01*
X112908259Y-110556780D01*
X112924286Y-110516911D01*
X112968253Y-110461167D01*
X113035378Y-110438042D01*
X113104349Y-110454879D01*
X113153269Y-110506332D01*
X113159519Y-110520606D01*
X113168085Y-110544015D01*
X113172322Y-110550321D01*
X113172324Y-110550324D01*
X113199274Y-110590429D01*
X113263730Y-110686349D01*
X113390565Y-110801760D01*
X113437501Y-110827244D01*
X113472651Y-110846329D01*
X113522972Y-110896412D01*
X113538229Y-110965750D01*
X113515616Y-111029511D01*
X113433379Y-111146522D01*
X113429010Y-111152739D01*
X113401221Y-111224015D01*
X113375108Y-111290991D01*
X113366718Y-111312509D01*
X113365726Y-111320042D01*
X113365726Y-111320043D01*
X113345493Y-111473733D01*
X113344335Y-111482526D01*
X113352310Y-111554758D01*
X113358386Y-111609794D01*
X113363153Y-111652975D01*
X113365762Y-111660106D01*
X113365763Y-111660108D01*
X113373688Y-111681764D01*
X113422085Y-111814015D01*
X113517730Y-111956349D01*
X113600931Y-112032056D01*
X113637853Y-112092697D01*
X113636130Y-112163672D01*
X113598961Y-112220198D01*
X113533342Y-112277442D01*
X113533338Y-112277447D01*
X113527615Y-112282439D01*
X113429010Y-112422739D01*
X113417817Y-112451447D01*
X113376451Y-112557546D01*
X113366718Y-112582509D01*
X113365726Y-112590042D01*
X113365726Y-112590043D01*
X113349620Y-112712384D01*
X113344335Y-112752526D01*
X113363153Y-112922975D01*
X113365762Y-112930106D01*
X113365763Y-112930108D01*
X113376600Y-112959720D01*
X113422085Y-113084015D01*
X113426322Y-113090321D01*
X113426324Y-113090324D01*
X113456126Y-113134673D01*
X113517730Y-113226349D01*
X113644565Y-113341760D01*
X113795268Y-113423585D01*
X113961139Y-113467101D01*
X114048586Y-113468474D01*
X114125003Y-113469675D01*
X114125006Y-113469675D01*
X114132602Y-113469794D01*
X114140006Y-113468098D01*
X114140008Y-113468098D01*
X114202846Y-113453706D01*
X114299759Y-113431510D01*
X114452958Y-113354459D01*
X114458729Y-113349530D01*
X114458732Y-113349528D01*
X114577578Y-113248023D01*
X114583355Y-113243089D01*
X114683424Y-113103830D01*
X114747385Y-112944720D01*
X114748455Y-112937202D01*
X114770966Y-112779031D01*
X114770966Y-112779027D01*
X114771547Y-112774947D01*
X114771704Y-112760000D01*
X114752952Y-112605043D01*
X114752015Y-112597299D01*
X114752014Y-112597296D01*
X114751102Y-112589758D01*
X114730988Y-112536526D01*
X114693171Y-112436447D01*
X114690487Y-112429344D01*
X114644993Y-112363150D01*
X114597659Y-112294278D01*
X114597658Y-112294276D01*
X114593357Y-112288019D01*
X114515831Y-112218946D01*
X114478277Y-112158698D01*
X114479257Y-112087709D01*
X114517821Y-112029061D01*
X114577578Y-111978023D01*
X114583355Y-111973089D01*
X114683424Y-111833830D01*
X114747385Y-111674720D01*
X114756992Y-111607220D01*
X114770966Y-111509031D01*
X114770966Y-111509027D01*
X114771547Y-111504947D01*
X114771623Y-111497740D01*
X114771661Y-111494133D01*
X114771661Y-111494127D01*
X114771704Y-111490000D01*
X114759329Y-111387739D01*
X114752015Y-111327299D01*
X114752014Y-111327296D01*
X114751102Y-111319758D01*
X114738964Y-111287634D01*
X114693171Y-111166447D01*
X114690487Y-111159344D01*
X114663272Y-111119746D01*
X114597659Y-111024278D01*
X114597658Y-111024276D01*
X114593357Y-111018019D01*
X114587686Y-111012966D01*
X114470993Y-110908996D01*
X114470990Y-110908994D01*
X114465321Y-110903943D01*
X114389924Y-110864022D01*
X114339082Y-110814470D01*
X114323101Y-110745296D01*
X114346563Y-110679142D01*
X114424992Y-110569998D01*
X114424993Y-110569997D01*
X114429424Y-110563830D01*
X114493385Y-110404720D01*
X114517547Y-110234947D01*
X114517704Y-110220000D01*
X114504665Y-110112254D01*
X114498015Y-110057299D01*
X114498014Y-110057296D01*
X114497102Y-110049758D01*
X114479108Y-110002136D01*
X114439171Y-109896447D01*
X114436487Y-109889344D01*
X114339357Y-109748019D01*
X114333686Y-109742966D01*
X114216993Y-109638996D01*
X114216990Y-109638994D01*
X114211321Y-109633943D01*
X114203325Y-109629709D01*
X114066481Y-109557254D01*
X114066482Y-109557254D01*
X114059769Y-109553700D01*
X114042196Y-109549286D01*
X113900822Y-109513775D01*
X113900818Y-109513775D01*
X113893451Y-109511924D01*
X113885852Y-109511884D01*
X113885850Y-109511884D01*
X113814394Y-109511510D01*
X113721969Y-109511026D01*
X113714589Y-109512798D01*
X113714587Y-109512798D01*
X113562602Y-109549286D01*
X113562598Y-109549287D01*
X113555223Y-109551058D01*
X113402839Y-109629709D01*
X113273615Y-109742439D01*
X113175010Y-109882739D01*
X113172251Y-109889815D01*
X113172248Y-109889821D01*
X113159661Y-109922107D01*
X113116281Y-109978309D01*
X113049402Y-110002136D01*
X112980258Y-109986023D01*
X112930802Y-109935086D01*
X112924402Y-109920876D01*
X112915171Y-109896447D01*
X112912487Y-109889344D01*
X112815357Y-109748019D01*
X112809686Y-109742966D01*
X112692993Y-109638996D01*
X112692990Y-109638994D01*
X112687321Y-109633943D01*
X112679325Y-109629709D01*
X112542481Y-109557254D01*
X112542482Y-109557254D01*
X112535769Y-109553700D01*
X112518196Y-109549286D01*
X112376822Y-109513775D01*
X112376818Y-109513775D01*
X112369451Y-109511924D01*
X112361852Y-109511884D01*
X112361850Y-109511884D01*
X112290394Y-109511510D01*
X112197969Y-109511026D01*
X112190589Y-109512798D01*
X112190587Y-109512798D01*
X112068914Y-109542009D01*
X111998006Y-109538462D01*
X111940272Y-109497142D01*
X111914042Y-109431168D01*
X111913500Y-109419490D01*
X111913500Y-107807000D01*
X112301249Y-107807000D01*
X112322162Y-107965850D01*
X112383476Y-108113875D01*
X112395033Y-108128936D01*
X112475984Y-108234434D01*
X112475987Y-108234437D01*
X112481013Y-108240987D01*
X112608124Y-108338524D01*
X112615750Y-108341683D01*
X112615752Y-108341684D01*
X112748520Y-108396678D01*
X112748523Y-108396679D01*
X112756150Y-108399838D01*
X112915000Y-108420751D01*
X112923188Y-108419673D01*
X113065662Y-108400916D01*
X113073850Y-108399838D01*
X113081477Y-108396679D01*
X113081480Y-108396678D01*
X113214248Y-108341684D01*
X113214250Y-108341683D01*
X113221876Y-108338524D01*
X113231681Y-108331000D01*
X116353249Y-108331000D01*
X116374162Y-108489850D01*
X116435476Y-108637875D01*
X116478925Y-108694498D01*
X116527984Y-108758434D01*
X116527987Y-108758437D01*
X116533013Y-108764987D01*
X116660124Y-108862524D01*
X116667750Y-108865683D01*
X116667752Y-108865684D01*
X116800520Y-108920678D01*
X116800523Y-108920679D01*
X116808150Y-108923838D01*
X116967000Y-108944751D01*
X116975188Y-108943673D01*
X116985329Y-108942338D01*
X117125850Y-108923838D01*
X117133477Y-108920679D01*
X117133480Y-108920678D01*
X117266248Y-108865684D01*
X117266250Y-108865683D01*
X117273876Y-108862524D01*
X117400987Y-108764987D01*
X117406013Y-108758437D01*
X117406016Y-108758434D01*
X117455075Y-108694498D01*
X117498524Y-108637875D01*
X117559838Y-108489850D01*
X117580074Y-108336142D01*
X117608796Y-108271215D01*
X117668062Y-108232123D01*
X117739053Y-108231278D01*
X117757133Y-108237881D01*
X117985499Y-108341684D01*
X118611639Y-108626294D01*
X118665377Y-108672692D01*
X118685500Y-108741000D01*
X118685500Y-110681335D01*
X118665498Y-110749456D01*
X118611842Y-110795949D01*
X118541568Y-110806053D01*
X118476988Y-110776559D01*
X118441634Y-110725873D01*
X118385171Y-110576447D01*
X118382487Y-110569344D01*
X118308139Y-110461167D01*
X118289659Y-110434278D01*
X118289658Y-110434276D01*
X118285357Y-110428019D01*
X118279686Y-110422966D01*
X118162993Y-110318996D01*
X118162990Y-110318994D01*
X118157321Y-110313943D01*
X118149325Y-110309709D01*
X118012481Y-110237254D01*
X118012482Y-110237254D01*
X118005769Y-110233700D01*
X117988196Y-110229286D01*
X117846822Y-110193775D01*
X117846818Y-110193775D01*
X117839451Y-110191924D01*
X117831852Y-110191884D01*
X117831850Y-110191884D01*
X117760394Y-110191510D01*
X117667969Y-110191026D01*
X117660589Y-110192798D01*
X117660587Y-110192798D01*
X117508602Y-110229286D01*
X117508598Y-110229287D01*
X117501223Y-110231058D01*
X117348839Y-110309709D01*
X117219615Y-110422439D01*
X117121010Y-110562739D01*
X117104516Y-110605043D01*
X117066290Y-110703089D01*
X117058718Y-110722509D01*
X117057726Y-110730042D01*
X117057726Y-110730043D01*
X117046613Y-110814459D01*
X117036335Y-110892526D01*
X117043753Y-110959720D01*
X117051128Y-111026514D01*
X117055153Y-111062975D01*
X117057762Y-111070106D01*
X117057763Y-111070108D01*
X117063995Y-111087138D01*
X117114085Y-111224015D01*
X117118322Y-111230321D01*
X117118324Y-111230324D01*
X117131016Y-111249211D01*
X117209730Y-111366349D01*
X117336565Y-111481760D01*
X117487268Y-111563585D01*
X117653139Y-111607101D01*
X117740586Y-111608474D01*
X117817003Y-111609675D01*
X117817006Y-111609675D01*
X117824602Y-111609794D01*
X117832006Y-111608098D01*
X117832008Y-111608098D01*
X117894846Y-111593706D01*
X117991759Y-111571510D01*
X118144958Y-111494459D01*
X118150729Y-111489530D01*
X118150732Y-111489528D01*
X118269578Y-111388023D01*
X118275355Y-111383089D01*
X118375424Y-111243830D01*
X118439385Y-111084720D01*
X118439421Y-111084465D01*
X118474742Y-111026514D01*
X118538602Y-110995491D01*
X118609097Y-111003918D01*
X118663845Y-111049119D01*
X118685500Y-111119746D01*
X118685500Y-111126000D01*
X118685860Y-111129346D01*
X118685860Y-111129351D01*
X118689136Y-111159819D01*
X118692664Y-111192638D01*
X118704050Y-111244980D01*
X118715295Y-111284189D01*
X118719273Y-111290990D01*
X118719273Y-111290991D01*
X118770521Y-111378619D01*
X118770524Y-111378623D01*
X118773458Y-111383640D01*
X118819951Y-111437296D01*
X118865859Y-111480581D01*
X118968556Y-111532799D01*
X118974142Y-111534439D01*
X118974144Y-111534440D01*
X118994542Y-111540429D01*
X119036677Y-111552801D01*
X119041133Y-111553442D01*
X119041139Y-111553443D01*
X119088235Y-111560214D01*
X119125000Y-111565500D01*
X120651000Y-111565500D01*
X120654346Y-111565140D01*
X120654351Y-111565140D01*
X120714274Y-111558698D01*
X120714280Y-111558697D01*
X120717638Y-111558336D01*
X120769980Y-111546950D01*
X120809189Y-111535705D01*
X120841523Y-111516795D01*
X120903619Y-111480479D01*
X120903623Y-111480476D01*
X120908640Y-111477542D01*
X120962296Y-111431049D01*
X121005581Y-111385141D01*
X121057799Y-111282444D01*
X121059512Y-111276612D01*
X121069387Y-111242979D01*
X121077801Y-111214323D01*
X121080445Y-111195939D01*
X121089858Y-111130463D01*
X121090500Y-111126000D01*
X121090500Y-108193392D01*
X124191500Y-108193392D01*
X124191956Y-108197157D01*
X124200918Y-108271215D01*
X124202522Y-108284473D01*
X124258852Y-108426747D01*
X124351368Y-108548632D01*
X124473253Y-108641148D01*
X124615527Y-108697478D01*
X124623565Y-108698451D01*
X124623566Y-108698451D01*
X124648338Y-108701449D01*
X124706608Y-108708500D01*
X126293392Y-108708500D01*
X126351662Y-108701449D01*
X126376434Y-108698451D01*
X126376435Y-108698451D01*
X126384473Y-108697478D01*
X126526747Y-108641148D01*
X126648632Y-108548632D01*
X126741148Y-108426747D01*
X126797478Y-108284473D01*
X126799083Y-108271215D01*
X126808044Y-108197157D01*
X126808500Y-108193392D01*
X126808500Y-106906608D01*
X126797478Y-106815527D01*
X126741148Y-106673253D01*
X126648632Y-106551368D01*
X126526747Y-106458852D01*
X126384473Y-106402522D01*
X126376435Y-106401549D01*
X126376434Y-106401549D01*
X126351662Y-106398551D01*
X126293392Y-106391500D01*
X124706608Y-106391500D01*
X124648338Y-106398551D01*
X124623566Y-106401549D01*
X124623565Y-106401549D01*
X124615527Y-106402522D01*
X124473253Y-106458852D01*
X124351368Y-106551368D01*
X124258852Y-106673253D01*
X124202522Y-106815527D01*
X124191500Y-106906608D01*
X124191500Y-108193392D01*
X121090500Y-108193392D01*
X121090500Y-107612874D01*
X121110502Y-107544753D01*
X121141607Y-107511548D01*
X121157062Y-107500125D01*
X121496436Y-107249283D01*
X121538889Y-107211499D01*
X121569993Y-107178295D01*
X121589781Y-107154990D01*
X121641999Y-107052293D01*
X121646901Y-107035600D01*
X121660731Y-106988496D01*
X121662001Y-106984172D01*
X121665636Y-106958895D01*
X121674058Y-106900312D01*
X121674700Y-106895849D01*
X121674700Y-105717839D01*
X121673834Y-105703201D01*
X121672623Y-105682735D01*
X121672622Y-105682722D01*
X121672512Y-105680866D01*
X121669007Y-105651354D01*
X121629442Y-105532007D01*
X121594041Y-105470466D01*
X121570909Y-105440955D01*
X121541766Y-105403777D01*
X121538992Y-105400238D01*
X121523171Y-105385105D01*
X121129406Y-105008459D01*
X121094005Y-104946918D01*
X121090500Y-104917406D01*
X121090500Y-101218000D01*
X121083336Y-101151362D01*
X121071950Y-101099020D01*
X121060705Y-101059811D01*
X121056727Y-101053009D01*
X121005479Y-100965381D01*
X121005476Y-100965377D01*
X121002542Y-100960360D01*
X120956049Y-100906704D01*
X120910141Y-100863419D01*
X120807444Y-100811201D01*
X120801858Y-100809561D01*
X120801856Y-100809560D01*
X120761184Y-100797618D01*
X120739323Y-100791199D01*
X120734867Y-100790558D01*
X120734861Y-100790557D01*
X120687765Y-100783786D01*
X120651000Y-100778500D01*
X119125000Y-100778500D01*
X119121654Y-100778860D01*
X119121649Y-100778860D01*
X119061726Y-100785302D01*
X119061720Y-100785303D01*
X119058362Y-100785664D01*
X119006020Y-100797050D01*
X118966811Y-100808295D01*
X118960010Y-100812273D01*
X118960009Y-100812273D01*
X118872381Y-100863521D01*
X118872377Y-100863524D01*
X118867360Y-100866458D01*
X118813704Y-100912951D01*
X118770419Y-100958859D01*
X118718201Y-101061556D01*
X118716561Y-101067142D01*
X118716560Y-101067144D01*
X118714985Y-101072509D01*
X118698199Y-101129677D01*
X118697558Y-101134133D01*
X118697557Y-101134139D01*
X118695081Y-101151362D01*
X118685500Y-101218000D01*
X118685500Y-103644738D01*
X118665498Y-103712859D01*
X118627146Y-103751039D01*
X117748176Y-104310384D01*
X117679967Y-104330082D01*
X117611936Y-104309775D01*
X117565684Y-104255913D01*
X117555894Y-104185594D01*
X117557648Y-104177136D01*
X117559838Y-104171850D01*
X117580751Y-104013000D01*
X117559838Y-103854150D01*
X117498524Y-103706125D01*
X117440838Y-103630947D01*
X117406016Y-103585566D01*
X117406013Y-103585563D01*
X117400987Y-103579013D01*
X117384876Y-103566650D01*
X117280426Y-103486502D01*
X117273876Y-103481476D01*
X117266250Y-103478317D01*
X117266248Y-103478316D01*
X117133480Y-103423322D01*
X117133477Y-103423321D01*
X117125850Y-103420162D01*
X116967000Y-103399249D01*
X116808150Y-103420162D01*
X116660125Y-103481476D01*
X116533013Y-103579013D01*
X116435476Y-103706125D01*
X116374162Y-103854150D01*
X116353249Y-104013000D01*
X116374162Y-104171850D01*
X116435476Y-104319875D01*
X116472479Y-104368098D01*
X116498079Y-104434315D01*
X116483815Y-104503864D01*
X116472484Y-104521495D01*
X116435476Y-104569725D01*
X116374162Y-104717750D01*
X116353249Y-104876600D01*
X116374162Y-105035450D01*
X116435476Y-105183475D01*
X116472479Y-105231698D01*
X116498079Y-105297915D01*
X116483815Y-105367464D01*
X116472484Y-105385095D01*
X116435476Y-105433325D01*
X116374162Y-105581350D01*
X116353249Y-105740200D01*
X116374162Y-105899050D01*
X116435476Y-106047075D01*
X116472479Y-106095298D01*
X116498079Y-106161515D01*
X116483815Y-106231064D01*
X116472484Y-106248695D01*
X116435476Y-106296925D01*
X116374162Y-106444950D01*
X116353249Y-106603800D01*
X116374162Y-106762650D01*
X116435476Y-106910675D01*
X116472479Y-106958898D01*
X116498079Y-107025115D01*
X116483815Y-107094664D01*
X116472484Y-107112295D01*
X116435476Y-107160525D01*
X116374162Y-107308550D01*
X116353249Y-107467400D01*
X116374162Y-107626250D01*
X116435476Y-107774275D01*
X116472479Y-107822498D01*
X116498079Y-107888715D01*
X116483815Y-107958264D01*
X116472484Y-107975895D01*
X116435476Y-108024125D01*
X116374162Y-108172150D01*
X116353249Y-108331000D01*
X113231681Y-108331000D01*
X113348987Y-108240987D01*
X113354013Y-108234437D01*
X113354016Y-108234434D01*
X113434967Y-108128936D01*
X113446524Y-108113875D01*
X113507838Y-107965850D01*
X113528751Y-107807000D01*
X113507838Y-107648150D01*
X113446524Y-107500125D01*
X113397755Y-107436569D01*
X113354016Y-107379566D01*
X113354013Y-107379563D01*
X113348987Y-107373013D01*
X113221876Y-107275476D01*
X113214250Y-107272317D01*
X113214248Y-107272316D01*
X113081480Y-107217322D01*
X113081477Y-107217321D01*
X113073850Y-107214162D01*
X112915000Y-107193249D01*
X112756150Y-107214162D01*
X112608125Y-107275476D01*
X112481013Y-107373013D01*
X112383476Y-107500125D01*
X112322162Y-107648150D01*
X112301249Y-107807000D01*
X111913500Y-107807000D01*
X111913500Y-103018682D01*
X111933502Y-102950561D01*
X111987158Y-102904068D01*
X112057432Y-102893964D01*
X112071474Y-102896806D01*
X112099155Y-102904068D01*
X112183139Y-102926101D01*
X112270586Y-102927474D01*
X112347003Y-102928675D01*
X112347006Y-102928675D01*
X112354602Y-102928794D01*
X112362006Y-102927098D01*
X112362008Y-102927098D01*
X112435836Y-102910189D01*
X112521759Y-102890510D01*
X112674958Y-102813459D01*
X112680729Y-102808530D01*
X112680732Y-102808528D01*
X112799578Y-102707023D01*
X112805355Y-102702089D01*
X112905424Y-102562830D01*
X112908256Y-102555785D01*
X112908259Y-102555780D01*
X112924286Y-102515911D01*
X112968253Y-102460167D01*
X113035378Y-102437042D01*
X113104349Y-102453879D01*
X113153269Y-102505332D01*
X113159519Y-102519606D01*
X113168085Y-102543015D01*
X113172322Y-102549321D01*
X113172324Y-102549324D01*
X113176666Y-102555785D01*
X113263730Y-102685349D01*
X113390565Y-102800760D01*
X113397240Y-102804384D01*
X113397244Y-102804387D01*
X113400531Y-102806172D01*
X113402466Y-102808098D01*
X113403430Y-102808783D01*
X113403316Y-102808944D01*
X113450850Y-102856257D01*
X113466104Y-102925596D01*
X113441448Y-102992174D01*
X113411225Y-103021113D01*
X113409587Y-103022226D01*
X113402839Y-103025709D01*
X113273615Y-103138439D01*
X113175010Y-103278739D01*
X113158797Y-103320324D01*
X113120292Y-103419084D01*
X113112718Y-103438509D01*
X113111726Y-103446042D01*
X113111726Y-103446043D01*
X113093358Y-103585566D01*
X113090335Y-103608526D01*
X113094333Y-103644738D01*
X113106069Y-103751039D01*
X113109153Y-103778975D01*
X113111762Y-103786106D01*
X113111763Y-103786108D01*
X113139476Y-103861836D01*
X113144102Y-103932681D01*
X113109693Y-103994782D01*
X113047171Y-104028421D01*
X113004705Y-104030059D01*
X112915000Y-104018249D01*
X112756150Y-104039162D01*
X112608125Y-104100476D01*
X112481013Y-104198013D01*
X112383476Y-104325125D01*
X112322162Y-104473150D01*
X112301249Y-104632000D01*
X112322162Y-104790850D01*
X112383476Y-104938875D01*
X112389648Y-104946918D01*
X112475984Y-105059434D01*
X112475987Y-105059437D01*
X112481013Y-105065987D01*
X112487563Y-105071013D01*
X112487564Y-105071014D01*
X112511653Y-105089498D01*
X112608124Y-105163524D01*
X112615750Y-105166683D01*
X112615752Y-105166684D01*
X112748520Y-105221678D01*
X112748523Y-105221679D01*
X112756150Y-105224838D01*
X112915000Y-105245751D01*
X112923188Y-105244673D01*
X113065662Y-105225916D01*
X113073850Y-105224838D01*
X113081477Y-105221679D01*
X113081480Y-105221678D01*
X113214248Y-105166684D01*
X113214250Y-105166683D01*
X113221876Y-105163524D01*
X113318347Y-105089498D01*
X113342436Y-105071014D01*
X113342437Y-105071013D01*
X113348987Y-105065987D01*
X113354013Y-105059437D01*
X113354016Y-105059434D01*
X113440352Y-104946918D01*
X113446524Y-104938875D01*
X113507838Y-104790850D01*
X113528751Y-104632000D01*
X113507838Y-104473150D01*
X113504678Y-104465520D01*
X113504467Y-104464734D01*
X113506157Y-104393758D01*
X113545952Y-104334962D01*
X113611216Y-104307015D01*
X113658149Y-104310249D01*
X113699784Y-104321172D01*
X113699789Y-104321173D01*
X113707139Y-104323101D01*
X113794586Y-104324474D01*
X113871003Y-104325675D01*
X113871006Y-104325675D01*
X113878602Y-104325794D01*
X113886006Y-104324098D01*
X113886008Y-104324098D01*
X113948846Y-104309706D01*
X114045759Y-104287510D01*
X114198958Y-104210459D01*
X114204729Y-104205530D01*
X114204732Y-104205528D01*
X114323578Y-104104023D01*
X114329355Y-104099089D01*
X114429424Y-103959830D01*
X114493385Y-103800720D01*
X114500456Y-103751039D01*
X114516966Y-103635031D01*
X114516966Y-103635027D01*
X114517547Y-103630947D01*
X114517704Y-103616000D01*
X114502033Y-103486502D01*
X114498015Y-103453299D01*
X114498014Y-103453296D01*
X114497102Y-103445758D01*
X114488625Y-103423322D01*
X114439171Y-103292447D01*
X114436487Y-103285344D01*
X114427675Y-103272523D01*
X114343659Y-103150278D01*
X114343658Y-103150276D01*
X114339357Y-103144019D01*
X114333686Y-103138966D01*
X114216993Y-103034996D01*
X114216990Y-103034994D01*
X114211321Y-103029943D01*
X114204608Y-103026389D01*
X114198371Y-103022054D01*
X114199971Y-103019751D01*
X114158525Y-102979362D01*
X114142538Y-102910189D01*
X114166487Y-102843354D01*
X114196314Y-102814789D01*
X114198958Y-102813459D01*
X114329355Y-102702089D01*
X114429424Y-102562830D01*
X114493385Y-102403720D01*
X114504654Y-102324539D01*
X114516966Y-102238031D01*
X114516966Y-102238027D01*
X114517547Y-102233947D01*
X114517704Y-102219000D01*
X114497102Y-102048758D01*
X114479108Y-102001136D01*
X114439171Y-101895447D01*
X114436487Y-101888344D01*
X114346382Y-101757240D01*
X114324282Y-101689772D01*
X114342167Y-101621065D01*
X114393608Y-101573309D01*
X114446174Y-101546871D01*
X114452958Y-101543459D01*
X114458729Y-101538530D01*
X114458732Y-101538528D01*
X114577578Y-101437023D01*
X114583355Y-101432089D01*
X114683424Y-101292830D01*
X114703646Y-101242526D01*
X116986335Y-101242526D01*
X117005153Y-101412975D01*
X117007762Y-101420106D01*
X117007763Y-101420108D01*
X117013953Y-101437023D01*
X117064085Y-101574015D01*
X117068322Y-101580321D01*
X117068324Y-101580324D01*
X117107079Y-101637996D01*
X117159730Y-101716349D01*
X117286565Y-101831760D01*
X117437268Y-101913585D01*
X117603139Y-101957101D01*
X117690586Y-101958474D01*
X117767003Y-101959675D01*
X117767006Y-101959675D01*
X117774602Y-101959794D01*
X117782006Y-101958098D01*
X117782008Y-101958098D01*
X117886849Y-101934086D01*
X117941759Y-101921510D01*
X118094958Y-101844459D01*
X118100729Y-101839530D01*
X118100732Y-101839528D01*
X118219578Y-101738023D01*
X118225355Y-101733089D01*
X118325424Y-101593830D01*
X118389385Y-101434720D01*
X118409579Y-101292830D01*
X118412966Y-101269031D01*
X118412966Y-101269027D01*
X118413547Y-101264947D01*
X118413704Y-101250000D01*
X118409258Y-101213262D01*
X118394015Y-101087299D01*
X118394014Y-101087296D01*
X118393102Y-101079758D01*
X118382995Y-101053009D01*
X118335171Y-100926447D01*
X118332487Y-100919344D01*
X118298301Y-100869603D01*
X118239659Y-100784278D01*
X118239658Y-100784276D01*
X118235357Y-100778019D01*
X118229686Y-100772966D01*
X118112993Y-100668996D01*
X118112990Y-100668994D01*
X118107321Y-100663943D01*
X118099325Y-100659709D01*
X118021200Y-100618344D01*
X117955769Y-100583700D01*
X117938196Y-100579286D01*
X117796822Y-100543775D01*
X117796818Y-100543775D01*
X117789451Y-100541924D01*
X117781852Y-100541884D01*
X117781850Y-100541884D01*
X117710394Y-100541510D01*
X117617969Y-100541026D01*
X117610589Y-100542798D01*
X117610587Y-100542798D01*
X117458602Y-100579286D01*
X117458598Y-100579287D01*
X117451223Y-100581058D01*
X117298839Y-100659709D01*
X117169615Y-100772439D01*
X117071010Y-100912739D01*
X117039864Y-100992624D01*
X117013669Y-101059811D01*
X117008718Y-101072509D01*
X117007726Y-101080042D01*
X117007726Y-101080043D01*
X116988971Y-101222506D01*
X116986335Y-101242526D01*
X114703646Y-101242526D01*
X114747385Y-101133720D01*
X114752039Y-101101021D01*
X114770966Y-100968031D01*
X114770966Y-100968027D01*
X114771547Y-100963947D01*
X114771704Y-100949000D01*
X114760853Y-100859333D01*
X114752015Y-100786299D01*
X114752014Y-100786296D01*
X114751102Y-100778758D01*
X114706118Y-100659709D01*
X114693171Y-100625447D01*
X114690487Y-100618344D01*
X114669119Y-100587254D01*
X114597659Y-100483278D01*
X114597658Y-100483276D01*
X114593357Y-100477019D01*
X114515831Y-100407946D01*
X114478277Y-100347698D01*
X114479257Y-100276709D01*
X114517821Y-100218061D01*
X114577578Y-100167023D01*
X114583355Y-100162089D01*
X114683424Y-100022830D01*
X114747385Y-99863720D01*
X114765868Y-99733850D01*
X114770966Y-99698031D01*
X114770966Y-99698027D01*
X114771547Y-99693947D01*
X114771704Y-99679000D01*
X114760109Y-99583188D01*
X114752015Y-99516299D01*
X114752014Y-99516296D01*
X114751102Y-99508758D01*
X114690487Y-99348344D01*
X114645235Y-99282502D01*
X114597659Y-99213278D01*
X114597658Y-99213276D01*
X114593357Y-99207019D01*
X114587686Y-99201966D01*
X114470993Y-99097996D01*
X114470990Y-99097994D01*
X114465321Y-99092943D01*
X114457325Y-99088709D01*
X114381555Y-99048591D01*
X114313769Y-99012700D01*
X114296196Y-99008286D01*
X114154822Y-98972775D01*
X114154818Y-98972775D01*
X114147451Y-98970924D01*
X114139852Y-98970884D01*
X114139850Y-98970884D01*
X114068394Y-98970510D01*
X113975969Y-98970026D01*
X113968589Y-98971798D01*
X113968587Y-98971798D01*
X113816602Y-99008286D01*
X113816598Y-99008287D01*
X113809223Y-99010058D01*
X113656839Y-99088709D01*
X113527615Y-99201439D01*
X113429010Y-99341739D01*
X113366718Y-99501509D01*
X113365726Y-99509042D01*
X113365726Y-99509043D01*
X113358121Y-99566812D01*
X113344335Y-99671526D01*
X113363153Y-99841975D01*
X113365762Y-99849106D01*
X113365763Y-99849108D01*
X113373688Y-99870764D01*
X113422085Y-100003015D01*
X113517730Y-100145349D01*
X113600931Y-100221056D01*
X113637853Y-100281697D01*
X113636130Y-100352672D01*
X113598961Y-100409198D01*
X113533342Y-100466442D01*
X113533338Y-100466447D01*
X113527615Y-100471439D01*
X113429010Y-100611739D01*
X113366718Y-100771509D01*
X113365726Y-100779042D01*
X113365726Y-100779043D01*
X113347193Y-100919819D01*
X113344335Y-100941526D01*
X113353744Y-101026750D01*
X113361944Y-101101021D01*
X113363153Y-101111975D01*
X113365762Y-101119106D01*
X113365763Y-101119108D01*
X113388802Y-101182064D01*
X113422085Y-101273015D01*
X113426322Y-101279321D01*
X113426324Y-101279324D01*
X113515719Y-101412356D01*
X113537112Y-101480053D01*
X113518508Y-101548569D01*
X113468928Y-101594598D01*
X113402839Y-101628709D01*
X113273615Y-101741439D01*
X113175010Y-101881739D01*
X113172251Y-101888815D01*
X113172248Y-101888821D01*
X113159661Y-101921107D01*
X113116281Y-101977309D01*
X113049402Y-102001136D01*
X112980258Y-101985023D01*
X112930802Y-101934086D01*
X112924402Y-101919876D01*
X112915171Y-101895447D01*
X112912487Y-101888344D01*
X112870086Y-101826650D01*
X112819659Y-101753278D01*
X112819658Y-101753276D01*
X112815357Y-101747019D01*
X112809686Y-101741966D01*
X112692993Y-101637996D01*
X112692990Y-101637994D01*
X112687321Y-101632943D01*
X112679325Y-101628709D01*
X112542481Y-101556254D01*
X112542482Y-101556254D01*
X112535769Y-101552700D01*
X112498979Y-101543459D01*
X112376822Y-101512775D01*
X112376818Y-101512775D01*
X112369451Y-101510924D01*
X112361852Y-101510884D01*
X112361850Y-101510884D01*
X112290394Y-101510510D01*
X112197969Y-101510026D01*
X112190589Y-101511798D01*
X112190587Y-101511798D01*
X112068914Y-101541009D01*
X111998006Y-101537462D01*
X111940272Y-101496142D01*
X111914042Y-101430168D01*
X111913500Y-101418490D01*
X111913500Y-100478682D01*
X111933502Y-100410561D01*
X111987158Y-100364068D01*
X112057432Y-100353964D01*
X112071474Y-100356806D01*
X112078728Y-100358709D01*
X112183139Y-100386101D01*
X112270586Y-100387474D01*
X112347003Y-100388675D01*
X112347006Y-100388675D01*
X112354602Y-100388794D01*
X112362006Y-100387098D01*
X112362008Y-100387098D01*
X112424846Y-100372706D01*
X112521759Y-100350510D01*
X112674958Y-100273459D01*
X112680729Y-100268530D01*
X112680732Y-100268528D01*
X112799578Y-100167023D01*
X112805355Y-100162089D01*
X112905424Y-100022830D01*
X112969385Y-99863720D01*
X112987868Y-99733850D01*
X112992966Y-99698031D01*
X112992966Y-99698027D01*
X112993547Y-99693947D01*
X112993704Y-99679000D01*
X112982109Y-99583188D01*
X112974015Y-99516299D01*
X112974014Y-99516296D01*
X112973102Y-99508758D01*
X112912487Y-99348344D01*
X112867235Y-99282502D01*
X112819659Y-99213278D01*
X112819658Y-99213276D01*
X112815357Y-99207019D01*
X112809686Y-99201966D01*
X112692993Y-99097996D01*
X112692990Y-99097994D01*
X112687321Y-99092943D01*
X112679325Y-99088709D01*
X112603555Y-99048591D01*
X112535769Y-99012700D01*
X112518196Y-99008286D01*
X112376822Y-98972775D01*
X112376818Y-98972775D01*
X112369451Y-98970924D01*
X112361852Y-98970884D01*
X112361850Y-98970884D01*
X112290394Y-98970510D01*
X112197969Y-98970026D01*
X112190589Y-98971798D01*
X112190587Y-98971798D01*
X112038602Y-99008286D01*
X112038598Y-99008287D01*
X112031223Y-99010058D01*
X111942289Y-99055960D01*
X111872583Y-99069429D01*
X111806659Y-99043074D01*
X111789274Y-99026504D01*
X111781138Y-99017114D01*
X111781130Y-99017106D01*
X111779049Y-99014704D01*
X111748487Y-98985888D01*
X111739700Y-98977603D01*
X111739699Y-98977602D01*
X111733141Y-98971419D01*
X111630444Y-98919201D01*
X111624858Y-98917561D01*
X111624856Y-98917560D01*
X111566649Y-98900469D01*
X111566646Y-98900468D01*
X111562323Y-98899199D01*
X111544509Y-98896637D01*
X111538901Y-98895831D01*
X111497879Y-98882470D01*
X111405769Y-98833700D01*
X111388196Y-98829286D01*
X111246822Y-98793775D01*
X111246818Y-98793775D01*
X111239451Y-98791924D01*
X111231852Y-98791884D01*
X111231850Y-98791884D01*
X111160394Y-98791510D01*
X111067969Y-98791026D01*
X111060589Y-98792798D01*
X111060587Y-98792798D01*
X110908602Y-98829286D01*
X110908598Y-98829287D01*
X110901223Y-98831058D01*
X110889213Y-98837257D01*
X110820996Y-98872466D01*
X110763206Y-98886500D01*
X110286789Y-98886500D01*
X110227830Y-98871854D01*
X110162487Y-98837257D01*
X110155769Y-98833700D01*
X110138196Y-98829286D01*
X109996822Y-98793775D01*
X109996818Y-98793775D01*
X109989451Y-98791924D01*
X109981852Y-98791884D01*
X109981850Y-98791884D01*
X109910394Y-98791510D01*
X109817969Y-98791026D01*
X109810589Y-98792798D01*
X109810587Y-98792798D01*
X109658602Y-98829286D01*
X109658598Y-98829287D01*
X109651223Y-98831058D01*
X109639213Y-98837257D01*
X109570996Y-98872466D01*
X109513206Y-98886500D01*
X109176000Y-98886500D01*
X109172654Y-98886860D01*
X109172649Y-98886860D01*
X109112726Y-98893302D01*
X109112720Y-98893303D01*
X109109362Y-98893664D01*
X109057020Y-98905050D01*
X109017811Y-98916295D01*
X109011010Y-98920273D01*
X109011009Y-98920273D01*
X108923381Y-98971521D01*
X108923377Y-98971524D01*
X108918360Y-98974458D01*
X108864704Y-99020951D01*
X108838727Y-99048502D01*
X108834332Y-99053164D01*
X108821419Y-99066859D01*
X108769201Y-99169556D01*
X108749199Y-99237677D01*
X108736500Y-99326000D01*
X108736500Y-104310747D01*
X108716498Y-104378868D01*
X108662842Y-104425361D01*
X108605356Y-104435723D01*
X108605356Y-104436380D01*
X108601718Y-104436379D01*
X107979096Y-104436211D01*
X107131698Y-104435981D01*
X107131694Y-104435981D01*
X107126909Y-104435980D01*
X107122175Y-104436703D01*
X107122173Y-104436703D01*
X107102186Y-104439755D01*
X107031826Y-104430265D01*
X106977767Y-104384242D01*
X106966758Y-104363417D01*
X106960684Y-104348752D01*
X106960681Y-104348747D01*
X106957524Y-104341125D01*
X106947056Y-104327483D01*
X106865016Y-104220566D01*
X106865013Y-104220563D01*
X106859987Y-104214013D01*
X106848930Y-104205528D01*
X106739426Y-104121502D01*
X106732876Y-104116476D01*
X106725250Y-104113317D01*
X106725248Y-104113316D01*
X106592480Y-104058322D01*
X106592477Y-104058321D01*
X106584850Y-104055162D01*
X106426000Y-104034249D01*
X106267150Y-104055162D01*
X106119125Y-104116476D01*
X105992013Y-104214013D01*
X105894476Y-104341125D01*
X105891317Y-104348752D01*
X105885480Y-104362844D01*
X105840931Y-104418124D01*
X105773568Y-104440545D01*
X105751107Y-104439338D01*
X105729627Y-104436244D01*
X105725170Y-104435602D01*
X105137289Y-104435443D01*
X103991371Y-104435133D01*
X103988346Y-104435096D01*
X103988120Y-104435091D01*
X103987773Y-104435082D01*
X103987576Y-104435078D01*
X103987564Y-104435078D01*
X103986934Y-104435066D01*
X103983807Y-104435007D01*
X103983682Y-104435005D01*
X103983601Y-104435004D01*
X103981170Y-104434974D01*
X103980634Y-104434967D01*
X103976709Y-104434942D01*
X103276044Y-104434883D01*
X103245369Y-104431088D01*
X103089451Y-104391924D01*
X103081852Y-104391884D01*
X103081850Y-104391884D01*
X103010394Y-104391510D01*
X102917969Y-104391026D01*
X102910589Y-104392798D01*
X102910587Y-104392798D01*
X102751223Y-104431058D01*
X102750841Y-104429468D01*
X102721002Y-104434835D01*
X100625152Y-104434657D01*
X100594468Y-104430861D01*
X100446822Y-104393775D01*
X100446818Y-104393775D01*
X100439451Y-104391924D01*
X100431852Y-104391884D01*
X100431850Y-104391884D01*
X100360394Y-104391510D01*
X100267969Y-104391026D01*
X100260589Y-104392798D01*
X100260587Y-104392798D01*
X100101223Y-104431058D01*
X100100815Y-104429358D01*
X100071608Y-104434610D01*
X99989415Y-104434603D01*
X99986038Y-104434603D01*
X99919387Y-104441764D01*
X99867034Y-104453150D01*
X99827811Y-104464398D01*
X99821010Y-104468375D01*
X99821011Y-104468375D01*
X99733381Y-104519624D01*
X99733377Y-104519627D01*
X99728360Y-104522561D01*
X99674704Y-104569054D01*
X99631419Y-104614962D01*
X99579201Y-104717659D01*
X99559199Y-104785780D01*
X99546500Y-104874103D01*
X99546500Y-107474000D01*
X95658500Y-107474000D01*
X95658500Y-107031608D01*
X95647478Y-106940527D01*
X95591148Y-106798253D01*
X95498632Y-106676368D01*
X95376747Y-106583852D01*
X95234473Y-106527522D01*
X95226435Y-106526549D01*
X95226434Y-106526549D01*
X95201662Y-106523551D01*
X95143392Y-106516500D01*
X94922625Y-106516500D01*
X94854504Y-106496498D01*
X94808011Y-106442842D01*
X94797907Y-106372568D01*
X94827401Y-106307988D01*
X94888423Y-106269231D01*
X94911389Y-106262754D01*
X94911391Y-106262753D01*
X94916948Y-106261186D01*
X94922123Y-106258634D01*
X94922128Y-106258632D01*
X95102727Y-106169570D01*
X95107908Y-106167015D01*
X95115274Y-106161515D01*
X95273886Y-106043074D01*
X95278509Y-106039622D01*
X95423037Y-105883271D01*
X95536653Y-105703201D01*
X95615551Y-105505441D01*
X95620305Y-105481544D01*
X95655962Y-105302282D01*
X95655962Y-105302280D01*
X95657089Y-105296615D01*
X95657412Y-105271982D01*
X95659800Y-105089498D01*
X95659876Y-105083716D01*
X95658897Y-105078018D01*
X95624797Y-104879564D01*
X95624796Y-104879561D01*
X95623819Y-104873874D01*
X95550125Y-104674116D01*
X95441261Y-104491134D01*
X95300875Y-104331054D01*
X95133667Y-104199238D01*
X95128556Y-104196549D01*
X95128553Y-104196547D01*
X94952694Y-104104023D01*
X94945238Y-104100100D01*
X94939717Y-104098386D01*
X94939713Y-104098384D01*
X94747421Y-104038676D01*
X94747422Y-104038676D01*
X94741898Y-104036961D01*
X94569018Y-104016500D01*
X94145987Y-104016500D01*
X94060355Y-104024368D01*
X93993730Y-104030490D01*
X93993727Y-104030491D01*
X93987976Y-104031019D01*
X93982417Y-104032587D01*
X93982416Y-104032587D01*
X93788611Y-104087246D01*
X93788609Y-104087247D01*
X93783052Y-104088814D01*
X93777877Y-104091366D01*
X93777872Y-104091368D01*
X93599201Y-104179479D01*
X93592092Y-104182985D01*
X93587466Y-104186439D01*
X93587465Y-104186440D01*
X93573930Y-104196547D01*
X93421491Y-104310378D01*
X93276963Y-104466729D01*
X93163347Y-104646799D01*
X93084449Y-104844559D01*
X93083323Y-104850219D01*
X93083322Y-104850223D01*
X93051847Y-105008459D01*
X93042911Y-105053385D01*
X93042835Y-105059160D01*
X93042835Y-105059164D01*
X93042514Y-105083716D01*
X93040124Y-105266284D01*
X92333500Y-105266284D01*
X92333500Y-102982526D01*
X97786335Y-102982526D01*
X97805153Y-103152975D01*
X97807762Y-103160106D01*
X97807763Y-103160108D01*
X97815688Y-103181764D01*
X97864085Y-103314015D01*
X97959730Y-103456349D01*
X98086565Y-103571760D01*
X98237268Y-103653585D01*
X98403139Y-103697101D01*
X98490586Y-103698474D01*
X98567003Y-103699675D01*
X98567006Y-103699675D01*
X98574602Y-103699794D01*
X98582006Y-103698098D01*
X98582008Y-103698098D01*
X98644846Y-103683706D01*
X98741759Y-103661510D01*
X98894958Y-103584459D01*
X98900729Y-103579530D01*
X98900732Y-103579528D01*
X99019578Y-103478023D01*
X99025355Y-103473089D01*
X99125424Y-103333830D01*
X99189385Y-103174720D01*
X99193754Y-103144019D01*
X99212966Y-103009031D01*
X99212966Y-103009027D01*
X99213547Y-103004947D01*
X99213704Y-102990000D01*
X99212800Y-102982526D01*
X104706335Y-102982526D01*
X104725153Y-103152975D01*
X104727762Y-103160106D01*
X104727763Y-103160108D01*
X104735688Y-103181764D01*
X104784085Y-103314015D01*
X104879730Y-103456349D01*
X105006565Y-103571760D01*
X105157268Y-103653585D01*
X105323139Y-103697101D01*
X105410586Y-103698474D01*
X105487003Y-103699675D01*
X105487006Y-103699675D01*
X105494602Y-103699794D01*
X105502006Y-103698098D01*
X105502008Y-103698098D01*
X105564846Y-103683706D01*
X105661759Y-103661510D01*
X105814958Y-103584459D01*
X105820729Y-103579530D01*
X105820732Y-103579528D01*
X105939578Y-103478023D01*
X105945355Y-103473089D01*
X106045424Y-103333830D01*
X106109385Y-103174720D01*
X106113754Y-103144019D01*
X106132966Y-103009031D01*
X106132966Y-103009027D01*
X106133547Y-103004947D01*
X106133704Y-102990000D01*
X106117519Y-102856257D01*
X106114015Y-102827299D01*
X106114014Y-102827296D01*
X106113102Y-102819758D01*
X106108859Y-102808527D01*
X106055171Y-102666447D01*
X106052487Y-102659344D01*
X105981313Y-102555785D01*
X105959659Y-102524278D01*
X105959658Y-102524276D01*
X105955357Y-102518019D01*
X105949686Y-102512966D01*
X105832993Y-102408996D01*
X105832990Y-102408994D01*
X105827321Y-102403943D01*
X105819325Y-102399709D01*
X105682481Y-102327254D01*
X105682482Y-102327254D01*
X105675769Y-102323700D01*
X105658196Y-102319286D01*
X105516822Y-102283775D01*
X105516818Y-102283775D01*
X105509451Y-102281924D01*
X105501852Y-102281884D01*
X105501850Y-102281884D01*
X105430394Y-102281510D01*
X105337969Y-102281026D01*
X105330589Y-102282798D01*
X105330587Y-102282798D01*
X105178602Y-102319286D01*
X105178598Y-102319287D01*
X105171223Y-102321058D01*
X105018839Y-102399709D01*
X104889615Y-102512439D01*
X104791010Y-102652739D01*
X104759864Y-102732624D01*
X104731885Y-102804387D01*
X104728718Y-102812509D01*
X104727726Y-102820042D01*
X104727726Y-102820043D01*
X104710657Y-102949700D01*
X104706335Y-102982526D01*
X99212800Y-102982526D01*
X99197519Y-102856257D01*
X99194015Y-102827299D01*
X99194014Y-102827296D01*
X99193102Y-102819758D01*
X99188859Y-102808527D01*
X99135171Y-102666447D01*
X99132487Y-102659344D01*
X99061313Y-102555785D01*
X99039659Y-102524278D01*
X99039658Y-102524276D01*
X99035357Y-102518019D01*
X99029686Y-102512966D01*
X98912993Y-102408996D01*
X98912990Y-102408994D01*
X98907321Y-102403943D01*
X98899325Y-102399709D01*
X98762481Y-102327254D01*
X98762482Y-102327254D01*
X98755769Y-102323700D01*
X98738196Y-102319286D01*
X98596822Y-102283775D01*
X98596818Y-102283775D01*
X98589451Y-102281924D01*
X98581852Y-102281884D01*
X98581850Y-102281884D01*
X98510394Y-102281510D01*
X98417969Y-102281026D01*
X98410589Y-102282798D01*
X98410587Y-102282798D01*
X98258602Y-102319286D01*
X98258598Y-102319287D01*
X98251223Y-102321058D01*
X98098839Y-102399709D01*
X97969615Y-102512439D01*
X97871010Y-102652739D01*
X97839864Y-102732624D01*
X97811885Y-102804387D01*
X97808718Y-102812509D01*
X97807726Y-102820042D01*
X97807726Y-102820043D01*
X97790657Y-102949700D01*
X97786335Y-102982526D01*
X92333500Y-102982526D01*
X92333500Y-99575000D01*
X95086249Y-99575000D01*
X95107162Y-99733850D01*
X95168476Y-99881875D01*
X95217244Y-99945431D01*
X95260984Y-100002434D01*
X95260987Y-100002437D01*
X95266013Y-100008987D01*
X95393124Y-100106524D01*
X95400750Y-100109683D01*
X95400752Y-100109684D01*
X95533520Y-100164678D01*
X95533523Y-100164679D01*
X95541150Y-100167838D01*
X95700000Y-100188751D01*
X95708188Y-100187673D01*
X95850662Y-100168916D01*
X95858850Y-100167838D01*
X95866477Y-100164679D01*
X95866480Y-100164678D01*
X95999248Y-100109684D01*
X95999250Y-100109683D01*
X96006876Y-100106524D01*
X96133987Y-100008987D01*
X96139013Y-100002437D01*
X96139016Y-100002434D01*
X96182756Y-99945431D01*
X96231524Y-99881875D01*
X96292838Y-99733850D01*
X96313751Y-99575000D01*
X96292838Y-99416150D01*
X96231524Y-99268125D01*
X96155889Y-99169556D01*
X96139016Y-99147566D01*
X96139013Y-99147563D01*
X96133987Y-99141013D01*
X96096987Y-99112621D01*
X96013426Y-99048502D01*
X96006876Y-99043476D01*
X95999250Y-99040317D01*
X95999248Y-99040316D01*
X95866480Y-98985322D01*
X95866477Y-98985321D01*
X95858850Y-98982162D01*
X95700000Y-98961249D01*
X95541150Y-98982162D01*
X95393125Y-99043476D01*
X95266013Y-99141013D01*
X95168476Y-99268125D01*
X95107162Y-99416150D01*
X95086249Y-99575000D01*
X92333500Y-99575000D01*
X92333500Y-98550000D01*
X124536526Y-98550000D01*
X124556391Y-98802403D01*
X124557545Y-98807210D01*
X124557546Y-98807216D01*
X124584431Y-98919201D01*
X124615495Y-99048591D01*
X124617388Y-99053162D01*
X124617389Y-99053164D01*
X124706429Y-99268125D01*
X124712384Y-99282502D01*
X124844672Y-99498376D01*
X125009102Y-99690898D01*
X125201624Y-99855328D01*
X125417498Y-99987616D01*
X125422068Y-99989509D01*
X125422072Y-99989511D01*
X125646836Y-100082611D01*
X125651409Y-100084505D01*
X125722191Y-100101498D01*
X125892784Y-100142454D01*
X125892790Y-100142455D01*
X125897597Y-100143609D01*
X126150000Y-100163474D01*
X126402403Y-100143609D01*
X126407210Y-100142455D01*
X126407216Y-100142454D01*
X126577809Y-100101498D01*
X126648591Y-100084505D01*
X126653164Y-100082611D01*
X126877928Y-99989511D01*
X126877932Y-99989509D01*
X126882502Y-99987616D01*
X127098376Y-99855328D01*
X127290898Y-99690898D01*
X127455328Y-99498376D01*
X127587616Y-99282502D01*
X127593572Y-99268125D01*
X127682611Y-99053164D01*
X127682612Y-99053162D01*
X127684505Y-99048591D01*
X127715569Y-98919201D01*
X127742454Y-98807216D01*
X127742455Y-98807210D01*
X127743609Y-98802403D01*
X127763474Y-98550000D01*
X127743609Y-98297597D01*
X127684505Y-98051409D01*
X127587616Y-97817498D01*
X127455328Y-97601624D01*
X127290898Y-97409102D01*
X127098376Y-97244672D01*
X126882502Y-97112384D01*
X126877932Y-97110491D01*
X126877928Y-97110489D01*
X126653164Y-97017389D01*
X126653162Y-97017388D01*
X126648591Y-97015495D01*
X126515409Y-96983521D01*
X126407216Y-96957546D01*
X126407210Y-96957545D01*
X126402403Y-96956391D01*
X126150000Y-96936526D01*
X125897597Y-96956391D01*
X125892790Y-96957545D01*
X125892784Y-96957546D01*
X125784591Y-96983521D01*
X125651409Y-97015495D01*
X125646838Y-97017388D01*
X125646836Y-97017389D01*
X125422072Y-97110489D01*
X125422068Y-97110491D01*
X125417498Y-97112384D01*
X125201624Y-97244672D01*
X125009102Y-97409102D01*
X124844672Y-97601624D01*
X124712384Y-97817498D01*
X124615495Y-98051409D01*
X124556391Y-98297597D01*
X124536526Y-98550000D01*
X92333500Y-98550000D01*
X92333500Y-96659500D01*
X92353502Y-96591379D01*
X92407158Y-96544886D01*
X92459500Y-96533500D01*
X95150558Y-96533500D01*
X95218679Y-96553502D01*
G37*
%TD.AperFunction*%
%TD*%
M02*
