%TF.GenerationSoftware,KiCad,Pcbnew,(6.0.8)*%
%TF.CreationDate,2023-06-01T04:18:13+02:00*%
%TF.ProjectId,pdms,70646d73-2e6b-4696-9361-645f70636258,rev?*%
%TF.SameCoordinates,Original*%
%TF.FileFunction,Soldermask,Bot*%
%TF.FilePolarity,Negative*%
%FSLAX46Y46*%
G04 Gerber Fmt 4.6, Leading zero omitted, Abs format (unit mm)*
G04 Created by KiCad (PCBNEW (6.0.8)) date 2023-06-01 04:18:13*
%MOMM*%
%LPD*%
G01*
G04 APERTURE LIST*
G04 Aperture macros list*
%AMRoundRect*
0 Rectangle with rounded corners*
0 $1 Rounding radius*
0 $2 $3 $4 $5 $6 $7 $8 $9 X,Y pos of 4 corners*
0 Add a 4 corners polygon primitive as box body*
4,1,4,$2,$3,$4,$5,$6,$7,$8,$9,$2,$3,0*
0 Add four circle primitives for the rounded corners*
1,1,$1+$1,$2,$3*
1,1,$1+$1,$4,$5*
1,1,$1+$1,$6,$7*
1,1,$1+$1,$8,$9*
0 Add four rect primitives between the rounded corners*
20,1,$1+$1,$2,$3,$4,$5,0*
20,1,$1+$1,$4,$5,$6,$7,0*
20,1,$1+$1,$6,$7,$8,$9,0*
20,1,$1+$1,$8,$9,$2,$3,0*%
%AMRotRect*
0 Rectangle, with rotation*
0 The origin of the aperture is its center*
0 $1 length*
0 $2 width*
0 $3 Rotation angle, in degrees counterclockwise*
0 Add horizontal line*
21,1,$1,$2,0,0,$3*%
G04 Aperture macros list end*
%ADD10C,2.000000*%
%ADD11RoundRect,0.200000X-0.200000X-0.450000X0.200000X-0.450000X0.200000X0.450000X-0.200000X0.450000X0*%
%ADD12O,0.800000X1.300000*%
%ADD13R,1.000000X1.000000*%
%ADD14O,1.000000X1.000000*%
%ADD15C,0.800000*%
%ADD16C,6.400000*%
%ADD17O,1.025000X2.050000*%
%ADD18O,0.925000X1.850000*%
%ADD19C,2.250000*%
%ADD20C,5.100000*%
%ADD21R,2.000000X2.000000*%
%ADD22C,2.200000*%
%ADD23R,2.400000X2.400000*%
%ADD24C,2.400000*%
%ADD25RoundRect,0.135000X0.226274X0.035355X0.035355X0.226274X-0.226274X-0.035355X-0.035355X-0.226274X0*%
%ADD26RoundRect,0.135000X0.135000X0.185000X-0.135000X0.185000X-0.135000X-0.185000X0.135000X-0.185000X0*%
%ADD27RoundRect,0.135000X-0.226274X-0.035355X-0.035355X-0.226274X0.226274X0.035355X0.035355X0.226274X0*%
%ADD28RoundRect,0.250000X0.625000X-0.375000X0.625000X0.375000X-0.625000X0.375000X-0.625000X-0.375000X0*%
%ADD29RoundRect,0.135000X0.185000X-0.135000X0.185000X0.135000X-0.185000X0.135000X-0.185000X-0.135000X0*%
%ADD30RoundRect,0.135000X-0.185000X0.135000X-0.185000X-0.135000X0.185000X-0.135000X0.185000X0.135000X0*%
%ADD31RoundRect,0.140000X0.021213X-0.219203X0.219203X-0.021213X-0.021213X0.219203X-0.219203X0.021213X0*%
%ADD32R,0.700000X0.450000*%
%ADD33R,0.550000X1.000000*%
%ADD34RoundRect,0.150000X-0.256326X-0.468458X0.468458X0.256326X0.256326X0.468458X-0.468458X-0.256326X0*%
%ADD35RoundRect,0.135000X-0.135000X-0.185000X0.135000X-0.185000X0.135000X0.185000X-0.135000X0.185000X0*%
%ADD36RoundRect,0.140000X-0.219203X-0.021213X-0.021213X-0.219203X0.219203X0.021213X0.021213X0.219203X0*%
%ADD37RoundRect,0.218750X0.335876X0.026517X0.026517X0.335876X-0.335876X-0.026517X-0.026517X-0.335876X0*%
%ADD38RotRect,1.000000X1.500000X45.000000*%
%ADD39RoundRect,0.135000X0.035355X-0.226274X0.226274X-0.035355X-0.035355X0.226274X-0.226274X0.035355X0*%
G04 APERTURE END LIST*
D10*
%TO.C,TP3*%
X102108000Y-120904000D03*
%TD*%
D11*
%TO.C,J5*%
X92125000Y-155450000D03*
D12*
X93375000Y-155450000D03*
X94625000Y-155450000D03*
X95875000Y-155450000D03*
%TD*%
D13*
%TO.C,J1*%
X23926800Y-151485600D03*
D14*
X23926800Y-150215600D03*
X25196800Y-151485600D03*
X25196800Y-150215600D03*
X26466800Y-151485600D03*
X26466800Y-150215600D03*
%TD*%
D15*
%TO.C,H2*%
X138336856Y-43730344D03*
X136639800Y-43027400D03*
X134942744Y-47124456D03*
D16*
X136639800Y-45427400D03*
D15*
X134239800Y-45427400D03*
X134942744Y-43730344D03*
X136639800Y-47827400D03*
X138336856Y-47124456D03*
X139039800Y-45427400D03*
%TD*%
D17*
%TO.C,J6*%
X26030000Y-161213800D03*
X34930000Y-161213800D03*
D18*
X26030000Y-158013800D03*
X34930000Y-158013800D03*
%TD*%
D19*
%TO.C,J2*%
X105558000Y-59396000D03*
X104058000Y-56896000D03*
X102558000Y-59396000D03*
X101058000Y-56896000D03*
X99558000Y-59396000D03*
X98058000Y-56896000D03*
X96558000Y-59396000D03*
X95058000Y-56896000D03*
X93558000Y-59396000D03*
X92058000Y-56896000D03*
X90558000Y-59396000D03*
X89058000Y-56896000D03*
X87558000Y-59396000D03*
X86058000Y-56896000D03*
X84558000Y-59396000D03*
X83058000Y-56896000D03*
X81558000Y-59396000D03*
X105558000Y-51396000D03*
X104058000Y-53896000D03*
X102558000Y-51396000D03*
X101058000Y-53896000D03*
X99558000Y-51396000D03*
X98058000Y-53896000D03*
X96558000Y-51396000D03*
X95058000Y-53896000D03*
X93558000Y-51396000D03*
X92058000Y-53896000D03*
X90558000Y-51396000D03*
X89058000Y-53896000D03*
X87558000Y-51396000D03*
X86058000Y-53896000D03*
X84558000Y-51396000D03*
X83058000Y-53896000D03*
X81558000Y-51396000D03*
X67058000Y-59396000D03*
X65558000Y-56896000D03*
X64058000Y-59396000D03*
X62558000Y-56896000D03*
X61058000Y-59396000D03*
X59558000Y-56896000D03*
X58058000Y-59396000D03*
X56558000Y-56896000D03*
X55058000Y-59396000D03*
X53558000Y-56896000D03*
X52058000Y-59396000D03*
X50558000Y-56896000D03*
X49058000Y-59396000D03*
X67058000Y-51396000D03*
X65558000Y-53896000D03*
X64058000Y-51396000D03*
X62558000Y-53896000D03*
X61058000Y-51396000D03*
X59558000Y-53896000D03*
X58058000Y-51396000D03*
X56558000Y-53896000D03*
X55058000Y-51396000D03*
X53558000Y-53896000D03*
X52058000Y-51396000D03*
X50558000Y-53896000D03*
X49058000Y-51396000D03*
D20*
X112808000Y-44896000D03*
X74308000Y-44896000D03*
X41808000Y-44896000D03*
%TD*%
D21*
%TO.C,BZ1*%
X110800000Y-134500000D03*
D10*
X110800000Y-142100000D03*
%TD*%
D22*
%TO.C,J3*%
X73380600Y-101854000D03*
X75920600Y-101854000D03*
X78460600Y-101854000D03*
X81000600Y-101854000D03*
X73380600Y-99314000D03*
X75920600Y-99314000D03*
X78460600Y-99314000D03*
X81000600Y-99314000D03*
X73380600Y-96774000D03*
X75920600Y-96774000D03*
X78460600Y-96774000D03*
X81000600Y-96774000D03*
X73380600Y-94234000D03*
X75920600Y-94234000D03*
X78460600Y-94234000D03*
X81000600Y-94234000D03*
%TD*%
D11*
%TO.C,J4*%
X19379400Y-146906400D03*
D12*
X20629400Y-146906400D03*
X21879400Y-146906400D03*
X23129400Y-146906400D03*
X24379400Y-146906400D03*
X25629400Y-146906400D03*
%TD*%
D15*
%TO.C,H1*%
X18787544Y-47124456D03*
D16*
X20484600Y-45427400D03*
D15*
X18787544Y-43730344D03*
X22181656Y-47124456D03*
X20484600Y-47827400D03*
X22181656Y-43730344D03*
X20484600Y-43027400D03*
X22884600Y-45427400D03*
X18084600Y-45427400D03*
%TD*%
D10*
%TO.C,TP4*%
X106095800Y-127685800D03*
%TD*%
D15*
%TO.C,H3*%
X22207056Y-160434856D03*
X18812944Y-157040744D03*
X22207056Y-157040744D03*
X22910000Y-158737800D03*
X18812944Y-160434856D03*
D16*
X20510000Y-158737800D03*
D15*
X18110000Y-158737800D03*
X20510000Y-161137800D03*
X20510000Y-156337800D03*
%TD*%
D10*
%TO.C,TP2*%
X101250000Y-126796800D03*
%TD*%
D15*
%TO.C,H4*%
X134942744Y-160434856D03*
X138336856Y-157040744D03*
X136639800Y-161137800D03*
X134239800Y-158737800D03*
D16*
X136639800Y-158737800D03*
D15*
X139039800Y-158737800D03*
X138336856Y-160434856D03*
X134942744Y-157040744D03*
X136639800Y-156337800D03*
%TD*%
D23*
%TO.C,C88*%
X130937000Y-116666000D03*
D24*
X130937000Y-121666000D03*
%TD*%
D25*
%TO.C,C45*%
X45300000Y-141550000D03*
X44578752Y-140828752D03*
%TD*%
D26*
%TO.C,R59*%
X49325400Y-98994400D03*
X48305400Y-98994400D03*
%TD*%
D27*
%TO.C,C44*%
X33062873Y-130014631D03*
X33784121Y-130735879D03*
%TD*%
D25*
%TO.C,C52*%
X40049480Y-126041584D03*
X39328232Y-125320336D03*
%TD*%
D28*
%TO.C,F12*%
X95156345Y-99935773D03*
X95156345Y-97135773D03*
%TD*%
D29*
%TO.C,R170*%
X89250000Y-155500000D03*
X89250000Y-154480000D03*
%TD*%
D25*
%TO.C,R73*%
X31410624Y-134260624D03*
X30689376Y-133539376D03*
%TD*%
D29*
%TO.C,R168*%
X61750000Y-149750000D03*
X61750000Y-148730000D03*
%TD*%
D28*
%TO.C,F11*%
X91193945Y-99977373D03*
X91193945Y-97177373D03*
%TD*%
D30*
%TO.C,R174*%
X31242000Y-154836400D03*
X31242000Y-155856400D03*
%TD*%
D28*
%TO.C,F14*%
X107492800Y-100079000D03*
X107492800Y-97279000D03*
%TD*%
D31*
%TO.C,C77*%
X32985389Y-137093011D03*
X33664211Y-136414189D03*
%TD*%
D28*
%TO.C,F15*%
X111760000Y-100079000D03*
X111760000Y-97279000D03*
%TD*%
%TO.C,F13*%
X99525145Y-100037373D03*
X99525145Y-97237373D03*
%TD*%
%TO.C,F17*%
X120142000Y-100076000D03*
X120142000Y-97276000D03*
%TD*%
D32*
%TO.C,D4*%
X56650000Y-150350000D03*
X56650000Y-149050000D03*
X58650000Y-149700000D03*
%TD*%
D33*
%TO.C,D28*%
X48175400Y-100594400D03*
X49475400Y-100594400D03*
X48825400Y-102494400D03*
%TD*%
D34*
%TO.C,U12*%
X33189332Y-150579668D03*
X32517581Y-149907917D03*
X31845830Y-149236166D03*
X33454498Y-147627498D03*
X34126249Y-148299249D03*
X34798000Y-148971000D03*
%TD*%
D30*
%TO.C,R167*%
X60500000Y-148730000D03*
X60500000Y-149750000D03*
%TD*%
D29*
%TO.C,R177*%
X28702000Y-155856400D03*
X28702000Y-154836400D03*
%TD*%
D35*
%TO.C,R58*%
X54915400Y-98994400D03*
X55935400Y-98994400D03*
%TD*%
D25*
%TO.C,R74*%
X32410624Y-133310624D03*
X31689376Y-132589376D03*
%TD*%
D33*
%TO.C,D27*%
X54875400Y-100610400D03*
X56175400Y-100610400D03*
X55525400Y-102510400D03*
%TD*%
D29*
%TO.C,R176*%
X30022800Y-155856400D03*
X30022800Y-154836400D03*
%TD*%
D36*
%TO.C,C80*%
X42568195Y-122094515D03*
X43247017Y-122773337D03*
%TD*%
D28*
%TO.C,F10*%
X86674745Y-99977373D03*
X86674745Y-97177373D03*
%TD*%
D37*
%TO.C,L1*%
X41712243Y-125549084D03*
X40598549Y-124435390D03*
%TD*%
D38*
%TO.C,JP1*%
X53279522Y-141411478D03*
X54198761Y-140492239D03*
X55118000Y-139573000D03*
%TD*%
D28*
%TO.C,F16*%
X115697000Y-100082000D03*
X115697000Y-97282000D03*
%TD*%
D29*
%TO.C,R178*%
X32512000Y-155831000D03*
X32512000Y-154811000D03*
%TD*%
%TO.C,R169*%
X88000000Y-155510000D03*
X88000000Y-154490000D03*
%TD*%
D27*
%TO.C,R56*%
X34439376Y-138089376D03*
X35160624Y-138810624D03*
%TD*%
D36*
%TO.C,C83*%
X41634249Y-123028463D03*
X42313071Y-123707285D03*
%TD*%
D39*
%TO.C,C51*%
X36889376Y-140860624D03*
X37610624Y-140139376D03*
%TD*%
M02*
