%TF.GenerationSoftware,KiCad,Pcbnew,(6.0.8)*%
%TF.CreationDate,2024-01-16T01:15:22+01:00*%
%TF.ProjectId,pdms,70646d73-2e6b-4696-9361-645f70636258,rev?*%
%TF.SameCoordinates,Original*%
%TF.FileFunction,Soldermask,Top*%
%TF.FilePolarity,Negative*%
%FSLAX46Y46*%
G04 Gerber Fmt 4.6, Leading zero omitted, Abs format (unit mm)*
G04 Created by KiCad (PCBNEW (6.0.8)) date 2024-01-16 01:15:22*
%MOMM*%
%LPD*%
G01*
G04 APERTURE LIST*
G04 Aperture macros list*
%AMRoundRect*
0 Rectangle with rounded corners*
0 $1 Rounding radius*
0 $2 $3 $4 $5 $6 $7 $8 $9 X,Y pos of 4 corners*
0 Add a 4 corners polygon primitive as box body*
4,1,4,$2,$3,$4,$5,$6,$7,$8,$9,$2,$3,0*
0 Add four circle primitives for the rounded corners*
1,1,$1+$1,$2,$3*
1,1,$1+$1,$4,$5*
1,1,$1+$1,$6,$7*
1,1,$1+$1,$8,$9*
0 Add four rect primitives between the rounded corners*
20,1,$1+$1,$2,$3,$4,$5,0*
20,1,$1+$1,$4,$5,$6,$7,0*
20,1,$1+$1,$6,$7,$8,$9,0*
20,1,$1+$1,$8,$9,$2,$3,0*%
%AMRotRect*
0 Rectangle, with rotation*
0 The origin of the aperture is its center*
0 $1 length*
0 $2 width*
0 $3 Rotation angle, in degrees counterclockwise*
0 Add horizontal line*
21,1,$1,$2,0,0,$3*%
G04 Aperture macros list end*
%ADD10RoundRect,0.135000X0.185000X-0.135000X0.185000X0.135000X-0.185000X0.135000X-0.185000X-0.135000X0*%
%ADD11RoundRect,0.250000X-0.475000X0.250000X-0.475000X-0.250000X0.475000X-0.250000X0.475000X0.250000X0*%
%ADD12RoundRect,0.135000X-0.135000X-0.185000X0.135000X-0.185000X0.135000X0.185000X-0.135000X0.185000X0*%
%ADD13RoundRect,0.140000X0.170000X-0.140000X0.170000X0.140000X-0.170000X0.140000X-0.170000X-0.140000X0*%
%ADD14RoundRect,0.140000X-0.219203X-0.021213X-0.021213X-0.219203X0.219203X0.021213X0.021213X0.219203X0*%
%ADD15RoundRect,0.140000X-0.140000X-0.170000X0.140000X-0.170000X0.140000X0.170000X-0.140000X0.170000X0*%
%ADD16RoundRect,0.135000X0.135000X0.185000X-0.135000X0.185000X-0.135000X-0.185000X0.135000X-0.185000X0*%
%ADD17R,0.800000X2.600000*%
%ADD18R,4.400000X2.600000*%
%ADD19R,10.000000X7.410000*%
%ADD20R,0.700000X0.700000*%
%ADD21RoundRect,0.225000X0.250000X-0.225000X0.250000X0.225000X-0.250000X0.225000X-0.250000X-0.225000X0*%
%ADD22RoundRect,0.200000X-0.200000X-0.450000X0.200000X-0.450000X0.200000X0.450000X-0.200000X0.450000X0*%
%ADD23O,0.800000X1.300000*%
%ADD24RoundRect,0.140000X0.140000X0.170000X-0.140000X0.170000X-0.140000X-0.170000X0.140000X-0.170000X0*%
%ADD25R,0.450000X1.525000*%
%ADD26R,6.500000X2.870000*%
%ADD27R,0.450000X1.475000*%
%ADD28RoundRect,0.135000X-0.185000X0.135000X-0.185000X-0.135000X0.185000X-0.135000X0.185000X0.135000X0*%
%ADD29RoundRect,0.150000X-0.587500X-0.150000X0.587500X-0.150000X0.587500X0.150000X-0.587500X0.150000X0*%
%ADD30RoundRect,0.135000X0.226274X0.035355X0.035355X0.226274X-0.226274X-0.035355X-0.035355X-0.226274X0*%
%ADD31R,0.700000X0.450000*%
%ADD32RoundRect,0.225000X-0.250000X0.225000X-0.250000X-0.225000X0.250000X-0.225000X0.250000X0.225000X0*%
%ADD33RoundRect,0.250000X0.250000X0.475000X-0.250000X0.475000X-0.250000X-0.475000X0.250000X-0.475000X0*%
%ADD34RoundRect,0.019500X0.465500X0.175500X-0.465500X0.175500X-0.465500X-0.175500X0.465500X-0.175500X0*%
%ADD35RoundRect,0.019500X-0.465500X-0.175500X0.465500X-0.175500X0.465500X0.175500X-0.465500X0.175500X0*%
%ADD36R,1.750000X0.650000*%
%ADD37C,1.000000*%
%ADD38R,0.600000X0.470000*%
%ADD39C,0.800000*%
%ADD40C,6.400000*%
%ADD41RoundRect,0.140000X0.219203X0.021213X0.021213X0.219203X-0.219203X-0.021213X-0.021213X-0.219203X0*%
%ADD42RoundRect,0.147500X0.017678X-0.226274X0.226274X-0.017678X-0.017678X0.226274X-0.226274X0.017678X0*%
%ADD43RoundRect,0.135000X-0.226274X-0.035355X-0.035355X-0.226274X0.226274X0.035355X0.035355X0.226274X0*%
%ADD44R,0.800000X0.600000*%
%ADD45RoundRect,0.250000X-0.132583X0.503814X-0.503814X0.132583X0.132583X-0.503814X0.503814X-0.132583X0*%
%ADD46R,0.250000X0.750000*%
%ADD47R,0.300000X0.750000*%
%ADD48O,1.025000X2.050000*%
%ADD49O,0.925000X1.850000*%
%ADD50RoundRect,0.135000X-0.035355X0.226274X-0.226274X0.035355X0.035355X-0.226274X0.226274X-0.035355X0*%
%ADD51C,2.250000*%
%ADD52C,5.100000*%
%ADD53RoundRect,0.243750X0.243750X0.456250X-0.243750X0.456250X-0.243750X-0.456250X0.243750X-0.456250X0*%
%ADD54RoundRect,0.250000X-0.250000X-0.475000X0.250000X-0.475000X0.250000X0.475000X-0.250000X0.475000X0*%
%ADD55R,0.850000X0.300000*%
%ADD56R,1.700000X2.500000*%
%ADD57RotRect,0.300000X1.475000X315.000000*%
%ADD58RotRect,0.300000X1.475000X225.000000*%
%ADD59R,2.000000X2.000000*%
%ADD60C,2.000000*%
%ADD61C,2.200000*%
%ADD62RoundRect,0.243750X-0.243750X-0.456250X0.243750X-0.456250X0.243750X0.456250X-0.243750X0.456250X0*%
%ADD63R,0.475000X0.300000*%
%ADD64RoundRect,0.135000X0.035355X-0.226274X0.226274X-0.035355X-0.035355X0.226274X-0.226274X0.035355X0*%
%ADD65RotRect,0.250000X0.475000X45.000000*%
%ADD66RotRect,0.250000X0.475000X315.000000*%
%ADD67RoundRect,0.225000X-0.225000X-0.250000X0.225000X-0.250000X0.225000X0.250000X-0.225000X0.250000X0*%
%ADD68R,0.300000X0.850000*%
%ADD69R,2.500000X1.700000*%
%ADD70R,0.450000X0.700000*%
%ADD71RotRect,1.000000X1.800000X225.000000*%
%ADD72RoundRect,0.150000X0.587500X0.150000X-0.587500X0.150000X-0.587500X-0.150000X0.587500X-0.150000X0*%
%ADD73RotRect,0.900000X0.800000X45.000000*%
%ADD74RoundRect,0.150000X0.150000X-0.825000X0.150000X0.825000X-0.150000X0.825000X-0.150000X-0.825000X0*%
%ADD75RotRect,1.400000X1.400000X45.000000*%
%ADD76R,2.286000X1.854500*%
%ADD77R,1.475000X0.450000*%
%ADD78RoundRect,0.243750X0.456250X-0.243750X0.456250X0.243750X-0.456250X0.243750X-0.456250X-0.243750X0*%
%ADD79R,0.550000X1.000000*%
%ADD80RoundRect,0.250000X1.000000X-1.950000X1.000000X1.950000X-1.000000X1.950000X-1.000000X-1.950000X0*%
%ADD81RoundRect,0.140000X-0.021213X0.219203X-0.219203X0.021213X0.021213X-0.219203X0.219203X-0.021213X0*%
G04 APERTURE END LIST*
D10*
%TO.C,R68*%
X21434000Y-111112000D03*
X21434000Y-110092000D03*
%TD*%
D11*
%TO.C,C3*%
X116400000Y-56100000D03*
X116400000Y-58000000D03*
%TD*%
D12*
%TO.C,C91*%
X84374800Y-156718000D03*
X85394800Y-156718000D03*
%TD*%
D13*
%TO.C,C116*%
X78809400Y-75588600D03*
X78809400Y-74628600D03*
%TD*%
D12*
%TO.C,R14*%
X113080000Y-190210000D03*
X112060000Y-190210000D03*
%TD*%
%TO.C,R195*%
X181766000Y-88402000D03*
X182786000Y-88402000D03*
%TD*%
D14*
%TO.C,C78*%
X56673256Y-136101293D03*
X57352078Y-136780115D03*
%TD*%
D10*
%TO.C,R83*%
X36586000Y-111110000D03*
X36586000Y-110090000D03*
%TD*%
D12*
%TO.C,R184*%
X343119000Y9466000D03*
X344139000Y9466000D03*
%TD*%
D15*
%TO.C,C107*%
X275237000Y-7682000D03*
X276197000Y-7682000D03*
%TD*%
D12*
%TO.C,R206*%
X331996000Y-115049000D03*
X333016000Y-115049000D03*
%TD*%
D16*
%TO.C,R137*%
X78589600Y-117094000D03*
X77569600Y-117094000D03*
%TD*%
D17*
%TO.C,Q6*%
X65896600Y-78841600D03*
X64696600Y-78841600D03*
X63496600Y-78841600D03*
X62296600Y-78841600D03*
D18*
X59296600Y-78841600D03*
D19*
X61696600Y-86376600D03*
%TD*%
D20*
%TO.C,D18*%
X58267600Y-160020000D03*
X58267600Y-158920000D03*
X56437600Y-158920000D03*
X56437600Y-160020000D03*
%TD*%
D10*
%TO.C,R77*%
X28979000Y-111112000D03*
X28979000Y-110092000D03*
%TD*%
%TO.C,R72*%
X103962200Y-150293800D03*
X103962200Y-149273800D03*
%TD*%
%TO.C,R25*%
X91280000Y-124516000D03*
X91280000Y-123496000D03*
%TD*%
D12*
%TO.C,R210*%
X259019000Y-37249000D03*
X260039000Y-37249000D03*
%TD*%
D16*
%TO.C,R152*%
X78640400Y-114808000D03*
X77620400Y-114808000D03*
%TD*%
D21*
%TO.C,C73*%
X112348000Y-109029800D03*
X112348000Y-107479800D03*
%TD*%
D17*
%TO.C,Q4*%
X41715800Y-78840800D03*
X40515800Y-78840800D03*
X39315800Y-78840800D03*
X38115800Y-78840800D03*
D18*
X35115800Y-78840800D03*
D19*
X37515800Y-86375800D03*
%TD*%
D22*
%TO.C,J5*%
X92125000Y-155450000D03*
D23*
X93375000Y-155450000D03*
X94625000Y-155450000D03*
X95875000Y-155450000D03*
%TD*%
D10*
%TO.C,R173*%
X31242000Y-154686000D03*
X31242000Y-153666000D03*
%TD*%
D24*
%TO.C,C113*%
X199785000Y-150919000D03*
X198825000Y-150919000D03*
%TD*%
D20*
%TO.C,D10*%
X39725600Y-160028800D03*
X39725600Y-158928800D03*
X37895600Y-158928800D03*
X37895600Y-160028800D03*
%TD*%
D12*
%TO.C,R197*%
X181766000Y-86412000D03*
X182786000Y-86412000D03*
%TD*%
D10*
%TO.C,R59*%
X45110400Y-105920000D03*
X45110400Y-104900000D03*
%TD*%
D12*
%TO.C,R192*%
X275227000Y-3712000D03*
X276247000Y-3712000D03*
%TD*%
D21*
%TO.C,C70*%
X105223000Y-109004800D03*
X105223000Y-107454800D03*
%TD*%
D16*
%TO.C,R156*%
X78660000Y-113665000D03*
X77640000Y-113665000D03*
%TD*%
D25*
%TO.C,IC7*%
X84638000Y-119606000D03*
X85288000Y-119606000D03*
X85938000Y-119606000D03*
X86588000Y-119606000D03*
X87238000Y-119606000D03*
X87888000Y-119606000D03*
X88538000Y-119606000D03*
X89188000Y-119606000D03*
X89838000Y-119606000D03*
X90488000Y-119606000D03*
X91138000Y-119606000D03*
X91788000Y-119606000D03*
X91788000Y-114182000D03*
X91138000Y-114182000D03*
X90488000Y-114182000D03*
X89838000Y-114182000D03*
X89188000Y-114182000D03*
X88538000Y-114182000D03*
X87888000Y-114182000D03*
X87238000Y-114182000D03*
X86588000Y-114182000D03*
X85938000Y-114182000D03*
X85288000Y-114182000D03*
X84638000Y-114182000D03*
D26*
X88213000Y-116894000D03*
%TD*%
D27*
%TO.C,IC1*%
X138419000Y-118905800D03*
X137769000Y-118905800D03*
X137119000Y-118905800D03*
X136469000Y-118905800D03*
X135819000Y-118905800D03*
X135169000Y-118905800D03*
X134519000Y-118905800D03*
X133869000Y-118905800D03*
X133869000Y-124781800D03*
X134519000Y-124781800D03*
X135169000Y-124781800D03*
X135819000Y-124781800D03*
X136469000Y-124781800D03*
X137119000Y-124781800D03*
X137769000Y-124781800D03*
X138419000Y-124781800D03*
%TD*%
D20*
%TO.C,D21*%
X86029800Y-160020000D03*
X86029800Y-158920000D03*
X84199800Y-158920000D03*
X84199800Y-160020000D03*
%TD*%
D15*
%TO.C,C112*%
X181776000Y-90382000D03*
X182736000Y-90382000D03*
%TD*%
D28*
%TO.C,R80*%
X32766000Y-110094000D03*
X32766000Y-111114000D03*
%TD*%
D16*
%TO.C,R62*%
X99824000Y-142544800D03*
X98804000Y-142544800D03*
%TD*%
D10*
%TO.C,R75*%
X26439000Y-111112000D03*
X26439000Y-110092000D03*
%TD*%
D29*
%TO.C,Q1*%
X98902400Y-134370800D03*
X98902400Y-136270800D03*
X100777400Y-135320800D03*
%TD*%
D12*
%TO.C,R13*%
X115990000Y-192200000D03*
X114970000Y-192200000D03*
%TD*%
%TO.C,R109*%
X96063100Y-131724400D03*
X97083100Y-131724400D03*
%TD*%
D30*
%TO.C,C42*%
X49529108Y-123182699D03*
X48807860Y-122461451D03*
%TD*%
D28*
%TO.C,R179*%
X25325287Y-152802400D03*
X25325287Y-153822400D03*
%TD*%
D31*
%TO.C,D8*%
X242534000Y-107401000D03*
X242534000Y-108701000D03*
X244534000Y-108051000D03*
%TD*%
D10*
%TO.C,R165*%
X39116000Y-106047000D03*
X39116000Y-105027000D03*
%TD*%
D32*
%TO.C,C55*%
X94149900Y-132155800D03*
X94149900Y-133705800D03*
%TD*%
D33*
%TO.C,C54*%
X91550000Y-137100000D03*
X89650000Y-137100000D03*
%TD*%
D30*
%TO.C,C48*%
X33319957Y-123224560D03*
X32598709Y-122503312D03*
%TD*%
D14*
%TO.C,C81*%
X52004547Y-140724039D03*
X52683369Y-141402861D03*
%TD*%
D34*
%TO.C,D24*%
X29324000Y-114046000D03*
X29324000Y-113396000D03*
X29324000Y-112746000D03*
D35*
X27364000Y-112746000D03*
X27364000Y-113396000D03*
X27364000Y-114046000D03*
%TD*%
D22*
%TO.C,J1*%
X19364000Y-147160400D03*
D23*
X20614000Y-147160400D03*
X21864000Y-147160400D03*
X23114000Y-147160400D03*
X24364000Y-147160400D03*
X25614000Y-147160400D03*
X26864000Y-147160400D03*
%TD*%
D36*
%TO.C,IC20*%
X29910000Y-125160000D03*
X29910000Y-123890000D03*
X29910000Y-122620000D03*
X29910000Y-121350000D03*
X22660000Y-121350000D03*
X22660000Y-122620000D03*
X22660000Y-123890000D03*
X22660000Y-125160000D03*
%TD*%
D12*
%TO.C,R153*%
X66417000Y-117094000D03*
X67437000Y-117094000D03*
%TD*%
D28*
%TO.C,R86*%
X40396000Y-110092000D03*
X40396000Y-111112000D03*
%TD*%
%TO.C,R162*%
X35306000Y-105027000D03*
X35306000Y-106047000D03*
%TD*%
D37*
%TO.C,TP1*%
X102666800Y-137500000D03*
%TD*%
D38*
%TO.C,U4*%
X56169400Y-169127400D03*
X57439400Y-169127400D03*
X57439400Y-174047400D03*
X56169400Y-174047400D03*
%TD*%
D12*
%TO.C,R216*%
X186073000Y-45580000D03*
X187093000Y-45580000D03*
%TD*%
D39*
%TO.C,H2*%
X138336856Y-43730344D03*
X136639800Y-43027400D03*
X134942744Y-47124456D03*
D40*
X136639800Y-45427400D03*
D39*
X134239800Y-45427400D03*
X134942744Y-43730344D03*
X136639800Y-47827400D03*
X138336856Y-47124456D03*
X139039800Y-45427400D03*
%TD*%
D12*
%TO.C,R213*%
X255669000Y-39399000D03*
X256689000Y-39399000D03*
%TD*%
D20*
%TO.C,D15*%
X99898800Y-160024600D03*
X99898800Y-158924600D03*
X98068800Y-158924600D03*
X98068800Y-160024600D03*
%TD*%
D33*
%TO.C,C56*%
X96809600Y-139573000D03*
X94909600Y-139573000D03*
%TD*%
D27*
%TO.C,IC2*%
X133479700Y-105596200D03*
X132829700Y-105596200D03*
X132179700Y-105596200D03*
X131529700Y-105596200D03*
X130879700Y-105596200D03*
X130229700Y-105596200D03*
X129579700Y-105596200D03*
X128929700Y-105596200D03*
X128929700Y-111472200D03*
X129579700Y-111472200D03*
X130229700Y-111472200D03*
X130879700Y-111472200D03*
X131529700Y-111472200D03*
X132179700Y-111472200D03*
X132829700Y-111472200D03*
X133479700Y-111472200D03*
%TD*%
D16*
%TO.C,R181*%
X202705000Y-150749000D03*
X201685000Y-150749000D03*
%TD*%
D10*
%TO.C,R5*%
X53075800Y-175184700D03*
X53075800Y-176204700D03*
%TD*%
D24*
%TO.C,C65*%
X46073000Y-115824000D03*
X45113000Y-115824000D03*
%TD*%
D41*
%TO.C,C82*%
X24883608Y-131584542D03*
X24204786Y-130905720D03*
%TD*%
D28*
%TO.C,R7*%
X59273400Y-176204700D03*
X59273400Y-175184700D03*
%TD*%
D12*
%TO.C,R34*%
X120440000Y-185430000D03*
X119420000Y-185430000D03*
%TD*%
%TO.C,R28*%
X80102000Y-119733000D03*
X81122000Y-119733000D03*
%TD*%
D13*
%TO.C,C105*%
X54651200Y-75588600D03*
X54651200Y-74628600D03*
%TD*%
D21*
%TO.C,C72*%
X109623000Y-109097800D03*
X109623000Y-107547800D03*
%TD*%
D12*
%TO.C,R202*%
X207626000Y-636000D03*
X208646000Y-636000D03*
%TD*%
D42*
%TO.C,D33*%
X57715990Y-131337055D03*
X58401884Y-130651161D03*
%TD*%
D43*
%TO.C,C46*%
X52040752Y-119228559D03*
X52762000Y-119949807D03*
%TD*%
D13*
%TO.C,C131*%
X115027000Y-75588600D03*
X115027000Y-74628600D03*
%TD*%
D28*
%TO.C,R100*%
X108036889Y-123474455D03*
X108036889Y-124494455D03*
%TD*%
%TO.C,R164*%
X37846000Y-105027000D03*
X37846000Y-106047000D03*
%TD*%
D31*
%TO.C,D9*%
X231814000Y-107401000D03*
X231814000Y-108701000D03*
X233814000Y-108051000D03*
%TD*%
D44*
%TO.C,RT5*%
X76007400Y-76251600D03*
X75007400Y-76251600D03*
%TD*%
D10*
%TO.C,C63*%
X87675000Y-145285000D03*
X87675000Y-144265000D03*
%TD*%
%TO.C,R119*%
X61178400Y-175184700D03*
X61178400Y-176204700D03*
%TD*%
D45*
%TO.C,R54*%
X60589235Y-131307765D03*
X59298765Y-132598235D03*
%TD*%
D12*
%TO.C,R208*%
X331996000Y-113059000D03*
X333016000Y-113059000D03*
%TD*%
%TO.C,R203*%
X204716000Y-636000D03*
X205736000Y-636000D03*
%TD*%
D16*
%TO.C,C60*%
X99824000Y-147624800D03*
X98804000Y-147624800D03*
%TD*%
%TO.C,R67*%
X205615000Y-148759000D03*
X204595000Y-148759000D03*
%TD*%
D28*
%TO.C,R98*%
X105496889Y-123474455D03*
X105496889Y-124494455D03*
%TD*%
D46*
%TO.C,J6*%
X27430000Y-157838800D03*
X28230000Y-157838800D03*
X28730000Y-157838800D03*
X29230000Y-157838800D03*
X29730000Y-157838800D03*
X30230000Y-157838800D03*
X30730000Y-157838800D03*
X31230000Y-157838800D03*
X31730000Y-157838800D03*
X32230000Y-157838800D03*
X32730000Y-157838800D03*
X33530000Y-157838800D03*
X33480000Y-159088800D03*
X32980000Y-159088800D03*
X32480000Y-159088800D03*
X31980000Y-159088800D03*
X31480000Y-159088800D03*
X30980000Y-159088800D03*
X29980000Y-159088800D03*
X29480000Y-159088800D03*
X28980000Y-159088800D03*
X28480000Y-159088800D03*
X27980000Y-159088800D03*
X27480000Y-159088800D03*
D47*
X26930000Y-157838800D03*
X34030000Y-157838800D03*
D48*
X26030000Y-161213800D03*
X34930000Y-161213800D03*
D49*
X26030000Y-158013800D03*
X34930000Y-158013800D03*
%TD*%
D17*
%TO.C,Q8*%
X90052000Y-78841600D03*
X88852000Y-78841600D03*
X87652000Y-78841600D03*
X86452000Y-78841600D03*
D18*
X83452000Y-78841600D03*
D19*
X85852000Y-86376600D03*
%TD*%
D31*
%TO.C,D41*%
X71304400Y-128585200D03*
X71304400Y-129885200D03*
X73304400Y-129235200D03*
%TD*%
D10*
%TO.C,R104*%
X114386889Y-124494455D03*
X114386889Y-123474455D03*
%TD*%
D24*
%TO.C,C127*%
X94188200Y-91617800D03*
X93228200Y-91617800D03*
%TD*%
D31*
%TO.C,D6*%
X231814000Y-100061000D03*
X231814000Y-101361000D03*
X233814000Y-100711000D03*
%TD*%
D50*
%TO.C,C49*%
X38799329Y-148709113D03*
X38078081Y-149430361D03*
%TD*%
D15*
%TO.C,C1*%
X71948800Y-127964600D03*
X72908800Y-127964600D03*
%TD*%
%TO.C,C108*%
X184686000Y-88392000D03*
X185646000Y-88392000D03*
%TD*%
D20*
%TO.C,D16*%
X53644800Y-160020000D03*
X53644800Y-158920000D03*
X51814800Y-158920000D03*
X51814800Y-160020000D03*
%TD*%
D51*
%TO.C,J2*%
X96068000Y-69598000D03*
X94568000Y-67098000D03*
X93068000Y-69598000D03*
X91568000Y-67098000D03*
X90068000Y-69598000D03*
X88568000Y-67098000D03*
X87068000Y-69598000D03*
X85568000Y-67098000D03*
X84068000Y-69598000D03*
X82568000Y-67098000D03*
X81068000Y-69598000D03*
X79568000Y-67098000D03*
X78068000Y-69598000D03*
X76568000Y-67098000D03*
X75068000Y-69598000D03*
X73568000Y-67098000D03*
X72068000Y-69598000D03*
X96068000Y-61598000D03*
X94568000Y-64098000D03*
X93068000Y-61598000D03*
X91568000Y-64098000D03*
X90068000Y-61598000D03*
X88568000Y-64098000D03*
X87068000Y-61598000D03*
X85568000Y-64098000D03*
X84068000Y-61598000D03*
X82568000Y-64098000D03*
X81068000Y-61598000D03*
X79568000Y-64098000D03*
X78068000Y-61598000D03*
X76568000Y-64098000D03*
X75068000Y-61598000D03*
X73568000Y-64098000D03*
X72068000Y-61598000D03*
X57568000Y-69598000D03*
X56068000Y-67098000D03*
X54568000Y-69598000D03*
X53068000Y-67098000D03*
X51568000Y-69598000D03*
X50068000Y-67098000D03*
X48568000Y-69598000D03*
X47068000Y-67098000D03*
X45568000Y-69598000D03*
X44068000Y-67098000D03*
X42568000Y-69598000D03*
X41068000Y-67098000D03*
X39568000Y-69598000D03*
X57568000Y-61598000D03*
X56068000Y-64098000D03*
X54568000Y-61598000D03*
X53068000Y-64098000D03*
X51568000Y-61598000D03*
X50068000Y-64098000D03*
X48568000Y-61598000D03*
X47068000Y-64098000D03*
X45568000Y-61598000D03*
X44068000Y-64098000D03*
X42568000Y-61598000D03*
X41068000Y-64098000D03*
X39568000Y-61598000D03*
D52*
X103318000Y-55098000D03*
X64818000Y-55098000D03*
X32318000Y-55098000D03*
%TD*%
D15*
%TO.C,C98*%
X342689000Y5336000D03*
X343649000Y5336000D03*
%TD*%
D53*
%TO.C,D34*%
X99517200Y-149606000D03*
X97642200Y-149606000D03*
%TD*%
D12*
%TO.C,R19*%
X121810000Y-189410000D03*
X120790000Y-189410000D03*
%TD*%
%TO.C,R141*%
X66417000Y-115968000D03*
X67437000Y-115968000D03*
%TD*%
D28*
%TO.C,R71*%
X25244000Y-110092000D03*
X25244000Y-111112000D03*
%TD*%
D12*
%TO.C,R204*%
X338256000Y-110909000D03*
X339276000Y-110909000D03*
%TD*%
D28*
%TO.C,R97*%
X104226889Y-123474455D03*
X104226889Y-124494455D03*
%TD*%
D15*
%TO.C,C128*%
X255679000Y-43369000D03*
X256639000Y-43369000D03*
%TD*%
%TO.C,C104*%
X281057000Y-3542000D03*
X282017000Y-3542000D03*
%TD*%
D20*
%TO.C,D36*%
X102599000Y-154191200D03*
X102599000Y-155291200D03*
X104429000Y-155291200D03*
X104429000Y-154191200D03*
%TD*%
D54*
%TO.C,C19*%
X80170000Y-121511000D03*
X82070000Y-121511000D03*
%TD*%
D12*
%TO.C,R60*%
X98804000Y-145084800D03*
X99824000Y-145084800D03*
%TD*%
%TO.C,R214*%
X192333000Y-41440000D03*
X193353000Y-41440000D03*
%TD*%
%TO.C,R96*%
X114384889Y-120219455D03*
X115404889Y-120219455D03*
%TD*%
D13*
%TO.C,C121*%
X90897000Y-75588600D03*
X90897000Y-74628600D03*
%TD*%
D12*
%TO.C,R185*%
X339769000Y5326000D03*
X340789000Y5326000D03*
%TD*%
D55*
%TO.C,IC14*%
X114450000Y-51866800D03*
X114450000Y-50916800D03*
X114450000Y-49966800D03*
X111550000Y-49966800D03*
X111550000Y-50916800D03*
X111550000Y-51866800D03*
D56*
X113000000Y-50916800D03*
%TD*%
D20*
%TO.C,D30*%
X72135400Y-160020000D03*
X72135400Y-158920000D03*
X70305400Y-158920000D03*
X70305400Y-160020000D03*
%TD*%
D15*
%TO.C,C118*%
X204726000Y-4606000D03*
X205686000Y-4606000D03*
%TD*%
D12*
%TO.C,R10*%
X118900000Y-191400000D03*
X117880000Y-191400000D03*
%TD*%
%TO.C,R15*%
X123350000Y-183440000D03*
X122330000Y-183440000D03*
%TD*%
D13*
%TO.C,C100*%
X42560800Y-75587800D03*
X42560800Y-74627800D03*
%TD*%
D15*
%TO.C,C130*%
X191903000Y-43420000D03*
X192863000Y-43420000D03*
%TD*%
D24*
%TO.C,C64*%
X51788000Y-115824000D03*
X50828000Y-115824000D03*
%TD*%
D10*
%TO.C,R175*%
X30099000Y-154686000D03*
X30099000Y-153666000D03*
%TD*%
D15*
%TO.C,C125*%
X261499000Y-39229000D03*
X262459000Y-39229000D03*
%TD*%
D28*
%TO.C,R166*%
X40386000Y-105027000D03*
X40386000Y-106047000D03*
%TD*%
D12*
%TO.C,R105*%
X114427889Y-118949455D03*
X115447889Y-118949455D03*
%TD*%
%TO.C,R217*%
X188983000Y-43590000D03*
X190003000Y-43590000D03*
%TD*%
D57*
%TO.C,IC19*%
X55174508Y-131868942D03*
X54820955Y-131515388D03*
X54467401Y-131161835D03*
X54113848Y-130808282D03*
X53760294Y-130454728D03*
X53406741Y-130101175D03*
X53053188Y-129747621D03*
X52699634Y-129394068D03*
X52346081Y-129040515D03*
X51992527Y-128686961D03*
X51638974Y-128333408D03*
X51285421Y-127979854D03*
X50931867Y-127626301D03*
X50578314Y-127272748D03*
X50224760Y-126919194D03*
X49871207Y-126565641D03*
X49517654Y-126212087D03*
X49164100Y-125858534D03*
X48810547Y-125504981D03*
X48456994Y-125151427D03*
X48103440Y-124797874D03*
X47749887Y-124444321D03*
X47396333Y-124090767D03*
X47042780Y-123737214D03*
X46689227Y-123383660D03*
X46335673Y-123030107D03*
X45982120Y-122676554D03*
X45628566Y-122323000D03*
X45275013Y-121969447D03*
X44921460Y-121615893D03*
X44567906Y-121262340D03*
X44214353Y-120908787D03*
X43860799Y-120555233D03*
X43507246Y-120201680D03*
X43153693Y-119848126D03*
X42800139Y-119494573D03*
D58*
X39988683Y-119494573D03*
X39635129Y-119848126D03*
X39281576Y-120201680D03*
X38928023Y-120555233D03*
X38574469Y-120908787D03*
X38220916Y-121262340D03*
X37867362Y-121615893D03*
X37513809Y-121969447D03*
X37160256Y-122323000D03*
X36806702Y-122676554D03*
X36453149Y-123030107D03*
X36099595Y-123383660D03*
X35746042Y-123737214D03*
X35392489Y-124090767D03*
X35038935Y-124444321D03*
X34685382Y-124797874D03*
X34331828Y-125151427D03*
X33978275Y-125504981D03*
X33624722Y-125858534D03*
X33271168Y-126212087D03*
X32917615Y-126565641D03*
X32564062Y-126919194D03*
X32210508Y-127272748D03*
X31856955Y-127626301D03*
X31503401Y-127979854D03*
X31149848Y-128333408D03*
X30796295Y-128686961D03*
X30442741Y-129040515D03*
X30089188Y-129394068D03*
X29735634Y-129747621D03*
X29382081Y-130101175D03*
X29028528Y-130454728D03*
X28674974Y-130808282D03*
X28321421Y-131161835D03*
X27967867Y-131515388D03*
X27614314Y-131868942D03*
D57*
X27614314Y-134680398D03*
X27967867Y-135033952D03*
X28321421Y-135387505D03*
X28674974Y-135741058D03*
X29028528Y-136094612D03*
X29382081Y-136448165D03*
X29735634Y-136801719D03*
X30089188Y-137155272D03*
X30442741Y-137508825D03*
X30796295Y-137862379D03*
X31149848Y-138215932D03*
X31503401Y-138569486D03*
X31856955Y-138923039D03*
X32210508Y-139276592D03*
X32564062Y-139630146D03*
X32917615Y-139983699D03*
X33271168Y-140337253D03*
X33624722Y-140690806D03*
X33978275Y-141044359D03*
X34331828Y-141397913D03*
X34685382Y-141751466D03*
X35038935Y-142105019D03*
X35392489Y-142458573D03*
X35746042Y-142812126D03*
X36099595Y-143165680D03*
X36453149Y-143519233D03*
X36806702Y-143872786D03*
X37160256Y-144226340D03*
X37513809Y-144579893D03*
X37867362Y-144933447D03*
X38220916Y-145287000D03*
X38574469Y-145640553D03*
X38928023Y-145994107D03*
X39281576Y-146347660D03*
X39635129Y-146701214D03*
X39988683Y-147054767D03*
D58*
X42800139Y-147054767D03*
X43153693Y-146701214D03*
X43507246Y-146347660D03*
X43860799Y-145994107D03*
X44214353Y-145640553D03*
X44567906Y-145287000D03*
X44921460Y-144933447D03*
X45275013Y-144579893D03*
X45628566Y-144226340D03*
X45982120Y-143872786D03*
X46335673Y-143519233D03*
X46689227Y-143165680D03*
X47042780Y-142812126D03*
X47396333Y-142458573D03*
X47749887Y-142105019D03*
X48103440Y-141751466D03*
X48456994Y-141397913D03*
X48810547Y-141044359D03*
X49164100Y-140690806D03*
X49517654Y-140337253D03*
X49871207Y-139983699D03*
X50224760Y-139630146D03*
X50578314Y-139276592D03*
X50931867Y-138923039D03*
X51285421Y-138569486D03*
X51638974Y-138215932D03*
X51992527Y-137862379D03*
X52346081Y-137508825D03*
X52699634Y-137155272D03*
X53053188Y-136801719D03*
X53406741Y-136448165D03*
X53760294Y-136094612D03*
X54113848Y-135741058D03*
X54467401Y-135387505D03*
X54820955Y-135033952D03*
X55174508Y-134680398D03*
%TD*%
D12*
%TO.C,R11*%
X115990000Y-190210000D03*
X114970000Y-190210000D03*
%TD*%
D10*
%TO.C,R161*%
X34036000Y-106047000D03*
X34036000Y-105027000D03*
%TD*%
D21*
%TO.C,C16*%
X89150000Y-109075000D03*
X89150000Y-107525000D03*
%TD*%
D34*
%TO.C,D26*%
X39471000Y-114046000D03*
X39471000Y-113396000D03*
X39471000Y-112746000D03*
D35*
X37511000Y-112746000D03*
X37511000Y-113396000D03*
X37511000Y-114046000D03*
%TD*%
D59*
%TO.C,BZ1*%
X110800000Y-134500000D03*
D60*
X110800000Y-142100000D03*
%TD*%
D20*
%TO.C,D29*%
X81407000Y-160020000D03*
X81407000Y-158920000D03*
X79577000Y-158920000D03*
X79577000Y-160020000D03*
%TD*%
D14*
%TO.C,C75*%
X22090589Y-142227589D03*
X22769411Y-142906411D03*
%TD*%
D61*
%TO.C,J3*%
X63830000Y-104250000D03*
X66370000Y-104250000D03*
X68910000Y-104250000D03*
X71450000Y-104250000D03*
X63830000Y-101710000D03*
X66370000Y-101710000D03*
X68910000Y-101710000D03*
X71450000Y-101710000D03*
X63830000Y-99170000D03*
X66370000Y-99170000D03*
X68910000Y-99170000D03*
X71450000Y-99170000D03*
X63830000Y-96630000D03*
X66370000Y-96630000D03*
X68910000Y-96630000D03*
X71450000Y-96630000D03*
%TD*%
D62*
%TO.C,F20*%
X89900000Y-139775000D03*
X91775000Y-139775000D03*
%TD*%
D63*
%TO.C,IC11*%
X94471500Y-144304800D03*
X94471500Y-144804800D03*
X94471500Y-145304800D03*
X94471500Y-145804800D03*
X96147500Y-145804800D03*
X96147500Y-145304800D03*
X96147500Y-144804800D03*
X96147500Y-144304800D03*
%TD*%
D12*
%TO.C,R215*%
X189423000Y-41440000D03*
X190443000Y-41440000D03*
%TD*%
D28*
%TO.C,R69*%
X22704000Y-110092000D03*
X22704000Y-111112000D03*
%TD*%
D12*
%TO.C,R209*%
X261929000Y-37249000D03*
X262949000Y-37249000D03*
%TD*%
D64*
%TO.C,R66*%
X56710485Y-130366904D03*
X57431733Y-129645656D03*
%TD*%
D28*
%TO.C,R29*%
X82390000Y-123496000D03*
X82390000Y-124516000D03*
%TD*%
D20*
%TO.C,D19*%
X90653200Y-160011200D03*
X90653200Y-158911200D03*
X88823200Y-158911200D03*
X88823200Y-160011200D03*
%TD*%
D65*
%TO.C,IC15*%
X23908318Y-137947658D03*
X23554765Y-138301212D03*
X23201212Y-138654765D03*
X22847658Y-139008318D03*
D66*
X23201212Y-139591682D03*
X23554765Y-139945235D03*
X23908318Y-140298788D03*
D65*
X24491682Y-140652342D03*
X24845235Y-140298788D03*
X25198788Y-139945235D03*
X25552342Y-139591682D03*
D66*
X25198788Y-139008318D03*
X24845235Y-138654765D03*
X24491682Y-138301212D03*
%TD*%
D31*
%TO.C,D3*%
X231814000Y-114741000D03*
X231814000Y-116041000D03*
X233814000Y-115391000D03*
%TD*%
D12*
%TO.C,R183*%
X346029000Y9466000D03*
X347049000Y9466000D03*
%TD*%
%TO.C,R33*%
X123350000Y-185430000D03*
X122330000Y-185430000D03*
%TD*%
D21*
%TO.C,C17*%
X91800000Y-109075000D03*
X91800000Y-107525000D03*
%TD*%
D28*
%TO.C,C69*%
X102750000Y-112940000D03*
X102750000Y-113960000D03*
%TD*%
D10*
%TO.C,R79*%
X31496000Y-111114000D03*
X31496000Y-110094000D03*
%TD*%
D44*
%TO.C,RT6*%
X88095000Y-76251600D03*
X87095000Y-76251600D03*
%TD*%
D31*
%TO.C,D1*%
X253254000Y-100061000D03*
X253254000Y-101361000D03*
X255254000Y-100711000D03*
%TD*%
D12*
%TO.C,R17*%
X120440000Y-187420000D03*
X119420000Y-187420000D03*
%TD*%
D67*
%TO.C,C4*%
X111577600Y-54541200D03*
X113127600Y-54541200D03*
%TD*%
D28*
%TO.C,R76*%
X27709000Y-110092000D03*
X27709000Y-111112000D03*
%TD*%
D64*
%TO.C,C43*%
X46039376Y-119960624D03*
X46760624Y-119239376D03*
%TD*%
D28*
%TO.C,R8*%
X62372200Y-176204700D03*
X62372200Y-175184700D03*
%TD*%
D44*
%TO.C,RT4*%
X63939600Y-76251600D03*
X62939600Y-76251600D03*
%TD*%
D39*
%TO.C,H1*%
X18787544Y-47124456D03*
D40*
X20484600Y-45427400D03*
D39*
X18787544Y-43730344D03*
X22181656Y-47124456D03*
X20484600Y-47827400D03*
X22181656Y-43730344D03*
X20484600Y-43027400D03*
X22884600Y-45427400D03*
X18084600Y-45427400D03*
%TD*%
D24*
%TO.C,C106*%
X45877400Y-91618601D03*
X44917400Y-91618601D03*
%TD*%
D28*
%TO.C,R44*%
X88740000Y-123496000D03*
X88740000Y-124516000D03*
%TD*%
D44*
%TO.C,RT7*%
X100160000Y-76250800D03*
X99160000Y-76250800D03*
%TD*%
D16*
%TO.C,C61*%
X99764500Y-138760200D03*
X98744500Y-138760200D03*
%TD*%
D12*
%TO.C,R18*%
X117530000Y-187420000D03*
X116510000Y-187420000D03*
%TD*%
D28*
%TO.C,R21*%
X84930000Y-123496000D03*
X84930000Y-124516000D03*
%TD*%
D24*
%TO.C,C95*%
X21722000Y-91617800D03*
X20762000Y-91617800D03*
%TD*%
D31*
%TO.C,D5*%
X242534000Y-114741000D03*
X242534000Y-116041000D03*
X244534000Y-115391000D03*
%TD*%
D12*
%TO.C,R61*%
X98804000Y-146354800D03*
X99824000Y-146354800D03*
%TD*%
D16*
%TO.C,R182*%
X205615000Y-150749000D03*
X204595000Y-150749000D03*
%TD*%
D20*
%TO.C,D17*%
X95276000Y-160011200D03*
X95276000Y-158911200D03*
X93446000Y-158911200D03*
X93446000Y-160011200D03*
%TD*%
D15*
%TO.C,C102*%
X339779000Y3346000D03*
X340739000Y3346000D03*
%TD*%
D68*
%TO.C,IC10*%
X89603500Y-135045400D03*
X90553500Y-135045400D03*
X91503500Y-135045400D03*
X91503500Y-132145400D03*
X90553500Y-132145400D03*
X89603500Y-132145400D03*
D69*
X90553500Y-133595400D03*
%TD*%
D17*
%TO.C,Q5*%
X53806200Y-78841600D03*
X52606200Y-78841600D03*
X51406200Y-78841600D03*
X50206200Y-78841600D03*
D18*
X47206200Y-78841600D03*
D19*
X49606200Y-86376600D03*
%TD*%
D30*
%TO.C,C41*%
X25826183Y-130721165D03*
X25104935Y-129999917D03*
%TD*%
D10*
%TO.C,R103*%
X113116889Y-124494455D03*
X113116889Y-123474455D03*
%TD*%
D24*
%TO.C,C132*%
X106253200Y-91618600D03*
X105293200Y-91618600D03*
%TD*%
D15*
%TO.C,C86*%
X58270000Y-150550000D03*
X59230000Y-150550000D03*
%TD*%
D44*
%TO.C,RT8*%
X112225000Y-76251600D03*
X111225000Y-76251600D03*
%TD*%
D28*
%TO.C,R23*%
X87470000Y-123496000D03*
X87470000Y-124516000D03*
%TD*%
D12*
%TO.C,R64*%
X98787300Y-140019800D03*
X99807300Y-140019800D03*
%TD*%
D13*
%TO.C,C110*%
X66741600Y-75588600D03*
X66741600Y-74628600D03*
%TD*%
D12*
%TO.C,R32*%
X111152400Y-176276000D03*
X110132400Y-176276000D03*
%TD*%
%TO.C,R37*%
X120440000Y-183440000D03*
X119420000Y-183440000D03*
%TD*%
D20*
%TO.C,D20*%
X62890400Y-160020000D03*
X62890400Y-158920000D03*
X61060400Y-158920000D03*
X61060400Y-160020000D03*
%TD*%
D70*
%TO.C,D37*%
X18654000Y-114792000D03*
X19954000Y-114792000D03*
X19304000Y-112792000D03*
%TD*%
D12*
%TO.C,R218*%
X186073000Y-43590000D03*
X187093000Y-43590000D03*
%TD*%
D28*
%TO.C,R22*%
X86200000Y-123496000D03*
X86200000Y-124516000D03*
%TD*%
D39*
%TO.C,H3*%
X22207056Y-160434856D03*
X18812944Y-157040744D03*
X22207056Y-157040744D03*
X22910000Y-158737800D03*
X18812944Y-160434856D03*
D40*
X20510000Y-158737800D03*
D39*
X18110000Y-158737800D03*
X20510000Y-161137800D03*
X20510000Y-156337800D03*
%TD*%
D28*
%TO.C,R20*%
X83660000Y-123496000D03*
X83660000Y-124516000D03*
%TD*%
D24*
%TO.C,C122*%
X82123200Y-91618600D03*
X81163200Y-91618600D03*
%TD*%
D20*
%TO.C,D32*%
X107284000Y-154191200D03*
X107284000Y-155291200D03*
X109114000Y-155291200D03*
X109114000Y-154191200D03*
%TD*%
D71*
%TO.C,Y2*%
X55540647Y-127082534D03*
X57308413Y-125314768D03*
%TD*%
D12*
%TO.C,R194*%
X185116000Y-84262000D03*
X186136000Y-84262000D03*
%TD*%
D28*
%TO.C,R6*%
X56174600Y-176204700D03*
X56174600Y-175184700D03*
%TD*%
D14*
%TO.C,C76*%
X23045166Y-141321503D03*
X23723988Y-142000325D03*
%TD*%
D16*
%TO.C,C58*%
X95760000Y-141452600D03*
X94740000Y-141452600D03*
%TD*%
D28*
%TO.C,C62*%
X87675000Y-142290000D03*
X87675000Y-143310000D03*
%TD*%
%TO.C,R95*%
X102956889Y-123474455D03*
X102956889Y-124494455D03*
%TD*%
D10*
%TO.C,R24*%
X90010000Y-124516000D03*
X90010000Y-123496000D03*
%TD*%
D12*
%TO.C,R199*%
X210976000Y1514000D03*
X211996000Y1514000D03*
%TD*%
D10*
%TO.C,R58*%
X51866800Y-105920000D03*
X51866800Y-104900000D03*
%TD*%
%TO.C,R118*%
X58054200Y-175184700D03*
X58054200Y-176204700D03*
%TD*%
D44*
%TO.C,RT3*%
X51849200Y-76251600D03*
X50849200Y-76251600D03*
%TD*%
D24*
%TO.C,C111*%
X57967800Y-91618600D03*
X57007800Y-91618600D03*
%TD*%
D14*
%TO.C,C85*%
X58031362Y-123720667D03*
X58710184Y-124399489D03*
%TD*%
D12*
%TO.C,R187*%
X339769000Y7316000D03*
X340789000Y7316000D03*
%TD*%
%TO.C,R12*%
X117530000Y-183440000D03*
X116510000Y-183440000D03*
%TD*%
D20*
%TO.C,D13*%
X104513200Y-160020000D03*
X104513200Y-158920000D03*
X102683200Y-158920000D03*
X102683200Y-160020000D03*
%TD*%
D10*
%TO.C,R159*%
X31496000Y-106047000D03*
X31496000Y-105027000D03*
%TD*%
D12*
%TO.C,R30*%
X93818000Y-120241000D03*
X94838000Y-120241000D03*
%TD*%
%TO.C,R212*%
X258579000Y-39399000D03*
X259599000Y-39399000D03*
%TD*%
D16*
%TO.C,C59*%
X99837300Y-143814800D03*
X98817300Y-143814800D03*
%TD*%
D14*
%TO.C,C74*%
X21385589Y-139660589D03*
X22064411Y-140339411D03*
%TD*%
D15*
%TO.C,C129*%
X188993000Y-45570000D03*
X189953000Y-45570000D03*
%TD*%
D55*
%TO.C,IC3*%
X114450000Y-58100000D03*
X114450000Y-57150000D03*
X114450000Y-56200000D03*
X111550000Y-56200000D03*
X111550000Y-57150000D03*
X111550000Y-58100000D03*
D56*
X113000000Y-57150000D03*
%TD*%
D20*
%TO.C,D14*%
X49022000Y-160020000D03*
X49022000Y-158920000D03*
X47192000Y-158920000D03*
X47192000Y-160020000D03*
%TD*%
D24*
%TO.C,C93*%
X202695000Y-148769000D03*
X201735000Y-148769000D03*
%TD*%
%TO.C,C67*%
X115374889Y-121489455D03*
X114414889Y-121489455D03*
%TD*%
D10*
%TO.C,R26*%
X92550000Y-124516000D03*
X92550000Y-123496000D03*
%TD*%
D12*
%TO.C,R94*%
X100668889Y-119711455D03*
X101688889Y-119711455D03*
%TD*%
%TO.C,R193*%
X188026000Y-84262000D03*
X189046000Y-84262000D03*
%TD*%
%TO.C,R205*%
X335346000Y-110909000D03*
X336366000Y-110909000D03*
%TD*%
D17*
%TO.C,Q10*%
X114182000Y-78841600D03*
X112982000Y-78841600D03*
X111782000Y-78841600D03*
X110582000Y-78841600D03*
D18*
X107582000Y-78841600D03*
D19*
X109982000Y-86376600D03*
%TD*%
D12*
%TO.C,R16*%
X123350000Y-187420000D03*
X122330000Y-187420000D03*
%TD*%
D72*
%TO.C,Q11*%
X117437500Y-61780000D03*
X117437500Y-59880000D03*
X115562500Y-60830000D03*
%TD*%
D73*
%TO.C,Y1*%
X50678864Y-122089512D03*
X51668813Y-121099563D03*
X50890996Y-120321746D03*
X49901047Y-121311695D03*
%TD*%
D10*
%TO.C,R81*%
X34036000Y-111114000D03*
X34036000Y-110094000D03*
%TD*%
%TO.C,R117*%
X54955400Y-175184700D03*
X54955400Y-176204700D03*
%TD*%
D74*
%TO.C,U2*%
X49403000Y-113854000D03*
X50673000Y-113854000D03*
X51943000Y-113854000D03*
X53213000Y-113854000D03*
X53213000Y-108904000D03*
X51943000Y-108904000D03*
X50673000Y-108904000D03*
X49403000Y-108904000D03*
%TD*%
D28*
%TO.C,R82*%
X35306000Y-110096000D03*
X35306000Y-111116000D03*
%TD*%
D12*
%TO.C,R157*%
X66419000Y-113665000D03*
X67439000Y-113665000D03*
%TD*%
D10*
%TO.C,R163*%
X36576000Y-106047000D03*
X36576000Y-105027000D03*
%TD*%
D75*
%TO.C,C40*%
X63261817Y-126984183D03*
X61706183Y-128539817D03*
%TD*%
D17*
%TO.C,Q7*%
X77964400Y-78841600D03*
X76764400Y-78841600D03*
X75564400Y-78841600D03*
X74364400Y-78841600D03*
D18*
X71364400Y-78841600D03*
D19*
X73764400Y-86376600D03*
%TD*%
D10*
%TO.C,R102*%
X111846889Y-124494455D03*
X111846889Y-123474455D03*
%TD*%
D34*
%TO.C,D25*%
X34381000Y-114046000D03*
X34381000Y-113396000D03*
X34381000Y-112746000D03*
D35*
X32421000Y-112746000D03*
X32421000Y-113396000D03*
X32421000Y-114046000D03*
%TD*%
D62*
%TO.C,F18*%
X89311000Y-130400000D03*
X91186000Y-130400000D03*
%TD*%
D17*
%TO.C,Q3*%
X29650800Y-78840800D03*
X28450800Y-78840800D03*
X27250800Y-78840800D03*
X26050800Y-78840800D03*
D18*
X23050800Y-78840800D03*
D19*
X25450800Y-86375800D03*
%TD*%
D62*
%TO.C,F1*%
X94922100Y-137287000D03*
X96797100Y-137287000D03*
%TD*%
D44*
%TO.C,RT1*%
X27693800Y-76250800D03*
X26693800Y-76250800D03*
%TD*%
D10*
%TO.C,R116*%
X51856600Y-175184700D03*
X51856600Y-176204700D03*
%TD*%
D20*
%TO.C,D12*%
X44399200Y-160020000D03*
X44399200Y-158920000D03*
X42569200Y-158920000D03*
X42569200Y-160020000D03*
%TD*%
D31*
%TO.C,D7*%
X253254000Y-107401000D03*
X253254000Y-108701000D03*
X255254000Y-108051000D03*
%TD*%
D28*
%TO.C,R99*%
X106766889Y-123474455D03*
X106766889Y-124494455D03*
%TD*%
D76*
%TO.C,L2*%
X90551000Y-146862800D03*
X90551000Y-143078300D03*
%TD*%
D12*
%TO.C,R186*%
X342679000Y7316000D03*
X343699000Y7316000D03*
%TD*%
%TO.C,R201*%
X204716000Y-2626000D03*
X205736000Y-2626000D03*
%TD*%
D21*
%TO.C,C14*%
X84600000Y-109075000D03*
X84600000Y-107525000D03*
%TD*%
D12*
%TO.C,R138*%
X66419000Y-114808000D03*
X67439000Y-114808000D03*
%TD*%
%TO.C,R189*%
X278577000Y-1562000D03*
X279597000Y-1562000D03*
%TD*%
D15*
%TO.C,C133*%
X186083000Y-47560000D03*
X187043000Y-47560000D03*
%TD*%
D38*
%TO.C,U6*%
X62369400Y-169127400D03*
X63639400Y-169127400D03*
X63639400Y-174047400D03*
X62369400Y-174047400D03*
%TD*%
D54*
%TO.C,C68*%
X100736889Y-121489455D03*
X102636889Y-121489455D03*
%TD*%
D12*
%TO.C,R190*%
X275227000Y-5702000D03*
X276247000Y-5702000D03*
%TD*%
D35*
%TO.C,IC12*%
X54270000Y-150600000D03*
X54270000Y-151250000D03*
X54270000Y-151900000D03*
D34*
X56230000Y-151900000D03*
X56230000Y-151250000D03*
X56230000Y-150600000D03*
%TD*%
D13*
%TO.C,C94*%
X30495800Y-75587800D03*
X30495800Y-74627800D03*
%TD*%
D44*
%TO.C,RT2*%
X39758800Y-76250800D03*
X38758800Y-76250800D03*
%TD*%
D12*
%TO.C,R31*%
X93861000Y-118971000D03*
X94881000Y-118971000D03*
%TD*%
D16*
%TO.C,C57*%
X95819500Y-142798800D03*
X94799500Y-142798800D03*
%TD*%
D77*
%TO.C,IC13*%
X75482600Y-116829000D03*
X75482600Y-116179000D03*
X75482600Y-115529000D03*
X75482600Y-114879000D03*
X75482600Y-114229000D03*
X75482600Y-113579000D03*
X75482600Y-112929000D03*
X75482600Y-112279000D03*
X69606600Y-112279000D03*
X69606600Y-112929000D03*
X69606600Y-113579000D03*
X69606600Y-114229000D03*
X69606600Y-114879000D03*
X69606600Y-115529000D03*
X69606600Y-116179000D03*
X69606600Y-116829000D03*
%TD*%
D15*
%TO.C,C103*%
X278147000Y-5692000D03*
X279107000Y-5692000D03*
%TD*%
D12*
%TO.C,R35*%
X113080000Y-192200000D03*
X112060000Y-192200000D03*
%TD*%
D64*
%TO.C,C53*%
X51239376Y-124960624D03*
X51960624Y-124239376D03*
%TD*%
D21*
%TO.C,C71*%
X107933400Y-109097800D03*
X107933400Y-107547800D03*
%TD*%
D38*
%TO.C,U1*%
X53069400Y-169127400D03*
X54339400Y-169127400D03*
X54339400Y-174047400D03*
X53069400Y-174047400D03*
%TD*%
D21*
%TO.C,C15*%
X87300000Y-109075000D03*
X87300000Y-107525000D03*
%TD*%
D16*
%TO.C,R63*%
X99807300Y-141289800D03*
X98787300Y-141289800D03*
%TD*%
D78*
%TO.C,F19*%
X109812600Y-51963300D03*
X109812600Y-50088300D03*
%TD*%
D12*
%TO.C,R108*%
X94943200Y-149606000D03*
X95963200Y-149606000D03*
%TD*%
D74*
%TO.C,U3*%
X43688000Y-113854000D03*
X44958000Y-113854000D03*
X46228000Y-113854000D03*
X47498000Y-113854000D03*
X47498000Y-108904000D03*
X46228000Y-108904000D03*
X44958000Y-108904000D03*
X43688000Y-108904000D03*
%TD*%
D20*
%TO.C,D31*%
X76758800Y-160020000D03*
X76758800Y-158920000D03*
X74928800Y-158920000D03*
X74928800Y-160020000D03*
%TD*%
D15*
%TO.C,C114*%
X207636000Y-2616000D03*
X208596000Y-2616000D03*
%TD*%
D34*
%TO.C,D23*%
X24319000Y-114046000D03*
X24319000Y-113396000D03*
X24319000Y-112746000D03*
D35*
X22359000Y-112746000D03*
X22359000Y-113396000D03*
X22359000Y-114046000D03*
%TD*%
D12*
%TO.C,R188*%
X281487000Y-1562000D03*
X282507000Y-1562000D03*
%TD*%
D53*
%TO.C,D35*%
X100581700Y-131673600D03*
X98706700Y-131673600D03*
%TD*%
D28*
%TO.C,R180*%
X26595287Y-152802400D03*
X26595287Y-153822400D03*
%TD*%
D38*
%TO.C,U5*%
X59269400Y-169127400D03*
X60539400Y-169127400D03*
X60539400Y-174047400D03*
X59269400Y-174047400D03*
%TD*%
D12*
%TO.C,R36*%
X126260000Y-183440000D03*
X125240000Y-183440000D03*
%TD*%
D15*
%TO.C,C115*%
X210546000Y-466000D03*
X211506000Y-466000D03*
%TD*%
D30*
%TO.C,C50*%
X38007290Y-118540056D03*
X37286042Y-117818808D03*
%TD*%
D12*
%TO.C,R196*%
X184676000Y-86412000D03*
X185696000Y-86412000D03*
%TD*%
D28*
%TO.C,R172*%
X19685000Y-110107000D03*
X19685000Y-111127000D03*
%TD*%
D15*
%TO.C,C2*%
X126210000Y-185420000D03*
X125250000Y-185420000D03*
%TD*%
D11*
%TO.C,C90*%
X116400000Y-49866800D03*
X116400000Y-51766800D03*
%TD*%
D10*
%TO.C,R85*%
X39126000Y-111110000D03*
X39126000Y-110090000D03*
%TD*%
D24*
%TO.C,C96*%
X205605000Y-146779000D03*
X204645000Y-146779000D03*
%TD*%
D12*
%TO.C,R38*%
X118900000Y-189410000D03*
X117880000Y-189410000D03*
%TD*%
D15*
%TO.C,C120*%
X337826000Y-112889000D03*
X338786000Y-112889000D03*
%TD*%
D24*
%TO.C,C117*%
X70035600Y-91618600D03*
X69075600Y-91618600D03*
%TD*%
D79*
%TO.C,Q2*%
X103906800Y-147396200D03*
X105206800Y-147396200D03*
X104556800Y-145496200D03*
%TD*%
D10*
%TO.C,R101*%
X110576889Y-124494455D03*
X110576889Y-123474455D03*
%TD*%
D39*
%TO.C,H4*%
X113304944Y-160434856D03*
X116699056Y-157040744D03*
X115002000Y-161137800D03*
X112602000Y-158737800D03*
D40*
X115002000Y-158737800D03*
D39*
X117402000Y-158737800D03*
X116699056Y-160434856D03*
X113304944Y-157040744D03*
X115002000Y-156337800D03*
%TD*%
D28*
%TO.C,R160*%
X32766000Y-105027000D03*
X32766000Y-106047000D03*
%TD*%
D13*
%TO.C,C126*%
X102962000Y-75587800D03*
X102962000Y-74627800D03*
%TD*%
D78*
%TO.C,F2*%
X109812600Y-58196500D03*
X109812600Y-56321500D03*
%TD*%
D28*
%TO.C,C20*%
X94300000Y-112940000D03*
X94300000Y-113960000D03*
%TD*%
D15*
%TO.C,C109*%
X187596000Y-86242000D03*
X188556000Y-86242000D03*
%TD*%
D12*
%TO.C,R9*%
X71938800Y-125984600D03*
X72958800Y-125984600D03*
%TD*%
D16*
%TO.C,R140*%
X78640400Y-115976400D03*
X77620400Y-115976400D03*
%TD*%
D25*
%TO.C,IC16*%
X105204889Y-119584455D03*
X105854889Y-119584455D03*
X106504889Y-119584455D03*
X107154889Y-119584455D03*
X107804889Y-119584455D03*
X108454889Y-119584455D03*
X109104889Y-119584455D03*
X109754889Y-119584455D03*
X110404889Y-119584455D03*
X111054889Y-119584455D03*
X111704889Y-119584455D03*
X112354889Y-119584455D03*
X112354889Y-114160455D03*
X111704889Y-114160455D03*
X111054889Y-114160455D03*
X110404889Y-114160455D03*
X109754889Y-114160455D03*
X109104889Y-114160455D03*
X108454889Y-114160455D03*
X107804889Y-114160455D03*
X107154889Y-114160455D03*
X106504889Y-114160455D03*
X105854889Y-114160455D03*
X105204889Y-114160455D03*
D26*
X108779889Y-116872455D03*
%TD*%
D31*
%TO.C,D42*%
X109890000Y-191040000D03*
X107890000Y-191690000D03*
X107890000Y-190390000D03*
%TD*%
D12*
%TO.C,R191*%
X278137000Y-3712000D03*
X279157000Y-3712000D03*
%TD*%
D80*
%TO.C,C88*%
X22860000Y-61096000D03*
X22860000Y-52696000D03*
%TD*%
D14*
%TO.C,C84*%
X54021498Y-127603249D03*
X54700320Y-128282071D03*
%TD*%
D10*
%TO.C,R70*%
X23974000Y-111112000D03*
X23974000Y-110092000D03*
%TD*%
D20*
%TO.C,D22*%
X67487800Y-160020000D03*
X67487800Y-158920000D03*
X65657800Y-158920000D03*
X65657800Y-160020000D03*
%TD*%
D12*
%TO.C,R211*%
X255669000Y-41389000D03*
X256689000Y-41389000D03*
%TD*%
D20*
%TO.C,D11*%
X109119000Y-160020000D03*
X109119000Y-158920000D03*
X107289000Y-158920000D03*
X107289000Y-160020000D03*
%TD*%
D24*
%TO.C,C89*%
X67409000Y-118364000D03*
X66449000Y-118364000D03*
%TD*%
D16*
%TO.C,R57*%
X59270000Y-151800000D03*
X58250000Y-151800000D03*
%TD*%
%TO.C,R135*%
X76049600Y-111048800D03*
X75029600Y-111048800D03*
%TD*%
D15*
%TO.C,C101*%
X32827000Y-91617800D03*
X33787000Y-91617800D03*
%TD*%
D28*
%TO.C,R84*%
X37856000Y-110092000D03*
X37856000Y-111112000D03*
%TD*%
D24*
%TO.C,C18*%
X94808000Y-121511000D03*
X93848000Y-121511000D03*
%TD*%
D17*
%TO.C,Q9*%
X102117000Y-78840800D03*
X100917000Y-78840800D03*
X99717000Y-78840800D03*
X98517000Y-78840800D03*
D18*
X95517000Y-78840800D03*
D19*
X97917000Y-86375800D03*
%TD*%
D31*
%TO.C,D2*%
X242534000Y-100061000D03*
X242534000Y-101361000D03*
X244534000Y-100711000D03*
%TD*%
D81*
%TO.C,C79*%
X37919264Y-147864968D03*
X37240442Y-148543790D03*
%TD*%
D16*
%TO.C,R65*%
X202265000Y-152899000D03*
X201245000Y-152899000D03*
%TD*%
D15*
%TO.C,C119*%
X334916000Y-115039000D03*
X335876000Y-115039000D03*
%TD*%
D67*
%TO.C,C92*%
X111577600Y-48308000D03*
X113127600Y-48308000D03*
%TD*%
D28*
%TO.C,R78*%
X30249000Y-110092000D03*
X30249000Y-111112000D03*
%TD*%
D64*
%TO.C,C47*%
X45211778Y-119125197D03*
X45933026Y-118403949D03*
%TD*%
D55*
%TO.C,IC17*%
X50038200Y-106210800D03*
X50038200Y-105710800D03*
X50038200Y-105210800D03*
X50038200Y-104710800D03*
X46888200Y-104710800D03*
X46888200Y-105210800D03*
X46888200Y-105710800D03*
X46888200Y-106210800D03*
%TD*%
D10*
%TO.C,R27*%
X93820000Y-124516000D03*
X93820000Y-123496000D03*
%TD*%
D43*
%TO.C,R55*%
X54375618Y-138338544D03*
X55096866Y-139059792D03*
%TD*%
D28*
%TO.C,R93*%
X109306889Y-123474455D03*
X109306889Y-124494455D03*
%TD*%
D12*
%TO.C,R200*%
X208066000Y1514000D03*
X209086000Y1514000D03*
%TD*%
%TO.C,C66*%
X21508400Y-127193001D03*
X22528400Y-127193001D03*
%TD*%
%TO.C,R207*%
X334906000Y-113059000D03*
X335926000Y-113059000D03*
%TD*%
D16*
%TO.C,R198*%
X199355000Y-152899000D03*
X198335000Y-152899000D03*
%TD*%
D10*
%TO.C,R171*%
X18415000Y-111127000D03*
X18415000Y-110107000D03*
%TD*%
D15*
%TO.C,C124*%
X258589000Y-41379000D03*
X259549000Y-41379000D03*
%TD*%
%TO.C,C99*%
X345599000Y7486000D03*
X346559000Y7486000D03*
%TD*%
%TO.C,C123*%
X332006000Y-117029000D03*
X332966000Y-117029000D03*
%TD*%
G36*
X73668121Y-94358002D02*
G01*
X73714614Y-94411658D01*
X73726000Y-94464000D01*
X73726000Y-106404000D01*
X73705998Y-106472121D01*
X73652342Y-106518614D01*
X73600000Y-106530000D01*
X61660000Y-106530000D01*
X61591879Y-106509998D01*
X61545386Y-106456342D01*
X61534000Y-106404000D01*
X61534000Y-94464000D01*
X61554002Y-94395879D01*
X61607658Y-94349386D01*
X61660000Y-94338000D01*
X73600000Y-94338000D01*
X73668121Y-94358002D01*
G37*
G36*
X91702061Y-69412802D02*
G01*
X91748554Y-69466458D01*
X91759940Y-69518800D01*
X91759940Y-73138867D01*
X91739938Y-73206988D01*
X91708344Y-73240553D01*
X86586169Y-76988486D01*
X86519382Y-77012570D01*
X86511765Y-77012800D01*
X80074940Y-77012800D01*
X80006819Y-76992798D01*
X79960326Y-76939142D01*
X79948940Y-76886800D01*
X79948940Y-69518800D01*
X79968942Y-69450679D01*
X80022598Y-69404186D01*
X80074940Y-69392800D01*
X91633940Y-69392800D01*
X91702061Y-69412802D01*
G37*
G36*
X67572721Y-69412802D02*
G01*
X67619214Y-69466458D01*
X67630600Y-69518800D01*
X67630600Y-73138867D01*
X67610598Y-73206988D01*
X67579004Y-73240553D01*
X62456829Y-76988486D01*
X62390042Y-77012570D01*
X62382425Y-77012800D01*
X55945600Y-77012800D01*
X55877479Y-76992798D01*
X55830986Y-76939142D01*
X55819600Y-76886800D01*
X55819600Y-69518800D01*
X55839602Y-69450679D01*
X55893258Y-69404186D01*
X55945600Y-69392800D01*
X67504600Y-69392800D01*
X67572721Y-69412802D01*
G37*
G36*
X79637061Y-69412802D02*
G01*
X79683554Y-69466458D01*
X79694940Y-69518800D01*
X79694940Y-73138867D01*
X79674938Y-73206988D01*
X79643344Y-73240553D01*
X74521169Y-76988486D01*
X74454382Y-77012570D01*
X74446765Y-77012800D01*
X68009940Y-77012800D01*
X67941819Y-76992798D01*
X67895326Y-76939142D01*
X67883940Y-76886800D01*
X67883940Y-69518800D01*
X67903942Y-69450679D01*
X67957598Y-69404186D01*
X68009940Y-69392800D01*
X79568940Y-69392800D01*
X79637061Y-69412802D01*
G37*
G36*
X103767061Y-69412802D02*
G01*
X103813554Y-69466458D01*
X103824940Y-69518800D01*
X103824940Y-73138867D01*
X103804938Y-73206988D01*
X103773344Y-73240553D01*
X98651169Y-76988486D01*
X98584382Y-77012570D01*
X98576765Y-77012800D01*
X92139940Y-77012800D01*
X92071819Y-76992798D01*
X92025326Y-76939142D01*
X92013940Y-76886800D01*
X92013940Y-69518800D01*
X92033942Y-69450679D01*
X92087598Y-69404186D01*
X92139940Y-69392800D01*
X103698940Y-69392800D01*
X103767061Y-69412802D01*
G37*
G36*
X43391921Y-69412802D02*
G01*
X43438414Y-69466458D01*
X43449800Y-69518800D01*
X43449800Y-73139119D01*
X43429798Y-73207240D01*
X43398526Y-73240568D01*
X38276131Y-77013649D01*
X38209421Y-77037945D01*
X38201405Y-77038200D01*
X31764800Y-77038200D01*
X31696679Y-77018198D01*
X31650186Y-76964542D01*
X31638800Y-76912200D01*
X31638800Y-69518800D01*
X31658802Y-69450679D01*
X31712458Y-69404186D01*
X31764800Y-69392800D01*
X43323800Y-69392800D01*
X43391921Y-69412802D01*
G37*
G36*
X55482321Y-69412802D02*
G01*
X55528814Y-69466458D01*
X55540200Y-69518800D01*
X55540200Y-73138684D01*
X55520198Y-73206805D01*
X55488368Y-73240542D01*
X50340955Y-76988658D01*
X50274113Y-77012587D01*
X50266787Y-77012800D01*
X43855200Y-77012800D01*
X43787079Y-76992798D01*
X43740586Y-76939142D01*
X43729200Y-76886800D01*
X43729200Y-69518800D01*
X43749202Y-69450679D01*
X43802858Y-69404186D01*
X43855200Y-69392800D01*
X55414200Y-69392800D01*
X55482321Y-69412802D01*
G37*
G36*
X115806661Y-69412802D02*
G01*
X115853154Y-69466458D01*
X115864540Y-69518800D01*
X115864540Y-73138867D01*
X115844538Y-73206988D01*
X115812944Y-73240553D01*
X110690769Y-76988486D01*
X110623982Y-77012570D01*
X110616365Y-77012800D01*
X104179540Y-77012800D01*
X104111419Y-76992798D01*
X104064926Y-76939142D01*
X104053540Y-76886800D01*
X104053540Y-69518800D01*
X104073542Y-69450679D01*
X104127198Y-69404186D01*
X104179540Y-69392800D01*
X115738540Y-69392800D01*
X115806661Y-69412802D01*
G37*
G36*
X31326921Y-69412802D02*
G01*
X31373414Y-69466458D01*
X31384800Y-69518800D01*
X31384800Y-73138457D01*
X31364798Y-73206578D01*
X31332678Y-73240526D01*
X26083863Y-77039669D01*
X26009985Y-77063600D01*
X19699800Y-77063600D01*
X19631679Y-77043598D01*
X19585186Y-76989942D01*
X19573800Y-76937600D01*
X19573800Y-69518800D01*
X19593802Y-69450679D01*
X19647458Y-69404186D01*
X19699800Y-69392800D01*
X31258800Y-69392800D01*
X31326921Y-69412802D01*
G37*
M02*
