M48
; DRILL file {KiCad (6.0.8)} date Tue Jan 16 01:15:42 2024
; FORMAT={-:-/ absolute / inch / decimal}
; #@! TF.CreationDate,2024-01-16T01:15:42+01:00
; #@! TF.GenerationSoftware,Kicad,Pcbnew,(6.0.8)
; #@! TF.FileFunction,Plated,1,4,PTH
FMAT,2
INCH
; #@! TA.AperFunction,Plated,PTH,ViaDrill
T1C0.0118
; #@! TA.AperFunction,Plated,PTH,ViaDrill
T2C0.0130
; #@! TA.AperFunction,Plated,PTH,ViaDrill
T3C0.0150
; #@! TA.AperFunction,Plated,PTH,ViaDrill
T4C0.0157
; #@! TA.AperFunction,Plated,PTH,ComponentDrill
T5C0.0177
; #@! TA.AperFunction,Plated,PTH,ComponentDrill
T6C0.0197
; #@! TA.AperFunction,Plated,PTH,ViaDrill
T7C0.0236
; #@! TA.AperFunction,Plated,PTH,ComponentDrill
T8C0.0394
; #@! TA.AperFunction,Plated,PTH,ComponentDrill
T9C0.0581
; #@! TA.AperFunction,Plated,PTH,ComponentDrill
T10C0.0591
; #@! TA.AperFunction,Plated,PTH,ComponentDrill
T11C0.1260
; #@! TA.AperFunction,Plated,PTH,ComponentDrill
T12C0.1339
%
G90
G05
T1
X0.725Y-4.305
X0.735Y-4.55
X0.775Y-4.305
X0.785Y-4.55
X0.7956Y-3.607
X0.8327Y-5.4705
X0.8445Y-5.5472
X0.845Y-4.305
X0.8459Y-5.0376
X0.8494Y-5.5827
X0.877Y-4.4137
X0.895Y-4.305
X0.8999Y-5.0366
X0.92Y-5.6434
X0.925Y-4.465
X0.925Y-4.49
X0.9262Y-5.4153
X0.9429Y-4.7844
X0.9429Y-5.4724
X0.945Y-4.305
X0.95Y-5.61
X0.9567Y-5.4961
X0.9684Y-5.1014
X0.9793Y-4.8521
X0.9836Y-5.4186
X0.9931Y-4.3031
X1.04Y-4.305
X1.0617Y-5.3904
X1.0619Y-5.0185
X1.0737Y-4.4137
X1.0866Y-6.1468
X1.0909Y-4.3059
X1.0937Y-5.0223
X1.1093Y-4.8415
X1.1171Y-4.8858
X1.1173Y-5.66
X1.12Y-4.4629
X1.12Y-4.49
X1.1216Y-5.2254
X1.13Y-6.07
X1.1352Y-5.502
X1.14Y-4.305
X1.14Y-4.94
X1.15Y-6.165
X1.1538Y-6.3062
X1.1543Y-5.2243
X1.1573Y-6.05
X1.16Y-5.04
X1.1664Y-5.315
X1.185Y-5.265
X1.188Y-6.165
X1.1909Y-4.3063
X1.1987Y-5.2261
X1.205Y-6.285
X1.2081Y-6.0019
X1.221Y-6.18
X1.2375Y-6.2929
X1.24Y-4.08
X1.241Y-4.784
X1.2724Y-4.4117
X1.273Y-5.1025
X1.2731Y-6.0669
X1.275Y-5.4213
X1.2811Y-6.1685
X1.29Y-4.21
X1.29Y-4.3075
X1.2921Y-5.0776
X1.2953Y-5.2303
X1.3042Y-6.2977
X1.3102Y-6.1803
X1.3152Y-4.465
X1.3152Y-4.49
X1.3327Y-5.4567
X1.34Y-4.08
X1.3457Y-4.8496
X1.35Y-5.34
X1.3642Y-5.4921
X1.3756Y-3.607
X1.385Y-4.21
X1.39Y-4.3079
X1.3974Y-4.9468
X1.42Y-6.28
X1.437Y-5.5709
X1.4378Y-5.77
X1.44Y-4.09
X1.44Y-5.23
X1.4414Y-5.5137
X1.4595Y-5.8251
X1.4663Y-5.75
X1.4744Y-4.4078
X1.49Y-4.215
X1.49Y-4.31
X1.4981Y-4.633
X1.506Y-5.79
X1.52Y-5.905
X1.5276Y-5.8155
X1.535Y-4.915
X1.5531Y-4.9823
X1.5603Y-5.7074
X1.574Y-5.82
X1.5812Y-4.7658
X1.5826Y-6.23
X1.5871Y-5.627
X1.5871Y-5.73
X1.5889Y-5.1688
X1.59Y-4.215
X1.59Y-4.31
X1.5903Y-5.4344
X1.5935Y-4.4649
X1.5955Y-4.4905
X1.6146Y-5.187
X1.615Y-5.405
X1.6404Y-5.4409
X1.6444Y-5.1769
X1.665Y-5.405
X1.6701Y-5.1969
X1.7008Y-4.7835
X1.7057Y-5.6762
X1.72Y-4.225
X1.7244Y-4.8071
X1.725Y-4.55
X1.7303Y-5.6555
X1.7437Y-5.824
X1.7466Y-3.607
X1.748Y-6.2228
X1.77Y-4.425
X1.7717Y-6.0128
X1.772Y-4.196
X1.7913Y-5.6083
X1.794Y-4.08
X1.8Y-5.8153
X1.81Y-5.8647
X1.8107Y-4.1494
X1.8209Y-5.5846
X1.823Y-5.1819
X1.8275Y-4.6411
X1.85Y-4.205
X1.8504Y-4.6604
X1.8663Y-5.102
X1.875Y-4.555
X1.8837Y-4.2285
X1.9105Y-5.1395
X1.9144Y-5.6439
X1.9145Y-4.2219
X1.931Y-6.2223
X1.9335Y-5.0179
X1.9358Y-4.8002
X1.9459Y-4.2196
X1.95Y-4.56
X1.9557Y-5.6496
X1.9581Y-5.5824
X1.9585Y-5.6176
X1.9605Y-5.805
X1.9749Y-5.2551
X1.9862Y-4.9331
X1.995Y-4.425
X2.002Y-5.3622
X2.006Y-4.194
X2.0207Y-6.0525
X2.0209Y-4.078
X2.0324Y-5.5105
X2.0357Y-5.124
X2.0368Y-5.1615
X2.044Y-4.19
X2.0462Y-5.196
X2.0493Y-5.3257
X2.0549Y-5.5727
X2.0559Y-5.2308
X2.063Y-4.7507
X2.0713Y-4.872
X2.0929Y-6.6885
X2.1Y-4.56
X2.1133Y-6.2223
X2.12Y-5.475
X2.1266Y-6.8811
X2.1338Y-5.5312
X2.1394Y-5.0759
X2.1409Y-6.6881
X2.1751Y-5.9191
X2.1759Y-4.2381
X2.2028Y-6.0463
X2.2084Y-5.3316
X2.2156Y-6.6881
X2.2226Y-3.607
X2.2301Y-4.8534
X2.2369Y-5.3934
X2.2506Y-6.8781
X2.2606Y-6.6871
X2.264Y-4.7774
X2.2736Y-5.9232
X2.275Y-5.2
X2.2956Y-6.2223
X2.2961Y-4.8022
X2.3082Y-4.6918
X2.33Y-4.8258
X2.33Y-4.915
X2.335Y-4.649
X2.3386Y-6.6911
X2.34Y-5.674
X2.3426Y-4.6914
X2.3622Y-5.9272
X2.3706Y-6.8801
X2.3796Y-6.6911
X2.4764Y-5.2638
X2.4778Y-6.2223
X2.4803Y-5.6123
X2.4936Y-6.8781
X2.495Y-5.21
X2.5361Y-5.2613
X2.55Y-5.2121
X2.5875Y-4.629
X2.59Y-4.66
X2.65Y-4.895
X2.6601Y-6.2223
X2.684Y-4.636
X2.685Y-4.488
X2.685Y-4.595
X2.686Y-4.5217
X2.6864Y-4.5587
X2.6977Y-3.607
X2.73Y-4.66
X2.8424Y-6.2223
X2.8435Y-4.5443
X2.8435Y-4.5955
X2.9262Y-4.5492
X3.015Y-4.415
X3.024Y-4.486
X3.024Y-4.522
X3.024Y-4.568
X3.024Y-4.604
X3.0247Y-6.2223
X3.096Y-4.4427
X3.1736Y-3.607
X3.207Y-6.2223
X3.2281Y-4.9644
X3.291Y-6.17
X3.2933Y-4.934
X3.3431Y-4.934
X3.3893Y-6.2223
X3.3931Y-4.934
X3.4194Y-4.3546
X3.4194Y-4.39
X3.4194Y-4.4255
X3.437Y-5.5856
X3.4509Y-4.3533
X3.4509Y-4.3888
X3.4509Y-4.4242
X3.4518Y-5.75
X3.4547Y-6.063
X3.4616Y-5.4537
X3.4616Y-5.4852
X3.4616Y-5.5197
X3.4616Y-5.5512
X3.4911Y-5.4537
X3.4911Y-5.4852
X3.4911Y-5.5197
X3.4911Y-5.5512
X3.4914Y-4.3543
X3.4914Y-4.3898
X3.4914Y-4.4252
X3.4961Y-5.4035
X3.5138Y-6.0531
X3.5207Y-5.4537
X3.5207Y-5.5541
X3.5229Y-4.3546
X3.5229Y-4.3901
X3.5229Y-4.4255
X3.5394Y-4.9429
X3.5502Y-5.4537
X3.5502Y-5.5541
X3.5696Y-6.221
X3.5798Y-4.9446
X3.622Y-4.9429
X3.6407Y-5.4695
X3.652Y-5.248
X3.652Y-5.284
X3.652Y-5.32
X3.654Y-3.58
X3.6654Y-4.9409
X3.6886Y-5.32
X3.7073Y-5.777
X3.7087Y-5.8898
X3.7126Y-4.4154
X3.724Y-5.32
X3.7323Y-5.777
X3.7519Y-6.221
X3.7566Y-5.2491
X3.7566Y-5.2846
X3.7566Y-5.32
X3.7573Y-5.777
X3.76Y-4.738
X3.7736Y-5.5413
X3.7823Y-5.777
X3.818Y-5.564
X3.848Y-5.496
X3.8551Y-5.5471
X3.8563Y-5.4537
X3.8747Y-5.2456
X3.898Y-4.73
X3.898Y-4.78
X3.9007Y-5.2456
X3.9267Y-5.2456
X3.9341Y-6.221
X3.937Y-6.0157
X3.9498Y-5.7254
X3.9557Y-5.663
X3.9567Y-5.8918
X3.9852Y-5.4171
X4.04Y-6.1458
X4.0463Y-4.4154
X4.0847Y-4.8892
X4.1164Y-6.221
X4.1339Y-4.9272
X4.142Y-5.7656
X4.1988Y-4.9291
X4.225Y-6.1473
X4.2291Y-4.3538
X4.2291Y-4.3892
X4.2291Y-4.4246
X4.252Y-4.9311
X4.2606Y-4.3525
X4.2606Y-4.3879
X4.2606Y-4.4233
X4.2987Y-6.221
X4.3011Y-4.3535
X4.3011Y-4.3889
X4.3011Y-4.4243
X4.3326Y-4.3538
X4.3326Y-4.3892
X4.3326Y-4.4246
X4.3543Y-4.9311
X4.3996Y-4.9311
X4.4365Y-1.8549
X4.4365Y-2.1003
X4.4488Y-4.9311
X4.4725Y-1.8549
X4.4725Y-2.1003
X4.4975Y-1.9219
X4.4975Y-2.1673
X4.498Y-4.9311
X4.5085Y-1.8549
X4.5085Y-1.8919
X4.5085Y-2.1003
X4.5085Y-2.1373
X4.578Y-4.872
X4.58Y-4.738
X4.5929Y-2.4709
X4.6189Y-2.4709
X4.63Y-4.872
X4.6449Y-2.4709
T2
X3.2451Y-4.936
X3.2537Y-4.6939
X3.2537Y-4.7239
X3.2768Y-4.3542
X3.2768Y-4.3896
X3.2768Y-4.4251
X3.2837Y-4.6939
X3.2837Y-4.7239
X3.2937Y-4.7539
X3.3102Y-4.3546
X3.3102Y-4.39
X3.3102Y-4.4255
X3.3457Y-4.3546
X3.3457Y-4.39
X3.3457Y-4.4255
X3.3811Y-4.3546
X3.3811Y-4.39
X3.3811Y-4.4255
X3.4931Y-4.9409
X3.5646Y-4.3538
X3.5646Y-4.3893
X3.5646Y-4.4247
X3.598Y-4.3542
X3.598Y-4.3896
X3.598Y-4.4251
X3.6335Y-4.3542
X3.6335Y-4.3896
X3.6335Y-4.4251
X3.6637Y-4.7739
X3.6689Y-4.3542
X3.6689Y-4.3896
X3.6689Y-4.4251
X3.7548Y-5.7294
X3.7637Y-4.6839
X4.0171Y-4.9009
X4.0634Y-4.693
X4.0634Y-4.723
X4.0865Y-4.3534
X4.0865Y-4.3888
X4.0865Y-4.4242
X4.0934Y-4.693
X4.0934Y-4.723
X4.1034Y-4.753
X4.12Y-4.3538
X4.12Y-4.3892
X4.12Y-4.4246
X4.1554Y-4.3538
X4.1554Y-4.3892
X4.1554Y-4.4246
X4.1908Y-4.3538
X4.1908Y-4.3892
X4.1908Y-4.4246
X4.3034Y-4.932
X4.3743Y-4.353
X4.3743Y-4.3884
X4.3743Y-4.4238
X4.4078Y-4.3534
X4.4078Y-4.3888
X4.4078Y-4.4242
X4.4432Y-4.3534
X4.4432Y-4.3888
X4.4432Y-4.4242
X4.4734Y-4.773
X4.4786Y-4.3534
X4.4786Y-4.3888
X4.4786Y-4.4242
X4.5734Y-4.683
T3
X1.07Y-6.18
X1.3431Y-6.1629
X2.53Y-4.965
X4.0Y-5.186
T4
X0.7213Y-3.9962
X1.161Y-3.0296
X1.201Y-3.0296
X1.216Y-3.0676
X1.216Y-3.1076
X1.216Y-3.1476
X1.534Y-3.178
X1.636Y-3.0296
X1.676Y-3.0296
X1.691Y-3.0676
X1.691Y-3.1076
X1.691Y-3.1476
X2.112Y-3.0297
X2.152Y-3.0297
X2.167Y-3.0677
X2.167Y-3.1077
X2.167Y-3.1477
X2.588Y-3.0297
X2.628Y-3.0297
X2.643Y-3.0677
X2.643Y-3.1077
X2.643Y-3.1477
X3.0631Y-3.0297
X3.1031Y-3.0297
X3.1181Y-3.0677
X3.1181Y-3.1077
X3.1181Y-3.1477
X3.476Y-3.6772
X3.476Y-3.7559
X3.476Y-3.8346
X3.539Y-3.0297
X3.579Y-3.0297
X3.594Y-3.0677
X3.594Y-3.1077
X3.594Y-3.1477
X3.5981Y-3.582
X3.66Y-3.6787
X3.66Y-3.7575
X3.7089Y-4.2229
X3.7089Y-4.2579
X3.7238Y-4.8078
X3.745Y-4.2579
X3.7463Y-4.2229
X3.7556Y-3.582
X3.8174Y-3.6787
X3.8174Y-3.7575
X3.8174Y-3.8362
X3.9131Y-3.582
X4.014Y-3.0296
X4.054Y-3.0296
X4.068Y-3.6787
X4.068Y-3.7575
X4.069Y-3.0676
X4.069Y-3.1076
X4.069Y-3.1476
X4.1339Y-3.7598
X4.1636Y-3.582
X4.3267Y-3.6787
X4.3267Y-3.7575
X4.4224Y-3.582
X4.4842Y-3.6787
X4.4842Y-3.7575
X4.489Y-3.0297
X4.5207Y-4.2229
X4.5207Y-4.2579
X4.529Y-3.0297
X4.5331Y-4.8201
X4.544Y-3.0677
X4.544Y-3.1077
X4.544Y-3.1477
X4.56Y-4.2579
X4.5613Y-4.2229
X4.5798Y-3.582
T6
X0.712Y-1.7885
X0.713Y-6.2495
X0.7397Y-1.7217
X0.7397Y-1.8553
X0.7407Y-6.1827
X0.7407Y-6.3163
X0.7624Y-5.7937
X0.8065Y-1.694
X0.8065Y-1.883
X0.8075Y-6.155
X0.8075Y-6.344
X0.8116Y-5.7937
X0.8608Y-5.7937
X0.8733Y-1.7217
X0.8733Y-1.8553
X0.8743Y-6.1827
X0.8743Y-6.3163
X0.901Y-1.7885
X0.902Y-6.2495
X0.91Y-5.7937
X0.9592Y-5.7937
X1.0084Y-5.7937
X1.0576Y-5.7937
X3.627Y-6.1201
X3.6762Y-6.1201
X3.7254Y-6.1201
X3.7746Y-6.1201
X4.4331Y-6.2495
X4.4608Y-6.1827
X4.4608Y-6.3163
X4.5276Y-6.155
X4.5276Y-6.344
X4.5945Y-6.1827
X4.5945Y-6.3163
X4.6221Y-6.2495
X5.285Y-1.7885
X5.3127Y-1.7217
X5.3127Y-1.8553
X5.3795Y-1.694
X5.3795Y-1.883
X5.4463Y-1.7217
X5.4463Y-1.8553
X5.474Y-1.7885
T7
X0.8506Y-3.297
X0.8506Y-3.397
X0.8506Y-3.497
X0.9506Y-3.297
X0.9506Y-3.397
X0.9506Y-3.497
X1.0506Y-3.297
X1.0506Y-3.397
X1.0506Y-3.497
X1.4256Y-3.297
X1.4256Y-3.397
X1.4256Y-3.497
X1.5256Y-3.297
X1.5256Y-3.397
X1.5256Y-3.497
X1.6256Y-3.297
X1.6256Y-3.397
X1.6256Y-3.497
X1.8016Y-3.297
X1.8016Y-3.397
X1.8016Y-3.497
X1.9016Y-3.297
X1.9016Y-3.397
X1.9016Y-3.497
X2.0016Y-3.297
X2.0016Y-3.397
X2.0016Y-3.497
X2.1016Y-3.297
X2.1016Y-3.397
X2.1016Y-3.497
X2.2776Y-3.297
X2.2776Y-3.397
X2.2776Y-3.497
X2.3776Y-3.297
X2.3776Y-3.397
X2.3776Y-3.497
X2.4776Y-3.297
X2.4776Y-3.397
X2.4776Y-3.497
X2.5776Y-3.297
X2.5776Y-3.397
X2.5776Y-3.497
X2.7527Y-3.297
X2.7527Y-3.397
X2.7527Y-3.497
X2.8527Y-3.297
X2.8527Y-3.397
X2.8527Y-3.497
X2.9527Y-3.297
X2.9527Y-3.397
X2.9527Y-3.497
X3.0527Y-3.297
X3.0527Y-3.397
X3.0527Y-3.497
X3.2286Y-3.297
X3.2286Y-3.397
X3.2286Y-3.497
X3.3286Y-3.397
X3.3286Y-3.497
X3.4286Y-3.497
X3.9036Y-3.297
X3.9036Y-3.397
X3.9036Y-3.497
X4.3786Y-3.297
X4.3786Y-3.397
X4.3786Y-3.497
X4.4786Y-3.297
X4.4786Y-3.397
X4.4786Y-3.497
T8
X4.3622Y-5.2953
X4.3622Y-5.5945
T9
X2.513Y-3.8043
X2.513Y-3.9043
X2.513Y-4.0043
X2.513Y-4.1043
X2.613Y-3.8043
X2.613Y-3.9043
X2.613Y-4.0043
X2.613Y-4.1043
X2.713Y-3.8043
X2.713Y-3.9043
X2.713Y-4.0043
X2.713Y-4.1043
X2.813Y-3.8043
X2.813Y-3.9043
X2.813Y-4.0043
X2.813Y-4.1043
T10
X1.5578Y-2.4251
X1.5578Y-2.7401
X1.6169Y-2.5235
X1.6169Y-2.6417
X1.6759Y-2.4251
X1.6759Y-2.7401
X1.735Y-2.5235
X1.735Y-2.6417
X1.794Y-2.4251
X1.794Y-2.7401
X1.8531Y-2.5235
X1.8531Y-2.6417
X1.9121Y-2.4251
X1.9121Y-2.7401
X1.9712Y-2.5235
X1.9712Y-2.6417
X2.0302Y-2.4251
X2.0302Y-2.7401
X2.0893Y-2.5235
X2.0893Y-2.6417
X2.1483Y-2.4251
X2.1483Y-2.7401
X2.2074Y-2.5235
X2.2074Y-2.6417
X2.2665Y-2.4251
X2.2665Y-2.7401
X2.8373Y-2.4251
X2.8373Y-2.7401
X2.8964Y-2.5235
X2.8964Y-2.6417
X2.9554Y-2.4251
X2.9554Y-2.7401
X3.0145Y-2.5235
X3.0145Y-2.6417
X3.0735Y-2.4251
X3.0735Y-2.7401
X3.1326Y-2.5235
X3.1326Y-2.6417
X3.1917Y-2.4251
X3.1917Y-2.7401
X3.2507Y-2.5235
X3.2507Y-2.6417
X3.3098Y-2.4251
X3.3098Y-2.7401
X3.3688Y-2.5235
X3.3688Y-2.6417
X3.4279Y-2.4251
X3.4279Y-2.7401
X3.4869Y-2.5235
X3.4869Y-2.6417
X3.546Y-2.4251
X3.546Y-2.7401
X3.605Y-2.5235
X3.605Y-2.6417
X3.6641Y-2.4251
X3.6641Y-2.7401
X3.7231Y-2.5235
X3.7231Y-2.6417
X3.7822Y-2.4251
X3.7822Y-2.7401
T11
X0.8065Y-1.7885
X0.8075Y-6.2495
X4.5276Y-6.2495
X5.3795Y-1.7885
T12
X1.2724Y-2.1692
X2.5519Y-2.1692
X4.0676Y-2.1692
T5
G00X1.0248Y-6.2013
M15
G01X1.0248Y-6.2407
M16
G05
G00X1.0248Y-6.3234
M15
G01X1.0248Y-6.3706
M16
G05
G00X1.3752Y-6.2013
M15
G01X1.3752Y-6.2407
M16
G05
G00X1.3752Y-6.3234
M15
G01X1.3752Y-6.3706
M16
G05
T0
M30
